<svg class="railroad-diagram" viewBox="0 0 633.5 171" xmlns="http://www.w3.org/2000/svg" xmlns:xlink="http://www.w3.org/1999/xlink">
<g transform="translate(.5 .5)">
<g>
<path d="M20 51v20m10 -20v20m-10 -10h20"></path></g><path d="M40 61h10"></path><g>
<path d="M50 61h0.0"></path><path d="M50.0 61h10"></path><g>
<path d="M60.0 61h10.0"></path><path d="M563.5 61h10.0"></path><g class="terminal ">
<path d="M70.0 61h0.0"></path><path d="M200.5 61h0.0"></path><rect height="22" rx="10" ry="10" width="130.5" x="70.0" y="50"></rect><text x="135.25" y="65">XGROUP CREATE</text></g><path d="M200.5 61h10"></path><path d="M210.5 61h10"></path><g class="non-terminal ">
<path d="M220.5 61h0.0"></path><path d="M266.0 61h0.0"></path><rect height="22" width="45.5" x="220.5" y="50"></rect><text x="243.25" y="65">key</text><title>key</title></g><path d="M266.0 61h10"></path><path d="M276.0 61h10"></path><g class="non-terminal ">
<path d="M286.0 61h0.0"></path><path d="M348.5 61h0.0"></path><rect height="22" width="62.5" x="286.0" y="50"></rect><text x="317.25" y="65">group</text><title>string</title></g><path d="M348.5 61h10"></path><g>
<path d="M358.5 61h0.0"></path><path d="M435.5 61h0.0"></path><path d="M358.5 61a10 10 0 0 0 10 -10v-10a10 10 0 0 1 10 -10"></path><g class="non-terminal ">
<path d="M378.5 31h0.0"></path><path d="M415.5 31h0.0"></path><rect height="22" width="37.0" x="378.5" y="20"></rect><text x="397.0" y="35">id</text><title>string</title></g><path d="M415.5 31a10 10 0 0 1 10 10v10a10 10 0 0 0 10 10"></path><path d="M358.5 61h20"></path><g class="terminal ">
<path d="M378.5 61h4.25"></path><path d="M411.25 61h4.25"></path><rect height="22" rx="10" ry="10" width="28.5" x="382.75" y="50"></rect><text x="397.0" y="65">$</text></g><path d="M415.5 61h20"></path></g><g>
<path d="M435.5 61h0.0"></path><path d="M563.5 61h0.0"></path><path d="M435.5 61h20"></path><g>
<path d="M455.5 61h88.0"></path></g><path d="M543.5 61h20"></path><path d="M435.5 61a10 10 0 0 1 10 10v0a10 10 0 0 0 10 10"></path><g class="terminal ">
<path d="M455.5 81h0.0"></path><path d="M543.5 81h0.0"></path><rect height="22" rx="10" ry="10" width="88.0" x="455.5" y="70"></rect><text x="499.5" y="85">MKSTREAM</text></g><path d="M543.5 81a10 10 0 0 0 10 -10v0a10 10 0 0 1 10 -10"></path></g></g><path d="M573.5 61a10 10 0 0 1 10 10v19a10 10 0 0 1 -10 10h-513.5a10 10 0 0 0 -10 10v0a10 10 0 0 0 10 10"></path><g>
<path d="M60.0 120h109.0"></path><path d="M464.5 120h109.0"></path><g>
<path d="M169.0 120h0.0"></path><path d="M464.5 120h0.0"></path><path d="M169.0 120h20"></path><g>
<path d="M189.0 120h255.5"></path></g><path d="M444.5 120h20"></path><path d="M169.0 120a10 10 0 0 1 10 10v0a10 10 0 0 0 10 10"></path><g>
<path d="M189.0 140h0.0"></path><path d="M444.5 140h0.0"></path><g class="terminal ">
<path d="M189.0 140h0.0"></path><path d="M302.5 140h0.0"></path><rect height="22" rx="10" ry="10" width="113.5" x="189.0" y="129"></rect><text x="245.75" y="144">ENTRIESREAD</text></g><path d="M302.5 140h10"></path><path d="M312.5 140h10"></path><g class="non-terminal ">
<path d="M322.5 140h0.0"></path><path d="M444.5 140h0.0"></path><rect height="22" width="122.0" x="322.5" y="129"></rect><text x="383.5" y="144">entries-read</text><title>integer</title></g></g><path d="M444.5 140a10 10 0 0 0 10 -10v0a10 10 0 0 1 10 -10"></path></g></g><path d="M573.5 120h10"></path><path d="M583.5 120h0.0"></path></g><path d="M583.5 120h10"></path><path d="M 593.5 120 h 20 m -10 -10 v 20 m 10 -20 v 20"></path></g></svg>