<svg class="railroad-diagram" viewBox="0 0 747.5 170" xmlns="http://www.w3.org/2000/svg" xmlns:xlink="http://www.w3.org/1999/xlink">
<g transform="translate(.5 .5)">
<g>
<path d="M20 21v20m10 -20v20m-10 -10h20"></path></g><path d="M40 31h10"></path><g>
<path d="M50 31h0.0"></path><path d="M50.0 31h10"></path><g>
<path d="M60.0 31h10.0"></path><path d="M677.5 31h10.0"></path><g class="terminal ">
<path d="M70.0 31h0.0"></path><path d="M149.5 31h0.0"></path><rect height="22" rx="10" ry="10" width="79.5" x="70.0" y="20"></rect><text x="109.75" y="35">SORT&#95;RO</text></g><path d="M149.5 31h10"></path><path d="M159.5 31h10"></path><g class="non-terminal ">
<path d="M169.5 31h0.0"></path><path d="M215.0 31h0.0"></path><rect height="22" width="45.5" x="169.5" y="20"></rect><text x="192.25" y="35">key</text><title>key</title></g><path d="M215.0 31h10"></path><g>
<path d="M225.0 31h0.0"></path><path d="M401.5 31h0.0"></path><path d="M225.0 31h20"></path><g>
<path d="M245.0 31h136.5"></path></g><path d="M381.5 31h20"></path><path d="M225.0 31a10 10 0 0 1 10 10v0a10 10 0 0 0 10 10"></path><g>
<path d="M245.0 51h0.0"></path><path d="M381.5 51h0.0"></path><g class="terminal ">
<path d="M245.0 51h0.0"></path><path d="M282.0 51h0.0"></path><rect height="22" rx="10" ry="10" width="37.0" x="245.0" y="40"></rect><text x="263.5" y="55">BY</text></g><path d="M282.0 51h10"></path><path d="M292.0 51h10"></path><g class="non-terminal ">
<path d="M302.0 51h0.0"></path><path d="M381.5 51h0.0"></path><rect height="22" width="79.5" x="302.0" y="40"></rect><text x="341.75" y="55">pattern</text><title>pattern</title></g></g><path d="M381.5 51a10 10 0 0 0 10 -10v0a10 10 0 0 1 10 -10"></path></g><g>
<path d="M401.5 31h0.0"></path><path d="M677.5 31h0.0"></path><path d="M401.5 31h20"></path><g>
<path d="M421.5 31h236.0"></path></g><path d="M657.5 31h20"></path><path d="M401.5 31a10 10 0 0 1 10 10v0a10 10 0 0 0 10 10"></path><g>
<path d="M421.5 51h0.0"></path><path d="M657.5 51h0.0"></path><g class="terminal ">
<path d="M421.5 51h0.0"></path><path d="M484.0 51h0.0"></path><rect height="22" rx="10" ry="10" width="62.5" x="421.5" y="40"></rect><text x="452.75" y="55">LIMIT</text></g><path d="M484.0 51h10"></path><path d="M494.0 51h10"></path><g>
<path d="M504.0 51h0.0"></path><path d="M657.5 51h0.0"></path><g class="non-terminal ">
<path d="M504.0 51h0.0"></path><path d="M575.0 51h0.0"></path><rect height="22" width="71.0" x="504.0" y="40"></rect><text x="539.5" y="55">offset</text><title>integer</title></g><path d="M575.0 51h10"></path><path d="M585.0 51h10"></path><g class="non-terminal ">
<path d="M595.0 51h0.0"></path><path d="M657.5 51h0.0"></path><rect height="22" width="62.5" x="595.0" y="40"></rect><text x="626.25" y="55">count</text><title>integer</title></g></g></g><path d="M657.5 51a10 10 0 0 0 10 -10v0a10 10 0 0 1 10 -10"></path></g></g><path d="M687.5 31a10 10 0 0 1 10 10v19a10 10 0 0 1 -10 10h-627.5a10 10 0 0 0 -10 10v0a10 10 0 0 0 10 10"></path><g>
<path d="M60.0 90h93.0"></path><path d="M594.5 90h93.0"></path><g>
<path d="M153.0 90h0.0"></path><path d="M358.0 90h0.0"></path><path d="M153.0 90h20"></path><g>
<path d="M173.0 90h165.0"></path></g><path d="M338.0 90h20"></path><path d="M153.0 90a10 10 0 0 1 10 10v0a10 10 0 0 0 10 10"></path><g>
<path d="M173.0 110h0.0"></path><path d="M338.0 110h0.0"></path><path d="M173.0 110h10"></path><g>
<path d="M183.0 110h0.0"></path><path d="M328.0 110h0.0"></path><g class="terminal ">
<path d="M183.0 110h0.0"></path><path d="M228.5 110h0.0"></path><rect height="22" rx="10" ry="10" width="45.5" x="183.0" y="99"></rect><text x="205.75" y="114">GET</text></g><path d="M228.5 110h10"></path><path d="M238.5 110h10"></path><g class="non-terminal ">
<path d="M248.5 110h0.0"></path><path d="M328.0 110h0.0"></path><rect height="22" width="79.5" x="248.5" y="99"></rect><text x="288.25" y="114">pattern</text><title>pattern</title></g></g><path d="M328.0 110h10"></path><path d="M183.0 110a10 10 0 0 0 -10 10v0a10 10 0 0 0 10 10"></path><g>
<path d="M183.0 130h145.0"></path></g><path d="M328.0 130a10 10 0 0 0 10 -10v0a10 10 0 0 0 -10 -10"></path></g><path d="M338.0 110a10 10 0 0 0 10 -10v0a10 10 0 0 1 10 -10"></path></g><g>
<path d="M358.0 90h0.0"></path><path d="M492.0 90h0.0"></path><path d="M358.0 90h20"></path><g>
<path d="M378.0 90h94.0"></path></g><path d="M472.0 90h20"></path><path d="M358.0 90a10 10 0 0 1 10 10v29a10 10 0 0 0 10 10"></path><g>
<path d="M378.0 139h0.0"></path><path d="M472.0 139h0.0"></path><path d="M378.0 139a10 10 0 0 0 10 -10v-10a10 10 0 0 1 10 -10"></path><g class="terminal ">
<path d="M398.0 109h4.25"></path><path d="M447.75 109h4.25"></path><rect height="22" rx="10" ry="10" width="45.5" x="402.25" y="98"></rect><text x="425.0" y="113">ASC</text></g><path d="M452.0 109a10 10 0 0 1 10 10v10a10 10 0 0 0 10 10"></path><path d="M378.0 139h20"></path><g class="terminal ">
<path d="M398.0 139h0.0"></path><path d="M452.0 139h0.0"></path><rect height="22" rx="10" ry="10" width="54.0" x="398.0" y="128"></rect><text x="425.0" y="143">DESC</text></g><path d="M452.0 139h20"></path></g><path d="M472.0 139a10 10 0 0 0 10 -10v-29a10 10 0 0 1 10 -10"></path></g><g>
<path d="M492.0 90h0.0"></path><path d="M594.5 90h0.0"></path><path d="M492.0 90h20"></path><g>
<path d="M512.0 90h62.5"></path></g><path d="M574.5 90h20"></path><path d="M492.0 90a10 10 0 0 1 10 10v0a10 10 0 0 0 10 10"></path><g class="terminal ">
<path d="M512.0 110h0.0"></path><path d="M574.5 110h0.0"></path><rect height="22" rx="10" ry="10" width="62.5" x="512.0" y="99"></rect><text x="543.25" y="114">ALPHA</text></g><path d="M574.5 110a10 10 0 0 0 10 -10v0a10 10 0 0 1 10 -10"></path></g></g><path d="M687.5 90h10"></path><path d="M697.5 90h0.0"></path></g><path d="M697.5 90h10"></path><path d="M 707.5 90 h 20 m -10 -10 v 20 m 10 -20 v 20"></path></g></svg>