<svg class="railroad-diagram" viewBox="0 0 767.0 141" xmlns="http://www.w3.org/2000/svg" xmlns:xlink="http://www.w3.org/1999/xlink">
<g transform="translate(.5 .5)">
<g>
<path d="M20 21v20m10 -20v20m-10 -10h20"></path></g><path d="M40 31h10"></path><g>
<path d="M50 31h0.0"></path><path d="M50.0 31h10"></path><g>
<path d="M60.0 31h10.0"></path><path d="M697.0 31h10.0"></path><g class="terminal ">
<path d="M70.0 31h0.0"></path><path d="M149.5 31h0.0"></path><rect height="22" rx="10" ry="10" width="79.5" x="70.0" y="20"></rect><text x="109.75" y="35">RESTORE</text></g><path d="M149.5 31h10"></path><path d="M159.5 31h10"></path><g class="non-terminal ">
<path d="M169.5 31h0.0"></path><path d="M215.0 31h0.0"></path><rect height="22" width="45.5" x="169.5" y="20"></rect><text x="192.25" y="35">key</text><title>key</title></g><path d="M215.0 31h10"></path><path d="M225.0 31h10"></path><g class="non-terminal ">
<path d="M235.0 31h0.0"></path><path d="M280.5 31h0.0"></path><rect height="22" width="45.5" x="235.0" y="20"></rect><text x="257.75" y="35">ttl</text><title>integer</title></g><path d="M280.5 31h10"></path><path d="M290.5 31h10"></path><g class="non-terminal ">
<path d="M300.5 31h0.0"></path><path d="M456.5 31h0.0"></path><rect height="22" width="156.0" x="300.5" y="20"></rect><text x="378.5" y="35">serialized-value</text><title>string</title></g><path d="M456.5 31h10"></path><g>
<path d="M466.5 31h0.0"></path><path d="M586.0 31h0.0"></path><path d="M466.5 31h20"></path><g>
<path d="M486.5 31h79.5"></path></g><path d="M566.0 31h20"></path><path d="M466.5 31a10 10 0 0 1 10 10v0a10 10 0 0 0 10 10"></path><g class="terminal ">
<path d="M486.5 51h0.0"></path><path d="M566.0 51h0.0"></path><rect height="22" rx="10" ry="10" width="79.5" x="486.5" y="40"></rect><text x="526.25" y="55">REPLACE</text></g><path d="M566.0 51a10 10 0 0 0 10 -10v0a10 10 0 0 1 10 -10"></path></g><g>
<path d="M586.0 31h0.0"></path><path d="M697.0 31h0.0"></path><path d="M586.0 31h20"></path><g>
<path d="M606.0 31h71.0"></path></g><path d="M677.0 31h20"></path><path d="M586.0 31a10 10 0 0 1 10 10v0a10 10 0 0 0 10 10"></path><g class="terminal ">
<path d="M606.0 51h0.0"></path><path d="M677.0 51h0.0"></path><rect height="22" rx="10" ry="10" width="71.0" x="606.0" y="40"></rect><text x="641.5" y="55">ABSTTL</text></g><path d="M677.0 51a10 10 0 0 0 10 -10v0a10 10 0 0 1 10 -10"></path></g></g><path d="M707.0 31a10 10 0 0 1 10 10v19a10 10 0 0 1 -10 10h-647.0a10 10 0 0 0 -10 10v0a10 10 0 0 0 10 10"></path><g>
<path d="M60.0 90h104.5"></path><path d="M602.5 90h104.5"></path><g>
<path d="M164.5 90h0.0"></path><path d="M392.0 90h0.0"></path><path d="M164.5 90h20"></path><g>
<path d="M184.5 90h187.5"></path></g><path d="M372.0 90h20"></path><path d="M164.5 90a10 10 0 0 1 10 10v0a10 10 0 0 0 10 10"></path><g>
<path d="M184.5 110h0.0"></path><path d="M372.0 110h0.0"></path><g class="terminal ">
<path d="M184.5 110h0.0"></path><path d="M272.5 110h0.0"></path><rect height="22" rx="10" ry="10" width="88.0" x="184.5" y="99"></rect><text x="228.5" y="114">IDLETIME</text></g><path d="M272.5 110h10"></path><path d="M282.5 110h10"></path><g class="non-terminal ">
<path d="M292.5 110h0.0"></path><path d="M372.0 110h0.0"></path><rect height="22" width="79.5" x="292.5" y="99"></rect><text x="332.25" y="114">seconds</text><title>integer</title></g></g><path d="M372.0 110a10 10 0 0 0 10 -10v0a10 10 0 0 1 10 -10"></path></g><g>
<path d="M392.0 90h0.0"></path><path d="M602.5 90h0.0"></path><path d="M392.0 90h20"></path><g>
<path d="M412.0 90h170.5"></path></g><path d="M582.5 90h20"></path><path d="M392.0 90a10 10 0 0 1 10 10v0a10 10 0 0 0 10 10"></path><g>
<path d="M412.0 110h0.0"></path><path d="M582.5 110h0.0"></path><g class="terminal ">
<path d="M412.0 110h0.0"></path><path d="M466.0 110h0.0"></path><rect height="22" rx="10" ry="10" width="54.0" x="412.0" y="99"></rect><text x="439.0" y="114">FREQ</text></g><path d="M466.0 110h10"></path><path d="M476.0 110h10"></path><g class="non-terminal ">
<path d="M486.0 110h0.0"></path><path d="M582.5 110h0.0"></path><rect height="22" width="96.5" x="486.0" y="99"></rect><text x="534.25" y="114">frequency</text><title>integer</title></g></g><path d="M582.5 110a10 10 0 0 0 10 -10v0a10 10 0 0 1 10 -10"></path></g></g><path d="M707.0 90h10"></path><path d="M717.0 90h0.0"></path></g><path d="M717.0 90h10"></path><path d="M 727.0 90 h 20 m -10 -10 v 20 m 10 -20 v 20"></path></g></svg>