<svg class="railroad-diagram" viewBox="0 0 704.5 387" xmlns="http://www.w3.org/2000/svg" xmlns:xlink="http://www.w3.org/1999/xlink">
<g transform="translate(.5 .5)">
<g>
<path d="M20 81v20m10 -20v20m-10 -10h20"></path></g><path d="M40 91h10"></path><g>
<path d="M50 91h0.0"></path><path d="M50.0 91h10"></path><g>
<path d="M60.0 91h10.0"></path><path d="M634.5 91h10.0"></path><g class="terminal ">
<path d="M70.0 91h0.0"></path><path d="M166.5 91h0.0"></path><rect height="22" rx="10" ry="10" width="96.5" x="70.0" y="80"></rect><text x="118.25" y="95">GEORADIUS</text></g><path d="M166.5 91h10"></path><path d="M176.5 91h10"></path><g class="non-terminal ">
<path d="M186.5 91h0.0"></path><path d="M232.0 91h0.0"></path><rect height="22" width="45.5" x="186.5" y="80"></rect><text x="209.25" y="95">key</text><title>key</title></g><path d="M232.0 91h10"></path><path d="M242.0 91h10"></path><g class="non-terminal ">
<path d="M252.0 91h0.0"></path><path d="M348.5 91h0.0"></path><rect height="22" width="96.5" x="252.0" y="80"></rect><text x="300.25" y="95">longitude</text><title>double</title></g><path d="M348.5 91h10"></path><path d="M358.5 91h10"></path><g class="non-terminal ">
<path d="M368.5 91h0.0"></path><path d="M456.5 91h0.0"></path><rect height="22" width="88.0" x="368.5" y="80"></rect><text x="412.5" y="95">latitude</text><title>double</title></g><path d="M456.5 91h10"></path><path d="M466.5 91h10"></path><g class="non-terminal ">
<path d="M476.5 91h0.0"></path><path d="M547.5 91h0.0"></path><rect height="22" width="71.0" x="476.5" y="80"></rect><text x="512.0" y="95">radius</text><title>double</title></g><path d="M547.5 91h10"></path><g>
<path d="M557.5 91h0.0"></path><path d="M634.5 91h0.0"></path><path d="M557.5 91a10 10 0 0 0 10 -10v-10a10 10 0 0 1 10 -10"></path><g class="terminal ">
<path d="M577.5 61h0.0"></path><path d="M614.5 61h0.0"></path><rect height="22" rx="10" ry="10" width="37.0" x="577.5" y="50"></rect><text x="596.0" y="65">KM</text></g><path d="M614.5 61a10 10 0 0 1 10 10v10a10 10 0 0 0 10 10"></path><path d="M557.5 91a10 10 0 0 0 10 -10v-40a10 10 0 0 1 10 -10"></path><g class="terminal ">
<path d="M577.5 31h4.25"></path><path d="M610.25 31h4.25"></path><rect height="22" rx="10" ry="10" width="28.5" x="581.75" y="20"></rect><text x="596.0" y="35">M</text></g><path d="M614.5 31a10 10 0 0 1 10 10v40a10 10 0 0 0 10 10"></path><path d="M557.5 91h20"></path><g class="terminal ">
<path d="M577.5 91h0.0"></path><path d="M614.5 91h0.0"></path><rect height="22" rx="10" ry="10" width="37.0" x="577.5" y="80"></rect><text x="596.0" y="95">FT</text></g><path d="M614.5 91h20"></path><path d="M557.5 91a10 10 0 0 1 10 10v10a10 10 0 0 0 10 10"></path><g class="terminal ">
<path d="M577.5 121h0.0"></path><path d="M614.5 121h0.0"></path><rect height="22" rx="10" ry="10" width="37.0" x="577.5" y="110"></rect><text x="596.0" y="125">MI</text></g><path d="M614.5 121a10 10 0 0 0 10 -10v-10a10 10 0 0 1 10 -10"></path></g></g><path d="M644.5 91a10 10 0 0 1 10 10v29a10 10 0 0 1 -10 10h-584.5a10 10 0 0 0 -10 10v0a10 10 0 0 0 10 10"></path><g>
<path d="M60.0 160h96.0"></path><path d="M548.5 160h96.0"></path><g>
<path d="M156.0 160h0.0"></path><path d="M292.5 160h0.0"></path><path d="M156.0 160h20"></path><g>
<path d="M176.0 160h96.5"></path></g><path d="M272.5 160h20"></path><path d="M156.0 160a10 10 0 0 1 10 10v0a10 10 0 0 0 10 10"></path><g class="terminal ">
<path d="M176.0 180h0.0"></path><path d="M272.5 180h0.0"></path><rect height="22" rx="10" ry="10" width="96.5" x="176.0" y="169"></rect><text x="224.25" y="184">WITHCOORD</text></g><path d="M272.5 180a10 10 0 0 0 10 -10v0a10 10 0 0 1 10 -10"></path></g><g>
<path d="M292.5 160h0.0"></path><path d="M420.5 160h0.0"></path><path d="M292.5 160h20"></path><g>
<path d="M312.5 160h88.0"></path></g><path d="M400.5 160h20"></path><path d="M292.5 160a10 10 0 0 1 10 10v0a10 10 0 0 0 10 10"></path><g class="terminal ">
<path d="M312.5 180h0.0"></path><path d="M400.5 180h0.0"></path><rect height="22" rx="10" ry="10" width="88.0" x="312.5" y="169"></rect><text x="356.5" y="184">WITHDIST</text></g><path d="M400.5 180a10 10 0 0 0 10 -10v0a10 10 0 0 1 10 -10"></path></g><g>
<path d="M420.5 160h0.0"></path><path d="M548.5 160h0.0"></path><path d="M420.5 160h20"></path><g>
<path d="M440.5 160h88.0"></path></g><path d="M528.5 160h20"></path><path d="M420.5 160a10 10 0 0 1 10 10v0a10 10 0 0 0 10 10"></path><g class="terminal ">
<path d="M440.5 180h0.0"></path><path d="M528.5 180h0.0"></path><rect height="22" rx="10" ry="10" width="88.0" x="440.5" y="169"></rect><text x="484.5" y="184">WITHHASH</text></g><path d="M528.5 180a10 10 0 0 0 10 -10v0a10 10 0 0 1 10 -10"></path></g></g><path d="M644.5 160a10 10 0 0 1 10 10v19a10 10 0 0 1 -10 10h-584.5a10 10 0 0 0 -10 10v0a10 10 0 0 0 10 10"></path><g>
<path d="M60.0 219h85.0"></path><path d="M559.5 219h85.0"></path><g>
<path d="M145.0 219h0.0"></path><path d="M425.5 219h0.0"></path><path d="M145.0 219h20"></path><g>
<path d="M165.0 219h240.5"></path></g><path d="M405.5 219h20"></path><path d="M145.0 219a10 10 0 0 1 10 10v0a10 10 0 0 0 10 10"></path><g>
<path d="M165.0 239h0.0"></path><path d="M405.5 239h0.0"></path><g>
<path d="M165.0 239h0.0"></path><path d="M310.0 239h0.0"></path><g class="terminal ">
<path d="M165.0 239h0.0"></path><path d="M227.5 239h0.0"></path><rect height="22" rx="10" ry="10" width="62.5" x="165.0" y="228"></rect><text x="196.25" y="243">COUNT</text></g><path d="M227.5 239h10"></path><path d="M237.5 239h10"></path><g class="non-terminal ">
<path d="M247.5 239h0.0"></path><path d="M310.0 239h0.0"></path><rect height="22" width="62.5" x="247.5" y="228"></rect><text x="278.75" y="243">count</text><title>integer</title></g></g><path d="M310.0 239h10"></path><g>
<path d="M320.0 239h0.0"></path><path d="M405.5 239h0.0"></path><path d="M320.0 239h20"></path><g>
<path d="M340.0 239h45.5"></path></g><path d="M385.5 239h20"></path><path d="M320.0 239a10 10 0 0 1 10 10v0a10 10 0 0 0 10 10"></path><g class="terminal ">
<path d="M340.0 259h0.0"></path><path d="M385.5 259h0.0"></path><rect height="22" rx="10" ry="10" width="45.5" x="340.0" y="248"></rect><text x="362.75" y="263">ANY</text></g><path d="M385.5 259a10 10 0 0 0 10 -10v0a10 10 0 0 1 10 -10"></path></g></g><path d="M405.5 239a10 10 0 0 0 10 -10v0a10 10 0 0 1 10 -10"></path></g><g>
<path d="M425.5 219h0.0"></path><path d="M559.5 219h0.0"></path><path d="M425.5 219h20"></path><g>
<path d="M445.5 219h94.0"></path></g><path d="M539.5 219h20"></path><path d="M425.5 219a10 10 0 0 1 10 10v29a10 10 0 0 0 10 10"></path><g>
<path d="M445.5 268h0.0"></path><path d="M539.5 268h0.0"></path><path d="M445.5 268a10 10 0 0 0 10 -10v-10a10 10 0 0 1 10 -10"></path><g class="terminal ">
<path d="M465.5 238h4.25"></path><path d="M515.25 238h4.25"></path><rect height="22" rx="10" ry="10" width="45.5" x="469.75" y="227"></rect><text x="492.5" y="242">ASC</text></g><path d="M519.5 238a10 10 0 0 1 10 10v10a10 10 0 0 0 10 10"></path><path d="M445.5 268h20"></path><g class="terminal ">
<path d="M465.5 268h0.0"></path><path d="M519.5 268h0.0"></path><rect height="22" rx="10" ry="10" width="54.0" x="465.5" y="257"></rect><text x="492.5" y="272">DESC</text></g><path d="M519.5 268h20"></path></g><path d="M539.5 268a10 10 0 0 0 10 -10v-29a10 10 0 0 1 10 -10"></path></g></g><path d="M644.5 219a10 10 0 0 1 10 10v48a10 10 0 0 1 -10 10h-584.5a10 10 0 0 0 -10 10v0a10 10 0 0 0 10 10"></path><g>
<path d="M60.0 307h171.25"></path><path d="M473.25 307h171.25"></path><g>
<path d="M231.25 307h0.0"></path><path d="M473.25 307h0.0"></path><path d="M231.25 307h20"></path><g>
<path d="M251.25 307h202.0"></path></g><path d="M453.25 307h20"></path><path d="M231.25 307a10 10 0 0 1 10 10v29a10 10 0 0 0 10 10"></path><g>
<path d="M251.25 356h0.0"></path><path d="M453.25 356h0.0"></path><path d="M251.25 356a10 10 0 0 0 10 -10v-10a10 10 0 0 1 10 -10"></path><g>
<path d="M271.25 326h17.0"></path><path d="M416.25 326h17.0"></path><g class="terminal ">
<path d="M288.25 326h0.0"></path><path d="M350.75 326h0.0"></path><rect height="22" rx="10" ry="10" width="62.5" x="288.25" y="315"></rect><text x="319.5" y="330">STORE</text></g><path d="M350.75 326h10"></path><path d="M360.75 326h10"></path><g class="non-terminal ">
<path d="M370.75 326h0.0"></path><path d="M416.25 326h0.0"></path><rect height="22" width="45.5" x="370.75" y="315"></rect><text x="393.5" y="330">key</text><title>key</title></g></g><path d="M433.25 326a10 10 0 0 1 10 10v10a10 10 0 0 0 10 10"></path><path d="M251.25 356h20"></path><g>
<path d="M271.25 356h0.0"></path><path d="M433.25 356h0.0"></path><g class="terminal ">
<path d="M271.25 356h0.0"></path><path d="M367.75 356h0.0"></path><rect height="22" rx="10" ry="10" width="96.5" x="271.25" y="345"></rect><text x="319.5" y="360">STOREDIST</text></g><path d="M367.75 356h10"></path><path d="M377.75 356h10"></path><g class="non-terminal ">
<path d="M387.75 356h0.0"></path><path d="M433.25 356h0.0"></path><rect height="22" width="45.5" x="387.75" y="345"></rect><text x="410.5" y="360">key</text><title>key</title></g></g><path d="M433.25 356h20"></path></g><path d="M453.25 356a10 10 0 0 0 10 -10v-29a10 10 0 0 1 10 -10"></path></g></g><path d="M644.5 307h10"></path><path d="M654.5 307h0.0"></path></g><path d="M654.5 307h10"></path><path d="M 664.5 307 h 20 m -10 -10 v 20 m 10 -20 v 20"></path></g></svg>