<svg class="railroad-diagram" viewBox="0 0 377.5 82" xmlns="http://www.w3.org/2000/svg" xmlns:xlink="http://www.w3.org/1999/xlink">
<g transform="translate(.5 .5)">
<g>
<path d="M20 21v20m10 -20v20m-10 -10h20"></path></g><path d="M40 31h10"></path><g>
<path d="M50 31h0.0"></path><g>
<path d="M50.0 31h10.0"></path><path d="M317.5 31h10.0"></path><g class="terminal ">
<path d="M60.0 31h0.0"></path><path d="M139.5 31h0.0"></path><rect height="22" rx="10" ry="10" width="79.5" x="60.0" y="20"></rect><text x="99.75" y="35">TS.INFO</text></g><path d="M139.5 31h10"></path><path d="M149.5 31h10"></path><g class="non-terminal ">
<path d="M159.5 31h0.0"></path><path d="M205.0 31h0.0"></path><rect height="22" width="45.5" x="159.5" y="20"></rect><text x="182.25" y="35">key</text><title>key</title></g><path d="M205.0 31h10"></path><g>
<path d="M215.0 31h0.0"></path><path d="M317.5 31h0.0"></path><path d="M215.0 31h20"></path><g>
<path d="M235.0 31h62.5"></path></g><path d="M297.5 31h20"></path><path d="M215.0 31a10 10 0 0 1 10 10v0a10 10 0 0 0 10 10"></path><g class="non-terminal ">
<path d="M235.0 51h0.0"></path><path d="M297.5 51h0.0"></path><rect height="22" width="62.5" x="235.0" y="40"></rect><text x="266.25" y="55">DEBUG</text><title>string</title></g><path d="M297.5 51a10 10 0 0 0 10 -10v0a10 10 0 0 1 10 -10"></path></g></g><path d="M327.5 31h0.0"></path></g><path d="M327.5 31h10"></path><path d="M 337.5 31 h 20 m -10 -10 v 20 m 10 -20 v 20"></path></g></svg>