<svg class="railroad-diagram" viewBox="0 0 647.5 209" xmlns="http://www.w3.org/2000/svg" xmlns:xlink="http://www.w3.org/1999/xlink">
<g transform="translate(.5 .5)">
<g>
<path d="M20 21v20m10 -20v20m-10 -10h20"></path></g><path d="M40 31h10"></path><g>
<path d="M50 31h0.0"></path><path d="M50.0 31h10"></path><g>
<path d="M60.0 31h10.0"></path><path d="M577.5 31h10.0"></path><g class="terminal ">
<path d="M70.0 31h0.0"></path><path d="M166.5 31h0.0"></path><rect height="22" rx="10" ry="10" width="96.5" x="70.0" y="20"></rect><text x="118.25" y="35">TS.INCRBY</text></g><path d="M166.5 31h10"></path><path d="M176.5 31h10"></path><g class="non-terminal ">
<path d="M186.5 31h0.0"></path><path d="M232.0 31h0.0"></path><rect height="22" width="45.5" x="186.5" y="20"></rect><text x="209.25" y="35">key</text><title>key</title></g><path d="M232.0 31h10"></path><path d="M242.0 31h10"></path><g class="non-terminal ">
<path d="M252.0 31h0.0"></path><path d="M314.5 31h0.0"></path><rect height="22" width="62.5" x="252.0" y="20"></rect><text x="283.25" y="35">value</text><title>double</title></g><path d="M314.5 31h10"></path><g>
<path d="M324.5 31h0.0"></path><path d="M577.5 31h0.0"></path><path d="M324.5 31h20"></path><g>
<path d="M344.5 31h213.0"></path></g><path d="M557.5 31h20"></path><path d="M324.5 31a10 10 0 0 1 10 10v0a10 10 0 0 0 10 10"></path><g>
<path d="M344.5 51h0.0"></path><path d="M557.5 51h0.0"></path><g class="terminal ">
<path d="M344.5 51h0.0"></path><path d="M441.0 51h0.0"></path><rect height="22" rx="10" ry="10" width="96.5" x="344.5" y="40"></rect><text x="392.75" y="55">TIMESTAMP</text></g><path d="M441.0 51h10"></path><path d="M451.0 51h10"></path><g class="non-terminal ">
<path d="M461.0 51h0.0"></path><path d="M557.5 51h0.0"></path><rect height="22" width="96.5" x="461.0" y="40"></rect><text x="509.25" y="55">timestamp</text><title>string</title></g></g><path d="M557.5 51a10 10 0 0 0 10 -10v0a10 10 0 0 1 10 -10"></path></g></g><path d="M587.5 31a10 10 0 0 1 10 10v19a10 10 0 0 1 -10 10h-527.5a10 10 0 0 0 -10 10v0a10 10 0 0 0 10 10"></path><g>
<path d="M60.0 90h30.75"></path><path d="M556.75 90h30.75"></path><g>
<path d="M90.75 90h0.0"></path><path d="M394.75 90h0.0"></path><path d="M90.75 90h20"></path><g>
<path d="M110.75 90h264.0"></path></g><path d="M374.75 90h20"></path><path d="M90.75 90a10 10 0 0 1 10 10v0a10 10 0 0 0 10 10"></path><g>
<path d="M110.75 110h0.0"></path><path d="M374.75 110h0.0"></path><g class="terminal ">
<path d="M110.75 110h0.0"></path><path d="M207.25 110h0.0"></path><rect height="22" rx="10" ry="10" width="96.5" x="110.75" y="99"></rect><text x="159.0" y="114">RETENTION</text></g><path d="M207.25 110h10"></path><path d="M217.25 110h10"></path><g class="non-terminal ">
<path d="M227.25 110h0.0"></path><path d="M374.75 110h0.0"></path><rect height="22" width="147.5" x="227.25" y="99"></rect><text x="301.0" y="114">retentionPeriod</text><title>integer</title></g></g><path d="M374.75 110a10 10 0 0 0 10 -10v0a10 10 0 0 1 10 -10"></path></g><g>
<path d="M394.75 90h0.0"></path><path d="M556.75 90h0.0"></path><path d="M394.75 90h20"></path><g>
<path d="M414.75 90h122.0"></path></g><path d="M536.75 90h20"></path><path d="M394.75 90a10 10 0 0 1 10 10v0a10 10 0 0 0 10 10"></path><g class="terminal ">
<path d="M414.75 110h0.0"></path><path d="M536.75 110h0.0"></path><rect height="22" rx="10" ry="10" width="122.0" x="414.75" y="99"></rect><text x="475.75" y="114">UNCOMPRESSED</text></g><path d="M536.75 110a10 10 0 0 0 10 -10v0a10 10 0 0 1 10 -10"></path></g></g><path d="M587.5 90a10 10 0 0 1 10 10v19a10 10 0 0 1 -10 10h-527.5a10 10 0 0 0 -10 10v0a10 10 0 0 0 10 10"></path><g>
<path d="M60.0 149h51.75"></path><path d="M535.75 149h51.75"></path><g>
<path d="M111.75 149h0.0"></path><path d="M330.75 149h0.0"></path><path d="M111.75 149h20"></path><g>
<path d="M131.75 149h179.0"></path></g><path d="M310.75 149h20"></path><path d="M111.75 149a10 10 0 0 1 10 10v0a10 10 0 0 0 10 10"></path><g>
<path d="M131.75 169h0.0"></path><path d="M310.75 169h0.0"></path><g class="terminal ">
<path d="M131.75 169h0.0"></path><path d="M236.75 169h0.0"></path><rect height="22" rx="10" ry="10" width="105.0" x="131.75" y="158"></rect><text x="184.25" y="173">CHUNK&#95;SIZE</text></g><path d="M236.75 169h10"></path><path d="M246.75 169h10"></path><g class="non-terminal ">
<path d="M256.75 169h0.0"></path><path d="M310.75 169h0.0"></path><rect height="22" width="54.0" x="256.75" y="158"></rect><text x="283.75" y="173">size</text><title>integer</title></g></g><path d="M310.75 169a10 10 0 0 0 10 -10v0a10 10 0 0 1 10 -10"></path></g><g>
<path d="M330.75 149h0.0"></path><path d="M535.75 149h0.0"></path><path d="M330.75 149h20"></path><g>
<path d="M350.75 149h165.0"></path></g><path d="M515.75 149h20"></path><path d="M330.75 149a10 10 0 0 1 10 10v0a10 10 0 0 0 10 10"></path><g>
<path d="M350.75 169h0.0"></path><path d="M515.75 169h0.0"></path><path d="M350.75 169h10"></path><g>
<path d="M360.75 169h0.0"></path><path d="M505.75 169h0.0"></path><g class="non-terminal ">
<path d="M360.75 169h0.0"></path><path d="M423.25 169h0.0"></path><rect height="22" width="62.5" x="360.75" y="158"></rect><text x="392.0" y="173">label</text><title>string</title></g><path d="M423.25 169h10"></path><path d="M433.25 169h10"></path><g class="non-terminal ">
<path d="M443.25 169h0.0"></path><path d="M505.75 169h0.0"></path><rect height="22" width="62.5" x="443.25" y="158"></rect><text x="474.5" y="173">value</text><title>string</title></g></g><path d="M505.75 169h10"></path><path d="M360.75 169a10 10 0 0 0 -10 10v0a10 10 0 0 0 10 10"></path><g>
<path d="M360.75 189h145.0"></path></g><path d="M505.75 189a10 10 0 0 0 10 -10v0a10 10 0 0 0 -10 -10"></path></g><path d="M515.75 169a10 10 0 0 0 10 -10v0a10 10 0 0 1 10 -10"></path></g></g><path d="M587.5 149h10"></path><path d="M597.5 149h0.0"></path></g><path d="M597.5 149h10"></path><path d="M 607.5 149 h 20 m -10 -10 v 20 m 10 -20 v 20"></path></g></svg>