<svg class="railroad-diagram" viewBox="0 0 770.5 170" xmlns="http://www.w3.org/2000/svg" xmlns:xlink="http://www.w3.org/1999/xlink">
<g transform="translate(.5 .5)">
<g>
<path d="M20 21v20m10 -20v20m-10 -10h20"></path></g><path d="M40 31h10"></path><g>
<path d="M50 31h0.0"></path><path d="M50.0 31h10"></path><g>
<path d="M60.0 31h10.0"></path><path d="M700.5 31h10.0"></path><g class="terminal ">
<path d="M70.0 31h0.0"></path><path d="M183.5 31h0.0"></path><rect height="22" rx="10" ry="10" width="113.5" x="70.0" y="20"></rect><text x="126.75" y="35">ZRANGESTORE</text></g><path d="M183.5 31h10"></path><path d="M193.5 31h10"></path><g class="non-terminal ">
<path d="M203.5 31h0.0"></path><path d="M249.0 31h0.0"></path><rect height="22" width="45.5" x="203.5" y="20"></rect><text x="226.25" y="35">dst</text><title>key</title></g><path d="M249.0 31h10"></path><path d="M259.0 31h10"></path><g class="non-terminal ">
<path d="M269.0 31h0.0"></path><path d="M314.5 31h0.0"></path><rect height="22" width="45.5" x="269.0" y="20"></rect><text x="291.75" y="35">src</text><title>key</title></g><path d="M314.5 31h10"></path><path d="M324.5 31h10"></path><g class="non-terminal ">
<path d="M334.5 31h0.0"></path><path d="M380.0 31h0.0"></path><rect height="22" width="45.5" x="334.5" y="20"></rect><text x="357.25" y="35">min</text><title>string</title></g><path d="M380.0 31h10"></path><path d="M390.0 31h10"></path><g class="non-terminal ">
<path d="M400.0 31h0.0"></path><path d="M445.5 31h0.0"></path><rect height="22" width="45.5" x="400.0" y="20"></rect><text x="422.75" y="35">max</text><title>string</title></g><path d="M445.5 31h10"></path><g>
<path d="M455.5 31h0.0"></path><path d="M615.0 31h0.0"></path><path d="M455.5 31h20"></path><g>
<path d="M475.5 31h119.5"></path></g><path d="M595.0 31h20"></path><path d="M455.5 31a10 10 0 0 1 10 10v29a10 10 0 0 0 10 10"></path><g>
<path d="M475.5 80h0.0"></path><path d="M595.0 80h0.0"></path><path d="M475.5 80a10 10 0 0 0 10 -10v-10a10 10 0 0 1 10 -10"></path><g class="terminal ">
<path d="M495.5 50h0.0"></path><path d="M575.0 50h0.0"></path><rect height="22" rx="10" ry="10" width="79.5" x="495.5" y="39"></rect><text x="535.25" y="54">BYSCORE</text></g><path d="M575.0 50a10 10 0 0 1 10 10v10a10 10 0 0 0 10 10"></path><path d="M475.5 80h20"></path><g class="terminal ">
<path d="M495.5 80h8.5"></path><path d="M566.5 80h8.5"></path><rect height="22" rx="10" ry="10" width="62.5" x="504.0" y="69"></rect><text x="535.25" y="84">BYLEX</text></g><path d="M575.0 80h20"></path></g><path d="M595.0 80a10 10 0 0 0 10 -10v-29a10 10 0 0 1 10 -10"></path></g><g>
<path d="M615.0 31h0.0"></path><path d="M700.5 31h0.0"></path><path d="M615.0 31h20"></path><g>
<path d="M635.0 31h45.5"></path></g><path d="M680.5 31h20"></path><path d="M615.0 31a10 10 0 0 1 10 10v0a10 10 0 0 0 10 10"></path><g class="terminal ">
<path d="M635.0 51h0.0"></path><path d="M680.5 51h0.0"></path><rect height="22" rx="10" ry="10" width="45.5" x="635.0" y="40"></rect><text x="657.75" y="55">REV</text></g><path d="M680.5 51a10 10 0 0 0 10 -10v0a10 10 0 0 1 10 -10"></path></g></g><path d="M710.5 31a10 10 0 0 1 10 10v48a10 10 0 0 1 -10 10h-650.5a10 10 0 0 0 -10 10v0a10 10 0 0 0 10 10"></path><g>
<path d="M60.0 119h187.25"></path><path d="M523.25 119h187.25"></path><g>
<path d="M247.25 119h0.0"></path><path d="M523.25 119h0.0"></path><path d="M247.25 119h20"></path><g>
<path d="M267.25 119h236.0"></path></g><path d="M503.25 119h20"></path><path d="M247.25 119a10 10 0 0 1 10 10v0a10 10 0 0 0 10 10"></path><g>
<path d="M267.25 139h0.0"></path><path d="M503.25 139h0.0"></path><g class="terminal ">
<path d="M267.25 139h0.0"></path><path d="M329.75 139h0.0"></path><rect height="22" rx="10" ry="10" width="62.5" x="267.25" y="128"></rect><text x="298.5" y="143">LIMIT</text></g><path d="M329.75 139h10"></path><path d="M339.75 139h10"></path><g>
<path d="M349.75 139h0.0"></path><path d="M503.25 139h0.0"></path><g class="non-terminal ">
<path d="M349.75 139h0.0"></path><path d="M420.75 139h0.0"></path><rect height="22" width="71.0" x="349.75" y="128"></rect><text x="385.25" y="143">offset</text><title>integer</title></g><path d="M420.75 139h10"></path><path d="M430.75 139h10"></path><g class="non-terminal ">
<path d="M440.75 139h0.0"></path><path d="M503.25 139h0.0"></path><rect height="22" width="62.5" x="440.75" y="128"></rect><text x="472.0" y="143">count</text><title>integer</title></g></g></g><path d="M503.25 139a10 10 0 0 0 10 -10v0a10 10 0 0 1 10 -10"></path></g></g><path d="M710.5 119h10"></path><path d="M720.5 119h0.0"></path></g><path d="M720.5 119h10"></path><path d="M 730.5 119 h 20 m -10 -10 v 20 m 10 -20 v 20"></path></g></svg>