<svg class="railroad-diagram" viewBox="0 0 621.5 82" xmlns="http://www.w3.org/2000/svg" xmlns:xlink="http://www.w3.org/1999/xlink">
<g transform="translate(.5 .5)">
<g>
<path d="M20 21v20m10 -20v20m-10 -10h20"></path></g><path d="M40 31h10"></path><g>
<path d="M50 31h0.0"></path><g>
<path d="M50.0 31h10.0"></path><path d="M561.5 31h10.0"></path><g class="terminal ">
<path d="M60.0 31h0.0"></path><path d="M199.0 31h0.0"></path><rect height="22" rx="10" ry="10" width="139.0" x="60.0" y="20"></rect><text x="129.5" y="35">TDIGEST.CREATE</text></g><path d="M199.0 31h10"></path><path d="M209.0 31h10"></path><g class="non-terminal ">
<path d="M219.0 31h0.0"></path><path d="M264.5 31h0.0"></path><rect height="22" width="45.5" x="219.0" y="20"></rect><text x="241.75" y="35">key</text><title>key</title></g><path d="M264.5 31h10"></path><g>
<path d="M274.5 31h0.0"></path><path d="M561.5 31h0.0"></path><path d="M274.5 31h20"></path><g>
<path d="M294.5 31h247.0"></path></g><path d="M541.5 31h20"></path><path d="M274.5 31a10 10 0 0 1 10 10v0a10 10 0 0 0 10 10"></path><g>
<path d="M294.5 51h0.0"></path><path d="M541.5 51h0.0"></path><g class="terminal ">
<path d="M294.5 51h0.0"></path><path d="M408.0 51h0.0"></path><rect height="22" rx="10" ry="10" width="113.5" x="294.5" y="40"></rect><text x="351.25" y="55">COMPRESSION</text></g><path d="M408.0 51h10"></path><path d="M418.0 51h10"></path><g class="non-terminal ">
<path d="M428.0 51h0.0"></path><path d="M541.5 51h0.0"></path><rect height="22" width="113.5" x="428.0" y="40"></rect><text x="484.75" y="55">compression</text><title>integer</title></g></g><path d="M541.5 51a10 10 0 0 0 10 -10v0a10 10 0 0 1 10 -10"></path></g></g><path d="M571.5 31h0.0"></path></g><path d="M571.5 31h10"></path><path d="M 581.5 31 h 20 m -10 -10 v 20 m 10 -20 v 20"></path></g></svg>