<svg class="railroad-diagram" viewBox="0 0 775.5 319" xmlns="http://www.w3.org/2000/svg" xmlns:xlink="http://www.w3.org/1999/xlink">
<g transform="translate(.5 .5)">
<g>
<path d="M20 81v20m10 -20v20m-10 -10h20"></path></g><path d="M40 91h10"></path><g>
<path d="M50 91h0.0"></path><path d="M50.0 91h10"></path><g>
<path d="M60.0 91h10.0"></path><path d="M705.5 91h10.0"></path><g class="terminal ">
<path d="M70.0 91h0.0"></path><path d="M234.5 91h0.0"></path><rect height="22" rx="10" ry="10" width="164.5" x="70.0" y="80"></rect><text x="152.25" y="95">GEORADIUSBYMEMBER</text></g><path d="M234.5 91h10"></path><path d="M244.5 91h10"></path><g class="non-terminal ">
<path d="M254.5 91h0.0"></path><path d="M300.0 91h0.0"></path><rect height="22" width="45.5" x="254.5" y="80"></rect><text x="277.25" y="95">key</text><title>key</title></g><path d="M300.0 91h10"></path><path d="M310.0 91h10"></path><g class="non-terminal ">
<path d="M320.0 91h0.0"></path><path d="M391.0 91h0.0"></path><rect height="22" width="71.0" x="320.0" y="80"></rect><text x="355.5" y="95">member</text><title>string</title></g><path d="M391.0 91h10"></path><path d="M401.0 91h10"></path><g class="non-terminal ">
<path d="M411.0 91h0.0"></path><path d="M482.0 91h0.0"></path><rect height="22" width="71.0" x="411.0" y="80"></rect><text x="446.5" y="95">radius</text><title>double</title></g><path d="M482.0 91h10"></path><g>
<path d="M492.0 91h0.0"></path><path d="M569.0 91h0.0"></path><path d="M492.0 91a10 10 0 0 0 10 -10v-10a10 10 0 0 1 10 -10"></path><g class="terminal ">
<path d="M512.0 61h0.0"></path><path d="M549.0 61h0.0"></path><rect height="22" rx="10" ry="10" width="37.0" x="512.0" y="50"></rect><text x="530.5" y="65">KM</text></g><path d="M549.0 61a10 10 0 0 1 10 10v10a10 10 0 0 0 10 10"></path><path d="M492.0 91a10 10 0 0 0 10 -10v-40a10 10 0 0 1 10 -10"></path><g class="terminal ">
<path d="M512.0 31h4.25"></path><path d="M544.75 31h4.25"></path><rect height="22" rx="10" ry="10" width="28.5" x="516.25" y="20"></rect><text x="530.5" y="35">M</text></g><path d="M549.0 31a10 10 0 0 1 10 10v40a10 10 0 0 0 10 10"></path><path d="M492.0 91h20"></path><g class="terminal ">
<path d="M512.0 91h0.0"></path><path d="M549.0 91h0.0"></path><rect height="22" rx="10" ry="10" width="37.0" x="512.0" y="80"></rect><text x="530.5" y="95">FT</text></g><path d="M549.0 91h20"></path><path d="M492.0 91a10 10 0 0 1 10 10v10a10 10 0 0 0 10 10"></path><g class="terminal ">
<path d="M512.0 121h0.0"></path><path d="M549.0 121h0.0"></path><rect height="22" rx="10" ry="10" width="37.0" x="512.0" y="110"></rect><text x="530.5" y="125">MI</text></g><path d="M549.0 121a10 10 0 0 0 10 -10v-10a10 10 0 0 1 10 -10"></path></g><g>
<path d="M569.0 91h0.0"></path><path d="M705.5 91h0.0"></path><path d="M569.0 91h20"></path><g>
<path d="M589.0 91h96.5"></path></g><path d="M685.5 91h20"></path><path d="M569.0 91a10 10 0 0 1 10 10v0a10 10 0 0 0 10 10"></path><g class="terminal ">
<path d="M589.0 111h0.0"></path><path d="M685.5 111h0.0"></path><rect height="22" rx="10" ry="10" width="96.5" x="589.0" y="100"></rect><text x="637.25" y="115">WITHCOORD</text></g><path d="M685.5 111a10 10 0 0 0 10 -10v0a10 10 0 0 1 10 -10"></path></g></g><path d="M715.5 91a10 10 0 0 1 10 10v29a10 10 0 0 1 -10 10h-655.5a10 10 0 0 0 -10 10v0a10 10 0 0 0 10 10"></path><g>
<path d="M60.0 160h59.5"></path><path d="M656.0 160h59.5"></path><g>
<path d="M119.5 160h0.0"></path><path d="M247.5 160h0.0"></path><path d="M119.5 160h20"></path><g>
<path d="M139.5 160h88.0"></path></g><path d="M227.5 160h20"></path><path d="M119.5 160a10 10 0 0 1 10 10v0a10 10 0 0 0 10 10"></path><g class="terminal ">
<path d="M139.5 180h0.0"></path><path d="M227.5 180h0.0"></path><rect height="22" rx="10" ry="10" width="88.0" x="139.5" y="169"></rect><text x="183.5" y="184">WITHDIST</text></g><path d="M227.5 180a10 10 0 0 0 10 -10v0a10 10 0 0 1 10 -10"></path></g><g>
<path d="M247.5 160h0.0"></path><path d="M375.5 160h0.0"></path><path d="M247.5 160h20"></path><g>
<path d="M267.5 160h88.0"></path></g><path d="M355.5 160h20"></path><path d="M247.5 160a10 10 0 0 1 10 10v0a10 10 0 0 0 10 10"></path><g class="terminal ">
<path d="M267.5 180h0.0"></path><path d="M355.5 180h0.0"></path><rect height="22" rx="10" ry="10" width="88.0" x="267.5" y="169"></rect><text x="311.5" y="184">WITHHASH</text></g><path d="M355.5 180a10 10 0 0 0 10 -10v0a10 10 0 0 1 10 -10"></path></g><g>
<path d="M375.5 160h0.0"></path><path d="M656.0 160h0.0"></path><path d="M375.5 160h20"></path><g>
<path d="M395.5 160h240.5"></path></g><path d="M636.0 160h20"></path><path d="M375.5 160a10 10 0 0 1 10 10v0a10 10 0 0 0 10 10"></path><g>
<path d="M395.5 180h0.0"></path><path d="M636.0 180h0.0"></path><g>
<path d="M395.5 180h0.0"></path><path d="M540.5 180h0.0"></path><g class="terminal ">
<path d="M395.5 180h0.0"></path><path d="M458.0 180h0.0"></path><rect height="22" rx="10" ry="10" width="62.5" x="395.5" y="169"></rect><text x="426.75" y="184">COUNT</text></g><path d="M458.0 180h10"></path><path d="M468.0 180h10"></path><g class="non-terminal ">
<path d="M478.0 180h0.0"></path><path d="M540.5 180h0.0"></path><rect height="22" width="62.5" x="478.0" y="169"></rect><text x="509.25" y="184">count</text><title>integer</title></g></g><path d="M540.5 180h10"></path><g>
<path d="M550.5 180h0.0"></path><path d="M636.0 180h0.0"></path><path d="M550.5 180h20"></path><g>
<path d="M570.5 180h45.5"></path></g><path d="M616.0 180h20"></path><path d="M550.5 180a10 10 0 0 1 10 10v0a10 10 0 0 0 10 10"></path><g class="terminal ">
<path d="M570.5 200h0.0"></path><path d="M616.0 200h0.0"></path><rect height="22" rx="10" ry="10" width="45.5" x="570.5" y="189"></rect><text x="593.25" y="204">ANY</text></g><path d="M616.0 200a10 10 0 0 0 10 -10v0a10 10 0 0 1 10 -10"></path></g></g><path d="M636.0 180a10 10 0 0 0 10 -10v0a10 10 0 0 1 10 -10"></path></g></g><path d="M715.5 160a10 10 0 0 1 10 10v39a10 10 0 0 1 -10 10h-655.5a10 10 0 0 0 -10 10v0a10 10 0 0 0 10 10"></path><g>
<path d="M60.0 239h139.75"></path><path d="M575.75 239h139.75"></path><g>
<path d="M199.75 239h0.0"></path><path d="M333.75 239h0.0"></path><path d="M199.75 239h20"></path><g>
<path d="M219.75 239h94.0"></path></g><path d="M313.75 239h20"></path><path d="M199.75 239a10 10 0 0 1 10 10v29a10 10 0 0 0 10 10"></path><g>
<path d="M219.75 288h0.0"></path><path d="M313.75 288h0.0"></path><path d="M219.75 288a10 10 0 0 0 10 -10v-10a10 10 0 0 1 10 -10"></path><g class="terminal ">
<path d="M239.75 258h4.25"></path><path d="M289.5 258h4.25"></path><rect height="22" rx="10" ry="10" width="45.5" x="244.0" y="247"></rect><text x="266.75" y="262">ASC</text></g><path d="M293.75 258a10 10 0 0 1 10 10v10a10 10 0 0 0 10 10"></path><path d="M219.75 288h20"></path><g class="terminal ">
<path d="M239.75 288h0.0"></path><path d="M293.75 288h0.0"></path><rect height="22" rx="10" ry="10" width="54.0" x="239.75" y="277"></rect><text x="266.75" y="292">DESC</text></g><path d="M293.75 288h20"></path></g><path d="M313.75 288a10 10 0 0 0 10 -10v-29a10 10 0 0 1 10 -10"></path></g><g>
<path d="M333.75 239h0.0"></path><path d="M575.75 239h0.0"></path><path d="M333.75 239h20"></path><g>
<path d="M353.75 239h202.0"></path></g><path d="M555.75 239h20"></path><path d="M333.75 239a10 10 0 0 1 10 10v29a10 10 0 0 0 10 10"></path><g>
<path d="M353.75 288h0.0"></path><path d="M555.75 288h0.0"></path><path d="M353.75 288a10 10 0 0 0 10 -10v-10a10 10 0 0 1 10 -10"></path><g>
<path d="M373.75 258h17.0"></path><path d="M518.75 258h17.0"></path><g class="terminal ">
<path d="M390.75 258h0.0"></path><path d="M453.25 258h0.0"></path><rect height="22" rx="10" ry="10" width="62.5" x="390.75" y="247"></rect><text x="422.0" y="262">STORE</text></g><path d="M453.25 258h10"></path><path d="M463.25 258h10"></path><g class="non-terminal ">
<path d="M473.25 258h0.0"></path><path d="M518.75 258h0.0"></path><rect height="22" width="45.5" x="473.25" y="247"></rect><text x="496.0" y="262">key</text><title>key</title></g></g><path d="M535.75 258a10 10 0 0 1 10 10v10a10 10 0 0 0 10 10"></path><path d="M353.75 288h20"></path><g>
<path d="M373.75 288h0.0"></path><path d="M535.75 288h0.0"></path><g class="terminal ">
<path d="M373.75 288h0.0"></path><path d="M470.25 288h0.0"></path><rect height="22" rx="10" ry="10" width="96.5" x="373.75" y="277"></rect><text x="422.0" y="292">STOREDIST</text></g><path d="M470.25 288h10"></path><path d="M480.25 288h10"></path><g class="non-terminal ">
<path d="M490.25 288h0.0"></path><path d="M535.75 288h0.0"></path><rect height="22" width="45.5" x="490.25" y="277"></rect><text x="513.0" y="292">key</text><title>key</title></g></g><path d="M535.75 288h20"></path></g><path d="M555.75 288a10 10 0 0 0 10 -10v-29a10 10 0 0 1 10 -10"></path></g></g><path d="M715.5 239h10"></path><path d="M725.5 239h0.0"></path></g><path d="M725.5 239h10"></path><path d="M 735.5 239 h 20 m -10 -10 v 20 m 10 -20 v 20"></path></g></svg>