<svg class="railroad-diagram" viewBox="0 0 549.0 62" xmlns="http://www.w3.org/2000/svg" xmlns:xlink="http://www.w3.org/1999/xlink">
<g transform="translate(.5 .5)">
<g>
<path d="M20 21v20m10 -20v20m-10 -10h20"></path></g><path d="M40 31h10"></path><g>
<path d="M50 31h0.0"></path><g>
<path d="M50.0 31h10.0"></path><path d="M489.0 31h10.0"></path><g class="terminal ">
<path d="M60.0 31h0.0"></path><path d="M233.0 31h0.0"></path><rect height="22" rx="10" ry="10" width="173.0" x="60.0" y="20"></rect><text x="146.5" y="35">XGROUP DELCONSUMER</text></g><path d="M233.0 31h10"></path><path d="M243.0 31h10"></path><g class="non-terminal ">
<path d="M253.0 31h0.0"></path><path d="M298.5 31h0.0"></path><rect height="22" width="45.5" x="253.0" y="20"></rect><text x="275.75" y="35">key</text><title>key</title></g><path d="M298.5 31h10"></path><path d="M308.5 31h10"></path><g class="non-terminal ">
<path d="M318.5 31h0.0"></path><path d="M381.0 31h0.0"></path><rect height="22" width="62.5" x="318.5" y="20"></rect><text x="349.75" y="35">group</text><title>string</title></g><path d="M381.0 31h10"></path><path d="M391.0 31h10"></path><g class="non-terminal ">
<path d="M401.0 31h0.0"></path><path d="M489.0 31h0.0"></path><rect height="22" width="88.0" x="401.0" y="20"></rect><text x="445.0" y="35">consumer</text><title>string</title></g></g><path d="M499.0 31h0.0"></path></g><path d="M499.0 31h10"></path><path d="M 509.0 31 h 20 m -10 -10 v 20 m 10 -20 v 20"></path></g></svg>