<svg class="railroad-diagram" viewBox="0 0 411.5 111" xmlns="http://www.w3.org/2000/svg" xmlns:xlink="http://www.w3.org/1999/xlink">
<g transform="translate(.5 .5)">
<g>
<path d="M20 21v20m10 -20v20m-10 -10h20"></path></g><path d="M40 31h10"></path><g>
<path d="M50 31h0.0"></path><g>
<path d="M50.0 31h10.0"></path><path d="M351.5 31h10.0"></path><g class="terminal ">
<path d="M60.0 31h0.0"></path><path d="M199.0 31h0.0"></path><rect height="22" rx="10" ry="10" width="139.0" x="60.0" y="20"></rect><text x="129.5" y="35">FUNCTION FLUSH</text></g><path d="M199.0 31h10"></path><g>
<path d="M209.0 31h0.0"></path><path d="M351.5 31h0.0"></path><path d="M209.0 31h20"></path><g>
<path d="M229.0 31h102.5"></path></g><path d="M331.5 31h20"></path><path d="M209.0 31a10 10 0 0 1 10 10v29a10 10 0 0 0 10 10"></path><g>
<path d="M229.0 80h0.0"></path><path d="M331.5 80h0.0"></path><path d="M229.0 80a10 10 0 0 0 10 -10v-10a10 10 0 0 1 10 -10"></path><g class="terminal ">
<path d="M249.0 50h0.0"></path><path d="M311.5 50h0.0"></path><rect height="22" rx="10" ry="10" width="62.5" x="249.0" y="39"></rect><text x="280.25" y="54">ASYNC</text></g><path d="M311.5 50a10 10 0 0 1 10 10v10a10 10 0 0 0 10 10"></path><path d="M229.0 80h20"></path><g class="terminal ">
<path d="M249.0 80h4.25"></path><path d="M307.25 80h4.25"></path><rect height="22" rx="10" ry="10" width="54.0" x="253.25" y="69"></rect><text x="280.25" y="84">SYNC</text></g><path d="M311.5 80h20"></path></g><path d="M331.5 80a10 10 0 0 0 10 -10v-29a10 10 0 0 1 10 -10"></path></g></g><path d="M361.5 31h0.0"></path></g><path d="M361.5 31h10"></path><path d="M 371.5 31 h 20 m -10 -10 v 20 m 10 -20 v 20"></path></g></svg>