<svg class="railroad-diagram" viewBox="0 0 543.5 122" xmlns="http://www.w3.org/2000/svg" xmlns:xlink="http://www.w3.org/1999/xlink">
<g transform="translate(.5 .5)">
<g>
<path d="M20 21v20m10 -20v20m-10 -10h20"></path></g><path d="M40 31h10"></path><g>
<path d="M50 31h0.0"></path><path d="M50.0 31h10"></path><g>
<path d="M60.0 31h10.0"></path><path d="M473.5 31h10.0"></path><g class="terminal ">
<path d="M70.0 31h0.0"></path><path d="M175.0 31h0.0"></path><rect height="22" rx="10" ry="10" width="105.0" x="70.0" y="20"></rect><text x="122.5" y="35">BF.RESERVE</text></g><path d="M175.0 31h10"></path><path d="M185.0 31h10"></path><g class="non-terminal ">
<path d="M195.0 31h0.0"></path><path d="M240.5 31h0.0"></path><rect height="22" width="45.5" x="195.0" y="20"></rect><text x="217.75" y="35">key</text><title>key</title></g><path d="M240.5 31h10"></path><path d="M250.5 31h10"></path><g class="non-terminal ">
<path d="M260.5 31h0.0"></path><path d="M365.5 31h0.0"></path><rect height="22" width="105.0" x="260.5" y="20"></rect><text x="313.0" y="35">error&#95;rate</text><title>double</title></g><path d="M365.5 31h10"></path><path d="M375.5 31h10"></path><g class="non-terminal ">
<path d="M385.5 31h0.0"></path><path d="M473.5 31h0.0"></path><rect height="22" width="88.0" x="385.5" y="20"></rect><text x="429.5" y="35">capacity</text><title>integer</title></g></g><path d="M483.5 31a10 10 0 0 1 10 10v0a10 10 0 0 1 -10 10h-423.5a10 10 0 0 0 -10 10v0a10 10 0 0 0 10 10"></path><g>
<path d="M60.0 71h12.75"></path><path d="M470.75 71h12.75"></path><g>
<path d="M72.75 71h0.0"></path><path d="M325.75 71h0.0"></path><path d="M72.75 71h20"></path><g>
<path d="M92.75 71h213.0"></path></g><path d="M305.75 71h20"></path><path d="M72.75 71a10 10 0 0 1 10 10v0a10 10 0 0 0 10 10"></path><g>
<path d="M92.75 91h0.0"></path><path d="M305.75 91h0.0"></path><g class="terminal ">
<path d="M92.75 91h0.0"></path><path d="M189.25 91h0.0"></path><rect height="22" rx="10" ry="10" width="96.5" x="92.75" y="80"></rect><text x="141.0" y="95">EXPANSION</text></g><path d="M189.25 91h10"></path><path d="M199.25 91h10"></path><g class="non-terminal ">
<path d="M209.25 91h0.0"></path><path d="M305.75 91h0.0"></path><rect height="22" width="96.5" x="209.25" y="80"></rect><text x="257.5" y="95">expansion</text><title>integer</title></g></g><path d="M305.75 91a10 10 0 0 0 10 -10v0a10 10 0 0 1 10 -10"></path></g><g>
<path d="M325.75 71h0.0"></path><path d="M470.75 71h0.0"></path><path d="M325.75 71h20"></path><g>
<path d="M345.75 71h105.0"></path></g><path d="M450.75 71h20"></path><path d="M325.75 71a10 10 0 0 1 10 10v0a10 10 0 0 0 10 10"></path><g class="terminal ">
<path d="M345.75 91h0.0"></path><path d="M450.75 91h0.0"></path><rect height="22" rx="10" ry="10" width="105.0" x="345.75" y="80"></rect><text x="398.25" y="95">NONSCALING</text></g><path d="M450.75 91a10 10 0 0 0 10 -10v0a10 10 0 0 1 10 -10"></path></g></g><path d="M483.5 71h10"></path><path d="M493.5 71h0.0"></path></g><path d="M493.5 71h10"></path><path d="M 503.5 71 h 20 m -10 -10 v 20 m 10 -20 v 20"></path></g></svg>