<svg class="railroad-diagram" viewBox="0 0 712.5 141" xmlns="http://www.w3.org/2000/svg" xmlns:xlink="http://www.w3.org/1999/xlink">
<g transform="translate(.5 .5)">
<g>
<path d="M20 21v20m10 -20v20m-10 -10h20"></path></g><path d="M40 31h10"></path><g>
<path d="M50 31h0.0"></path><path d="M50.0 31h10"></path><g>
<path d="M60.0 31h10.0"></path><path d="M642.5 31h10.0"></path><g class="terminal ">
<path d="M70.0 31h0.0"></path><path d="M209.0 31h0.0"></path><rect height="22" rx="10" ry="10" width="139.0" x="70.0" y="20"></rect><text x="139.5" y="35">TFUNCTION LIST</text></g><path d="M209.0 31h10"></path><g>
<path d="M219.0 31h0.0"></path><path d="M514.5 31h0.0"></path><path d="M219.0 31h20"></path><g>
<path d="M239.0 31h255.5"></path></g><path d="M494.5 31h20"></path><path d="M219.0 31a10 10 0 0 1 10 10v0a10 10 0 0 0 10 10"></path><g>
<path d="M239.0 51h0.0"></path><path d="M494.5 51h0.0"></path><g class="terminal ">
<path d="M239.0 51h0.0"></path><path d="M352.5 51h0.0"></path><rect height="22" rx="10" ry="10" width="113.5" x="239.0" y="40"></rect><text x="295.75" y="55">LIBRARYNAME</text></g><path d="M352.5 51h10"></path><path d="M362.5 51h10"></path><g class="non-terminal ">
<path d="M372.5 51h0.0"></path><path d="M494.5 51h0.0"></path><rect height="22" width="122.0" x="372.5" y="40"></rect><text x="433.5" y="55">library name</text><title>string</title></g></g><path d="M494.5 51a10 10 0 0 0 10 -10v0a10 10 0 0 1 10 -10"></path></g><g>
<path d="M514.5 31h0.0"></path><path d="M642.5 31h0.0"></path><path d="M514.5 31h20"></path><g>
<path d="M534.5 31h88.0"></path></g><path d="M622.5 31h20"></path><path d="M514.5 31a10 10 0 0 1 10 10v0a10 10 0 0 0 10 10"></path><g class="terminal ">
<path d="M534.5 51h0.0"></path><path d="M622.5 51h0.0"></path><rect height="22" rx="10" ry="10" width="88.0" x="534.5" y="40"></rect><text x="578.5" y="55">WITHCODE</text></g><path d="M622.5 51a10 10 0 0 0 10 -10v0a10 10 0 0 1 10 -10"></path></g></g><path d="M652.5 31a10 10 0 0 1 10 10v19a10 10 0 0 1 -10 10h-592.5a10 10 0 0 0 -10 10v0a10 10 0 0 0 10 10"></path><g>
<path d="M60.0 90h202.25"></path><path d="M450.25 90h202.25"></path><g>
<path d="M262.25 90h0.0"></path><path d="M381.75 90h0.0"></path><path d="M262.25 90h20"></path><g>
<path d="M282.25 90h79.5"></path></g><path d="M361.75 90h20"></path><path d="M262.25 90a10 10 0 0 1 10 10v0a10 10 0 0 0 10 10"></path><g class="terminal ">
<path d="M282.25 110h0.0"></path><path d="M361.75 110h0.0"></path><rect height="22" rx="10" ry="10" width="79.5" x="282.25" y="99"></rect><text x="322.0" y="114">VERBOSE</text></g><path d="M361.75 110a10 10 0 0 0 10 -10v0a10 10 0 0 1 10 -10"></path></g><g>
<path d="M381.75 90h0.0"></path><path d="M450.25 90h0.0"></path><path d="M381.75 90h20"></path><g>
<path d="M401.75 90h28.5"></path></g><path d="M430.25 90h20"></path><path d="M381.75 90a10 10 0 0 1 10 10v0a10 10 0 0 0 10 10"></path><g class="terminal ">
<path d="M401.75 110h0.0"></path><path d="M430.25 110h0.0"></path><rect height="22" rx="10" ry="10" width="28.5" x="401.75" y="99"></rect><text x="416.0" y="114">V</text></g><path d="M430.25 110a10 10 0 0 0 10 -10v0a10 10 0 0 1 10 -10"></path></g></g><path d="M652.5 90h10"></path><path d="M662.5 90h0.0"></path></g><path d="M662.5 90h10"></path><path d="M 672.5 90 h 20 m -10 -10 v 20 m 10 -20 v 20"></path></g></svg>