<svg class="railroad-diagram" viewBox="0 0 465.5 91" xmlns="http://www.w3.org/2000/svg" xmlns:xlink="http://www.w3.org/1999/xlink">
<g transform="translate(.5 .5)">
<g>
<path d="M20 21v20m10 -20v20m-10 -10h20"></path></g><path d="M40 31h10"></path><g>
<path d="M50 31h0.0"></path><g>
<path d="M50.0 31h10.0"></path><path d="M405.5 31h10.0"></path><g class="terminal ">
<path d="M60.0 31h0.0"></path><path d="M173.5 31h0.0"></path><rect height="22" rx="10" ry="10" width="113.5" x="60.0" y="20"></rect><text x="116.75" y="35">ACL SETUSER</text></g><path d="M173.5 31h10"></path><path d="M183.5 31h10"></path><g class="non-terminal ">
<path d="M193.5 31h0.0"></path><path d="M281.5 31h0.0"></path><rect height="22" width="88.0" x="193.5" y="20"></rect><text x="237.5" y="35">username</text><title>string</title></g><path d="M281.5 31h10"></path><g>
<path d="M291.5 31h0.0"></path><path d="M405.5 31h0.0"></path><path d="M291.5 31h20"></path><g>
<path d="M311.5 31h74.0"></path></g><path d="M385.5 31h20"></path><path d="M291.5 31a10 10 0 0 1 10 10v0a10 10 0 0 0 10 10"></path><g>
<path d="M311.5 51h0.0"></path><path d="M385.5 51h0.0"></path><path d="M311.5 51h10"></path><g class="non-terminal ">
<path d="M321.5 51h0.0"></path><path d="M375.5 51h0.0"></path><rect height="22" width="54.0" x="321.5" y="40"></rect><text x="348.5" y="55">rule</text><title>string</title></g><path d="M375.5 51h10"></path><path d="M321.5 51a10 10 0 0 0 -10 10v0a10 10 0 0 0 10 10"></path><g>
<path d="M321.5 71h54.0"></path></g><path d="M375.5 71a10 10 0 0 0 10 -10v0a10 10 0 0 0 -10 -10"></path></g><path d="M385.5 51a10 10 0 0 0 10 -10v0a10 10 0 0 1 10 -10"></path></g></g><path d="M415.5 31h0.0"></path></g><path d="M415.5 31h10"></path><path d="M 425.5 31 h 20 m -10 -10 v 20 m 10 -20 v 20"></path></g></svg>