<svg class="railroad-diagram" viewBox="0 0 682.0 141" xmlns="http://www.w3.org/2000/svg" xmlns:xlink="http://www.w3.org/1999/xlink">
<g transform="translate(.5 .5)">
<g>
<path d="M20 21v20m10 -20v20m-10 -10h20"></path></g><path d="M40 31h10"></path><g>
<path d="M50 31h0.0"></path><path d="M50.0 31h10"></path><g>
<path d="M60.0 31h10.0"></path><path d="M612.0 31h10.0"></path><g class="terminal ">
<path d="M70.0 31h0.0"></path><path d="M124.0 31h0.0"></path><rect height="22" rx="10" ry="10" width="54.0" x="70.0" y="20"></rect><text x="97.0" y="35">SCAN</text></g><path d="M124.0 31h10"></path><path d="M134.0 31h10"></path><g class="non-terminal ">
<path d="M144.0 31h0.0"></path><path d="M215.0 31h0.0"></path><rect height="22" width="71.0" x="144.0" y="20"></rect><text x="179.5" y="35">cursor</text><title>integer</title></g><path d="M215.0 31h10"></path><g>
<path d="M225.0 31h0.0"></path><path d="M427.0 31h0.0"></path><path d="M225.0 31h20"></path><g>
<path d="M245.0 31h162.0"></path></g><path d="M407.0 31h20"></path><path d="M225.0 31a10 10 0 0 1 10 10v0a10 10 0 0 0 10 10"></path><g>
<path d="M245.0 51h0.0"></path><path d="M407.0 51h0.0"></path><g class="terminal ">
<path d="M245.0 51h0.0"></path><path d="M307.5 51h0.0"></path><rect height="22" rx="10" ry="10" width="62.5" x="245.0" y="40"></rect><text x="276.25" y="55">MATCH</text></g><path d="M307.5 51h10"></path><path d="M317.5 51h10"></path><g class="non-terminal ">
<path d="M327.5 51h0.0"></path><path d="M407.0 51h0.0"></path><rect height="22" width="79.5" x="327.5" y="40"></rect><text x="367.25" y="55">pattern</text><title>pattern</title></g></g><path d="M407.0 51a10 10 0 0 0 10 -10v0a10 10 0 0 1 10 -10"></path></g><g>
<path d="M427.0 31h0.0"></path><path d="M612.0 31h0.0"></path><path d="M427.0 31h20"></path><g>
<path d="M447.0 31h145.0"></path></g><path d="M592.0 31h20"></path><path d="M427.0 31a10 10 0 0 1 10 10v0a10 10 0 0 0 10 10"></path><g>
<path d="M447.0 51h0.0"></path><path d="M592.0 51h0.0"></path><g class="terminal ">
<path d="M447.0 51h0.0"></path><path d="M509.5 51h0.0"></path><rect height="22" rx="10" ry="10" width="62.5" x="447.0" y="40"></rect><text x="478.25" y="55">COUNT</text></g><path d="M509.5 51h10"></path><path d="M519.5 51h10"></path><g class="non-terminal ">
<path d="M529.5 51h0.0"></path><path d="M592.0 51h0.0"></path><rect height="22" width="62.5" x="529.5" y="40"></rect><text x="560.75" y="55">count</text><title>integer</title></g></g><path d="M592.0 51a10 10 0 0 0 10 -10v0a10 10 0 0 1 10 -10"></path></g></g><path d="M622.0 31a10 10 0 0 1 10 10v19a10 10 0 0 1 -10 10h-562.0a10 10 0 0 0 -10 10v0a10 10 0 0 0 10 10"></path><g>
<path d="M60.0 90h197.0"></path><path d="M425.0 90h197.0"></path><g>
<path d="M257.0 90h0.0"></path><path d="M425.0 90h0.0"></path><path d="M257.0 90h20"></path><g>
<path d="M277.0 90h128.0"></path></g><path d="M405.0 90h20"></path><path d="M257.0 90a10 10 0 0 1 10 10v0a10 10 0 0 0 10 10"></path><g>
<path d="M277.0 110h0.0"></path><path d="M405.0 110h0.0"></path><g class="terminal ">
<path d="M277.0 110h0.0"></path><path d="M331.0 110h0.0"></path><rect height="22" rx="10" ry="10" width="54.0" x="277.0" y="99"></rect><text x="304.0" y="114">TYPE</text></g><path d="M331.0 110h10"></path><path d="M341.0 110h10"></path><g class="non-terminal ">
<path d="M351.0 110h0.0"></path><path d="M405.0 110h0.0"></path><rect height="22" width="54.0" x="351.0" y="99"></rect><text x="378.0" y="114">type</text><title>string</title></g></g><path d="M405.0 110a10 10 0 0 0 10 -10v0a10 10 0 0 1 10 -10"></path></g></g><path d="M622.0 90h10"></path><path d="M632.0 90h0.0"></path></g><path d="M632.0 90h10"></path><path d="M 642.0 90 h 20 m -10 -10 v 20 m 10 -20 v 20"></path></g></svg>