<svg class="railroad-diagram" viewBox="0 0 664.5 299" xmlns="http://www.w3.org/2000/svg" xmlns:xlink="http://www.w3.org/1999/xlink">
<g transform="translate(.5 .5)">
<g>
<path d="M20 81v20m10 -20v20m-10 -10h20"></path></g><path d="M40 91h10"></path><g>
<path d="M50 91h0.0"></path><path d="M50.0 91h10"></path><g>
<path d="M60.0 91h10.0"></path><path d="M594.5 91h10.0"></path><g class="terminal ">
<path d="M70.0 91h0.0"></path><path d="M260.0 91h0.0"></path><rect height="22" rx="10" ry="10" width="190.0" x="70.0" y="80"></rect><text x="165.0" y="95">GEORADIUSBYMEMBER&#95;RO</text></g><path d="M260.0 91h10"></path><path d="M270.0 91h10"></path><g class="non-terminal ">
<path d="M280.0 91h0.0"></path><path d="M325.5 91h0.0"></path><rect height="22" width="45.5" x="280.0" y="80"></rect><text x="302.75" y="95">key</text><title>key</title></g><path d="M325.5 91h10"></path><path d="M335.5 91h10"></path><g class="non-terminal ">
<path d="M345.5 91h0.0"></path><path d="M416.5 91h0.0"></path><rect height="22" width="71.0" x="345.5" y="80"></rect><text x="381.0" y="95">member</text><title>string</title></g><path d="M416.5 91h10"></path><path d="M426.5 91h10"></path><g class="non-terminal ">
<path d="M436.5 91h0.0"></path><path d="M507.5 91h0.0"></path><rect height="22" width="71.0" x="436.5" y="80"></rect><text x="472.0" y="95">radius</text><title>double</title></g><path d="M507.5 91h10"></path><g>
<path d="M517.5 91h0.0"></path><path d="M594.5 91h0.0"></path><path d="M517.5 91a10 10 0 0 0 10 -10v-10a10 10 0 0 1 10 -10"></path><g class="terminal ">
<path d="M537.5 61h0.0"></path><path d="M574.5 61h0.0"></path><rect height="22" rx="10" ry="10" width="37.0" x="537.5" y="50"></rect><text x="556.0" y="65">KM</text></g><path d="M574.5 61a10 10 0 0 1 10 10v10a10 10 0 0 0 10 10"></path><path d="M517.5 91a10 10 0 0 0 10 -10v-40a10 10 0 0 1 10 -10"></path><g class="terminal ">
<path d="M537.5 31h4.25"></path><path d="M570.25 31h4.25"></path><rect height="22" rx="10" ry="10" width="28.5" x="541.75" y="20"></rect><text x="556.0" y="35">M</text></g><path d="M574.5 31a10 10 0 0 1 10 10v40a10 10 0 0 0 10 10"></path><path d="M517.5 91h20"></path><g class="terminal ">
<path d="M537.5 91h0.0"></path><path d="M574.5 91h0.0"></path><rect height="22" rx="10" ry="10" width="37.0" x="537.5" y="80"></rect><text x="556.0" y="95">FT</text></g><path d="M574.5 91h20"></path><path d="M517.5 91a10 10 0 0 1 10 10v10a10 10 0 0 0 10 10"></path><g class="terminal ">
<path d="M537.5 121h0.0"></path><path d="M574.5 121h0.0"></path><rect height="22" rx="10" ry="10" width="37.0" x="537.5" y="110"></rect><text x="556.0" y="125">MI</text></g><path d="M574.5 121a10 10 0 0 0 10 -10v-10a10 10 0 0 1 10 -10"></path></g></g><path d="M604.5 91a10 10 0 0 1 10 10v29a10 10 0 0 1 -10 10h-544.5a10 10 0 0 0 -10 10v0a10 10 0 0 0 10 10"></path><g>
<path d="M60.0 160h76.0"></path><path d="M528.5 160h76.0"></path><g>
<path d="M136.0 160h0.0"></path><path d="M272.5 160h0.0"></path><path d="M136.0 160h20"></path><g>
<path d="M156.0 160h96.5"></path></g><path d="M252.5 160h20"></path><path d="M136.0 160a10 10 0 0 1 10 10v0a10 10 0 0 0 10 10"></path><g class="terminal ">
<path d="M156.0 180h0.0"></path><path d="M252.5 180h0.0"></path><rect height="22" rx="10" ry="10" width="96.5" x="156.0" y="169"></rect><text x="204.25" y="184">WITHCOORD</text></g><path d="M252.5 180a10 10 0 0 0 10 -10v0a10 10 0 0 1 10 -10"></path></g><g>
<path d="M272.5 160h0.0"></path><path d="M400.5 160h0.0"></path><path d="M272.5 160h20"></path><g>
<path d="M292.5 160h88.0"></path></g><path d="M380.5 160h20"></path><path d="M272.5 160a10 10 0 0 1 10 10v0a10 10 0 0 0 10 10"></path><g class="terminal ">
<path d="M292.5 180h0.0"></path><path d="M380.5 180h0.0"></path><rect height="22" rx="10" ry="10" width="88.0" x="292.5" y="169"></rect><text x="336.5" y="184">WITHDIST</text></g><path d="M380.5 180a10 10 0 0 0 10 -10v0a10 10 0 0 1 10 -10"></path></g><g>
<path d="M400.5 160h0.0"></path><path d="M528.5 160h0.0"></path><path d="M400.5 160h20"></path><g>
<path d="M420.5 160h88.0"></path></g><path d="M508.5 160h20"></path><path d="M400.5 160a10 10 0 0 1 10 10v0a10 10 0 0 0 10 10"></path><g class="terminal ">
<path d="M420.5 180h0.0"></path><path d="M508.5 180h0.0"></path><rect height="22" rx="10" ry="10" width="88.0" x="420.5" y="169"></rect><text x="464.5" y="184">WITHHASH</text></g><path d="M508.5 180a10 10 0 0 0 10 -10v0a10 10 0 0 1 10 -10"></path></g></g><path d="M604.5 160a10 10 0 0 1 10 10v19a10 10 0 0 1 -10 10h-544.5a10 10 0 0 0 -10 10v0a10 10 0 0 0 10 10"></path><g>
<path d="M60.0 219h65.0"></path><path d="M539.5 219h65.0"></path><g>
<path d="M125.0 219h0.0"></path><path d="M405.5 219h0.0"></path><path d="M125.0 219h20"></path><g>
<path d="M145.0 219h240.5"></path></g><path d="M385.5 219h20"></path><path d="M125.0 219a10 10 0 0 1 10 10v0a10 10 0 0 0 10 10"></path><g>
<path d="M145.0 239h0.0"></path><path d="M385.5 239h0.0"></path><g>
<path d="M145.0 239h0.0"></path><path d="M290.0 239h0.0"></path><g class="terminal ">
<path d="M145.0 239h0.0"></path><path d="M207.5 239h0.0"></path><rect height="22" rx="10" ry="10" width="62.5" x="145.0" y="228"></rect><text x="176.25" y="243">COUNT</text></g><path d="M207.5 239h10"></path><path d="M217.5 239h10"></path><g class="non-terminal ">
<path d="M227.5 239h0.0"></path><path d="M290.0 239h0.0"></path><rect height="22" width="62.5" x="227.5" y="228"></rect><text x="258.75" y="243">count</text><title>integer</title></g></g><path d="M290.0 239h10"></path><g>
<path d="M300.0 239h0.0"></path><path d="M385.5 239h0.0"></path><path d="M300.0 239h20"></path><g>
<path d="M320.0 239h45.5"></path></g><path d="M365.5 239h20"></path><path d="M300.0 239a10 10 0 0 1 10 10v0a10 10 0 0 0 10 10"></path><g class="terminal ">
<path d="M320.0 259h0.0"></path><path d="M365.5 259h0.0"></path><rect height="22" rx="10" ry="10" width="45.5" x="320.0" y="248"></rect><text x="342.75" y="263">ANY</text></g><path d="M365.5 259a10 10 0 0 0 10 -10v0a10 10 0 0 1 10 -10"></path></g></g><path d="M385.5 239a10 10 0 0 0 10 -10v0a10 10 0 0 1 10 -10"></path></g><g>
<path d="M405.5 219h0.0"></path><path d="M539.5 219h0.0"></path><path d="M405.5 219h20"></path><g>
<path d="M425.5 219h94.0"></path></g><path d="M519.5 219h20"></path><path d="M405.5 219a10 10 0 0 1 10 10v29a10 10 0 0 0 10 10"></path><g>
<path d="M425.5 268h0.0"></path><path d="M519.5 268h0.0"></path><path d="M425.5 268a10 10 0 0 0 10 -10v-10a10 10 0 0 1 10 -10"></path><g class="terminal ">
<path d="M445.5 238h4.25"></path><path d="M495.25 238h4.25"></path><rect height="22" rx="10" ry="10" width="45.5" x="449.75" y="227"></rect><text x="472.5" y="242">ASC</text></g><path d="M499.5 238a10 10 0 0 1 10 10v10a10 10 0 0 0 10 10"></path><path d="M425.5 268h20"></path><g class="terminal ">
<path d="M445.5 268h0.0"></path><path d="M499.5 268h0.0"></path><rect height="22" rx="10" ry="10" width="54.0" x="445.5" y="257"></rect><text x="472.5" y="272">DESC</text></g><path d="M499.5 268h20"></path></g><path d="M519.5 268a10 10 0 0 0 10 -10v-29a10 10 0 0 1 10 -10"></path></g></g><path d="M604.5 219h10"></path><path d="M614.5 219h0.0"></path></g><path d="M614.5 219h10"></path><path d="M 624.5 219 h 20 m -10 -10 v 20 m 10 -20 v 20"></path></g></svg>