<svg class="railroad-diagram" viewBox="0 0 454.0 82" xmlns="http://www.w3.org/2000/svg" xmlns:xlink="http://www.w3.org/1999/xlink">
<g transform="translate(.5 .5)">
<g>
<path d="M20 21v20m10 -20v20m-10 -10h20"></path></g><path d="M40 31h10"></path><g>
<path d="M50 31h0.0"></path><g>
<path d="M50.0 31h10.0"></path><path d="M394.0 31h10.0"></path><g class="terminal ">
<path d="M60.0 31h0.0"></path><path d="M224.5 31h0.0"></path><rect height="22" rx="10" ry="10" width="164.5" x="60.0" y="20"></rect><text x="142.25" y="35">JSON.DEBUG MEMORY</text></g><path d="M224.5 31h10"></path><path d="M234.5 31h10"></path><g class="non-terminal ">
<path d="M244.5 31h0.0"></path><path d="M290.0 31h0.0"></path><rect height="22" width="45.5" x="244.5" y="20"></rect><text x="267.25" y="35">key</text><title>key</title></g><path d="M290.0 31h10"></path><g>
<path d="M300.0 31h0.0"></path><path d="M394.0 31h0.0"></path><path d="M300.0 31h20"></path><g>
<path d="M320.0 31h54.0"></path></g><path d="M374.0 31h20"></path><path d="M300.0 31a10 10 0 0 1 10 10v0a10 10 0 0 0 10 10"></path><g class="non-terminal ">
<path d="M320.0 51h0.0"></path><path d="M374.0 51h0.0"></path><rect height="22" width="54.0" x="320.0" y="40"></rect><text x="347.0" y="55">path</text><title>string</title></g><path d="M374.0 51a10 10 0 0 0 10 -10v0a10 10 0 0 1 10 -10"></path></g></g><path d="M404.0 31h0.0"></path></g><path d="M404.0 31h10"></path><path d="M 414.0 31 h 20 m -10 -10 v 20 m 10 -20 v 20"></path></g></svg>