<svg class="railroad-diagram" viewBox="0 0 619.0 201" xmlns="http://www.w3.org/2000/svg" xmlns:xlink="http://www.w3.org/1999/xlink">
<g transform="translate(.5 .5)">
<g>
<path d="M20 21v20m10 -20v20m-10 -10h20"></path></g><path d="M40 31h10"></path><g>
<path d="M50 31h0.0"></path><g>
<path d="M50.0 31h10.0"></path><path d="M559.0 31h10.0"></path><g class="terminal ">
<path d="M60.0 31h0.0"></path><path d="M122.5 31h0.0"></path><rect height="22" rx="10" ry="10" width="62.5" x="60.0" y="20"></rect><text x="91.25" y="35">GETEX</text></g><path d="M122.5 31h10"></path><path d="M132.5 31h10"></path><g class="non-terminal ">
<path d="M142.5 31h0.0"></path><path d="M188.0 31h0.0"></path><rect height="22" width="45.5" x="142.5" y="20"></rect><text x="165.25" y="35">key</text><title>key</title></g><path d="M188.0 31h10"></path><g>
<path d="M198.0 31h0.0"></path><path d="M559.0 31h0.0"></path><path d="M198.0 31h20"></path><g>
<path d="M218.0 31h321.0"></path></g><path d="M539.0 31h20"></path><path d="M198.0 31a10 10 0 0 1 10 10v59a10 10 0 0 0 10 10"></path><g>
<path d="M218.0 110h0.0"></path><path d="M539.0 110h0.0"></path><path d="M218.0 110a10 10 0 0 0 10 -10v-10a10 10 0 0 1 10 -10"></path><g>
<path d="M238.0 80h51.0"></path><path d="M468.0 80h51.0"></path><g class="terminal ">
<path d="M289.0 80h0.0"></path><path d="M326.0 80h0.0"></path><rect height="22" rx="10" ry="10" width="37.0" x="289.0" y="69"></rect><text x="307.5" y="84">PX</text></g><path d="M326.0 80h10"></path><path d="M336.0 80h10"></path><g class="non-terminal ">
<path d="M346.0 80h0.0"></path><path d="M468.0 80h0.0"></path><rect height="22" width="122.0" x="346.0" y="69"></rect><text x="407.0" y="84">milliseconds</text><title>integer</title></g></g><path d="M519.0 80a10 10 0 0 1 10 10v10a10 10 0 0 0 10 10"></path><path d="M218.0 110a10 10 0 0 0 10 -10v-40a10 10 0 0 1 10 -10"></path><g>
<path d="M238.0 50h72.25"></path><path d="M446.75 50h72.25"></path><g class="terminal ">
<path d="M310.25 50h0.0"></path><path d="M347.25 50h0.0"></path><rect height="22" rx="10" ry="10" width="37.0" x="310.25" y="39"></rect><text x="328.75" y="54">EX</text></g><path d="M347.25 50h10"></path><path d="M357.25 50h10"></path><g class="non-terminal ">
<path d="M367.25 50h0.0"></path><path d="M446.75 50h0.0"></path><rect height="22" width="79.5" x="367.25" y="39"></rect><text x="407.0" y="54">seconds</text><title>integer</title></g></g><path d="M519.0 50a10 10 0 0 1 10 10v40a10 10 0 0 0 10 10"></path><path d="M218.0 110h20"></path><g>
<path d="M238.0 110h21.25"></path><path d="M497.75 110h21.25"></path><g class="terminal ">
<path d="M259.25 110h0.0"></path><path d="M313.25 110h0.0"></path><rect height="22" rx="10" ry="10" width="54.0" x="259.25" y="99"></rect><text x="286.25" y="114">EXAT</text></g><path d="M313.25 110h10"></path><path d="M323.25 110h10"></path><g class="non-terminal ">
<path d="M333.25 110h0.0"></path><path d="M497.75 110h0.0"></path><rect height="22" width="164.5" x="333.25" y="99"></rect><text x="415.5" y="114">unix-time-seconds</text><title>unix-time</title></g></g><path d="M519.0 110h20"></path><path d="M218.0 110a10 10 0 0 1 10 10v10a10 10 0 0 0 10 10"></path><g>
<path d="M238.0 140h0.0"></path><path d="M519.0 140h0.0"></path><g class="terminal ">
<path d="M238.0 140h0.0"></path><path d="M292.0 140h0.0"></path><rect height="22" rx="10" ry="10" width="54.0" x="238.0" y="129"></rect><text x="265.0" y="144">PXAT</text></g><path d="M292.0 140h10"></path><path d="M302.0 140h10"></path><g class="non-terminal ">
<path d="M312.0 140h0.0"></path><path d="M519.0 140h0.0"></path><rect height="22" width="207.0" x="312.0" y="129"></rect><text x="415.5" y="144">unix-time-milliseconds</text><title>unix-time</title></g></g><path d="M519.0 140a10 10 0 0 0 10 -10v-10a10 10 0 0 1 10 -10"></path><path d="M218.0 110a10 10 0 0 1 10 10v40a10 10 0 0 0 10 10"></path><g class="terminal ">
<path d="M238.0 170h100.75"></path><path d="M418.25 170h100.75"></path><rect height="22" rx="10" ry="10" width="79.5" x="338.75" y="159"></rect><text x="378.5" y="174">PERSIST</text></g><path d="M519.0 170a10 10 0 0 0 10 -10v-40a10 10 0 0 1 10 -10"></path></g><path d="M539.0 110a10 10 0 0 0 10 -10v-59a10 10 0 0 1 10 -10"></path></g></g><path d="M569.0 31h0.0"></path></g><path d="M569.0 31h10"></path><path d="M 579.0 31 h 20 m -10 -10 v 20 m 10 -20 v 20"></path></g></svg>