<svg class="railroad-diagram" viewBox="0 0 455.5 62" xmlns="http://www.w3.org/2000/svg" xmlns:xlink="http://www.w3.org/1999/xlink">
<g transform="translate(.5 .5)">
<g>
<path d="M20 21v20m10 -20v20m-10 -10h20"></path></g><path d="M40 31h10"></path><g>
<path d="M50 31h0.0"></path><g>
<path d="M50.0 31h10.0"></path><path d="M395.5 31h10.0"></path><g class="terminal ">
<path d="M60.0 31h0.0"></path><path d="M199.0 31h0.0"></path><rect height="22" rx="10" ry="10" width="139.0" x="60.0" y="20"></rect><text x="129.5" y="35">ZREMRANGEBYLEX</text></g><path d="M199.0 31h10"></path><path d="M209.0 31h10"></path><g class="non-terminal ">
<path d="M219.0 31h0.0"></path><path d="M264.5 31h0.0"></path><rect height="22" width="45.5" x="219.0" y="20"></rect><text x="241.75" y="35">key</text><title>key</title></g><path d="M264.5 31h10"></path><path d="M274.5 31h10"></path><g class="non-terminal ">
<path d="M284.5 31h0.0"></path><path d="M330.0 31h0.0"></path><rect height="22" width="45.5" x="284.5" y="20"></rect><text x="307.25" y="35">min</text><title>string</title></g><path d="M330.0 31h10"></path><path d="M340.0 31h10"></path><g class="non-terminal ">
<path d="M350.0 31h0.0"></path><path d="M395.5 31h0.0"></path><rect height="22" width="45.5" x="350.0" y="20"></rect><text x="372.75" y="35">max</text><title>string</title></g></g><path d="M405.5 31h0.0"></path></g><path d="M405.5 31h10"></path><path d="M 415.5 31 h 20 m -10 -10 v 20 m 10 -20 v 20"></path></g></svg>