<svg class="railroad-diagram" viewBox="0 0 718.0 130" xmlns="http://www.w3.org/2000/svg" xmlns:xlink="http://www.w3.org/1999/xlink">
<g transform="translate(.5 .5)">
<g>
<path d="M20 21v20m10 -20v20m-10 -10h20"></path></g><path d="M40 31h10"></path><g>
<path d="M50 31h0.0"></path><path d="M50.0 31h10"></path><g>
<path d="M60.0 31h10.0"></path><path d="M648.0 31h10.0"></path><g class="terminal ">
<path d="M70.0 31h0.0"></path><path d="M192.0 31h0.0"></path><rect height="22" rx="10" ry="10" width="122.0" x="70.0" y="20"></rect><text x="131.0" y="35">FT.SYNUPDATE</text></g><path d="M192.0 31h10"></path><path d="M202.0 31h10"></path><g class="non-terminal ">
<path d="M212.0 31h0.0"></path><path d="M274.5 31h0.0"></path><rect height="22" width="62.5" x="212.0" y="20"></rect><text x="243.25" y="35">index</text><title>string</title></g><path d="M274.5 31h10"></path><path d="M284.5 31h10"></path><g class="non-terminal ">
<path d="M294.5 31h0.0"></path><path d="M450.5 31h0.0"></path><rect height="22" width="156.0" x="294.5" y="20"></rect><text x="372.5" y="35">synonym&#95;group&#95;id</text><title>string</title></g><path d="M450.5 31h10"></path><g>
<path d="M460.5 31h0.0"></path><path d="M648.0 31h0.0"></path><path d="M460.5 31h20"></path><g>
<path d="M480.5 31h147.5"></path></g><path d="M628.0 31h20"></path><path d="M460.5 31a10 10 0 0 1 10 10v0a10 10 0 0 0 10 10"></path><g class="terminal ">
<path d="M480.5 51h0.0"></path><path d="M628.0 51h0.0"></path><rect height="22" rx="10" ry="10" width="147.5" x="480.5" y="40"></rect><text x="554.25" y="55">SKIPINITIALSCAN</text></g><path d="M628.0 51a10 10 0 0 0 10 -10v0a10 10 0 0 1 10 -10"></path></g></g><path d="M658.0 31a10 10 0 0 1 10 10v19a10 10 0 0 1 -10 10h-598.0a10 10 0 0 0 -10 10v0a10 10 0 0 0 10 10"></path><g>
<path d="M60.0 90h262.0"></path><path d="M396.0 90h262.0"></path><g>
<path d="M322.0 90h0.0"></path><path d="M396.0 90h0.0"></path><path d="M322.0 90h10"></path><g class="non-terminal ">
<path d="M332.0 90h0.0"></path><path d="M386.0 90h0.0"></path><rect height="22" width="54.0" x="332.0" y="79"></rect><text x="359.0" y="94">term</text><title>string</title></g><path d="M386.0 90h10"></path><path d="M332.0 90a10 10 0 0 0 -10 10v0a10 10 0 0 0 10 10"></path><g>
<path d="M332.0 110h54.0"></path></g><path d="M386.0 110a10 10 0 0 0 10 -10v0a10 10 0 0 0 -10 -10"></path></g></g><path d="M658.0 90h10"></path><path d="M668.0 90h0.0"></path></g><path d="M668.0 90h10"></path><path d="M 678.0 90 h 20 m -10 -10 v 20 m 10 -20 v 20"></path></g></svg>