<svg class="railroad-diagram" viewBox="0 0 406.0 91" xmlns="http://www.w3.org/2000/svg" xmlns:xlink="http://www.w3.org/1999/xlink">
<g transform="translate(.5 .5)">
<g>
<path d="M20 21v20m10 -20v20m-10 -10h20"></path></g><path d="M40 31h10"></path><g>
<path d="M50 31h0.0"></path><g>
<path d="M50.0 31h10.0"></path><path d="M346.0 31h10.0"></path><g class="terminal ">
<path d="M60.0 31h0.0"></path><path d="M139.5 31h0.0"></path><rect height="22" rx="10" ry="10" width="79.5" x="60.0" y="20"></rect><text x="99.75" y="35">GEOHASH</text></g><path d="M139.5 31h10"></path><path d="M149.5 31h10"></path><g class="non-terminal ">
<path d="M159.5 31h0.0"></path><path d="M205.0 31h0.0"></path><rect height="22" width="45.5" x="159.5" y="20"></rect><text x="182.25" y="35">key</text><title>key</title></g><path d="M205.0 31h10"></path><g>
<path d="M215.0 31h0.0"></path><path d="M346.0 31h0.0"></path><path d="M215.0 31h20"></path><g>
<path d="M235.0 31h91.0"></path></g><path d="M326.0 31h20"></path><path d="M215.0 31a10 10 0 0 1 10 10v0a10 10 0 0 0 10 10"></path><g>
<path d="M235.0 51h0.0"></path><path d="M326.0 51h0.0"></path><path d="M235.0 51h10"></path><g class="non-terminal ">
<path d="M245.0 51h0.0"></path><path d="M316.0 51h0.0"></path><rect height="22" width="71.0" x="245.0" y="40"></rect><text x="280.5" y="55">member</text><title>string</title></g><path d="M316.0 51h10"></path><path d="M245.0 51a10 10 0 0 0 -10 10v0a10 10 0 0 0 10 10"></path><g>
<path d="M245.0 71h71.0"></path></g><path d="M316.0 71a10 10 0 0 0 10 -10v0a10 10 0 0 0 -10 -10"></path></g><path d="M326.0 51a10 10 0 0 0 10 -10v0a10 10 0 0 1 10 -10"></path></g></g><path d="M356.0 31h0.0"></path></g><path d="M356.0 31h10"></path><path d="M 366.0 31 h 20 m -10 -10 v 20 m 10 -20 v 20"></path></g></svg>