<svg class="railroad-diagram" viewBox="0 0 737.0 121" xmlns="http://www.w3.org/2000/svg" xmlns:xlink="http://www.w3.org/1999/xlink">
<g transform="translate(.5 .5)">
<g>
<path d="M20 21v20m10 -20v20m-10 -10h20"></path></g><path d="M40 31h10"></path><g>
<path d="M50 31h0.0"></path><path d="M50.0 31h10"></path><g>
<path d="M60.0 31h10.0"></path><path d="M667.0 31h10.0"></path><g class="terminal ">
<path d="M70.0 31h0.0"></path><path d="M158.0 31h0.0"></path><rect height="22" rx="10" ry="10" width="88.0" x="70.0" y="20"></rect><text x="114.0" y="35">FT.ALTER</text></g><path d="M158.0 31h10"></path><path d="M168.0 31h10"></path><g class="non-terminal ">
<path d="M178.0 31h0.0"></path><path d="M240.5 31h0.0"></path><rect height="22" width="62.5" x="178.0" y="20"></rect><text x="209.25" y="35">index</text><title>string</title></g><path d="M240.5 31h10"></path><g>
<path d="M250.5 31h0.0"></path><path d="M438.0 31h0.0"></path><path d="M250.5 31h20"></path><g>
<path d="M270.5 31h147.5"></path></g><path d="M418.0 31h20"></path><path d="M250.5 31a10 10 0 0 1 10 10v0a10 10 0 0 0 10 10"></path><g class="terminal ">
<path d="M270.5 51h0.0"></path><path d="M418.0 51h0.0"></path><rect height="22" rx="10" ry="10" width="147.5" x="270.5" y="40"></rect><text x="344.25" y="55">SKIPINITIALSCAN</text></g><path d="M418.0 51a10 10 0 0 0 10 -10v0a10 10 0 0 1 10 -10"></path></g><path d="M438.0 31h10"></path><g class="terminal ">
<path d="M448.0 31h0.0"></path><path d="M519.0 31h0.0"></path><rect height="22" rx="10" ry="10" width="71.0" x="448.0" y="20"></rect><text x="483.5" y="35">SCHEMA</text></g><path d="M519.0 31h10"></path><path d="M529.0 31h10"></path><g class="terminal ">
<path d="M539.0 31h0.0"></path><path d="M584.5 31h0.0"></path><rect height="22" rx="10" ry="10" width="45.5" x="539.0" y="20"></rect><text x="561.75" y="35">ADD</text></g><path d="M584.5 31h10"></path><path d="M594.5 31h10"></path><g class="non-terminal ">
<path d="M604.5 31h0.0"></path><path d="M667.0 31h0.0"></path><rect height="22" width="62.5" x="604.5" y="20"></rect><text x="635.75" y="35">field</text><title>string</title></g></g><path d="M677.0 31a10 10 0 0 1 10 10v19a10 10 0 0 1 -10 10h-617.0a10 10 0 0 0 -10 10v0a10 10 0 0 0 10 10"></path><g>
<path d="M60.0 90h268.75"></path><path d="M408.25 90h268.75"></path><g class="non-terminal ">
<path d="M328.75 90h0.0"></path><path d="M408.25 90h0.0"></path><rect height="22" width="79.5" x="328.75" y="79"></rect><text x="368.5" y="94">options</text><title>string</title></g></g><path d="M677.0 90h10"></path><path d="M687.0 90h0.0"></path></g><path d="M687.0 90h10"></path><path d="M 697.0 90 h 20 m -10 -10 v 20 m 10 -20 v 20"></path></g></svg>