<svg width="1200" height="900" viewBox="0 0 1200 900" xmlns="http://www.w3.org/2000/svg">
  <!-- Background -->
  <rect width="1200" height="900" fill="#F9F9FB"/>
  
  <!-- Subtle Grid Pattern -->
  <pattern id="grid" width="20" height="20" patternUnits="userSpaceOnUse">
    <path d="M 20 0 L 0 0 0 20" fill="none" stroke="#E0E0E0" stroke-width="0.5"/>
  </pattern>
  <rect width="1200" height="900" fill="url(#grid)"/>
  
  <!-- Header Background -->
  <rect width="1200" height="80" fill="white" filter="drop-shadow(0px 2px 4px rgba(0,0,0,0.1))"/>
  
  <!-- Redis Logo -->
  <g transform="translate(40, 25)">
    <!-- Redis Cube simplified -->
    <polygon points="0,15 30,0 60,15 60,45 30,60 0,45" fill="#DC382C"/>
    <text x="70" y="40" font-family="Roboto, sans-serif" font-size="24" font-weight="bold" fill="#1A2C42">Redis</text>
  </g>
  
  <!-- Navigation -->
  <g transform="translate(200, 40)" font-family="Roboto, sans-serif" font-size="16" fill="#1A2C42">
    <text x="0" y="0">Products</text>
    <text x="100" y="0">Solutions</text>
    <text x="200" y="0">Developers</text>
    <text x="300" y="0">Resources</text>
    <text x="400" y="0">Pricing</text>
  </g>
  
  <!-- Sign In and Try Free Buttons -->
  <g transform="translate(900, 30)">
    <rect x="0" y="0" width="100" height="40" rx="4" ry="4" fill="white" stroke="#DC382C" stroke-width="1"/>
    <text x="50" y="25" font-family="Roboto, sans-serif" font-size="16" fill="#DC382C" text-anchor="middle" dominant-baseline="middle">Sign In</text>
    
    <rect x="120" y="0" width="100" height="40" rx="4" ry="4" fill="#DC382C"/>
    <text x="170" y="25" font-family="Roboto, sans-serif" font-size="16" fill="white" text-anchor="middle" dominant-baseline="middle">Try Free</text>
  </g>
  
  <!-- Hero Section -->
  <g transform="translate(600, 250)" text-anchor="middle">
    <text font-family="Roboto, sans-serif" font-size="42" font-weight="bold" fill="#1A2C42">Build Powerful Multi-Agent Systems</text>
    <text y="60" font-family="Roboto, sans-serif" font-size="42" font-weight="bold" fill="#1A2C42">with Redis</text>
    <text y="120" font-family="Roboto, sans-serif" font-size="20" fill="#4A4A4A">Create, configure, and deploy intelligent agent networks in minutes</text>
    
    <!-- Buttons -->
    <rect x="-150" y="160" width="140" height="50" rx="4" ry="4" fill="#DC382C"/>
    <text x="-80" y="190" font-family="Roboto, sans-serif" font-size="18" fill="white">Get Started</text>
    
    <rect x="10" y="160" width="140" height="50" rx="4" ry="4" fill="white" stroke="#DC382C" stroke-width="1"/>
    <text x="80" y="190" font-family="Roboto, sans-serif" font-size="18" fill="#DC382C">View Examples</text>
  </g>
  
  <!-- Feature Cards -->
  <g transform="translate(100, 500)">
    <!-- Card 1 -->
    <rect width="300" height="250" rx="8" ry="8" fill="white" filter="drop-shadow(0px 2px 8px rgba(0,0,0,0.08))"/>
    <circle cx="50" cy="50" r="30" fill="#FEF0F0"/>
    <g transform="translate(50, 50)" fill="#DC382C">
      <!-- Chat bubble icon simplified -->
      <rect x="-15" y="-10" width="30" height="20" rx="5" ry="5"/>
      <polygon points="0,10 -5,20 5,10"/>
    </g>
    <text x="30" y="100" font-family="Roboto, sans-serif" font-size="20" font-weight="bold" fill="#1A2C42">Question Answering</text>
    <text x="30" y="130" width="240" font-family="Roboto, sans-serif" font-size="16" fill="#4A4A4A">Build intelligent QA systems that retrieve and process information</text>
    <text x="30" y="200" font-family="Roboto, sans-serif" font-size="16" fill="#DC382C">Learn more</text>
    
    <!-- Card 2 -->
    <g transform="translate(350, 0)">
      <rect width="300" height="250" rx="8" ry="8" fill="white" filter="drop-shadow(0px 2px 8px rgba(0,0,0,0.08))"/>
      <circle cx="50" cy="50" r="30" fill="#FEF0F0"/>
      <g transform="translate(50, 50)" fill="#DC382C">
        <!-- Document icon simplified -->
        <rect x="-15" y="-20" width="30" height="40" rx="2" ry="2"/>
        <line x1="-10" y1="-10" x2="10" y2="-10" stroke="#FEF0F0" stroke-width="2"/>
        <line x1="-10" y1="0" x2="10" y2="0" stroke="#FEF0F0" stroke-width="2"/>
        <line x1="-10" y1="10" x2="5" y2="10" stroke="#FEF0F0" stroke-width="2"/>
      </g>
      <text x="30" y="100" font-family="Roboto, sans-serif" font-size="20" font-weight="bold" fill="#1A2C42">Document Transformation</text>
      <text x="30" y="130" width="240" font-family="Roboto, sans-serif" font-size="16" fill="#4A4A4A">Process and transform documents with multi-stage pipelines</text>
      <text x="30" y="200" font-family="Roboto, sans-serif" font-size="16" fill="#DC382C">Learn more</text>
    </g>
    
    <!-- Card 3 -->
    <g transform="translate(700, 0)">
      <rect width="300" height="250" rx="8" ry="8" fill="white" filter="drop-shadow(0px 2px 8px rgba(0,0,0,0.08))"/>
      <circle cx="50" cy="50" r="30" fill="#FEF0F0"/>
      <g transform="translate(50, 50)" fill="#DC382C">
        <!-- Star icon simplified -->
        <polygon points="0,-20 5,-5 20,-5 10,5 15,20 0,10 -15,20 -10,5 -20,-5 -5,-5"/>
      </g>
      <text x="30" y="100" font-family="Roboto, sans-serif" font-size="20" font-weight="bold" fill="#1A2C42">Recommendation Engines</text>
      <text x="30" y="130" width="240" font-family="Roboto, sans-serif" font-size="16" fill="#4A4A4A">Deliver personalized recommendations with real-time processing</text>
      <text x="30" y="200" font-family="Roboto, sans-serif" font-size="16" fill="#DC382C">Learn more</text>
    </g>
  </g>
  
  <!-- Footer -->
  <g transform="translate(0, 800)">
    <rect width="1200" height="100" fill="#1A2C42"/>
    <text x="600" y="50" font-family="Roboto, sans-serif" font-size="14" fill="white" text-anchor="middle">© 2023 Redis. All rights reserved.</text>
  </g>
</svg>