<svg class="railroad-diagram" viewBox="0 0 636.5 91" xmlns="http://www.w3.org/2000/svg" xmlns:xlink="http://www.w3.org/1999/xlink">
<g transform="translate(.5 .5)">
<g>
<path d="M20 21v20m10 -20v20m-10 -10h20"></path></g><path d="M40 31h10"></path><g>
<path d="M50 31h0.0"></path><g>
<path d="M50.0 31h10.0"></path><path d="M576.5 31h10.0"></path><g class="terminal ">
<path d="M60.0 31h0.0"></path><path d="M148.0 31h0.0"></path><rect height="22" rx="10" ry="10" width="88.0" x="60.0" y="20"></rect><text x="104.0" y="35">FCALL&#95;RO</text></g><path d="M148.0 31h10"></path><path d="M158.0 31h10"></path><g class="non-terminal ">
<path d="M168.0 31h0.0"></path><path d="M256.0 31h0.0"></path><rect height="22" width="88.0" x="168.0" y="20"></rect><text x="212.0" y="35">function</text><title>string</title></g><path d="M256.0 31h10"></path><path d="M266.0 31h10"></path><g class="non-terminal ">
<path d="M276.0 31h0.0"></path><path d="M355.5 31h0.0"></path><rect height="22" width="79.5" x="276.0" y="20"></rect><text x="315.75" y="35">numkeys</text><title>integer</title></g><path d="M355.5 31h10"></path><g>
<path d="M365.5 31h0.0"></path><path d="M471.0 31h0.0"></path><path d="M365.5 31h20"></path><g>
<path d="M385.5 31h65.5"></path></g><path d="M451.0 31h20"></path><path d="M365.5 31a10 10 0 0 1 10 10v0a10 10 0 0 0 10 10"></path><g>
<path d="M385.5 51h0.0"></path><path d="M451.0 51h0.0"></path><path d="M385.5 51h10"></path><g class="non-terminal ">
<path d="M395.5 51h0.0"></path><path d="M441.0 51h0.0"></path><rect height="22" width="45.5" x="395.5" y="40"></rect><text x="418.25" y="55">key</text><title>key</title></g><path d="M441.0 51h10"></path><path d="M395.5 51a10 10 0 0 0 -10 10v0a10 10 0 0 0 10 10"></path><g>
<path d="M395.5 71h45.5"></path></g><path d="M441.0 71a10 10 0 0 0 10 -10v0a10 10 0 0 0 -10 -10"></path></g><path d="M451.0 51a10 10 0 0 0 10 -10v0a10 10 0 0 1 10 -10"></path></g><g>
<path d="M471.0 31h0.0"></path><path d="M576.5 31h0.0"></path><path d="M471.0 31h20"></path><g>
<path d="M491.0 31h65.5"></path></g><path d="M556.5 31h20"></path><path d="M471.0 31a10 10 0 0 1 10 10v0a10 10 0 0 0 10 10"></path><g>
<path d="M491.0 51h0.0"></path><path d="M556.5 51h0.0"></path><path d="M491.0 51h10"></path><g class="non-terminal ">
<path d="M501.0 51h0.0"></path><path d="M546.5 51h0.0"></path><rect height="22" width="45.5" x="501.0" y="40"></rect><text x="523.75" y="55">arg</text><title>string</title></g><path d="M546.5 51h10"></path><path d="M501.0 51a10 10 0 0 0 -10 10v0a10 10 0 0 0 10 10"></path><g>
<path d="M501.0 71h45.5"></path></g><path d="M546.5 71a10 10 0 0 0 10 -10v0a10 10 0 0 0 -10 -10"></path></g><path d="M556.5 51a10 10 0 0 0 10 -10v0a10 10 0 0 1 10 -10"></path></g></g><path d="M586.5 31h0.0"></path></g><path d="M586.5 31h10"></path><path d="M 596.5 31 h 20 m -10 -10 v 20 m 10 -20 v 20"></path></g></svg>