<svg class="railroad-diagram" viewBox="0 0 637.0 478" xmlns="http://www.w3.org/2000/svg" xmlns:xlink="http://www.w3.org/1999/xlink">
<g transform="translate(.5 .5)">
<g>
<path d="M20 21v20m10 -20v20m-10 -10h20"></path></g><path d="M40 31h10"></path><g>
<path d="M50 31h0.0"></path><path d="M50.0 31h10"></path><g>
<path d="M60.0 31h76.75"></path><path d="M500.25 31h76.75"></path><g class="terminal ">
<path d="M136.75 31h0.0"></path><path d="M275.75 31h0.0"></path><rect height="22" rx="10" ry="10" width="139.0" x="136.75" y="20"></rect><text x="206.25" y="35">GEOSEARCHSTORE</text></g><path d="M275.75 31h10"></path><path d="M285.75 31h10"></path><g class="non-terminal ">
<path d="M295.75 31h0.0"></path><path d="M409.25 31h0.0"></path><rect height="22" width="113.5" x="295.75" y="20"></rect><text x="352.5" y="35">destination</text><title>key</title></g><path d="M409.25 31h10"></path><path d="M419.25 31h10"></path><g class="non-terminal ">
<path d="M429.25 31h0.0"></path><path d="M500.25 31h0.0"></path><rect height="22" width="71.0" x="429.25" y="20"></rect><text x="464.75" y="35">source</text><title>key</title></g></g><path d="M577.0 31a10 10 0 0 1 10 10v0a10 10 0 0 1 -10 10h-517.0a10 10 0 0 0 -10 10v29a10 10 0 0 0 10 10"></path><g>
<path d="M60.0 100h73.75"></path><path d="M503.25 100h73.75"></path><g>
<path d="M133.75 100h0.0"></path><path d="M503.25 100h0.0"></path><path d="M133.75 100a10 10 0 0 0 10 -10v-10a10 10 0 0 1 10 -10"></path><g>
<path d="M153.75 70h66.75"></path><path d="M416.5 70h66.75"></path><g class="terminal ">
<path d="M220.5 70h0.0"></path><path d="M325.5 70h0.0"></path><rect height="22" rx="10" ry="10" width="105.0" x="220.5" y="59"></rect><text x="273.0" y="74">FROMMEMBER</text></g><path d="M325.5 70h10"></path><path d="M335.5 70h10"></path><g class="non-terminal ">
<path d="M345.5 70h0.0"></path><path d="M416.5 70h0.0"></path><rect height="22" width="71.0" x="345.5" y="59"></rect><text x="381.0" y="74">member</text><title>string</title></g></g><path d="M483.25 70a10 10 0 0 1 10 10v10a10 10 0 0 0 10 10"></path><path d="M133.75 100h20"></path><g>
<path d="M153.75 100h0.0"></path><path d="M483.25 100h0.0"></path><g class="terminal ">
<path d="M153.75 100h0.0"></path><path d="M258.75 100h0.0"></path><rect height="22" rx="10" ry="10" width="105.0" x="153.75" y="89"></rect><text x="206.25" y="104">FROMLONLAT</text></g><path d="M258.75 100h10"></path><path d="M268.75 100h10"></path><g>
<path d="M278.75 100h0.0"></path><path d="M483.25 100h0.0"></path><g class="non-terminal ">
<path d="M278.75 100h0.0"></path><path d="M375.25 100h0.0"></path><rect height="22" width="96.5" x="278.75" y="89"></rect><text x="327.0" y="104">longitude</text><title>double</title></g><path d="M375.25 100h10"></path><path d="M385.25 100h10"></path><g class="non-terminal ">
<path d="M395.25 100h0.0"></path><path d="M483.25 100h0.0"></path><rect height="22" width="88.0" x="395.25" y="89"></rect><text x="439.25" y="104">latitude</text><title>double</title></g></g></g><path d="M483.25 100h20"></path></g></g><path d="M577.0 100a10 10 0 0 1 10 10v0a10 10 0 0 1 -10 10h-517.0a10 10 0 0 0 -10 10v179a10 10 0 0 0 10 10"></path><g>
<path d="M60.0 319h10.0"></path><path d="M567.0 319h10.0"></path><g>
<path d="M70.0 319h0.0"></path><path d="M433.0 319h0.0"></path><path d="M70.0 319a10 10 0 0 0 10 -10v-100a10 10 0 0 1 10 -10"></path><g>
<path d="M90.0 199h28.5"></path><path d="M384.5 199h28.5"></path><g>
<path d="M118.5 199h0.0"></path><path d="M297.5 199h0.0"></path><g class="terminal ">
<path d="M118.5 199h0.0"></path><path d="M206.5 199h0.0"></path><rect height="22" rx="10" ry="10" width="88.0" x="118.5" y="188"></rect><text x="162.5" y="203">BYRADIUS</text></g><path d="M206.5 199h10"></path><path d="M216.5 199h10"></path><g class="non-terminal ">
<path d="M226.5 199h0.0"></path><path d="M297.5 199h0.0"></path><rect height="22" width="71.0" x="226.5" y="188"></rect><text x="262.0" y="203">radius</text><title>double</title></g></g><path d="M297.5 199h10"></path><g>
<path d="M307.5 199h0.0"></path><path d="M384.5 199h0.0"></path><path d="M307.5 199a10 10 0 0 0 10 -10v-10a10 10 0 0 1 10 -10"></path><g class="terminal ">
<path d="M327.5 169h0.0"></path><path d="M364.5 169h0.0"></path><rect height="22" rx="10" ry="10" width="37.0" x="327.5" y="158"></rect><text x="346.0" y="173">KM</text></g><path d="M364.5 169a10 10 0 0 1 10 10v10a10 10 0 0 0 10 10"></path><path d="M307.5 199a10 10 0 0 0 10 -10v-40a10 10 0 0 1 10 -10"></path><g class="terminal ">
<path d="M327.5 139h4.25"></path><path d="M360.25 139h4.25"></path><rect height="22" rx="10" ry="10" width="28.5" x="331.75" y="128"></rect><text x="346.0" y="143">M</text></g><path d="M364.5 139a10 10 0 0 1 10 10v40a10 10 0 0 0 10 10"></path><path d="M307.5 199h20"></path><g class="terminal ">
<path d="M327.5 199h0.0"></path><path d="M364.5 199h0.0"></path><rect height="22" rx="10" ry="10" width="37.0" x="327.5" y="188"></rect><text x="346.0" y="203">FT</text></g><path d="M364.5 199h20"></path><path d="M307.5 199a10 10 0 0 1 10 10v10a10 10 0 0 0 10 10"></path><g class="terminal ">
<path d="M327.5 229h0.0"></path><path d="M364.5 229h0.0"></path><rect height="22" rx="10" ry="10" width="37.0" x="327.5" y="218"></rect><text x="346.0" y="233">MI</text></g><path d="M364.5 229a10 10 0 0 0 10 -10v-10a10 10 0 0 1 10 -10"></path></g></g><path d="M413.0 199a10 10 0 0 1 10 10v100a10 10 0 0 0 10 10"></path><path d="M70.0 319h20"></path><g>
<path d="M90.0 319h0.0"></path><path d="M413.0 319h0.0"></path><g>
<path d="M90.0 319h0.0"></path><path d="M235.0 319h0.0"></path><g class="terminal ">
<path d="M90.0 319h0.0"></path><path d="M152.5 319h0.0"></path><rect height="22" rx="10" ry="10" width="62.5" x="90.0" y="308"></rect><text x="121.25" y="323">BYBOX</text></g><path d="M152.5 319h10"></path><path d="M162.5 319h10"></path><g class="non-terminal ">
<path d="M172.5 319h0.0"></path><path d="M235.0 319h0.0"></path><rect height="22" width="62.5" x="172.5" y="308"></rect><text x="203.75" y="323">width</text><title>double</title></g></g><path d="M235.0 319h10"></path><path d="M245.0 319h10"></path><g class="non-terminal ">
<path d="M255.0 319h0.0"></path><path d="M326.0 319h0.0"></path><rect height="22" width="71.0" x="255.0" y="308"></rect><text x="290.5" y="323">height</text><title>double</title></g><path d="M326.0 319h10"></path><g>
<path d="M336.0 319h0.0"></path><path d="M413.0 319h0.0"></path><path d="M336.0 319a10 10 0 0 0 10 -10v-10a10 10 0 0 1 10 -10"></path><g class="terminal ">
<path d="M356.0 289h0.0"></path><path d="M393.0 289h0.0"></path><rect height="22" rx="10" ry="10" width="37.0" x="356.0" y="278"></rect><text x="374.5" y="293">KM</text></g><path d="M393.0 289a10 10 0 0 1 10 10v10a10 10 0 0 0 10 10"></path><path d="M336.0 319a10 10 0 0 0 10 -10v-40a10 10 0 0 1 10 -10"></path><g class="terminal ">
<path d="M356.0 259h4.25"></path><path d="M388.75 259h4.25"></path><rect height="22" rx="10" ry="10" width="28.5" x="360.25" y="248"></rect><text x="374.5" y="263">M</text></g><path d="M393.0 259a10 10 0 0 1 10 10v40a10 10 0 0 0 10 10"></path><path d="M336.0 319h20"></path><g class="terminal ">
<path d="M356.0 319h0.0"></path><path d="M393.0 319h0.0"></path><rect height="22" rx="10" ry="10" width="37.0" x="356.0" y="308"></rect><text x="374.5" y="323">FT</text></g><path d="M393.0 319h20"></path><path d="M336.0 319a10 10 0 0 1 10 10v10a10 10 0 0 0 10 10"></path><g class="terminal ">
<path d="M356.0 349h0.0"></path><path d="M393.0 349h0.0"></path><rect height="22" rx="10" ry="10" width="37.0" x="356.0" y="338"></rect><text x="374.5" y="353">MI</text></g><path d="M393.0 349a10 10 0 0 0 10 -10v-10a10 10 0 0 1 10 -10"></path></g></g><path d="M413.0 319h20"></path></g><g>
<path d="M433.0 319h0.0"></path><path d="M567.0 319h0.0"></path><path d="M433.0 319h20"></path><g>
<path d="M453.0 319h94.0"></path></g><path d="M547.0 319h20"></path><path d="M433.0 319a10 10 0 0 1 10 10v29a10 10 0 0 0 10 10"></path><g>
<path d="M453.0 368h0.0"></path><path d="M547.0 368h0.0"></path><path d="M453.0 368a10 10 0 0 0 10 -10v-10a10 10 0 0 1 10 -10"></path><g class="terminal ">
<path d="M473.0 338h4.25"></path><path d="M522.75 338h4.25"></path><rect height="22" rx="10" ry="10" width="45.5" x="477.25" y="327"></rect><text x="500.0" y="342">ASC</text></g><path d="M527.0 338a10 10 0 0 1 10 10v10a10 10 0 0 0 10 10"></path><path d="M453.0 368h20"></path><g class="terminal ">
<path d="M473.0 368h0.0"></path><path d="M527.0 368h0.0"></path><rect height="22" rx="10" ry="10" width="54.0" x="473.0" y="357"></rect><text x="500.0" y="372">DESC</text></g><path d="M527.0 368h20"></path></g><path d="M547.0 368a10 10 0 0 0 10 -10v-29a10 10 0 0 1 10 -10"></path></g></g><path d="M577.0 319a10 10 0 0 1 10 10v48a10 10 0 0 1 -10 10h-517.0a10 10 0 0 0 -10 10v0a10 10 0 0 0 10 10"></path><g>
<path d="M60.0 407h50.0"></path><path d="M527.0 407h50.0"></path><g>
<path d="M110.0 407h0.0"></path><path d="M390.5 407h0.0"></path><path d="M110.0 407h20"></path><g>
<path d="M130.0 407h240.5"></path></g><path d="M370.5 407h20"></path><path d="M110.0 407a10 10 0 0 1 10 10v0a10 10 0 0 0 10 10"></path><g>
<path d="M130.0 427h0.0"></path><path d="M370.5 427h0.0"></path><g>
<path d="M130.0 427h0.0"></path><path d="M275.0 427h0.0"></path><g class="terminal ">
<path d="M130.0 427h0.0"></path><path d="M192.5 427h0.0"></path><rect height="22" rx="10" ry="10" width="62.5" x="130.0" y="416"></rect><text x="161.25" y="431">COUNT</text></g><path d="M192.5 427h10"></path><path d="M202.5 427h10"></path><g class="non-terminal ">
<path d="M212.5 427h0.0"></path><path d="M275.0 427h0.0"></path><rect height="22" width="62.5" x="212.5" y="416"></rect><text x="243.75" y="431">count</text><title>integer</title></g></g><path d="M275.0 427h10"></path><g>
<path d="M285.0 427h0.0"></path><path d="M370.5 427h0.0"></path><path d="M285.0 427h20"></path><g>
<path d="M305.0 427h45.5"></path></g><path d="M350.5 427h20"></path><path d="M285.0 427a10 10 0 0 1 10 10v0a10 10 0 0 0 10 10"></path><g class="terminal ">
<path d="M305.0 447h0.0"></path><path d="M350.5 447h0.0"></path><rect height="22" rx="10" ry="10" width="45.5" x="305.0" y="436"></rect><text x="327.75" y="451">ANY</text></g><path d="M350.5 447a10 10 0 0 0 10 -10v0a10 10 0 0 1 10 -10"></path></g></g><path d="M370.5 427a10 10 0 0 0 10 -10v0a10 10 0 0 1 10 -10"></path></g><g>
<path d="M390.5 407h0.0"></path><path d="M527.0 407h0.0"></path><path d="M390.5 407h20"></path><g>
<path d="M410.5 407h96.5"></path></g><path d="M507.0 407h20"></path><path d="M390.5 407a10 10 0 0 1 10 10v0a10 10 0 0 0 10 10"></path><g class="terminal ">
<path d="M410.5 427h0.0"></path><path d="M507.0 427h0.0"></path><rect height="22" rx="10" ry="10" width="96.5" x="410.5" y="416"></rect><text x="458.75" y="431">STOREDIST</text></g><path d="M507.0 427a10 10 0 0 0 10 -10v0a10 10 0 0 1 10 -10"></path></g></g><path d="M577.0 407h10"></path><path d="M587.0 407h0.0"></path></g><path d="M587.0 407h10"></path><path d="M 597.0 407 h 20 m -10 -10 v 20 m 10 -20 v 20"></path></g></svg>