<svg class="railroad-diagram" viewBox="0 0 404.5 62" xmlns="http://www.w3.org/2000/svg" xmlns:xlink="http://www.w3.org/1999/xlink">
<g transform="translate(.5 .5)">
<g>
<path d="M20 21v20m10 -20v20m-10 -10h20"></path></g><path d="M40 31h10"></path><g>
<path d="M50 31h0.0"></path><g>
<path d="M50.0 31h10.0"></path><path d="M344.5 31h10.0"></path><g class="terminal ">
<path d="M60.0 31h0.0"></path><path d="M122.5 31h0.0"></path><rect height="22" rx="10" ry="10" width="62.5" x="60.0" y="20"></rect><text x="91.25" y="35">LTRIM</text></g><path d="M122.5 31h10"></path><path d="M132.5 31h10"></path><g class="non-terminal ">
<path d="M142.5 31h0.0"></path><path d="M188.0 31h0.0"></path><rect height="22" width="45.5" x="142.5" y="20"></rect><text x="165.25" y="35">key</text><title>key</title></g><path d="M188.0 31h10"></path><path d="M198.0 31h10"></path><g class="non-terminal ">
<path d="M208.0 31h0.0"></path><path d="M270.5 31h0.0"></path><rect height="22" width="62.5" x="208.0" y="20"></rect><text x="239.25" y="35">start</text><title>integer</title></g><path d="M270.5 31h10"></path><path d="M280.5 31h10"></path><g class="non-terminal ">
<path d="M290.5 31h0.0"></path><path d="M344.5 31h0.0"></path><rect height="22" width="54.0" x="290.5" y="20"></rect><text x="317.5" y="35">stop</text><title>integer</title></g></g><path d="M354.5 31h0.0"></path></g><path d="M354.5 31h10"></path><path d="M 364.5 31 h 20 m -10 -10 v 20 m 10 -20 v 20"></path></g></svg>