<svg class="railroad-diagram" viewBox="0 0 679.0 316" xmlns="http://www.w3.org/2000/svg" xmlns:xlink="http://www.w3.org/1999/xlink">
<g transform="translate(.5 .5)">
<g>
<path d="M20 21v20m10 -20v20m-10 -10h20"></path></g><path d="M40 31h10"></path><g>
<path d="M50 31h0.0"></path><path d="M50.0 31h10"></path><g>
<path d="M60.0 31h10.0"></path><path d="M609.0 31h10.0"></path><g class="terminal ">
<path d="M70.0 31h0.0"></path><path d="M149.5 31h0.0"></path><rect height="22" rx="10" ry="10" width="79.5" x="70.0" y="20"></rect><text x="109.75" y="35">TS.MGET</text></g><path d="M149.5 31h10"></path><g>
<path d="M159.5 31h0.0"></path><path d="M270.5 31h0.0"></path><path d="M159.5 31h20"></path><g>
<path d="M179.5 31h71.0"></path></g><path d="M250.5 31h20"></path><path d="M159.5 31a10 10 0 0 1 10 10v0a10 10 0 0 0 10 10"></path><g class="non-terminal ">
<path d="M179.5 51h0.0"></path><path d="M250.5 51h0.0"></path><rect height="22" width="71.0" x="179.5" y="40"></rect><text x="215.0" y="55">LATEST</text><title>string</title></g><path d="M250.5 51a10 10 0 0 0 10 -10v0a10 10 0 0 1 10 -10"></path></g><g>
<path d="M270.5 31h0.0"></path><path d="M609.0 31h0.0"></path><path d="M270.5 31h20"></path><g>
<path d="M290.5 31h298.5"></path></g><path d="M589.0 31h20"></path><path d="M270.5 31a10 10 0 0 1 10 10v29a10 10 0 0 0 10 10"></path><g>
<path d="M290.5 80h0.0"></path><path d="M589.0 80h0.0"></path><path d="M290.5 80a10 10 0 0 0 10 -10v-10a10 10 0 0 1 10 -10"></path><g class="terminal ">
<path d="M310.5 50h76.75"></path><path d="M492.25 50h76.75"></path><rect height="22" rx="10" ry="10" width="105.0" x="387.25" y="39"></rect><text x="439.75" y="54">WITHLABELS</text></g><path d="M569.0 50a10 10 0 0 1 10 10v10a10 10 0 0 0 10 10"></path><path d="M290.5 80h20"></path><g>
<path d="M310.5 80h0.0"></path><path d="M569.0 80h0.0"></path><g class="terminal ">
<path d="M310.5 80h0.0"></path><path d="M458.0 80h0.0"></path><rect height="22" rx="10" ry="10" width="147.5" x="310.5" y="69"></rect><text x="384.25" y="84">SELECTED&#95;LABELS</text></g><path d="M458.0 80h10"></path><path d="M468.0 80h10"></path><g>
<path d="M478.0 80h0.0"></path><path d="M569.0 80h0.0"></path><path d="M478.0 80h10"></path><g class="non-terminal ">
<path d="M488.0 80h0.0"></path><path d="M559.0 80h0.0"></path><rect height="22" width="71.0" x="488.0" y="69"></rect><text x="523.5" y="84">label1</text><title>string</title></g><path d="M559.0 80h10"></path><path d="M488.0 80a10 10 0 0 0 -10 10v0a10 10 0 0 0 10 10"></path><g>
<path d="M488.0 100h71.0"></path></g><path d="M559.0 100a10 10 0 0 0 10 -10v0a10 10 0 0 0 -10 -10"></path></g></g><path d="M569.0 80h20"></path></g><path d="M589.0 80a10 10 0 0 0 10 -10v-29a10 10 0 0 1 10 -10"></path></g></g><path d="M619.0 31a10 10 0 0 1 10 10v57a10 10 0 0 1 -10 10h-559.0a10 10 0 0 0 -10 10v89a10 10 0 0 0 10 10"></path><g>
<path d="M60.0 217h180.0"></path><path d="M439.0 217h180.0"></path><g>
<path d="M240.0 217h0.0"></path><path d="M439.0 217h0.0"></path><path d="M240.0 217h10"></path><g>
<path d="M250.0 217h0.0"></path><path d="M429.0 217h0.0"></path><path d="M250.0 217a10 10 0 0 0 10 -10v-10a10 10 0 0 1 10 -10"></path><g class="non-terminal ">
<path d="M270.0 187h51.0"></path><path d="M358.0 187h51.0"></path><rect height="22" width="37.0" x="321.0" y="176"></rect><text x="339.5" y="191">l=</text><title>string</title></g><path d="M409.0 187a10 10 0 0 1 10 10v10a10 10 0 0 0 10 10"></path><path d="M250.0 217a10 10 0 0 0 10 -10v-40a10 10 0 0 1 10 -10"></path><g class="non-terminal ">
<path d="M270.0 157h42.5"></path><path d="M366.5 157h42.5"></path><rect height="22" width="54.0" x="312.5" y="146"></rect><text x="339.5" y="161">l!=v</text><title>string</title></g><path d="M409.0 157a10 10 0 0 1 10 10v40a10 10 0 0 0 10 10"></path><path d="M250.0 217a10 10 0 0 0 10 -10v-70a10 10 0 0 1 10 -10"></path><g class="non-terminal ">
<path d="M270.0 127h46.75"></path><path d="M362.25 127h46.75"></path><rect height="22" width="45.5" x="316.75" y="116"></rect><text x="339.5" y="131">l=v</text><title>string</title></g><path d="M409.0 127a10 10 0 0 1 10 10v70a10 10 0 0 0 10 10"></path><path d="M250.0 217h20"></path><g class="non-terminal ">
<path d="M270.0 217h46.75"></path><path d="M362.25 217h46.75"></path><rect height="22" width="45.5" x="316.75" y="206"></rect><text x="339.5" y="221">l!=</text><title>string</title></g><path d="M409.0 217h20"></path><path d="M250.0 217a10 10 0 0 1 10 10v10a10 10 0 0 0 10 10"></path><g class="non-terminal ">
<path d="M270.0 247h4.25"></path><path d="M404.75 247h4.25"></path><rect height="22" width="130.5" x="274.25" y="236"></rect><text x="339.5" y="251">l=(v1,v2,...)</text><title>string</title></g><path d="M409.0 247a10 10 0 0 0 10 -10v-10a10 10 0 0 1 10 -10"></path><path d="M250.0 217a10 10 0 0 1 10 10v40a10 10 0 0 0 10 10"></path><g class="non-terminal ">
<path d="M270.0 277h0.0"></path><path d="M409.0 277h0.0"></path><rect height="22" width="139.0" x="270.0" y="266"></rect><text x="339.5" y="281">l!=(v1,v2,...)</text><title>string</title></g><path d="M409.0 277a10 10 0 0 0 10 -10v-40a10 10 0 0 1 10 -10"></path></g><path d="M429.0 217h10"></path><path d="M250.0 217a10 10 0 0 0 -10 10v59a10 10 0 0 0 10 10"></path><g>
<path d="M250.0 296h179.0"></path></g><path d="M429.0 296a10 10 0 0 0 10 -10v-59a10 10 0 0 0 -10 -10"></path></g></g><path d="M619.0 217h10"></path><path d="M629.0 217h0.0"></path></g><path d="M629.0 217h10"></path><path d="M 639.0 217 h 20 m -10 -10 v 20 m 10 -20 v 20"></path></g></svg>