<svg class="railroad-diagram" viewBox="0 0 472.5 62" xmlns="http://www.w3.org/2000/svg" xmlns:xlink="http://www.w3.org/1999/xlink">
<g transform="translate(.5 .5)">
<g>
<path d="M20 21v20m10 -20v20m-10 -10h20"></path></g><path d="M40 31h10"></path><g>
<path d="M50 31h0.0"></path><g>
<path d="M50.0 31h10.0"></path><path d="M412.5 31h10.0"></path><g class="terminal ">
<path d="M60.0 31h0.0"></path><path d="M216.0 31h0.0"></path><rect height="22" rx="10" ry="10" width="156.0" x="60.0" y="20"></rect><text x="138.0" y="35">ZREMRANGEBYSCORE</text></g><path d="M216.0 31h10"></path><path d="M226.0 31h10"></path><g class="non-terminal ">
<path d="M236.0 31h0.0"></path><path d="M281.5 31h0.0"></path><rect height="22" width="45.5" x="236.0" y="20"></rect><text x="258.75" y="35">key</text><title>key</title></g><path d="M281.5 31h10"></path><path d="M291.5 31h10"></path><g class="non-terminal ">
<path d="M301.5 31h0.0"></path><path d="M347.0 31h0.0"></path><rect height="22" width="45.5" x="301.5" y="20"></rect><text x="324.25" y="35">min</text><title>double</title></g><path d="M347.0 31h10"></path><path d="M357.0 31h10"></path><g class="non-terminal ">
<path d="M367.0 31h0.0"></path><path d="M412.5 31h0.0"></path><rect height="22" width="45.5" x="367.0" y="20"></rect><text x="389.75" y="35">max</text><title>double</title></g></g><path d="M422.5 31h0.0"></path></g><path d="M422.5 31h10"></path><path d="M 432.5 31 h 20 m -10 -10 v 20 m 10 -20 v 20"></path></g></svg>