<svg class="railroad-diagram" viewBox="0 0 751.5 171" xmlns="http://www.w3.org/2000/svg" xmlns:xlink="http://www.w3.org/1999/xlink">
<g transform="translate(.5 .5)">
<g>
<path d="M20 21v20m10 -20v20m-10 -10h20"></path></g><path d="M40 31h10"></path><g>
<path d="M50 31h0.0"></path><g>
<path d="M50.0 31h10.0"></path><path d="M691.5 31h10.0"></path><g class="terminal ">
<path d="M60.0 31h0.0"></path><path d="M148.0 31h0.0"></path><rect height="22" rx="10" ry="10" width="88.0" x="60.0" y="20"></rect><text x="104.0" y="35">HPEXPIRE</text></g><path d="M148.0 31h10"></path><path d="M158.0 31h10"></path><g class="non-terminal ">
<path d="M168.0 31h0.0"></path><path d="M213.5 31h0.0"></path><rect height="22" width="45.5" x="168.0" y="20"></rect><text x="190.75" y="35">key</text><title>key</title></g><path d="M213.5 31h10"></path><path d="M223.5 31h10"></path><g class="non-terminal ">
<path d="M233.5 31h0.0"></path><path d="M355.5 31h0.0"></path><rect height="22" width="122.0" x="233.5" y="20"></rect><text x="294.5" y="35">milliseconds</text><title>integer</title></g><path d="M355.5 31h10"></path><g>
<path d="M365.5 31h0.0"></path><path d="M482.5 31h0.0"></path><path d="M365.5 31h20"></path><g>
<path d="M385.5 31h77.0"></path></g><path d="M462.5 31h20"></path><path d="M365.5 31a10 10 0 0 1 10 10v59a10 10 0 0 0 10 10"></path><g>
<path d="M385.5 110h0.0"></path><path d="M462.5 110h0.0"></path><path d="M385.5 110a10 10 0 0 0 10 -10v-10a10 10 0 0 1 10 -10"></path><g class="terminal ">
<path d="M405.5 80h0.0"></path><path d="M442.5 80h0.0"></path><rect height="22" rx="10" ry="10" width="37.0" x="405.5" y="69"></rect><text x="424.0" y="84">XX</text></g><path d="M442.5 80a10 10 0 0 1 10 10v10a10 10 0 0 0 10 10"></path><path d="M385.5 110a10 10 0 0 0 10 -10v-40a10 10 0 0 1 10 -10"></path><g class="terminal ">
<path d="M405.5 50h0.0"></path><path d="M442.5 50h0.0"></path><rect height="22" rx="10" ry="10" width="37.0" x="405.5" y="39"></rect><text x="424.0" y="54">NX</text></g><path d="M442.5 50a10 10 0 0 1 10 10v40a10 10 0 0 0 10 10"></path><path d="M385.5 110h20"></path><g class="terminal ">
<path d="M405.5 110h0.0"></path><path d="M442.5 110h0.0"></path><rect height="22" rx="10" ry="10" width="37.0" x="405.5" y="99"></rect><text x="424.0" y="114">GT</text></g><path d="M442.5 110h20"></path><path d="M385.5 110a10 10 0 0 1 10 10v10a10 10 0 0 0 10 10"></path><g class="terminal ">
<path d="M405.5 140h0.0"></path><path d="M442.5 140h0.0"></path><rect height="22" rx="10" ry="10" width="37.0" x="405.5" y="129"></rect><text x="424.0" y="144">LT</text></g><path d="M442.5 140a10 10 0 0 0 10 -10v-10a10 10 0 0 1 10 -10"></path></g><path d="M462.5 110a10 10 0 0 0 10 -10v-59a10 10 0 0 1 10 -10"></path></g><path d="M482.5 31h10"></path><g class="non-terminal ">
<path d="M492.5 31h0.0"></path><path d="M589.0 31h0.0"></path><rect height="22" width="96.5" x="492.5" y="20"></rect><text x="540.75" y="35">numfields</text><title>integer</title></g><path d="M589.0 31h10"></path><path d="M599.0 31h10"></path><g>
<path d="M609.0 31h0.0"></path><path d="M691.5 31h0.0"></path><path d="M609.0 31h10"></path><g class="non-terminal ">
<path d="M619.0 31h0.0"></path><path d="M681.5 31h0.0"></path><rect height="22" width="62.5" x="619.0" y="20"></rect><text x="650.25" y="35">field</text><title>string</title></g><path d="M681.5 31h10"></path><path d="M619.0 31a10 10 0 0 0 -10 10v0a10 10 0 0 0 10 10"></path><g>
<path d="M619.0 51h62.5"></path></g><path d="M681.5 51a10 10 0 0 0 10 -10v0a10 10 0 0 0 -10 -10"></path></g></g><path d="M701.5 31h0.0"></path></g><path d="M701.5 31h10"></path><path d="M 711.5 31 h 20 m -10 -10 v 20 m 10 -20 v 20"></path></g></svg>