<svg class="railroad-diagram" viewBox="0 0 545.0 111" xmlns="http://www.w3.org/2000/svg" xmlns:xlink="http://www.w3.org/1999/xlink">
<g transform="translate(.5 .5)">
<g>
<path d="M20 21v20m10 -20v20m-10 -10h20"></path></g><path d="M40 31h10"></path><g>
<path d="M50 31h0.0"></path><g>
<path d="M50.0 31h10.0"></path><path d="M485.0 31h10.0"></path><g class="terminal ">
<path d="M60.0 31h0.0"></path><path d="M199.0 31h0.0"></path><rect height="22" rx="10" ry="10" width="139.0" x="60.0" y="20"></rect><text x="129.5" y="35">CLIENT UNBLOCK</text></g><path d="M199.0 31h10"></path><path d="M209.0 31h10"></path><g class="non-terminal ">
<path d="M219.0 31h0.0"></path><path d="M315.5 31h0.0"></path><rect height="22" width="96.5" x="219.0" y="20"></rect><text x="267.25" y="35">client-id</text><title>integer</title></g><path d="M315.5 31h10"></path><g>
<path d="M325.5 31h0.0"></path><path d="M485.0 31h0.0"></path><path d="M325.5 31h20"></path><g>
<path d="M345.5 31h119.5"></path></g><path d="M465.0 31h20"></path><path d="M325.5 31a10 10 0 0 1 10 10v29a10 10 0 0 0 10 10"></path><g>
<path d="M345.5 80h0.0"></path><path d="M465.0 80h0.0"></path><path d="M345.5 80a10 10 0 0 0 10 -10v-10a10 10 0 0 1 10 -10"></path><g class="terminal ">
<path d="M365.5 50h0.0"></path><path d="M445.0 50h0.0"></path><rect height="22" rx="10" ry="10" width="79.5" x="365.5" y="39"></rect><text x="405.25" y="54">TIMEOUT</text></g><path d="M445.0 50a10 10 0 0 1 10 10v10a10 10 0 0 0 10 10"></path><path d="M345.5 80h20"></path><g class="terminal ">
<path d="M365.5 80h8.5"></path><path d="M436.5 80h8.5"></path><rect height="22" rx="10" ry="10" width="62.5" x="374.0" y="69"></rect><text x="405.25" y="84">ERROR</text></g><path d="M445.0 80h20"></path></g><path d="M465.0 80a10 10 0 0 0 10 -10v-29a10 10 0 0 1 10 -10"></path></g></g><path d="M495.0 31h0.0"></path></g><path d="M495.0 31h10"></path><path d="M 505.0 31 h 20 m -10 -10 v 20 m 10 -20 v 20"></path></g></svg>