<svg class="railroad-diagram" viewBox="0 0 434.0 91" xmlns="http://www.w3.org/2000/svg" xmlns:xlink="http://www.w3.org/1999/xlink">
<g transform="translate(.5 .5)">
<g>
<path d="M20 21v20m10 -20v20m-10 -10h20"></path></g><path d="M40 31h10"></path><g>
<path d="M50 31h0.0"></path><g>
<path d="M50.0 31h10.0"></path><path d="M374.0 31h10.0"></path><g class="terminal ">
<path d="M60.0 31h0.0"></path><path d="M224.5 31h0.0"></path><rect height="22" rx="10" ry="10" width="164.5" x="60.0" y="20"></rect><text x="142.25" y="35">LATENCY HISTOGRAM</text></g><path d="M224.5 31h10"></path><g>
<path d="M234.5 31h0.0"></path><path d="M374.0 31h0.0"></path><path d="M234.5 31h20"></path><g>
<path d="M254.5 31h99.5"></path></g><path d="M354.0 31h20"></path><path d="M234.5 31a10 10 0 0 1 10 10v0a10 10 0 0 0 10 10"></path><g>
<path d="M254.5 51h0.0"></path><path d="M354.0 51h0.0"></path><path d="M254.5 51h10"></path><g class="non-terminal ">
<path d="M264.5 51h0.0"></path><path d="M344.0 51h0.0"></path><rect height="22" width="79.5" x="264.5" y="40"></rect><text x="304.25" y="55">command</text><title>string</title></g><path d="M344.0 51h10"></path><path d="M264.5 51a10 10 0 0 0 -10 10v0a10 10 0 0 0 10 10"></path><g>
<path d="M264.5 71h79.5"></path></g><path d="M344.0 71a10 10 0 0 0 10 -10v0a10 10 0 0 0 -10 -10"></path></g><path d="M354.0 51a10 10 0 0 0 10 -10v0a10 10 0 0 1 10 -10"></path></g></g><path d="M384.0 31h0.0"></path></g><path d="M384.0 31h10"></path><path d="M 394.0 31 h 20 m -10 -10 v 20 m 10 -20 v 20"></path></g></svg>