<svg class="railroad-diagram" viewBox="0 0 756.0 112" xmlns="http://www.w3.org/2000/svg" xmlns:xlink="http://www.w3.org/1999/xlink">
<g transform="translate(.5 .5)">
<g>
<path d="M20 51v20m10 -20v20m-10 -10h20"></path></g><path d="M40 61h10"></path><g>
<path d="M50 61h0.0"></path><g>
<path d="M50.0 61h10.0"></path><path d="M696.0 61h10.0"></path><g class="terminal ">
<path d="M60.0 61h0.0"></path><path d="M131.0 61h0.0"></path><rect height="22" rx="10" ry="10" width="71.0" x="60.0" y="50"></rect><text x="95.5" y="65">BZMPOP</text></g><path d="M131.0 61h10"></path><path d="M141.0 61h10"></path><g class="non-terminal ">
<path d="M151.0 61h0.0"></path><path d="M230.5 61h0.0"></path><rect height="22" width="79.5" x="151.0" y="50"></rect><text x="190.75" y="65">timeout</text><title>double</title></g><path d="M230.5 61h10"></path><path d="M240.5 61h10"></path><g class="non-terminal ">
<path d="M250.5 61h0.0"></path><path d="M330.0 61h0.0"></path><rect height="22" width="79.5" x="250.5" y="50"></rect><text x="290.25" y="65">numkeys</text><title>integer</title></g><path d="M330.0 61h10"></path><path d="M340.0 61h10"></path><g>
<path d="M350.0 61h0.0"></path><path d="M415.5 61h0.0"></path><path d="M350.0 61h10"></path><g class="non-terminal ">
<path d="M360.0 61h0.0"></path><path d="M405.5 61h0.0"></path><rect height="22" width="45.5" x="360.0" y="50"></rect><text x="382.75" y="65">key</text><title>key</title></g><path d="M405.5 61h10"></path><path d="M360.0 61a10 10 0 0 0 -10 10v0a10 10 0 0 0 10 10"></path><g>
<path d="M360.0 81h45.5"></path></g><path d="M405.5 81a10 10 0 0 0 10 -10v0a10 10 0 0 0 -10 -10"></path></g><path d="M415.5 61h10"></path><g>
<path d="M425.5 61h0.0"></path><path d="M511.0 61h0.0"></path><path d="M425.5 61a10 10 0 0 0 10 -10v-10a10 10 0 0 1 10 -10"></path><g class="terminal ">
<path d="M445.5 31h0.0"></path><path d="M491.0 31h0.0"></path><rect height="22" rx="10" ry="10" width="45.5" x="445.5" y="20"></rect><text x="468.25" y="35">MIN</text></g><path d="M491.0 31a10 10 0 0 1 10 10v10a10 10 0 0 0 10 10"></path><path d="M425.5 61h20"></path><g class="terminal ">
<path d="M445.5 61h0.0"></path><path d="M491.0 61h0.0"></path><rect height="22" rx="10" ry="10" width="45.5" x="445.5" y="50"></rect><text x="468.25" y="65">MAX</text></g><path d="M491.0 61h20"></path></g><g>
<path d="M511.0 61h0.0"></path><path d="M696.0 61h0.0"></path><path d="M511.0 61h20"></path><g>
<path d="M531.0 61h145.0"></path></g><path d="M676.0 61h20"></path><path d="M511.0 61a10 10 0 0 1 10 10v0a10 10 0 0 0 10 10"></path><g>
<path d="M531.0 81h0.0"></path><path d="M676.0 81h0.0"></path><g class="terminal ">
<path d="M531.0 81h0.0"></path><path d="M593.5 81h0.0"></path><rect height="22" rx="10" ry="10" width="62.5" x="531.0" y="70"></rect><text x="562.25" y="85">COUNT</text></g><path d="M593.5 81h10"></path><path d="M603.5 81h10"></path><g class="non-terminal ">
<path d="M613.5 81h0.0"></path><path d="M676.0 81h0.0"></path><rect height="22" width="62.5" x="613.5" y="70"></rect><text x="644.75" y="85">count</text><title>integer</title></g></g><path d="M676.0 81a10 10 0 0 0 10 -10v0a10 10 0 0 1 10 -10"></path></g></g><path d="M706.0 61h0.0"></path></g><path d="M706.0 61h10"></path><path d="M 716.0 61 h 20 m -10 -10 v 20 m 10 -20 v 20"></path></g></svg>