<svg class="railroad-diagram" viewBox="0 0 644.5 82" xmlns="http://www.w3.org/2000/svg" xmlns:xlink="http://www.w3.org/1999/xlink">
<g transform="translate(.5 .5)">
<g>
<path d="M20 21v20m10 -20v20m-10 -10h20"></path></g><path d="M40 31h10"></path><g>
<path d="M50 31h0.0"></path><g>
<path d="M50.0 31h10.0"></path><path d="M584.5 31h10.0"></path><g class="terminal ">
<path d="M60.0 31h0.0"></path><path d="M190.5 31h0.0"></path><rect height="22" rx="10" ry="10" width="130.5" x="60.0" y="20"></rect><text x="125.25" y="35">FT.EXPLAINCLI</text></g><path d="M190.5 31h10"></path><path d="M200.5 31h10"></path><g class="non-terminal ">
<path d="M210.5 31h0.0"></path><path d="M273.0 31h0.0"></path><rect height="22" width="62.5" x="210.5" y="20"></rect><text x="241.75" y="35">index</text><title>string</title></g><path d="M273.0 31h10"></path><path d="M283.0 31h10"></path><g class="non-terminal ">
<path d="M293.0 31h0.0"></path><path d="M355.5 31h0.0"></path><rect height="22" width="62.5" x="293.0" y="20"></rect><text x="324.25" y="35">query</text><title>string</title></g><path d="M355.5 31h10"></path><g>
<path d="M365.5 31h0.0"></path><path d="M584.5 31h0.0"></path><path d="M365.5 31h20"></path><g>
<path d="M385.5 31h179.0"></path></g><path d="M564.5 31h20"></path><path d="M365.5 31a10 10 0 0 1 10 10v0a10 10 0 0 0 10 10"></path><g>
<path d="M385.5 51h0.0"></path><path d="M564.5 51h0.0"></path><g class="terminal ">
<path d="M385.5 51h0.0"></path><path d="M465.0 51h0.0"></path><rect height="22" rx="10" ry="10" width="79.5" x="385.5" y="40"></rect><text x="425.25" y="55">DIALECT</text></g><path d="M465.0 51h10"></path><path d="M475.0 51h10"></path><g class="non-terminal ">
<path d="M485.0 51h0.0"></path><path d="M564.5 51h0.0"></path><rect height="22" width="79.5" x="485.0" y="40"></rect><text x="524.75" y="55">dialect</text><title>integer</title></g></g><path d="M564.5 51a10 10 0 0 0 10 -10v0a10 10 0 0 1 10 -10"></path></g></g><path d="M594.5 31h0.0"></path></g><path d="M594.5 31h10"></path><path d="M 604.5 31 h 20 m -10 -10 v 20 m 10 -20 v 20"></path></g></svg>