<svg class="railroad-diagram" viewBox="0 0 549.0 62" xmlns="http://www.w3.org/2000/svg" xmlns:xlink="http://www.w3.org/1999/xlink">
<g transform="translate(.5 .5)">
<g>
<path d="M20 21v20m10 -20v20m-10 -10h20"></path></g><path d="M40 31h10"></path><g>
<path d="M50 31h0.0"></path><g>
<path d="M50.0 31h10.0"></path><path d="M489.0 31h10.0"></path><g class="terminal ">
<path d="M60.0 31h0.0"></path><path d="M165.0 31h0.0"></path><rect height="22" rx="10" ry="10" width="105.0" x="60.0" y="20"></rect><text x="112.5" y="35">BRPOPLPUSH</text></g><path d="M165.0 31h10"></path><path d="M175.0 31h10"></path><g class="non-terminal ">
<path d="M185.0 31h0.0"></path><path d="M256.0 31h0.0"></path><rect height="22" width="71.0" x="185.0" y="20"></rect><text x="220.5" y="35">source</text><title>key</title></g><path d="M256.0 31h10"></path><path d="M266.0 31h10"></path><g class="non-terminal ">
<path d="M276.0 31h0.0"></path><path d="M389.5 31h0.0"></path><rect height="22" width="113.5" x="276.0" y="20"></rect><text x="332.75" y="35">destination</text><title>key</title></g><path d="M389.5 31h10"></path><path d="M399.5 31h10"></path><g class="non-terminal ">
<path d="M409.5 31h0.0"></path><path d="M489.0 31h0.0"></path><rect height="22" width="79.5" x="409.5" y="20"></rect><text x="449.25" y="35">timeout</text><title>double</title></g></g><path d="M499.0 31h0.0"></path></g><path d="M499.0 31h10"></path><path d="M 509.0 31 h 20 m -10 -10 v 20 m 10 -20 v 20"></path></g></svg>