<svg class="railroad-diagram" viewBox="0 0 736.0 62" xmlns="http://www.w3.org/2000/svg" xmlns:xlink="http://www.w3.org/1999/xlink">
<g transform="translate(.5 .5)">
<g>
<path d="M20 21v20m10 -20v20m-10 -10h20"></path></g><path d="M40 31h10"></path><g>
<path d="M50 31h0.0"></path><g>
<path d="M50.0 31h10.0"></path><path d="M676.0 31h10.0"></path><g class="terminal ">
<path d="M60.0 31h0.0"></path><path d="M250.0 31h0.0"></path><rect height="22" rx="10" ry="10" width="190.0" x="60.0" y="20"></rect><text x="155.0" y="35">TDIGEST.TRIMMED&#95;MEAN</text></g><path d="M250.0 31h10"></path><path d="M260.0 31h10"></path><g class="non-terminal ">
<path d="M270.0 31h0.0"></path><path d="M315.5 31h0.0"></path><rect height="22" width="45.5" x="270.0" y="20"></rect><text x="292.75" y="35">key</text><title>key</title></g><path d="M315.5 31h10"></path><path d="M325.5 31h10"></path><g class="non-terminal ">
<path d="M335.5 31h0.0"></path><path d="M491.5 31h0.0"></path><rect height="22" width="156.0" x="335.5" y="20"></rect><text x="413.5" y="35">low&#95;cut&#95;quantile</text><title>double</title></g><path d="M491.5 31h10"></path><path d="M501.5 31h10"></path><g class="non-terminal ">
<path d="M511.5 31h0.0"></path><path d="M676.0 31h0.0"></path><rect height="22" width="164.5" x="511.5" y="20"></rect><text x="593.75" y="35">high&#95;cut&#95;quantile</text><title>double</title></g></g><path d="M686.0 31h0.0"></path></g><path d="M686.0 31h10"></path><path d="M 696.0 31 h 20 m -10 -10 v 20 m 10 -20 v 20"></path></g></svg>