<svg class="railroad-diagram" viewBox="0 0 557.0 111" xmlns="http://www.w3.org/2000/svg" xmlns:xlink="http://www.w3.org/1999/xlink">
<g transform="translate(.5 .5)">
<g>
<path d="M20 21v20m10 -20v20m-10 -10h20"></path></g><path d="M40 31h10"></path><g>
<path d="M50 31h0.0"></path><g>
<path d="M50.0 31h10.0"></path><path d="M497.0 31h10.0"></path><g class="terminal ">
<path d="M60.0 31h0.0"></path><path d="M148.0 31h0.0"></path><rect height="22" rx="10" ry="10" width="88.0" x="60.0" y="20"></rect><text x="104.0" y="35">JSON.SET</text></g><path d="M148.0 31h10"></path><path d="M158.0 31h10"></path><g class="non-terminal ">
<path d="M168.0 31h0.0"></path><path d="M213.5 31h0.0"></path><rect height="22" width="45.5" x="168.0" y="20"></rect><text x="190.75" y="35">key</text><title>key</title></g><path d="M213.5 31h10"></path><path d="M223.5 31h10"></path><g class="non-terminal ">
<path d="M233.5 31h0.0"></path><path d="M287.5 31h0.0"></path><rect height="22" width="54.0" x="233.5" y="20"></rect><text x="260.5" y="35">path</text><title>string</title></g><path d="M287.5 31h10"></path><path d="M297.5 31h10"></path><g class="non-terminal ">
<path d="M307.5 31h0.0"></path><path d="M370.0 31h0.0"></path><rect height="22" width="62.5" x="307.5" y="20"></rect><text x="338.75" y="35">value</text><title>string</title></g><path d="M370.0 31h10"></path><g>
<path d="M380.0 31h0.0"></path><path d="M497.0 31h0.0"></path><path d="M380.0 31h20"></path><g>
<path d="M400.0 31h77.0"></path></g><path d="M477.0 31h20"></path><path d="M380.0 31a10 10 0 0 1 10 10v29a10 10 0 0 0 10 10"></path><g>
<path d="M400.0 80h0.0"></path><path d="M477.0 80h0.0"></path><path d="M400.0 80a10 10 0 0 0 10 -10v-10a10 10 0 0 1 10 -10"></path><g class="terminal ">
<path d="M420.0 50h0.0"></path><path d="M457.0 50h0.0"></path><rect height="22" rx="10" ry="10" width="37.0" x="420.0" y="39"></rect><text x="438.5" y="54">NX</text></g><path d="M457.0 50a10 10 0 0 1 10 10v10a10 10 0 0 0 10 10"></path><path d="M400.0 80h20"></path><g class="terminal ">
<path d="M420.0 80h0.0"></path><path d="M457.0 80h0.0"></path><rect height="22" rx="10" ry="10" width="37.0" x="420.0" y="69"></rect><text x="438.5" y="84">XX</text></g><path d="M457.0 80h20"></path></g><path d="M477.0 80a10 10 0 0 0 10 -10v-29a10 10 0 0 1 10 -10"></path></g></g><path d="M507.0 31h0.0"></path></g><path d="M507.0 31h10"></path><path d="M 517.0 31 h 20 m -10 -10 v 20 m 10 -20 v 20"></path></g></svg>