<svg class="railroad-diagram" viewBox="0 0 350.0 62" xmlns="http://www.w3.org/2000/svg" xmlns:xlink="http://www.w3.org/1999/xlink">
<g transform="translate(.5 .5)">
<g>
<path d="M20 21v20m10 -20v20m-10 -10h20"></path></g><path d="M40 31h10"></path><g>
<path d="M50 31h0.0"></path><g>
<path d="M50.0 31h10.0"></path><path d="M290.0 31h10.0"></path><g class="terminal ">
<path d="M60.0 31h0.0"></path><path d="M207.5 31h0.0"></path><rect height="22" rx="10" ry="10" width="147.5" x="60.0" y="20"></rect><text x="133.75" y="35">LATENCY HISTORY</text></g><path d="M207.5 31h10"></path><path d="M217.5 31h10"></path><g class="non-terminal ">
<path d="M227.5 31h0.0"></path><path d="M290.0 31h0.0"></path><rect height="22" width="62.5" x="227.5" y="20"></rect><text x="258.75" y="35">event</text><title>string</title></g></g><path d="M300.0 31h0.0"></path></g><path d="M300.0 31h10"></path><path d="M 310.0 31 h 20 m -10 -10 v 20 m 10 -20 v 20"></path></g></svg>