<svg class="railroad-diagram" viewBox="0 0 482.5 91" xmlns="http://www.w3.org/2000/svg" xmlns:xlink="http://www.w3.org/1999/xlink">
<g transform="translate(.5 .5)">
<g>
<path d="M20 21v20m10 -20v20m-10 -10h20"></path></g><path d="M40 31h10"></path><g>
<path d="M50 31h0.0"></path><g>
<path d="M50.0 31h10.0"></path><path d="M422.5 31h10.0"></path><g class="terminal ">
<path d="M60.0 31h0.0"></path><path d="M207.5 31h0.0"></path><rect height="22" rx="10" ry="10" width="147.5" x="60.0" y="20"></rect><text x="133.75" y="35">COMMAND GETKEYS</text></g><path d="M207.5 31h10"></path><path d="M217.5 31h10"></path><g class="non-terminal ">
<path d="M227.5 31h0.0"></path><path d="M307.0 31h0.0"></path><rect height="22" width="79.5" x="227.5" y="20"></rect><text x="267.25" y="35">command</text><title>string</title></g><path d="M307.0 31h10"></path><g>
<path d="M317.0 31h0.0"></path><path d="M422.5 31h0.0"></path><path d="M317.0 31h20"></path><g>
<path d="M337.0 31h65.5"></path></g><path d="M402.5 31h20"></path><path d="M317.0 31a10 10 0 0 1 10 10v0a10 10 0 0 0 10 10"></path><g>
<path d="M337.0 51h0.0"></path><path d="M402.5 51h0.0"></path><path d="M337.0 51h10"></path><g class="non-terminal ">
<path d="M347.0 51h0.0"></path><path d="M392.5 51h0.0"></path><rect height="22" width="45.5" x="347.0" y="40"></rect><text x="369.75" y="55">arg</text><title>string</title></g><path d="M392.5 51h10"></path><path d="M347.0 51a10 10 0 0 0 -10 10v0a10 10 0 0 0 10 10"></path><g>
<path d="M347.0 71h45.5"></path></g><path d="M392.5 71a10 10 0 0 0 10 -10v0a10 10 0 0 0 -10 -10"></path></g><path d="M402.5 51a10 10 0 0 0 10 -10v0a10 10 0 0 1 10 -10"></path></g></g><path d="M432.5 31h0.0"></path></g><path d="M432.5 31h10"></path><path d="M 442.5 31 h 20 m -10 -10 v 20 m 10 -20 v 20"></path></g></svg>