<svg class="railroad-diagram" viewBox="0 0 748.5 130" xmlns="http://www.w3.org/2000/svg" xmlns:xlink="http://www.w3.org/1999/xlink">
<g transform="translate(.5 .5)">
<g>
<path d="M20 21v20m10 -20v20m-10 -10h20"></path></g><path d="M40 31h10"></path><g>
<path d="M50 31h0.0"></path><path d="M50.0 31h10"></path><g>
<path d="M60.0 31h10.0"></path><path d="M678.5 31h10.0"></path><g class="terminal ">
<path d="M70.0 31h0.0"></path><path d="M166.5 31h0.0"></path><rect height="22" rx="10" ry="10" width="96.5" x="70.0" y="20"></rect><text x="118.25" y="35">CF.INSERT</text></g><path d="M166.5 31h10"></path><path d="M176.5 31h10"></path><g class="non-terminal ">
<path d="M186.5 31h0.0"></path><path d="M232.0 31h0.0"></path><rect height="22" width="45.5" x="186.5" y="20"></rect><text x="209.25" y="35">key</text><title>key</title></g><path d="M232.0 31h10"></path><g>
<path d="M242.0 31h0.0"></path><path d="M478.0 31h0.0"></path><path d="M242.0 31h20"></path><g>
<path d="M262.0 31h196.0"></path></g><path d="M458.0 31h20"></path><path d="M242.0 31a10 10 0 0 1 10 10v0a10 10 0 0 0 10 10"></path><g>
<path d="M262.0 51h0.0"></path><path d="M458.0 51h0.0"></path><g class="terminal ">
<path d="M262.0 51h0.0"></path><path d="M350.0 51h0.0"></path><rect height="22" rx="10" ry="10" width="88.0" x="262.0" y="40"></rect><text x="306.0" y="55">CAPACITY</text></g><path d="M350.0 51h10"></path><path d="M360.0 51h10"></path><g class="non-terminal ">
<path d="M370.0 51h0.0"></path><path d="M458.0 51h0.0"></path><rect height="22" width="88.0" x="370.0" y="40"></rect><text x="414.0" y="55">capacity</text><title>integer</title></g></g><path d="M458.0 51a10 10 0 0 0 10 -10v0a10 10 0 0 1 10 -10"></path></g><g>
<path d="M478.0 31h0.0"></path><path d="M606.0 31h0.0"></path><path d="M478.0 31h20"></path><g>
<path d="M498.0 31h88.0"></path></g><path d="M586.0 31h20"></path><path d="M478.0 31a10 10 0 0 1 10 10v0a10 10 0 0 0 10 10"></path><g class="terminal ">
<path d="M498.0 51h0.0"></path><path d="M586.0 51h0.0"></path><rect height="22" rx="10" ry="10" width="88.0" x="498.0" y="40"></rect><text x="542.0" y="55">NOCREATE</text></g><path d="M586.0 51a10 10 0 0 0 10 -10v0a10 10 0 0 1 10 -10"></path></g><path d="M606.0 31h10"></path><g class="terminal ">
<path d="M616.0 31h0.0"></path><path d="M678.5 31h0.0"></path><rect height="22" rx="10" ry="10" width="62.5" x="616.0" y="20"></rect><text x="647.25" y="35">ITEMS</text></g></g><path d="M688.5 31a10 10 0 0 1 10 10v19a10 10 0 0 1 -10 10h-628.5a10 10 0 0 0 -10 10v0a10 10 0 0 0 10 10"></path><g>
<path d="M60.0 90h277.25"></path><path d="M411.25 90h277.25"></path><g>
<path d="M337.25 90h0.0"></path><path d="M411.25 90h0.0"></path><path d="M337.25 90h10"></path><g class="non-terminal ">
<path d="M347.25 90h0.0"></path><path d="M401.25 90h0.0"></path><rect height="22" width="54.0" x="347.25" y="79"></rect><text x="374.25" y="94">item</text><title>string</title></g><path d="M401.25 90h10"></path><path d="M347.25 90a10 10 0 0 0 -10 10v0a10 10 0 0 0 10 10"></path><g>
<path d="M347.25 110h54.0"></path></g><path d="M401.25 110a10 10 0 0 0 10 -10v0a10 10 0 0 0 -10 -10"></path></g></g><path d="M688.5 90h10"></path><path d="M698.5 90h0.0"></path></g><path d="M698.5 90h10"></path><path d="M 708.5 90 h 20 m -10 -10 v 20 m 10 -20 v 20"></path></g></svg>