<svg class="railroad-diagram" viewBox="0 0 619.5 141" xmlns="http://www.w3.org/2000/svg" xmlns:xlink="http://www.w3.org/1999/xlink">
<g transform="translate(.5 .5)">
<g>
<path d="M20 21v20m10 -20v20m-10 -10h20"></path></g><path d="M40 31h10"></path><g>
<path d="M50 31h0.0"></path><path d="M50.0 31h10"></path><g>
<path d="M60.0 31h10.0"></path><path d="M549.5 31h10.0"></path><g class="terminal ">
<path d="M70.0 31h0.0"></path><path d="M166.5 31h0.0"></path><rect height="22" rx="10" ry="10" width="96.5" x="70.0" y="20"></rect><text x="118.25" y="35">FT.SUGADD</text></g><path d="M166.5 31h10"></path><path d="M176.5 31h10"></path><g class="non-terminal ">
<path d="M186.5 31h0.0"></path><path d="M232.0 31h0.0"></path><rect height="22" width="45.5" x="186.5" y="20"></rect><text x="209.25" y="35">key</text><title>string</title></g><path d="M232.0 31h10"></path><path d="M242.0 31h10"></path><g class="non-terminal ">
<path d="M252.0 31h0.0"></path><path d="M323.0 31h0.0"></path><rect height="22" width="71.0" x="252.0" y="20"></rect><text x="287.5" y="35">string</text><title>string</title></g><path d="M323.0 31h10"></path><path d="M333.0 31h10"></path><g class="non-terminal ">
<path d="M343.0 31h0.0"></path><path d="M405.5 31h0.0"></path><rect height="22" width="62.5" x="343.0" y="20"></rect><text x="374.25" y="35">score</text><title>double</title></g><path d="M405.5 31h10"></path><g>
<path d="M415.5 31h0.0"></path><path d="M549.5 31h0.0"></path><path d="M415.5 31h20"></path><g>
<path d="M435.5 31h94.0"></path></g><path d="M529.5 31h20"></path><path d="M415.5 31a10 10 0 0 1 10 10v0a10 10 0 0 0 10 10"></path><g>
<path d="M435.5 51h0.0"></path><path d="M529.5 51h0.0"></path><path d="M435.5 51h20"></path><g class="terminal ">
<path d="M455.5 51h0.0"></path><path d="M509.5 51h0.0"></path><rect height="22" rx="10" ry="10" width="54.0" x="455.5" y="40"></rect><text x="482.5" y="55">INCR</text></g><path d="M509.5 51h20"></path></g><path d="M529.5 51a10 10 0 0 0 10 -10v0a10 10 0 0 1 10 -10"></path></g></g><path d="M559.5 31a10 10 0 0 1 10 10v19a10 10 0 0 1 -10 10h-499.5a10 10 0 0 0 -10 10v0a10 10 0 0 0 10 10"></path><g>
<path d="M60.0 90h140.25"></path><path d="M419.25 90h140.25"></path><g>
<path d="M200.25 90h0.0"></path><path d="M419.25 90h0.0"></path><path d="M200.25 90h20"></path><g>
<path d="M220.25 90h179.0"></path></g><path d="M399.25 90h20"></path><path d="M200.25 90a10 10 0 0 1 10 10v0a10 10 0 0 0 10 10"></path><g>
<path d="M220.25 110h0.0"></path><path d="M399.25 110h0.0"></path><g class="terminal ">
<path d="M220.25 110h0.0"></path><path d="M299.75 110h0.0"></path><rect height="22" rx="10" ry="10" width="79.5" x="220.25" y="99"></rect><text x="260.0" y="114">PAYLOAD</text></g><path d="M299.75 110h10"></path><path d="M309.75 110h10"></path><g class="non-terminal ">
<path d="M319.75 110h0.0"></path><path d="M399.25 110h0.0"></path><rect height="22" width="79.5" x="319.75" y="99"></rect><text x="359.5" y="114">payload</text><title>string</title></g></g><path d="M399.25 110a10 10 0 0 0 10 -10v0a10 10 0 0 1 10 -10"></path></g></g><path d="M559.5 90h10"></path><path d="M569.5 90h0.0"></path></g><path d="M569.5 90h10"></path><path d="M 579.5 90 h 20 m -10 -10 v 20 m 10 -20 v 20"></path></g></svg>