<svg class="railroad-diagram" viewBox="0 0 540.5 62" xmlns="http://www.w3.org/2000/svg" xmlns:xlink="http://www.w3.org/1999/xlink">
<g transform="translate(.5 .5)">
<g>
<path d="M20 21v20m10 -20v20m-10 -10h20"></path></g><path d="M40 31h10"></path><g>
<path d="M50 31h0.0"></path><g>
<path d="M50.0 31h10.0"></path><path d="M480.5 31h10.0"></path><g class="terminal ">
<path d="M60.0 31h0.0"></path><path d="M139.5 31h0.0"></path><rect height="22" rx="10" ry="10" width="79.5" x="60.0" y="20"></rect><text x="99.75" y="35">WAITAOF</text></g><path d="M139.5 31h10"></path><path d="M149.5 31h10"></path><g class="non-terminal ">
<path d="M159.5 31h0.0"></path><path d="M247.5 31h0.0"></path><rect height="22" width="88.0" x="159.5" y="20"></rect><text x="203.5" y="35">numlocal</text><title>integer</title></g><path d="M247.5 31h10"></path><path d="M257.5 31h10"></path><g class="non-terminal ">
<path d="M267.5 31h0.0"></path><path d="M381.0 31h0.0"></path><rect height="22" width="113.5" x="267.5" y="20"></rect><text x="324.25" y="35">numreplicas</text><title>integer</title></g><path d="M381.0 31h10"></path><path d="M391.0 31h10"></path><g class="non-terminal ">
<path d="M401.0 31h0.0"></path><path d="M480.5 31h0.0"></path><rect height="22" width="79.5" x="401.0" y="20"></rect><text x="440.75" y="35">timeout</text><title>integer</title></g></g><path d="M490.5 31h0.0"></path></g><path d="M490.5 31h10"></path><path d="M 500.5 31 h 20 m -10 -10 v 20 m 10 -20 v 20"></path></g></svg>