<svg class="railroad-diagram" viewBox="0 0 506.5 62" xmlns="http://www.w3.org/2000/svg" xmlns:xlink="http://www.w3.org/1999/xlink">
<g transform="translate(.5 .5)">
<g>
<path d="M20 21v20m10 -20v20m-10 -10h20"></path></g><path d="M40 31h10"></path><g>
<path d="M50 31h0.0"></path><g>
<path d="M50.0 31h10.0"></path><path d="M446.5 31h10.0"></path><g class="terminal ">
<path d="M60.0 31h0.0"></path><path d="M182.0 31h0.0"></path><rect height="22" rx="10" ry="10" width="122.0" x="60.0" y="20"></rect><text x="121.0" y="35">HINCRBYFLOAT</text></g><path d="M182.0 31h10"></path><path d="M192.0 31h10"></path><g class="non-terminal ">
<path d="M202.0 31h0.0"></path><path d="M247.5 31h0.0"></path><rect height="22" width="45.5" x="202.0" y="20"></rect><text x="224.75" y="35">key</text><title>key</title></g><path d="M247.5 31h10"></path><path d="M257.5 31h10"></path><g class="non-terminal ">
<path d="M267.5 31h0.0"></path><path d="M330.0 31h0.0"></path><rect height="22" width="62.5" x="267.5" y="20"></rect><text x="298.75" y="35">field</text><title>string</title></g><path d="M330.0 31h10"></path><path d="M340.0 31h10"></path><g class="non-terminal ">
<path d="M350.0 31h0.0"></path><path d="M446.5 31h0.0"></path><rect height="22" width="96.5" x="350.0" y="20"></rect><text x="398.25" y="35">increment</text><title>double</title></g></g><path d="M456.5 31h0.0"></path></g><path d="M456.5 31h10"></path><path d="M 466.5 31 h 20 m -10 -10 v 20 m 10 -20 v 20"></path></g></svg>