<svg class="railroad-diagram" viewBox="0 0 359.0 71" xmlns="http://www.w3.org/2000/svg" xmlns:xlink="http://www.w3.org/1999/xlink">
<g transform="translate(.5 .5)">
<g>
<path d="M20 21v20m10 -20v20m-10 -10h20"></path></g><path d="M40 31h10"></path><g>
<path d="M50 31h0.0"></path><g>
<path d="M50.0 31h10.0"></path><path d="M299.0 31h10.0"></path><g class="terminal ">
<path d="M60.0 31h0.0"></path><path d="M131.0 31h0.0"></path><rect height="22" rx="10" ry="10" width="71.0" x="60.0" y="20"></rect><text x="95.5" y="35">MSETNX</text></g><path d="M131.0 31h10"></path><path d="M141.0 31h10"></path><g>
<path d="M151.0 31h0.0"></path><path d="M299.0 31h0.0"></path><path d="M151.0 31h10"></path><g>
<path d="M161.0 31h0.0"></path><path d="M289.0 31h0.0"></path><g class="non-terminal ">
<path d="M161.0 31h0.0"></path><path d="M206.5 31h0.0"></path><rect height="22" width="45.5" x="161.0" y="20"></rect><text x="183.75" y="35">key</text><title>key</title></g><path d="M206.5 31h10"></path><path d="M216.5 31h10"></path><g class="non-terminal ">
<path d="M226.5 31h0.0"></path><path d="M289.0 31h0.0"></path><rect height="22" width="62.5" x="226.5" y="20"></rect><text x="257.75" y="35">value</text><title>string</title></g></g><path d="M289.0 31h10"></path><path d="M161.0 31a10 10 0 0 0 -10 10v0a10 10 0 0 0 10 10"></path><g>
<path d="M161.0 51h128.0"></path></g><path d="M289.0 51a10 10 0 0 0 10 -10v0a10 10 0 0 0 -10 -10"></path></g></g><path d="M309.0 31h0.0"></path></g><path d="M309.0 31h10"></path><path d="M 319.0 31 h 20 m -10 -10 v 20 m 10 -20 v 20"></path></g></svg>