<svg class="railroad-diagram" viewBox="0 0 789.5 378" xmlns="http://www.w3.org/2000/svg" xmlns:xlink="http://www.w3.org/1999/xlink">
<g transform="translate(.5 .5)">
<g>
<path d="M20 21v20m10 -20v20m-10 -10h20"></path></g><path d="M40 31h10"></path><g>
<path d="M50 31h0.0"></path><path d="M50.0 31h10"></path><g>
<path d="M60.0 31h10.0"></path><path d="M719.5 31h10.0"></path><g class="terminal ">
<path d="M70.0 31h0.0"></path><path d="M141.0 31h0.0"></path><rect height="22" rx="10" ry="10" width="71.0" x="70.0" y="20"></rect><text x="105.5" y="35">TS.ADD</text></g><path d="M141.0 31h10"></path><path d="M151.0 31h10"></path><g class="non-terminal ">
<path d="M161.0 31h0.0"></path><path d="M206.5 31h0.0"></path><rect height="22" width="45.5" x="161.0" y="20"></rect><text x="183.75" y="35">key</text><title>key</title></g><path d="M206.5 31h10"></path><path d="M216.5 31h10"></path><g class="non-terminal ">
<path d="M226.5 31h0.0"></path><path d="M323.0 31h0.0"></path><rect height="22" width="96.5" x="226.5" y="20"></rect><text x="274.75" y="35">timestamp</text><title>string</title></g><path d="M323.0 31h10"></path><path d="M333.0 31h10"></path><g class="non-terminal ">
<path d="M343.0 31h0.0"></path><path d="M405.5 31h0.0"></path><rect height="22" width="62.5" x="343.0" y="20"></rect><text x="374.25" y="35">value</text><title>double</title></g><path d="M405.5 31h10"></path><g>
<path d="M415.5 31h0.0"></path><path d="M719.5 31h0.0"></path><path d="M415.5 31h20"></path><g>
<path d="M435.5 31h264.0"></path></g><path d="M699.5 31h20"></path><path d="M415.5 31a10 10 0 0 1 10 10v0a10 10 0 0 0 10 10"></path><g>
<path d="M435.5 51h0.0"></path><path d="M699.5 51h0.0"></path><g class="terminal ">
<path d="M435.5 51h0.0"></path><path d="M532.0 51h0.0"></path><rect height="22" rx="10" ry="10" width="96.5" x="435.5" y="40"></rect><text x="483.75" y="55">RETENTION</text></g><path d="M532.0 51h10"></path><path d="M542.0 51h10"></path><g class="non-terminal ">
<path d="M552.0 51h0.0"></path><path d="M699.5 51h0.0"></path><rect height="22" width="147.5" x="552.0" y="40"></rect><text x="625.75" y="55">retentionPeriod</text><title>integer</title></g></g><path d="M699.5 51a10 10 0 0 0 10 -10v0a10 10 0 0 1 10 -10"></path></g></g><path d="M729.5 31a10 10 0 0 1 10 10v19a10 10 0 0 1 -10 10h-669.5a10 10 0 0 0 -10 10v0a10 10 0 0 0 10 10"></path><g>
<path d="M60.0 90h75.25"></path><path d="M654.25 90h75.25"></path><g>
<path d="M135.25 90h0.0"></path><path d="M435.25 90h0.0"></path><path d="M135.25 90h20"></path><g>
<path d="M155.25 90h260.0"></path></g><path d="M415.25 90h20"></path><path d="M135.25 90a10 10 0 0 1 10 10v29a10 10 0 0 0 10 10"></path><g>
<path d="M155.25 139h0.0"></path><path d="M415.25 139h0.0"></path><g class="terminal ">
<path d="M155.25 139h0.0"></path><path d="M243.25 139h0.0"></path><rect height="22" rx="10" ry="10" width="88.0" x="155.25" y="128"></rect><text x="199.25" y="143">ENCODING</text></g><path d="M243.25 139h10"></path><g>
<path d="M253.25 139h0.0"></path><path d="M415.25 139h0.0"></path><path d="M253.25 139a10 10 0 0 0 10 -10v-10a10 10 0 0 1 10 -10"></path><g class="terminal ">
<path d="M273.25 109h0.0"></path><path d="M395.25 109h0.0"></path><rect height="22" rx="10" ry="10" width="122.0" x="273.25" y="98"></rect><text x="334.25" y="113">UNCOMPRESSED</text></g><path d="M395.25 109a10 10 0 0 1 10 10v10a10 10 0 0 0 10 10"></path><path d="M253.25 139h20"></path><g class="terminal ">
<path d="M273.25 139h8.5"></path><path d="M386.75 139h8.5"></path><rect height="22" rx="10" ry="10" width="105.0" x="281.75" y="128"></rect><text x="334.25" y="143">COMPRESSED</text></g><path d="M395.25 139h20"></path></g></g><path d="M415.25 139a10 10 0 0 0 10 -10v-29a10 10 0 0 1 10 -10"></path></g><g>
<path d="M435.25 90h0.0"></path><path d="M654.25 90h0.0"></path><path d="M435.25 90h20"></path><g>
<path d="M455.25 90h179.0"></path></g><path d="M634.25 90h20"></path><path d="M435.25 90a10 10 0 0 1 10 10v0a10 10 0 0 0 10 10"></path><g>
<path d="M455.25 110h0.0"></path><path d="M634.25 110h0.0"></path><g class="terminal ">
<path d="M455.25 110h0.0"></path><path d="M560.25 110h0.0"></path><rect height="22" rx="10" ry="10" width="105.0" x="455.25" y="99"></rect><text x="507.75" y="114">CHUNK&#95;SIZE</text></g><path d="M560.25 110h10"></path><path d="M570.25 110h10"></path><g class="non-terminal ">
<path d="M580.25 110h0.0"></path><path d="M634.25 110h0.0"></path><rect height="22" width="54.0" x="580.25" y="99"></rect><text x="607.25" y="114">size</text><title>integer</title></g></g><path d="M634.25 110a10 10 0 0 0 10 -10v0a10 10 0 0 1 10 -10"></path></g></g><path d="M729.5 90a10 10 0 0 1 10 10v48a10 10 0 0 1 -10 10h-669.5a10 10 0 0 0 -10 10v0a10 10 0 0 0 10 10"></path><g>
<path d="M60.0 178h95.0"></path><path d="M634.5 178h95.0"></path><g>
<path d="M155.0 178h0.0"></path><path d="M429.5 178h0.0"></path><path d="M155.0 178h20"></path><g>
<path d="M175.0 178h234.5"></path></g><path d="M409.5 178h20"></path><path d="M155.0 178a10 10 0 0 1 10 10v89a10 10 0 0 0 10 10"></path><g>
<path d="M175.0 287h0.0"></path><path d="M409.5 287h0.0"></path><g class="terminal ">
<path d="M175.0 287h0.0"></path><path d="M297.0 287h0.0"></path><rect height="22" rx="10" ry="10" width="122.0" x="175.0" y="276"></rect><text x="236.0" y="291">ON&#95;DUPLICATE</text></g><path d="M297.0 287h10"></path><g>
<path d="M307.0 287h0.0"></path><path d="M409.5 287h0.0"></path><path d="M307.0 287a10 10 0 0 0 10 -10v-10a10 10 0 0 1 10 -10"></path><g class="terminal ">
<path d="M327.0 257h4.25"></path><path d="M385.25 257h4.25"></path><rect height="22" rx="10" ry="10" width="54.0" x="331.25" y="246"></rect><text x="358.25" y="261">LAST</text></g><path d="M389.5 257a10 10 0 0 1 10 10v10a10 10 0 0 0 10 10"></path><path d="M307.0 287a10 10 0 0 0 10 -10v-40a10 10 0 0 1 10 -10"></path><g class="terminal ">
<path d="M327.0 227h0.0"></path><path d="M389.5 227h0.0"></path><rect height="22" rx="10" ry="10" width="62.5" x="327.0" y="216"></rect><text x="358.25" y="231">FIRST</text></g><path d="M389.5 227a10 10 0 0 1 10 10v40a10 10 0 0 0 10 10"></path><path d="M307.0 287a10 10 0 0 0 10 -10v-70a10 10 0 0 1 10 -10"></path><g class="terminal ">
<path d="M327.0 197h0.0"></path><path d="M389.5 197h0.0"></path><rect height="22" rx="10" ry="10" width="62.5" x="327.0" y="186"></rect><text x="358.25" y="201">BLOCK</text></g><path d="M389.5 197a10 10 0 0 1 10 10v70a10 10 0 0 0 10 10"></path><path d="M307.0 287h20"></path><g class="terminal ">
<path d="M327.0 287h8.5"></path><path d="M381.0 287h8.5"></path><rect height="22" rx="10" ry="10" width="45.5" x="335.5" y="276"></rect><text x="358.25" y="291">MIN</text></g><path d="M389.5 287h20"></path><path d="M307.0 287a10 10 0 0 1 10 10v10a10 10 0 0 0 10 10"></path><g class="terminal ">
<path d="M327.0 317h8.5"></path><path d="M381.0 317h8.5"></path><rect height="22" rx="10" ry="10" width="45.5" x="335.5" y="306"></rect><text x="358.25" y="321">MAX</text></g><path d="M389.5 317a10 10 0 0 0 10 -10v-10a10 10 0 0 1 10 -10"></path><path d="M307.0 287a10 10 0 0 1 10 10v40a10 10 0 0 0 10 10"></path><g class="terminal ">
<path d="M327.0 347h8.5"></path><path d="M381.0 347h8.5"></path><rect height="22" rx="10" ry="10" width="45.5" x="335.5" y="336"></rect><text x="358.25" y="351">SUM</text></g><path d="M389.5 347a10 10 0 0 0 10 -10v-40a10 10 0 0 1 10 -10"></path></g></g><path d="M409.5 287a10 10 0 0 0 10 -10v-89a10 10 0 0 1 10 -10"></path></g><g>
<path d="M429.5 178h0.0"></path><path d="M634.5 178h0.0"></path><path d="M429.5 178h20"></path><g>
<path d="M449.5 178h165.0"></path></g><path d="M614.5 178h20"></path><path d="M429.5 178a10 10 0 0 1 10 10v0a10 10 0 0 0 10 10"></path><g>
<path d="M449.5 198h0.0"></path><path d="M614.5 198h0.0"></path><path d="M449.5 198h10"></path><g>
<path d="M459.5 198h0.0"></path><path d="M604.5 198h0.0"></path><g class="non-terminal ">
<path d="M459.5 198h0.0"></path><path d="M522.0 198h0.0"></path><rect height="22" width="62.5" x="459.5" y="187"></rect><text x="490.75" y="202">label</text><title>string</title></g><path d="M522.0 198h10"></path><path d="M532.0 198h10"></path><g class="non-terminal ">
<path d="M542.0 198h0.0"></path><path d="M604.5 198h0.0"></path><rect height="22" width="62.5" x="542.0" y="187"></rect><text x="573.25" y="202">value</text><title>string</title></g></g><path d="M604.5 198h10"></path><path d="M459.5 198a10 10 0 0 0 -10 10v0a10 10 0 0 0 10 10"></path><g>
<path d="M459.5 218h145.0"></path></g><path d="M604.5 218a10 10 0 0 0 10 -10v0a10 10 0 0 0 -10 -10"></path></g><path d="M614.5 198a10 10 0 0 0 10 -10v0a10 10 0 0 1 10 -10"></path></g></g><path d="M729.5 178h10"></path><path d="M739.5 178h0.0"></path></g><path d="M739.5 178h10"></path><path d="M 749.5 178 h 20 m -10 -10 v 20 m 10 -20 v 20"></path></g></svg>