<svg class="railroad-diagram" viewBox="0 0 716.0 82" xmlns="http://www.w3.org/2000/svg" xmlns:xlink="http://www.w3.org/1999/xlink">
<g transform="translate(.5 .5)">
<g>
<path d="M20 21v20m10 -20v20m-10 -10h20"></path></g><path d="M40 31h10"></path><g>
<path d="M50 31h0.0"></path><g>
<path d="M50.0 31h10.0"></path><path d="M656.0 31h10.0"></path><g class="terminal ">
<path d="M60.0 31h0.0"></path><path d="M173.5 31h0.0"></path><rect height="22" rx="10" ry="10" width="113.5" x="60.0" y="20"></rect><text x="116.75" y="35">ZRANGEBYLEX</text></g><path d="M173.5 31h10"></path><path d="M183.5 31h10"></path><g class="non-terminal ">
<path d="M193.5 31h0.0"></path><path d="M239.0 31h0.0"></path><rect height="22" width="45.5" x="193.5" y="20"></rect><text x="216.25" y="35">key</text><title>key</title></g><path d="M239.0 31h10"></path><path d="M249.0 31h10"></path><g class="non-terminal ">
<path d="M259.0 31h0.0"></path><path d="M304.5 31h0.0"></path><rect height="22" width="45.5" x="259.0" y="20"></rect><text x="281.75" y="35">min</text><title>string</title></g><path d="M304.5 31h10"></path><path d="M314.5 31h10"></path><g class="non-terminal ">
<path d="M324.5 31h0.0"></path><path d="M370.0 31h0.0"></path><rect height="22" width="45.5" x="324.5" y="20"></rect><text x="347.25" y="35">max</text><title>string</title></g><path d="M370.0 31h10"></path><g>
<path d="M380.0 31h0.0"></path><path d="M656.0 31h0.0"></path><path d="M380.0 31h20"></path><g>
<path d="M400.0 31h236.0"></path></g><path d="M636.0 31h20"></path><path d="M380.0 31a10 10 0 0 1 10 10v0a10 10 0 0 0 10 10"></path><g>
<path d="M400.0 51h0.0"></path><path d="M636.0 51h0.0"></path><g class="terminal ">
<path d="M400.0 51h0.0"></path><path d="M462.5 51h0.0"></path><rect height="22" rx="10" ry="10" width="62.5" x="400.0" y="40"></rect><text x="431.25" y="55">LIMIT</text></g><path d="M462.5 51h10"></path><path d="M472.5 51h10"></path><g>
<path d="M482.5 51h0.0"></path><path d="M636.0 51h0.0"></path><g class="non-terminal ">
<path d="M482.5 51h0.0"></path><path d="M553.5 51h0.0"></path><rect height="22" width="71.0" x="482.5" y="40"></rect><text x="518.0" y="55">offset</text><title>integer</title></g><path d="M553.5 51h10"></path><path d="M563.5 51h10"></path><g class="non-terminal ">
<path d="M573.5 51h0.0"></path><path d="M636.0 51h0.0"></path><rect height="22" width="62.5" x="573.5" y="40"></rect><text x="604.75" y="55">count</text><title>integer</title></g></g></g><path d="M636.0 51a10 10 0 0 0 10 -10v0a10 10 0 0 1 10 -10"></path></g></g><path d="M666.0 31h0.0"></path></g><path d="M666.0 31h10"></path><path d="M 676.0 31 h 20 m -10 -10 v 20 m 10 -20 v 20"></path></g></svg>