<svg class="railroad-diagram" viewBox="0 0 492.5 71" xmlns="http://www.w3.org/2000/svg" xmlns:xlink="http://www.w3.org/1999/xlink">
<g transform="translate(.5 .5)">
<g>
<path d="M20 21v20m10 -20v20m-10 -10h20"></path></g><path d="M40 31h10"></path><g>
<path d="M50 31h0.0"></path><g>
<path d="M50.0 31h10.0"></path><path d="M432.5 31h10.0"></path><g class="terminal ">
<path d="M60.0 31h0.0"></path><path d="M148.0 31h0.0"></path><rect height="22" rx="10" ry="10" width="88.0" x="60.0" y="20"></rect><text x="104.0" y="35">HPERSIST</text></g><path d="M148.0 31h10"></path><path d="M158.0 31h10"></path><g class="non-terminal ">
<path d="M168.0 31h0.0"></path><path d="M213.5 31h0.0"></path><rect height="22" width="45.5" x="168.0" y="20"></rect><text x="190.75" y="35">key</text><title>key</title></g><path d="M213.5 31h10"></path><path d="M223.5 31h10"></path><g class="non-terminal ">
<path d="M233.5 31h0.0"></path><path d="M330.0 31h0.0"></path><rect height="22" width="96.5" x="233.5" y="20"></rect><text x="281.75" y="35">numfields</text><title>integer</title></g><path d="M330.0 31h10"></path><path d="M340.0 31h10"></path><g>
<path d="M350.0 31h0.0"></path><path d="M432.5 31h0.0"></path><path d="M350.0 31h10"></path><g class="non-terminal ">
<path d="M360.0 31h0.0"></path><path d="M422.5 31h0.0"></path><rect height="22" width="62.5" x="360.0" y="20"></rect><text x="391.25" y="35">field</text><title>string</title></g><path d="M422.5 31h10"></path><path d="M360.0 31a10 10 0 0 0 -10 10v0a10 10 0 0 0 10 10"></path><g>
<path d="M360.0 51h62.5"></path></g><path d="M422.5 51a10 10 0 0 0 10 -10v0a10 10 0 0 0 -10 -10"></path></g></g><path d="M442.5 31h0.0"></path></g><path d="M442.5 31h10"></path><path d="M 452.5 31 h 20 m -10 -10 v 20 m 10 -20 v 20"></path></g></svg>