<svg viewBox="0 0 291 317" xmlns="http://www.w3.org/2000/svg" fill-rule="evenodd" clip-rule="evenodd" stroke-linejoin="round" stroke-miterlimit="2"><g fill="#161f31"><path d="M167.654 0h2.078v2.078h-2.078zM152.997 0h2.187v2.078h-2.187V0zm-15.306 0h2.187v2.078h-2.187V0zm-15.307 0h2.187v2.078h-2.187V0zm-15.306 0h2.187v2.078h-2.187V0zM91.772 0h2.187v2.078h-2.187V0zM76.466 0h2.187v2.078h-2.187V0zM61.16 0h2.186v2.078H61.16V0zM45.853 0h2.187v2.078h-2.187V0zM30.548 0h2.186v2.078h-2.186V0zM15.242 0h2.186v2.078h-2.186V0zM0 0h2.078v2.078H0zM0 152.997h2.078v2.187H0v-2.187zm0-15.307h2.078v2.187H0v-2.187zm0-15.306h2.078v2.187H0v-2.187zm0-15.306h2.078v2.187H0v-2.187zm0-15.305h2.078v2.186H0v-2.186zm0-15.307h2.078v2.186H0v-2.186zm0-15.307h2.078v2.187H0v-2.187zm0-15.305h2.078v2.187H0v-2.187zm0-15.306h2.078v2.186H0v-2.186zm0-15.307h2.078v2.187H0v-2.187zM0 168.346h2.078v2.079H0zM15.242 168.346h2.186v2.079h-2.186v-2.079zm15.305 0h2.187v2.079h-2.187v-2.079zm15.306 0h2.187v2.079h-2.187v-2.079zm15.307 0h2.186v2.079H61.16v-2.079zm15.306 0h2.187v2.079h-2.187v-2.079zm15.306 0h2.187v2.079h-2.187v-2.079zm15.307 0h2.186v2.079h-2.186v-2.079zm15.305 0h2.187v2.079h-2.187v-2.079zm15.307 0h2.186v2.079h-2.186v-2.079zm15.306 0h2.187v2.079h-2.187v-2.079zM167.654 168.346h2.078v2.079h-2.078zM167.654 152.997h2.078v2.187h-2.078v-2.187zm0-15.306h2.078v2.186h-2.078v-2.186zm0-15.307h2.078v2.187h-2.078v-2.187zm0-15.305h2.078v2.186h-2.078v-2.186zm0-15.307h2.078v2.187h-2.078v-2.187zm0-15.306h2.078v2.187h-2.078v-2.187zm0-15.306h2.078v2.186h-2.078V61.16zm0-15.307h2.078v2.187h-2.078v-2.187zm0-15.305h2.078v2.186h-2.078v-2.186zm0-15.307h2.078v2.187h-2.078v-2.187z"/><path d="M167.654 168.346h2.078v2.079h-2.078zM182.202 168.346h2.155v2.079h-2.155v-2.079zm15.078 0h2.155v2.079h-2.155v-2.079zm15.08 0h2.154v2.079h-2.154v-2.079zm15.078 0h2.155v2.079h-2.155v-2.079zm15.08 0h2.153v2.079h-2.153v-2.079zm15.078 0h2.155v2.079h-2.155v-2.079zm15.08 0h2.153v2.079h-2.153v-2.079zm15.078 0h2.155v2.079h-2.155v-2.079zm15.079 0h2.155v2.079h-2.155v-2.079zm15.08 0h2.153v2.079h-2.153v-2.079zM167.654 319.297h2.078v2.154h-2.078v-2.154zm0-15.078h2.078v2.154h-2.078v-2.154zm0-15.079h2.078v2.154h-2.078v-2.154zm0-15.079h2.078v2.155h-2.078v-2.155zm0-15.079h2.078v2.153h-2.078v-2.153zm0-15.08h2.078v2.155h-2.078v-2.155zm0-15.078h2.078v2.153h-2.078v-2.153zm0-15.08h2.078v2.155h-2.078v-2.155zm0-15.078h2.078v2.154h-2.078v-2.154zm0-15.079h2.078v2.154h-2.078v-2.154zM15.934 16.627h2.078v2.078h-2.078zM30.482 16.627h2.162v2.078h-2.162v-2.078zm15.131 0h2.161v2.078h-2.161v-2.078zm15.13 0h2.161v2.078h-2.161v-2.078zm15.131 0h2.161v2.078h-2.161v-2.078zm15.13 0h2.161v2.078h-2.161v-2.078zm15.13 0h2.162v2.078h-2.162v-2.078zm15.13 0h2.162v2.078h-2.162v-2.078zm15.131 0h2.161v2.078h-2.161v-2.078zM151.027 16.627h2.078v2.078h-2.078zM151.027 137.088h2.078v2.161h-2.078v-2.161zm0-15.131h2.078v2.162h-2.078v-2.162zm0-15.13h2.078v2.162h-2.078v-2.162zm0-15.13h2.078v2.161h-2.078v-2.161zm0-15.13h2.078v2.161h-2.078v-2.161zm0-15.131h2.078v2.161h-2.078v-2.161zm0-15.13h2.078v2.161h-2.078v-2.161zm0-15.131h2.078v2.162h-2.078v-2.162zM151.027 151.72h2.078v2.078h-2.078zM30.482 151.72h2.162v2.078h-2.162v-2.078zm15.131 0h2.161v2.078h-2.161v-2.078zm15.13 0h2.161v2.078h-2.161v-2.078zm15.131 0h2.161v2.078h-2.161v-2.078zm15.13 0h2.161v2.078h-2.161v-2.078zm15.13 0h2.162v2.078h-2.162v-2.078zm15.13 0h2.161v2.078h-2.161v-2.078zm15.131 0h2.161v2.078h-2.161v-2.078zM15.934 151.72h2.078v2.078h-2.078zM15.934 137.088h2.078v2.161h-2.078v-2.161zm0-15.129h2.078v2.16h-2.078v-2.16zm0-15.131h2.078v2.161h-2.078v-2.161zm0-15.132h2.078v2.162h-2.078v-2.162zm0-15.129h2.078v2.161h-2.078v-2.161zm0-15.131h2.078v2.162h-2.078v-2.162zm0-15.13h2.078v2.161h-2.078v-2.161zm0-15.131h2.078v2.162h-2.078v-2.162zM182.895 183.587h2.078v2.079h-2.078zM197.443 183.587h2.161v2.079h-2.161v-2.079zm15.131 0h2.16v2.079h-2.16v-2.079zm15.13 0h2.161v2.079h-2.161v-2.079zm15.13 0h2.162v2.079h-2.162v-2.079zm15.13 0h2.162v2.079h-2.162v-2.079zm15.131 0h2.161v2.079h-2.161v-2.079zm15.13 0h2.161v2.079h-2.161v-2.079zm15.131 0h2.161v2.079h-2.161v-2.079zM182.895 304.049h2.078v2.162h-2.078v-2.162zm0-15.13h2.078v2.161h-2.078v-2.161zm0-15.131h2.078v2.162h-2.078v-2.162zm0-15.13h2.078v2.161h-2.078v-2.161zm0-15.13h2.078v2.161h-2.078v-2.161zm0-15.131h2.078v2.161h-2.078v-2.161zm0-15.13h2.078v2.161h-2.078v-2.161zm0-15.131h2.078v2.162h-2.078v-2.162zM31.175 31.868h2.078v2.078h-2.078zM46.417 31.868h2.136v2.078h-2.136v-2.078zm14.952 0h2.136v2.078h-2.136v-2.078zm14.952 0h2.136v2.078h-2.136v-2.078zm14.954 0h2.136v2.078h-2.136v-2.078zm14.951 0h2.136v2.078h-2.136v-2.078zm14.953 0h2.136v2.078h-2.136v-2.078zM135.785 31.868h2.079v2.078h-2.079zM135.785 121.872h2.079v2.136h-2.079v-2.136zm0-14.952h2.079v2.136h-2.079v-2.136zm0-14.953h2.079v2.136h-2.079v-2.136zm0-14.953h2.079v2.136h-2.079v-2.136zm0-14.952h2.079v2.136h-2.079v-2.136zm0-14.953h2.079v2.137h-2.079v-2.137zM135.785 136.479h2.079v2.078h-2.079zM46.417 136.479h2.136v2.078h-2.136v-2.078zm14.952 0h2.136v2.078h-2.136v-2.078zm14.952 0h2.136v2.078h-2.136v-2.078zm14.954 0h2.136v2.078h-2.136v-2.078zm14.951 0h2.136v2.078h-2.136v-2.078zm14.953 0h2.136v2.078h-2.136v-2.078zM31.175 136.479h2.078v2.078h-2.078zM31.175 121.872h2.079v2.136h-2.079v-2.136zm0-14.952h2.079v2.136h-2.079v-2.136zm0-14.953h2.079v2.136h-2.079v-2.136zm0-14.953h2.079v2.136h-2.079v-2.136zm0-14.952h2.079v2.136h-2.079v-2.136zm0-14.953h2.079v2.137h-2.079v-2.137zM198.136 198.829h2.078v2.078h-2.078zM212.684 198.829h2.137v2.078h-2.137v-2.078zm14.953 0h2.136v2.078h-2.136v-2.078zm14.952 0h2.136v2.078h-2.136v-2.078zm14.953 0h2.137v2.078h-2.137v-2.078zm14.953 0h2.136v2.078h-2.136v-2.078zm14.952 0h2.136v2.078h-2.136v-2.078zM212.684 303.439h2.137v2.079h-2.137v-2.079zm14.953 0h2.136v2.079h-2.136v-2.079zm14.952 0h2.136v2.079h-2.136v-2.079zm14.953 0h2.137v2.079h-2.137v-2.079zm14.953 0h2.136v2.079h-2.136v-2.079zm14.952 0h2.136v2.079h-2.136v-2.079zM198.136 303.439h2.078v2.078h-2.078zM198.136 288.833h2.078v2.136h-2.078v-2.136zm0-14.952h2.078v2.135h-2.078v-2.135zm0-14.953h2.078v2.137h-2.078v-2.137zm0-14.953h2.078v2.136h-2.078v-2.136zm0-14.952h2.078v2.135h-2.078v-2.135zm0-14.953h2.078v2.136h-2.078v-2.136zM47.109 47.802h2.078v2.078h-2.078zM61.658 47.802h2.11v2.078h-2.11v-2.078zm14.769 0h2.109v2.078h-2.109v-2.078zm14.768 0h2.11v2.078h-2.11v-2.078zm14.768 0h2.111v2.078h-2.111v-2.078zM119.852 47.802h2.078v2.078h-2.078zM119.852 105.963h2.078v2.111h-2.078v-2.111zm0-14.769h2.078v2.111h-2.078v-2.111zm0-14.767h2.078v2.109h-2.078v-2.109zm0-14.769h2.078v2.11h-2.078v-2.11zM119.852 120.544h2.078v2.079h-2.078zM61.658 120.544h2.11v2.079h-2.11v-2.079zm14.768 0h2.111v2.079h-2.111v-2.079zm14.77 0h2.109v2.079h-2.109v-2.079zm14.767 0h2.111v2.079h-2.111v-2.079zM47.109 120.544h2.078v2.079h-2.078zM47.109 105.963h2.079v2.111h-2.079v-2.111zm0-14.767h2.079v2.109h-2.079v-2.109zm0-14.769h2.079v2.11h-2.079v-2.11zm0-14.769h2.079v2.11h-2.079v-2.11zM214.07 214.763h2.078v2.078h-2.078zM228.619 214.763h2.11v2.078h-2.11v-2.078zm14.769 0h2.109v2.078h-2.109v-2.078zm14.767 0h2.111v2.078h-2.111v-2.078zm14.77 0h2.11v2.078h-2.11v-2.078zM286.812 214.763h2.079v2.078h-2.079zM286.812 272.924h2.079v2.111h-2.079v-2.111zm0-14.769h2.079v2.111h-2.079v-2.111zm0-14.768h2.079v2.11h-2.079v-2.11zm0-14.769h2.079v2.111h-2.079v-2.111zM286.812 287.505h2.079v2.078h-2.079zM228.619 287.505h2.11v2.079h-2.11v-2.079zm14.769 0h2.11v2.079h-2.11v-2.079zm14.769 0h2.109v2.079h-2.109v-2.079zm14.768 0h2.11v2.079h-2.11v-2.079zM214.07 287.505h2.078v2.078h-2.078zM214.07 272.924h2.078v2.111h-2.078v-2.111zm0-14.767h2.078v2.109h-2.078v-2.109zm0-14.77h2.078v2.111h-2.078v-2.111zm0-14.769h2.078v2.111h-2.078v-2.111zM62.35 63.043h2.078v2.079H62.35zM76.899 63.043h2.078v2.079h-2.078v-2.079zm14.547 0h2.08v2.079h-2.08v-2.079zM105.303 63.043h2.079v2.079h-2.079zM105.303 91.446h2.079v2.08h-2.079v-2.08zm0-14.547h2.079v2.078h-2.079v-2.078zM105.303 105.303h2.079v2.078h-2.079zM76.899 105.303h2.079v2.078h-2.079v-2.078zm14.549 0h2.078v2.078h-2.078v-2.078zM62.35 105.303h2.078v2.078H62.35zM62.35 91.448h2.079v2.078H62.35v-2.078zm0-14.549h2.079v2.079H62.35v-2.079zM229.311 229.312h2.078v2.078h-2.078zM243.167 229.312h2.078v2.078h-2.078v-2.078zm14.547 0h2.08v2.078h-2.08v-2.078zM271.571 229.312h2.078v2.078h-2.078zM271.571 257.715h2.078v2.079h-2.078v-2.079zm0-14.548h2.078v2.078h-2.078v-2.078zM271.571 272.264h2.078v2.078h-2.078zM243.167 272.264h2.079v2.078h-2.079v-2.078zm14.549 0h2.078v2.078h-2.078v-2.078zM229.311 272.264h2.078v2.078h-2.078zM229.311 257.716h2.078v2.078h-2.078v-2.078zm0-14.549h2.078v2.079h-2.078v-2.079z"/></g></svg>