<svg width="247" height="247" viewBox="0 0 247 247" fill="none" xmlns="http://www.w3.org/2000/svg">
<mask id="mask0_9_1552" style="mask-type:alpha" maskUnits="userSpaceOnUse" x="0" y="0" width="247" height="247">
<path d="M247 0L1.52588e-05 -1.07967e-05L247 247" fill="white"/>
</mask>
<g mask="url(#mask0_9_1552)">
<path d="M356.308 -56.7382L240.794 260.634" stroke="rgba(15, 23, 42, .5)" />
</g>
<mask id="mask1_9_1552" style="mask-type:alpha" maskUnits="userSpaceOnUse" x="0" y="0" width="247" height="247">
<path d="M247 0L1.52588e-05 -1.07967e-05L247 247" fill="white"/>
</mask>
<g mask="url(#mask1_9_1552)">
<path d="M347.61 -56.738L232.097 260.634" stroke="rgba(15, 23, 42, .5)" />
</g>
<mask id="mask2_9_1552" style="mask-type:alpha" maskUnits="userSpaceOnUse" x="0" y="0" width="247" height="247">
<path d="M247 0L1.52588e-05 -1.07967e-05L247 247" fill="white"/>
</mask>
<g mask="url(#mask2_9_1552)">
<path d="M338.913 -56.738L223.4 260.634" stroke="rgba(15, 23, 42, .5)" />
</g>
<mask id="mask3_9_1552" style="mask-type:alpha" maskUnits="userSpaceOnUse" x="0" y="0" width="247" height="247">
<path d="M247 0L1.52588e-05 -1.07967e-05L247 247" fill="white"/>
</mask>
<g mask="url(#mask3_9_1552)">
<path d="M330.216 -56.738L214.703 260.634" stroke="rgba(15, 23, 42, .5)" />
</g>
<mask id="mask4_9_1552" style="mask-type:alpha" maskUnits="userSpaceOnUse" x="0" y="0" width="247" height="247">
<path d="M247 0L1.52588e-05 -1.07967e-05L247 247" fill="white"/>
</mask>
<g mask="url(#mask4_9_1552)">
<path d="M321.519 -56.738L206.005 260.634" stroke="rgba(15, 23, 42, .5)" />
</g>
<mask id="mask5_9_1552" style="mask-type:alpha" maskUnits="userSpaceOnUse" x="0" y="0" width="247" height="247">
<path d="M247 0L1.52588e-05 -1.07967e-05L247 247" fill="white"/>
</mask>
<g mask="url(#mask5_9_1552)">
<path d="M312.822 -56.738L197.308 260.634" stroke="rgba(15, 23, 42, .5)" />
</g>
<mask id="mask6_9_1552" style="mask-type:alpha" maskUnits="userSpaceOnUse" x="0" y="0" width="247" height="247">
<path d="M247 0L1.52588e-05 -1.07967e-05L247 247" fill="white"/>
</mask>
<g mask="url(#mask6_9_1552)">
<path d="M304.125 -56.738L188.611 260.634" stroke="rgba(15, 23, 42, .5)" />
</g>
<mask id="mask7_9_1552" style="mask-type:alpha" maskUnits="userSpaceOnUse" x="0" y="0" width="247" height="247">
<path d="M247 0L1.52588e-05 -1.07967e-05L247 247" fill="white"/>
</mask>
<g mask="url(#mask7_9_1552)">
<path d="M295.428 -56.738L179.914 260.634" stroke="rgba(15, 23, 42, .5)" />
</g>
<mask id="mask8_9_1552" style="mask-type:alpha" maskUnits="userSpaceOnUse" x="0" y="0" width="247" height="247">
<path d="M247 0L1.52588e-05 -1.07967e-05L247 247" fill="white"/>
</mask>
<g mask="url(#mask8_9_1552)">
<path d="M286.73 -56.738L171.217 260.634" stroke="rgba(15, 23, 42, .5)" />
</g>
<mask id="mask9_9_1552" style="mask-type:alpha" maskUnits="userSpaceOnUse" x="0" y="0" width="247" height="247">
<path d="M247 0L1.52588e-05 -1.07967e-05L247 247" fill="white"/>
</mask>
<g mask="url(#mask9_9_1552)">
<path d="M278.033 -56.738L162.52 260.634" stroke="rgba(15, 23, 42, .5)" />
</g>
<mask id="mask10_9_1552" style="mask-type:alpha" maskUnits="userSpaceOnUse" x="0" y="0" width="247" height="247">
<path d="M247 0L1.52588e-05 -1.07967e-05L247 247" fill="white"/>
</mask>
<g mask="url(#mask10_9_1552)">
<path d="M269.336 -56.738L153.823 260.634" stroke="rgba(15, 23, 42, .5)" />
</g>
<mask id="mask11_9_1552" style="mask-type:alpha" maskUnits="userSpaceOnUse" x="0" y="0" width="247" height="247">
<path d="M247 0L1.52588e-05 -1.07967e-05L247 247" fill="white"/>
</mask>
<g mask="url(#mask11_9_1552)">
<path d="M260.639 -56.738L145.125 260.634" stroke="rgba(15, 23, 42, .5)" />
</g>
<mask id="mask12_9_1552" style="mask-type:alpha" maskUnits="userSpaceOnUse" x="0" y="0" width="247" height="247">
<path d="M247 0L1.52588e-05 -1.07967e-05L247 247" fill="white"/>
</mask>
<g mask="url(#mask12_9_1552)">
<path d="M251.942 -56.738L136.428 260.634" stroke="rgba(15, 23, 42, .5)" />
</g>
<mask id="mask13_9_1552" style="mask-type:alpha" maskUnits="userSpaceOnUse" x="0" y="0" width="247" height="247">
<path d="M247 0L1.52588e-05 -1.07967e-05L247 247" fill="white"/>
</mask>
<g mask="url(#mask13_9_1552)">
<path d="M243.245 -56.7382L127.731 260.634" stroke="rgba(15, 23, 42, .5)" />
</g>
<mask id="mask14_9_1552" style="mask-type:alpha" maskUnits="userSpaceOnUse" x="0" y="0" width="247" height="247">
<path d="M247 0L1.52588e-05 -1.07967e-05L247 247" fill="white"/>
</mask>
<g mask="url(#mask14_9_1552)">
<path d="M234.548 -56.7382L119.034 260.634" stroke="rgba(15, 23, 42, .5)" />
</g>
<mask id="mask15_9_1552" style="mask-type:alpha" maskUnits="userSpaceOnUse" x="0" y="0" width="247" height="247">
<path d="M247 0L1.52588e-05 -1.07967e-05L247 247" fill="white"/>
</mask>
<g mask="url(#mask15_9_1552)">
<path d="M225.85 -56.7382L110.337 260.634" stroke="rgba(15, 23, 42, .5)" />
</g>
<mask id="mask16_9_1552" style="mask-type:alpha" maskUnits="userSpaceOnUse" x="0" y="0" width="247" height="247">
<path d="M247 0L1.52588e-05 -1.07967e-05L247 247" fill="white"/>
</mask>
<g mask="url(#mask16_9_1552)">
<path d="M217.153 -56.7382L101.639 260.634" stroke="rgba(15, 23, 42, .5)" />
</g>
<mask id="mask17_9_1552" style="mask-type:alpha" maskUnits="userSpaceOnUse" x="0" y="0" width="247" height="247">
<path d="M247 0L1.52588e-05 -1.07967e-05L247 247" fill="white"/>
</mask>
<g mask="url(#mask17_9_1552)">
<path d="M208.456 -56.7382L92.9425 260.634" stroke="rgba(15, 23, 42, .5)" />
</g>
<mask id="mask18_9_1552" style="mask-type:alpha" maskUnits="userSpaceOnUse" x="0" y="0" width="247" height="247">
<path d="M247 0L1.52588e-05 -1.07967e-05L247 247" fill="white"/>
</mask>
<g mask="url(#mask18_9_1552)">
<path d="M199.759 -56.738L84.2453 260.634" stroke="rgba(15, 23, 42, .5)" />
</g>
<mask id="mask19_9_1552" style="mask-type:alpha" maskUnits="userSpaceOnUse" x="0" y="0" width="247" height="247">
<path d="M247 0L1.52588e-05 -1.07967e-05L247 247" fill="white"/>
</mask>
<g mask="url(#mask19_9_1552)">
<path d="M191.062 -56.738L75.5481 260.634" stroke="rgba(15, 23, 42, .5)" />
</g>
<mask id="mask20_9_1552" style="mask-type:alpha" maskUnits="userSpaceOnUse" x="0" y="0" width="247" height="247">
<path d="M247 0L1.52588e-05 -1.07967e-05L247 247" fill="white"/>
</mask>
<g mask="url(#mask20_9_1552)">
<path d="M182.365 -56.738L66.8508 260.634" stroke="rgba(15, 23, 42, .5)" />
</g>
<mask id="mask21_9_1552" style="mask-type:alpha" maskUnits="userSpaceOnUse" x="0" y="0" width="247" height="247">
<path d="M247 0L1.52588e-05 -1.07967e-05L247 247" fill="white"/>
</mask>
<g mask="url(#mask21_9_1552)">
<path d="M173.667 -56.738L58.1538 260.634" stroke="rgba(15, 23, 42, .5)" />
</g>
<mask id="mask22_9_1552" style="mask-type:alpha" maskUnits="userSpaceOnUse" x="0" y="0" width="247" height="247">
<path d="M247 0L1.52588e-05 -1.07967e-05L247 247" fill="white"/>
</mask>
<g mask="url(#mask22_9_1552)">
<path d="M164.97 -56.738L49.4567 260.634" stroke="rgba(15, 23, 42, .5)" />
</g>
<mask id="mask23_9_1552" style="mask-type:alpha" maskUnits="userSpaceOnUse" x="0" y="0" width="247" height="247">
<path d="M247 0L1.52588e-05 -1.07967e-05L247 247" fill="white"/>
</mask>
<g mask="url(#mask23_9_1552)">
<path d="M156.273 -56.738L40.7595 260.634" stroke="rgba(15, 23, 42, .5)" />
</g>
<mask id="mask24_9_1552" style="mask-type:alpha" maskUnits="userSpaceOnUse" x="0" y="0" width="247" height="247">
<path d="M247 0L1.52588e-05 -1.07967e-05L247 247" fill="white"/>
</mask>
<g mask="url(#mask24_9_1552)">
<path d="M147.576 -56.738L32.0622 260.634" stroke="rgba(15, 23, 42, .5)" />
</g>
<mask id="mask25_9_1552" style="mask-type:alpha" maskUnits="userSpaceOnUse" x="0" y="0" width="247" height="247">
<path d="M247 0L1.52588e-05 -1.07967e-05L247 247" fill="white"/>
</mask>
<g mask="url(#mask25_9_1552)">
<path d="M138.879 -56.738L23.3651 260.634" stroke="rgba(15, 23, 42, .5)" />
</g>
<mask id="mask26_9_1552" style="mask-type:alpha" maskUnits="userSpaceOnUse" x="0" y="0" width="247" height="247">
<path d="M247 0L1.52588e-05 -1.07967e-05L247 247" fill="white"/>
</mask>
<g mask="url(#mask26_9_1552)">
<path d="M130.182 -56.738L14.668 260.634" stroke="rgba(15, 23, 42, .5)" />
</g>
<mask id="mask27_9_1552" style="mask-type:alpha" maskUnits="userSpaceOnUse" x="0" y="0" width="247" height="247">
<path d="M247 0L1.52588e-05 -1.07967e-05L247 247" fill="white"/>
</mask>
<g mask="url(#mask27_9_1552)">
<path d="M121.485 -56.738L5.97082 260.634" stroke="rgba(15, 23, 42, .5)" />
</g>
<mask id="mask28_9_1552" style="mask-type:alpha" maskUnits="userSpaceOnUse" x="0" y="0" width="247" height="247">
<path d="M247 0L1.52588e-05 -1.07967e-05L247 247" fill="white"/>
</mask>
<g mask="url(#mask28_9_1552)">
<path d="M112.787 -56.738L-2.72634 260.634" stroke="rgba(15, 23, 42, .5)" />
</g>
<mask id="mask29_9_1552" style="mask-type:alpha" maskUnits="userSpaceOnUse" x="0" y="0" width="247" height="247">
<path d="M247 0L1.52588e-05 -1.07967e-05L247 247" fill="white"/>
</mask>
<g mask="url(#mask29_9_1552)">
<path d="M104.09 -56.738L-11.4233 260.634" stroke="rgba(15, 23, 42, .5)" />
</g>
<mask id="mask30_9_1552" style="mask-type:alpha" maskUnits="userSpaceOnUse" x="0" y="0" width="247" height="247">
<path d="M247 0L1.52588e-05 -1.07967e-05L247 247" fill="white"/>
</mask>
<g mask="url(#mask30_9_1552)">
<path d="M95.393 -56.738L-20.1207 260.634" stroke="rgba(15, 23, 42, .5)" />
</g>
<mask id="mask31_9_1552" style="mask-type:alpha" maskUnits="userSpaceOnUse" x="0" y="0" width="247" height="247">
<path d="M247 0L1.52588e-05 -1.07967e-05L247 247" fill="white"/>
</mask>
<g mask="url(#mask31_9_1552)">
<path d="M86.6959 -56.738L-28.8179 260.634" stroke="rgba(15, 23, 42, .5)" />
</g>
<mask id="mask32_9_1552" style="mask-type:alpha" maskUnits="userSpaceOnUse" x="0" y="0" width="247" height="247">
<path d="M247 0L1.52588e-05 -1.07967e-05L247 247" fill="white"/>
</mask>
<g mask="url(#mask32_9_1552)">
<path d="M77.9988 -56.738L-37.5149 260.634" stroke="rgba(15, 23, 42, .5)" />
</g>
<mask id="mask33_9_1552" style="mask-type:alpha" maskUnits="userSpaceOnUse" x="0" y="0" width="247" height="247">
<path d="M247 0L1.52588e-05 -1.07967e-05L247 247" fill="white"/>
</mask>
<g mask="url(#mask33_9_1552)">
<path d="M69.3017 -56.7382L-46.212 260.634" stroke="rgba(15, 23, 42, .5)" />
</g>
<mask id="mask34_9_1552" style="mask-type:alpha" maskUnits="userSpaceOnUse" x="0" y="0" width="247" height="247">
<path d="M247 0L1.52588e-05 -1.07967e-05L247 247" fill="white"/>
</mask>
<g mask="url(#mask34_9_1552)">
<path d="M51.9072 -56.738L-63.6064 260.634" stroke="rgba(15, 23, 42, .5)" />
</g>
<mask id="mask35_9_1552" style="mask-type:alpha" maskUnits="userSpaceOnUse" x="0" y="0" width="247" height="247">
<path d="M247 0L1.52588e-05 -1.07967e-05L247 247" fill="white"/>
</mask>
<g mask="url(#mask35_9_1552)">
<path d="M43.2102 -56.738L-72.3035 260.634" stroke="rgba(15, 23, 42, .5)" />
</g>
<mask id="mask36_9_1552" style="mask-type:alpha" maskUnits="userSpaceOnUse" x="0" y="0" width="247" height="247">
<path d="M247 0L1.52588e-05 -1.07967e-05L247 247" fill="white"/>
</mask>
<g mask="url(#mask36_9_1552)">
<path d="M34.513 -56.738L-81.0007 260.634" stroke="rgba(15, 23, 42, .5)" />
</g>
<mask id="mask37_9_1552" style="mask-type:alpha" maskUnits="userSpaceOnUse" x="0" y="0" width="247" height="247">
<path d="M247 0L1.52588e-05 -1.07967e-05L247 247" fill="white"/>
</mask>
<g mask="url(#mask37_9_1552)">
<path d="M25.8159 -56.738L-89.6978 260.634" stroke="rgba(15, 23, 42, .5)" />
</g>
<mask id="mask38_9_1552" style="mask-type:alpha" maskUnits="userSpaceOnUse" x="0" y="0" width="247" height="247">
<path d="M247 0L1.52588e-05 -1.07967e-05L247 247" fill="white"/>
</mask>
<g mask="url(#mask38_9_1552)">
<path d="M17.1186 -56.738L-98.3951 260.634" stroke="rgba(15, 23, 42, .5)" />
</g>
<mask id="mask39_9_1552" style="mask-type:alpha" maskUnits="userSpaceOnUse" x="0" y="0" width="247" height="247">
<path d="M247 0L2.09808e-05 -1.07967e-05L247 247" fill="white"/>
</mask>
<g mask="url(#mask39_9_1552)">
<path d="M60.6044 -56.7382L-54.9093 260.634" stroke="rgba(15, 23, 42, .5)" />
</g>
</svg>
