<svg class="railroad-diagram" viewBox="0 0 399.0 71" xmlns="http://www.w3.org/2000/svg" xmlns:xlink="http://www.w3.org/1999/xlink">
<g transform="translate(.5 .5)">
<g>
<path d="M20 21v20m10 -20v20m-10 -10h20"></path></g><path d="M40 31h10"></path><g>
<path d="M50 31h0.0"></path><g>
<path d="M50.0 31h10.0"></path><path d="M339.0 31h10.0"></path><g class="terminal ">
<path d="M60.0 31h0.0"></path><path d="M114.0 31h0.0"></path><rect height="22" rx="10" ry="10" width="54.0" x="60.0" y="20"></rect><text x="87.0" y="35">XACK</text></g><path d="M114.0 31h10"></path><path d="M124.0 31h10"></path><g class="non-terminal ">
<path d="M134.0 31h0.0"></path><path d="M179.5 31h0.0"></path><rect height="22" width="45.5" x="134.0" y="20"></rect><text x="156.75" y="35">key</text><title>key</title></g><path d="M179.5 31h10"></path><path d="M189.5 31h10"></path><g class="non-terminal ">
<path d="M199.5 31h0.0"></path><path d="M262.0 31h0.0"></path><rect height="22" width="62.5" x="199.5" y="20"></rect><text x="230.75" y="35">group</text><title>string</title></g><path d="M262.0 31h10"></path><path d="M272.0 31h10"></path><g>
<path d="M282.0 31h0.0"></path><path d="M339.0 31h0.0"></path><path d="M282.0 31h10"></path><g class="non-terminal ">
<path d="M292.0 31h0.0"></path><path d="M329.0 31h0.0"></path><rect height="22" width="37.0" x="292.0" y="20"></rect><text x="310.5" y="35">id</text><title>string</title></g><path d="M329.0 31h10"></path><path d="M292.0 31a10 10 0 0 0 -10 10v0a10 10 0 0 0 10 10"></path><g>
<path d="M292.0 51h37.0"></path></g><path d="M329.0 51a10 10 0 0 0 10 -10v0a10 10 0 0 0 -10 -10"></path></g></g><path d="M349.0 31h0.0"></path></g><path d="M349.0 31h10"></path><path d="M 359.0 31 h 20 m -10 -10 v 20 m 10 -20 v 20"></path></g></svg>