<svg class="railroad-diagram" viewBox="0 0 558.0 92" xmlns="http://www.w3.org/2000/svg" xmlns:xlink="http://www.w3.org/1999/xlink">
<g transform="translate(.5 .5)">
<g>
<path d="M20 51v20m10 -20v20m-10 -10h20"></path></g><path d="M40 61h10"></path><g>
<path d="M50 61h0.0"></path><g>
<path d="M50.0 61h10.0"></path><path d="M498.0 61h10.0"></path><g class="terminal ">
<path d="M60.0 61h0.0"></path><path d="M139.5 61h0.0"></path><rect height="22" rx="10" ry="10" width="79.5" x="60.0" y="50"></rect><text x="99.75" y="65">LINSERT</text></g><path d="M139.5 61h10"></path><path d="M149.5 61h10"></path><g class="non-terminal ">
<path d="M159.5 61h0.0"></path><path d="M205.0 61h0.0"></path><rect height="22" width="45.5" x="159.5" y="50"></rect><text x="182.25" y="65">key</text><title>key</title></g><path d="M205.0 61h10"></path><g>
<path d="M215.0 61h0.0"></path><path d="M326.0 61h0.0"></path><path d="M215.0 61a10 10 0 0 0 10 -10v-10a10 10 0 0 1 10 -10"></path><g class="terminal ">
<path d="M235.0 31h0.0"></path><path d="M306.0 31h0.0"></path><rect height="22" rx="10" ry="10" width="71.0" x="235.0" y="20"></rect><text x="270.5" y="35">BEFORE</text></g><path d="M306.0 31a10 10 0 0 1 10 10v10a10 10 0 0 0 10 10"></path><path d="M215.0 61h20"></path><g class="terminal ">
<path d="M235.0 61h4.25"></path><path d="M301.75 61h4.25"></path><rect height="22" rx="10" ry="10" width="62.5" x="239.25" y="50"></rect><text x="270.5" y="65">AFTER</text></g><path d="M306.0 61h20"></path></g><path d="M326.0 61h10"></path><g class="non-terminal ">
<path d="M336.0 61h0.0"></path><path d="M398.5 61h0.0"></path><rect height="22" width="62.5" x="336.0" y="50"></rect><text x="367.25" y="65">pivot</text><title>string</title></g><path d="M398.5 61h10"></path><path d="M408.5 61h10"></path><g class="non-terminal ">
<path d="M418.5 61h0.0"></path><path d="M498.0 61h0.0"></path><rect height="22" width="79.5" x="418.5" y="50"></rect><text x="458.25" y="65">element</text><title>string</title></g></g><path d="M508.0 61h0.0"></path></g><path d="M508.0 61h10"></path><path d="M 518.0 61 h 20 m -10 -10 v 20 m 10 -20 v 20"></path></g></svg>