<svg class="railroad-diagram" viewBox="0 0 647.5 141" xmlns="http://www.w3.org/2000/svg" xmlns:xlink="http://www.w3.org/1999/xlink">
<g transform="translate(.5 .5)">
<g>
<path d="M20 21v20m10 -20v20m-10 -10h20"></path></g><path d="M40 31h10"></path><g>
<path d="M50 31h0.0"></path><path d="M50.0 31h10"></path><g>
<path d="M60.0 31h10.0"></path><path d="M577.5 31h10.0"></path><g class="terminal ">
<path d="M70.0 31h0.0"></path><path d="M226.0 31h0.0"></path><rect height="22" rx="10" ry="10" width="156.0" x="70.0" y="20"></rect><text x="148.0" y="35">ZREVRANGEBYSCORE</text></g><path d="M226.0 31h10"></path><path d="M236.0 31h10"></path><g class="non-terminal ">
<path d="M246.0 31h0.0"></path><path d="M291.5 31h0.0"></path><rect height="22" width="45.5" x="246.0" y="20"></rect><text x="268.75" y="35">key</text><title>key</title></g><path d="M291.5 31h10"></path><path d="M301.5 31h10"></path><g class="non-terminal ">
<path d="M311.5 31h0.0"></path><path d="M357.0 31h0.0"></path><rect height="22" width="45.5" x="311.5" y="20"></rect><text x="334.25" y="35">max</text><title>double</title></g><path d="M357.0 31h10"></path><path d="M367.0 31h10"></path><g class="non-terminal ">
<path d="M377.0 31h0.0"></path><path d="M422.5 31h0.0"></path><rect height="22" width="45.5" x="377.0" y="20"></rect><text x="399.75" y="35">min</text><title>double</title></g><path d="M422.5 31h10"></path><g>
<path d="M432.5 31h0.0"></path><path d="M577.5 31h0.0"></path><path d="M432.5 31h20"></path><g>
<path d="M452.5 31h105.0"></path></g><path d="M557.5 31h20"></path><path d="M432.5 31a10 10 0 0 1 10 10v0a10 10 0 0 0 10 10"></path><g class="terminal ">
<path d="M452.5 51h0.0"></path><path d="M557.5 51h0.0"></path><rect height="22" rx="10" ry="10" width="105.0" x="452.5" y="40"></rect><text x="505.0" y="55">WITHSCORES</text></g><path d="M557.5 51a10 10 0 0 0 10 -10v0a10 10 0 0 1 10 -10"></path></g></g><path d="M587.5 31a10 10 0 0 1 10 10v19a10 10 0 0 1 -10 10h-527.5a10 10 0 0 0 -10 10v0a10 10 0 0 0 10 10"></path><g>
<path d="M60.0 90h125.75"></path><path d="M461.75 90h125.75"></path><g>
<path d="M185.75 90h0.0"></path><path d="M461.75 90h0.0"></path><path d="M185.75 90h20"></path><g>
<path d="M205.75 90h236.0"></path></g><path d="M441.75 90h20"></path><path d="M185.75 90a10 10 0 0 1 10 10v0a10 10 0 0 0 10 10"></path><g>
<path d="M205.75 110h0.0"></path><path d="M441.75 110h0.0"></path><g class="terminal ">
<path d="M205.75 110h0.0"></path><path d="M268.25 110h0.0"></path><rect height="22" rx="10" ry="10" width="62.5" x="205.75" y="99"></rect><text x="237.0" y="114">LIMIT</text></g><path d="M268.25 110h10"></path><path d="M278.25 110h10"></path><g>
<path d="M288.25 110h0.0"></path><path d="M441.75 110h0.0"></path><g class="non-terminal ">
<path d="M288.25 110h0.0"></path><path d="M359.25 110h0.0"></path><rect height="22" width="71.0" x="288.25" y="99"></rect><text x="323.75" y="114">offset</text><title>integer</title></g><path d="M359.25 110h10"></path><path d="M369.25 110h10"></path><g class="non-terminal ">
<path d="M379.25 110h0.0"></path><path d="M441.75 110h0.0"></path><rect height="22" width="62.5" x="379.25" y="99"></rect><text x="410.5" y="114">count</text><title>integer</title></g></g></g><path d="M441.75 110a10 10 0 0 0 10 -10v0a10 10 0 0 1 10 -10"></path></g></g><path d="M587.5 90h10"></path><path d="M597.5 90h0.0"></path></g><path d="M597.5 90h10"></path><path d="M 607.5 90 h 20 m -10 -10 v 20 m 10 -20 v 20"></path></g></svg>