<svg class="railroad-diagram" viewBox="0 0 579.0 82" xmlns="http://www.w3.org/2000/svg" xmlns:xlink="http://www.w3.org/1999/xlink">
<g transform="translate(.5 .5)">
<g>
<path d="M20 21v20m10 -20v20m-10 -10h20"></path></g><path d="M40 31h10"></path><g>
<path d="M50 31h0.0"></path><g>
<path d="M50.0 31h10.0"></path><path d="M519.0 31h10.0"></path><g class="terminal ">
<path d="M60.0 31h0.0"></path><path d="M182.0 31h0.0"></path><rect height="22" rx="10" ry="10" width="122.0" x="60.0" y="20"></rect><text x="121.0" y="35">CLUSTER MEET</text></g><path d="M182.0 31h10"></path><path d="M192.0 31h10"></path><g class="non-terminal ">
<path d="M202.0 31h0.0"></path><path d="M239.0 31h0.0"></path><rect height="22" width="37.0" x="202.0" y="20"></rect><text x="220.5" y="35">ip</text><title>string</title></g><path d="M239.0 31h10"></path><path d="M249.0 31h10"></path><g class="non-terminal ">
<path d="M259.0 31h0.0"></path><path d="M313.0 31h0.0"></path><rect height="22" width="54.0" x="259.0" y="20"></rect><text x="286.0" y="35">port</text><title>integer</title></g><path d="M313.0 31h10"></path><g>
<path d="M323.0 31h0.0"></path><path d="M519.0 31h0.0"></path><path d="M323.0 31h20"></path><g>
<path d="M343.0 31h156.0"></path></g><path d="M499.0 31h20"></path><path d="M323.0 31a10 10 0 0 1 10 10v0a10 10 0 0 0 10 10"></path><g class="non-terminal ">
<path d="M343.0 51h0.0"></path><path d="M499.0 51h0.0"></path><rect height="22" width="156.0" x="343.0" y="40"></rect><text x="421.0" y="55">cluster-bus-port</text><title>integer</title></g><path d="M499.0 51a10 10 0 0 0 10 -10v0a10 10 0 0 1 10 -10"></path></g></g><path d="M529.0 31h0.0"></path></g><path d="M529.0 31h10"></path><path d="M 539.0 31 h 20 m -10 -10 v 20 m 10 -20 v 20"></path></g></svg>