<svg class="railroad-diagram" viewBox="0 0 625.0 82" xmlns="http://www.w3.org/2000/svg" xmlns:xlink="http://www.w3.org/1999/xlink">
<g transform="translate(.5 .5)">
<g>
<path d="M20 21v20m10 -20v20m-10 -10h20"></path></g><path d="M40 31h10"></path><g>
<path d="M50 31h0.0"></path><g>
<path d="M50.0 31h10.0"></path><path d="M565.0 31h10.0"></path><g class="terminal ">
<path d="M60.0 31h0.0"></path><path d="M156.5 31h0.0"></path><rect height="22" rx="10" ry="10" width="96.5" x="60.0" y="20"></rect><text x="108.25" y="35">XREVRANGE</text></g><path d="M156.5 31h10"></path><path d="M166.5 31h10"></path><g class="non-terminal ">
<path d="M176.5 31h0.0"></path><path d="M222.0 31h0.0"></path><rect height="22" width="45.5" x="176.5" y="20"></rect><text x="199.25" y="35">key</text><title>key</title></g><path d="M222.0 31h10"></path><path d="M232.0 31h10"></path><g class="non-terminal ">
<path d="M242.0 31h0.0"></path><path d="M287.5 31h0.0"></path><rect height="22" width="45.5" x="242.0" y="20"></rect><text x="264.75" y="35">end</text><title>string</title></g><path d="M287.5 31h10"></path><path d="M297.5 31h10"></path><g class="non-terminal ">
<path d="M307.5 31h0.0"></path><path d="M370.0 31h0.0"></path><rect height="22" width="62.5" x="307.5" y="20"></rect><text x="338.75" y="35">start</text><title>string</title></g><path d="M370.0 31h10"></path><g>
<path d="M380.0 31h0.0"></path><path d="M565.0 31h0.0"></path><path d="M380.0 31h20"></path><g>
<path d="M400.0 31h145.0"></path></g><path d="M545.0 31h20"></path><path d="M380.0 31a10 10 0 0 1 10 10v0a10 10 0 0 0 10 10"></path><g>
<path d="M400.0 51h0.0"></path><path d="M545.0 51h0.0"></path><g class="terminal ">
<path d="M400.0 51h0.0"></path><path d="M462.5 51h0.0"></path><rect height="22" rx="10" ry="10" width="62.5" x="400.0" y="40"></rect><text x="431.25" y="55">COUNT</text></g><path d="M462.5 51h10"></path><path d="M472.5 51h10"></path><g class="non-terminal ">
<path d="M482.5 51h0.0"></path><path d="M545.0 51h0.0"></path><rect height="22" width="62.5" x="482.5" y="40"></rect><text x="513.75" y="55">count</text><title>integer</title></g></g><path d="M545.0 51a10 10 0 0 0 10 -10v0a10 10 0 0 1 10 -10"></path></g></g><path d="M575.0 31h0.0"></path></g><path d="M575.0 31h10"></path><path d="M 585.0 31 h 20 m -10 -10 v 20 m 10 -20 v 20"></path></g></svg>