<svg class="railroad-diagram" viewBox="0 0 778.0 296" xmlns="http://www.w3.org/2000/svg" xmlns:xlink="http://www.w3.org/1999/xlink">
<g transform="translate(.5 .5)">
<g>
<path d="M20 21v20m10 -20v20m-10 -10h20"></path></g><path d="M40 31h10"></path><g>
<path d="M50 31h0.0"></path><path d="M50.0 31h10"></path><g>
<path d="M60.0 31h191.75"></path><path d="M526.25 31h191.75"></path><g class="terminal ">
<path d="M251.75 31h0.0"></path><path d="M305.75 31h0.0"></path><rect height="22" rx="10" ry="10" width="54.0" x="251.75" y="20"></rect><text x="278.75" y="35">XADD</text></g><path d="M305.75 31h10"></path><path d="M315.75 31h10"></path><g class="non-terminal ">
<path d="M325.75 31h0.0"></path><path d="M371.25 31h0.0"></path><rect height="22" width="45.5" x="325.75" y="20"></rect><text x="348.5" y="35">key</text><title>key</title></g><path d="M371.25 31h10"></path><g>
<path d="M381.25 31h0.0"></path><path d="M526.25 31h0.0"></path><path d="M381.25 31h20"></path><g>
<path d="M401.25 31h105.0"></path></g><path d="M506.25 31h20"></path><path d="M381.25 31a10 10 0 0 1 10 10v0a10 10 0 0 0 10 10"></path><g class="terminal ">
<path d="M401.25 51h0.0"></path><path d="M506.25 51h0.0"></path><rect height="22" rx="10" ry="10" width="105.0" x="401.25" y="40"></rect><text x="453.75" y="55">NOMKSTREAM</text></g><path d="M506.25 51a10 10 0 0 0 10 -10v0a10 10 0 0 1 10 -10"></path></g></g><path d="M718.0 31a10 10 0 0 1 10 10v19a10 10 0 0 1 -10 10h-658.0a10 10 0 0 0 -10 10v29a10 10 0 0 0 10 10"></path><g>
<path d="M60.0 119h10.0"></path><path d="M708.0 119h10.0"></path><g>
<path d="M70.0 119h0.0"></path><path d="M631.0 119h0.0"></path><path d="M70.0 119h20"></path><g>
<path d="M90.0 119h521.0"></path></g><path d="M611.0 119h20"></path><path d="M70.0 119a10 10 0 0 1 10 10v29a10 10 0 0 0 10 10"></path><g>
<path d="M90.0 168h0.0"></path><path d="M611.0 168h0.0"></path><g>
<path d="M90.0 168h0.0"></path><path d="M201.0 168h0.0"></path><path d="M90.0 168a10 10 0 0 0 10 -10v-10a10 10 0 0 1 10 -10"></path><g class="terminal ">
<path d="M110.0 138h0.0"></path><path d="M181.0 138h0.0"></path><rect height="22" rx="10" ry="10" width="71.0" x="110.0" y="127"></rect><text x="145.5" y="142">MAXLEN</text></g><path d="M181.0 138a10 10 0 0 1 10 10v10a10 10 0 0 0 10 10"></path><path d="M90.0 168h20"></path><g class="terminal ">
<path d="M110.0 168h4.25"></path><path d="M176.75 168h4.25"></path><rect height="22" rx="10" ry="10" width="62.5" x="114.25" y="157"></rect><text x="145.5" y="172">MINID</text></g><path d="M181.0 168h20"></path></g><g>
<path d="M201.0 168h0.0"></path><path d="M309.5 168h0.0"></path><path d="M201.0 168h20"></path><g>
<path d="M221.0 168h68.5"></path></g><path d="M289.5 168h20"></path><path d="M201.0 168a10 10 0 0 1 10 10v29a10 10 0 0 0 10 10"></path><g>
<path d="M221.0 217h0.0"></path><path d="M289.5 217h0.0"></path><path d="M221.0 217a10 10 0 0 0 10 -10v-10a10 10 0 0 1 10 -10"></path><g class="terminal ">
<path d="M241.0 187h0.0"></path><path d="M269.5 187h0.0"></path><rect height="22" rx="10" ry="10" width="28.5" x="241.0" y="176"></rect><text x="255.25" y="191">=</text></g><path d="M269.5 187a10 10 0 0 1 10 10v10a10 10 0 0 0 10 10"></path><path d="M221.0 217h20"></path><g class="terminal ">
<path d="M241.0 217h0.0"></path><path d="M269.5 217h0.0"></path><rect height="22" rx="10" ry="10" width="28.5" x="241.0" y="206"></rect><text x="255.25" y="221">~</text></g><path d="M269.5 217h20"></path></g><path d="M289.5 217a10 10 0 0 0 10 -10v-29a10 10 0 0 1 10 -10"></path></g><path d="M309.5 168h10"></path><g class="non-terminal ">
<path d="M319.5 168h0.0"></path><path d="M416.0 168h0.0"></path><rect height="22" width="96.5" x="319.5" y="157"></rect><text x="367.75" y="172">threshold</text><title>string</title></g><path d="M416.0 168h10"></path><g>
<path d="M426.0 168h0.0"></path><path d="M611.0 168h0.0"></path><path d="M426.0 168h20"></path><g>
<path d="M446.0 168h145.0"></path></g><path d="M591.0 168h20"></path><path d="M426.0 168a10 10 0 0 1 10 10v0a10 10 0 0 0 10 10"></path><g>
<path d="M446.0 188h0.0"></path><path d="M591.0 188h0.0"></path><g class="terminal ">
<path d="M446.0 188h0.0"></path><path d="M508.5 188h0.0"></path><rect height="22" rx="10" ry="10" width="62.5" x="446.0" y="177"></rect><text x="477.25" y="192">LIMIT</text></g><path d="M508.5 188h10"></path><path d="M518.5 188h10"></path><g class="non-terminal ">
<path d="M528.5 188h0.0"></path><path d="M591.0 188h0.0"></path><rect height="22" width="62.5" x="528.5" y="177"></rect><text x="559.75" y="192">count</text><title>integer</title></g></g><path d="M591.0 188a10 10 0 0 0 10 -10v0a10 10 0 0 1 10 -10"></path></g></g><path d="M611.0 168a10 10 0 0 0 10 -10v-29a10 10 0 0 1 10 -10"></path></g><g>
<path d="M631.0 119h0.0"></path><path d="M708.0 119h0.0"></path><path d="M631.0 119a10 10 0 0 0 10 -10v-10a10 10 0 0 1 10 -10"></path><g class="terminal ">
<path d="M651.0 89h4.25"></path><path d="M683.75 89h4.25"></path><rect height="22" rx="10" ry="10" width="28.5" x="655.25" y="78"></rect><text x="669.5" y="93">&#42;</text></g><path d="M688.0 89a10 10 0 0 1 10 10v10a10 10 0 0 0 10 10"></path><path d="M631.0 119h20"></path><g class="non-terminal ">
<path d="M651.0 119h0.0"></path><path d="M688.0 119h0.0"></path><rect height="22" width="37.0" x="651.0" y="108"></rect><text x="669.5" y="123">id</text><title>string</title></g><path d="M688.0 119h20"></path></g></g><path d="M718.0 119a10 10 0 0 1 10 10v97a10 10 0 0 1 -10 10h-658.0a10 10 0 0 0 -10 10v0a10 10 0 0 0 10 10"></path><g>
<path d="M60.0 256h246.5"></path><path d="M471.5 256h246.5"></path><g>
<path d="M306.5 256h0.0"></path><path d="M471.5 256h0.0"></path><path d="M306.5 256h10"></path><g>
<path d="M316.5 256h0.0"></path><path d="M461.5 256h0.0"></path><g class="non-terminal ">
<path d="M316.5 256h0.0"></path><path d="M379.0 256h0.0"></path><rect height="22" width="62.5" x="316.5" y="245"></rect><text x="347.75" y="260">field</text><title>string</title></g><path d="M379.0 256h10"></path><path d="M389.0 256h10"></path><g class="non-terminal ">
<path d="M399.0 256h0.0"></path><path d="M461.5 256h0.0"></path><rect height="22" width="62.5" x="399.0" y="245"></rect><text x="430.25" y="260">value</text><title>string</title></g></g><path d="M461.5 256h10"></path><path d="M316.5 256a10 10 0 0 0 -10 10v0a10 10 0 0 0 10 10"></path><g>
<path d="M316.5 276h145.0"></path></g><path d="M461.5 276a10 10 0 0 0 10 -10v0a10 10 0 0 0 -10 -10"></path></g></g><path d="M718.0 256h10"></path><path d="M728.0 256h0.0"></path></g><path d="M728.0 256h10"></path><path d="M 738.0 256 h 20 m -10 -10 v 20 m 10 -20 v 20"></path></g></svg>