<svg class="railroad-diagram" viewBox="0 0 613.5 91" xmlns="http://www.w3.org/2000/svg" xmlns:xlink="http://www.w3.org/1999/xlink">
<g transform="translate(.5 .5)">
<g>
<path d="M20 21v20m10 -20v20m-10 -10h20"></path></g><path d="M40 31h10"></path><g>
<path d="M50 31h0.0"></path><g>
<path d="M50.0 31h10.0"></path><path d="M553.5 31h10.0"></path><g class="terminal ">
<path d="M60.0 31h0.0"></path><path d="M173.5 31h0.0"></path><rect height="22" rx="10" ry="10" width="113.5" x="60.0" y="20"></rect><text x="116.75" y="35">BITFIELD&#95;RO</text></g><path d="M173.5 31h10"></path><path d="M183.5 31h10"></path><g class="non-terminal ">
<path d="M193.5 31h0.0"></path><path d="M239.0 31h0.0"></path><rect height="22" width="45.5" x="193.5" y="20"></rect><text x="216.25" y="35">key</text><title>key</title></g><path d="M239.0 31h10"></path><g>
<path d="M249.0 31h0.0"></path><path d="M553.5 31h0.0"></path><path d="M249.0 31h20"></path><g>
<path d="M269.0 31h264.5"></path></g><path d="M533.5 31h20"></path><path d="M249.0 31a10 10 0 0 1 10 10v0a10 10 0 0 0 10 10"></path><g>
<path d="M269.0 51h0.0"></path><path d="M533.5 51h0.0"></path><path d="M269.0 51h10"></path><g>
<path d="M279.0 51h0.0"></path><path d="M523.5 51h0.0"></path><g class="terminal ">
<path d="M279.0 51h0.0"></path><path d="M324.5 51h0.0"></path><rect height="22" rx="10" ry="10" width="45.5" x="279.0" y="40"></rect><text x="301.75" y="55">GET</text></g><path d="M324.5 51h10"></path><path d="M334.5 51h10"></path><g>
<path d="M344.5 51h0.0"></path><path d="M523.5 51h0.0"></path><g class="non-terminal ">
<path d="M344.5 51h0.0"></path><path d="M432.5 51h0.0"></path><rect height="22" width="88.0" x="344.5" y="40"></rect><text x="388.5" y="55">encoding</text><title>string</title></g><path d="M432.5 51h10"></path><path d="M442.5 51h10"></path><g class="non-terminal ">
<path d="M452.5 51h0.0"></path><path d="M523.5 51h0.0"></path><rect height="22" width="71.0" x="452.5" y="40"></rect><text x="488.0" y="55">offset</text><title>integer</title></g></g></g><path d="M523.5 51h10"></path><path d="M279.0 51a10 10 0 0 0 -10 10v0a10 10 0 0 0 10 10"></path><g>
<path d="M279.0 71h244.5"></path></g><path d="M523.5 71a10 10 0 0 0 10 -10v0a10 10 0 0 0 -10 -10"></path></g><path d="M533.5 51a10 10 0 0 0 10 -10v0a10 10 0 0 1 10 -10"></path></g></g><path d="M563.5 31h0.0"></path></g><path d="M563.5 31h10"></path><path d="M 573.5 31 h 20 m -10 -10 v 20 m 10 -20 v 20"></path></g></svg>