<svg class="railroad-diagram" viewBox="0 0 650.5 141" xmlns="http://www.w3.org/2000/svg" xmlns:xlink="http://www.w3.org/1999/xlink">
<g transform="translate(.5 .5)">
<g>
<path d="M20 21v20m10 -20v20m-10 -10h20"></path></g><path d="M40 31h10"></path><g>
<path d="M50 31h0.0"></path><path d="M50.0 31h10"></path><g>
<path d="M60.0 31h10.0"></path><path d="M580.5 31h10.0"></path><g class="terminal ">
<path d="M70.0 31h0.0"></path><path d="M166.5 31h0.0"></path><rect height="22" rx="10" ry="10" width="96.5" x="70.0" y="20"></rect><text x="118.25" y="35">FT.SUGGET</text></g><path d="M166.5 31h10"></path><path d="M176.5 31h10"></path><g class="non-terminal ">
<path d="M186.5 31h0.0"></path><path d="M232.0 31h0.0"></path><rect height="22" width="45.5" x="186.5" y="20"></rect><text x="209.25" y="35">key</text><title>string</title></g><path d="M232.0 31h10"></path><path d="M242.0 31h10"></path><g class="non-terminal ">
<path d="M252.0 31h0.0"></path><path d="M323.0 31h0.0"></path><rect height="22" width="71.0" x="252.0" y="20"></rect><text x="287.5" y="35">prefix</text><title>string</title></g><path d="M323.0 31h10"></path><g>
<path d="M333.0 31h0.0"></path><path d="M435.5 31h0.0"></path><path d="M333.0 31h20"></path><g>
<path d="M353.0 31h62.5"></path></g><path d="M415.5 31h20"></path><path d="M333.0 31a10 10 0 0 1 10 10v0a10 10 0 0 0 10 10"></path><g class="terminal ">
<path d="M353.0 51h0.0"></path><path d="M415.5 51h0.0"></path><rect height="22" rx="10" ry="10" width="62.5" x="353.0" y="40"></rect><text x="384.25" y="55">FUZZY</text></g><path d="M415.5 51a10 10 0 0 0 10 -10v0a10 10 0 0 1 10 -10"></path></g><g>
<path d="M435.5 31h0.0"></path><path d="M580.5 31h0.0"></path><path d="M435.5 31h20"></path><g>
<path d="M455.5 31h105.0"></path></g><path d="M560.5 31h20"></path><path d="M435.5 31a10 10 0 0 1 10 10v0a10 10 0 0 0 10 10"></path><g class="terminal ">
<path d="M455.5 51h0.0"></path><path d="M560.5 51h0.0"></path><rect height="22" rx="10" ry="10" width="105.0" x="455.5" y="40"></rect><text x="508.0" y="55">WITHSCORES</text></g><path d="M560.5 51a10 10 0 0 0 10 -10v0a10 10 0 0 1 10 -10"></path></g></g><path d="M590.5 31a10 10 0 0 1 10 10v19a10 10 0 0 1 -10 10h-530.5a10 10 0 0 0 -10 10v0a10 10 0 0 0 10 10"></path><g>
<path d="M60.0 90h108.75"></path><path d="M481.75 90h108.75"></path><g>
<path d="M168.75 90h0.0"></path><path d="M330.75 90h0.0"></path><path d="M168.75 90h20"></path><g>
<path d="M188.75 90h122.0"></path></g><path d="M310.75 90h20"></path><path d="M168.75 90a10 10 0 0 1 10 10v0a10 10 0 0 0 10 10"></path><g class="terminal ">
<path d="M188.75 110h0.0"></path><path d="M310.75 110h0.0"></path><rect height="22" rx="10" ry="10" width="122.0" x="188.75" y="99"></rect><text x="249.75" y="114">WITHPAYLOADS</text></g><path d="M310.75 110a10 10 0 0 0 10 -10v0a10 10 0 0 1 10 -10"></path></g><g>
<path d="M330.75 90h0.0"></path><path d="M481.75 90h0.0"></path><path d="M330.75 90h20"></path><g>
<path d="M350.75 90h111.0"></path></g><path d="M461.75 90h20"></path><path d="M330.75 90a10 10 0 0 1 10 10v0a10 10 0 0 0 10 10"></path><g>
<path d="M350.75 110h0.0"></path><path d="M461.75 110h0.0"></path><g class="terminal ">
<path d="M350.75 110h0.0"></path><path d="M396.25 110h0.0"></path><rect height="22" rx="10" ry="10" width="45.5" x="350.75" y="99"></rect><text x="373.5" y="114">MAX</text></g><path d="M396.25 110h10"></path><path d="M406.25 110h10"></path><g class="non-terminal ">
<path d="M416.25 110h0.0"></path><path d="M461.75 110h0.0"></path><rect height="22" width="45.5" x="416.25" y="99"></rect><text x="439.0" y="114">max</text><title>integer</title></g></g><path d="M461.75 110a10 10 0 0 0 10 -10v0a10 10 0 0 1 10 -10"></path></g></g><path d="M590.5 90h10"></path><path d="M600.5 90h0.0"></path></g><path d="M600.5 90h10"></path><path d="M 610.5 90 h 20 m -10 -10 v 20 m 10 -20 v 20"></path></g></svg>