<svg class="railroad-diagram" viewBox="0 0 731.5 130" xmlns="http://www.w3.org/2000/svg" xmlns:xlink="http://www.w3.org/1999/xlink">
<g transform="translate(.5 .5)">
<g>
<path d="M20 21v20m10 -20v20m-10 -10h20"></path></g><path d="M40 31h10"></path><g>
<path d="M50 31h0.0"></path><path d="M50.0 31h10"></path><g>
<path d="M60.0 31h10.0"></path><path d="M661.5 31h10.0"></path><g class="terminal ">
<path d="M70.0 31h0.0"></path><path d="M132.5 31h0.0"></path><rect height="22" rx="10" ry="10" width="62.5" x="70.0" y="20"></rect><text x="101.25" y="35">XREAD</text></g><path d="M132.5 31h10"></path><g>
<path d="M142.5 31h0.0"></path><path d="M327.5 31h0.0"></path><path d="M142.5 31h20"></path><g>
<path d="M162.5 31h145.0"></path></g><path d="M307.5 31h20"></path><path d="M142.5 31a10 10 0 0 1 10 10v0a10 10 0 0 0 10 10"></path><g>
<path d="M162.5 51h0.0"></path><path d="M307.5 51h0.0"></path><g class="terminal ">
<path d="M162.5 51h0.0"></path><path d="M225.0 51h0.0"></path><rect height="22" rx="10" ry="10" width="62.5" x="162.5" y="40"></rect><text x="193.75" y="55">COUNT</text></g><path d="M225.0 51h10"></path><path d="M235.0 51h10"></path><g class="non-terminal ">
<path d="M245.0 51h0.0"></path><path d="M307.5 51h0.0"></path><rect height="22" width="62.5" x="245.0" y="40"></rect><text x="276.25" y="55">count</text><title>integer</title></g></g><path d="M307.5 51a10 10 0 0 0 10 -10v0a10 10 0 0 1 10 -10"></path></g><g>
<path d="M327.5 31h0.0"></path><path d="M572.0 31h0.0"></path><path d="M327.5 31h20"></path><g>
<path d="M347.5 31h204.5"></path></g><path d="M552.0 31h20"></path><path d="M327.5 31a10 10 0 0 1 10 10v0a10 10 0 0 0 10 10"></path><g>
<path d="M347.5 51h0.0"></path><path d="M552.0 51h0.0"></path><g class="terminal ">
<path d="M347.5 51h0.0"></path><path d="M410.0 51h0.0"></path><rect height="22" rx="10" ry="10" width="62.5" x="347.5" y="40"></rect><text x="378.75" y="55">BLOCK</text></g><path d="M410.0 51h10"></path><path d="M420.0 51h10"></path><g class="non-terminal ">
<path d="M430.0 51h0.0"></path><path d="M552.0 51h0.0"></path><rect height="22" width="122.0" x="430.0" y="40"></rect><text x="491.0" y="55">milliseconds</text><title>integer</title></g></g><path d="M552.0 51a10 10 0 0 0 10 -10v0a10 10 0 0 1 10 -10"></path></g><path d="M572.0 31h10"></path><g class="terminal ">
<path d="M582.0 31h0.0"></path><path d="M661.5 31h0.0"></path><rect height="22" rx="10" ry="10" width="79.5" x="582.0" y="20"></rect><text x="621.75" y="35">STREAMS</text></g></g><path d="M671.5 31a10 10 0 0 1 10 10v19a10 10 0 0 1 -10 10h-611.5a10 10 0 0 0 -10 10v0a10 10 0 0 0 10 10"></path><g>
<path d="M60.0 90h234.5"></path><path d="M437.0 90h234.5"></path><g>
<path d="M294.5 90h0.0"></path><path d="M437.0 90h0.0"></path><g>
<path d="M294.5 90h0.0"></path><path d="M360.0 90h0.0"></path><path d="M294.5 90h10"></path><g class="non-terminal ">
<path d="M304.5 90h0.0"></path><path d="M350.0 90h0.0"></path><rect height="22" width="45.5" x="304.5" y="79"></rect><text x="327.25" y="94">key</text><title>key</title></g><path d="M350.0 90h10"></path><path d="M304.5 90a10 10 0 0 0 -10 10v0a10 10 0 0 0 10 10"></path><g>
<path d="M304.5 110h45.5"></path></g><path d="M350.0 110a10 10 0 0 0 10 -10v0a10 10 0 0 0 -10 -10"></path></g><path d="M360.0 90h10"></path><path d="M370.0 90h10"></path><g>
<path d="M380.0 90h0.0"></path><path d="M437.0 90h0.0"></path><path d="M380.0 90h10"></path><g class="non-terminal ">
<path d="M390.0 90h0.0"></path><path d="M427.0 90h0.0"></path><rect height="22" width="37.0" x="390.0" y="79"></rect><text x="408.5" y="94">id</text><title>string</title></g><path d="M427.0 90h10"></path><path d="M390.0 90a10 10 0 0 0 -10 10v0a10 10 0 0 0 10 10"></path><g>
<path d="M390.0 110h37.0"></path></g><path d="M427.0 110a10 10 0 0 0 10 -10v0a10 10 0 0 0 -10 -10"></path></g></g></g><path d="M671.5 90h10"></path><path d="M681.5 90h0.0"></path></g><path d="M681.5 90h10"></path><path d="M 691.5 90 h 20 m -10 -10 v 20 m 10 -20 v 20"></path></g></svg>