<svg class="railroad-diagram" viewBox="0 0 1060.0 861" xmlns="http://www.w3.org/2000/svg" xmlns:xlink="http://www.w3.org/1999/xlink">
<g transform="translate(.5 .5)">
<g>
<path d="M20 21v20m10 -20v20m-10 -10h20"></path></g><path d="M40 31h10"></path><g>
<path d="M50 31h0.0"></path><path d="M50.0 31h10"></path><g>
<path d="M60.0 31h219.25"></path><path d="M780.75 31h219.25"></path><g class="terminal ">
<path d="M279.25 31h0.0"></path><path d="M375.75 31h0.0"></path><rect height="22" rx="10" ry="10" width="96.5" x="279.25" y="20"></rect><text x="327.5" y="35">TS.MRANGE</text></g><path d="M375.75 31h10"></path><path d="M385.75 31h10"></path><g class="non-terminal ">
<path d="M395.75 31h0.0"></path><path d="M526.25 31h0.0"></path><rect height="22" width="130.5" x="395.75" y="20"></rect><text x="461.0" y="35">fromTimestamp</text><title>string</title></g><path d="M526.25 31h10"></path><path d="M536.25 31h10"></path><g class="non-terminal ">
<path d="M546.25 31h0.0"></path><path d="M659.75 31h0.0"></path><rect height="22" width="113.5" x="546.25" y="20"></rect><text x="603.0" y="35">toTimestamp</text><title>string</title></g><path d="M659.75 31h10"></path><g>
<path d="M669.75 31h0.0"></path><path d="M780.75 31h0.0"></path><path d="M669.75 31h20"></path><g>
<path d="M689.75 31h71.0"></path></g><path d="M760.75 31h20"></path><path d="M669.75 31a10 10 0 0 1 10 10v0a10 10 0 0 0 10 10"></path><g class="non-terminal ">
<path d="M689.75 51h0.0"></path><path d="M760.75 51h0.0"></path><rect height="22" width="71.0" x="689.75" y="40"></rect><text x="725.25" y="55">LATEST</text><title>string</title></g><path d="M760.75 51a10 10 0 0 0 10 -10v0a10 10 0 0 1 10 -10"></path></g></g><path d="M1000.0 31a10 10 0 0 1 10 10v19a10 10 0 0 1 -10 10h-940.0a10 10 0 0 0 -10 10v0a10 10 0 0 0 10 10"></path><g>
<path d="M60.0 90h232.5"></path><path d="M767.5 90h232.5"></path><g>
<path d="M292.5 90h0.0"></path><path d="M449.0 90h0.0"></path><path d="M292.5 90h20"></path><g>
<path d="M312.5 90h116.5"></path></g><path d="M429.0 90h20"></path><path d="M292.5 90a10 10 0 0 1 10 10v0a10 10 0 0 0 10 10"></path><g>
<path d="M312.5 110h0.0"></path><path d="M429.0 110h0.0"></path><path d="M312.5 110h10"></path><g class="non-terminal ">
<path d="M322.5 110h0.0"></path><path d="M419.0 110h0.0"></path><rect height="22" width="96.5" x="322.5" y="99"></rect><text x="370.75" y="114">Timestamp</text><title>integer</title></g><path d="M419.0 110h10"></path><path d="M322.5 110a10 10 0 0 0 -10 10v0a10 10 0 0 0 10 10"></path><g>
<path d="M322.5 130h96.5"></path></g><path d="M419.0 130a10 10 0 0 0 10 -10v0a10 10 0 0 0 -10 -10"></path></g><path d="M429.0 110a10 10 0 0 0 10 -10v0a10 10 0 0 1 10 -10"></path></g><g>
<path d="M449.0 90h0.0"></path><path d="M767.5 90h0.0"></path><path d="M449.0 90h20"></path><g>
<path d="M469.0 90h278.5"></path></g><path d="M747.5 90h20"></path><path d="M449.0 90a10 10 0 0 1 10 10v0a10 10 0 0 0 10 10"></path><g>
<path d="M469.0 110h0.0"></path><path d="M747.5 110h0.0"></path><g class="terminal ">
<path d="M469.0 110h0.0"></path><path d="M616.5 110h0.0"></path><rect height="22" rx="10" ry="10" width="147.5" x="469.0" y="99"></rect><text x="542.75" y="114">FILTER&#95;BY&#95;VALUE</text></g><path d="M616.5 110h10"></path><path d="M626.5 110h10"></path><g class="non-terminal ">
<path d="M636.5 110h0.0"></path><path d="M682.0 110h0.0"></path><rect height="22" width="45.5" x="636.5" y="99"></rect><text x="659.25" y="114">min</text><title>double</title></g><path d="M682.0 110h10"></path><path d="M692.0 110h10"></path><g class="non-terminal ">
<path d="M702.0 110h0.0"></path><path d="M747.5 110h0.0"></path><rect height="22" width="45.5" x="702.0" y="99"></rect><text x="724.75" y="114">max</text><title>double</title></g></g><path d="M747.5 110a10 10 0 0 0 10 -10v0a10 10 0 0 1 10 -10"></path></g></g><path d="M1000.0 90a10 10 0 0 1 10 10v28a10 10 0 0 1 -10 10h-940.0a10 10 0 0 0 -10 10v0a10 10 0 0 0 10 10"></path><g>
<path d="M60.0 158h208.25"></path><path d="M791.75 158h208.25"></path><g>
<path d="M268.25 158h0.0"></path><path d="M606.75 158h0.0"></path><path d="M268.25 158h20"></path><g>
<path d="M288.25 158h298.5"></path></g><path d="M586.75 158h20"></path><path d="M268.25 158a10 10 0 0 1 10 10v29a10 10 0 0 0 10 10"></path><g>
<path d="M288.25 207h0.0"></path><path d="M586.75 207h0.0"></path><path d="M288.25 207a10 10 0 0 0 10 -10v-10a10 10 0 0 1 10 -10"></path><g class="terminal ">
<path d="M308.25 177h76.75"></path><path d="M490.0 177h76.75"></path><rect height="22" rx="10" ry="10" width="105.0" x="385.0" y="166"></rect><text x="437.5" y="181">WITHLABELS</text></g><path d="M566.75 177a10 10 0 0 1 10 10v10a10 10 0 0 0 10 10"></path><path d="M288.25 207h20"></path><g>
<path d="M308.25 207h0.0"></path><path d="M566.75 207h0.0"></path><g class="terminal ">
<path d="M308.25 207h0.0"></path><path d="M455.75 207h0.0"></path><rect height="22" rx="10" ry="10" width="147.5" x="308.25" y="196"></rect><text x="382.0" y="211">SELECTED&#95;LABELS</text></g><path d="M455.75 207h10"></path><path d="M465.75 207h10"></path><g>
<path d="M475.75 207h0.0"></path><path d="M566.75 207h0.0"></path><path d="M475.75 207h10"></path><g class="non-terminal ">
<path d="M485.75 207h0.0"></path><path d="M556.75 207h0.0"></path><rect height="22" width="71.0" x="485.75" y="196"></rect><text x="521.25" y="211">label1</text><title>string</title></g><path d="M556.75 207h10"></path><path d="M485.75 207a10 10 0 0 0 -10 10v0a10 10 0 0 0 10 10"></path><g>
<path d="M485.75 227h71.0"></path></g><path d="M556.75 227a10 10 0 0 0 10 -10v0a10 10 0 0 0 -10 -10"></path></g></g><path d="M566.75 207h20"></path></g><path d="M586.75 207a10 10 0 0 0 10 -10v-29a10 10 0 0 1 10 -10"></path></g><g>
<path d="M606.75 158h0.0"></path><path d="M791.75 158h0.0"></path><path d="M606.75 158h20"></path><g>
<path d="M626.75 158h145.0"></path></g><path d="M771.75 158h20"></path><path d="M606.75 158a10 10 0 0 1 10 10v0a10 10 0 0 0 10 10"></path><g>
<path d="M626.75 178h0.0"></path><path d="M771.75 178h0.0"></path><g class="terminal ">
<path d="M626.75 178h0.0"></path><path d="M689.25 178h0.0"></path><rect height="22" rx="10" ry="10" width="62.5" x="626.75" y="167"></rect><text x="658.0" y="182">COUNT</text></g><path d="M689.25 178h10"></path><path d="M699.25 178h10"></path><g class="non-terminal ">
<path d="M709.25 178h0.0"></path><path d="M771.75 178h0.0"></path><rect height="22" width="62.5" x="709.25" y="167"></rect><text x="740.5" y="182">count</text><title>integer</title></g></g><path d="M771.75 178a10 10 0 0 0 10 -10v0a10 10 0 0 1 10 -10"></path></g></g><path d="M1000.0 158a10 10 0 0 1 10 10v57a10 10 0 0 1 -10 10h-940.0a10 10 0 0 0 -10 10v0a10 10 0 0 0 10 10"></path><g>
<path d="M60.0 255h10.0"></path><path d="M990.0 255h10.0"></path><g>
<path d="M70.0 255h0.0"></path><path d="M990.0 255h0.0"></path><path d="M70.0 255h20"></path><g>
<path d="M90.0 255h880.0"></path></g><path d="M970.0 255h20"></path><path d="M70.0 255a10 10 0 0 1 10 10v179a10 10 0 0 0 10 10"></path><g>
<path d="M90.0 454h0.0"></path><path d="M970.0 454h0.0"></path><g>
<path d="M90.0 454h0.0"></path><path d="M275.0 454h0.0"></path><path d="M90.0 454h20"></path><g>
<path d="M110.0 454h145.0"></path></g><path d="M255.0 454h20"></path><path d="M90.0 454a10 10 0 0 1 10 10v0a10 10 0 0 0 10 10"></path><g>
<path d="M110.0 474h0.0"></path><path d="M255.0 474h0.0"></path><g class="terminal ">
<path d="M110.0 474h0.0"></path><path d="M172.5 474h0.0"></path><rect height="22" rx="10" ry="10" width="62.5" x="110.0" y="463"></rect><text x="141.25" y="478">ALIGN</text></g><path d="M172.5 474h10"></path><path d="M182.5 474h10"></path><g class="non-terminal ">
<path d="M192.5 474h0.0"></path><path d="M255.0 474h0.0"></path><rect height="22" width="62.5" x="192.5" y="463"></rect><text x="223.75" y="478">value</text><title>integer</title></g></g><path d="M255.0 474a10 10 0 0 0 10 -10v0a10 10 0 0 1 10 -10"></path></g><path d="M275.0 454h10"></path><g>
<path d="M285.0 454h0.0"></path><path d="M511.0 454h0.0"></path><g class="terminal ">
<path d="M285.0 454h0.0"></path><path d="M398.5 454h0.0"></path><rect height="22" rx="10" ry="10" width="113.5" x="285.0" y="443"></rect><text x="341.75" y="458">AGGREGATION</text></g><path d="M398.5 454h10"></path><g>
<path d="M408.5 454h0.0"></path><path d="M511.0 454h0.0"></path><path d="M408.5 454a10 10 0 0 0 10 -10v-10a10 10 0 0 1 10 -10"></path><g class="terminal ">
<path d="M428.5 424h8.5"></path><path d="M482.5 424h8.5"></path><rect height="22" rx="10" ry="10" width="45.5" x="437.0" y="413"></rect><text x="459.75" y="428">SUM</text></g><path d="M491.0 424a10 10 0 0 1 10 10v10a10 10 0 0 0 10 10"></path><path d="M408.5 454a10 10 0 0 0 10 -10v-40a10 10 0 0 1 10 -10"></path><g class="terminal ">
<path d="M428.5 394h8.5"></path><path d="M482.5 394h8.5"></path><rect height="22" rx="10" ry="10" width="45.5" x="437.0" y="383"></rect><text x="459.75" y="398">MAX</text></g><path d="M491.0 394a10 10 0 0 1 10 10v40a10 10 0 0 0 10 10"></path><path d="M408.5 454a10 10 0 0 0 10 -10v-70a10 10 0 0 1 10 -10"></path><g class="terminal ">
<path d="M428.5 364h8.5"></path><path d="M482.5 364h8.5"></path><rect height="22" rx="10" ry="10" width="45.5" x="437.0" y="353"></rect><text x="459.75" y="368">MIN</text></g><path d="M491.0 364a10 10 0 0 1 10 10v70a10 10 0 0 0 10 10"></path><path d="M408.5 454a10 10 0 0 0 10 -10v-100a10 10 0 0 1 10 -10"></path><g class="terminal ">
<path d="M428.5 334h4.25"></path><path d="M486.75 334h4.25"></path><rect height="22" rx="10" ry="10" width="54.0" x="432.75" y="323"></rect><text x="459.75" y="338">LAST</text></g><path d="M491.0 334a10 10 0 0 1 10 10v100a10 10 0 0 0 10 10"></path><path d="M408.5 454a10 10 0 0 0 10 -10v-130a10 10 0 0 1 10 -10"></path><g class="terminal ">
<path d="M428.5 304h0.0"></path><path d="M491.0 304h0.0"></path><rect height="22" rx="10" ry="10" width="62.5" x="428.5" y="293"></rect><text x="459.75" y="308">FIRST</text></g><path d="M491.0 304a10 10 0 0 1 10 10v130a10 10 0 0 0 10 10"></path><path d="M408.5 454a10 10 0 0 0 10 -10v-160a10 10 0 0 1 10 -10"></path><g class="terminal ">
<path d="M428.5 274h8.5"></path><path d="M482.5 274h8.5"></path><rect height="22" rx="10" ry="10" width="45.5" x="437.0" y="263"></rect><text x="459.75" y="278">AVG</text></g><path d="M491.0 274a10 10 0 0 1 10 10v160a10 10 0 0 0 10 10"></path><path d="M408.5 454h20"></path><g class="terminal ">
<path d="M428.5 454h0.0"></path><path d="M491.0 454h0.0"></path><rect height="22" rx="10" ry="10" width="62.5" x="428.5" y="443"></rect><text x="459.75" y="458">RANGE</text></g><path d="M491.0 454h20"></path><path d="M408.5 454a10 10 0 0 1 10 10v10a10 10 0 0 0 10 10"></path><g class="terminal ">
<path d="M428.5 484h0.0"></path><path d="M491.0 484h0.0"></path><rect height="22" rx="10" ry="10" width="62.5" x="428.5" y="473"></rect><text x="459.75" y="488">COUNT</text></g><path d="M491.0 484a10 10 0 0 0 10 -10v-10a10 10 0 0 1 10 -10"></path><path d="M408.5 454a10 10 0 0 1 10 10v40a10 10 0 0 0 10 10"></path><g class="terminal ">
<path d="M428.5 514h0.0"></path><path d="M491.0 514h0.0"></path><rect height="22" rx="10" ry="10" width="62.5" x="428.5" y="503"></rect><text x="459.75" y="518">STD.P</text></g><path d="M491.0 514a10 10 0 0 0 10 -10v-40a10 10 0 0 1 10 -10"></path><path d="M408.5 454a10 10 0 0 1 10 10v70a10 10 0 0 0 10 10"></path><g class="terminal ">
<path d="M428.5 544h0.0"></path><path d="M491.0 544h0.0"></path><rect height="22" rx="10" ry="10" width="62.5" x="428.5" y="533"></rect><text x="459.75" y="548">STD.S</text></g><path d="M491.0 544a10 10 0 0 0 10 -10v-70a10 10 0 0 1 10 -10"></path><path d="M408.5 454a10 10 0 0 1 10 10v100a10 10 0 0 0 10 10"></path><g class="terminal ">
<path d="M428.5 574h0.0"></path><path d="M491.0 574h0.0"></path><rect height="22" rx="10" ry="10" width="62.5" x="428.5" y="563"></rect><text x="459.75" y="578">VAR.P</text></g><path d="M491.0 574a10 10 0 0 0 10 -10v-100a10 10 0 0 1 10 -10"></path><path d="M408.5 454a10 10 0 0 1 10 10v130a10 10 0 0 0 10 10"></path><g class="terminal ">
<path d="M428.5 604h0.0"></path><path d="M491.0 604h0.0"></path><rect height="22" rx="10" ry="10" width="62.5" x="428.5" y="593"></rect><text x="459.75" y="608">VAR.S</text></g><path d="M491.0 604a10 10 0 0 0 10 -10v-130a10 10 0 0 1 10 -10"></path><path d="M408.5 454a10 10 0 0 1 10 10v160a10 10 0 0 0 10 10"></path><g class="terminal ">
<path d="M428.5 634h8.5"></path><path d="M482.5 634h8.5"></path><rect height="22" rx="10" ry="10" width="45.5" x="437.0" y="623"></rect><text x="459.75" y="638">TWA</text></g><path d="M491.0 634a10 10 0 0 0 10 -10v-160a10 10 0 0 1 10 -10"></path></g></g><path d="M511.0 454h10"></path><path d="M521.0 454h10"></path><g class="non-terminal ">
<path d="M531.0 454h0.0"></path><path d="M670.0 454h0.0"></path><rect height="22" width="139.0" x="531.0" y="443"></rect><text x="600.5" y="458">bucketDuration</text><title>integer</title></g><path d="M670.0 454h10"></path><g>
<path d="M680.0 454h0.0"></path><path d="M867.5 454h0.0"></path><path d="M680.0 454h20"></path><g>
<path d="M700.0 454h147.5"></path></g><path d="M847.5 454h20"></path><path d="M680.0 454a10 10 0 0 1 10 10v0a10 10 0 0 0 10 10"></path><g class="terminal ">
<path d="M700.0 474h0.0"></path><path d="M847.5 474h0.0"></path><rect height="22" rx="10" ry="10" width="147.5" x="700.0" y="463"></rect><text x="773.75" y="478">BUCKETTIMESTAMP</text></g><path d="M847.5 474a10 10 0 0 0 10 -10v0a10 10 0 0 1 10 -10"></path></g><g>
<path d="M867.5 454h0.0"></path><path d="M970.0 454h0.0"></path><path d="M867.5 454h20"></path><g>
<path d="M887.5 454h62.5"></path></g><path d="M950.0 454h20"></path><path d="M867.5 454a10 10 0 0 1 10 10v0a10 10 0 0 0 10 10"></path><g class="terminal ">
<path d="M887.5 474h0.0"></path><path d="M950.0 474h0.0"></path><rect height="22" rx="10" ry="10" width="62.5" x="887.5" y="463"></rect><text x="918.75" y="478">EMPTY</text></g><path d="M950.0 474a10 10 0 0 0 10 -10v0a10 10 0 0 1 10 -10"></path></g></g><path d="M970.0 454a10 10 0 0 0 10 -10v-179a10 10 0 0 1 10 -10"></path></g></g><path d="M1000.0 255a10 10 0 0 1 10 10v378a10 10 0 0 1 -10 10h-940.0a10 10 0 0 0 -10 10v89a10 10 0 0 0 10 10"></path><g>
<path d="M60.0 762h169.25"></path><path d="M830.75 762h169.25"></path><g>
<path d="M229.25 762h0.0"></path><path d="M428.25 762h0.0"></path><path d="M229.25 762h10"></path><g>
<path d="M239.25 762h0.0"></path><path d="M418.25 762h0.0"></path><path d="M239.25 762a10 10 0 0 0 10 -10v-10a10 10 0 0 1 10 -10"></path><g class="non-terminal ">
<path d="M259.25 732h51.0"></path><path d="M347.25 732h51.0"></path><rect height="22" width="37.0" x="310.25" y="721"></rect><text x="328.75" y="736">l=</text><title>string</title></g><path d="M398.25 732a10 10 0 0 1 10 10v10a10 10 0 0 0 10 10"></path><path d="M239.25 762a10 10 0 0 0 10 -10v-40a10 10 0 0 1 10 -10"></path><g class="non-terminal ">
<path d="M259.25 702h42.5"></path><path d="M355.75 702h42.5"></path><rect height="22" width="54.0" x="301.75" y="691"></rect><text x="328.75" y="706">l!=v</text><title>string</title></g><path d="M398.25 702a10 10 0 0 1 10 10v40a10 10 0 0 0 10 10"></path><path d="M239.25 762a10 10 0 0 0 10 -10v-70a10 10 0 0 1 10 -10"></path><g class="non-terminal ">
<path d="M259.25 672h46.75"></path><path d="M351.5 672h46.75"></path><rect height="22" width="45.5" x="306.0" y="661"></rect><text x="328.75" y="676">l=v</text><title>string</title></g><path d="M398.25 672a10 10 0 0 1 10 10v70a10 10 0 0 0 10 10"></path><path d="M239.25 762h20"></path><g class="non-terminal ">
<path d="M259.25 762h46.75"></path><path d="M351.5 762h46.75"></path><rect height="22" width="45.5" x="306.0" y="751"></rect><text x="328.75" y="766">l!=</text><title>string</title></g><path d="M398.25 762h20"></path><path d="M239.25 762a10 10 0 0 1 10 10v10a10 10 0 0 0 10 10"></path><g class="non-terminal ">
<path d="M259.25 792h4.25"></path><path d="M394.0 792h4.25"></path><rect height="22" width="130.5" x="263.5" y="781"></rect><text x="328.75" y="796">l=(v1,v2,...)</text><title>string</title></g><path d="M398.25 792a10 10 0 0 0 10 -10v-10a10 10 0 0 1 10 -10"></path><path d="M239.25 762a10 10 0 0 1 10 10v40a10 10 0 0 0 10 10"></path><g class="non-terminal ">
<path d="M259.25 822h0.0"></path><path d="M398.25 822h0.0"></path><rect height="22" width="139.0" x="259.25" y="811"></rect><text x="328.75" y="826">l!=(v1,v2,...)</text><title>string</title></g><path d="M398.25 822a10 10 0 0 0 10 -10v-40a10 10 0 0 1 10 -10"></path></g><path d="M418.25 762h10"></path><path d="M239.25 762a10 10 0 0 0 -10 10v59a10 10 0 0 0 10 10"></path><g>
<path d="M239.25 841h179.0"></path></g><path d="M418.25 841a10 10 0 0 0 10 -10v-59a10 10 0 0 0 -10 -10"></path></g><path d="M428.25 762h10"></path><g>
<path d="M438.25 762h0.0"></path><path d="M830.75 762h0.0"></path><path d="M438.25 762h20"></path><g>
<path d="M458.25 762h352.5"></path></g><path d="M810.75 762h20"></path><path d="M438.25 762a10 10 0 0 1 10 10v0a10 10 0 0 0 10 10"></path><g>
<path d="M458.25 782h0.0"></path><path d="M810.75 782h0.0"></path><g class="terminal ">
<path d="M458.25 782h0.0"></path><path d="M537.75 782h0.0"></path><rect height="22" rx="10" ry="10" width="79.5" x="458.25" y="771"></rect><text x="498.0" y="786">GROUPBY</text></g><path d="M537.75 782h10"></path><path d="M547.75 782h10"></path><g class="non-terminal ">
<path d="M557.75 782h0.0"></path><path d="M620.25 782h0.0"></path><rect height="22" width="62.5" x="557.75" y="771"></rect><text x="589.0" y="786">label</text><title>string</title></g><path d="M620.25 782h10"></path><path d="M630.25 782h10"></path><g class="non-terminal ">
<path d="M640.25 782h0.0"></path><path d="M711.25 782h0.0"></path><rect height="22" width="71.0" x="640.25" y="771"></rect><text x="675.75" y="786">REDUCE</text><title>string</title></g><path d="M711.25 782h10"></path><path d="M721.25 782h10"></path><g class="non-terminal ">
<path d="M731.25 782h0.0"></path><path d="M810.75 782h0.0"></path><rect height="22" width="79.5" x="731.25" y="771"></rect><text x="771.0" y="786">reducer</text><title>string</title></g></g><path d="M810.75 782a10 10 0 0 0 10 -10v0a10 10 0 0 1 10 -10"></path></g></g><path d="M1000.0 762h10"></path><path d="M1010.0 762h0.0"></path></g><path d="M1010.0 762h10"></path><path d="M 1020.0 762 h 20 m -10 -10 v 20 m 10 -20 v 20"></path></g></svg>