<svg class="railroad-diagram" viewBox="0 0 475.0 62" xmlns="http://www.w3.org/2000/svg" xmlns:xlink="http://www.w3.org/1999/xlink">
<g transform="translate(.5 .5)">
<g>
<path d="M20 21v20m10 -20v20m-10 -10h20"></path></g><path d="M40 31h10"></path><g>
<path d="M50 31h0.0"></path><g>
<path d="M50.0 31h10.0"></path><path d="M415.0 31h10.0"></path><g class="terminal ">
<path d="M60.0 31h0.0"></path><path d="M258.5 31h0.0"></path><rect height="22" rx="10" ry="10" width="198.5" x="60.0" y="20"></rect><text x="159.25" y="35">CLUSTER GETKEYSINSLOT</text></g><path d="M258.5 31h10"></path><path d="M268.5 31h10"></path><g class="non-terminal ">
<path d="M278.5 31h0.0"></path><path d="M332.5 31h0.0"></path><rect height="22" width="54.0" x="278.5" y="20"></rect><text x="305.5" y="35">slot</text><title>integer</title></g><path d="M332.5 31h10"></path><path d="M342.5 31h10"></path><g class="non-terminal ">
<path d="M352.5 31h0.0"></path><path d="M415.0 31h0.0"></path><rect height="22" width="62.5" x="352.5" y="20"></rect><text x="383.75" y="35">count</text><title>integer</title></g></g><path d="M425.0 31h0.0"></path></g><path d="M425.0 31h10"></path><path d="M 435.0 31 h 20 m -10 -10 v 20 m 10 -20 v 20"></path></g></svg>