<svg class="railroad-diagram" viewBox="0 0 337.5 82" xmlns="http://www.w3.org/2000/svg" xmlns:xlink="http://www.w3.org/1999/xlink">
<g transform="translate(.5 .5)">
<g>
<path d="M20 21v20m10 -20v20m-10 -10h20"></path></g><path d="M40 31h10"></path><g>
<path d="M50 31h0.0"></path><g>
<path d="M50.0 31h10.0"></path><path d="M277.5 31h10.0"></path><g class="terminal ">
<path d="M60.0 31h0.0"></path><path d="M139.5 31h0.0"></path><rect height="22" rx="10" ry="10" width="79.5" x="60.0" y="20"></rect><text x="99.75" y="35">ACL CAT</text></g><path d="M139.5 31h10"></path><g>
<path d="M149.5 31h0.0"></path><path d="M277.5 31h0.0"></path><path d="M149.5 31h20"></path><g>
<path d="M169.5 31h88.0"></path></g><path d="M257.5 31h20"></path><path d="M149.5 31a10 10 0 0 1 10 10v0a10 10 0 0 0 10 10"></path><g class="non-terminal ">
<path d="M169.5 51h0.0"></path><path d="M257.5 51h0.0"></path><rect height="22" width="88.0" x="169.5" y="40"></rect><text x="213.5" y="55">category</text><title>string</title></g><path d="M257.5 51a10 10 0 0 0 10 -10v0a10 10 0 0 1 10 -10"></path></g></g><path d="M287.5 31h0.0"></path></g><path d="M287.5 31h10"></path><path d="M 297.5 31 h 20 m -10 -10 v 20 m 10 -20 v 20"></path></g></svg>