<svg class="railroad-diagram" viewBox="0 0 694.5 248" xmlns="http://www.w3.org/2000/svg" xmlns:xlink="http://www.w3.org/1999/xlink">
<g transform="translate(.5 .5)">
<g>
<path d="M20 21v20m10 -20v20m-10 -10h20"></path></g><path d="M40 31h10"></path><g>
<path d="M50 31h0.0"></path><path d="M50.0 31h10"></path><g>
<path d="M60.0 31h10.0"></path><path d="M624.5 31h10.0"></path><g class="terminal ">
<path d="M70.0 31h0.0"></path><path d="M141.0 31h0.0"></path><rect height="22" rx="10" ry="10" width="71.0" x="70.0" y="20"></rect><text x="105.5" y="35">XCLAIM</text></g><path d="M141.0 31h10"></path><path d="M151.0 31h10"></path><g class="non-terminal ">
<path d="M161.0 31h0.0"></path><path d="M206.5 31h0.0"></path><rect height="22" width="45.5" x="161.0" y="20"></rect><text x="183.75" y="35">key</text><title>key</title></g><path d="M206.5 31h10"></path><path d="M216.5 31h10"></path><g class="non-terminal ">
<path d="M226.5 31h0.0"></path><path d="M289.0 31h0.0"></path><rect height="22" width="62.5" x="226.5" y="20"></rect><text x="257.75" y="35">group</text><title>string</title></g><path d="M289.0 31h10"></path><path d="M299.0 31h10"></path><g class="non-terminal ">
<path d="M309.0 31h0.0"></path><path d="M397.0 31h0.0"></path><rect height="22" width="88.0" x="309.0" y="20"></rect><text x="353.0" y="35">consumer</text><title>string</title></g><path d="M397.0 31h10"></path><path d="M407.0 31h10"></path><g class="non-terminal ">
<path d="M417.0 31h0.0"></path><path d="M547.5 31h0.0"></path><rect height="22" width="130.5" x="417.0" y="20"></rect><text x="482.25" y="35">min-idle-time</text><title>string</title></g><path d="M547.5 31h10"></path><path d="M557.5 31h10"></path><g>
<path d="M567.5 31h0.0"></path><path d="M624.5 31h0.0"></path><path d="M567.5 31h10"></path><g class="non-terminal ">
<path d="M577.5 31h0.0"></path><path d="M614.5 31h0.0"></path><rect height="22" width="37.0" x="577.5" y="20"></rect><text x="596.0" y="35">id</text><title>string</title></g><path d="M614.5 31h10"></path><path d="M577.5 31a10 10 0 0 0 -10 10v0a10 10 0 0 0 10 10"></path><g>
<path d="M577.5 51h37.0"></path></g><path d="M614.5 51a10 10 0 0 0 10 -10v0a10 10 0 0 0 -10 -10"></path></g></g><path d="M634.5 31a10 10 0 0 1 10 10v8a10 10 0 0 1 -10 10h-574.5a10 10 0 0 0 -10 10v0a10 10 0 0 0 10 10"></path><g>
<path d="M60.0 79h51.25"></path><path d="M583.25 79h51.25"></path><g>
<path d="M111.25 79h0.0"></path><path d="M262.25 79h0.0"></path><path d="M111.25 79h20"></path><g>
<path d="M131.25 79h111.0"></path></g><path d="M242.25 79h20"></path><path d="M111.25 79a10 10 0 0 1 10 10v0a10 10 0 0 0 10 10"></path><g>
<path d="M131.25 99h0.0"></path><path d="M242.25 99h0.0"></path><g class="terminal ">
<path d="M131.25 99h0.0"></path><path d="M185.25 99h0.0"></path><rect height="22" rx="10" ry="10" width="54.0" x="131.25" y="88"></rect><text x="158.25" y="103">IDLE</text></g><path d="M185.25 99h10"></path><path d="M195.25 99h10"></path><g class="non-terminal ">
<path d="M205.25 99h0.0"></path><path d="M242.25 99h0.0"></path><rect height="22" width="37.0" x="205.25" y="88"></rect><text x="223.75" y="103">ms</text><title>integer</title></g></g><path d="M242.25 99a10 10 0 0 0 10 -10v0a10 10 0 0 1 10 -10"></path></g><g>
<path d="M262.25 79h0.0"></path><path d="M583.25 79h0.0"></path><path d="M262.25 79h20"></path><g>
<path d="M282.25 79h281.0"></path></g><path d="M563.25 79h20"></path><path d="M262.25 79a10 10 0 0 1 10 10v0a10 10 0 0 0 10 10"></path><g>
<path d="M282.25 99h0.0"></path><path d="M563.25 99h0.0"></path><g class="terminal ">
<path d="M282.25 99h0.0"></path><path d="M336.25 99h0.0"></path><rect height="22" rx="10" ry="10" width="54.0" x="282.25" y="88"></rect><text x="309.25" y="103">TIME</text></g><path d="M336.25 99h10"></path><path d="M346.25 99h10"></path><g class="non-terminal ">
<path d="M356.25 99h0.0"></path><path d="M563.25 99h0.0"></path><rect height="22" width="207.0" x="356.25" y="88"></rect><text x="459.75" y="103">unix-time-milliseconds</text><title>unix-time</title></g></g><path d="M563.25 99a10 10 0 0 0 10 -10v0a10 10 0 0 1 10 -10"></path></g></g><path d="M634.5 79a10 10 0 0 1 10 10v19a10 10 0 0 1 -10 10h-574.5a10 10 0 0 0 -10 10v0a10 10 0 0 0 10 10"></path><g>
<path d="M60.0 138h66.75"></path><path d="M567.75 138h66.75"></path><g>
<path d="M126.75 138h0.0"></path><path d="M354.25 138h0.0"></path><path d="M126.75 138h20"></path><g>
<path d="M146.75 138h187.5"></path></g><path d="M334.25 138h20"></path><path d="M126.75 138a10 10 0 0 1 10 10v0a10 10 0 0 0 10 10"></path><g>
<path d="M146.75 158h0.0"></path><path d="M334.25 158h0.0"></path><g class="terminal ">
<path d="M146.75 158h0.0"></path><path d="M251.75 158h0.0"></path><rect height="22" rx="10" ry="10" width="105.0" x="146.75" y="147"></rect><text x="199.25" y="162">RETRYCOUNT</text></g><path d="M251.75 158h10"></path><path d="M261.75 158h10"></path><g class="non-terminal ">
<path d="M271.75 158h0.0"></path><path d="M334.25 158h0.0"></path><rect height="22" width="62.5" x="271.75" y="147"></rect><text x="303.0" y="162">count</text><title>integer</title></g></g><path d="M334.25 158a10 10 0 0 0 10 -10v0a10 10 0 0 1 10 -10"></path></g><g>
<path d="M354.25 138h0.0"></path><path d="M456.75 138h0.0"></path><path d="M354.25 138h20"></path><g>
<path d="M374.25 138h62.5"></path></g><path d="M436.75 138h20"></path><path d="M354.25 138a10 10 0 0 1 10 10v0a10 10 0 0 0 10 10"></path><g class="terminal ">
<path d="M374.25 158h0.0"></path><path d="M436.75 158h0.0"></path><rect height="22" rx="10" ry="10" width="62.5" x="374.25" y="147"></rect><text x="405.5" y="162">FORCE</text></g><path d="M436.75 158a10 10 0 0 0 10 -10v0a10 10 0 0 1 10 -10"></path></g><g>
<path d="M456.75 138h0.0"></path><path d="M567.75 138h0.0"></path><path d="M456.75 138h20"></path><g>
<path d="M476.75 138h71.0"></path></g><path d="M547.75 138h20"></path><path d="M456.75 138a10 10 0 0 1 10 10v0a10 10 0 0 0 10 10"></path><g class="terminal ">
<path d="M476.75 158h0.0"></path><path d="M547.75 158h0.0"></path><rect height="22" rx="10" ry="10" width="71.0" x="476.75" y="147"></rect><text x="512.25" y="162">JUSTID</text></g><path d="M547.75 158a10 10 0 0 0 10 -10v0a10 10 0 0 1 10 -10"></path></g></g><path d="M634.5 138a10 10 0 0 1 10 10v19a10 10 0 0 1 -10 10h-574.5a10 10 0 0 0 -10 10v0a10 10 0 0 0 10 10"></path><g>
<path d="M60.0 197h186.25"></path><path d="M448.25 197h186.25"></path><g>
<path d="M246.25 197h0.0"></path><path d="M448.25 197h0.0"></path><path d="M246.25 197h20"></path><g>
<path d="M266.25 197h162.0"></path></g><path d="M428.25 197h20"></path><path d="M246.25 197a10 10 0 0 1 10 10v0a10 10 0 0 0 10 10"></path><g>
<path d="M266.25 217h0.0"></path><path d="M428.25 217h0.0"></path><g class="terminal ">
<path d="M266.25 217h0.0"></path><path d="M337.25 217h0.0"></path><rect height="22" rx="10" ry="10" width="71.0" x="266.25" y="206"></rect><text x="301.75" y="221">LASTID</text></g><path d="M337.25 217h10"></path><path d="M347.25 217h10"></path><g class="non-terminal ">
<path d="M357.25 217h0.0"></path><path d="M428.25 217h0.0"></path><rect height="22" width="71.0" x="357.25" y="206"></rect><text x="392.75" y="221">lastid</text><title>string</title></g></g><path d="M428.25 217a10 10 0 0 0 10 -10v0a10 10 0 0 1 10 -10"></path></g></g><path d="M634.5 197h10"></path><path d="M644.5 197h0.0"></path></g><path d="M644.5 197h10"></path><path d="M 654.5 197 h 20 m -10 -10 v 20 m 10 -20 v 20"></path></g></svg>