<svg class="railroad-diagram" viewBox="0 0 771.0 219" xmlns="http://www.w3.org/2000/svg" xmlns:xlink="http://www.w3.org/1999/xlink">
<g transform="translate(.5 .5)">
<g>
<path d="M20 21v20m10 -20v20m-10 -10h20"></path></g><path d="M40 31h10"></path><g>
<path d="M50 31h0.0"></path><path d="M50.0 31h10"></path><g>
<path d="M60.0 31h10.0"></path><path d="M701.0 31h10.0"></path><g class="terminal ">
<path d="M70.0 31h0.0"></path><path d="M175.0 31h0.0"></path><rect height="22" rx="10" ry="10" width="105.0" x="70.0" y="20"></rect><text x="122.5" y="35">HPEXPIREAT</text></g><path d="M175.0 31h10"></path><path d="M185.0 31h10"></path><g class="non-terminal ">
<path d="M195.0 31h0.0"></path><path d="M240.5 31h0.0"></path><rect height="22" width="45.5" x="195.0" y="20"></rect><text x="217.75" y="35">key</text><title>key</title></g><path d="M240.5 31h10"></path><path d="M250.5 31h10"></path><g class="non-terminal ">
<path d="M260.5 31h0.0"></path><path d="M467.5 31h0.0"></path><rect height="22" width="207.0" x="260.5" y="20"></rect><text x="364.0" y="35">unix-time-milliseconds</text><title>unix-time</title></g><path d="M467.5 31h10"></path><g>
<path d="M477.5 31h0.0"></path><path d="M594.5 31h0.0"></path><path d="M477.5 31h20"></path><g>
<path d="M497.5 31h77.0"></path></g><path d="M574.5 31h20"></path><path d="M477.5 31a10 10 0 0 1 10 10v59a10 10 0 0 0 10 10"></path><g>
<path d="M497.5 110h0.0"></path><path d="M574.5 110h0.0"></path><path d="M497.5 110a10 10 0 0 0 10 -10v-10a10 10 0 0 1 10 -10"></path><g class="terminal ">
<path d="M517.5 80h0.0"></path><path d="M554.5 80h0.0"></path><rect height="22" rx="10" ry="10" width="37.0" x="517.5" y="69"></rect><text x="536.0" y="84">XX</text></g><path d="M554.5 80a10 10 0 0 1 10 10v10a10 10 0 0 0 10 10"></path><path d="M497.5 110a10 10 0 0 0 10 -10v-40a10 10 0 0 1 10 -10"></path><g class="terminal ">
<path d="M517.5 50h0.0"></path><path d="M554.5 50h0.0"></path><rect height="22" rx="10" ry="10" width="37.0" x="517.5" y="39"></rect><text x="536.0" y="54">NX</text></g><path d="M554.5 50a10 10 0 0 1 10 10v40a10 10 0 0 0 10 10"></path><path d="M497.5 110h20"></path><g class="terminal ">
<path d="M517.5 110h0.0"></path><path d="M554.5 110h0.0"></path><rect height="22" rx="10" ry="10" width="37.0" x="517.5" y="99"></rect><text x="536.0" y="114">GT</text></g><path d="M554.5 110h20"></path><path d="M497.5 110a10 10 0 0 1 10 10v10a10 10 0 0 0 10 10"></path><g class="terminal ">
<path d="M517.5 140h0.0"></path><path d="M554.5 140h0.0"></path><rect height="22" rx="10" ry="10" width="37.0" x="517.5" y="129"></rect><text x="536.0" y="144">LT</text></g><path d="M554.5 140a10 10 0 0 0 10 -10v-10a10 10 0 0 1 10 -10"></path></g><path d="M574.5 110a10 10 0 0 0 10 -10v-59a10 10 0 0 1 10 -10"></path></g><path d="M594.5 31h10"></path><g class="non-terminal ">
<path d="M604.5 31h0.0"></path><path d="M701.0 31h0.0"></path><rect height="22" width="96.5" x="604.5" y="20"></rect><text x="652.75" y="35">numfields</text><title>integer</title></g></g><path d="M711.0 31a10 10 0 0 1 10 10v108a10 10 0 0 1 -10 10h-651.0a10 10 0 0 0 -10 10v0a10 10 0 0 0 10 10"></path><g>
<path d="M60.0 179h284.25"></path><path d="M426.75 179h284.25"></path><g>
<path d="M344.25 179h0.0"></path><path d="M426.75 179h0.0"></path><path d="M344.25 179h10"></path><g class="non-terminal ">
<path d="M354.25 179h0.0"></path><path d="M416.75 179h0.0"></path><rect height="22" width="62.5" x="354.25" y="168"></rect><text x="385.5" y="183">field</text><title>string</title></g><path d="M416.75 179h10"></path><path d="M354.25 179a10 10 0 0 0 -10 10v0a10 10 0 0 0 10 10"></path><g>
<path d="M354.25 199h62.5"></path></g><path d="M416.75 199a10 10 0 0 0 10 -10v0a10 10 0 0 0 -10 -10"></path></g></g><path d="M711.0 179h10"></path><path d="M721.0 179h0.0"></path></g><path d="M721.0 179h10"></path><path d="M 731.0 179 h 20 m -10 -10 v 20 m 10 -20 v 20"></path></g></svg>