<svg class="railroad-diagram" viewBox="0 0 377.5 82" xmlns="http://www.w3.org/2000/svg" xmlns:xlink="http://www.w3.org/1999/xlink">
<g transform="translate(.5 .5)">
<g>
<path d="M20 21v20m10 -20v20m-10 -10h20"></path></g><path d="M40 31h10"></path><g>
<path d="M50 31h0.0"></path><g>
<path d="M50.0 31h10.0"></path><path d="M317.5 31h10.0"></path><g class="terminal ">
<path d="M60.0 31h0.0"></path><path d="M131.0 31h0.0"></path><rect height="22" rx="10" ry="10" width="71.0" x="60.0" y="20"></rect><text x="95.5" y="35">TS.GET</text></g><path d="M131.0 31h10"></path><path d="M141.0 31h10"></path><g class="non-terminal ">
<path d="M151.0 31h0.0"></path><path d="M196.5 31h0.0"></path><rect height="22" width="45.5" x="151.0" y="20"></rect><text x="173.75" y="35">key</text><title>key</title></g><path d="M196.5 31h10"></path><g>
<path d="M206.5 31h0.0"></path><path d="M317.5 31h0.0"></path><path d="M206.5 31h20"></path><g>
<path d="M226.5 31h71.0"></path></g><path d="M297.5 31h20"></path><path d="M206.5 31a10 10 0 0 1 10 10v0a10 10 0 0 0 10 10"></path><g class="non-terminal ">
<path d="M226.5 51h0.0"></path><path d="M297.5 51h0.0"></path><rect height="22" width="71.0" x="226.5" y="40"></rect><text x="262.0" y="55">LATEST</text><title>string</title></g><path d="M297.5 51a10 10 0 0 0 10 -10v0a10 10 0 0 1 10 -10"></path></g></g><path d="M327.5 31h0.0"></path></g><path d="M327.5 31h10"></path><path d="M 337.5 31 h 20 m -10 -10 v 20 m 10 -20 v 20"></path></g></svg>