<svg class="railroad-diagram" viewBox="0 0 580.5 139" xmlns="http://www.w3.org/2000/svg" xmlns:xlink="http://www.w3.org/1999/xlink">
<g transform="translate(.5 .5)">
<g>
<path d="M20 21v20m10 -20v20m-10 -10h20"></path></g><path d="M40 31h10"></path><g>
<path d="M50 31h0.0"></path><path d="M50.0 31h10"></path><g>
<path d="M60.0 31h10.0"></path><path d="M510.5 31h10.0"></path><g class="terminal ">
<path d="M70.0 31h0.0"></path><path d="M166.5 31h0.0"></path><rect height="22" rx="10" ry="10" width="96.5" x="70.0" y="20"></rect><text x="118.25" y="35">CMS.MERGE</text></g><path d="M166.5 31h10"></path><path d="M176.5 31h10"></path><g class="non-terminal ">
<path d="M186.5 31h0.0"></path><path d="M300.0 31h0.0"></path><rect height="22" width="113.5" x="186.5" y="20"></rect><text x="243.25" y="35">destination</text><title>key</title></g><path d="M300.0 31h10"></path><path d="M310.0 31h10"></path><g class="non-terminal ">
<path d="M320.0 31h0.0"></path><path d="M399.5 31h0.0"></path><rect height="22" width="79.5" x="320.0" y="20"></rect><text x="359.75" y="35">numKeys</text><title>integer</title></g><path d="M399.5 31h10"></path><path d="M409.5 31h10"></path><g>
<path d="M419.5 31h0.0"></path><path d="M510.5 31h0.0"></path><path d="M419.5 31h10"></path><g class="non-terminal ">
<path d="M429.5 31h0.0"></path><path d="M500.5 31h0.0"></path><rect height="22" width="71.0" x="429.5" y="20"></rect><text x="465.0" y="35">source</text><title>key</title></g><path d="M500.5 31h10"></path><path d="M429.5 31a10 10 0 0 0 -10 10v0a10 10 0 0 0 10 10"></path><g>
<path d="M429.5 51h71.0"></path></g><path d="M500.5 51a10 10 0 0 0 10 -10v0a10 10 0 0 0 -10 -10"></path></g></g><path d="M520.5 31a10 10 0 0 1 10 10v8a10 10 0 0 1 -10 10h-460.5a10 10 0 0 0 -10 10v0a10 10 0 0 0 10 10"></path><g>
<path d="M60.0 79h115.0"></path><path d="M405.5 79h115.0"></path><g>
<path d="M175.0 79h0.0"></path><path d="M405.5 79h0.0"></path><path d="M175.0 79h20"></path><g>
<path d="M195.0 79h190.5"></path></g><path d="M385.5 79h20"></path><path d="M175.0 79a10 10 0 0 1 10 10v0a10 10 0 0 0 10 10"></path><g>
<path d="M195.0 99h0.0"></path><path d="M385.5 99h0.0"></path><g class="terminal ">
<path d="M195.0 99h0.0"></path><path d="M274.5 99h0.0"></path><rect height="22" rx="10" ry="10" width="79.5" x="195.0" y="88"></rect><text x="234.75" y="103">WEIGHTS</text></g><path d="M274.5 99h10"></path><path d="M284.5 99h10"></path><g>
<path d="M294.5 99h0.0"></path><path d="M385.5 99h0.0"></path><path d="M294.5 99h10"></path><g class="non-terminal ">
<path d="M304.5 99h0.0"></path><path d="M375.5 99h0.0"></path><rect height="22" width="71.0" x="304.5" y="88"></rect><text x="340.0" y="103">weight</text><title>double</title></g><path d="M375.5 99h10"></path><path d="M304.5 99a10 10 0 0 0 -10 10v0a10 10 0 0 0 10 10"></path><g>
<path d="M304.5 119h71.0"></path></g><path d="M375.5 119a10 10 0 0 0 10 -10v0a10 10 0 0 0 -10 -10"></path></g></g><path d="M385.5 99a10 10 0 0 0 10 -10v0a10 10 0 0 1 10 -10"></path></g></g><path d="M520.5 79h10"></path><path d="M530.5 79h0.0"></path></g><path d="M530.5 79h10"></path><path d="M 540.5 79 h 20 m -10 -10 v 20 m 10 -20 v 20"></path></g></svg>