<svg class="railroad-diagram" viewBox="0 0 619.5 91" xmlns="http://www.w3.org/2000/svg" xmlns:xlink="http://www.w3.org/1999/xlink">
<g transform="translate(.5 .5)">
<g>
<path d="M20 21v20m10 -20v20m-10 -10h20"></path></g><path d="M40 31h10"></path><g>
<path d="M50 31h0.0"></path><g>
<path d="M50.0 31h10.0"></path><path d="M559.5 31h10.0"></path><g class="terminal ">
<path d="M60.0 31h0.0"></path><path d="M165.0 31h0.0"></path><rect height="22" rx="10" ry="10" width="105.0" x="60.0" y="20"></rect><text x="112.5" y="35">EVALSHA&#95;RO</text></g><path d="M165.0 31h10"></path><path d="M175.0 31h10"></path><g class="non-terminal ">
<path d="M185.0 31h0.0"></path><path d="M239.0 31h0.0"></path><rect height="22" width="54.0" x="185.0" y="20"></rect><text x="212.0" y="35">sha1</text><title>string</title></g><path d="M239.0 31h10"></path><path d="M249.0 31h10"></path><g class="non-terminal ">
<path d="M259.0 31h0.0"></path><path d="M338.5 31h0.0"></path><rect height="22" width="79.5" x="259.0" y="20"></rect><text x="298.75" y="35">numkeys</text><title>integer</title></g><path d="M338.5 31h10"></path><g>
<path d="M348.5 31h0.0"></path><path d="M454.0 31h0.0"></path><path d="M348.5 31h20"></path><g>
<path d="M368.5 31h65.5"></path></g><path d="M434.0 31h20"></path><path d="M348.5 31a10 10 0 0 1 10 10v0a10 10 0 0 0 10 10"></path><g>
<path d="M368.5 51h0.0"></path><path d="M434.0 51h0.0"></path><path d="M368.5 51h10"></path><g class="non-terminal ">
<path d="M378.5 51h0.0"></path><path d="M424.0 51h0.0"></path><rect height="22" width="45.5" x="378.5" y="40"></rect><text x="401.25" y="55">key</text><title>key</title></g><path d="M424.0 51h10"></path><path d="M378.5 51a10 10 0 0 0 -10 10v0a10 10 0 0 0 10 10"></path><g>
<path d="M378.5 71h45.5"></path></g><path d="M424.0 71a10 10 0 0 0 10 -10v0a10 10 0 0 0 -10 -10"></path></g><path d="M434.0 51a10 10 0 0 0 10 -10v0a10 10 0 0 1 10 -10"></path></g><g>
<path d="M454.0 31h0.0"></path><path d="M559.5 31h0.0"></path><path d="M454.0 31h20"></path><g>
<path d="M474.0 31h65.5"></path></g><path d="M539.5 31h20"></path><path d="M454.0 31a10 10 0 0 1 10 10v0a10 10 0 0 0 10 10"></path><g>
<path d="M474.0 51h0.0"></path><path d="M539.5 51h0.0"></path><path d="M474.0 51h10"></path><g class="non-terminal ">
<path d="M484.0 51h0.0"></path><path d="M529.5 51h0.0"></path><rect height="22" width="45.5" x="484.0" y="40"></rect><text x="506.75" y="55">arg</text><title>string</title></g><path d="M529.5 51h10"></path><path d="M484.0 51a10 10 0 0 0 -10 10v0a10 10 0 0 0 10 10"></path><g>
<path d="M484.0 71h45.5"></path></g><path d="M529.5 71a10 10 0 0 0 10 -10v0a10 10 0 0 0 -10 -10"></path></g><path d="M539.5 51a10 10 0 0 0 10 -10v0a10 10 0 0 1 10 -10"></path></g></g><path d="M569.5 31h0.0"></path></g><path d="M569.5 31h10"></path><path d="M 579.5 31 h 20 m -10 -10 v 20 m 10 -20 v 20"></path></g></svg>