<svg class="railroad-diagram" viewBox="0 0 674.0 151" xmlns="http://www.w3.org/2000/svg" xmlns:xlink="http://www.w3.org/1999/xlink">
<g transform="translate(.5 .5)">
<g>
<path d="M20 21v20m10 -20v20m-10 -10h20"></path></g><path d="M40 31h10"></path><g>
<path d="M50 31h0.0"></path><g>
<path d="M50.0 31h10.0"></path><path d="M614.0 31h10.0"></path><g class="terminal ">
<path d="M60.0 31h0.0"></path><path d="M131.0 31h0.0"></path><rect height="22" rx="10" ry="10" width="71.0" x="60.0" y="20"></rect><text x="95.5" y="35">BITPOS</text></g><path d="M131.0 31h10"></path><path d="M141.0 31h10"></path><g class="non-terminal ">
<path d="M151.0 31h0.0"></path><path d="M196.5 31h0.0"></path><rect height="22" width="45.5" x="151.0" y="20"></rect><text x="173.75" y="35">key</text><title>key</title></g><path d="M196.5 31h10"></path><path d="M206.5 31h10"></path><g class="non-terminal ">
<path d="M216.5 31h0.0"></path><path d="M262.0 31h0.0"></path><rect height="22" width="45.5" x="216.5" y="20"></rect><text x="239.25" y="35">bit</text><title>integer</title></g><path d="M262.0 31h10"></path><g>
<path d="M272.0 31h0.0"></path><path d="M614.0 31h0.0"></path><path d="M272.0 31h20"></path><g>
<path d="M292.0 31h302.0"></path></g><path d="M594.0 31h20"></path><path d="M272.0 31a10 10 0 0 1 10 10v0a10 10 0 0 0 10 10"></path><g>
<path d="M292.0 51h0.0"></path><path d="M594.0 51h0.0"></path><g class="non-terminal ">
<path d="M292.0 51h0.0"></path><path d="M354.5 51h0.0"></path><rect height="22" width="62.5" x="292.0" y="40"></rect><text x="323.25" y="55">start</text><title>integer</title></g><path d="M354.5 51h10"></path><g>
<path d="M364.5 51h0.0"></path><path d="M594.0 51h0.0"></path><path d="M364.5 51h20"></path><g>
<path d="M384.5 51h189.5"></path></g><path d="M574.0 51h20"></path><path d="M364.5 51a10 10 0 0 1 10 10v0a10 10 0 0 0 10 10"></path><g>
<path d="M384.5 71h0.0"></path><path d="M574.0 71h0.0"></path><g class="non-terminal ">
<path d="M384.5 71h0.0"></path><path d="M430.0 71h0.0"></path><rect height="22" width="45.5" x="384.5" y="60"></rect><text x="407.25" y="75">end</text><title>integer</title></g><path d="M430.0 71h10"></path><g>
<path d="M440.0 71h0.0"></path><path d="M574.0 71h0.0"></path><path d="M440.0 71h20"></path><g>
<path d="M460.0 71h94.0"></path></g><path d="M554.0 71h20"></path><path d="M440.0 71a10 10 0 0 1 10 10v29a10 10 0 0 0 10 10"></path><g>
<path d="M460.0 120h0.0"></path><path d="M554.0 120h0.0"></path><path d="M460.0 120a10 10 0 0 0 10 -10v-10a10 10 0 0 1 10 -10"></path><g class="terminal ">
<path d="M480.0 90h0.0"></path><path d="M534.0 90h0.0"></path><rect height="22" rx="10" ry="10" width="54.0" x="480.0" y="79"></rect><text x="507.0" y="94">BYTE</text></g><path d="M534.0 90a10 10 0 0 1 10 10v10a10 10 0 0 0 10 10"></path><path d="M460.0 120h20"></path><g class="terminal ">
<path d="M480.0 120h4.25"></path><path d="M529.75 120h4.25"></path><rect height="22" rx="10" ry="10" width="45.5" x="484.25" y="109"></rect><text x="507.0" y="124">BIT</text></g><path d="M534.0 120h20"></path></g><path d="M554.0 120a10 10 0 0 0 10 -10v-29a10 10 0 0 1 10 -10"></path></g></g><path d="M574.0 71a10 10 0 0 0 10 -10v0a10 10 0 0 1 10 -10"></path></g></g><path d="M594.0 51a10 10 0 0 0 10 -10v0a10 10 0 0 1 10 -10"></path></g></g><path d="M624.0 31h0.0"></path></g><path d="M624.0 31h10"></path><path d="M 634.0 31 h 20 m -10 -10 v 20 m 10 -20 v 20"></path></g></svg>