<svg class="railroad-diagram" viewBox="0 0 370.0 71" xmlns="http://www.w3.org/2000/svg" xmlns:xlink="http://www.w3.org/1999/xlink">
<g transform="translate(.5 .5)">
<g>
<path d="M20 21v20m10 -20v20m-10 -10h20"></path></g><path d="M40 31h10"></path><g>
<path d="M50 31h0.0"></path><g>
<path d="M50.0 31h10.0"></path><path d="M310.0 31h10.0"></path><g class="terminal ">
<path d="M60.0 31h0.0"></path><path d="M216.0 31h0.0"></path><rect height="22" rx="10" ry="10" width="156.0" x="60.0" y="20"></rect><text x="138.0" y="35">CLUSTER ADDSLOTS</text></g><path d="M216.0 31h10"></path><path d="M226.0 31h10"></path><g>
<path d="M236.0 31h0.0"></path><path d="M310.0 31h0.0"></path><path d="M236.0 31h10"></path><g class="non-terminal ">
<path d="M246.0 31h0.0"></path><path d="M300.0 31h0.0"></path><rect height="22" width="54.0" x="246.0" y="20"></rect><text x="273.0" y="35">slot</text><title>integer</title></g><path d="M300.0 31h10"></path><path d="M246.0 31a10 10 0 0 0 -10 10v0a10 10 0 0 0 10 10"></path><g>
<path d="M246.0 51h54.0"></path></g><path d="M300.0 51a10 10 0 0 0 10 -10v0a10 10 0 0 0 -10 -10"></path></g></g><path d="M320.0 31h0.0"></path></g><path d="M320.0 31h10"></path><path d="M 330.0 31 h 20 m -10 -10 v 20 m 10 -20 v 20"></path></g></svg>