<svg class="railroad-diagram" viewBox="0 0 587.5 152" xmlns="http://www.w3.org/2000/svg" xmlns:xlink="http://www.w3.org/1999/xlink">
<g transform="translate(.5 .5)">
<g>
<path d="M20 81v20m10 -20v20m-10 -10h20"></path></g><path d="M40 91h10"></path><g>
<path d="M50 91h0.0"></path><g>
<path d="M50.0 91h10.0"></path><path d="M527.5 91h10.0"></path><g class="terminal ">
<path d="M60.0 91h0.0"></path><path d="M207.5 91h0.0"></path><rect height="22" rx="10" ry="10" width="147.5" x="60.0" y="80"></rect><text x="133.75" y="95">CLUSTER SETSLOT</text></g><path d="M207.5 91h10"></path><path d="M217.5 91h10"></path><g class="non-terminal ">
<path d="M227.5 91h0.0"></path><path d="M281.5 91h0.0"></path><rect height="22" width="54.0" x="227.5" y="80"></rect><text x="254.5" y="95">slot</text><title>integer</title></g><path d="M281.5 91h10"></path><g>
<path d="M291.5 91h0.0"></path><path d="M527.5 91h0.0"></path><path d="M291.5 91a10 10 0 0 0 10 -10v-10a10 10 0 0 1 10 -10"></path><g>
<path d="M311.5 61h0.0"></path><path d="M507.5 61h0.0"></path><g class="terminal ">
<path d="M311.5 61h0.0"></path><path d="M408.0 61h0.0"></path><rect height="22" rx="10" ry="10" width="96.5" x="311.5" y="50"></rect><text x="359.75" y="65">MIGRATING</text></g><path d="M408.0 61h10"></path><path d="M418.0 61h10"></path><g class="non-terminal ">
<path d="M428.0 61h0.0"></path><path d="M507.5 61h0.0"></path><rect height="22" width="79.5" x="428.0" y="50"></rect><text x="467.75" y="65">node-id</text><title>string</title></g></g><path d="M507.5 61a10 10 0 0 1 10 10v10a10 10 0 0 0 10 10"></path><path d="M291.5 91a10 10 0 0 0 10 -10v-40a10 10 0 0 1 10 -10"></path><g>
<path d="M311.5 31h0.0"></path><path d="M507.5 31h0.0"></path><g class="terminal ">
<path d="M311.5 31h0.0"></path><path d="M408.0 31h0.0"></path><rect height="22" rx="10" ry="10" width="96.5" x="311.5" y="20"></rect><text x="359.75" y="35">IMPORTING</text></g><path d="M408.0 31h10"></path><path d="M418.0 31h10"></path><g class="non-terminal ">
<path d="M428.0 31h0.0"></path><path d="M507.5 31h0.0"></path><rect height="22" width="79.5" x="428.0" y="20"></rect><text x="467.75" y="35">node-id</text><title>string</title></g></g><path d="M507.5 31a10 10 0 0 1 10 10v40a10 10 0 0 0 10 10"></path><path d="M291.5 91h20"></path><g>
<path d="M311.5 91h21.25"></path><path d="M486.25 91h21.25"></path><g class="terminal ">
<path d="M332.75 91h0.0"></path><path d="M386.75 91h0.0"></path><rect height="22" rx="10" ry="10" width="54.0" x="332.75" y="80"></rect><text x="359.75" y="95">NODE</text></g><path d="M386.75 91h10"></path><path d="M396.75 91h10"></path><g class="non-terminal ">
<path d="M406.75 91h0.0"></path><path d="M486.25 91h0.0"></path><rect height="22" width="79.5" x="406.75" y="80"></rect><text x="446.5" y="95">node-id</text><title>string</title></g></g><path d="M507.5 91h20"></path><path d="M291.5 91a10 10 0 0 1 10 10v10a10 10 0 0 0 10 10"></path><g class="terminal ">
<path d="M311.5 121h62.5"></path><path d="M445.0 121h62.5"></path><rect height="22" rx="10" ry="10" width="71.0" x="374.0" y="110"></rect><text x="409.5" y="125">STABLE</text></g><path d="M507.5 121a10 10 0 0 0 10 -10v-10a10 10 0 0 1 10 -10"></path></g></g><path d="M537.5 91h0.0"></path></g><path d="M537.5 91h10"></path><path d="M 547.5 91 h 20 m -10 -10 v 20 m 10 -20 v 20"></path></g></svg>