<svg class="railroad-diagram" viewBox="0 0 659.0 82" xmlns="http://www.w3.org/2000/svg" xmlns:xlink="http://www.w3.org/1999/xlink">
<g transform="translate(.5 .5)">
<g>
<path d="M20 21v20m10 -20v20m-10 -10h20"></path></g><path d="M40 31h10"></path><g>
<path d="M50 31h0.0"></path><g>
<path d="M50.0 31h10.0"></path><path d="M599.0 31h10.0"></path><g class="terminal ">
<path d="M60.0 31h0.0"></path><path d="M182.0 31h0.0"></path><rect height="22" rx="10" ry="10" width="122.0" x="60.0" y="20"></rect><text x="121.0" y="35">TOPK.RESERVE</text></g><path d="M182.0 31h10"></path><path d="M192.0 31h10"></path><g class="non-terminal ">
<path d="M202.0 31h0.0"></path><path d="M247.5 31h0.0"></path><rect height="22" width="45.5" x="202.0" y="20"></rect><text x="224.75" y="35">key</text><title>key</title></g><path d="M247.5 31h10"></path><path d="M257.5 31h10"></path><g class="non-terminal ">
<path d="M267.5 31h0.0"></path><path d="M321.5 31h0.0"></path><rect height="22" width="54.0" x="267.5" y="20"></rect><text x="294.5" y="35">topk</text><title>integer</title></g><path d="M321.5 31h10"></path><g>
<path d="M331.5 31h0.0"></path><path d="M599.0 31h0.0"></path><path d="M331.5 31h20"></path><g>
<path d="M351.5 31h227.5"></path></g><path d="M579.0 31h20"></path><path d="M331.5 31a10 10 0 0 1 10 10v0a10 10 0 0 0 10 10"></path><g>
<path d="M351.5 51h0.0"></path><path d="M579.0 51h0.0"></path><g class="non-terminal ">
<path d="M351.5 51h0.0"></path><path d="M414.0 51h0.0"></path><rect height="22" width="62.5" x="351.5" y="40"></rect><text x="382.75" y="55">width</text><title>integer</title></g><path d="M414.0 51h10"></path><path d="M424.0 51h10"></path><g class="non-terminal ">
<path d="M434.0 51h0.0"></path><path d="M496.5 51h0.0"></path><rect height="22" width="62.5" x="434.0" y="40"></rect><text x="465.25" y="55">depth</text><title>integer</title></g><path d="M496.5 51h10"></path><path d="M506.5 51h10"></path><g class="non-terminal ">
<path d="M516.5 51h0.0"></path><path d="M579.0 51h0.0"></path><rect height="22" width="62.5" x="516.5" y="40"></rect><text x="547.75" y="55">decay</text><title>double</title></g></g><path d="M579.0 51a10 10 0 0 0 10 -10v0a10 10 0 0 1 10 -10"></path></g></g><path d="M609.0 31h0.0"></path></g><path d="M609.0 31h10"></path><path d="M 619.0 31 h 20 m -10 -10 v 20 m 10 -20 v 20"></path></g></svg>