<svg class="railroad-diagram" viewBox="0 0 1076.0 728" xmlns="http://www.w3.org/2000/svg" xmlns:xlink="http://www.w3.org/1999/xlink">
<g transform="translate(.5 .5)">
<g>
<path d="M20 21v20m10 -20v20m-10 -10h20"></path></g><path d="M40 31h10"></path><g>
<path d="M50 31h0.0"></path><path d="M50.0 31h10"></path><g>
<path d="M60.0 31h293.0"></path><path d="M723.0 31h293.0"></path><g class="terminal ">
<path d="M353.0 31h0.0"></path><path d="M449.5 31h0.0"></path><rect height="22" rx="10" ry="10" width="96.5" x="353.0" y="20"></rect><text x="401.25" y="35">FT.CREATE</text></g><path d="M449.5 31h10"></path><path d="M459.5 31h10"></path><g class="non-terminal ">
<path d="M469.5 31h0.0"></path><path d="M532.0 31h0.0"></path><rect height="22" width="62.5" x="469.5" y="20"></rect><text x="500.75" y="35">index</text><title>string</title></g><path d="M532.0 31h10"></path><g>
<path d="M542.0 31h0.0"></path><path d="M723.0 31h0.0"></path><path d="M542.0 31h20"></path><g>
<path d="M562.0 31h141.0"></path></g><path d="M703.0 31h20"></path><path d="M542.0 31a10 10 0 0 1 10 10v29a10 10 0 0 0 10 10"></path><g>
<path d="M562.0 80h0.0"></path><path d="M703.0 80h0.0"></path><g class="terminal ">
<path d="M562.0 80h0.0"></path><path d="M599.0 80h0.0"></path><rect height="22" rx="10" ry="10" width="37.0" x="562.0" y="69"></rect><text x="580.5" y="84">ON</text></g><path d="M599.0 80h10"></path><g>
<path d="M609.0 80h0.0"></path><path d="M703.0 80h0.0"></path><path d="M609.0 80a10 10 0 0 0 10 -10v-10a10 10 0 0 1 10 -10"></path><g class="terminal ">
<path d="M629.0 50h0.0"></path><path d="M683.0 50h0.0"></path><rect height="22" rx="10" ry="10" width="54.0" x="629.0" y="39"></rect><text x="656.0" y="54">HASH</text></g><path d="M683.0 50a10 10 0 0 1 10 10v10a10 10 0 0 0 10 10"></path><path d="M609.0 80h20"></path><g class="terminal ">
<path d="M629.0 80h0.0"></path><path d="M683.0 80h0.0"></path><rect height="22" rx="10" ry="10" width="54.0" x="629.0" y="69"></rect><text x="656.0" y="84">JSON</text></g><path d="M683.0 80h20"></path></g></g><path d="M703.0 80a10 10 0 0 0 10 -10v-29a10 10 0 0 1 10 -10"></path></g></g><path d="M1016.0 31a10 10 0 0 1 10 10v48a10 10 0 0 1 -10 10h-956.0a10 10 0 0 0 -10 10v0a10 10 0 0 0 10 10"></path><g>
<path d="M60.0 119h224.75"></path><path d="M791.25 119h224.75"></path><g>
<path d="M284.75 119h0.0"></path><path d="M589.25 119h0.0"></path><path d="M284.75 119h20"></path><g>
<path d="M304.75 119h264.5"></path></g><path d="M569.25 119h20"></path><path d="M284.75 119a10 10 0 0 1 10 10v0a10 10 0 0 0 10 10"></path><g>
<path d="M304.75 139h0.0"></path><path d="M569.25 139h0.0"></path><g>
<path d="M304.75 139h0.0"></path><path d="M458.25 139h0.0"></path><g class="terminal ">
<path d="M304.75 139h0.0"></path><path d="M375.75 139h0.0"></path><rect height="22" rx="10" ry="10" width="71.0" x="304.75" y="128"></rect><text x="340.25" y="143">PREFIX</text></g><path d="M375.75 139h10"></path><path d="M385.75 139h10"></path><g class="non-terminal ">
<path d="M395.75 139h0.0"></path><path d="M458.25 139h0.0"></path><rect height="22" width="62.5" x="395.75" y="128"></rect><text x="427.0" y="143">count</text><title>integer</title></g></g><path d="M458.25 139h10"></path><path d="M468.25 139h10"></path><g>
<path d="M478.25 139h0.0"></path><path d="M569.25 139h0.0"></path><path d="M478.25 139h10"></path><g class="non-terminal ">
<path d="M488.25 139h0.0"></path><path d="M559.25 139h0.0"></path><rect height="22" width="71.0" x="488.25" y="128"></rect><text x="523.75" y="143">prefix</text><title>string</title></g><path d="M559.25 139h10"></path><path d="M488.25 139a10 10 0 0 0 -10 10v0a10 10 0 0 0 10 10"></path><g>
<path d="M488.25 159h71.0"></path></g><path d="M559.25 159a10 10 0 0 0 10 -10v0a10 10 0 0 0 -10 -10"></path></g></g><path d="M569.25 139a10 10 0 0 0 10 -10v0a10 10 0 0 1 10 -10"></path></g><g>
<path d="M589.25 119h0.0"></path><path d="M791.25 119h0.0"></path><path d="M589.25 119h20"></path><g>
<path d="M609.25 119h162.0"></path></g><path d="M771.25 119h20"></path><path d="M589.25 119a10 10 0 0 1 10 10v0a10 10 0 0 0 10 10"></path><g>
<path d="M609.25 139h0.0"></path><path d="M771.25 139h0.0"></path><g class="terminal ">
<path d="M609.25 139h0.0"></path><path d="M680.25 139h0.0"></path><rect height="22" rx="10" ry="10" width="71.0" x="609.25" y="128"></rect><text x="644.75" y="143">FILTER</text></g><path d="M680.25 139h10"></path><path d="M690.25 139h10"></path><g class="non-terminal ">
<path d="M700.25 139h0.0"></path><path d="M771.25 139h0.0"></path><rect height="22" width="71.0" x="700.25" y="128"></rect><text x="735.75" y="143">filter</text><title>string</title></g></g><path d="M771.25 139a10 10 0 0 0 10 -10v0a10 10 0 0 1 10 -10"></path></g></g><path d="M1016.0 119a10 10 0 0 1 10 10v28a10 10 0 0 1 -10 10h-956.0a10 10 0 0 0 -10 10v0a10 10 0 0 0 10 10"></path><g>
<path d="M60.0 187h174.0"></path><path d="M842.0 187h174.0"></path><g>
<path d="M234.0 187h0.0"></path><path d="M504.0 187h0.0"></path><path d="M234.0 187h20"></path><g>
<path d="M254.0 187h230.0"></path></g><path d="M484.0 187h20"></path><path d="M234.0 187a10 10 0 0 1 10 10v0a10 10 0 0 0 10 10"></path><g>
<path d="M254.0 207h0.0"></path><path d="M484.0 207h0.0"></path><g class="terminal ">
<path d="M254.0 207h0.0"></path><path d="M342.0 207h0.0"></path><rect height="22" rx="10" ry="10" width="88.0" x="254.0" y="196"></rect><text x="298.0" y="211">LANGUAGE</text></g><path d="M342.0 207h10"></path><path d="M352.0 207h10"></path><g class="non-terminal ">
<path d="M362.0 207h0.0"></path><path d="M484.0 207h0.0"></path><rect height="22" width="122.0" x="362.0" y="196"></rect><text x="423.0" y="211">default&#95;lang</text><title>string</title></g></g><path d="M484.0 207a10 10 0 0 0 10 -10v0a10 10 0 0 1 10 -10"></path></g><g>
<path d="M504.0 187h0.0"></path><path d="M842.0 187h0.0"></path><path d="M504.0 187h20"></path><g>
<path d="M524.0 187h298.0"></path></g><path d="M822.0 187h20"></path><path d="M504.0 187a10 10 0 0 1 10 10v0a10 10 0 0 0 10 10"></path><g>
<path d="M524.0 207h0.0"></path><path d="M822.0 207h0.0"></path><g class="terminal ">
<path d="M524.0 207h0.0"></path><path d="M663.0 207h0.0"></path><rect height="22" rx="10" ry="10" width="139.0" x="524.0" y="196"></rect><text x="593.5" y="211">LANGUAGE&#95;FIELD</text></g><path d="M663.0 207h10"></path><path d="M673.0 207h10"></path><g class="non-terminal ">
<path d="M683.0 207h0.0"></path><path d="M822.0 207h0.0"></path><rect height="22" width="139.0" x="683.0" y="196"></rect><text x="752.5" y="211">lang&#95;attribute</text><title>string</title></g></g><path d="M822.0 207a10 10 0 0 0 10 -10v0a10 10 0 0 1 10 -10"></path></g></g><path d="M1016.0 187a10 10 0 0 1 10 10v19a10 10 0 0 1 -10 10h-956.0a10 10 0 0 0 -10 10v0a10 10 0 0 0 10 10"></path><g>
<path d="M60.0 246h191.0"></path><path d="M825.0 246h191.0"></path><g>
<path d="M251.0 246h0.0"></path><path d="M504.0 246h0.0"></path><path d="M251.0 246h20"></path><g>
<path d="M271.0 246h213.0"></path></g><path d="M484.0 246h20"></path><path d="M251.0 246a10 10 0 0 1 10 10v0a10 10 0 0 0 10 10"></path><g>
<path d="M271.0 266h0.0"></path><path d="M484.0 266h0.0"></path><g class="terminal ">
<path d="M271.0 266h0.0"></path><path d="M333.5 266h0.0"></path><rect height="22" rx="10" ry="10" width="62.5" x="271.0" y="255"></rect><text x="302.25" y="270">SCORE</text></g><path d="M333.5 266h10"></path><path d="M343.5 266h10"></path><g class="non-terminal ">
<path d="M353.5 266h0.0"></path><path d="M484.0 266h0.0"></path><rect height="22" width="130.5" x="353.5" y="255"></rect><text x="418.75" y="270">default&#95;score</text><title>double</title></g></g><path d="M484.0 266a10 10 0 0 0 10 -10v0a10 10 0 0 1 10 -10"></path></g><g>
<path d="M504.0 246h0.0"></path><path d="M825.0 246h0.0"></path><path d="M504.0 246h20"></path><g>
<path d="M524.0 246h281.0"></path></g><path d="M805.0 246h20"></path><path d="M504.0 246a10 10 0 0 1 10 10v0a10 10 0 0 0 10 10"></path><g>
<path d="M524.0 266h0.0"></path><path d="M805.0 266h0.0"></path><g class="terminal ">
<path d="M524.0 266h0.0"></path><path d="M637.5 266h0.0"></path><rect height="22" rx="10" ry="10" width="113.5" x="524.0" y="255"></rect><text x="580.75" y="270">SCORE&#95;FIELD</text></g><path d="M637.5 266h10"></path><path d="M647.5 266h10"></path><g class="non-terminal ">
<path d="M657.5 266h0.0"></path><path d="M805.0 266h0.0"></path><rect height="22" width="147.5" x="657.5" y="255"></rect><text x="731.25" y="270">score&#95;attribute</text><title>string</title></g></g><path d="M805.0 266a10 10 0 0 0 10 -10v0a10 10 0 0 1 10 -10"></path></g></g><path d="M1016.0 246a10 10 0 0 1 10 10v19a10 10 0 0 1 -10 10h-956.0a10 10 0 0 0 -10 10v0a10 10 0 0 0 10 10"></path><g>
<path d="M60.0 305h215.25"></path><path d="M800.75 305h215.25"></path><g>
<path d="M275.25 305h0.0"></path><path d="M630.25 305h0.0"></path><path d="M275.25 305h20"></path><g>
<path d="M295.25 305h315.0"></path></g><path d="M610.25 305h20"></path><path d="M275.25 305a10 10 0 0 1 10 10v0a10 10 0 0 0 10 10"></path><g>
<path d="M295.25 325h0.0"></path><path d="M610.25 325h0.0"></path><g class="terminal ">
<path d="M295.25 325h0.0"></path><path d="M425.75 325h0.0"></path><rect height="22" rx="10" ry="10" width="130.5" x="295.25" y="314"></rect><text x="360.5" y="329">PAYLOAD&#95;FIELD</text></g><path d="M425.75 325h10"></path><path d="M435.75 325h10"></path><g class="non-terminal ">
<path d="M445.75 325h0.0"></path><path d="M610.25 325h0.0"></path><rect height="22" width="164.5" x="445.75" y="314"></rect><text x="528.0" y="329">payload&#95;attribute</text><title>string</title></g></g><path d="M610.25 325a10 10 0 0 0 10 -10v0a10 10 0 0 1 10 -10"></path></g><g>
<path d="M630.25 305h0.0"></path><path d="M800.75 305h0.0"></path><path d="M630.25 305h20"></path><g>
<path d="M650.25 305h130.5"></path></g><path d="M780.75 305h20"></path><path d="M630.25 305a10 10 0 0 1 10 10v0a10 10 0 0 0 10 10"></path><g class="terminal ">
<path d="M650.25 325h0.0"></path><path d="M780.75 325h0.0"></path><rect height="22" rx="10" ry="10" width="130.5" x="650.25" y="314"></rect><text x="715.5" y="329">MAXTEXTFIELDS</text></g><path d="M780.75 325a10 10 0 0 0 10 -10v0a10 10 0 0 1 10 -10"></path></g></g><path d="M1016.0 305a10 10 0 0 1 10 10v19a10 10 0 0 1 -10 10h-956.0a10 10 0 0 0 -10 10v0a10 10 0 0 0 10 10"></path><g>
<path d="M60.0 364h180.75"></path><path d="M835.25 364h180.75"></path><g>
<path d="M240.75 364h0.0"></path><path d="M476.75 364h0.0"></path><path d="M240.75 364h20"></path><g>
<path d="M260.75 364h196.0"></path></g><path d="M456.75 364h20"></path><path d="M240.75 364a10 10 0 0 1 10 10v0a10 10 0 0 0 10 10"></path><g>
<path d="M260.75 384h0.0"></path><path d="M456.75 384h0.0"></path><g class="terminal ">
<path d="M260.75 384h0.0"></path><path d="M357.25 384h0.0"></path><rect height="22" rx="10" ry="10" width="96.5" x="260.75" y="373"></rect><text x="309.0" y="388">TEMPORARY</text></g><path d="M357.25 384h10"></path><path d="M367.25 384h10"></path><g class="non-terminal ">
<path d="M377.25 384h0.0"></path><path d="M456.75 384h0.0"></path><rect height="22" width="79.5" x="377.25" y="373"></rect><text x="417.0" y="388">seconds</text><title>double</title></g></g><path d="M456.75 384a10 10 0 0 0 10 -10v0a10 10 0 0 1 10 -10"></path></g><g>
<path d="M476.75 364h0.0"></path><path d="M613.25 364h0.0"></path><path d="M476.75 364h20"></path><g>
<path d="M496.75 364h96.5"></path></g><path d="M593.25 364h20"></path><path d="M476.75 364a10 10 0 0 1 10 10v0a10 10 0 0 0 10 10"></path><g class="terminal ">
<path d="M496.75 384h0.0"></path><path d="M593.25 384h0.0"></path><rect height="22" rx="10" ry="10" width="96.5" x="496.75" y="373"></rect><text x="545.0" y="388">NOOFFSETS</text></g><path d="M593.25 384a10 10 0 0 0 10 -10v0a10 10 0 0 1 10 -10"></path></g><g>
<path d="M613.25 364h0.0"></path><path d="M707.25 364h0.0"></path><path d="M613.25 364h20"></path><g>
<path d="M633.25 364h54.0"></path></g><path d="M687.25 364h20"></path><path d="M613.25 364a10 10 0 0 1 10 10v0a10 10 0 0 0 10 10"></path><g class="terminal ">
<path d="M633.25 384h0.0"></path><path d="M687.25 384h0.0"></path><rect height="22" rx="10" ry="10" width="54.0" x="633.25" y="373"></rect><text x="660.25" y="388">NOHL</text></g><path d="M687.25 384a10 10 0 0 0 10 -10v0a10 10 0 0 1 10 -10"></path></g><g>
<path d="M707.25 364h0.0"></path><path d="M835.25 364h0.0"></path><path d="M707.25 364h20"></path><g>
<path d="M727.25 364h88.0"></path></g><path d="M815.25 364h20"></path><path d="M707.25 364a10 10 0 0 1 10 10v0a10 10 0 0 0 10 10"></path><g class="terminal ">
<path d="M727.25 384h0.0"></path><path d="M815.25 384h0.0"></path><rect height="22" rx="10" ry="10" width="88.0" x="727.25" y="373"></rect><text x="771.25" y="388">NOFIELDS</text></g><path d="M815.25 384a10 10 0 0 0 10 -10v0a10 10 0 0 1 10 -10"></path></g></g><path d="M1016.0 364a10 10 0 0 1 10 10v19a10 10 0 0 1 -10 10h-956.0a10 10 0 0 0 -10 10v0a10 10 0 0 0 10 10"></path><g>
<path d="M60.0 423h229.75"></path><path d="M786.25 423h229.75"></path><g>
<path d="M289.75 423h0.0"></path><path d="M409.25 423h0.0"></path><path d="M289.75 423h20"></path><g>
<path d="M309.75 423h79.5"></path></g><path d="M389.25 423h20"></path><path d="M289.75 423a10 10 0 0 1 10 10v0a10 10 0 0 0 10 10"></path><g class="terminal ">
<path d="M309.75 443h0.0"></path><path d="M389.25 443h0.0"></path><rect height="22" rx="10" ry="10" width="79.5" x="309.75" y="432"></rect><text x="349.5" y="447">NOFREQS</text></g><path d="M389.25 443a10 10 0 0 0 10 -10v0a10 10 0 0 1 10 -10"></path></g><g>
<path d="M409.25 423h0.0"></path><path d="M786.25 423h0.0"></path><path d="M409.25 423h20"></path><g>
<path d="M429.25 423h337.0"></path></g><path d="M766.25 423h20"></path><path d="M409.25 423a10 10 0 0 1 10 10v0a10 10 0 0 0 10 10"></path><g>
<path d="M429.25 443h0.0"></path><path d="M766.25 443h0.0"></path><g class="terminal ">
<path d="M429.25 443h0.0"></path><path d="M525.75 443h0.0"></path><rect height="22" rx="10" ry="10" width="96.5" x="429.25" y="432"></rect><text x="477.5" y="447">STOPWORDS</text></g><path d="M525.75 443h10"></path><path d="M535.75 443h10"></path><g>
<path d="M545.75 443h0.0"></path><path d="M766.25 443h0.0"></path><g class="non-terminal ">
<path d="M545.75 443h0.0"></path><path d="M608.25 443h0.0"></path><rect height="22" width="62.5" x="545.75" y="432"></rect><text x="577.0" y="447">count</text><title>integer</title></g><path d="M608.25 443h10"></path><g>
<path d="M618.25 443h0.0"></path><path d="M766.25 443h0.0"></path><path d="M618.25 443h20"></path><g>
<path d="M638.25 443h108.0"></path></g><path d="M746.25 443h20"></path><path d="M618.25 443a10 10 0 0 1 10 10v0a10 10 0 0 0 10 10"></path><g>
<path d="M638.25 463h0.0"></path><path d="M746.25 463h0.0"></path><path d="M638.25 463h10"></path><g class="non-terminal ">
<path d="M648.25 463h0.0"></path><path d="M736.25 463h0.0"></path><rect height="22" width="88.0" x="648.25" y="452"></rect><text x="692.25" y="467">stopword</text><title>string</title></g><path d="M736.25 463h10"></path><path d="M648.25 463a10 10 0 0 0 -10 10v0a10 10 0 0 0 10 10"></path><g>
<path d="M648.25 483h88.0"></path></g><path d="M736.25 483a10 10 0 0 0 10 -10v0a10 10 0 0 0 -10 -10"></path></g><path d="M746.25 463a10 10 0 0 0 10 -10v0a10 10 0 0 1 10 -10"></path></g></g></g><path d="M766.25 443a10 10 0 0 0 10 -10v0a10 10 0 0 1 10 -10"></path></g></g><path d="M1016.0 423a10 10 0 0 1 10 10v48a10 10 0 0 1 -10 10h-956.0a10 10 0 0 0 -10 10v0a10 10 0 0 0 10 10"></path><g>
<path d="M60.0 511h343.75"></path><path d="M672.25 511h343.75"></path><g>
<path d="M403.75 511h0.0"></path><path d="M591.25 511h0.0"></path><path d="M403.75 511h20"></path><g>
<path d="M423.75 511h147.5"></path></g><path d="M571.25 511h20"></path><path d="M403.75 511a10 10 0 0 1 10 10v0a10 10 0 0 0 10 10"></path><g class="terminal ">
<path d="M423.75 531h0.0"></path><path d="M571.25 531h0.0"></path><rect height="22" rx="10" ry="10" width="147.5" x="423.75" y="520"></rect><text x="497.5" y="535">SKIPINITIALSCAN</text></g><path d="M571.25 531a10 10 0 0 0 10 -10v0a10 10 0 0 1 10 -10"></path></g><path d="M591.25 511h10"></path><g class="terminal ">
<path d="M601.25 511h0.0"></path><path d="M672.25 511h0.0"></path><rect height="22" rx="10" ry="10" width="71.0" x="601.25" y="500"></rect><text x="636.75" y="515">SCHEMA</text></g></g><path d="M1016.0 511a10 10 0 0 1 10 10v19a10 10 0 0 1 -10 10h-956.0a10 10 0 0 0 -10 10v59a10 10 0 0 0 10 10"></path><g>
<path d="M60.0 629h10.0"></path><path d="M1006.0 629h10.0"></path><g>
<path d="M70.0 629h0.0"></path><path d="M1006.0 629h0.0"></path><path d="M70.0 629h10"></path><g>
<path d="M80.0 629h0.0"></path><path d="M996.0 629h0.0"></path><g class="non-terminal ">
<path d="M80.0 629h0.0"></path><path d="M185.0 629h0.0"></path><rect height="22" width="105.0" x="80.0" y="618"></rect><text x="132.5" y="633">field&#95;name</text><title>string</title></g><path d="M185.0 629h10"></path><g>
<path d="M195.0 629h0.0"></path><path d="M354.5 629h0.0"></path><path d="M195.0 629h20"></path><g>
<path d="M215.0 629h119.5"></path></g><path d="M334.5 629h20"></path><path d="M195.0 629a10 10 0 0 1 10 10v0a10 10 0 0 0 10 10"></path><g>
<path d="M215.0 649h0.0"></path><path d="M334.5 649h0.0"></path><g class="terminal ">
<path d="M215.0 649h0.0"></path><path d="M252.0 649h0.0"></path><rect height="22" rx="10" ry="10" width="37.0" x="215.0" y="638"></rect><text x="233.5" y="653">AS</text></g><path d="M252.0 649h10"></path><path d="M262.0 649h10"></path><g class="non-terminal ">
<path d="M272.0 649h0.0"></path><path d="M334.5 649h0.0"></path><rect height="22" width="62.5" x="272.0" y="638"></rect><text x="303.25" y="653">alias</text><title>string</title></g></g><path d="M334.5 649a10 10 0 0 0 10 -10v0a10 10 0 0 1 10 -10"></path></g><g>
<path d="M354.5 629h0.0"></path><path d="M474.0 629h0.0"></path><path d="M354.5 629a10 10 0 0 0 10 -10v-10a10 10 0 0 1 10 -10"></path><g class="terminal ">
<path d="M374.5 599h17.0"></path><path d="M437.0 599h17.0"></path><rect height="22" rx="10" ry="10" width="45.5" x="391.5" y="588"></rect><text x="414.25" y="603">TAG</text></g><path d="M454.0 599a10 10 0 0 1 10 10v10a10 10 0 0 0 10 10"></path><path d="M354.5 629a10 10 0 0 0 10 -10v-40a10 10 0 0 1 10 -10"></path><g class="terminal ">
<path d="M374.5 569h12.75"></path><path d="M441.25 569h12.75"></path><rect height="22" rx="10" ry="10" width="54.0" x="387.25" y="558"></rect><text x="414.25" y="573">TEXT</text></g><path d="M454.0 569a10 10 0 0 1 10 10v40a10 10 0 0 0 10 10"></path><path d="M354.5 629h20"></path><g class="terminal ">
<path d="M374.5 629h0.0"></path><path d="M454.0 629h0.0"></path><rect height="22" rx="10" ry="10" width="79.5" x="374.5" y="618"></rect><text x="414.25" y="633">NUMERIC</text></g><path d="M454.0 629h20"></path><path d="M354.5 629a10 10 0 0 1 10 10v10a10 10 0 0 0 10 10"></path><g class="terminal ">
<path d="M374.5 659h17.0"></path><path d="M437.0 659h17.0"></path><rect height="22" rx="10" ry="10" width="45.5" x="391.5" y="648"></rect><text x="414.25" y="663">GEO</text></g><path d="M454.0 659a10 10 0 0 0 10 -10v-10a10 10 0 0 1 10 -10"></path><path d="M354.5 629a10 10 0 0 1 10 10v40a10 10 0 0 0 10 10"></path><g class="terminal ">
<path d="M374.5 689h4.25"></path><path d="M449.75 689h4.25"></path><rect height="22" rx="10" ry="10" width="71.0" x="378.75" y="678"></rect><text x="414.25" y="693">VECTOR</text></g><path d="M454.0 689a10 10 0 0 0 10 -10v-40a10 10 0 0 1 10 -10"></path></g><g>
<path d="M474.0 629h0.0"></path><path d="M653.0 629h0.0"></path><path d="M474.0 629h20"></path><g>
<path d="M494.0 629h139.0"></path></g><path d="M633.0 629h20"></path><path d="M474.0 629a10 10 0 0 1 10 10v0a10 10 0 0 0 10 10"></path><g class="terminal ">
<path d="M494.0 649h0.0"></path><path d="M633.0 649h0.0"></path><rect height="22" rx="10" ry="10" width="139.0" x="494.0" y="638"></rect><text x="563.5" y="653">WITHSUFFIXTRIE</text></g><path d="M633.0 649a10 10 0 0 0 10 -10v0a10 10 0 0 1 10 -10"></path></g><g>
<path d="M653.0 629h0.0"></path><path d="M876.5 629h0.0"></path><path d="M653.0 629h20"></path><g>
<path d="M673.0 629h183.5"></path></g><path d="M856.5 629h20"></path><path d="M653.0 629a10 10 0 0 1 10 10v0a10 10 0 0 0 10 10"></path><g>
<path d="M673.0 649h0.0"></path><path d="M856.5 649h0.0"></path><g class="terminal ">
<path d="M673.0 649h0.0"></path><path d="M761.0 649h0.0"></path><rect height="22" rx="10" ry="10" width="88.0" x="673.0" y="638"></rect><text x="717.0" y="653">SORTABLE</text></g><path d="M761.0 649h10"></path><g>
<path d="M771.0 649h0.0"></path><path d="M856.5 649h0.0"></path><path d="M771.0 649h20"></path><g>
<path d="M791.0 649h45.5"></path></g><path d="M836.5 649h20"></path><path d="M771.0 649a10 10 0 0 1 10 10v0a10 10 0 0 0 10 10"></path><g class="terminal ">
<path d="M791.0 669h0.0"></path><path d="M836.5 669h0.0"></path><rect height="22" rx="10" ry="10" width="45.5" x="791.0" y="658"></rect><text x="813.75" y="673">UNF</text></g><path d="M836.5 669a10 10 0 0 0 10 -10v0a10 10 0 0 1 10 -10"></path></g></g><path d="M856.5 649a10 10 0 0 0 10 -10v0a10 10 0 0 1 10 -10"></path></g><g>
<path d="M876.5 629h0.0"></path><path d="M996.0 629h0.0"></path><path d="M876.5 629h20"></path><g>
<path d="M896.5 629h79.5"></path></g><path d="M976.0 629h20"></path><path d="M876.5 629a10 10 0 0 1 10 10v0a10 10 0 0 0 10 10"></path><g class="terminal ">
<path d="M896.5 649h0.0"></path><path d="M976.0 649h0.0"></path><rect height="22" rx="10" ry="10" width="79.5" x="896.5" y="638"></rect><text x="936.25" y="653">NOINDEX</text></g><path d="M976.0 649a10 10 0 0 0 10 -10v0a10 10 0 0 1 10 -10"></path></g></g><path d="M996.0 629h10"></path><path d="M80.0 629a10 10 0 0 0 -10 10v59a10 10 0 0 0 10 10"></path><g>
<path d="M80.0 708h916.0"></path></g><path d="M996.0 708a10 10 0 0 0 10 -10v-59a10 10 0 0 0 -10 -10"></path></g></g><path d="M1016.0 629h10"></path><path d="M1026.0 629h0.0"></path></g><path d="M1026.0 629h10"></path><path d="M 1036.0 629 h 20 m -10 -10 v 20 m 10 -20 v 20"></path></g></svg>