<svg class="railroad-diagram" viewBox="0 0 538.0 62" xmlns="http://www.w3.org/2000/svg" xmlns:xlink="http://www.w3.org/1999/xlink">
<g transform="translate(.5 .5)">
<g>
<path d="M20 21v20m10 -20v20m-10 -10h20"></path></g><path d="M40 31h10"></path><g>
<path d="M50 31h0.0"></path><g>
<path d="M50.0 31h10.0"></path><path d="M478.0 31h10.0"></path><g class="terminal ">
<path d="M60.0 31h0.0"></path><path d="M182.0 31h0.0"></path><rect height="22" rx="10" ry="10" width="122.0" x="60.0" y="20"></rect><text x="121.0" y="35">JSON.ARRTRIM</text></g><path d="M182.0 31h10"></path><path d="M192.0 31h10"></path><g class="non-terminal ">
<path d="M202.0 31h0.0"></path><path d="M247.5 31h0.0"></path><rect height="22" width="45.5" x="202.0" y="20"></rect><text x="224.75" y="35">key</text><title>key</title></g><path d="M247.5 31h10"></path><path d="M257.5 31h10"></path><g class="non-terminal ">
<path d="M267.5 31h0.0"></path><path d="M321.5 31h0.0"></path><rect height="22" width="54.0" x="267.5" y="20"></rect><text x="294.5" y="35">path</text><title>string</title></g><path d="M321.5 31h10"></path><path d="M331.5 31h10"></path><g class="non-terminal ">
<path d="M341.5 31h0.0"></path><path d="M404.0 31h0.0"></path><rect height="22" width="62.5" x="341.5" y="20"></rect><text x="372.75" y="35">start</text><title>integer</title></g><path d="M404.0 31h10"></path><path d="M414.0 31h10"></path><g class="non-terminal ">
<path d="M424.0 31h0.0"></path><path d="M478.0 31h0.0"></path><rect height="22" width="54.0" x="424.0" y="20"></rect><text x="451.0" y="35">stop</text><title>integer</title></g></g><path d="M488.0 31h0.0"></path></g><path d="M488.0 31h10"></path><path d="M 498.0 31 h 20 m -10 -10 v 20 m 10 -20 v 20"></path></g></svg>