<svg class="railroad-diagram" viewBox="0 0 689.0 102" xmlns="http://www.w3.org/2000/svg" xmlns:xlink="http://www.w3.org/1999/xlink">
<g transform="translate(.5 .5)">
<g>
<path d="M20 21v20m10 -20v20m-10 -10h20"></path></g><path d="M40 31h10"></path><g>
<path d="M50 31h0.0"></path><g>
<path d="M50.0 31h10.0"></path><path d="M629.0 31h10.0"></path><g class="terminal ">
<path d="M60.0 31h0.0"></path><path d="M190.5 31h0.0"></path><rect height="22" rx="10" ry="10" width="130.5" x="60.0" y="20"></rect><text x="125.25" y="35">JSON.ARRINDEX</text></g><path d="M190.5 31h10"></path><path d="M200.5 31h10"></path><g class="non-terminal ">
<path d="M210.5 31h0.0"></path><path d="M256.0 31h0.0"></path><rect height="22" width="45.5" x="210.5" y="20"></rect><text x="233.25" y="35">key</text><title>key</title></g><path d="M256.0 31h10"></path><path d="M266.0 31h10"></path><g class="non-terminal ">
<path d="M276.0 31h0.0"></path><path d="M330.0 31h0.0"></path><rect height="22" width="54.0" x="276.0" y="20"></rect><text x="303.0" y="35">path</text><title>string</title></g><path d="M330.0 31h10"></path><path d="M340.0 31h10"></path><g class="non-terminal ">
<path d="M350.0 31h0.0"></path><path d="M412.5 31h0.0"></path><rect height="22" width="62.5" x="350.0" y="20"></rect><text x="381.25" y="35">value</text><title>string</title></g><path d="M412.5 31h10"></path><g>
<path d="M422.5 31h0.0"></path><path d="M629.0 31h0.0"></path><path d="M422.5 31h20"></path><g>
<path d="M442.5 31h166.5"></path></g><path d="M609.0 31h20"></path><path d="M422.5 31a10 10 0 0 1 10 10v0a10 10 0 0 0 10 10"></path><g>
<path d="M442.5 51h0.0"></path><path d="M609.0 51h0.0"></path><g class="non-terminal ">
<path d="M442.5 51h0.0"></path><path d="M505.0 51h0.0"></path><rect height="22" width="62.5" x="442.5" y="40"></rect><text x="473.75" y="55">start</text><title>integer</title></g><path d="M505.0 51h10"></path><g>
<path d="M515.0 51h0.0"></path><path d="M609.0 51h0.0"></path><path d="M515.0 51h20"></path><g>
<path d="M535.0 51h54.0"></path></g><path d="M589.0 51h20"></path><path d="M515.0 51a10 10 0 0 1 10 10v0a10 10 0 0 0 10 10"></path><g class="non-terminal ">
<path d="M535.0 71h0.0"></path><path d="M589.0 71h0.0"></path><rect height="22" width="54.0" x="535.0" y="60"></rect><text x="562.0" y="75">stop</text><title>integer</title></g><path d="M589.0 71a10 10 0 0 0 10 -10v0a10 10 0 0 1 10 -10"></path></g></g><path d="M609.0 51a10 10 0 0 0 10 -10v0a10 10 0 0 1 10 -10"></path></g></g><path d="M639.0 31h0.0"></path></g><path d="M639.0 31h10"></path><path d="M 649.0 31 h 20 m -10 -10 v 20 m 10 -20 v 20"></path></g></svg>