<svg class="railroad-diagram" viewBox="0 0 430.0 62" xmlns="http://www.w3.org/2000/svg" xmlns:xlink="http://www.w3.org/1999/xlink">
<g transform="translate(.5 .5)">
<g>
<path d="M20 21v20m10 -20v20m-10 -10h20"></path></g><path d="M40 31h10"></path><g>
<path d="M50 31h0.0"></path><g>
<path d="M50.0 31h10.0"></path><path d="M370.0 31h10.0"></path><g class="terminal ">
<path d="M60.0 31h0.0"></path><path d="M122.5 31h0.0"></path><rect height="22" rx="10" ry="10" width="62.5" x="60.0" y="20"></rect><text x="91.25" y="35">SETEX</text></g><path d="M122.5 31h10"></path><path d="M132.5 31h10"></path><g class="non-terminal ">
<path d="M142.5 31h0.0"></path><path d="M188.0 31h0.0"></path><rect height="22" width="45.5" x="142.5" y="20"></rect><text x="165.25" y="35">key</text><title>key</title></g><path d="M188.0 31h10"></path><path d="M198.0 31h10"></path><g class="non-terminal ">
<path d="M208.0 31h0.0"></path><path d="M287.5 31h0.0"></path><rect height="22" width="79.5" x="208.0" y="20"></rect><text x="247.75" y="35">seconds</text><title>integer</title></g><path d="M287.5 31h10"></path><path d="M297.5 31h10"></path><g class="non-terminal ">
<path d="M307.5 31h0.0"></path><path d="M370.0 31h0.0"></path><rect height="22" width="62.5" x="307.5" y="20"></rect><text x="338.75" y="35">value</text><title>string</title></g></g><path d="M380.0 31h0.0"></path></g><path d="M380.0 31h10"></path><path d="M 390.0 31 h 20 m -10 -10 v 20 m 10 -20 v 20"></path></g></svg>