<svg class="railroad-diagram" viewBox="0 0 736.0 91" xmlns="http://www.w3.org/2000/svg" xmlns:xlink="http://www.w3.org/1999/xlink">
<g transform="translate(.5 .5)">
<g>
<path d="M20 21v20m10 -20v20m-10 -10h20"></path></g><path d="M40 31h10"></path><g>
<path d="M50 31h0.0"></path><g>
<path d="M50.0 31h10.0"></path><path d="M676.0 31h10.0"></path><g class="terminal ">
<path d="M60.0 31h0.0"></path><path d="M190.5 31h0.0"></path><rect height="22" rx="10" ry="10" width="130.5" x="60.0" y="20"></rect><text x="125.25" y="35">MODULE LOADEX</text></g><path d="M190.5 31h10"></path><path d="M200.5 31h10"></path><g class="non-terminal ">
<path d="M210.5 31h0.0"></path><path d="M264.5 31h0.0"></path><rect height="22" width="54.0" x="210.5" y="20"></rect><text x="237.5" y="35">path</text><title>string</title></g><path d="M264.5 31h10"></path><g>
<path d="M274.5 31h0.0"></path><path d="M562.0 31h0.0"></path><path d="M274.5 31h20"></path><g>
<path d="M294.5 31h247.5"></path></g><path d="M542.0 31h20"></path><path d="M274.5 31a10 10 0 0 1 10 10v0a10 10 0 0 0 10 10"></path><g>
<path d="M294.5 51h0.0"></path><path d="M542.0 51h0.0"></path><path d="M294.5 51h10"></path><g>
<path d="M304.5 51h0.0"></path><path d="M532.0 51h0.0"></path><g class="terminal ">
<path d="M304.5 51h0.0"></path><path d="M375.5 51h0.0"></path><rect height="22" rx="10" ry="10" width="71.0" x="304.5" y="40"></rect><text x="340.0" y="55">CONFIG</text></g><path d="M375.5 51h10"></path><path d="M385.5 51h10"></path><g>
<path d="M395.5 51h0.0"></path><path d="M532.0 51h0.0"></path><g class="non-terminal ">
<path d="M395.5 51h0.0"></path><path d="M449.5 51h0.0"></path><rect height="22" width="54.0" x="395.5" y="40"></rect><text x="422.5" y="55">name</text><title>string</title></g><path d="M449.5 51h10"></path><path d="M459.5 51h10"></path><g class="non-terminal ">
<path d="M469.5 51h0.0"></path><path d="M532.0 51h0.0"></path><rect height="22" width="62.5" x="469.5" y="40"></rect><text x="500.75" y="55">value</text><title>string</title></g></g></g><path d="M532.0 51h10"></path><path d="M304.5 51a10 10 0 0 0 -10 10v0a10 10 0 0 0 10 10"></path><g>
<path d="M304.5 71h227.5"></path></g><path d="M532.0 71a10 10 0 0 0 10 -10v0a10 10 0 0 0 -10 -10"></path></g><path d="M542.0 51a10 10 0 0 0 10 -10v0a10 10 0 0 1 10 -10"></path></g><g>
<path d="M562.0 31h0.0"></path><path d="M676.0 31h0.0"></path><path d="M562.0 31h20"></path><g>
<path d="M582.0 31h74.0"></path></g><path d="M656.0 31h20"></path><path d="M562.0 31a10 10 0 0 1 10 10v0a10 10 0 0 0 10 10"></path><g>
<path d="M582.0 51h0.0"></path><path d="M656.0 51h0.0"></path><path d="M582.0 51h10"></path><g class="non-terminal ">
<path d="M592.0 51h0.0"></path><path d="M646.0 51h0.0"></path><rect height="22" width="54.0" x="592.0" y="40"></rect><text x="619.0" y="55">args</text><title>string</title></g><path d="M646.0 51h10"></path><path d="M592.0 51a10 10 0 0 0 -10 10v0a10 10 0 0 0 10 10"></path><g>
<path d="M592.0 71h54.0"></path></g><path d="M646.0 71a10 10 0 0 0 10 -10v0a10 10 0 0 0 -10 -10"></path></g><path d="M656.0 51a10 10 0 0 0 10 -10v0a10 10 0 0 1 10 -10"></path></g></g><path d="M686.0 31h0.0"></path></g><path d="M686.0 31h10"></path><path d="M 696.0 31 h 20 m -10 -10 v 20 m 10 -20 v 20"></path></g></svg>