<svg class="railroad-diagram" viewBox="0 0 752.0 82" xmlns="http://www.w3.org/2000/svg" xmlns:xlink="http://www.w3.org/1999/xlink">
<g transform="translate(.5 .5)">
<g>
<path d="M20 21v20m10 -20v20m-10 -10h20"></path></g><path d="M40 31h10"></path><g>
<path d="M50 31h0.0"></path><g>
<path d="M50.0 31h10.0"></path><path d="M692.0 31h10.0"></path><g class="terminal ">
<path d="M60.0 31h0.0"></path><path d="M190.5 31h0.0"></path><rect height="22" rx="10" ry="10" width="130.5" x="60.0" y="20"></rect><text x="125.25" y="35">FUNCTION LIST</text></g><path d="M190.5 31h10"></path><g>
<path d="M200.5 31h0.0"></path><path d="M564.0 31h0.0"></path><path d="M200.5 31h20"></path><g>
<path d="M220.5 31h323.5"></path></g><path d="M544.0 31h20"></path><path d="M200.5 31a10 10 0 0 1 10 10v0a10 10 0 0 0 10 10"></path><g>
<path d="M220.5 51h0.0"></path><path d="M544.0 51h0.0"></path><g class="terminal ">
<path d="M220.5 51h0.0"></path><path d="M334.0 51h0.0"></path><rect height="22" rx="10" ry="10" width="113.5" x="220.5" y="40"></rect><text x="277.25" y="55">LIBRARYNAME</text></g><path d="M334.0 51h10"></path><path d="M344.0 51h10"></path><g class="non-terminal ">
<path d="M354.0 51h0.0"></path><path d="M544.0 51h0.0"></path><rect height="22" width="190.0" x="354.0" y="40"></rect><text x="449.0" y="55">library-name-pattern</text><title>string</title></g></g><path d="M544.0 51a10 10 0 0 0 10 -10v0a10 10 0 0 1 10 -10"></path></g><g>
<path d="M564.0 31h0.0"></path><path d="M692.0 31h0.0"></path><path d="M564.0 31h20"></path><g>
<path d="M584.0 31h88.0"></path></g><path d="M672.0 31h20"></path><path d="M564.0 31a10 10 0 0 1 10 10v0a10 10 0 0 0 10 10"></path><g class="terminal ">
<path d="M584.0 51h0.0"></path><path d="M672.0 51h0.0"></path><rect height="22" rx="10" ry="10" width="88.0" x="584.0" y="40"></rect><text x="628.0" y="55">WITHCODE</text></g><path d="M672.0 51a10 10 0 0 0 10 -10v0a10 10 0 0 1 10 -10"></path></g></g><path d="M702.0 31h0.0"></path></g><path d="M702.0 31h10"></path><path d="M 712.0 31 h 20 m -10 -10 v 20 m 10 -20 v 20"></path></g></svg>