<svg class="railroad-diagram" viewBox="0 0 619.0 82" xmlns="http://www.w3.org/2000/svg" xmlns:xlink="http://www.w3.org/1999/xlink">
<g transform="translate(.5 .5)">
<g>
<path d="M20 21v20m10 -20v20m-10 -10h20"></path></g><path d="M40 31h10"></path><g>
<path d="M50 31h0.0"></path><g>
<path d="M50.0 31h10.0"></path><path d="M559.0 31h10.0"></path><g class="terminal ">
<path d="M60.0 31h0.0"></path><path d="M165.0 31h0.0"></path><rect height="22" rx="10" ry="10" width="105.0" x="60.0" y="20"></rect><text x="112.5" y="35">FT.EXPLAIN</text></g><path d="M165.0 31h10"></path><path d="M175.0 31h10"></path><g class="non-terminal ">
<path d="M185.0 31h0.0"></path><path d="M247.5 31h0.0"></path><rect height="22" width="62.5" x="185.0" y="20"></rect><text x="216.25" y="35">index</text><title>string</title></g><path d="M247.5 31h10"></path><path d="M257.5 31h10"></path><g class="non-terminal ">
<path d="M267.5 31h0.0"></path><path d="M330.0 31h0.0"></path><rect height="22" width="62.5" x="267.5" y="20"></rect><text x="298.75" y="35">query</text><title>string</title></g><path d="M330.0 31h10"></path><g>
<path d="M340.0 31h0.0"></path><path d="M559.0 31h0.0"></path><path d="M340.0 31h20"></path><g>
<path d="M360.0 31h179.0"></path></g><path d="M539.0 31h20"></path><path d="M340.0 31a10 10 0 0 1 10 10v0a10 10 0 0 0 10 10"></path><g>
<path d="M360.0 51h0.0"></path><path d="M539.0 51h0.0"></path><g class="terminal ">
<path d="M360.0 51h0.0"></path><path d="M439.5 51h0.0"></path><rect height="22" rx="10" ry="10" width="79.5" x="360.0" y="40"></rect><text x="399.75" y="55">DIALECT</text></g><path d="M439.5 51h10"></path><path d="M449.5 51h10"></path><g class="non-terminal ">
<path d="M459.5 51h0.0"></path><path d="M539.0 51h0.0"></path><rect height="22" width="79.5" x="459.5" y="40"></rect><text x="499.25" y="55">dialect</text><title>integer</title></g></g><path d="M539.0 51a10 10 0 0 0 10 -10v0a10 10 0 0 1 10 -10"></path></g></g><path d="M569.0 31h0.0"></path></g><path d="M569.0 31h10"></path><path d="M 579.0 31 h 20 m -10 -10 v 20 m 10 -20 v 20"></path></g></svg>