<svg class="railroad-diagram" viewBox="0 0 496.5 92" xmlns="http://www.w3.org/2000/svg" xmlns:xlink="http://www.w3.org/1999/xlink">
<g transform="translate(.5 .5)">
<g>
<path d="M20 51v20m10 -20v20m-10 -10h20"></path></g><path d="M40 61h10"></path><g>
<path d="M50 61h0.0"></path><g>
<path d="M50.0 61h10.0"></path><path d="M436.5 61h10.0"></path><g class="terminal ">
<path d="M60.0 61h0.0"></path><path d="M199.0 61h0.0"></path><rect height="22" rx="10" ry="10" width="139.0" x="60.0" y="50"></rect><text x="129.5" y="65">CLIENT SETINFO</text></g><path d="M199.0 61h10"></path><g>
<path d="M209.0 61h0.0"></path><path d="M436.5 61h0.0"></path><path d="M209.0 61a10 10 0 0 0 10 -10v-10a10 10 0 0 1 10 -10"></path><g>
<path d="M229.0 31h0.0"></path><path d="M416.5 31h0.0"></path><g class="terminal ">
<path d="M229.0 31h0.0"></path><path d="M317.0 31h0.0"></path><rect height="22" rx="10" ry="10" width="88.0" x="229.0" y="20"></rect><text x="273.0" y="35">LIB-NAME</text></g><path d="M317.0 31h10"></path><path d="M327.0 31h10"></path><g class="non-terminal ">
<path d="M337.0 31h0.0"></path><path d="M416.5 31h0.0"></path><rect height="22" width="79.5" x="337.0" y="20"></rect><text x="376.75" y="35">libname</text><title>string</title></g></g><path d="M416.5 31a10 10 0 0 1 10 10v10a10 10 0 0 0 10 10"></path><path d="M209.0 61h20"></path><g>
<path d="M229.0 61h8.5"></path><path d="M408.0 61h8.5"></path><g class="terminal ">
<path d="M237.5 61h0.0"></path><path d="M317.0 61h0.0"></path><rect height="22" rx="10" ry="10" width="79.5" x="237.5" y="50"></rect><text x="277.25" y="65">LIB-VER</text></g><path d="M317.0 61h10"></path><path d="M327.0 61h10"></path><g class="non-terminal ">
<path d="M337.0 61h0.0"></path><path d="M408.0 61h0.0"></path><rect height="22" width="71.0" x="337.0" y="50"></rect><text x="372.5" y="65">libver</text><title>string</title></g></g><path d="M416.5 61h20"></path></g></g><path d="M446.5 61h0.0"></path></g><path d="M446.5 61h10"></path><path d="M 456.5 61 h 20 m -10 -10 v 20 m 10 -20 v 20"></path></g></svg>