<svg class="railroad-diagram" viewBox="0 0 685.0 498" xmlns="http://www.w3.org/2000/svg" xmlns:xlink="http://www.w3.org/1999/xlink">
<g transform="translate(.5 .5)">
<g>
<path d="M20 51v20m10 -20v20m-10 -10h20"></path></g><path d="M40 61h10"></path><g>
<path d="M50 61h0.0"></path><path d="M50.0 61h10"></path><g>
<path d="M60.0 61h11.75"></path><path d="M613.25 61h11.75"></path><g class="terminal ">
<path d="M71.75 61h0.0"></path><path d="M168.25 61h0.0"></path><rect height="22" rx="10" ry="10" width="96.5" x="71.75" y="50"></rect><text x="120.0" y="65">GEOSEARCH</text></g><path d="M168.25 61h10"></path><path d="M178.25 61h10"></path><g class="non-terminal ">
<path d="M188.25 61h0.0"></path><path d="M233.75 61h0.0"></path><rect height="22" width="45.5" x="188.25" y="50"></rect><text x="211.0" y="65">key</text><title>key</title></g><path d="M233.75 61h10"></path><g>
<path d="M243.75 61h0.0"></path><path d="M613.25 61h0.0"></path><path d="M243.75 61a10 10 0 0 0 10 -10v-10a10 10 0 0 1 10 -10"></path><g>
<path d="M263.75 31h66.75"></path><path d="M526.5 31h66.75"></path><g class="terminal ">
<path d="M330.5 31h0.0"></path><path d="M435.5 31h0.0"></path><rect height="22" rx="10" ry="10" width="105.0" x="330.5" y="20"></rect><text x="383.0" y="35">FROMMEMBER</text></g><path d="M435.5 31h10"></path><path d="M445.5 31h10"></path><g class="non-terminal ">
<path d="M455.5 31h0.0"></path><path d="M526.5 31h0.0"></path><rect height="22" width="71.0" x="455.5" y="20"></rect><text x="491.0" y="35">member</text><title>string</title></g></g><path d="M593.25 31a10 10 0 0 1 10 10v10a10 10 0 0 0 10 10"></path><path d="M243.75 61h20"></path><g>
<path d="M263.75 61h0.0"></path><path d="M593.25 61h0.0"></path><g class="terminal ">
<path d="M263.75 61h0.0"></path><path d="M368.75 61h0.0"></path><rect height="22" rx="10" ry="10" width="105.0" x="263.75" y="50"></rect><text x="316.25" y="65">FROMLONLAT</text></g><path d="M368.75 61h10"></path><path d="M378.75 61h10"></path><g>
<path d="M388.75 61h0.0"></path><path d="M593.25 61h0.0"></path><g class="non-terminal ">
<path d="M388.75 61h0.0"></path><path d="M485.25 61h0.0"></path><rect height="22" width="96.5" x="388.75" y="50"></rect><text x="437.0" y="65">longitude</text><title>double</title></g><path d="M485.25 61h10"></path><path d="M495.25 61h10"></path><g class="non-terminal ">
<path d="M505.25 61h0.0"></path><path d="M593.25 61h0.0"></path><rect height="22" width="88.0" x="505.25" y="50"></rect><text x="549.25" y="65">latitude</text><title>double</title></g></g></g><path d="M593.25 61h20"></path></g></g><path d="M625.0 61a10 10 0 0 1 10 10v0a10 10 0 0 1 -10 10h-565.0a10 10 0 0 0 -10 10v179a10 10 0 0 0 10 10"></path><g>
<path d="M60.0 280h34.0"></path><path d="M591.0 280h34.0"></path><g>
<path d="M94.0 280h0.0"></path><path d="M457.0 280h0.0"></path><path d="M94.0 280a10 10 0 0 0 10 -10v-100a10 10 0 0 1 10 -10"></path><g>
<path d="M114.0 160h28.5"></path><path d="M408.5 160h28.5"></path><g>
<path d="M142.5 160h0.0"></path><path d="M321.5 160h0.0"></path><g class="terminal ">
<path d="M142.5 160h0.0"></path><path d="M230.5 160h0.0"></path><rect height="22" rx="10" ry="10" width="88.0" x="142.5" y="149"></rect><text x="186.5" y="164">BYRADIUS</text></g><path d="M230.5 160h10"></path><path d="M240.5 160h10"></path><g class="non-terminal ">
<path d="M250.5 160h0.0"></path><path d="M321.5 160h0.0"></path><rect height="22" width="71.0" x="250.5" y="149"></rect><text x="286.0" y="164">radius</text><title>double</title></g></g><path d="M321.5 160h10"></path><g>
<path d="M331.5 160h0.0"></path><path d="M408.5 160h0.0"></path><path d="M331.5 160a10 10 0 0 0 10 -10v-10a10 10 0 0 1 10 -10"></path><g class="terminal ">
<path d="M351.5 130h0.0"></path><path d="M388.5 130h0.0"></path><rect height="22" rx="10" ry="10" width="37.0" x="351.5" y="119"></rect><text x="370.0" y="134">KM</text></g><path d="M388.5 130a10 10 0 0 1 10 10v10a10 10 0 0 0 10 10"></path><path d="M331.5 160a10 10 0 0 0 10 -10v-40a10 10 0 0 1 10 -10"></path><g class="terminal ">
<path d="M351.5 100h4.25"></path><path d="M384.25 100h4.25"></path><rect height="22" rx="10" ry="10" width="28.5" x="355.75" y="89"></rect><text x="370.0" y="104">M</text></g><path d="M388.5 100a10 10 0 0 1 10 10v40a10 10 0 0 0 10 10"></path><path d="M331.5 160h20"></path><g class="terminal ">
<path d="M351.5 160h0.0"></path><path d="M388.5 160h0.0"></path><rect height="22" rx="10" ry="10" width="37.0" x="351.5" y="149"></rect><text x="370.0" y="164">FT</text></g><path d="M388.5 160h20"></path><path d="M331.5 160a10 10 0 0 1 10 10v10a10 10 0 0 0 10 10"></path><g class="terminal ">
<path d="M351.5 190h0.0"></path><path d="M388.5 190h0.0"></path><rect height="22" rx="10" ry="10" width="37.0" x="351.5" y="179"></rect><text x="370.0" y="194">MI</text></g><path d="M388.5 190a10 10 0 0 0 10 -10v-10a10 10 0 0 1 10 -10"></path></g></g><path d="M437.0 160a10 10 0 0 1 10 10v100a10 10 0 0 0 10 10"></path><path d="M94.0 280h20"></path><g>
<path d="M114.0 280h0.0"></path><path d="M437.0 280h0.0"></path><g>
<path d="M114.0 280h0.0"></path><path d="M259.0 280h0.0"></path><g class="terminal ">
<path d="M114.0 280h0.0"></path><path d="M176.5 280h0.0"></path><rect height="22" rx="10" ry="10" width="62.5" x="114.0" y="269"></rect><text x="145.25" y="284">BYBOX</text></g><path d="M176.5 280h10"></path><path d="M186.5 280h10"></path><g class="non-terminal ">
<path d="M196.5 280h0.0"></path><path d="M259.0 280h0.0"></path><rect height="22" width="62.5" x="196.5" y="269"></rect><text x="227.75" y="284">width</text><title>double</title></g></g><path d="M259.0 280h10"></path><path d="M269.0 280h10"></path><g class="non-terminal ">
<path d="M279.0 280h0.0"></path><path d="M350.0 280h0.0"></path><rect height="22" width="71.0" x="279.0" y="269"></rect><text x="314.5" y="284">height</text><title>double</title></g><path d="M350.0 280h10"></path><g>
<path d="M360.0 280h0.0"></path><path d="M437.0 280h0.0"></path><path d="M360.0 280a10 10 0 0 0 10 -10v-10a10 10 0 0 1 10 -10"></path><g class="terminal ">
<path d="M380.0 250h0.0"></path><path d="M417.0 250h0.0"></path><rect height="22" rx="10" ry="10" width="37.0" x="380.0" y="239"></rect><text x="398.5" y="254">KM</text></g><path d="M417.0 250a10 10 0 0 1 10 10v10a10 10 0 0 0 10 10"></path><path d="M360.0 280a10 10 0 0 0 10 -10v-40a10 10 0 0 1 10 -10"></path><g class="terminal ">
<path d="M380.0 220h4.25"></path><path d="M412.75 220h4.25"></path><rect height="22" rx="10" ry="10" width="28.5" x="384.25" y="209"></rect><text x="398.5" y="224">M</text></g><path d="M417.0 220a10 10 0 0 1 10 10v40a10 10 0 0 0 10 10"></path><path d="M360.0 280h20"></path><g class="terminal ">
<path d="M380.0 280h0.0"></path><path d="M417.0 280h0.0"></path><rect height="22" rx="10" ry="10" width="37.0" x="380.0" y="269"></rect><text x="398.5" y="284">FT</text></g><path d="M417.0 280h20"></path><path d="M360.0 280a10 10 0 0 1 10 10v10a10 10 0 0 0 10 10"></path><g class="terminal ">
<path d="M380.0 310h0.0"></path><path d="M417.0 310h0.0"></path><rect height="22" rx="10" ry="10" width="37.0" x="380.0" y="299"></rect><text x="398.5" y="314">MI</text></g><path d="M417.0 310a10 10 0 0 0 10 -10v-10a10 10 0 0 1 10 -10"></path></g></g><path d="M437.0 280h20"></path></g><g>
<path d="M457.0 280h0.0"></path><path d="M591.0 280h0.0"></path><path d="M457.0 280h20"></path><g>
<path d="M477.0 280h94.0"></path></g><path d="M571.0 280h20"></path><path d="M457.0 280a10 10 0 0 1 10 10v29a10 10 0 0 0 10 10"></path><g>
<path d="M477.0 329h0.0"></path><path d="M571.0 329h0.0"></path><path d="M477.0 329a10 10 0 0 0 10 -10v-10a10 10 0 0 1 10 -10"></path><g class="terminal ">
<path d="M497.0 299h4.25"></path><path d="M546.75 299h4.25"></path><rect height="22" rx="10" ry="10" width="45.5" x="501.25" y="288"></rect><text x="524.0" y="303">ASC</text></g><path d="M551.0 299a10 10 0 0 1 10 10v10a10 10 0 0 0 10 10"></path><path d="M477.0 329h20"></path><g class="terminal ">
<path d="M497.0 329h0.0"></path><path d="M551.0 329h0.0"></path><rect height="22" rx="10" ry="10" width="54.0" x="497.0" y="318"></rect><text x="524.0" y="333">DESC</text></g><path d="M551.0 329h20"></path></g><path d="M571.0 329a10 10 0 0 0 10 -10v-29a10 10 0 0 1 10 -10"></path></g></g><path d="M625.0 280a10 10 0 0 1 10 10v48a10 10 0 0 1 -10 10h-565.0a10 10 0 0 0 -10 10v0a10 10 0 0 0 10 10"></path><g>
<path d="M60.0 368h10.0"></path><path d="M615.0 368h10.0"></path><g>
<path d="M70.0 368h0.0"></path><path d="M350.5 368h0.0"></path><path d="M70.0 368h20"></path><g>
<path d="M90.0 368h240.5"></path></g><path d="M330.5 368h20"></path><path d="M70.0 368a10 10 0 0 1 10 10v0a10 10 0 0 0 10 10"></path><g>
<path d="M90.0 388h0.0"></path><path d="M330.5 388h0.0"></path><g>
<path d="M90.0 388h0.0"></path><path d="M235.0 388h0.0"></path><g class="terminal ">
<path d="M90.0 388h0.0"></path><path d="M152.5 388h0.0"></path><rect height="22" rx="10" ry="10" width="62.5" x="90.0" y="377"></rect><text x="121.25" y="392">COUNT</text></g><path d="M152.5 388h10"></path><path d="M162.5 388h10"></path><g class="non-terminal ">
<path d="M172.5 388h0.0"></path><path d="M235.0 388h0.0"></path><rect height="22" width="62.5" x="172.5" y="377"></rect><text x="203.75" y="392">count</text><title>integer</title></g></g><path d="M235.0 388h10"></path><g>
<path d="M245.0 388h0.0"></path><path d="M330.5 388h0.0"></path><path d="M245.0 388h20"></path><g>
<path d="M265.0 388h45.5"></path></g><path d="M310.5 388h20"></path><path d="M245.0 388a10 10 0 0 1 10 10v0a10 10 0 0 0 10 10"></path><g class="terminal ">
<path d="M265.0 408h0.0"></path><path d="M310.5 408h0.0"></path><rect height="22" rx="10" ry="10" width="45.5" x="265.0" y="397"></rect><text x="287.75" y="412">ANY</text></g><path d="M310.5 408a10 10 0 0 0 10 -10v0a10 10 0 0 1 10 -10"></path></g></g><path d="M330.5 388a10 10 0 0 0 10 -10v0a10 10 0 0 1 10 -10"></path></g><g>
<path d="M350.5 368h0.0"></path><path d="M487.0 368h0.0"></path><path d="M350.5 368h20"></path><g>
<path d="M370.5 368h96.5"></path></g><path d="M467.0 368h20"></path><path d="M350.5 368a10 10 0 0 1 10 10v0a10 10 0 0 0 10 10"></path><g class="terminal ">
<path d="M370.5 388h0.0"></path><path d="M467.0 388h0.0"></path><rect height="22" rx="10" ry="10" width="96.5" x="370.5" y="377"></rect><text x="418.75" y="392">WITHCOORD</text></g><path d="M467.0 388a10 10 0 0 0 10 -10v0a10 10 0 0 1 10 -10"></path></g><g>
<path d="M487.0 368h0.0"></path><path d="M615.0 368h0.0"></path><path d="M487.0 368h20"></path><g>
<path d="M507.0 368h88.0"></path></g><path d="M595.0 368h20"></path><path d="M487.0 368a10 10 0 0 1 10 10v0a10 10 0 0 0 10 10"></path><g class="terminal ">
<path d="M507.0 388h0.0"></path><path d="M595.0 388h0.0"></path><rect height="22" rx="10" ry="10" width="88.0" x="507.0" y="377"></rect><text x="551.0" y="392">WITHDIST</text></g><path d="M595.0 388a10 10 0 0 0 10 -10v0a10 10 0 0 1 10 -10"></path></g></g><path d="M625.0 368a10 10 0 0 1 10 10v39a10 10 0 0 1 -10 10h-565.0a10 10 0 0 0 -10 10v0a10 10 0 0 0 10 10"></path><g>
<path d="M60.0 447h218.5"></path><path d="M406.5 447h218.5"></path><g>
<path d="M278.5 447h0.0"></path><path d="M406.5 447h0.0"></path><path d="M278.5 447h20"></path><g>
<path d="M298.5 447h88.0"></path></g><path d="M386.5 447h20"></path><path d="M278.5 447a10 10 0 0 1 10 10v0a10 10 0 0 0 10 10"></path><g class="terminal ">
<path d="M298.5 467h0.0"></path><path d="M386.5 467h0.0"></path><rect height="22" rx="10" ry="10" width="88.0" x="298.5" y="456"></rect><text x="342.5" y="471">WITHHASH</text></g><path d="M386.5 467a10 10 0 0 0 10 -10v0a10 10 0 0 1 10 -10"></path></g></g><path d="M625.0 447h10"></path><path d="M635.0 447h0.0"></path></g><path d="M635.0 447h10"></path><path d="M 645.0 447 h 20 m -10 -10 v 20 m 10 -20 v 20"></path></g></svg>