<svg class="railroad-diagram" viewBox="0 0 521.0 82" xmlns="http://www.w3.org/2000/svg" xmlns:xlink="http://www.w3.org/1999/xlink">
<g transform="translate(.5 .5)">
<g>
<path d="M20 21v20m10 -20v20m-10 -10h20"></path></g><path d="M40 31h10"></path><g>
<path d="M50 31h0.0"></path><g>
<path d="M50.0 31h10.0"></path><path d="M461.0 31h10.0"></path><g class="terminal ">
<path d="M60.0 31h0.0"></path><path d="M199.0 31h0.0"></path><rect height="22" rx="10" ry="10" width="139.0" x="60.0" y="20"></rect><text x="129.5" y="35">JSON.ARRAPPEND</text></g><path d="M199.0 31h10"></path><path d="M209.0 31h10"></path><g class="non-terminal ">
<path d="M219.0 31h0.0"></path><path d="M264.5 31h0.0"></path><rect height="22" width="45.5" x="219.0" y="20"></rect><text x="241.75" y="35">key</text><title>key</title></g><path d="M264.5 31h10"></path><g>
<path d="M274.5 31h0.0"></path><path d="M368.5 31h0.0"></path><path d="M274.5 31h20"></path><g>
<path d="M294.5 31h54.0"></path></g><path d="M348.5 31h20"></path><path d="M274.5 31a10 10 0 0 1 10 10v0a10 10 0 0 0 10 10"></path><g class="non-terminal ">
<path d="M294.5 51h0.0"></path><path d="M348.5 51h0.0"></path><rect height="22" width="54.0" x="294.5" y="40"></rect><text x="321.5" y="55">path</text><title>string</title></g><path d="M348.5 51a10 10 0 0 0 10 -10v0a10 10 0 0 1 10 -10"></path></g><path d="M368.5 31h10"></path><g>
<path d="M378.5 31h0.0"></path><path d="M461.0 31h0.0"></path><path d="M378.5 31h10"></path><g class="non-terminal ">
<path d="M388.5 31h0.0"></path><path d="M451.0 31h0.0"></path><rect height="22" width="62.5" x="388.5" y="20"></rect><text x="419.75" y="35">value</text><title>string</title></g><path d="M451.0 31h10"></path><path d="M388.5 31a10 10 0 0 0 -10 10v0a10 10 0 0 0 10 10"></path><g>
<path d="M388.5 51h62.5"></path></g><path d="M451.0 51a10 10 0 0 0 10 -10v0a10 10 0 0 0 -10 -10"></path></g></g><path d="M471.0 31h0.0"></path></g><path d="M471.0 31h10"></path><path d="M 481.0 31 h 20 m -10 -10 v 20 m 10 -20 v 20"></path></g></svg>