<svg class="railroad-diagram" viewBox="0 0 451.5 201" xmlns="http://www.w3.org/2000/svg" xmlns:xlink="http://www.w3.org/1999/xlink">
<g transform="translate(.5 .5)">
<g>
<path d="M20 21v20m10 -20v20m-10 -10h20"></path></g><path d="M40 31h10"></path><g>
<path d="M50 31h0.0"></path><g>
<path d="M50.0 31h10.0"></path><path d="M391.5 31h10.0"></path><g class="terminal ">
<path d="M60.0 31h0.0"></path><path d="M139.5 31h0.0"></path><rect height="22" rx="10" ry="10" width="79.5" x="60.0" y="20"></rect><text x="99.75" y="35">BF.INFO</text></g><path d="M139.5 31h10"></path><path d="M149.5 31h10"></path><g class="non-terminal ">
<path d="M159.5 31h0.0"></path><path d="M205.0 31h0.0"></path><rect height="22" width="45.5" x="159.5" y="20"></rect><text x="182.25" y="35">key</text><title>key</title></g><path d="M205.0 31h10"></path><g>
<path d="M215.0 31h0.0"></path><path d="M391.5 31h0.0"></path><path d="M215.0 31h20"></path><g>
<path d="M235.0 31h136.5"></path></g><path d="M371.5 31h20"></path><path d="M215.0 31a10 10 0 0 1 10 10v59a10 10 0 0 0 10 10"></path><g>
<path d="M235.0 110h0.0"></path><path d="M371.5 110h0.0"></path><path d="M235.0 110a10 10 0 0 0 10 -10v-10a10 10 0 0 1 10 -10"></path><g class="terminal ">
<path d="M255.0 80h21.25"></path><path d="M330.25 80h21.25"></path><rect height="22" rx="10" ry="10" width="54.0" x="276.25" y="69"></rect><text x="303.25" y="84">SIZE</text></g><path d="M351.5 80a10 10 0 0 1 10 10v10a10 10 0 0 0 10 10"></path><path d="M235.0 110a10 10 0 0 0 10 -10v-40a10 10 0 0 1 10 -10"></path><g class="terminal ">
<path d="M255.0 50h4.25"></path><path d="M347.25 50h4.25"></path><rect height="22" rx="10" ry="10" width="88.0" x="259.25" y="39"></rect><text x="303.25" y="54">CAPACITY</text></g><path d="M351.5 50a10 10 0 0 1 10 10v40a10 10 0 0 0 10 10"></path><path d="M235.0 110h20"></path><g class="terminal ">
<path d="M255.0 110h8.5"></path><path d="M343.0 110h8.5"></path><rect height="22" rx="10" ry="10" width="79.5" x="263.5" y="99"></rect><text x="303.25" y="114">FILTERS</text></g><path d="M351.5 110h20"></path><path d="M235.0 110a10 10 0 0 1 10 10v10a10 10 0 0 0 10 10"></path><g class="terminal ">
<path d="M255.0 140h17.0"></path><path d="M334.5 140h17.0"></path><rect height="22" rx="10" ry="10" width="62.5" x="272.0" y="129"></rect><text x="303.25" y="144">ITEMS</text></g><path d="M351.5 140a10 10 0 0 0 10 -10v-10a10 10 0 0 1 10 -10"></path><path d="M235.0 110a10 10 0 0 1 10 10v40a10 10 0 0 0 10 10"></path><g class="terminal ">
<path d="M255.0 170h0.0"></path><path d="M351.5 170h0.0"></path><rect height="22" rx="10" ry="10" width="96.5" x="255.0" y="159"></rect><text x="303.25" y="174">EXPANSION</text></g><path d="M351.5 170a10 10 0 0 0 10 -10v-40a10 10 0 0 1 10 -10"></path></g><path d="M371.5 110a10 10 0 0 0 10 -10v-59a10 10 0 0 1 10 -10"></path></g></g><path d="M401.5 31h0.0"></path></g><path d="M401.5 31h10"></path><path d="M 411.5 31 h 20 m -10 -10 v 20 m 10 -20 v 20"></path></g></svg>