<svg class="railroad-diagram" viewBox="0 0 738.5 189" xmlns="http://www.w3.org/2000/svg" xmlns:xlink="http://www.w3.org/1999/xlink">
<g transform="translate(.5 .5)">
<g>
<path d="M20 21v20m10 -20v20m-10 -10h20"></path></g><path d="M40 31h10"></path><g>
<path d="M50 31h0.0"></path><path d="M50.0 31h10"></path><g>
<path d="M60.0 31h12.75"></path><path d="M665.75 31h12.75"></path><g class="terminal ">
<path d="M72.75 31h0.0"></path><path d="M169.25 31h0.0"></path><rect height="22" rx="10" ry="10" width="96.5" x="72.75" y="20"></rect><text x="121.0" y="35">BF.INSERT</text></g><path d="M169.25 31h10"></path><path d="M179.25 31h10"></path><g class="non-terminal ">
<path d="M189.25 31h0.0"></path><path d="M234.75 31h0.0"></path><rect height="22" width="45.5" x="189.25" y="20"></rect><text x="212.0" y="35">key</text><title>key</title></g><path d="M234.75 31h10"></path><g>
<path d="M244.75 31h0.0"></path><path d="M480.75 31h0.0"></path><path d="M244.75 31h20"></path><g>
<path d="M264.75 31h196.0"></path></g><path d="M460.75 31h20"></path><path d="M244.75 31a10 10 0 0 1 10 10v0a10 10 0 0 0 10 10"></path><g>
<path d="M264.75 51h0.0"></path><path d="M460.75 51h0.0"></path><g class="terminal ">
<path d="M264.75 51h0.0"></path><path d="M352.75 51h0.0"></path><rect height="22" rx="10" ry="10" width="88.0" x="264.75" y="40"></rect><text x="308.75" y="55">CAPACITY</text></g><path d="M352.75 51h10"></path><path d="M362.75 51h10"></path><g class="non-terminal ">
<path d="M372.75 51h0.0"></path><path d="M460.75 51h0.0"></path><rect height="22" width="88.0" x="372.75" y="40"></rect><text x="416.75" y="55">capacity</text><title>integer</title></g></g><path d="M460.75 51a10 10 0 0 0 10 -10v0a10 10 0 0 1 10 -10"></path></g><g>
<path d="M480.75 31h0.0"></path><path d="M665.75 31h0.0"></path><path d="M480.75 31h20"></path><g>
<path d="M500.75 31h145.0"></path></g><path d="M645.75 31h20"></path><path d="M480.75 31a10 10 0 0 1 10 10v0a10 10 0 0 0 10 10"></path><g>
<path d="M500.75 51h0.0"></path><path d="M645.75 51h0.0"></path><g class="terminal ">
<path d="M500.75 51h0.0"></path><path d="M563.25 51h0.0"></path><rect height="22" rx="10" ry="10" width="62.5" x="500.75" y="40"></rect><text x="532.0" y="55">ERROR</text></g><path d="M563.25 51h10"></path><path d="M573.25 51h10"></path><g class="non-terminal ">
<path d="M583.25 51h0.0"></path><path d="M645.75 51h0.0"></path><rect height="22" width="62.5" x="583.25" y="40"></rect><text x="614.5" y="55">error</text><title>double</title></g></g><path d="M645.75 51a10 10 0 0 0 10 -10v0a10 10 0 0 1 10 -10"></path></g></g><path d="M678.5 31a10 10 0 0 1 10 10v19a10 10 0 0 1 -10 10h-618.5a10 10 0 0 0 -10 10v0a10 10 0 0 0 10 10"></path><g>
<path d="M60.0 90h10.0"></path><path d="M668.5 90h10.0"></path><g>
<path d="M70.0 90h0.0"></path><path d="M323.0 90h0.0"></path><path d="M70.0 90h20"></path><g>
<path d="M90.0 90h213.0"></path></g><path d="M303.0 90h20"></path><path d="M70.0 90a10 10 0 0 1 10 10v0a10 10 0 0 0 10 10"></path><g>
<path d="M90.0 110h0.0"></path><path d="M303.0 110h0.0"></path><g class="terminal ">
<path d="M90.0 110h0.0"></path><path d="M186.5 110h0.0"></path><rect height="22" rx="10" ry="10" width="96.5" x="90.0" y="99"></rect><text x="138.25" y="114">EXPANSION</text></g><path d="M186.5 110h10"></path><path d="M196.5 110h10"></path><g class="non-terminal ">
<path d="M206.5 110h0.0"></path><path d="M303.0 110h0.0"></path><rect height="22" width="96.5" x="206.5" y="99"></rect><text x="254.75" y="114">expansion</text><title>integer</title></g></g><path d="M303.0 110a10 10 0 0 0 10 -10v0a10 10 0 0 1 10 -10"></path></g><g>
<path d="M323.0 90h0.0"></path><path d="M451.0 90h0.0"></path><path d="M323.0 90h20"></path><g>
<path d="M343.0 90h88.0"></path></g><path d="M431.0 90h20"></path><path d="M323.0 90a10 10 0 0 1 10 10v0a10 10 0 0 0 10 10"></path><g class="terminal ">
<path d="M343.0 110h0.0"></path><path d="M431.0 110h0.0"></path><rect height="22" rx="10" ry="10" width="88.0" x="343.0" y="99"></rect><text x="387.0" y="114">NOCREATE</text></g><path d="M431.0 110a10 10 0 0 0 10 -10v0a10 10 0 0 1 10 -10"></path></g><g>
<path d="M451.0 90h0.0"></path><path d="M596.0 90h0.0"></path><path d="M451.0 90h20"></path><g>
<path d="M471.0 90h105.0"></path></g><path d="M576.0 90h20"></path><path d="M451.0 90a10 10 0 0 1 10 10v0a10 10 0 0 0 10 10"></path><g class="terminal ">
<path d="M471.0 110h0.0"></path><path d="M576.0 110h0.0"></path><rect height="22" rx="10" ry="10" width="105.0" x="471.0" y="99"></rect><text x="523.5" y="114">NONSCALING</text></g><path d="M576.0 110a10 10 0 0 0 10 -10v0a10 10 0 0 1 10 -10"></path></g><path d="M596.0 90h10"></path><g class="terminal ">
<path d="M606.0 90h0.0"></path><path d="M668.5 90h0.0"></path><rect height="22" rx="10" ry="10" width="62.5" x="606.0" y="79"></rect><text x="637.25" y="94">ITEMS</text></g></g><path d="M678.5 90a10 10 0 0 1 10 10v19a10 10 0 0 1 -10 10h-618.5a10 10 0 0 0 -10 10v0a10 10 0 0 0 10 10"></path><g>
<path d="M60.0 149h272.25"></path><path d="M406.25 149h272.25"></path><g>
<path d="M332.25 149h0.0"></path><path d="M406.25 149h0.0"></path><path d="M332.25 149h10"></path><g class="non-terminal ">
<path d="M342.25 149h0.0"></path><path d="M396.25 149h0.0"></path><rect height="22" width="54.0" x="342.25" y="138"></rect><text x="369.25" y="153">item</text><title>string</title></g><path d="M396.25 149h10"></path><path d="M342.25 149a10 10 0 0 0 -10 10v0a10 10 0 0 0 10 10"></path><g>
<path d="M342.25 169h54.0"></path></g><path d="M396.25 169a10 10 0 0 0 10 -10v0a10 10 0 0 0 -10 -10"></path></g></g><path d="M678.5 149h10"></path><path d="M688.5 149h0.0"></path></g><path d="M688.5 149h10"></path><path d="M 698.5 149 h 20 m -10 -10 v 20 m 10 -20 v 20"></path></g></svg>