<svg class="railroad-diagram" viewBox="0 0 423.0 91" xmlns="http://www.w3.org/2000/svg" xmlns:xlink="http://www.w3.org/1999/xlink">
<g transform="translate(.5 .5)">
<g>
<path d="M20 21v20m10 -20v20m-10 -10h20"></path></g><path d="M40 31h10"></path><g>
<path d="M50 31h0.0"></path><g>
<path d="M50.0 31h10.0"></path><path d="M363.0 31h10.0"></path><g class="terminal ">
<path d="M60.0 31h0.0"></path><path d="M173.5 31h0.0"></path><rect height="22" rx="10" ry="10" width="113.5" x="60.0" y="20"></rect><text x="116.75" y="35">MODULE LOAD</text></g><path d="M173.5 31h10"></path><path d="M183.5 31h10"></path><g class="non-terminal ">
<path d="M193.5 31h0.0"></path><path d="M247.5 31h0.0"></path><rect height="22" width="54.0" x="193.5" y="20"></rect><text x="220.5" y="35">path</text><title>string</title></g><path d="M247.5 31h10"></path><g>
<path d="M257.5 31h0.0"></path><path d="M363.0 31h0.0"></path><path d="M257.5 31h20"></path><g>
<path d="M277.5 31h65.5"></path></g><path d="M343.0 31h20"></path><path d="M257.5 31a10 10 0 0 1 10 10v0a10 10 0 0 0 10 10"></path><g>
<path d="M277.5 51h0.0"></path><path d="M343.0 51h0.0"></path><path d="M277.5 51h10"></path><g class="non-terminal ">
<path d="M287.5 51h0.0"></path><path d="M333.0 51h0.0"></path><rect height="22" width="45.5" x="287.5" y="40"></rect><text x="310.25" y="55">arg</text><title>string</title></g><path d="M333.0 51h10"></path><path d="M287.5 51a10 10 0 0 0 -10 10v0a10 10 0 0 0 10 10"></path><g>
<path d="M287.5 71h45.5"></path></g><path d="M333.0 71a10 10 0 0 0 10 -10v0a10 10 0 0 0 -10 -10"></path></g><path d="M343.0 51a10 10 0 0 0 10 -10v0a10 10 0 0 1 10 -10"></path></g></g><path d="M373.0 31h0.0"></path></g><path d="M373.0 31h10"></path><path d="M 383.0 31 h 20 m -10 -10 v 20 m 10 -20 v 20"></path></g></svg>