<svg class="railroad-diagram" viewBox="0 0 421.5 62" xmlns="http://www.w3.org/2000/svg" xmlns:xlink="http://www.w3.org/1999/xlink">
<g transform="translate(.5 .5)">
<g>
<path d="M20 21v20m10 -20v20m-10 -10h20"></path></g><path d="M40 31h10"></path><g>
<path d="M50 31h0.0"></path><g>
<path d="M50.0 31h10.0"></path><path d="M361.5 31h10.0"></path><g class="terminal ">
<path d="M60.0 31h0.0"></path><path d="M114.0 31h0.0"></path><rect height="22" rx="10" ry="10" width="54.0" x="60.0" y="20"></rect><text x="87.0" y="35">LREM</text></g><path d="M114.0 31h10"></path><path d="M124.0 31h10"></path><g class="non-terminal ">
<path d="M134.0 31h0.0"></path><path d="M179.5 31h0.0"></path><rect height="22" width="45.5" x="134.0" y="20"></rect><text x="156.75" y="35">key</text><title>key</title></g><path d="M179.5 31h10"></path><path d="M189.5 31h10"></path><g class="non-terminal ">
<path d="M199.5 31h0.0"></path><path d="M262.0 31h0.0"></path><rect height="22" width="62.5" x="199.5" y="20"></rect><text x="230.75" y="35">count</text><title>integer</title></g><path d="M262.0 31h10"></path><path d="M272.0 31h10"></path><g class="non-terminal ">
<path d="M282.0 31h0.0"></path><path d="M361.5 31h0.0"></path><rect height="22" width="79.5" x="282.0" y="20"></rect><text x="321.75" y="35">element</text><title>string</title></g></g><path d="M371.5 31h0.0"></path></g><path d="M371.5 31h10"></path><path d="M 381.5 31 h 20 m -10 -10 v 20 m 10 -20 v 20"></path></g></svg>