<svg class="railroad-diagram" viewBox="0 0 329.0 82" xmlns="http://www.w3.org/2000/svg" xmlns:xlink="http://www.w3.org/1999/xlink">
<g transform="translate(.5 .5)">
<g>
<path d="M20 21v20m10 -20v20m-10 -10h20"></path></g><path d="M40 31h10"></path><g>
<path d="M50 31h0.0"></path><g>
<path d="M50.0 31h10.0"></path><path d="M269.0 31h10.0"></path><g class="terminal ">
<path d="M60.0 31h0.0"></path><path d="M131.0 31h0.0"></path><rect height="22" rx="10" ry="10" width="71.0" x="60.0" y="20"></rect><text x="95.5" y="35">BGSAVE</text></g><path d="M131.0 31h10"></path><g>
<path d="M141.0 31h0.0"></path><path d="M269.0 31h0.0"></path><path d="M141.0 31h20"></path><g>
<path d="M161.0 31h88.0"></path></g><path d="M249.0 31h20"></path><path d="M141.0 31a10 10 0 0 1 10 10v0a10 10 0 0 0 10 10"></path><g class="terminal ">
<path d="M161.0 51h0.0"></path><path d="M249.0 51h0.0"></path><rect height="22" rx="10" ry="10" width="88.0" x="161.0" y="40"></rect><text x="205.0" y="55">SCHEDULE</text></g><path d="M249.0 51a10 10 0 0 0 10 -10v0a10 10 0 0 1 10 -10"></path></g></g><path d="M279.0 31h0.0"></path></g><path d="M279.0 31h10"></path><path d="M 289.0 31 h 20 m -10 -10 v 20 m 10 -20 v 20"></path></g></svg>