<svg class="railroad-diagram" viewBox="0 0 730.0 91" xmlns="http://www.w3.org/2000/svg" xmlns:xlink="http://www.w3.org/1999/xlink">
<g transform="translate(.5 .5)">
<g>
<path d="M20 21v20m10 -20v20m-10 -10h20"></path></g><path d="M40 31h10"></path><g>
<path d="M50 31h0.0"></path><g>
<path d="M50.0 31h10.0"></path><path d="M670.0 31h10.0"></path><g class="terminal ">
<path d="M60.0 31h0.0"></path><path d="M173.5 31h0.0"></path><rect height="22" rx="10" ry="10" width="113.5" x="60.0" y="20"></rect><text x="116.75" y="35">TFCALLASYNC</text></g><path d="M173.5 31h10"></path><path d="M183.5 31h10"></path><g class="non-terminal ">
<path d="M193.5 31h0.0"></path><path d="M349.5 31h0.0"></path><rect height="22" width="156.0" x="193.5" y="20"></rect><text x="271.5" y="35">library.function</text><title>string</title></g><path d="M349.5 31h10"></path><path d="M359.5 31h10"></path><g class="non-terminal ">
<path d="M369.5 31h0.0"></path><path d="M449.0 31h0.0"></path><rect height="22" width="79.5" x="369.5" y="20"></rect><text x="409.25" y="35">numkeys</text><title>integer</title></g><path d="M449.0 31h10"></path><g>
<path d="M459.0 31h0.0"></path><path d="M564.5 31h0.0"></path><path d="M459.0 31h20"></path><g>
<path d="M479.0 31h65.5"></path></g><path d="M544.5 31h20"></path><path d="M459.0 31a10 10 0 0 1 10 10v0a10 10 0 0 0 10 10"></path><g>
<path d="M479.0 51h0.0"></path><path d="M544.5 51h0.0"></path><path d="M479.0 51h10"></path><g class="non-terminal ">
<path d="M489.0 51h0.0"></path><path d="M534.5 51h0.0"></path><rect height="22" width="45.5" x="489.0" y="40"></rect><text x="511.75" y="55">key</text><title>key</title></g><path d="M534.5 51h10"></path><path d="M489.0 51a10 10 0 0 0 -10 10v0a10 10 0 0 0 10 10"></path><g>
<path d="M489.0 71h45.5"></path></g><path d="M534.5 71a10 10 0 0 0 10 -10v0a10 10 0 0 0 -10 -10"></path></g><path d="M544.5 51a10 10 0 0 0 10 -10v0a10 10 0 0 1 10 -10"></path></g><g>
<path d="M564.5 31h0.0"></path><path d="M670.0 31h0.0"></path><path d="M564.5 31h20"></path><g>
<path d="M584.5 31h65.5"></path></g><path d="M650.0 31h20"></path><path d="M564.5 31a10 10 0 0 1 10 10v0a10 10 0 0 0 10 10"></path><g>
<path d="M584.5 51h0.0"></path><path d="M650.0 51h0.0"></path><path d="M584.5 51h10"></path><g class="non-terminal ">
<path d="M594.5 51h0.0"></path><path d="M640.0 51h0.0"></path><rect height="22" width="45.5" x="594.5" y="40"></rect><text x="617.25" y="55">arg</text><title>string</title></g><path d="M640.0 51h10"></path><path d="M594.5 51a10 10 0 0 0 -10 10v0a10 10 0 0 0 10 10"></path><g>
<path d="M594.5 71h45.5"></path></g><path d="M640.0 71a10 10 0 0 0 10 -10v0a10 10 0 0 0 -10 -10"></path></g><path d="M650.0 51a10 10 0 0 0 10 -10v0a10 10 0 0 1 10 -10"></path></g></g><path d="M680.0 31h0.0"></path></g><path d="M680.0 31h10"></path><path d="M 690.0 31 h 20 m -10 -10 v 20 m 10 -20 v 20"></path></g></svg>