<svg class="railroad-diagram" viewBox="0 0 720.0 92" xmlns="http://www.w3.org/2000/svg" xmlns:xlink="http://www.w3.org/1999/xlink">
<g transform="translate(.5 .5)">
<g>
<path d="M20 51v20m10 -20v20m-10 -10h20"></path></g><path d="M40 61h10"></path><g>
<path d="M50 61h0.0"></path><g>
<path d="M50.0 61h10.0"></path><path d="M660.0 61h10.0"></path><g class="terminal ">
<path d="M60.0 61h0.0"></path><path d="M131.0 61h0.0"></path><rect height="22" rx="10" ry="10" width="71.0" x="60.0" y="50"></rect><text x="95.5" y="65">BLMOVE</text></g><path d="M131.0 61h10"></path><path d="M141.0 61h10"></path><g class="non-terminal ">
<path d="M151.0 61h0.0"></path><path d="M222.0 61h0.0"></path><rect height="22" width="71.0" x="151.0" y="50"></rect><text x="186.5" y="65">source</text><title>key</title></g><path d="M222.0 61h10"></path><path d="M232.0 61h10"></path><g class="non-terminal ">
<path d="M242.0 61h0.0"></path><path d="M355.5 61h0.0"></path><rect height="22" width="113.5" x="242.0" y="50"></rect><text x="298.75" y="65">destination</text><title>key</title></g><path d="M355.5 61h10"></path><g>
<path d="M365.5 61h0.0"></path><path d="M468.0 61h0.0"></path><path d="M365.5 61a10 10 0 0 0 10 -10v-10a10 10 0 0 1 10 -10"></path><g class="terminal ">
<path d="M385.5 31h4.25"></path><path d="M443.75 31h4.25"></path><rect height="22" rx="10" ry="10" width="54.0" x="389.75" y="20"></rect><text x="416.75" y="35">LEFT</text></g><path d="M448.0 31a10 10 0 0 1 10 10v10a10 10 0 0 0 10 10"></path><path d="M365.5 61h20"></path><g class="terminal ">
<path d="M385.5 61h0.0"></path><path d="M448.0 61h0.0"></path><rect height="22" rx="10" ry="10" width="62.5" x="385.5" y="50"></rect><text x="416.75" y="65">RIGHT</text></g><path d="M448.0 61h20"></path></g><g>
<path d="M468.0 61h0.0"></path><path d="M570.5 61h0.0"></path><path d="M468.0 61a10 10 0 0 0 10 -10v-10a10 10 0 0 1 10 -10"></path><g class="terminal ">
<path d="M488.0 31h4.25"></path><path d="M546.25 31h4.25"></path><rect height="22" rx="10" ry="10" width="54.0" x="492.25" y="20"></rect><text x="519.25" y="35">LEFT</text></g><path d="M550.5 31a10 10 0 0 1 10 10v10a10 10 0 0 0 10 10"></path><path d="M468.0 61h20"></path><g class="terminal ">
<path d="M488.0 61h0.0"></path><path d="M550.5 61h0.0"></path><rect height="22" rx="10" ry="10" width="62.5" x="488.0" y="50"></rect><text x="519.25" y="65">RIGHT</text></g><path d="M550.5 61h20"></path></g><path d="M570.5 61h10"></path><g class="non-terminal ">
<path d="M580.5 61h0.0"></path><path d="M660.0 61h0.0"></path><rect height="22" width="79.5" x="580.5" y="50"></rect><text x="620.25" y="65">timeout</text><title>double</title></g></g><path d="M670.0 61h0.0"></path></g><path d="M670.0 61h10"></path><path d="M 680.0 61 h 20 m -10 -10 v 20 m 10 -20 v 20"></path></g></svg>