<svg class="railroad-diagram" viewBox="0 0 722.5 82" xmlns="http://www.w3.org/2000/svg" xmlns:xlink="http://www.w3.org/1999/xlink">
<g transform="translate(.5 .5)">
<g>
<path d="M20 21v20m10 -20v20m-10 -10h20"></path></g><path d="M40 31h10"></path><g>
<path d="M50 31h0.0"></path><g>
<path d="M50.0 31h10.0"></path><path d="M662.5 31h10.0"></path><g class="terminal ">
<path d="M60.0 31h0.0"></path><path d="M199.0 31h0.0"></path><rect height="22" rx="10" ry="10" width="139.0" x="60.0" y="20"></rect><text x="129.5" y="35">TFUNCTION LOAD</text></g><path d="M199.0 31h10"></path><g>
<path d="M209.0 31h0.0"></path><path d="M328.5 31h0.0"></path><path d="M209.0 31h20"></path><g>
<path d="M229.0 31h79.5"></path></g><path d="M308.5 31h20"></path><path d="M209.0 31a10 10 0 0 1 10 10v0a10 10 0 0 0 10 10"></path><g class="terminal ">
<path d="M229.0 51h0.0"></path><path d="M308.5 51h0.0"></path><rect height="22" rx="10" ry="10" width="79.5" x="229.0" y="40"></rect><text x="268.75" y="55">REPLACE</text></g><path d="M308.5 51a10 10 0 0 0 10 -10v0a10 10 0 0 1 10 -10"></path></g><g>
<path d="M328.5 31h0.0"></path><path d="M530.5 31h0.0"></path><path d="M328.5 31h20"></path><g>
<path d="M348.5 31h162.0"></path></g><path d="M510.5 31h20"></path><path d="M328.5 31a10 10 0 0 1 10 10v0a10 10 0 0 0 10 10"></path><g>
<path d="M348.5 51h0.0"></path><path d="M510.5 51h0.0"></path><g class="terminal ">
<path d="M348.5 51h0.0"></path><path d="M419.5 51h0.0"></path><rect height="22" rx="10" ry="10" width="71.0" x="348.5" y="40"></rect><text x="384.0" y="55">CONFIG</text></g><path d="M419.5 51h10"></path><path d="M429.5 51h10"></path><g class="non-terminal ">
<path d="M439.5 51h0.0"></path><path d="M510.5 51h0.0"></path><rect height="22" width="71.0" x="439.5" y="40"></rect><text x="475.0" y="55">config</text><title>string</title></g></g><path d="M510.5 51a10 10 0 0 0 10 -10v0a10 10 0 0 1 10 -10"></path></g><path d="M530.5 31h10"></path><g class="non-terminal ">
<path d="M540.5 31h0.0"></path><path d="M662.5 31h0.0"></path><rect height="22" width="122.0" x="540.5" y="20"></rect><text x="601.5" y="35">library code</text><title>string</title></g></g><path d="M672.5 31h0.0"></path></g><path d="M672.5 31h10"></path><path d="M 682.5 31 h 20 m -10 -10 v 20 m 10 -20 v 20"></path></g></svg>