<svg class="railroad-diagram" viewBox="0 0 360.5 111" xmlns="http://www.w3.org/2000/svg" xmlns:xlink="http://www.w3.org/1999/xlink">
<g transform="translate(.5 .5)">
<g>
<path d="M20 21v20m10 -20v20m-10 -10h20"></path></g><path d="M40 31h10"></path><g>
<path d="M50 31h0.0"></path><g>
<path d="M50.0 31h10.0"></path><path d="M300.5 31h10.0"></path><g class="terminal ">
<path d="M60.0 31h0.0"></path><path d="M148.0 31h0.0"></path><rect height="22" rx="10" ry="10" width="88.0" x="60.0" y="20"></rect><text x="104.0" y="35">FLUSHALL</text></g><path d="M148.0 31h10"></path><g>
<path d="M158.0 31h0.0"></path><path d="M300.5 31h0.0"></path><path d="M158.0 31h20"></path><g>
<path d="M178.0 31h102.5"></path></g><path d="M280.5 31h20"></path><path d="M158.0 31a10 10 0 0 1 10 10v29a10 10 0 0 0 10 10"></path><g>
<path d="M178.0 80h0.0"></path><path d="M280.5 80h0.0"></path><path d="M178.0 80a10 10 0 0 0 10 -10v-10a10 10 0 0 1 10 -10"></path><g class="terminal ">
<path d="M198.0 50h0.0"></path><path d="M260.5 50h0.0"></path><rect height="22" rx="10" ry="10" width="62.5" x="198.0" y="39"></rect><text x="229.25" y="54">ASYNC</text></g><path d="M260.5 50a10 10 0 0 1 10 10v10a10 10 0 0 0 10 10"></path><path d="M178.0 80h20"></path><g class="terminal ">
<path d="M198.0 80h4.25"></path><path d="M256.25 80h4.25"></path><rect height="22" rx="10" ry="10" width="54.0" x="202.25" y="69"></rect><text x="229.25" y="84">SYNC</text></g><path d="M260.5 80h20"></path></g><path d="M280.5 80a10 10 0 0 0 10 -10v-29a10 10 0 0 1 10 -10"></path></g></g><path d="M310.5 31h0.0"></path></g><path d="M310.5 31h10"></path><path d="M 320.5 31 h 20 m -10 -10 v 20 m 10 -20 v 20"></path></g></svg>