<svg class="railroad-diagram" viewBox="0 0 483.0 171" xmlns="http://www.w3.org/2000/svg" xmlns:xlink="http://www.w3.org/1999/xlink">
<g transform="translate(.5 .5)">
<g>
<path d="M20 21v20m10 -20v20m-10 -10h20"></path></g><path d="M40 31h10"></path><g>
<path d="M50 31h0.0"></path><g>
<path d="M50.0 31h10.0"></path><path d="M423.0 31h10.0"></path><g class="terminal ">
<path d="M60.0 31h0.0"></path><path d="M131.0 31h0.0"></path><rect height="22" rx="10" ry="10" width="71.0" x="60.0" y="20"></rect><text x="95.5" y="35">EXPIRE</text></g><path d="M131.0 31h10"></path><path d="M141.0 31h10"></path><g class="non-terminal ">
<path d="M151.0 31h0.0"></path><path d="M196.5 31h0.0"></path><rect height="22" width="45.5" x="151.0" y="20"></rect><text x="173.75" y="35">key</text><title>key</title></g><path d="M196.5 31h10"></path><path d="M206.5 31h10"></path><g class="non-terminal ">
<path d="M216.5 31h0.0"></path><path d="M296.0 31h0.0"></path><rect height="22" width="79.5" x="216.5" y="20"></rect><text x="256.25" y="35">seconds</text><title>integer</title></g><path d="M296.0 31h10"></path><g>
<path d="M306.0 31h0.0"></path><path d="M423.0 31h0.0"></path><path d="M306.0 31h20"></path><g>
<path d="M326.0 31h77.0"></path></g><path d="M403.0 31h20"></path><path d="M306.0 31a10 10 0 0 1 10 10v59a10 10 0 0 0 10 10"></path><g>
<path d="M326.0 110h0.0"></path><path d="M403.0 110h0.0"></path><path d="M326.0 110a10 10 0 0 0 10 -10v-10a10 10 0 0 1 10 -10"></path><g class="terminal ">
<path d="M346.0 80h0.0"></path><path d="M383.0 80h0.0"></path><rect height="22" rx="10" ry="10" width="37.0" x="346.0" y="69"></rect><text x="364.5" y="84">XX</text></g><path d="M383.0 80a10 10 0 0 1 10 10v10a10 10 0 0 0 10 10"></path><path d="M326.0 110a10 10 0 0 0 10 -10v-40a10 10 0 0 1 10 -10"></path><g class="terminal ">
<path d="M346.0 50h0.0"></path><path d="M383.0 50h0.0"></path><rect height="22" rx="10" ry="10" width="37.0" x="346.0" y="39"></rect><text x="364.5" y="54">NX</text></g><path d="M383.0 50a10 10 0 0 1 10 10v40a10 10 0 0 0 10 10"></path><path d="M326.0 110h20"></path><g class="terminal ">
<path d="M346.0 110h0.0"></path><path d="M383.0 110h0.0"></path><rect height="22" rx="10" ry="10" width="37.0" x="346.0" y="99"></rect><text x="364.5" y="114">GT</text></g><path d="M383.0 110h20"></path><path d="M326.0 110a10 10 0 0 1 10 10v10a10 10 0 0 0 10 10"></path><g class="terminal ">
<path d="M346.0 140h0.0"></path><path d="M383.0 140h0.0"></path><rect height="22" rx="10" ry="10" width="37.0" x="346.0" y="129"></rect><text x="364.5" y="144">LT</text></g><path d="M383.0 140a10 10 0 0 0 10 -10v-10a10 10 0 0 1 10 -10"></path></g><path d="M403.0 110a10 10 0 0 0 10 -10v-59a10 10 0 0 1 10 -10"></path></g></g><path d="M433.0 31h0.0"></path></g><path d="M433.0 31h10"></path><path d="M 443.0 31 h 20 m -10 -10 v 20 m 10 -20 v 20"></path></g></svg>