<svg class="railroad-diagram" viewBox="0 0 444.0 71" xmlns="http://www.w3.org/2000/svg" xmlns:xlink="http://www.w3.org/1999/xlink">
<g transform="translate(.5 .5)">
<g>
<path d="M20 21v20m10 -20v20m-10 -10h20"></path></g><path d="M40 31h10"></path><g>
<path d="M50 31h0.0"></path><g>
<path d="M50.0 31h10.0"></path><path d="M384.0 31h10.0"></path><g class="terminal ">
<path d="M60.0 31h0.0"></path><path d="M165.0 31h0.0"></path><rect height="22" rx="10" ry="10" width="105.0" x="60.0" y="20"></rect><text x="112.5" y="35">CONFIG SET</text></g><path d="M165.0 31h10"></path><path d="M175.0 31h10"></path><g>
<path d="M185.0 31h0.0"></path><path d="M384.0 31h0.0"></path><path d="M185.0 31h10"></path><g>
<path d="M195.0 31h0.0"></path><path d="M374.0 31h0.0"></path><g class="non-terminal ">
<path d="M195.0 31h0.0"></path><path d="M291.5 31h0.0"></path><rect height="22" width="96.5" x="195.0" y="20"></rect><text x="243.25" y="35">parameter</text><title>string</title></g><path d="M291.5 31h10"></path><path d="M301.5 31h10"></path><g class="non-terminal ">
<path d="M311.5 31h0.0"></path><path d="M374.0 31h0.0"></path><rect height="22" width="62.5" x="311.5" y="20"></rect><text x="342.75" y="35">value</text><title>string</title></g></g><path d="M374.0 31h10"></path><path d="M195.0 31a10 10 0 0 0 -10 10v0a10 10 0 0 0 10 10"></path><g>
<path d="M195.0 51h179.0"></path></g><path d="M374.0 51a10 10 0 0 0 10 -10v0a10 10 0 0 0 -10 -10"></path></g></g><path d="M394.0 31h0.0"></path></g><path d="M394.0 31h10"></path><path d="M 404.0 31 h 20 m -10 -10 v 20 m 10 -20 v 20"></path></g></svg>