<svg class="railroad-diagram" viewBox="0 0 769.0 200" xmlns="http://www.w3.org/2000/svg" xmlns:xlink="http://www.w3.org/1999/xlink">
<g transform="translate(.5 .5)">
<g>
<path d="M20 21v20m10 -20v20m-10 -10h20"></path></g><path d="M40 31h10"></path><g>
<path d="M50 31h0.0"></path><path d="M50.0 31h10"></path><g>
<path d="M60.0 31h10.0"></path><path d="M699.0 31h10.0"></path><g class="terminal ">
<path d="M70.0 31h0.0"></path><path d="M141.0 31h0.0"></path><rect height="22" rx="10" ry="10" width="71.0" x="70.0" y="20"></rect><text x="105.5" y="35">ZINTER</text></g><path d="M141.0 31h10"></path><path d="M151.0 31h10"></path><g class="non-terminal ">
<path d="M161.0 31h0.0"></path><path d="M240.5 31h0.0"></path><rect height="22" width="79.5" x="161.0" y="20"></rect><text x="200.75" y="35">numkeys</text><title>integer</title></g><path d="M240.5 31h10"></path><path d="M250.5 31h10"></path><g>
<path d="M260.5 31h0.0"></path><path d="M326.0 31h0.0"></path><path d="M260.5 31h10"></path><g class="non-terminal ">
<path d="M270.5 31h0.0"></path><path d="M316.0 31h0.0"></path><rect height="22" width="45.5" x="270.5" y="20"></rect><text x="293.25" y="35">key</text><title>key</title></g><path d="M316.0 31h10"></path><path d="M270.5 31a10 10 0 0 0 -10 10v0a10 10 0 0 0 10 10"></path><g>
<path d="M270.5 51h45.5"></path></g><path d="M316.0 51a10 10 0 0 0 10 -10v0a10 10 0 0 0 -10 -10"></path></g><path d="M326.0 31h10"></path><g>
<path d="M336.0 31h0.0"></path><path d="M467.0 31h0.0"></path><path d="M336.0 31h20"></path><g>
<path d="M356.0 31h91.0"></path></g><path d="M447.0 31h20"></path><path d="M336.0 31a10 10 0 0 1 10 10v0a10 10 0 0 0 10 10"></path><g>
<path d="M356.0 51h0.0"></path><path d="M447.0 51h0.0"></path><path d="M356.0 51h10"></path><g class="non-terminal ">
<path d="M366.0 51h0.0"></path><path d="M437.0 51h0.0"></path><rect height="22" width="71.0" x="366.0" y="40"></rect><text x="401.5" y="55">weight</text><title>integer</title></g><path d="M437.0 51h10"></path><path d="M366.0 51a10 10 0 0 0 -10 10v0a10 10 0 0 0 10 10"></path><g>
<path d="M366.0 71h71.0"></path></g><path d="M437.0 71a10 10 0 0 0 10 -10v0a10 10 0 0 0 -10 -10"></path></g><path d="M447.0 51a10 10 0 0 0 10 -10v0a10 10 0 0 1 10 -10"></path></g><g>
<path d="M467.0 31h0.0"></path><path d="M699.0 31h0.0"></path><path d="M467.0 31h20"></path><g>
<path d="M487.0 31h192.0"></path></g><path d="M679.0 31h20"></path><path d="M467.0 31a10 10 0 0 1 10 10v59a10 10 0 0 0 10 10"></path><g>
<path d="M487.0 110h0.0"></path><path d="M679.0 110h0.0"></path><g class="terminal ">
<path d="M487.0 110h0.0"></path><path d="M583.5 110h0.0"></path><rect height="22" rx="10" ry="10" width="96.5" x="487.0" y="99"></rect><text x="535.25" y="114">AGGREGATE</text></g><path d="M583.5 110h10"></path><g>
<path d="M593.5 110h0.0"></path><path d="M679.0 110h0.0"></path><path d="M593.5 110a10 10 0 0 0 10 -10v-10a10 10 0 0 1 10 -10"></path><g class="terminal ">
<path d="M613.5 80h0.0"></path><path d="M659.0 80h0.0"></path><rect height="22" rx="10" ry="10" width="45.5" x="613.5" y="69"></rect><text x="636.25" y="84">MIN</text></g><path d="M659.0 80a10 10 0 0 1 10 10v10a10 10 0 0 0 10 10"></path><path d="M593.5 110a10 10 0 0 0 10 -10v-40a10 10 0 0 1 10 -10"></path><g class="terminal ">
<path d="M613.5 50h0.0"></path><path d="M659.0 50h0.0"></path><rect height="22" rx="10" ry="10" width="45.5" x="613.5" y="39"></rect><text x="636.25" y="54">SUM</text></g><path d="M659.0 50a10 10 0 0 1 10 10v40a10 10 0 0 0 10 10"></path><path d="M593.5 110h20"></path><g class="terminal ">
<path d="M613.5 110h0.0"></path><path d="M659.0 110h0.0"></path><rect height="22" rx="10" ry="10" width="45.5" x="613.5" y="99"></rect><text x="636.25" y="114">MAX</text></g><path d="M659.0 110h20"></path></g></g><path d="M679.0 110a10 10 0 0 0 10 -10v-59a10 10 0 0 1 10 -10"></path></g></g><path d="M709.0 31a10 10 0 0 1 10 10v78a10 10 0 0 1 -10 10h-649.0a10 10 0 0 0 -10 10v0a10 10 0 0 0 10 10"></path><g>
<path d="M60.0 149h252.0"></path><path d="M457.0 149h252.0"></path><g>
<path d="M312.0 149h0.0"></path><path d="M457.0 149h0.0"></path><path d="M312.0 149h20"></path><g>
<path d="M332.0 149h105.0"></path></g><path d="M437.0 149h20"></path><path d="M312.0 149a10 10 0 0 1 10 10v0a10 10 0 0 0 10 10"></path><g class="terminal ">
<path d="M332.0 169h0.0"></path><path d="M437.0 169h0.0"></path><rect height="22" rx="10" ry="10" width="105.0" x="332.0" y="158"></rect><text x="384.5" y="173">WITHSCORES</text></g><path d="M437.0 169a10 10 0 0 0 10 -10v0a10 10 0 0 1 10 -10"></path></g></g><path d="M709.0 149h10"></path><path d="M719.0 149h0.0"></path></g><path d="M719.0 149h10"></path><path d="M 729.0 149 h 20 m -10 -10 v 20 m 10 -20 v 20"></path></g></svg>