<svg class="railroad-diagram" viewBox="0 0 465.5 91" xmlns="http://www.w3.org/2000/svg" xmlns:xlink="http://www.w3.org/1999/xlink">
<g transform="translate(.5 .5)">
<g>
<path d="M20 21v20m10 -20v20m-10 -10h20"></path></g><path d="M40 31h10"></path><g>
<path d="M50 31h0.0"></path><g>
<path d="M50.0 31h10.0"></path><path d="M405.5 31h10.0"></path><g class="terminal ">
<path d="M60.0 31h0.0"></path><path d="M139.5 31h0.0"></path><rect height="22" rx="10" ry="10" width="79.5" x="60.0" y="20"></rect><text x="99.75" y="35">PFMERGE</text></g><path d="M139.5 31h10"></path><path d="M149.5 31h10"></path><g class="non-terminal ">
<path d="M159.5 31h0.0"></path><path d="M239.0 31h0.0"></path><rect height="22" width="79.5" x="159.5" y="20"></rect><text x="199.25" y="35">destkey</text><title>key</title></g><path d="M239.0 31h10"></path><g>
<path d="M249.0 31h0.0"></path><path d="M405.5 31h0.0"></path><path d="M249.0 31h20"></path><g>
<path d="M269.0 31h116.5"></path></g><path d="M385.5 31h20"></path><path d="M249.0 31a10 10 0 0 1 10 10v0a10 10 0 0 0 10 10"></path><g>
<path d="M269.0 51h0.0"></path><path d="M385.5 51h0.0"></path><path d="M269.0 51h10"></path><g class="non-terminal ">
<path d="M279.0 51h0.0"></path><path d="M375.5 51h0.0"></path><rect height="22" width="96.5" x="279.0" y="40"></rect><text x="327.25" y="55">sourcekey</text><title>key</title></g><path d="M375.5 51h10"></path><path d="M279.0 51a10 10 0 0 0 -10 10v0a10 10 0 0 0 10 10"></path><g>
<path d="M279.0 71h96.5"></path></g><path d="M375.5 71a10 10 0 0 0 10 -10v0a10 10 0 0 0 -10 -10"></path></g><path d="M385.5 51a10 10 0 0 0 10 -10v0a10 10 0 0 1 10 -10"></path></g></g><path d="M415.5 31h0.0"></path></g><path d="M415.5 31h10"></path><path d="M 425.5 31 h 20 m -10 -10 v 20 m 10 -20 v 20"></path></g></svg>