<svg class="railroad-diagram" viewBox="0 0 606.0 141" xmlns="http://www.w3.org/2000/svg" xmlns:xlink="http://www.w3.org/1999/xlink">
<g transform="translate(.5 .5)">
<g>
<path d="M20 21v20m10 -20v20m-10 -10h20"></path></g><path d="M40 31h10"></path><g>
<path d="M50 31h0.0"></path><path d="M50.0 31h10"></path><g>
<path d="M60.0 31h55.75"></path><path d="M490.25 31h55.75"></path><g class="terminal ">
<path d="M115.75 31h0.0"></path><path d="M161.25 31h0.0"></path><rect height="22" rx="10" ry="10" width="45.5" x="115.75" y="20"></rect><text x="138.5" y="35">LCS</text></g><path d="M161.25 31h10"></path><path d="M171.25 31h10"></path><g class="non-terminal ">
<path d="M181.25 31h0.0"></path><path d="M235.25 31h0.0"></path><rect height="22" width="54.0" x="181.25" y="20"></rect><text x="208.25" y="35">key1</text><title>key</title></g><path d="M235.25 31h10"></path><path d="M245.25 31h10"></path><g class="non-terminal ">
<path d="M255.25 31h0.0"></path><path d="M309.25 31h0.0"></path><rect height="22" width="54.0" x="255.25" y="20"></rect><text x="282.25" y="35">key2</text><title>key</title></g><path d="M309.25 31h10"></path><g>
<path d="M319.25 31h0.0"></path><path d="M404.75 31h0.0"></path><path d="M319.25 31h20"></path><g>
<path d="M339.25 31h45.5"></path></g><path d="M384.75 31h20"></path><path d="M319.25 31a10 10 0 0 1 10 10v0a10 10 0 0 0 10 10"></path><g class="terminal ">
<path d="M339.25 51h0.0"></path><path d="M384.75 51h0.0"></path><rect height="22" rx="10" ry="10" width="45.5" x="339.25" y="40"></rect><text x="362.0" y="55">LEN</text></g><path d="M384.75 51a10 10 0 0 0 10 -10v0a10 10 0 0 1 10 -10"></path></g><g>
<path d="M404.75 31h0.0"></path><path d="M490.25 31h0.0"></path><path d="M404.75 31h20"></path><g>
<path d="M424.75 31h45.5"></path></g><path d="M470.25 31h20"></path><path d="M404.75 31a10 10 0 0 1 10 10v0a10 10 0 0 0 10 10"></path><g class="terminal ">
<path d="M424.75 51h0.0"></path><path d="M470.25 51h0.0"></path><rect height="22" rx="10" ry="10" width="45.5" x="424.75" y="40"></rect><text x="447.5" y="55">IDX</text></g><path d="M470.25 51a10 10 0 0 0 10 -10v0a10 10 0 0 1 10 -10"></path></g></g><path d="M546.0 31a10 10 0 0 1 10 10v19a10 10 0 0 1 -10 10h-486.0a10 10 0 0 0 -10 10v0a10 10 0 0 0 10 10"></path><g>
<path d="M60.0 90h10.0"></path><path d="M536.0 90h10.0"></path><g>
<path d="M70.0 90h0.0"></path><path d="M374.0 90h0.0"></path><path d="M70.0 90h20"></path><g>
<path d="M90.0 90h264.0"></path></g><path d="M354.0 90h20"></path><path d="M70.0 90a10 10 0 0 1 10 10v0a10 10 0 0 0 10 10"></path><g>
<path d="M90.0 110h0.0"></path><path d="M354.0 110h0.0"></path><g class="terminal ">
<path d="M90.0 110h0.0"></path><path d="M203.5 110h0.0"></path><rect height="22" rx="10" ry="10" width="113.5" x="90.0" y="99"></rect><text x="146.75" y="114">MINMATCHLEN</text></g><path d="M203.5 110h10"></path><path d="M213.5 110h10"></path><g class="non-terminal ">
<path d="M223.5 110h0.0"></path><path d="M354.0 110h0.0"></path><rect height="22" width="130.5" x="223.5" y="99"></rect><text x="288.75" y="114">min-match-len</text><title>integer</title></g></g><path d="M354.0 110a10 10 0 0 0 10 -10v0a10 10 0 0 1 10 -10"></path></g><g>
<path d="M374.0 90h0.0"></path><path d="M536.0 90h0.0"></path><path d="M374.0 90h20"></path><g>
<path d="M394.0 90h122.0"></path></g><path d="M516.0 90h20"></path><path d="M374.0 90a10 10 0 0 1 10 10v0a10 10 0 0 0 10 10"></path><g class="terminal ">
<path d="M394.0 110h0.0"></path><path d="M516.0 110h0.0"></path><rect height="22" rx="10" ry="10" width="122.0" x="394.0" y="99"></rect><text x="455.0" y="114">WITHMATCHLEN</text></g><path d="M516.0 110a10 10 0 0 0 10 -10v0a10 10 0 0 1 10 -10"></path></g></g><path d="M546.0 90h10"></path><path d="M556.0 90h0.0"></path></g><path d="M556.0 90h10"></path><path d="M 566.0 90 h 20 m -10 -10 v 20 m 10 -20 v 20"></path></g></svg>