<svg class="railroad-diagram" viewBox="0 0 687.5 91" xmlns="http://www.w3.org/2000/svg" xmlns:xlink="http://www.w3.org/1999/xlink">
<g transform="translate(.5 .5)">
<g>
<path d="M20 21v20m10 -20v20m-10 -10h20"></path></g><path d="M40 31h10"></path><g>
<path d="M50 31h0.0"></path><g>
<path d="M50.0 31h10.0"></path><path d="M627.5 31h10.0"></path><g class="terminal ">
<path d="M60.0 31h0.0"></path><path d="M131.0 31h0.0"></path><rect height="22" rx="10" ry="10" width="71.0" x="60.0" y="20"></rect><text x="95.5" y="35">TFCALL</text></g><path d="M131.0 31h10"></path><path d="M141.0 31h10"></path><g class="non-terminal ">
<path d="M151.0 31h0.0"></path><path d="M307.0 31h0.0"></path><rect height="22" width="156.0" x="151.0" y="20"></rect><text x="229.0" y="35">library.function</text><title>string</title></g><path d="M307.0 31h10"></path><path d="M317.0 31h10"></path><g class="non-terminal ">
<path d="M327.0 31h0.0"></path><path d="M406.5 31h0.0"></path><rect height="22" width="79.5" x="327.0" y="20"></rect><text x="366.75" y="35">numkeys</text><title>integer</title></g><path d="M406.5 31h10"></path><g>
<path d="M416.5 31h0.0"></path><path d="M522.0 31h0.0"></path><path d="M416.5 31h20"></path><g>
<path d="M436.5 31h65.5"></path></g><path d="M502.0 31h20"></path><path d="M416.5 31a10 10 0 0 1 10 10v0a10 10 0 0 0 10 10"></path><g>
<path d="M436.5 51h0.0"></path><path d="M502.0 51h0.0"></path><path d="M436.5 51h10"></path><g class="non-terminal ">
<path d="M446.5 51h0.0"></path><path d="M492.0 51h0.0"></path><rect height="22" width="45.5" x="446.5" y="40"></rect><text x="469.25" y="55">key</text><title>key</title></g><path d="M492.0 51h10"></path><path d="M446.5 51a10 10 0 0 0 -10 10v0a10 10 0 0 0 10 10"></path><g>
<path d="M446.5 71h45.5"></path></g><path d="M492.0 71a10 10 0 0 0 10 -10v0a10 10 0 0 0 -10 -10"></path></g><path d="M502.0 51a10 10 0 0 0 10 -10v0a10 10 0 0 1 10 -10"></path></g><g>
<path d="M522.0 31h0.0"></path><path d="M627.5 31h0.0"></path><path d="M522.0 31h20"></path><g>
<path d="M542.0 31h65.5"></path></g><path d="M607.5 31h20"></path><path d="M522.0 31a10 10 0 0 1 10 10v0a10 10 0 0 0 10 10"></path><g>
<path d="M542.0 51h0.0"></path><path d="M607.5 51h0.0"></path><path d="M542.0 51h10"></path><g class="non-terminal ">
<path d="M552.0 51h0.0"></path><path d="M597.5 51h0.0"></path><rect height="22" width="45.5" x="552.0" y="40"></rect><text x="574.75" y="55">arg</text><title>string</title></g><path d="M597.5 51h10"></path><path d="M552.0 51a10 10 0 0 0 -10 10v0a10 10 0 0 0 10 10"></path><g>
<path d="M552.0 71h45.5"></path></g><path d="M597.5 71a10 10 0 0 0 10 -10v0a10 10 0 0 0 -10 -10"></path></g><path d="M607.5 51a10 10 0 0 0 10 -10v0a10 10 0 0 1 10 -10"></path></g></g><path d="M637.5 31h0.0"></path></g><path d="M637.5 31h10"></path><path d="M 647.5 31 h 20 m -10 -10 v 20 m 10 -20 v 20"></path></g></svg>