<svg class="railroad-diagram" viewBox="0 0 678.0 161" xmlns="http://www.w3.org/2000/svg" xmlns:xlink="http://www.w3.org/1999/xlink">
<g transform="translate(.5 .5)">
<g>
<path d="M20 21v20m10 -20v20m-10 -10h20"></path></g><path d="M40 31h10"></path><g>
<path d="M50 31h0.0"></path><path d="M50.0 31h10"></path><g>
<path d="M60.0 31h10.0"></path><path d="M608.0 31h10.0"></path><g class="terminal ">
<path d="M70.0 31h0.0"></path><path d="M158.0 31h0.0"></path><rect height="22" rx="10" ry="10" width="88.0" x="70.0" y="20"></rect><text x="114.0" y="35">FAILOVER</text></g><path d="M158.0 31h10"></path><g>
<path d="M168.0 31h0.0"></path><path d="M505.5 31h0.0"></path><path d="M168.0 31h20"></path><g>
<path d="M188.0 31h297.5"></path></g><path d="M485.5 31h20"></path><path d="M168.0 31a10 10 0 0 1 10 10v0a10 10 0 0 0 10 10"></path><g>
<path d="M188.0 51h0.0"></path><path d="M485.5 51h0.0"></path><g class="terminal ">
<path d="M188.0 51h0.0"></path><path d="M225.0 51h0.0"></path><rect height="22" rx="10" ry="10" width="37.0" x="188.0" y="40"></rect><text x="206.5" y="55">TO</text></g><path d="M225.0 51h10"></path><path d="M235.0 51h10"></path><g>
<path d="M245.0 51h0.0"></path><path d="M485.5 51h0.0"></path><g class="non-terminal ">
<path d="M245.0 51h0.0"></path><path d="M299.0 51h0.0"></path><rect height="22" width="54.0" x="245.0" y="40"></rect><text x="272.0" y="55">host</text><title>string</title></g><path d="M299.0 51h10"></path><path d="M309.0 51h10"></path><g class="non-terminal ">
<path d="M319.0 51h0.0"></path><path d="M373.0 51h0.0"></path><rect height="22" width="54.0" x="319.0" y="40"></rect><text x="346.0" y="55">port</text><title>integer</title></g><path d="M373.0 51h10"></path><g>
<path d="M383.0 51h0.0"></path><path d="M485.5 51h0.0"></path><path d="M383.0 51h20"></path><g>
<path d="M403.0 51h62.5"></path></g><path d="M465.5 51h20"></path><path d="M383.0 51a10 10 0 0 1 10 10v0a10 10 0 0 0 10 10"></path><g class="terminal ">
<path d="M403.0 71h0.0"></path><path d="M465.5 71h0.0"></path><rect height="22" rx="10" ry="10" width="62.5" x="403.0" y="60"></rect><text x="434.25" y="75">FORCE</text></g><path d="M465.5 71a10 10 0 0 0 10 -10v0a10 10 0 0 1 10 -10"></path></g></g></g><path d="M485.5 51a10 10 0 0 0 10 -10v0a10 10 0 0 1 10 -10"></path></g><g>
<path d="M505.5 31h0.0"></path><path d="M608.0 31h0.0"></path><path d="M505.5 31h20"></path><g>
<path d="M525.5 31h62.5"></path></g><path d="M588.0 31h20"></path><path d="M505.5 31a10 10 0 0 1 10 10v0a10 10 0 0 0 10 10"></path><g class="terminal ">
<path d="M525.5 51h0.0"></path><path d="M588.0 51h0.0"></path><rect height="22" rx="10" ry="10" width="62.5" x="525.5" y="40"></rect><text x="556.75" y="55">ABORT</text></g><path d="M588.0 51a10 10 0 0 0 10 -10v0a10 10 0 0 1 10 -10"></path></g></g><path d="M618.0 31a10 10 0 0 1 10 10v39a10 10 0 0 1 -10 10h-558.0a10 10 0 0 0 -10 10v0a10 10 0 0 0 10 10"></path><g>
<path d="M60.0 110h148.25"></path><path d="M469.75 110h148.25"></path><g>
<path d="M208.25 110h0.0"></path><path d="M469.75 110h0.0"></path><path d="M208.25 110h20"></path><g>
<path d="M228.25 110h221.5"></path></g><path d="M449.75 110h20"></path><path d="M208.25 110a10 10 0 0 1 10 10v0a10 10 0 0 0 10 10"></path><g>
<path d="M228.25 130h0.0"></path><path d="M449.75 130h0.0"></path><g class="terminal ">
<path d="M228.25 130h0.0"></path><path d="M307.75 130h0.0"></path><rect height="22" rx="10" ry="10" width="79.5" x="228.25" y="119"></rect><text x="268.0" y="134">TIMEOUT</text></g><path d="M307.75 130h10"></path><path d="M317.75 130h10"></path><g class="non-terminal ">
<path d="M327.75 130h0.0"></path><path d="M449.75 130h0.0"></path><rect height="22" width="122.0" x="327.75" y="119"></rect><text x="388.75" y="134">milliseconds</text><title>integer</title></g></g><path d="M449.75 130a10 10 0 0 0 10 -10v0a10 10 0 0 1 10 -10"></path></g></g><path d="M618.0 110h10"></path><path d="M628.0 110h0.0"></path></g><path d="M628.0 110h10"></path><path d="M 638.0 110 h 20 m -10 -10 v 20 m 10 -20 v 20"></path></g></svg>