<svg class="railroad-diagram" viewBox="0 0 664.5 141" xmlns="http://www.w3.org/2000/svg" xmlns:xlink="http://www.w3.org/1999/xlink">
<g transform="translate(.5 .5)">
<g>
<path d="M20 21v20m10 -20v20m-10 -10h20"></path></g><path d="M40 31h10"></path><g>
<path d="M50 31h0.0"></path><path d="M50.0 31h10"></path><g>
<path d="M60.0 31h10.0"></path><path d="M594.5 31h10.0"></path><g class="terminal ">
<path d="M70.0 31h0.0"></path><path d="M124.0 31h0.0"></path><rect height="22" rx="10" ry="10" width="54.0" x="70.0" y="20"></rect><text x="97.0" y="35">COPY</text></g><path d="M124.0 31h10"></path><path d="M134.0 31h10"></path><g class="non-terminal ">
<path d="M144.0 31h0.0"></path><path d="M215.0 31h0.0"></path><rect height="22" width="71.0" x="144.0" y="20"></rect><text x="179.5" y="35">source</text><title>key</title></g><path d="M215.0 31h10"></path><path d="M225.0 31h10"></path><g class="non-terminal ">
<path d="M235.0 31h0.0"></path><path d="M348.5 31h0.0"></path><rect height="22" width="113.5" x="235.0" y="20"></rect><text x="291.75" y="35">destination</text><title>key</title></g><path d="M348.5 31h10"></path><g>
<path d="M358.5 31h0.0"></path><path d="M594.5 31h0.0"></path><path d="M358.5 31h20"></path><g>
<path d="M378.5 31h196.0"></path></g><path d="M574.5 31h20"></path><path d="M358.5 31a10 10 0 0 1 10 10v0a10 10 0 0 0 10 10"></path><g>
<path d="M378.5 51h0.0"></path><path d="M574.5 51h0.0"></path><g class="terminal ">
<path d="M378.5 51h0.0"></path><path d="M415.5 51h0.0"></path><rect height="22" rx="10" ry="10" width="37.0" x="378.5" y="40"></rect><text x="397.0" y="55">DB</text></g><path d="M415.5 51h10"></path><path d="M425.5 51h10"></path><g class="non-terminal ">
<path d="M435.5 51h0.0"></path><path d="M574.5 51h0.0"></path><rect height="22" width="139.0" x="435.5" y="40"></rect><text x="505.0" y="55">destination-db</text><title>integer</title></g></g><path d="M574.5 51a10 10 0 0 0 10 -10v0a10 10 0 0 1 10 -10"></path></g></g><path d="M604.5 31a10 10 0 0 1 10 10v19a10 10 0 0 1 -10 10h-544.5a10 10 0 0 0 -10 10v0a10 10 0 0 0 10 10"></path><g>
<path d="M60.0 90h212.5"></path><path d="M392.0 90h212.5"></path><g>
<path d="M272.5 90h0.0"></path><path d="M392.0 90h0.0"></path><path d="M272.5 90h20"></path><g>
<path d="M292.5 90h79.5"></path></g><path d="M372.0 90h20"></path><path d="M272.5 90a10 10 0 0 1 10 10v0a10 10 0 0 0 10 10"></path><g class="terminal ">
<path d="M292.5 110h0.0"></path><path d="M372.0 110h0.0"></path><rect height="22" rx="10" ry="10" width="79.5" x="292.5" y="99"></rect><text x="332.25" y="114">REPLACE</text></g><path d="M372.0 110a10 10 0 0 0 10 -10v0a10 10 0 0 1 10 -10"></path></g></g><path d="M604.5 90h10"></path><path d="M614.5 90h0.0"></path></g><path d="M614.5 90h10"></path><path d="M 624.5 90 h 20 m -10 -10 v 20 m 10 -20 v 20"></path></g></svg>