<svg class="railroad-diagram" viewBox="0 0 494.0 111" xmlns="http://www.w3.org/2000/svg" xmlns:xlink="http://www.w3.org/1999/xlink">
<g transform="translate(.5 .5)">
<g>
<path d="M20 21v20m10 -20v20m-10 -10h20"></path></g><path d="M40 31h10"></path><g>
<path d="M50 31h0.0"></path><g>
<path d="M50.0 31h10.0"></path><path d="M434.0 31h10.0"></path><g class="terminal ">
<path d="M60.0 31h0.0"></path><path d="M182.0 31h0.0"></path><rect height="22" rx="10" ry="10" width="122.0" x="60.0" y="20"></rect><text x="121.0" y="35">CLIENT PAUSE</text></g><path d="M182.0 31h10"></path><path d="M192.0 31h10"></path><g class="non-terminal ">
<path d="M202.0 31h0.0"></path><path d="M281.5 31h0.0"></path><rect height="22" width="79.5" x="202.0" y="20"></rect><text x="241.75" y="35">timeout</text><title>integer</title></g><path d="M281.5 31h10"></path><g>
<path d="M291.5 31h0.0"></path><path d="M434.0 31h0.0"></path><path d="M291.5 31h20"></path><g>
<path d="M311.5 31h102.5"></path></g><path d="M414.0 31h20"></path><path d="M291.5 31a10 10 0 0 1 10 10v29a10 10 0 0 0 10 10"></path><g>
<path d="M311.5 80h0.0"></path><path d="M414.0 80h0.0"></path><path d="M311.5 80a10 10 0 0 0 10 -10v-10a10 10 0 0 1 10 -10"></path><g class="terminal ">
<path d="M331.5 50h0.0"></path><path d="M394.0 50h0.0"></path><rect height="22" rx="10" ry="10" width="62.5" x="331.5" y="39"></rect><text x="362.75" y="54">WRITE</text></g><path d="M394.0 50a10 10 0 0 1 10 10v10a10 10 0 0 0 10 10"></path><path d="M311.5 80h20"></path><g class="terminal ">
<path d="M331.5 80h8.5"></path><path d="M385.5 80h8.5"></path><rect height="22" rx="10" ry="10" width="45.5" x="340.0" y="69"></rect><text x="362.75" y="84">ALL</text></g><path d="M394.0 80h20"></path></g><path d="M414.0 80a10 10 0 0 0 10 -10v-29a10 10 0 0 1 10 -10"></path></g></g><path d="M444.0 31h0.0"></path></g><path d="M444.0 31h10"></path><path d="M 454.0 31 h 20 m -10 -10 v 20 m 10 -20 v 20"></path></g></svg>