<svg class="railroad-diagram" viewBox="0 0 605.0 82" xmlns="http://www.w3.org/2000/svg" xmlns:xlink="http://www.w3.org/1999/xlink">
<g transform="translate(.5 .5)">
<g>
<path d="M20 21v20m10 -20v20m-10 -10h20"></path></g><path d="M40 31h10"></path><g>
<path d="M50 31h0.0"></path><g>
<path d="M50.0 31h10.0"></path><path d="M545.0 31h10.0"></path><g class="terminal ">
<path d="M60.0 31h0.0"></path><path d="M165.0 31h0.0"></path><rect height="22" rx="10" ry="10" width="105.0" x="60.0" y="20"></rect><text x="112.5" y="35">SINTERCARD</text></g><path d="M165.0 31h10"></path><path d="M175.0 31h10"></path><g class="non-terminal ">
<path d="M185.0 31h0.0"></path><path d="M264.5 31h0.0"></path><rect height="22" width="79.5" x="185.0" y="20"></rect><text x="224.75" y="35">numkeys</text><title>integer</title></g><path d="M264.5 31h10"></path><path d="M274.5 31h10"></path><g>
<path d="M284.5 31h0.0"></path><path d="M350.0 31h0.0"></path><path d="M284.5 31h10"></path><g class="non-terminal ">
<path d="M294.5 31h0.0"></path><path d="M340.0 31h0.0"></path><rect height="22" width="45.5" x="294.5" y="20"></rect><text x="317.25" y="35">key</text><title>key</title></g><path d="M340.0 31h10"></path><path d="M294.5 31a10 10 0 0 0 -10 10v0a10 10 0 0 0 10 10"></path><g>
<path d="M294.5 51h45.5"></path></g><path d="M340.0 51a10 10 0 0 0 10 -10v0a10 10 0 0 0 -10 -10"></path></g><path d="M350.0 31h10"></path><g>
<path d="M360.0 31h0.0"></path><path d="M545.0 31h0.0"></path><path d="M360.0 31h20"></path><g>
<path d="M380.0 31h145.0"></path></g><path d="M525.0 31h20"></path><path d="M360.0 31a10 10 0 0 1 10 10v0a10 10 0 0 0 10 10"></path><g>
<path d="M380.0 51h0.0"></path><path d="M525.0 51h0.0"></path><g class="terminal ">
<path d="M380.0 51h0.0"></path><path d="M442.5 51h0.0"></path><rect height="22" rx="10" ry="10" width="62.5" x="380.0" y="40"></rect><text x="411.25" y="55">LIMIT</text></g><path d="M442.5 51h10"></path><path d="M452.5 51h10"></path><g class="non-terminal ">
<path d="M462.5 51h0.0"></path><path d="M525.0 51h0.0"></path><rect height="22" width="62.5" x="462.5" y="40"></rect><text x="493.75" y="55">limit</text><title>integer</title></g></g><path d="M525.0 51a10 10 0 0 0 10 -10v0a10 10 0 0 1 10 -10"></path></g></g><path d="M555.0 31h0.0"></path></g><path d="M555.0 31h10"></path><path d="M 565.0 31 h 20 m -10 -10 v 20 m 10 -20 v 20"></path></g></svg>