<svg class="railroad-diagram" viewBox="0 0 447.0 62" xmlns="http://www.w3.org/2000/svg" xmlns:xlink="http://www.w3.org/1999/xlink">
<g transform="translate(.5 .5)">
<g>
<path d="M20 21v20m10 -20v20m-10 -10h20"></path></g><path d="M40 31h10"></path><g>
<path d="M50 31h0.0"></path><g>
<path d="M50.0 31h10.0"></path><path d="M387.0 31h10.0"></path><g class="terminal ">
<path d="M60.0 31h0.0"></path><path d="M148.0 31h0.0"></path><rect height="22" rx="10" ry="10" width="88.0" x="60.0" y="20"></rect><text x="104.0" y="35">SETRANGE</text></g><path d="M148.0 31h10"></path><path d="M158.0 31h10"></path><g class="non-terminal ">
<path d="M168.0 31h0.0"></path><path d="M213.5 31h0.0"></path><rect height="22" width="45.5" x="168.0" y="20"></rect><text x="190.75" y="35">key</text><title>key</title></g><path d="M213.5 31h10"></path><path d="M223.5 31h10"></path><g class="non-terminal ">
<path d="M233.5 31h0.0"></path><path d="M304.5 31h0.0"></path><rect height="22" width="71.0" x="233.5" y="20"></rect><text x="269.0" y="35">offset</text><title>integer</title></g><path d="M304.5 31h10"></path><path d="M314.5 31h10"></path><g class="non-terminal ">
<path d="M324.5 31h0.0"></path><path d="M387.0 31h0.0"></path><rect height="22" width="62.5" x="324.5" y="20"></rect><text x="355.75" y="35">value</text><title>string</title></g></g><path d="M397.0 31h0.0"></path></g><path d="M397.0 31h10"></path><path d="M 407.0 31 h 20 m -10 -10 v 20 m 10 -20 v 20"></path></g></svg>