<svg class="railroad-diagram" viewBox="0 0 548.0 91" xmlns="http://www.w3.org/2000/svg" xmlns:xlink="http://www.w3.org/1999/xlink">
<g transform="translate(.5 .5)">
<g>
<path d="M20 21v20m10 -20v20m-10 -10h20"></path></g><path d="M40 31h10"></path><g>
<path d="M50 31h0.0"></path><g>
<path d="M50.0 31h10.0"></path><path d="M488.0 31h10.0"></path><g class="terminal ">
<path d="M60.0 31h0.0"></path><path d="M165.0 31h0.0"></path><rect height="22" rx="10" ry="10" width="105.0" x="60.0" y="20"></rect><text x="112.5" y="35">ACL DRYRUN</text></g><path d="M165.0 31h10"></path><path d="M175.0 31h10"></path><g class="non-terminal ">
<path d="M185.0 31h0.0"></path><path d="M273.0 31h0.0"></path><rect height="22" width="88.0" x="185.0" y="20"></rect><text x="229.0" y="35">username</text><title>string</title></g><path d="M273.0 31h10"></path><path d="M283.0 31h10"></path><g class="non-terminal ">
<path d="M293.0 31h0.0"></path><path d="M372.5 31h0.0"></path><rect height="22" width="79.5" x="293.0" y="20"></rect><text x="332.75" y="35">command</text><title>string</title></g><path d="M372.5 31h10"></path><g>
<path d="M382.5 31h0.0"></path><path d="M488.0 31h0.0"></path><path d="M382.5 31h20"></path><g>
<path d="M402.5 31h65.5"></path></g><path d="M468.0 31h20"></path><path d="M382.5 31a10 10 0 0 1 10 10v0a10 10 0 0 0 10 10"></path><g>
<path d="M402.5 51h0.0"></path><path d="M468.0 51h0.0"></path><path d="M402.5 51h10"></path><g class="non-terminal ">
<path d="M412.5 51h0.0"></path><path d="M458.0 51h0.0"></path><rect height="22" width="45.5" x="412.5" y="40"></rect><text x="435.25" y="55">arg</text><title>string</title></g><path d="M458.0 51h10"></path><path d="M412.5 51a10 10 0 0 0 -10 10v0a10 10 0 0 0 10 10"></path><g>
<path d="M412.5 71h45.5"></path></g><path d="M458.0 71a10 10 0 0 0 10 -10v0a10 10 0 0 0 -10 -10"></path></g><path d="M468.0 51a10 10 0 0 0 10 -10v0a10 10 0 0 1 10 -10"></path></g></g><path d="M498.0 31h0.0"></path></g><path d="M498.0 31h10"></path><path d="M 508.0 31 h 20 m -10 -10 v 20 m 10 -20 v 20"></path></g></svg>