<svg class="railroad-diagram" viewBox="0 0 363.0 92" xmlns="http://www.w3.org/2000/svg" xmlns:xlink="http://www.w3.org/1999/xlink">
<g transform="translate(.5 .5)">
<g>
<path d="M20 51v20m10 -20v20m-10 -10h20"></path></g><path d="M40 61h10"></path><g>
<path d="M50 61h0.0"></path><g>
<path d="M50.0 61h10.0"></path><path d="M303.0 61h10.0"></path><g class="terminal ">
<path d="M60.0 61h0.0"></path><path d="M207.5 61h0.0"></path><rect height="22" rx="10" ry="10" width="147.5" x="60.0" y="50"></rect><text x="133.75" y="65">CLIENT NO-TOUCH</text></g><path d="M207.5 61h10"></path><g>
<path d="M217.5 61h0.0"></path><path d="M303.0 61h0.0"></path><path d="M217.5 61a10 10 0 0 0 10 -10v-10a10 10 0 0 1 10 -10"></path><g class="terminal ">
<path d="M237.5 31h4.25"></path><path d="M278.75 31h4.25"></path><rect height="22" rx="10" ry="10" width="37.0" x="241.75" y="20"></rect><text x="260.25" y="35">ON</text></g><path d="M283.0 31a10 10 0 0 1 10 10v10a10 10 0 0 0 10 10"></path><path d="M217.5 61h20"></path><g class="terminal ">
<path d="M237.5 61h0.0"></path><path d="M283.0 61h0.0"></path><rect height="22" rx="10" ry="10" width="45.5" x="237.5" y="50"></rect><text x="260.25" y="65">OFF</text></g><path d="M283.0 61h20"></path></g></g><path d="M313.0 61h0.0"></path></g><path d="M313.0 61h10"></path><path d="M 323.0 61 h 20 m -10 -10 v 20 m 10 -20 v 20"></path></g></svg>