<svg class="railroad-diagram" viewBox="0 0 622.0 141" xmlns="http://www.w3.org/2000/svg" xmlns:xlink="http://www.w3.org/1999/xlink">
<g transform="translate(.5 .5)">
<g>
<path d="M20 21v20m10 -20v20m-10 -10h20"></path></g><path d="M40 31h10"></path><g>
<path d="M50 31h0.0"></path><path d="M50.0 31h10"></path><g>
<path d="M60.0 31h10.0"></path><path d="M552.0 31h10.0"></path><g class="terminal ">
<path d="M70.0 31h0.0"></path><path d="M200.5 31h0.0"></path><rect height="22" rx="10" ry="10" width="130.5" x="70.0" y="20"></rect><text x="135.25" y="35">ZRANGEBYSCORE</text></g><path d="M200.5 31h10"></path><path d="M210.5 31h10"></path><g class="non-terminal ">
<path d="M220.5 31h0.0"></path><path d="M266.0 31h0.0"></path><rect height="22" width="45.5" x="220.5" y="20"></rect><text x="243.25" y="35">key</text><title>key</title></g><path d="M266.0 31h10"></path><path d="M276.0 31h10"></path><g class="non-terminal ">
<path d="M286.0 31h0.0"></path><path d="M331.5 31h0.0"></path><rect height="22" width="45.5" x="286.0" y="20"></rect><text x="308.75" y="35">min</text><title>double</title></g><path d="M331.5 31h10"></path><path d="M341.5 31h10"></path><g class="non-terminal ">
<path d="M351.5 31h0.0"></path><path d="M397.0 31h0.0"></path><rect height="22" width="45.5" x="351.5" y="20"></rect><text x="374.25" y="35">max</text><title>double</title></g><path d="M397.0 31h10"></path><g>
<path d="M407.0 31h0.0"></path><path d="M552.0 31h0.0"></path><path d="M407.0 31h20"></path><g>
<path d="M427.0 31h105.0"></path></g><path d="M532.0 31h20"></path><path d="M407.0 31a10 10 0 0 1 10 10v0a10 10 0 0 0 10 10"></path><g class="terminal ">
<path d="M427.0 51h0.0"></path><path d="M532.0 51h0.0"></path><rect height="22" rx="10" ry="10" width="105.0" x="427.0" y="40"></rect><text x="479.5" y="55">WITHSCORES</text></g><path d="M532.0 51a10 10 0 0 0 10 -10v0a10 10 0 0 1 10 -10"></path></g></g><path d="M562.0 31a10 10 0 0 1 10 10v19a10 10 0 0 1 -10 10h-502.0a10 10 0 0 0 -10 10v0a10 10 0 0 0 10 10"></path><g>
<path d="M60.0 90h113.0"></path><path d="M449.0 90h113.0"></path><g>
<path d="M173.0 90h0.0"></path><path d="M449.0 90h0.0"></path><path d="M173.0 90h20"></path><g>
<path d="M193.0 90h236.0"></path></g><path d="M429.0 90h20"></path><path d="M173.0 90a10 10 0 0 1 10 10v0a10 10 0 0 0 10 10"></path><g>
<path d="M193.0 110h0.0"></path><path d="M429.0 110h0.0"></path><g class="terminal ">
<path d="M193.0 110h0.0"></path><path d="M255.5 110h0.0"></path><rect height="22" rx="10" ry="10" width="62.5" x="193.0" y="99"></rect><text x="224.25" y="114">LIMIT</text></g><path d="M255.5 110h10"></path><path d="M265.5 110h10"></path><g>
<path d="M275.5 110h0.0"></path><path d="M429.0 110h0.0"></path><g class="non-terminal ">
<path d="M275.5 110h0.0"></path><path d="M346.5 110h0.0"></path><rect height="22" width="71.0" x="275.5" y="99"></rect><text x="311.0" y="114">offset</text><title>integer</title></g><path d="M346.5 110h10"></path><path d="M356.5 110h10"></path><g class="non-terminal ">
<path d="M366.5 110h0.0"></path><path d="M429.0 110h0.0"></path><rect height="22" width="62.5" x="366.5" y="99"></rect><text x="397.75" y="114">count</text><title>integer</title></g></g></g><path d="M429.0 110a10 10 0 0 0 10 -10v0a10 10 0 0 1 10 -10"></path></g></g><path d="M562.0 90h10"></path><path d="M572.0 90h0.0"></path></g><path d="M572.0 90h10"></path><path d="M 582.0 90 h 20 m -10 -10 v 20 m 10 -20 v 20"></path></g></svg>