<svg class="railroad-diagram" viewBox="0 0 585.0 171" xmlns="http://www.w3.org/2000/svg" xmlns:xlink="http://www.w3.org/1999/xlink">
<g transform="translate(.5 .5)">
<g>
<path d="M20 21v20m10 -20v20m-10 -10h20"></path></g><path d="M40 31h10"></path><g>
<path d="M50 31h0.0"></path><g>
<path d="M50.0 31h10.0"></path><path d="M525.0 31h10.0"></path><g class="terminal ">
<path d="M60.0 31h0.0"></path><path d="M148.0 31h0.0"></path><rect height="22" rx="10" ry="10" width="88.0" x="60.0" y="20"></rect><text x="104.0" y="35">EXPIREAT</text></g><path d="M148.0 31h10"></path><path d="M158.0 31h10"></path><g class="non-terminal ">
<path d="M168.0 31h0.0"></path><path d="M213.5 31h0.0"></path><rect height="22" width="45.5" x="168.0" y="20"></rect><text x="190.75" y="35">key</text><title>key</title></g><path d="M213.5 31h10"></path><path d="M223.5 31h10"></path><g class="non-terminal ">
<path d="M233.5 31h0.0"></path><path d="M398.0 31h0.0"></path><rect height="22" width="164.5" x="233.5" y="20"></rect><text x="315.75" y="35">unix-time-seconds</text><title>unix-time</title></g><path d="M398.0 31h10"></path><g>
<path d="M408.0 31h0.0"></path><path d="M525.0 31h0.0"></path><path d="M408.0 31h20"></path><g>
<path d="M428.0 31h77.0"></path></g><path d="M505.0 31h20"></path><path d="M408.0 31a10 10 0 0 1 10 10v59a10 10 0 0 0 10 10"></path><g>
<path d="M428.0 110h0.0"></path><path d="M505.0 110h0.0"></path><path d="M428.0 110a10 10 0 0 0 10 -10v-10a10 10 0 0 1 10 -10"></path><g class="terminal ">
<path d="M448.0 80h0.0"></path><path d="M485.0 80h0.0"></path><rect height="22" rx="10" ry="10" width="37.0" x="448.0" y="69"></rect><text x="466.5" y="84">XX</text></g><path d="M485.0 80a10 10 0 0 1 10 10v10a10 10 0 0 0 10 10"></path><path d="M428.0 110a10 10 0 0 0 10 -10v-40a10 10 0 0 1 10 -10"></path><g class="terminal ">
<path d="M448.0 50h0.0"></path><path d="M485.0 50h0.0"></path><rect height="22" rx="10" ry="10" width="37.0" x="448.0" y="39"></rect><text x="466.5" y="54">NX</text></g><path d="M485.0 50a10 10 0 0 1 10 10v40a10 10 0 0 0 10 10"></path><path d="M428.0 110h20"></path><g class="terminal ">
<path d="M448.0 110h0.0"></path><path d="M485.0 110h0.0"></path><rect height="22" rx="10" ry="10" width="37.0" x="448.0" y="99"></rect><text x="466.5" y="114">GT</text></g><path d="M485.0 110h20"></path><path d="M428.0 110a10 10 0 0 1 10 10v10a10 10 0 0 0 10 10"></path><g class="terminal ">
<path d="M448.0 140h0.0"></path><path d="M485.0 140h0.0"></path><rect height="22" rx="10" ry="10" width="37.0" x="448.0" y="129"></rect><text x="466.5" y="144">LT</text></g><path d="M485.0 140a10 10 0 0 0 10 -10v-10a10 10 0 0 1 10 -10"></path></g><path d="M505.0 110a10 10 0 0 0 10 -10v-59a10 10 0 0 1 10 -10"></path></g></g><path d="M535.0 31h0.0"></path></g><path d="M535.0 31h10"></path><path d="M 545.0 31 h 20 m -10 -10 v 20 m 10 -20 v 20"></path></g></svg>