<svg class="railroad-diagram" viewBox="0 0 594.0 91" xmlns="http://www.w3.org/2000/svg" xmlns:xlink="http://www.w3.org/1999/xlink">
<g transform="translate(.5 .5)">
<g>
<path d="M20 21v20m10 -20v20m-10 -10h20"></path></g><path d="M40 31h10"></path><g>
<path d="M50 31h0.0"></path><g>
<path d="M50.0 31h10.0"></path><path d="M534.0 31h10.0"></path><g class="terminal ">
<path d="M60.0 31h0.0"></path><path d="M139.5 31h0.0"></path><rect height="22" rx="10" ry="10" width="79.5" x="60.0" y="20"></rect><text x="99.75" y="35">EVALSHA</text></g><path d="M139.5 31h10"></path><path d="M149.5 31h10"></path><g class="non-terminal ">
<path d="M159.5 31h0.0"></path><path d="M213.5 31h0.0"></path><rect height="22" width="54.0" x="159.5" y="20"></rect><text x="186.5" y="35">sha1</text><title>string</title></g><path d="M213.5 31h10"></path><path d="M223.5 31h10"></path><g class="non-terminal ">
<path d="M233.5 31h0.0"></path><path d="M313.0 31h0.0"></path><rect height="22" width="79.5" x="233.5" y="20"></rect><text x="273.25" y="35">numkeys</text><title>integer</title></g><path d="M313.0 31h10"></path><g>
<path d="M323.0 31h0.0"></path><path d="M428.5 31h0.0"></path><path d="M323.0 31h20"></path><g>
<path d="M343.0 31h65.5"></path></g><path d="M408.5 31h20"></path><path d="M323.0 31a10 10 0 0 1 10 10v0a10 10 0 0 0 10 10"></path><g>
<path d="M343.0 51h0.0"></path><path d="M408.5 51h0.0"></path><path d="M343.0 51h10"></path><g class="non-terminal ">
<path d="M353.0 51h0.0"></path><path d="M398.5 51h0.0"></path><rect height="22" width="45.5" x="353.0" y="40"></rect><text x="375.75" y="55">key</text><title>key</title></g><path d="M398.5 51h10"></path><path d="M353.0 51a10 10 0 0 0 -10 10v0a10 10 0 0 0 10 10"></path><g>
<path d="M353.0 71h45.5"></path></g><path d="M398.5 71a10 10 0 0 0 10 -10v0a10 10 0 0 0 -10 -10"></path></g><path d="M408.5 51a10 10 0 0 0 10 -10v0a10 10 0 0 1 10 -10"></path></g><g>
<path d="M428.5 31h0.0"></path><path d="M534.0 31h0.0"></path><path d="M428.5 31h20"></path><g>
<path d="M448.5 31h65.5"></path></g><path d="M514.0 31h20"></path><path d="M428.5 31a10 10 0 0 1 10 10v0a10 10 0 0 0 10 10"></path><g>
<path d="M448.5 51h0.0"></path><path d="M514.0 51h0.0"></path><path d="M448.5 51h10"></path><g class="non-terminal ">
<path d="M458.5 51h0.0"></path><path d="M504.0 51h0.0"></path><rect height="22" width="45.5" x="458.5" y="40"></rect><text x="481.25" y="55">arg</text><title>string</title></g><path d="M504.0 51h10"></path><path d="M458.5 51a10 10 0 0 0 -10 10v0a10 10 0 0 0 10 10"></path><g>
<path d="M458.5 71h45.5"></path></g><path d="M504.0 71a10 10 0 0 0 10 -10v0a10 10 0 0 0 -10 -10"></path></g><path d="M514.0 51a10 10 0 0 0 10 -10v0a10 10 0 0 1 10 -10"></path></g></g><path d="M544.0 31h0.0"></path></g><path d="M544.0 31h10"></path><path d="M 554.0 31 h 20 m -10 -10 v 20 m 10 -20 v 20"></path></g></svg>