<svg class="railroad-diagram" viewBox="0 0 435.5 71" xmlns="http://www.w3.org/2000/svg" xmlns:xlink="http://www.w3.org/1999/xlink">
<g transform="translate(.5 .5)">
<g>
<path d="M20 21v20m10 -20v20m-10 -10h20"></path></g><path d="M40 31h10"></path><g>
<path d="M50 31h0.0"></path><g>
<path d="M50.0 31h10.0"></path><path d="M375.5 31h10.0"></path><g class="terminal ">
<path d="M60.0 31h0.0"></path><path d="M207.5 31h0.0"></path><rect height="22" rx="10" ry="10" width="147.5" x="60.0" y="20"></rect><text x="133.75" y="35">TDIGEST.REVRANK</text></g><path d="M207.5 31h10"></path><path d="M217.5 31h10"></path><g class="non-terminal ">
<path d="M227.5 31h0.0"></path><path d="M273.0 31h0.0"></path><rect height="22" width="45.5" x="227.5" y="20"></rect><text x="250.25" y="35">key</text><title>key</title></g><path d="M273.0 31h10"></path><path d="M283.0 31h10"></path><g>
<path d="M293.0 31h0.0"></path><path d="M375.5 31h0.0"></path><path d="M293.0 31h10"></path><g class="non-terminal ">
<path d="M303.0 31h0.0"></path><path d="M365.5 31h0.0"></path><rect height="22" width="62.5" x="303.0" y="20"></rect><text x="334.25" y="35">value</text><title>double</title></g><path d="M365.5 31h10"></path><path d="M303.0 31a10 10 0 0 0 -10 10v0a10 10 0 0 0 10 10"></path><g>
<path d="M303.0 51h62.5"></path></g><path d="M365.5 51a10 10 0 0 0 10 -10v0a10 10 0 0 0 -10 -10"></path></g></g><path d="M385.5 31h0.0"></path></g><path d="M385.5 31h10"></path><path d="M 395.5 31 h 20 m -10 -10 v 20 m 10 -20 v 20"></path></g></svg>