<svg class="railroad-diagram" viewBox="0 0 394.5 111" xmlns="http://www.w3.org/2000/svg" xmlns:xlink="http://www.w3.org/1999/xlink">
<g transform="translate(.5 .5)">
<g>
<path d="M20 21v20m10 -20v20m-10 -10h20"></path></g><path d="M40 31h10"></path><g>
<path d="M50 31h0.0"></path><g>
<path d="M50.0 31h10.0"></path><path d="M334.5 31h10.0"></path><g class="terminal ">
<path d="M60.0 31h0.0"></path><path d="M190.5 31h0.0"></path><rect height="22" rx="10" ry="10" width="130.5" x="60.0" y="20"></rect><text x="125.25" y="35">CLUSTER RESET</text></g><path d="M190.5 31h10"></path><g>
<path d="M200.5 31h0.0"></path><path d="M334.5 31h0.0"></path><path d="M200.5 31h20"></path><g>
<path d="M220.5 31h94.0"></path></g><path d="M314.5 31h20"></path><path d="M200.5 31a10 10 0 0 1 10 10v29a10 10 0 0 0 10 10"></path><g>
<path d="M220.5 80h0.0"></path><path d="M314.5 80h0.0"></path><path d="M220.5 80a10 10 0 0 0 10 -10v-10a10 10 0 0 1 10 -10"></path><g class="terminal ">
<path d="M240.5 50h0.0"></path><path d="M294.5 50h0.0"></path><rect height="22" rx="10" ry="10" width="54.0" x="240.5" y="39"></rect><text x="267.5" y="54">HARD</text></g><path d="M294.5 50a10 10 0 0 1 10 10v10a10 10 0 0 0 10 10"></path><path d="M220.5 80h20"></path><g class="terminal ">
<path d="M240.5 80h0.0"></path><path d="M294.5 80h0.0"></path><rect height="22" rx="10" ry="10" width="54.0" x="240.5" y="69"></rect><text x="267.5" y="84">SOFT</text></g><path d="M294.5 80h20"></path></g><path d="M314.5 80a10 10 0 0 0 10 -10v-29a10 10 0 0 1 10 -10"></path></g></g><path d="M344.5 31h0.0"></path></g><path d="M344.5 31h10"></path><path d="M 354.5 31 h 20 m -10 -10 v 20 m 10 -20 v 20"></path></g></svg>