<svg class="railroad-diagram" viewBox="0 0 480.5 159" xmlns="http://www.w3.org/2000/svg" xmlns:xlink="http://www.w3.org/1999/xlink">
<g transform="translate(.5 .5)">
<g>
<path d="M20 21v20m10 -20v20m-10 -10h20"></path></g><path d="M40 31h10"></path><g>
<path d="M50 31h0.0"></path><path d="M50.0 31h10"></path><g>
<path d="M60.0 31h10.0"></path><path d="M410.5 31h10.0"></path><g class="terminal ">
<path d="M70.0 31h0.0"></path><path d="M141.0 31h0.0"></path><rect height="22" rx="10" ry="10" width="71.0" x="70.0" y="20"></rect><text x="105.5" y="35">GEOADD</text></g><path d="M141.0 31h10"></path><path d="M151.0 31h10"></path><g class="non-terminal ">
<path d="M161.0 31h0.0"></path><path d="M206.5 31h0.0"></path><rect height="22" width="45.5" x="161.0" y="20"></rect><text x="183.75" y="35">key</text><title>key</title></g><path d="M206.5 31h10"></path><g>
<path d="M216.5 31h0.0"></path><path d="M333.5 31h0.0"></path><path d="M216.5 31h20"></path><g>
<path d="M236.5 31h77.0"></path></g><path d="M313.5 31h20"></path><path d="M216.5 31a10 10 0 0 1 10 10v29a10 10 0 0 0 10 10"></path><g>
<path d="M236.5 80h0.0"></path><path d="M313.5 80h0.0"></path><path d="M236.5 80a10 10 0 0 0 10 -10v-10a10 10 0 0 1 10 -10"></path><g class="terminal ">
<path d="M256.5 50h0.0"></path><path d="M293.5 50h0.0"></path><rect height="22" rx="10" ry="10" width="37.0" x="256.5" y="39"></rect><text x="275.0" y="54">NX</text></g><path d="M293.5 50a10 10 0 0 1 10 10v10a10 10 0 0 0 10 10"></path><path d="M236.5 80h20"></path><g class="terminal ">
<path d="M256.5 80h0.0"></path><path d="M293.5 80h0.0"></path><rect height="22" rx="10" ry="10" width="37.0" x="256.5" y="69"></rect><text x="275.0" y="84">XX</text></g><path d="M293.5 80h20"></path></g><path d="M313.5 80a10 10 0 0 0 10 -10v-29a10 10 0 0 1 10 -10"></path></g><g>
<path d="M333.5 31h0.0"></path><path d="M410.5 31h0.0"></path><path d="M333.5 31h20"></path><g>
<path d="M353.5 31h37.0"></path></g><path d="M390.5 31h20"></path><path d="M333.5 31a10 10 0 0 1 10 10v0a10 10 0 0 0 10 10"></path><g class="terminal ">
<path d="M353.5 51h0.0"></path><path d="M390.5 51h0.0"></path><rect height="22" rx="10" ry="10" width="37.0" x="353.5" y="40"></rect><text x="372.0" y="55">CH</text></g><path d="M390.5 51a10 10 0 0 0 10 -10v0a10 10 0 0 1 10 -10"></path></g></g><path d="M420.5 31a10 10 0 0 1 10 10v48a10 10 0 0 1 -10 10h-360.5a10 10 0 0 0 -10 10v0a10 10 0 0 0 10 10"></path><g>
<path d="M60.0 119h22.5"></path><path d="M398.0 119h22.5"></path><g>
<path d="M82.5 119h0.0"></path><path d="M398.0 119h0.0"></path><path d="M82.5 119h10"></path><g>
<path d="M92.5 119h0.0"></path><path d="M388.0 119h0.0"></path><g class="non-terminal ">
<path d="M92.5 119h0.0"></path><path d="M189.0 119h0.0"></path><rect height="22" width="96.5" x="92.5" y="108"></rect><text x="140.75" y="123">longitude</text><title>double</title></g><path d="M189.0 119h10"></path><path d="M199.0 119h10"></path><g class="non-terminal ">
<path d="M209.0 119h0.0"></path><path d="M297.0 119h0.0"></path><rect height="22" width="88.0" x="209.0" y="108"></rect><text x="253.0" y="123">latitude</text><title>double</title></g><path d="M297.0 119h10"></path><path d="M307.0 119h10"></path><g class="non-terminal ">
<path d="M317.0 119h0.0"></path><path d="M388.0 119h0.0"></path><rect height="22" width="71.0" x="317.0" y="108"></rect><text x="352.5" y="123">member</text><title>string</title></g></g><path d="M388.0 119h10"></path><path d="M92.5 119a10 10 0 0 0 -10 10v0a10 10 0 0 0 10 10"></path><g>
<path d="M92.5 139h295.5"></path></g><path d="M388.0 139a10 10 0 0 0 10 -10v0a10 10 0 0 0 -10 -10"></path></g></g><path d="M420.5 119h10"></path><path d="M430.5 119h0.0"></path></g><path d="M430.5 119h10"></path><path d="M 440.5 119 h 20 m -10 -10 v 20 m 10 -20 v 20"></path></g></svg>