<svg class="railroad-diagram" viewBox="0 0 608.0 160" xmlns="http://www.w3.org/2000/svg" xmlns:xlink="http://www.w3.org/1999/xlink">
<g transform="translate(.5 .5)">
<g>
<path d="M20 51v20m10 -20v20m-10 -10h20"></path></g><path d="M40 61h10"></path><g>
<path d="M50 61h0.0"></path><path d="M50.0 61h10"></path><g>
<path d="M60.0 61h10.0"></path><path d="M538.0 61h10.0"></path><g class="terminal ">
<path d="M70.0 61h0.0"></path><path d="M141.0 61h0.0"></path><rect height="22" rx="10" ry="10" width="71.0" x="70.0" y="50"></rect><text x="105.5" y="65">BLMPOP</text></g><path d="M141.0 61h10"></path><path d="M151.0 61h10"></path><g class="non-terminal ">
<path d="M161.0 61h0.0"></path><path d="M240.5 61h0.0"></path><rect height="22" width="79.5" x="161.0" y="50"></rect><text x="200.75" y="65">timeout</text><title>double</title></g><path d="M240.5 61h10"></path><path d="M250.5 61h10"></path><g class="non-terminal ">
<path d="M260.5 61h0.0"></path><path d="M340.0 61h0.0"></path><rect height="22" width="79.5" x="260.5" y="50"></rect><text x="300.25" y="65">numkeys</text><title>integer</title></g><path d="M340.0 61h10"></path><path d="M350.0 61h10"></path><g>
<path d="M360.0 61h0.0"></path><path d="M425.5 61h0.0"></path><path d="M360.0 61h10"></path><g class="non-terminal ">
<path d="M370.0 61h0.0"></path><path d="M415.5 61h0.0"></path><rect height="22" width="45.5" x="370.0" y="50"></rect><text x="392.75" y="65">key</text><title>key</title></g><path d="M415.5 61h10"></path><path d="M370.0 61a10 10 0 0 0 -10 10v0a10 10 0 0 0 10 10"></path><g>
<path d="M370.0 81h45.5"></path></g><path d="M415.5 81a10 10 0 0 0 10 -10v0a10 10 0 0 0 -10 -10"></path></g><path d="M425.5 61h10"></path><g>
<path d="M435.5 61h0.0"></path><path d="M538.0 61h0.0"></path><path d="M435.5 61a10 10 0 0 0 10 -10v-10a10 10 0 0 1 10 -10"></path><g class="terminal ">
<path d="M455.5 31h4.25"></path><path d="M513.75 31h4.25"></path><rect height="22" rx="10" ry="10" width="54.0" x="459.75" y="20"></rect><text x="486.75" y="35">LEFT</text></g><path d="M518.0 31a10 10 0 0 1 10 10v10a10 10 0 0 0 10 10"></path><path d="M435.5 61h20"></path><g class="terminal ">
<path d="M455.5 61h0.0"></path><path d="M518.0 61h0.0"></path><rect height="22" rx="10" ry="10" width="62.5" x="455.5" y="50"></rect><text x="486.75" y="65">RIGHT</text></g><path d="M518.0 61h20"></path></g></g><path d="M548.0 61a10 10 0 0 1 10 10v8a10 10 0 0 1 -10 10h-488.0a10 10 0 0 0 -10 10v0a10 10 0 0 0 10 10"></path><g>
<path d="M60.0 109h151.5"></path><path d="M396.5 109h151.5"></path><g>
<path d="M211.5 109h0.0"></path><path d="M396.5 109h0.0"></path><path d="M211.5 109h20"></path><g>
<path d="M231.5 109h145.0"></path></g><path d="M376.5 109h20"></path><path d="M211.5 109a10 10 0 0 1 10 10v0a10 10 0 0 0 10 10"></path><g>
<path d="M231.5 129h0.0"></path><path d="M376.5 129h0.0"></path><g class="terminal ">
<path d="M231.5 129h0.0"></path><path d="M294.0 129h0.0"></path><rect height="22" rx="10" ry="10" width="62.5" x="231.5" y="118"></rect><text x="262.75" y="133">COUNT</text></g><path d="M294.0 129h10"></path><path d="M304.0 129h10"></path><g class="non-terminal ">
<path d="M314.0 129h0.0"></path><path d="M376.5 129h0.0"></path><rect height="22" width="62.5" x="314.0" y="118"></rect><text x="345.25" y="133">count</text><title>integer</title></g></g><path d="M376.5 129a10 10 0 0 0 10 -10v0a10 10 0 0 1 10 -10"></path></g></g><path d="M548.0 109h10"></path><path d="M558.0 109h0.0"></path></g><path d="M558.0 109h10"></path><path d="M 568.0 109 h 20 m -10 -10 v 20 m 10 -20 v 20"></path></g></svg>