<svg class="railroad-diagram" viewBox="0 0 728.5 112" xmlns="http://www.w3.org/2000/svg" xmlns:xlink="http://www.w3.org/1999/xlink">
<g transform="translate(.5 .5)">
<g>
<path d="M20 51v20m10 -20v20m-10 -10h20"></path></g><path d="M40 61h10"></path><g>
<path d="M50 61h0.0"></path><g>
<path d="M50.0 61h10.0"></path><path d="M668.5 61h10.0"></path><g class="terminal ">
<path d="M60.0 61h0.0"></path><path d="M165.0 61h0.0"></path><rect height="22" rx="10" ry="10" width="105.0" x="60.0" y="50"></rect><text x="112.5" y="65">FT.PROFILE</text></g><path d="M165.0 61h10"></path><path d="M175.0 61h10"></path><g class="non-terminal ">
<path d="M185.0 61h0.0"></path><path d="M247.5 61h0.0"></path><rect height="22" width="62.5" x="185.0" y="50"></rect><text x="216.25" y="65">index</text><title>string</title></g><path d="M247.5 61h10"></path><g>
<path d="M257.5 61h0.0"></path><path d="M394.0 61h0.0"></path><path d="M257.5 61a10 10 0 0 0 10 -10v-10a10 10 0 0 1 10 -10"></path><g class="terminal ">
<path d="M277.5 31h12.75"></path><path d="M361.25 31h12.75"></path><rect height="22" rx="10" ry="10" width="71.0" x="290.25" y="20"></rect><text x="325.75" y="35">SEARCH</text></g><path d="M374.0 31a10 10 0 0 1 10 10v10a10 10 0 0 0 10 10"></path><path d="M257.5 61h20"></path><g class="terminal ">
<path d="M277.5 61h0.0"></path><path d="M374.0 61h0.0"></path><rect height="22" rx="10" ry="10" width="96.5" x="277.5" y="50"></rect><text x="325.75" y="65">AGGREGATE</text></g><path d="M374.0 61h20"></path></g><g>
<path d="M394.0 61h0.0"></path><path d="M513.5 61h0.0"></path><path d="M394.0 61h20"></path><g>
<path d="M414.0 61h79.5"></path></g><path d="M493.5 61h20"></path><path d="M394.0 61a10 10 0 0 1 10 10v0a10 10 0 0 0 10 10"></path><g class="terminal ">
<path d="M414.0 81h0.0"></path><path d="M493.5 81h0.0"></path><rect height="22" rx="10" ry="10" width="79.5" x="414.0" y="70"></rect><text x="453.75" y="85">LIMITED</text></g><path d="M493.5 81a10 10 0 0 0 10 -10v0a10 10 0 0 1 10 -10"></path></g><path d="M513.5 61h10"></path><g class="terminal ">
<path d="M523.5 61h0.0"></path><path d="M586.0 61h0.0"></path><rect height="22" rx="10" ry="10" width="62.5" x="523.5" y="50"></rect><text x="554.75" y="65">QUERY</text></g><path d="M586.0 61h10"></path><path d="M596.0 61h10"></path><g class="non-terminal ">
<path d="M606.0 61h0.0"></path><path d="M668.5 61h0.0"></path><rect height="22" width="62.5" x="606.0" y="50"></rect><text x="637.25" y="65">query</text><title>string</title></g></g><path d="M678.5 61h0.0"></path></g><path d="M678.5 61h10"></path><path d="M 688.5 61 h 20 m -10 -10 v 20 m 10 -20 v 20"></path></g></svg>