<svg class="railroad-diagram" viewBox="0 0 621.5 141" xmlns="http://www.w3.org/2000/svg" xmlns:xlink="http://www.w3.org/1999/xlink">
<g transform="translate(.5 .5)">
<g>
<path d="M20 21v20m10 -20v20m-10 -10h20"></path></g><path d="M40 31h10"></path><g>
<path d="M50 31h0.0"></path><g>
<path d="M50.0 31h10.0"></path><path d="M561.5 31h10.0"></path><g class="terminal ">
<path d="M60.0 31h0.0"></path><path d="M216.0 31h0.0"></path><rect height="22" rx="10" ry="10" width="156.0" x="60.0" y="20"></rect><text x="138.0" y="35">FUNCTION RESTORE</text></g><path d="M216.0 31h10"></path><path d="M226.0 31h10"></path><g class="non-terminal ">
<path d="M236.0 31h0.0"></path><path d="M392.0 31h0.0"></path><rect height="22" width="156.0" x="236.0" y="20"></rect><text x="314.0" y="35">serialized-value</text><title>string</title></g><path d="M392.0 31h10"></path><g>
<path d="M402.0 31h0.0"></path><path d="M561.5 31h0.0"></path><path d="M402.0 31h20"></path><g>
<path d="M422.0 31h119.5"></path></g><path d="M541.5 31h20"></path><path d="M402.0 31a10 10 0 0 1 10 10v59a10 10 0 0 0 10 10"></path><g>
<path d="M422.0 110h0.0"></path><path d="M541.5 110h0.0"></path><path d="M422.0 110a10 10 0 0 0 10 -10v-10a10 10 0 0 1 10 -10"></path><g class="terminal ">
<path d="M442.0 80h4.25"></path><path d="M517.25 80h4.25"></path><rect height="22" rx="10" ry="10" width="71.0" x="446.25" y="69"></rect><text x="481.75" y="84">APPEND</text></g><path d="M521.5 80a10 10 0 0 1 10 10v10a10 10 0 0 0 10 10"></path><path d="M422.0 110a10 10 0 0 0 10 -10v-40a10 10 0 0 1 10 -10"></path><g class="terminal ">
<path d="M442.0 50h8.5"></path><path d="M513.0 50h8.5"></path><rect height="22" rx="10" ry="10" width="62.5" x="450.5" y="39"></rect><text x="481.75" y="54">FLUSH</text></g><path d="M521.5 50a10 10 0 0 1 10 10v40a10 10 0 0 0 10 10"></path><path d="M422.0 110h20"></path><g class="terminal ">
<path d="M442.0 110h0.0"></path><path d="M521.5 110h0.0"></path><rect height="22" rx="10" ry="10" width="79.5" x="442.0" y="99"></rect><text x="481.75" y="114">REPLACE</text></g><path d="M521.5 110h20"></path></g><path d="M541.5 110a10 10 0 0 0 10 -10v-59a10 10 0 0 1 10 -10"></path></g></g><path d="M571.5 31h0.0"></path></g><path d="M571.5 31h10"></path><path d="M 581.5 31 h 20 m -10 -10 v 20 m 10 -20 v 20"></path></g></svg>