<svg class="railroad-diagram" viewBox="0 0 410.0 71" xmlns="http://www.w3.org/2000/svg" xmlns:xlink="http://www.w3.org/1999/xlink">
<g transform="translate(.5 .5)">
<g>
<path d="M20 21v20m10 -20v20m-10 -10h20"></path></g><path d="M40 31h10"></path><g>
<path d="M50 31h0.0"></path><g>
<path d="M50.0 31h10.0"></path><path d="M350.0 31h10.0"></path><g class="terminal ">
<path d="M60.0 31h0.0"></path><path d="M182.0 31h0.0"></path><rect height="22" rx="10" ry="10" width="122.0" x="60.0" y="20"></rect><text x="121.0" y="35">TDIGEST.RANK</text></g><path d="M182.0 31h10"></path><path d="M192.0 31h10"></path><g class="non-terminal ">
<path d="M202.0 31h0.0"></path><path d="M247.5 31h0.0"></path><rect height="22" width="45.5" x="202.0" y="20"></rect><text x="224.75" y="35">key</text><title>key</title></g><path d="M247.5 31h10"></path><path d="M257.5 31h10"></path><g>
<path d="M267.5 31h0.0"></path><path d="M350.0 31h0.0"></path><path d="M267.5 31h10"></path><g class="non-terminal ">
<path d="M277.5 31h0.0"></path><path d="M340.0 31h0.0"></path><rect height="22" width="62.5" x="277.5" y="20"></rect><text x="308.75" y="35">value</text><title>double</title></g><path d="M340.0 31h10"></path><path d="M277.5 31a10 10 0 0 0 -10 10v0a10 10 0 0 0 10 10"></path><g>
<path d="M277.5 51h62.5"></path></g><path d="M340.0 51a10 10 0 0 0 10 -10v0a10 10 0 0 0 -10 -10"></path></g></g><path d="M360.0 31h0.0"></path></g><path d="M360.0 31h10"></path><path d="M 370.0 31 h 20 m -10 -10 v 20 m 10 -20 v 20"></path></g></svg>