<svg class="railroad-diagram" viewBox="0 0 512.0 71" xmlns="http://www.w3.org/2000/svg" xmlns:xlink="http://www.w3.org/1999/xlink">
<g transform="translate(.5 .5)">
<g>
<path d="M20 21v20m10 -20v20m-10 -10h20"></path></g><path d="M40 31h10"></path><g>
<path d="M50 31h0.0"></path><g>
<path d="M50.0 31h10.0"></path><path d="M452.0 31h10.0"></path><g class="terminal ">
<path d="M60.0 31h0.0"></path><path d="M224.5 31h0.0"></path><rect height="22" rx="10" ry="10" width="164.5" x="60.0" y="20"></rect><text x="142.25" y="35">TDIGEST.BYREVRANK</text></g><path d="M224.5 31h10"></path><path d="M234.5 31h10"></path><g class="non-terminal ">
<path d="M244.5 31h0.0"></path><path d="M290.0 31h0.0"></path><rect height="22" width="45.5" x="244.5" y="20"></rect><text x="267.25" y="35">key</text><title>key</title></g><path d="M290.0 31h10"></path><path d="M300.0 31h10"></path><g>
<path d="M310.0 31h0.0"></path><path d="M452.0 31h0.0"></path><path d="M310.0 31h10"></path><g class="non-terminal ">
<path d="M320.0 31h0.0"></path><path d="M442.0 31h0.0"></path><rect height="22" width="122.0" x="320.0" y="20"></rect><text x="381.0" y="35">reverse&#95;rank</text><title>double</title></g><path d="M442.0 31h10"></path><path d="M320.0 31a10 10 0 0 0 -10 10v0a10 10 0 0 0 10 10"></path><g>
<path d="M320.0 51h122.0"></path></g><path d="M442.0 51a10 10 0 0 0 10 -10v0a10 10 0 0 0 -10 -10"></path></g></g><path d="M462.0 31h0.0"></path></g><path d="M462.0 31h10"></path><path d="M 472.0 31 h 20 m -10 -10 v 20 m 10 -20 v 20"></path></g></svg>