<svg class="railroad-diagram" viewBox="0 0 591.0 171" xmlns="http://www.w3.org/2000/svg" xmlns:xlink="http://www.w3.org/1999/xlink">
<g transform="translate(.5 .5)">
<g>
<path d="M20 21v20m10 -20v20m-10 -10h20"></path></g><path d="M40 31h10"></path><g>
<path d="M50 31h0.0"></path><g>
<path d="M50.0 31h10.0"></path><path d="M531.0 31h10.0"></path><g class="terminal ">
<path d="M60.0 31h0.0"></path><path d="M139.5 31h0.0"></path><rect height="22" rx="10" ry="10" width="79.5" x="60.0" y="20"></rect><text x="99.75" y="35">GEODIST</text></g><path d="M139.5 31h10"></path><path d="M149.5 31h10"></path><g class="non-terminal ">
<path d="M159.5 31h0.0"></path><path d="M205.0 31h0.0"></path><rect height="22" width="45.5" x="159.5" y="20"></rect><text x="182.25" y="35">key</text><title>key</title></g><path d="M205.0 31h10"></path><path d="M215.0 31h10"></path><g class="non-terminal ">
<path d="M225.0 31h0.0"></path><path d="M304.5 31h0.0"></path><rect height="22" width="79.5" x="225.0" y="20"></rect><text x="264.75" y="35">member1</text><title>string</title></g><path d="M304.5 31h10"></path><path d="M314.5 31h10"></path><g class="non-terminal ">
<path d="M324.5 31h0.0"></path><path d="M404.0 31h0.0"></path><rect height="22" width="79.5" x="324.5" y="20"></rect><text x="364.25" y="35">member2</text><title>string</title></g><path d="M404.0 31h10"></path><g>
<path d="M414.0 31h0.0"></path><path d="M531.0 31h0.0"></path><path d="M414.0 31h20"></path><g>
<path d="M434.0 31h77.0"></path></g><path d="M511.0 31h20"></path><path d="M414.0 31a10 10 0 0 1 10 10v59a10 10 0 0 0 10 10"></path><g>
<path d="M434.0 110h0.0"></path><path d="M511.0 110h0.0"></path><path d="M434.0 110a10 10 0 0 0 10 -10v-10a10 10 0 0 1 10 -10"></path><g class="terminal ">
<path d="M454.0 80h0.0"></path><path d="M491.0 80h0.0"></path><rect height="22" rx="10" ry="10" width="37.0" x="454.0" y="69"></rect><text x="472.5" y="84">KM</text></g><path d="M491.0 80a10 10 0 0 1 10 10v10a10 10 0 0 0 10 10"></path><path d="M434.0 110a10 10 0 0 0 10 -10v-40a10 10 0 0 1 10 -10"></path><g class="terminal ">
<path d="M454.0 50h4.25"></path><path d="M486.75 50h4.25"></path><rect height="22" rx="10" ry="10" width="28.5" x="458.25" y="39"></rect><text x="472.5" y="54">M</text></g><path d="M491.0 50a10 10 0 0 1 10 10v40a10 10 0 0 0 10 10"></path><path d="M434.0 110h20"></path><g class="terminal ">
<path d="M454.0 110h0.0"></path><path d="M491.0 110h0.0"></path><rect height="22" rx="10" ry="10" width="37.0" x="454.0" y="99"></rect><text x="472.5" y="114">FT</text></g><path d="M491.0 110h20"></path><path d="M434.0 110a10 10 0 0 1 10 10v10a10 10 0 0 0 10 10"></path><g class="terminal ">
<path d="M454.0 140h0.0"></path><path d="M491.0 140h0.0"></path><rect height="22" rx="10" ry="10" width="37.0" x="454.0" y="129"></rect><text x="472.5" y="144">MI</text></g><path d="M491.0 140a10 10 0 0 0 10 -10v-10a10 10 0 0 1 10 -10"></path></g><path d="M511.0 110a10 10 0 0 0 10 -10v-59a10 10 0 0 1 10 -10"></path></g></g><path d="M541.0 31h0.0"></path></g><path d="M541.0 31h10"></path><path d="M 551.0 31 h 20 m -10 -10 v 20 m 10 -20 v 20"></path></g></svg>