<svg class="railroad-diagram" viewBox="0 0 739.0 141" xmlns="http://www.w3.org/2000/svg" xmlns:xlink="http://www.w3.org/1999/xlink">
<g transform="translate(.5 .5)">
<g>
<path d="M20 21v20m10 -20v20m-10 -10h20"></path></g><path d="M40 31h10"></path><g>
<path d="M50 31h0.0"></path><path d="M50.0 31h10"></path><g>
<path d="M60.0 31h23.0"></path><path d="M656.0 31h23.0"></path><g class="terminal ">
<path d="M83.0 31h0.0"></path><path d="M188.0 31h0.0"></path><rect height="22" rx="10" ry="10" width="105.0" x="83.0" y="20"></rect><text x="135.5" y="35">XREADGROUP</text></g><path d="M188.0 31h10"></path><path d="M198.0 31h10"></path><g class="terminal ">
<path d="M208.0 31h0.0"></path><path d="M270.5 31h0.0"></path><rect height="22" rx="10" ry="10" width="62.5" x="208.0" y="20"></rect><text x="239.25" y="35">GROUP</text></g><path d="M270.5 31h10"></path><path d="M280.5 31h10"></path><g>
<path d="M290.5 31h0.0"></path><path d="M461.0 31h0.0"></path><g class="non-terminal ">
<path d="M290.5 31h0.0"></path><path d="M353.0 31h0.0"></path><rect height="22" width="62.5" x="290.5" y="20"></rect><text x="321.75" y="35">group</text><title>string</title></g><path d="M353.0 31h10"></path><path d="M363.0 31h10"></path><g class="non-terminal ">
<path d="M373.0 31h0.0"></path><path d="M461.0 31h0.0"></path><rect height="22" width="88.0" x="373.0" y="20"></rect><text x="417.0" y="35">consumer</text><title>string</title></g></g><path d="M461.0 31h10"></path><g>
<path d="M471.0 31h0.0"></path><path d="M656.0 31h0.0"></path><path d="M471.0 31h20"></path><g>
<path d="M491.0 31h145.0"></path></g><path d="M636.0 31h20"></path><path d="M471.0 31a10 10 0 0 1 10 10v0a10 10 0 0 0 10 10"></path><g>
<path d="M491.0 51h0.0"></path><path d="M636.0 51h0.0"></path><g class="terminal ">
<path d="M491.0 51h0.0"></path><path d="M553.5 51h0.0"></path><rect height="22" rx="10" ry="10" width="62.5" x="491.0" y="40"></rect><text x="522.25" y="55">COUNT</text></g><path d="M553.5 51h10"></path><path d="M563.5 51h10"></path><g class="non-terminal ">
<path d="M573.5 51h0.0"></path><path d="M636.0 51h0.0"></path><rect height="22" width="62.5" x="573.5" y="40"></rect><text x="604.75" y="55">count</text><title>integer</title></g></g><path d="M636.0 51a10 10 0 0 0 10 -10v0a10 10 0 0 1 10 -10"></path></g></g><path d="M679.0 31a10 10 0 0 1 10 10v19a10 10 0 0 1 -10 10h-619.0a10 10 0 0 0 -10 10v0a10 10 0 0 0 10 10"></path><g>
<path d="M60.0 90h10.0"></path><path d="M669.0 90h10.0"></path><g>
<path d="M70.0 90h0.0"></path><path d="M314.5 90h0.0"></path><path d="M70.0 90h20"></path><g>
<path d="M90.0 90h204.5"></path></g><path d="M294.5 90h20"></path><path d="M70.0 90a10 10 0 0 1 10 10v0a10 10 0 0 0 10 10"></path><g>
<path d="M90.0 110h0.0"></path><path d="M294.5 110h0.0"></path><g class="terminal ">
<path d="M90.0 110h0.0"></path><path d="M152.5 110h0.0"></path><rect height="22" rx="10" ry="10" width="62.5" x="90.0" y="99"></rect><text x="121.25" y="114">BLOCK</text></g><path d="M152.5 110h10"></path><path d="M162.5 110h10"></path><g class="non-terminal ">
<path d="M172.5 110h0.0"></path><path d="M294.5 110h0.0"></path><rect height="22" width="122.0" x="172.5" y="99"></rect><text x="233.5" y="114">milliseconds</text><title>integer</title></g></g><path d="M294.5 110a10 10 0 0 0 10 -10v0a10 10 0 0 1 10 -10"></path></g><g>
<path d="M314.5 90h0.0"></path><path d="M417.0 90h0.0"></path><path d="M314.5 90h20"></path><g>
<path d="M334.5 90h62.5"></path></g><path d="M397.0 90h20"></path><path d="M314.5 90a10 10 0 0 1 10 10v0a10 10 0 0 0 10 10"></path><g class="terminal ">
<path d="M334.5 110h0.0"></path><path d="M397.0 110h0.0"></path><rect height="22" rx="10" ry="10" width="62.5" x="334.5" y="99"></rect><text x="365.75" y="114">NOACK</text></g><path d="M397.0 110a10 10 0 0 0 10 -10v0a10 10 0 0 1 10 -10"></path></g><path d="M417.0 90h10"></path><g class="terminal ">
<path d="M427.0 90h0.0"></path><path d="M506.5 90h0.0"></path><rect height="22" rx="10" ry="10" width="79.5" x="427.0" y="79"></rect><text x="466.75" y="94">STREAMS</text></g><path d="M506.5 90h10"></path><path d="M516.5 90h10"></path><g>
<path d="M526.5 90h0.0"></path><path d="M669.0 90h0.0"></path><g>
<path d="M526.5 90h0.0"></path><path d="M592.0 90h0.0"></path><path d="M526.5 90h10"></path><g class="non-terminal ">
<path d="M536.5 90h0.0"></path><path d="M582.0 90h0.0"></path><rect height="22" width="45.5" x="536.5" y="79"></rect><text x="559.25" y="94">key</text><title>key</title></g><path d="M582.0 90h10"></path><path d="M536.5 90a10 10 0 0 0 -10 10v0a10 10 0 0 0 10 10"></path><g>
<path d="M536.5 110h45.5"></path></g><path d="M582.0 110a10 10 0 0 0 10 -10v0a10 10 0 0 0 -10 -10"></path></g><path d="M592.0 90h10"></path><path d="M602.0 90h10"></path><g>
<path d="M612.0 90h0.0"></path><path d="M669.0 90h0.0"></path><path d="M612.0 90h10"></path><g class="non-terminal ">
<path d="M622.0 90h0.0"></path><path d="M659.0 90h0.0"></path><rect height="22" width="37.0" x="622.0" y="79"></rect><text x="640.5" y="94">id</text><title>string</title></g><path d="M659.0 90h10"></path><path d="M622.0 90a10 10 0 0 0 -10 10v0a10 10 0 0 0 10 10"></path><g>
<path d="M622.0 110h37.0"></path></g><path d="M659.0 110a10 10 0 0 0 10 -10v0a10 10 0 0 0 -10 -10"></path></g></g></g><path d="M679.0 90h10"></path><path d="M689.0 90h0.0"></path></g><path d="M689.0 90h10"></path><path d="M 699.0 90 h 20 m -10 -10 v 20 m 10 -20 v 20"></path></g></svg>