<svg class="railroad-diagram" viewBox="0 0 773.0 141" xmlns="http://www.w3.org/2000/svg" xmlns:xlink="http://www.w3.org/1999/xlink">
<g transform="translate(.5 .5)">
<g>
<path d="M20 21v20m10 -20v20m-10 -10h20"></path></g><path d="M40 31h10"></path><g>
<path d="M50 31h0.0"></path><path d="M50.0 31h10"></path><g>
<path d="M60.0 31h10.0"></path><path d="M703.0 31h10.0"></path><g class="terminal ">
<path d="M70.0 31h0.0"></path><path d="M124.0 31h0.0"></path><rect height="22" rx="10" ry="10" width="54.0" x="70.0" y="20"></rect><text x="97.0" y="35">LPOS</text></g><path d="M124.0 31h10"></path><path d="M134.0 31h10"></path><g class="non-terminal ">
<path d="M144.0 31h0.0"></path><path d="M189.5 31h0.0"></path><rect height="22" width="45.5" x="144.0" y="20"></rect><text x="166.75" y="35">key</text><title>key</title></g><path d="M189.5 31h10"></path><path d="M199.5 31h10"></path><g class="non-terminal ">
<path d="M209.5 31h0.0"></path><path d="M289.0 31h0.0"></path><rect height="22" width="79.5" x="209.5" y="20"></rect><text x="249.25" y="35">element</text><title>string</title></g><path d="M289.0 31h10"></path><g>
<path d="M299.0 31h0.0"></path><path d="M467.0 31h0.0"></path><path d="M299.0 31h20"></path><g>
<path d="M319.0 31h128.0"></path></g><path d="M447.0 31h20"></path><path d="M299.0 31a10 10 0 0 1 10 10v0a10 10 0 0 0 10 10"></path><g>
<path d="M319.0 51h0.0"></path><path d="M447.0 51h0.0"></path><g class="terminal ">
<path d="M319.0 51h0.0"></path><path d="M373.0 51h0.0"></path><rect height="22" rx="10" ry="10" width="54.0" x="319.0" y="40"></rect><text x="346.0" y="55">RANK</text></g><path d="M373.0 51h10"></path><path d="M383.0 51h10"></path><g class="non-terminal ">
<path d="M393.0 51h0.0"></path><path d="M447.0 51h0.0"></path><rect height="22" width="54.0" x="393.0" y="40"></rect><text x="420.0" y="55">rank</text><title>integer</title></g></g><path d="M447.0 51a10 10 0 0 0 10 -10v0a10 10 0 0 1 10 -10"></path></g><g>
<path d="M467.0 31h0.0"></path><path d="M703.0 31h0.0"></path><path d="M467.0 31h20"></path><g>
<path d="M487.0 31h196.0"></path></g><path d="M683.0 31h20"></path><path d="M467.0 31a10 10 0 0 1 10 10v0a10 10 0 0 0 10 10"></path><g>
<path d="M487.0 51h0.0"></path><path d="M683.0 51h0.0"></path><g class="terminal ">
<path d="M487.0 51h0.0"></path><path d="M549.5 51h0.0"></path><rect height="22" rx="10" ry="10" width="62.5" x="487.0" y="40"></rect><text x="518.25" y="55">COUNT</text></g><path d="M549.5 51h10"></path><path d="M559.5 51h10"></path><g class="non-terminal ">
<path d="M569.5 51h0.0"></path><path d="M683.0 51h0.0"></path><rect height="22" width="113.5" x="569.5" y="40"></rect><text x="626.25" y="55">num-matches</text><title>integer</title></g></g><path d="M683.0 51a10 10 0 0 0 10 -10v0a10 10 0 0 1 10 -10"></path></g></g><path d="M713.0 31a10 10 0 0 1 10 10v19a10 10 0 0 1 -10 10h-653.0a10 10 0 0 0 -10 10v0a10 10 0 0 0 10 10"></path><g>
<path d="M60.0 90h238.25"></path><path d="M474.75 90h238.25"></path><g>
<path d="M298.25 90h0.0"></path><path d="M474.75 90h0.0"></path><path d="M298.25 90h20"></path><g>
<path d="M318.25 90h136.5"></path></g><path d="M454.75 90h20"></path><path d="M298.25 90a10 10 0 0 1 10 10v0a10 10 0 0 0 10 10"></path><g>
<path d="M318.25 110h0.0"></path><path d="M454.75 110h0.0"></path><g class="terminal ">
<path d="M318.25 110h0.0"></path><path d="M389.25 110h0.0"></path><rect height="22" rx="10" ry="10" width="71.0" x="318.25" y="99"></rect><text x="353.75" y="114">MAXLEN</text></g><path d="M389.25 110h10"></path><path d="M399.25 110h10"></path><g class="non-terminal ">
<path d="M409.25 110h0.0"></path><path d="M454.75 110h0.0"></path><rect height="22" width="45.5" x="409.25" y="99"></rect><text x="432.0" y="114">len</text><title>integer</title></g></g><path d="M454.75 110a10 10 0 0 0 10 -10v0a10 10 0 0 1 10 -10"></path></g></g><path d="M713.0 90h10"></path><path d="M723.0 90h0.0"></path></g><path d="M723.0 90h10"></path><path d="M 733.0 90 h 20 m -10 -10 v 20 m 10 -20 v 20"></path></g></svg>