<svg class="railroad-diagram" viewBox="0 0 485.5 82" xmlns="http://www.w3.org/2000/svg" xmlns:xlink="http://www.w3.org/1999/xlink">
<g transform="translate(.5 .5)">
<g>
<path d="M20 21v20m10 -20v20m-10 -10h20"></path></g><path d="M40 31h10"></path><g>
<path d="M50 31h0.0"></path><g>
<path d="M50.0 31h10.0"></path><path d="M425.5 31h10.0"></path><g class="terminal ">
<path d="M60.0 31h0.0"></path><path d="M122.5 31h0.0"></path><rect height="22" rx="10" ry="10" width="62.5" x="60.0" y="20"></rect><text x="91.25" y="35">ZRANK</text></g><path d="M122.5 31h10"></path><path d="M132.5 31h10"></path><g class="non-terminal ">
<path d="M142.5 31h0.0"></path><path d="M188.0 31h0.0"></path><rect height="22" width="45.5" x="142.5" y="20"></rect><text x="165.25" y="35">key</text><title>key</title></g><path d="M188.0 31h10"></path><path d="M198.0 31h10"></path><g class="non-terminal ">
<path d="M208.0 31h0.0"></path><path d="M279.0 31h0.0"></path><rect height="22" width="71.0" x="208.0" y="20"></rect><text x="243.5" y="35">member</text><title>string</title></g><path d="M279.0 31h10"></path><g>
<path d="M289.0 31h0.0"></path><path d="M425.5 31h0.0"></path><path d="M289.0 31h20"></path><g>
<path d="M309.0 31h96.5"></path></g><path d="M405.5 31h20"></path><path d="M289.0 31a10 10 0 0 1 10 10v0a10 10 0 0 0 10 10"></path><g class="terminal ">
<path d="M309.0 51h0.0"></path><path d="M405.5 51h0.0"></path><rect height="22" rx="10" ry="10" width="96.5" x="309.0" y="40"></rect><text x="357.25" y="55">WITHSCORE</text></g><path d="M405.5 51a10 10 0 0 0 10 -10v0a10 10 0 0 1 10 -10"></path></g></g><path d="M435.5 31h0.0"></path></g><path d="M435.5 31h10"></path><path d="M 445.5 31 h 20 m -10 -10 v 20 m 10 -20 v 20"></path></g></svg>