<svg class="railroad-diagram" viewBox="0 0 765.5 130" xmlns="http://www.w3.org/2000/svg" xmlns:xlink="http://www.w3.org/1999/xlink">
<g transform="translate(.5 .5)">
<g>
<path d="M20 21v20m10 -20v20m-10 -10h20"></path></g><path d="M40 31h10"></path><g>
<path d="M50 31h0.0"></path><path d="M50.0 31h10"></path><g>
<path d="M60.0 31h10.0"></path><path d="M695.5 31h10.0"></path><g class="terminal ">
<path d="M70.0 31h0.0"></path><path d="M183.5 31h0.0"></path><rect height="22" rx="10" ry="10" width="113.5" x="70.0" y="20"></rect><text x="126.75" y="35">CF.INSERTNX</text></g><path d="M183.5 31h10"></path><path d="M193.5 31h10"></path><g class="non-terminal ">
<path d="M203.5 31h0.0"></path><path d="M249.0 31h0.0"></path><rect height="22" width="45.5" x="203.5" y="20"></rect><text x="226.25" y="35">key</text><title>key</title></g><path d="M249.0 31h10"></path><g>
<path d="M259.0 31h0.0"></path><path d="M495.0 31h0.0"></path><path d="M259.0 31h20"></path><g>
<path d="M279.0 31h196.0"></path></g><path d="M475.0 31h20"></path><path d="M259.0 31a10 10 0 0 1 10 10v0a10 10 0 0 0 10 10"></path><g>
<path d="M279.0 51h0.0"></path><path d="M475.0 51h0.0"></path><g class="terminal ">
<path d="M279.0 51h0.0"></path><path d="M367.0 51h0.0"></path><rect height="22" rx="10" ry="10" width="88.0" x="279.0" y="40"></rect><text x="323.0" y="55">CAPACITY</text></g><path d="M367.0 51h10"></path><path d="M377.0 51h10"></path><g class="non-terminal ">
<path d="M387.0 51h0.0"></path><path d="M475.0 51h0.0"></path><rect height="22" width="88.0" x="387.0" y="40"></rect><text x="431.0" y="55">capacity</text><title>integer</title></g></g><path d="M475.0 51a10 10 0 0 0 10 -10v0a10 10 0 0 1 10 -10"></path></g><g>
<path d="M495.0 31h0.0"></path><path d="M623.0 31h0.0"></path><path d="M495.0 31h20"></path><g>
<path d="M515.0 31h88.0"></path></g><path d="M603.0 31h20"></path><path d="M495.0 31a10 10 0 0 1 10 10v0a10 10 0 0 0 10 10"></path><g class="terminal ">
<path d="M515.0 51h0.0"></path><path d="M603.0 51h0.0"></path><rect height="22" rx="10" ry="10" width="88.0" x="515.0" y="40"></rect><text x="559.0" y="55">NOCREATE</text></g><path d="M603.0 51a10 10 0 0 0 10 -10v0a10 10 0 0 1 10 -10"></path></g><path d="M623.0 31h10"></path><g class="terminal ">
<path d="M633.0 31h0.0"></path><path d="M695.5 31h0.0"></path><rect height="22" rx="10" ry="10" width="62.5" x="633.0" y="20"></rect><text x="664.25" y="35">ITEMS</text></g></g><path d="M705.5 31a10 10 0 0 1 10 10v19a10 10 0 0 1 -10 10h-645.5a10 10 0 0 0 -10 10v0a10 10 0 0 0 10 10"></path><g>
<path d="M60.0 90h285.75"></path><path d="M419.75 90h285.75"></path><g>
<path d="M345.75 90h0.0"></path><path d="M419.75 90h0.0"></path><path d="M345.75 90h10"></path><g class="non-terminal ">
<path d="M355.75 90h0.0"></path><path d="M409.75 90h0.0"></path><rect height="22" width="54.0" x="355.75" y="79"></rect><text x="382.75" y="94">item</text><title>string</title></g><path d="M409.75 90h10"></path><path d="M355.75 90a10 10 0 0 0 -10 10v0a10 10 0 0 0 10 10"></path><g>
<path d="M355.75 110h54.0"></path></g><path d="M409.75 110a10 10 0 0 0 10 -10v0a10 10 0 0 0 -10 -10"></path></g></g><path d="M705.5 90h10"></path><path d="M715.5 90h0.0"></path></g><path d="M715.5 90h10"></path><path d="M 725.5 90 h 20 m -10 -10 v 20 m 10 -20 v 20"></path></g></svg>