<svg class="railroad-diagram" viewBox="0 0 698.5 141" xmlns="http://www.w3.org/2000/svg" xmlns:xlink="http://www.w3.org/1999/xlink">
<g transform="translate(.5 .5)">
<g>
<path d="M20 21v20m10 -20v20m-10 -10h20"></path></g><path d="M40 31h10"></path><g>
<path d="M50 31h0.0"></path><path d="M50.0 31h10"></path><g>
<path d="M60.0 31h10.0"></path><path d="M628.5 31h10.0"></path><g class="terminal ">
<path d="M70.0 31h0.0"></path><path d="M141.0 31h0.0"></path><rect height="22" rx="10" ry="10" width="71.0" x="70.0" y="20"></rect><text x="105.5" y="35">XSETID</text></g><path d="M141.0 31h10"></path><path d="M151.0 31h10"></path><g class="non-terminal ">
<path d="M161.0 31h0.0"></path><path d="M206.5 31h0.0"></path><rect height="22" width="45.5" x="161.0" y="20"></rect><text x="183.75" y="35">key</text><title>key</title></g><path d="M206.5 31h10"></path><path d="M216.5 31h10"></path><g class="non-terminal ">
<path d="M226.5 31h0.0"></path><path d="M306.0 31h0.0"></path><rect height="22" width="79.5" x="226.5" y="20"></rect><text x="266.25" y="35">last-id</text><title>string</title></g><path d="M306.0 31h10"></path><g>
<path d="M316.0 31h0.0"></path><path d="M628.5 31h0.0"></path><path d="M316.0 31h20"></path><g>
<path d="M336.0 31h272.5"></path></g><path d="M608.5 31h20"></path><path d="M316.0 31a10 10 0 0 1 10 10v0a10 10 0 0 0 10 10"></path><g>
<path d="M336.0 51h0.0"></path><path d="M608.5 51h0.0"></path><g class="terminal ">
<path d="M336.0 51h0.0"></path><path d="M458.0 51h0.0"></path><rect height="22" rx="10" ry="10" width="122.0" x="336.0" y="40"></rect><text x="397.0" y="55">ENTRIESADDED</text></g><path d="M458.0 51h10"></path><path d="M468.0 51h10"></path><g class="non-terminal ">
<path d="M478.0 51h0.0"></path><path d="M608.5 51h0.0"></path><rect height="22" width="130.5" x="478.0" y="40"></rect><text x="543.25" y="55">entries-added</text><title>integer</title></g></g><path d="M608.5 51a10 10 0 0 0 10 -10v0a10 10 0 0 1 10 -10"></path></g></g><path d="M638.5 31a10 10 0 0 1 10 10v19a10 10 0 0 1 -10 10h-578.5a10 10 0 0 0 -10 10v0a10 10 0 0 0 10 10"></path><g>
<path d="M60.0 90h128.75"></path><path d="M509.75 90h128.75"></path><g>
<path d="M188.75 90h0.0"></path><path d="M509.75 90h0.0"></path><path d="M188.75 90h20"></path><g>
<path d="M208.75 90h281.0"></path></g><path d="M489.75 90h20"></path><path d="M188.75 90a10 10 0 0 1 10 10v0a10 10 0 0 0 10 10"></path><g>
<path d="M208.75 110h0.0"></path><path d="M489.75 110h0.0"></path><g class="terminal ">
<path d="M208.75 110h0.0"></path><path d="M330.75 110h0.0"></path><rect height="22" rx="10" ry="10" width="122.0" x="208.75" y="99"></rect><text x="269.75" y="114">MAXDELETEDID</text></g><path d="M330.75 110h10"></path><path d="M340.75 110h10"></path><g class="non-terminal ">
<path d="M350.75 110h0.0"></path><path d="M489.75 110h0.0"></path><rect height="22" width="139.0" x="350.75" y="99"></rect><text x="420.25" y="114">max-deleted-id</text><title>string</title></g></g><path d="M489.75 110a10 10 0 0 0 10 -10v0a10 10 0 0 1 10 -10"></path></g></g><path d="M638.5 90h10"></path><path d="M648.5 90h0.0"></path></g><path d="M648.5 90h10"></path><path d="M 658.5 90 h 20 m -10 -10 v 20 m 10 -20 v 20"></path></g></svg>