<svg class="railroad-diagram" viewBox="0 0 659.5 111" xmlns="http://www.w3.org/2000/svg" xmlns:xlink="http://www.w3.org/1999/xlink">
<g transform="translate(.5 .5)">
<g>
<path d="M20 21v20m10 -20v20m-10 -10h20"></path></g><path d="M40 31h10"></path><g>
<path d="M50 31h0.0"></path><g>
<path d="M50.0 31h10.0"></path><path d="M599.5 31h10.0"></path><g class="terminal ">
<path d="M60.0 31h0.0"></path><path d="M148.0 31h0.0"></path><rect height="22" rx="10" ry="10" width="88.0" x="60.0" y="20"></rect><text x="104.0" y="35">SHUTDOWN</text></g><path d="M148.0 31h10"></path><g>
<path d="M158.0 31h0.0"></path><path d="M309.0 31h0.0"></path><path d="M158.0 31h20"></path><g>
<path d="M178.0 31h111.0"></path></g><path d="M289.0 31h20"></path><path d="M158.0 31a10 10 0 0 1 10 10v29a10 10 0 0 0 10 10"></path><g>
<path d="M178.0 80h0.0"></path><path d="M289.0 80h0.0"></path><path d="M178.0 80a10 10 0 0 0 10 -10v-10a10 10 0 0 1 10 -10"></path><g class="terminal ">
<path d="M198.0 50h0.0"></path><path d="M269.0 50h0.0"></path><rect height="22" rx="10" ry="10" width="71.0" x="198.0" y="39"></rect><text x="233.5" y="54">NOSAVE</text></g><path d="M269.0 50a10 10 0 0 1 10 10v10a10 10 0 0 0 10 10"></path><path d="M178.0 80h20"></path><g class="terminal ">
<path d="M198.0 80h8.5"></path><path d="M260.5 80h8.5"></path><rect height="22" rx="10" ry="10" width="54.0" x="206.5" y="69"></rect><text x="233.5" y="84">SAVE</text></g><path d="M269.0 80h20"></path></g><path d="M289.0 80a10 10 0 0 0 10 -10v-29a10 10 0 0 1 10 -10"></path></g><g>
<path d="M309.0 31h0.0"></path><path d="M394.5 31h0.0"></path><path d="M309.0 31h20"></path><g>
<path d="M329.0 31h45.5"></path></g><path d="M374.5 31h20"></path><path d="M309.0 31a10 10 0 0 1 10 10v0a10 10 0 0 0 10 10"></path><g class="terminal ">
<path d="M329.0 51h0.0"></path><path d="M374.5 51h0.0"></path><rect height="22" rx="10" ry="10" width="45.5" x="329.0" y="40"></rect><text x="351.75" y="55">NOW</text></g><path d="M374.5 51a10 10 0 0 0 10 -10v0a10 10 0 0 1 10 -10"></path></g><g>
<path d="M394.5 31h0.0"></path><path d="M497.0 31h0.0"></path><path d="M394.5 31h20"></path><g>
<path d="M414.5 31h62.5"></path></g><path d="M477.0 31h20"></path><path d="M394.5 31a10 10 0 0 1 10 10v0a10 10 0 0 0 10 10"></path><g class="terminal ">
<path d="M414.5 51h0.0"></path><path d="M477.0 51h0.0"></path><rect height="22" rx="10" ry="10" width="62.5" x="414.5" y="40"></rect><text x="445.75" y="55">FORCE</text></g><path d="M477.0 51a10 10 0 0 0 10 -10v0a10 10 0 0 1 10 -10"></path></g><g>
<path d="M497.0 31h0.0"></path><path d="M599.5 31h0.0"></path><path d="M497.0 31h20"></path><g>
<path d="M517.0 31h62.5"></path></g><path d="M579.5 31h20"></path><path d="M497.0 31a10 10 0 0 1 10 10v0a10 10 0 0 0 10 10"></path><g class="terminal ">
<path d="M517.0 51h0.0"></path><path d="M579.5 51h0.0"></path><rect height="22" rx="10" ry="10" width="62.5" x="517.0" y="40"></rect><text x="548.25" y="55">ABORT</text></g><path d="M579.5 51a10 10 0 0 0 10 -10v0a10 10 0 0 1 10 -10"></path></g></g><path d="M609.5 31h0.0"></path></g><path d="M609.5 31h10"></path><path d="M 619.5 31 h 20 m -10 -10 v 20 m 10 -20 v 20"></path></g></svg>