<svg class="railroad-diagram" viewBox="0 0 481.0 62" xmlns="http://www.w3.org/2000/svg" xmlns:xlink="http://www.w3.org/1999/xlink">
<g transform="translate(.5 .5)">
<g>
<path d="M20 21v20m10 -20v20m-10 -10h20"></path></g><path d="M40 31h10"></path><g>
<path d="M50 31h0.0"></path><g>
<path d="M50.0 31h10.0"></path><path d="M421.0 31h10.0"></path><g class="terminal ">
<path d="M60.0 31h0.0"></path><path d="M190.5 31h0.0"></path><rect height="22" rx="10" ry="10" width="130.5" x="60.0" y="20"></rect><text x="125.25" y="35">CMS.INITBYDIM</text></g><path d="M190.5 31h10"></path><path d="M200.5 31h10"></path><g class="non-terminal ">
<path d="M210.5 31h0.0"></path><path d="M256.0 31h0.0"></path><rect height="22" width="45.5" x="210.5" y="20"></rect><text x="233.25" y="35">key</text><title>key</title></g><path d="M256.0 31h10"></path><path d="M266.0 31h10"></path><g class="non-terminal ">
<path d="M276.0 31h0.0"></path><path d="M338.5 31h0.0"></path><rect height="22" width="62.5" x="276.0" y="20"></rect><text x="307.25" y="35">width</text><title>integer</title></g><path d="M338.5 31h10"></path><path d="M348.5 31h10"></path><g class="non-terminal ">
<path d="M358.5 31h0.0"></path><path d="M421.0 31h0.0"></path><rect height="22" width="62.5" x="358.5" y="20"></rect><text x="389.75" y="35">depth</text><title>integer</title></g></g><path d="M431.0 31h0.0"></path></g><path d="M431.0 31h10"></path><path d="M 441.0 31 h 20 m -10 -10 v 20 m 10 -20 v 20"></path></g></svg>