<svg class="railroad-diagram" viewBox="0 0 724.5 150" xmlns="http://www.w3.org/2000/svg" xmlns:xlink="http://www.w3.org/1999/xlink">
<g transform="translate(.5 .5)">
<g>
<path d="M20 21v20m10 -20v20m-10 -10h20"></path></g><path d="M40 31h10"></path><g>
<path d="M50 31h0.0"></path><path d="M50.0 31h10"></path><g>
<path d="M60.0 31h10.0"></path><path d="M654.5 31h10.0"></path><g class="terminal ">
<path d="M70.0 31h0.0"></path><path d="M158.0 31h0.0"></path><rect height="22" rx="10" ry="10" width="88.0" x="70.0" y="20"></rect><text x="114.0" y="35">JSON.GET</text></g><path d="M158.0 31h10"></path><path d="M168.0 31h10"></path><g class="non-terminal ">
<path d="M178.0 31h0.0"></path><path d="M223.5 31h0.0"></path><rect height="22" width="45.5" x="178.0" y="20"></rect><text x="200.75" y="35">key</text><title>key</title></g><path d="M223.5 31h10"></path><g>
<path d="M233.5 31h0.0"></path><path d="M435.5 31h0.0"></path><path d="M233.5 31h20"></path><g>
<path d="M253.5 31h162.0"></path></g><path d="M415.5 31h20"></path><path d="M233.5 31a10 10 0 0 1 10 10v0a10 10 0 0 0 10 10"></path><g>
<path d="M253.5 51h0.0"></path><path d="M415.5 51h0.0"></path><g class="terminal ">
<path d="M253.5 51h0.0"></path><path d="M324.5 51h0.0"></path><rect height="22" rx="10" ry="10" width="71.0" x="253.5" y="40"></rect><text x="289.0" y="55">INDENT</text></g><path d="M324.5 51h10"></path><path d="M334.5 51h10"></path><g class="non-terminal ">
<path d="M344.5 51h0.0"></path><path d="M415.5 51h0.0"></path><rect height="22" width="71.0" x="344.5" y="40"></rect><text x="380.0" y="55">indent</text><title>string</title></g></g><path d="M415.5 51a10 10 0 0 0 10 -10v0a10 10 0 0 1 10 -10"></path></g><g>
<path d="M435.5 31h0.0"></path><path d="M654.5 31h0.0"></path><path d="M435.5 31h20"></path><g>
<path d="M455.5 31h179.0"></path></g><path d="M634.5 31h20"></path><path d="M435.5 31a10 10 0 0 1 10 10v0a10 10 0 0 0 10 10"></path><g>
<path d="M455.5 51h0.0"></path><path d="M634.5 51h0.0"></path><g class="terminal ">
<path d="M455.5 51h0.0"></path><path d="M535.0 51h0.0"></path><rect height="22" rx="10" ry="10" width="79.5" x="455.5" y="40"></rect><text x="495.25" y="55">NEWLINE</text></g><path d="M535.0 51h10"></path><path d="M545.0 51h10"></path><g class="non-terminal ">
<path d="M555.0 51h0.0"></path><path d="M634.5 51h0.0"></path><rect height="22" width="79.5" x="555.0" y="40"></rect><text x="594.75" y="55">newline</text><title>string</title></g></g><path d="M634.5 51a10 10 0 0 0 10 -10v0a10 10 0 0 1 10 -10"></path></g></g><path d="M664.5 31a10 10 0 0 1 10 10v19a10 10 0 0 1 -10 10h-604.5a10 10 0 0 0 -10 10v0a10 10 0 0 0 10 10"></path><g>
<path d="M60.0 90h152.75"></path><path d="M511.75 90h152.75"></path><g>
<path d="M212.75 90h0.0"></path><path d="M397.75 90h0.0"></path><path d="M212.75 90h20"></path><g>
<path d="M232.75 90h145.0"></path></g><path d="M377.75 90h20"></path><path d="M212.75 90a10 10 0 0 1 10 10v0a10 10 0 0 0 10 10"></path><g>
<path d="M232.75 110h0.0"></path><path d="M377.75 110h0.0"></path><g class="terminal ">
<path d="M232.75 110h0.0"></path><path d="M295.25 110h0.0"></path><rect height="22" rx="10" ry="10" width="62.5" x="232.75" y="99"></rect><text x="264.0" y="114">SPACE</text></g><path d="M295.25 110h10"></path><path d="M305.25 110h10"></path><g class="non-terminal ">
<path d="M315.25 110h0.0"></path><path d="M377.75 110h0.0"></path><rect height="22" width="62.5" x="315.25" y="99"></rect><text x="346.5" y="114">space</text><title>string</title></g></g><path d="M377.75 110a10 10 0 0 0 10 -10v0a10 10 0 0 1 10 -10"></path></g><g>
<path d="M397.75 90h0.0"></path><path d="M511.75 90h0.0"></path><path d="M397.75 90h20"></path><g>
<path d="M417.75 90h74.0"></path></g><path d="M491.75 90h20"></path><path d="M397.75 90a10 10 0 0 1 10 10v0a10 10 0 0 0 10 10"></path><g>
<path d="M417.75 110h0.0"></path><path d="M491.75 110h0.0"></path><path d="M417.75 110h10"></path><g class="non-terminal ">
<path d="M427.75 110h0.0"></path><path d="M481.75 110h0.0"></path><rect height="22" width="54.0" x="427.75" y="99"></rect><text x="454.75" y="114">path</text><title>string</title></g><path d="M481.75 110h10"></path><path d="M427.75 110a10 10 0 0 0 -10 10v0a10 10 0 0 0 10 10"></path><g>
<path d="M427.75 130h54.0"></path></g><path d="M481.75 130a10 10 0 0 0 10 -10v0a10 10 0 0 0 -10 -10"></path></g><path d="M491.75 110a10 10 0 0 0 10 -10v0a10 10 0 0 1 10 -10"></path></g></g><path d="M664.5 90h10"></path><path d="M674.5 90h0.0"></path></g><path d="M674.5 90h10"></path><path d="M 684.5 90 h 20 m -10 -10 v 20 m 10 -20 v 20"></path></g></svg>