<svg class="railroad-diagram" viewBox="0 0 420.0 82" xmlns="http://www.w3.org/2000/svg" xmlns:xlink="http://www.w3.org/1999/xlink">
<g transform="translate(.5 .5)">
<g>
<path d="M20 21v20m10 -20v20m-10 -10h20"></path></g><path d="M40 31h10"></path><g>
<path d="M50 31h0.0"></path><g>
<path d="M50.0 31h10.0"></path><path d="M360.0 31h10.0"></path><g class="terminal ">
<path d="M60.0 31h0.0"></path><path d="M131.0 31h0.0"></path><rect height="22" rx="10" ry="10" width="71.0" x="60.0" y="20"></rect><text x="95.5" y="35">LOLWUT</text></g><path d="M131.0 31h10"></path><g>
<path d="M141.0 31h0.0"></path><path d="M360.0 31h0.0"></path><path d="M141.0 31h20"></path><g>
<path d="M161.0 31h179.0"></path></g><path d="M340.0 31h20"></path><path d="M141.0 31a10 10 0 0 1 10 10v0a10 10 0 0 0 10 10"></path><g>
<path d="M161.0 51h0.0"></path><path d="M340.0 51h0.0"></path><g class="terminal ">
<path d="M161.0 51h0.0"></path><path d="M240.5 51h0.0"></path><rect height="22" rx="10" ry="10" width="79.5" x="161.0" y="40"></rect><text x="200.75" y="55">VERSION</text></g><path d="M240.5 51h10"></path><path d="M250.5 51h10"></path><g class="non-terminal ">
<path d="M260.5 51h0.0"></path><path d="M340.0 51h0.0"></path><rect height="22" width="79.5" x="260.5" y="40"></rect><text x="300.25" y="55">version</text><title>integer</title></g></g><path d="M340.0 51a10 10 0 0 0 10 -10v0a10 10 0 0 1 10 -10"></path></g></g><path d="M370.0 31h0.0"></path></g><path d="M370.0 31h10"></path><path d="M 380.0 31 h 20 m -10 -10 v 20 m 10 -20 v 20"></path></g></svg>