<svg width="118" height="40" viewBox="0 0 118 40" fill="none" xmlns="http://www.w3.org/2000/svg">
<path d="M45.0258 30.8152C42.5291 32.1146 29.5722 37.4173 26.7811 38.8728C23.9899 40.3282 22.4952 40.2868 20.3122 39.2486C18.1292 38.2103 4.38807 32.6496 1.89782 31.4649C0.643095 30.8789 0.00292969 30.3789 0.00292969 29.9107V25.194C0.00292969 25.194 17.9532 21.3181 20.8499 20.2734C23.7467 19.2288 24.7485 19.2033 27.21 20.1015C29.6714 20.9996 44.4272 23.6493 46.8631 24.5284V29.1782C46.8631 29.6623 46.3029 30.1336 45.0258 30.812V30.8152Z" fill="#A32422"/>
<path d="M45.026 26.1208C42.5294 27.4138 29.5724 32.7166 26.7813 34.1465C23.9902 35.5765 22.4954 35.5638 20.3125 34.5287C18.1295 33.4937 4.38833 27.933 1.89809 26.7578C-0.592159 25.5826 -0.640171 24.7609 1.80206 23.8118C4.24429 22.8627 17.9534 17.5218 20.8502 16.4708C23.7469 15.4198 24.7488 15.3975 27.2102 16.2988C29.6717 17.2001 42.5742 22.299 44.9972 23.1876C47.4203 24.0761 47.5323 24.8055 45.026 26.0953V26.1208Z" fill="#DC382C"/>
<path d="M45.0258 23.1334C42.5291 24.4296 29.5722 29.7292 26.7811 31.1592C23.9899 32.5892 22.508 32.5764 20.325 31.535C18.142 30.4935 4.38807 24.9647 1.89782 23.7831C0.643095 23.1908 0.00292969 22.6939 0.00292969 22.2226V17.5218C0.00292969 17.5218 17.9532 13.6331 20.8499 12.5885C23.7467 11.5439 24.7485 11.5152 27.21 12.4261C29.6714 13.3369 44.4272 15.9612 46.8631 16.8466V21.4964C46.8631 21.9805 46.3029 22.4646 45.0258 23.1334Z" fill="#A32422"/>
<path d="M45.0258 18.4168C42.5292 19.7162 29.5722 25.0157 26.7811 26.4457C23.99 27.8757 22.4952 27.8661 20.3122 26.8279C18.1292 25.7896 4.38809 20.2512 1.89784 19.0665C-0.5924 17.8817 -0.637212 17.076 1.80182 16.1269C4.24085 15.1778 17.9532 9.82414 20.8499 8.80181C23.7467 7.77949 24.7486 7.71579 27.21 8.60436C29.6714 9.49292 42.574 14.6364 44.997 15.4995C47.42 16.3626 47.5321 17.1206 45.0258 18.4072V18.4168Z" fill="#DC382C"/>
<path d="M45.0258 15.162C42.5291 16.4614 29.5722 21.7641 26.7811 23.1909C23.9899 24.6177 22.508 24.6081 20.325 23.5731C18.142 22.538 4.38806 16.9932 1.89782 15.8117C0.643095 15.2257 0.00292969 14.7256 0.00292969 14.2543V9.53757C0.00292969 9.53757 17.9532 5.66165 20.8499 4.62021C23.7467 3.57878 24.7485 3.54693 27.21 4.44505C29.6714 5.34317 44.4208 7.99294 46.8567 8.87831V13.5282C46.8631 14.0186 46.3029 14.4963 45.0258 15.162Z" fill="#A32422"/>
<path d="M45.026 10.4514C42.5294 11.7253 29.5724 17.0599 26.7813 18.4771C23.9902 19.8944 22.4954 19.8912 20.3125 18.8593C18.1295 17.8274 4.38833 12.2763 1.89809 11.0979C-0.592159 9.91954 -0.640171 9.10104 1.80206 8.15197C4.24429 7.20289 17.9534 1.85239 20.8502 0.814142C23.7469 -0.224109 24.7488 -0.255957 27.2102 0.642162C29.6717 1.54028 42.5742 6.64555 44.9972 7.53092C47.4203 8.4163 47.5323 9.152 45.026 10.4418V10.4514Z" fill="#DC382C"/>
<path d="M24.1694 3.75369L27.2614 2.7441L26.4228 4.7378L29.5692 5.90981L25.5137 6.3302L24.6015 8.50862L23.1355 6.0786L18.4463 5.65821L21.948 4.40339L20.8949 2.47339L24.1694 3.75369Z" fill="white"/>
<path d="M24.3647 16.4706L16.7852 13.34L27.6424 11.6807L24.3647 16.4706Z" fill="white"/>
<path d="M13.8561 7.11987C17.0569 7.11987 19.6592 8.12309 19.6592 9.34925C19.6592 10.5754 17.0505 11.5786 13.8561 11.5786C10.6617 11.5786 8.0498 10.5754 8.0498 9.34925C8.0498 8.12309 10.6521 7.11987 13.8561 7.11987Z" fill="white"/>
<path d="M34.3735 6.50537L40.7976 9.03093L34.3799 11.5565L34.3735 6.50537Z" fill="#741113"/>
<path d="M34.374 6.50537L34.3804 11.5565L33.6826 11.8272L27.2617 9.30164L34.374 6.50537Z" fill="#AC2724"/>
<path d="M61.7792 13.1904C62.3332 12.5889 63.0142 12.1168 63.7733 11.8082C64.5128 11.4926 65.3055 11.3187 66.1099 11.2954C66.3976 11.2694 66.6876 11.3014 66.9626 11.3895C67.2376 11.4776 67.4919 11.62 67.7103 11.8082C67.8722 11.964 67.9992 12.152 68.083 12.36C68.1669 12.568 68.2057 12.7913 68.1968 13.0152C68.2 13.4655 68.0253 13.899 67.7103 14.2222C67.5582 14.3913 67.3708 14.5254 67.1613 14.615C66.9518 14.7047 66.7252 14.7478 66.4972 14.7414C64.4999 14.9165 61.7279 16.8975 61.7279 19.5887V25.6971C61.715 26.1506 61.528 26.5819 61.2053 26.9023C60.8826 27.2228 60.4488 27.4081 59.9931 27.4201C59.7599 27.4283 59.5278 27.3849 59.3136 27.2929C59.0994 27.2009 58.9084 27.0627 58.7544 26.8883C58.5922 26.7311 58.4628 26.5435 58.3738 26.3363C58.2848 26.1292 58.2379 25.9065 58.2358 25.6812V12.9419C58.2378 12.7166 58.2846 12.4939 58.3736 12.2867C58.4626 12.0796 58.592 11.892 58.7544 11.7349C59.1343 11.4621 59.5887 11.311 60.0571 11.3018C60.513 11.3107 60.9478 11.4947 61.2705 11.8152C61.5932 12.1357 61.7789 12.568 61.7888 13.0216L61.7792 13.1904Z" fill="white"/>
<path d="M82.8116 18.7957C82.8136 19.212 82.6596 19.614 82.3795 19.9232C82.0474 20.2298 81.6186 20.4121 81.1664 20.4391H70.9238C71.0205 21.2486 71.4164 21.9933 72.0344 22.5283C72.8263 23.3755 73.9095 23.8951 75.0688 23.9838C75.6559 24.0831 76.2569 24.0655 76.8371 23.9321C77.4173 23.7987 77.9651 23.5522 78.4489 23.2067C78.6189 23.0362 78.8222 22.9022 79.0462 22.8129C79.2703 22.7237 79.5104 22.681 79.7516 22.6876C79.9589 22.6779 80.1659 22.7114 80.3594 22.786C80.5529 22.8606 80.7285 22.9746 80.8751 23.1207C81.012 23.2456 81.1227 23.3962 81.201 23.5637C81.2792 23.7313 81.3235 23.9126 81.3312 24.0972C81.339 24.2818 81.31 24.4661 81.246 24.6396C81.182 24.8131 81.0843 24.9722 80.9583 25.108C80.9327 25.1367 80.9039 25.1622 80.8751 25.1909C80.1193 25.887 79.2331 26.4282 78.267 26.7834C77.301 27.1386 76.274 27.3009 75.2449 27.261C74.1882 27.2838 73.1391 27.0801 72.1686 26.6635C71.1982 26.2469 70.3293 25.6274 69.621 24.8469C68.153 23.3042 67.3194 21.2702 67.2844 19.1461C67.2622 18.0884 67.4581 17.0375 67.86 16.0581C68.2619 15.0787 68.8612 14.1916 69.621 13.4516C70.3136 12.7009 71.1585 12.1051 72.0999 11.7038C73.0413 11.3024 74.0576 11.1046 75.0816 11.1235C76.0775 11.0857 77.07 11.2586 77.9937 11.6308C78.9174 12.0031 79.7511 12.5661 80.4398 13.2828C81.9089 14.6833 82.781 16.592 82.8756 18.6142V18.783L82.8116 18.7957ZM75.0976 14.2255C74.0204 14.2438 72.9847 14.6422 72.1753 15.3498C71.4858 15.9265 71.0001 16.7078 70.7893 17.5791H79.8893C79.6342 16.7035 79.0823 15.9428 78.3273 15.4262C77.416 14.6953 76.2955 14.2705 75.1264 14.2128" fill="white"/>
<path d="M99.1202 25.5217C99.1081 25.9752 98.9219 26.4068 98.5998 26.7279C98.2778 27.0489 97.8443 27.235 97.3886 27.2479C96.989 27.2321 96.605 27.0893 96.2928 26.8406C95.9806 26.5919 95.7566 26.2502 95.6537 25.8657C94.3641 26.7844 92.813 27.2688 91.227 27.2479C90.1913 27.2595 89.1643 27.0588 88.21 26.6583C87.2556 26.2577 86.3944 25.666 85.68 24.9198C84.932 24.175 84.3457 23.2852 83.9575 22.3057C83.5694 21.3261 83.3876 20.2777 83.4234 19.2254C83.4096 17.1097 84.2181 15.0705 85.68 13.5341C86.3894 12.7748 87.2475 12.1681 88.2015 11.7513C89.1555 11.3345 90.1851 11.1164 91.227 11.1104C92.7833 11.0899 94.3038 11.5752 95.5577 12.4926V6.46378C95.5517 6.237 95.5952 6.01162 95.6853 5.80322C95.7754 5.59481 95.9099 5.40836 96.0795 5.25674C96.2392 5.093 96.4302 4.96272 96.6413 4.87356C96.8524 4.78441 97.0793 4.73818 97.3086 4.73761C97.5365 4.7316 97.763 4.77491 97.9725 4.86454C98.1819 4.95417 98.3693 5.08799 98.5217 5.25674C98.6845 5.41366 98.8144 5.60113 98.9039 5.80831C98.9935 6.01549 99.0409 6.23827 99.0434 6.46378V25.5217H99.1202ZM91.3262 23.7956C91.9029 23.8074 92.4748 23.6899 92.9995 23.4517C93.5243 23.2135 93.9884 22.8608 94.3574 22.4197C95.1866 21.5648 95.6501 20.423 95.6501 19.2349C95.6501 18.0468 95.1866 16.905 94.3574 16.0501C93.9764 15.6219 93.5103 15.2768 92.9886 15.0368C92.4669 14.7967 91.9009 14.6667 91.3262 14.6551C90.7473 14.6352 90.1717 14.7497 89.645 14.9896C89.1183 15.2296 88.655 15.5883 88.2918 16.0373C87.4626 16.8923 86.9992 18.034 86.9992 19.2222C86.9992 20.4103 87.4626 21.5521 88.2918 22.407C88.6683 22.8401 89.1343 23.1873 89.658 23.4247C90.1817 23.6622 90.7507 23.7843 91.3262 23.7828" fill="white"/>
<path d="M104.245 6.46418V7.15847C104.252 7.40215 104.209 7.64473 104.117 7.87067C104.025 8.09662 103.886 8.30096 103.71 8.47061C103.553 8.62828 103.363 8.74879 103.153 8.82322C102.943 8.89765 102.719 8.92408 102.497 8.90057C102.27 8.9082 102.044 8.86624 101.835 8.77766C101.626 8.68907 101.439 8.55601 101.287 8.38781C101.115 8.21995 100.98 8.01835 100.89 7.79578C100.8 7.5732 100.758 7.33449 100.766 7.09477V6.45781C100.767 6.23207 100.813 6.00886 100.903 5.80148C100.993 5.59411 101.123 5.40681 101.287 5.25076C101.444 5.08874 101.632 4.95941 101.84 4.87029C102.048 4.78117 102.271 4.73404 102.497 4.73164C102.725 4.72811 102.952 4.77318 103.161 4.86381C103.37 4.95444 103.557 5.08855 103.71 5.25713C103.882 5.40759 104.019 5.5936 104.11 5.80212C104.202 6.01063 104.247 6.2366 104.242 6.46418H104.245ZM101.319 11.7287C101.476 11.5656 101.664 11.4355 101.873 11.3463C102.081 11.2572 102.306 11.2106 102.532 11.2096C102.761 11.202 102.988 11.2446 103.197 11.3344C103.407 11.4241 103.594 11.5587 103.746 11.7287C103.91 11.8969 104.039 12.0964 104.124 12.3153C104.209 12.5342 104.249 12.768 104.242 13.0026V25.6177C104.255 25.8463 104.214 26.075 104.122 26.2848C104.029 26.4946 103.888 26.6796 103.71 26.8247C103.553 26.9867 103.365 27.1161 103.158 27.2052C102.95 27.2943 102.727 27.3415 102.5 27.3439C102.272 27.3503 102.046 27.3072 101.836 27.2175C101.627 27.1279 101.439 26.9938 101.287 26.8247C101.123 26.6687 100.993 26.4814 100.903 26.274C100.813 26.0666 100.767 25.8434 100.766 25.6177V13.0154C100.76 12.7787 100.803 12.5433 100.893 12.3241C100.982 12.1049 101.117 11.9065 101.287 11.7414" fill="white"/>
<path d="M116.539 12.9357C116.894 13.1791 117.143 13.5482 117.234 13.9676C117.304 14.4062 117.244 14.8555 117.061 15.2607C116.813 15.611 116.442 15.8563 116.021 15.9486C115.569 16.0314 115.103 15.9391 114.718 15.6906C113.505 14.9167 112.557 14.4867 111.773 14.4867C111.081 14.4424 110.396 14.6558 109.853 15.0855C109.507 15.3466 109.334 15.5186 109.334 15.6906C109.31 15.8406 109.341 15.9942 109.421 16.1237C109.519 16.2299 109.636 16.3173 109.766 16.3817C110.473 16.8237 111.277 17.0892 112.109 17.1556C113.187 17.3324 114.236 17.6538 115.227 18.1111C116.101 18.4743 116.831 19.1118 117.307 19.9264C117.617 20.4011 117.828 20.932 117.93 21.4884C118.032 22.0449 118.023 22.6159 117.902 23.1687C117.781 23.7214 117.552 24.2449 117.226 24.7089C116.901 25.173 116.487 25.5684 116.008 25.8725C114.795 26.7348 113.337 27.1879 111.847 27.1655C109.853 27.1655 107.948 26.3916 106.127 24.9361C105.796 24.6458 105.58 24.2469 105.519 23.8119C105.489 23.4892 105.555 23.1649 105.708 22.8791C105.862 22.5933 106.096 22.3586 106.382 22.204C106.668 22.0494 106.994 21.9818 107.318 22.0094C107.643 22.0371 107.952 22.1588 108.207 22.3596C109.164 23.2651 110.44 23.7603 111.76 23.7386C112.528 23.7647 113.285 23.5533 113.927 23.1335C114.273 22.7896 114.536 22.5316 114.536 22.2704C114.536 22.0093 114.536 21.9265 114.449 21.8405C114.449 21.7513 114.273 21.5825 114.014 21.4965C113.223 21.0097 112.335 20.699 111.412 20.5857C110.382 20.438 109.386 20.1148 108.467 19.6302C107.625 19.2217 106.907 18.5987 106.386 17.8244C106.045 17.2185 105.867 16.5349 105.871 15.8403C105.87 15.1398 106.043 14.4499 106.375 13.8324C106.708 13.2149 107.189 12.6891 107.775 12.302C108.949 11.5057 110.34 11.0846 111.76 11.0949C113.22 11.1841 114.795 11.7828 116.526 12.9071" fill="white"/>
</svg>
