<svg class="railroad-diagram" viewBox="0 0 1068.0 656" xmlns="http://www.w3.org/2000/svg" xmlns:xlink="http://www.w3.org/1999/xlink">
<g transform="translate(.5 .5)">
<g>
<path d="M20 21v20m10 -20v20m-10 -10h20"></path></g><path d="M40 31h10"></path><g>
<path d="M50 31h0.0"></path><path d="M50.0 31h10"></path><g>
<path d="M60.0 31h261.5"></path><path d="M746.5 31h261.5"></path><g class="terminal ">
<path d="M321.5 31h0.0"></path><path d="M443.5 31h0.0"></path><rect height="22" rx="10" ry="10" width="122.0" x="321.5" y="20"></rect><text x="382.5" y="35">FT.AGGREGATE</text></g><path d="M443.5 31h10"></path><path d="M453.5 31h10"></path><g class="non-terminal ">
<path d="M463.5 31h0.0"></path><path d="M526.0 31h0.0"></path><rect height="22" width="62.5" x="463.5" y="20"></rect><text x="494.75" y="35">index</text><title>string</title></g><path d="M526.0 31h10"></path><path d="M536.0 31h10"></path><g class="non-terminal ">
<path d="M546.0 31h0.0"></path><path d="M608.5 31h0.0"></path><rect height="22" width="62.5" x="546.0" y="20"></rect><text x="577.25" y="35">query</text><title>string</title></g><path d="M608.5 31h10"></path><g>
<path d="M618.5 31h0.0"></path><path d="M746.5 31h0.0"></path><path d="M618.5 31h20"></path><g>
<path d="M638.5 31h88.0"></path></g><path d="M726.5 31h20"></path><path d="M618.5 31a10 10 0 0 1 10 10v0a10 10 0 0 0 10 10"></path><g class="terminal ">
<path d="M638.5 51h0.0"></path><path d="M726.5 51h0.0"></path><rect height="22" rx="10" ry="10" width="88.0" x="638.5" y="40"></rect><text x="682.5" y="55">VERBATIM</text></g><path d="M726.5 51a10 10 0 0 0 10 -10v0a10 10 0 0 1 10 -10"></path></g></g><path d="M1008.0 31a10 10 0 0 1 10 10v19a10 10 0 0 1 -10 10h-948.0a10 10 0 0 0 -10 10v0a10 10 0 0 0 10 10"></path><g>
<path d="M60.0 90h169.5"></path><path d="M838.5 90h169.5"></path><g>
<path d="M229.5 90h0.0"></path><path d="M508.5 90h0.0"></path><path d="M229.5 90h20"></path><g>
<path d="M249.5 90h239.0"></path></g><path d="M488.5 90h20"></path><path d="M229.5 90a10 10 0 0 1 10 10v0a10 10 0 0 0 10 10"></path><g>
<path d="M249.5 110h0.0"></path><path d="M488.5 110h0.0"></path><g>
<path d="M249.5 110h0.0"></path><path d="M386.0 110h0.0"></path><g class="terminal ">
<path d="M249.5 110h0.0"></path><path d="M303.5 110h0.0"></path><rect height="22" rx="10" ry="10" width="54.0" x="249.5" y="99"></rect><text x="276.5" y="114">LOAD</text></g><path d="M303.5 110h10"></path><path d="M313.5 110h10"></path><g class="non-terminal ">
<path d="M323.5 110h0.0"></path><path d="M386.0 110h0.0"></path><rect height="22" width="62.5" x="323.5" y="99"></rect><text x="354.75" y="114">count</text><title>string</title></g></g><path d="M386.0 110h10"></path><path d="M396.0 110h10"></path><g>
<path d="M406.0 110h0.0"></path><path d="M488.5 110h0.0"></path><path d="M406.0 110h10"></path><g class="non-terminal ">
<path d="M416.0 110h0.0"></path><path d="M478.5 110h0.0"></path><rect height="22" width="62.5" x="416.0" y="99"></rect><text x="447.25" y="114">field</text><title>string</title></g><path d="M478.5 110h10"></path><path d="M416.0 110a10 10 0 0 0 -10 10v0a10 10 0 0 0 10 10"></path><g>
<path d="M416.0 130h62.5"></path></g><path d="M478.5 130a10 10 0 0 0 10 -10v0a10 10 0 0 0 -10 -10"></path></g></g><path d="M488.5 110a10 10 0 0 0 10 -10v0a10 10 0 0 1 10 -10"></path></g><g>
<path d="M508.5 90h0.0"></path><path d="M727.5 90h0.0"></path><path d="M508.5 90h20"></path><g>
<path d="M528.5 90h179.0"></path></g><path d="M707.5 90h20"></path><path d="M508.5 90a10 10 0 0 1 10 10v0a10 10 0 0 0 10 10"></path><g>
<path d="M528.5 110h0.0"></path><path d="M707.5 110h0.0"></path><g class="terminal ">
<path d="M528.5 110h0.0"></path><path d="M608.0 110h0.0"></path><rect height="22" rx="10" ry="10" width="79.5" x="528.5" y="99"></rect><text x="568.25" y="114">TIMEOUT</text></g><path d="M608.0 110h10"></path><path d="M618.0 110h10"></path><g class="non-terminal ">
<path d="M628.0 110h0.0"></path><path d="M707.5 110h0.0"></path><rect height="22" width="79.5" x="628.0" y="99"></rect><text x="667.75" y="114">timeout</text><title>integer</title></g></g><path d="M707.5 110a10 10 0 0 0 10 -10v0a10 10 0 0 1 10 -10"></path></g><g>
<path d="M727.5 90h0.0"></path><path d="M838.5 90h0.0"></path><path d="M727.5 90h20"></path><g>
<path d="M747.5 90h71.0"></path></g><path d="M818.5 90h20"></path><path d="M727.5 90a10 10 0 0 1 10 10v0a10 10 0 0 0 10 10"></path><g class="terminal ">
<path d="M747.5 110h0.0"></path><path d="M818.5 110h0.0"></path><rect height="22" rx="10" ry="10" width="71.0" x="747.5" y="99"></rect><text x="783.0" y="114">LOAD &#42;</text></g><path d="M818.5 110a10 10 0 0 0 10 -10v0a10 10 0 0 1 10 -10"></path></g></g><path d="M1008.0 90a10 10 0 0 1 10 10v28a10 10 0 0 1 -10 10h-948.0a10 10 0 0 0 -10 10v0a10 10 0 0 0 10 10"></path><g>
<path d="M60.0 158h10.0"></path><path d="M998.0 158h10.0"></path><g>
<path d="M70.0 158h0.0"></path><path d="M998.0 158h0.0"></path><path d="M70.0 158h20"></path><g>
<path d="M90.0 158h888.0"></path></g><path d="M978.0 158h20"></path><path d="M70.0 158a10 10 0 0 1 10 10v0a10 10 0 0 0 10 10"></path><g>
<path d="M90.0 178h0.0"></path><path d="M978.0 178h0.0"></path><path d="M90.0 178h10"></path><g>
<path d="M100.0 178h0.0"></path><path d="M968.0 178h0.0"></path><g>
<path d="M100.0 178h0.0"></path><path d="M262.0 178h0.0"></path><g class="terminal ">
<path d="M100.0 178h0.0"></path><path d="M179.5 178h0.0"></path><rect height="22" rx="10" ry="10" width="79.5" x="100.0" y="167"></rect><text x="139.75" y="182">GROUPBY</text></g><path d="M179.5 178h10"></path><path d="M189.5 178h10"></path><g class="non-terminal ">
<path d="M199.5 178h0.0"></path><path d="M262.0 178h0.0"></path><rect height="22" width="62.5" x="199.5" y="167"></rect><text x="230.75" y="182">nargs</text><title>integer</title></g></g><path d="M262.0 178h10"></path><path d="M272.0 178h10"></path><g>
<path d="M282.0 178h0.0"></path><path d="M390.0 178h0.0"></path><path d="M282.0 178h10"></path><g class="non-terminal ">
<path d="M292.0 178h0.0"></path><path d="M380.0 178h0.0"></path><rect height="22" width="88.0" x="292.0" y="167"></rect><text x="336.0" y="182">property</text><title>string</title></g><path d="M380.0 178h10"></path><path d="M292.0 178a10 10 0 0 0 -10 10v0a10 10 0 0 0 10 10"></path><g>
<path d="M292.0 198h88.0"></path></g><path d="M380.0 198a10 10 0 0 0 10 -10v0a10 10 0 0 0 -10 -10"></path></g><path d="M390.0 178h10"></path><g>
<path d="M400.0 178h0.0"></path><path d="M968.0 178h0.0"></path><path d="M400.0 178h20"></path><g>
<path d="M420.0 178h528.0"></path></g><path d="M948.0 178h20"></path><path d="M400.0 178a10 10 0 0 1 10 10v0a10 10 0 0 0 10 10"></path><g>
<path d="M420.0 198h0.0"></path><path d="M948.0 198h0.0"></path><path d="M420.0 198h10"></path><g>
<path d="M430.0 198h0.0"></path><path d="M938.0 198h0.0"></path><g>
<path d="M430.0 198h0.0"></path><path d="M609.0 198h0.0"></path><g class="terminal ">
<path d="M430.0 198h0.0"></path><path d="M501.0 198h0.0"></path><rect height="22" rx="10" ry="10" width="71.0" x="430.0" y="187"></rect><text x="465.5" y="202">REDUCE</text></g><path d="M501.0 198h10"></path><path d="M511.0 198h10"></path><g class="non-terminal ">
<path d="M521.0 198h0.0"></path><path d="M609.0 198h0.0"></path><rect height="22" width="88.0" x="521.0" y="187"></rect><text x="565.0" y="202">function</text><title>string</title></g></g><path d="M609.0 198h10"></path><path d="M619.0 198h10"></path><g class="non-terminal ">
<path d="M629.0 198h0.0"></path><path d="M691.5 198h0.0"></path><rect height="22" width="62.5" x="629.0" y="187"></rect><text x="660.25" y="202">nargs</text><title>integer</title></g><path d="M691.5 198h10"></path><path d="M701.5 198h10"></path><g>
<path d="M711.5 198h0.0"></path><path d="M777.0 198h0.0"></path><path d="M711.5 198h10"></path><g class="non-terminal ">
<path d="M721.5 198h0.0"></path><path d="M767.0 198h0.0"></path><rect height="22" width="45.5" x="721.5" y="187"></rect><text x="744.25" y="202">arg</text><title>string</title></g><path d="M767.0 198h10"></path><path d="M721.5 198a10 10 0 0 0 -10 10v0a10 10 0 0 0 10 10"></path><g>
<path d="M721.5 218h45.5"></path></g><path d="M767.0 218a10 10 0 0 0 10 -10v0a10 10 0 0 0 -10 -10"></path></g><path d="M777.0 198h10"></path><g>
<path d="M787.0 198h0.0"></path><path d="M938.0 198h0.0"></path><path d="M787.0 198h20"></path><g>
<path d="M807.0 198h111.0"></path></g><path d="M918.0 198h20"></path><path d="M787.0 198a10 10 0 0 1 10 10v0a10 10 0 0 0 10 10"></path><g>
<path d="M807.0 218h0.0"></path><path d="M918.0 218h0.0"></path><g class="terminal ">
<path d="M807.0 218h0.0"></path><path d="M844.0 218h0.0"></path><rect height="22" rx="10" ry="10" width="37.0" x="807.0" y="207"></rect><text x="825.5" y="222">AS</text></g><path d="M844.0 218h10"></path><path d="M854.0 218h10"></path><g class="non-terminal ">
<path d="M864.0 218h0.0"></path><path d="M918.0 218h0.0"></path><rect height="22" width="54.0" x="864.0" y="207"></rect><text x="891.0" y="222">name</text><title>string</title></g></g><path d="M918.0 218a10 10 0 0 0 10 -10v0a10 10 0 0 1 10 -10"></path></g></g><path d="M938.0 198h10"></path><path d="M430.0 198a10 10 0 0 0 -10 10v19a10 10 0 0 0 10 10"></path><g>
<path d="M430.0 237h508.0"></path></g><path d="M938.0 237a10 10 0 0 0 10 -10v-19a10 10 0 0 0 -10 -10"></path></g><path d="M948.0 198a10 10 0 0 0 10 -10v0a10 10 0 0 1 10 -10"></path></g></g><path d="M968.0 178h10"></path><path d="M100.0 178a10 10 0 0 0 -10 10v47a10 10 0 0 0 10 10"></path><g>
<path d="M100.0 245h868.0"></path></g><path d="M968.0 245a10 10 0 0 0 10 -10v-47a10 10 0 0 0 -10 -10"></path></g><path d="M978.0 178a10 10 0 0 0 10 -10v0a10 10 0 0 1 10 -10"></path></g></g><path d="M1008.0 158a10 10 0 0 1 10 10v75a10 10 0 0 1 -10 10h-948.0a10 10 0 0 0 -10 10v0a10 10 0 0 0 10 10"></path><g>
<path d="M60.0 273h170.75"></path><path d="M837.25 273h170.75"></path><g>
<path d="M230.75 273h0.0"></path><path d="M837.25 273h0.0"></path><path d="M230.75 273h20"></path><g>
<path d="M250.75 273h566.5"></path></g><path d="M817.25 273h20"></path><path d="M230.75 273a10 10 0 0 1 10 10v0a10 10 0 0 0 10 10"></path><g>
<path d="M250.75 293h0.0"></path><path d="M817.25 293h0.0"></path><g>
<path d="M250.75 293h0.0"></path><path d="M404.25 293h0.0"></path><g class="terminal ">
<path d="M250.75 293h0.0"></path><path d="M321.75 293h0.0"></path><rect height="22" rx="10" ry="10" width="71.0" x="250.75" y="282"></rect><text x="286.25" y="297">SORTBY</text></g><path d="M321.75 293h10"></path><path d="M331.75 293h10"></path><g class="non-terminal ">
<path d="M341.75 293h0.0"></path><path d="M404.25 293h0.0"></path><rect height="22" width="62.5" x="341.75" y="282"></rect><text x="373.0" y="297">nargs</text><title>integer</title></g></g><path d="M404.25 293h10"></path><g>
<path d="M414.25 293h0.0"></path><path d="M666.25 293h0.0"></path><path d="M414.25 293h20"></path><g>
<path d="M434.25 293h212.0"></path></g><path d="M646.25 293h20"></path><path d="M414.25 293a10 10 0 0 1 10 10v29a10 10 0 0 0 10 10"></path><g>
<path d="M434.25 342h0.0"></path><path d="M646.25 342h0.0"></path><path d="M434.25 342h10"></path><g>
<path d="M444.25 342h0.0"></path><path d="M636.25 342h0.0"></path><g class="non-terminal ">
<path d="M444.25 342h0.0"></path><path d="M532.25 342h0.0"></path><rect height="22" width="88.0" x="444.25" y="331"></rect><text x="488.25" y="346">property</text><title>string</title></g><path d="M532.25 342h10"></path><g>
<path d="M542.25 342h0.0"></path><path d="M636.25 342h0.0"></path><path d="M542.25 342a10 10 0 0 0 10 -10v-10a10 10 0 0 1 10 -10"></path><g class="terminal ">
<path d="M562.25 312h4.25"></path><path d="M612.0 312h4.25"></path><rect height="22" rx="10" ry="10" width="45.5" x="566.5" y="301"></rect><text x="589.25" y="316">ASC</text></g><path d="M616.25 312a10 10 0 0 1 10 10v10a10 10 0 0 0 10 10"></path><path d="M542.25 342h20"></path><g class="terminal ">
<path d="M562.25 342h0.0"></path><path d="M616.25 342h0.0"></path><rect height="22" rx="10" ry="10" width="54.0" x="562.25" y="331"></rect><text x="589.25" y="346">DESC</text></g><path d="M616.25 342h20"></path></g></g><path d="M636.25 342h10"></path><path d="M444.25 342a10 10 0 0 0 -10 10v0a10 10 0 0 0 10 10"></path><g>
<path d="M444.25 362h192.0"></path></g><path d="M636.25 362a10 10 0 0 0 10 -10v0a10 10 0 0 0 -10 -10"></path></g><path d="M646.25 342a10 10 0 0 0 10 -10v-29a10 10 0 0 1 10 -10"></path></g><g>
<path d="M666.25 293h0.0"></path><path d="M817.25 293h0.0"></path><path d="M666.25 293h20"></path><g>
<path d="M686.25 293h111.0"></path></g><path d="M797.25 293h20"></path><path d="M666.25 293a10 10 0 0 1 10 10v0a10 10 0 0 0 10 10"></path><g>
<path d="M686.25 313h0.0"></path><path d="M797.25 313h0.0"></path><g class="terminal ">
<path d="M686.25 313h0.0"></path><path d="M731.75 313h0.0"></path><rect height="22" rx="10" ry="10" width="45.5" x="686.25" y="302"></rect><text x="709.0" y="317">MAX</text></g><path d="M731.75 313h10"></path><path d="M741.75 313h10"></path><g class="non-terminal ">
<path d="M751.75 313h0.0"></path><path d="M797.25 313h0.0"></path><rect height="22" width="45.5" x="751.75" y="302"></rect><text x="774.5" y="317">num</text><title>integer</title></g></g><path d="M797.25 313a10 10 0 0 0 10 -10v0a10 10 0 0 1 10 -10"></path></g></g><path d="M817.25 293a10 10 0 0 0 10 -10v0a10 10 0 0 1 10 -10"></path></g></g><path d="M1008.0 273a10 10 0 0 1 10 10v77a10 10 0 0 1 -10 10h-948.0a10 10 0 0 0 -10 10v0a10 10 0 0 0 10 10"></path><g>
<path d="M60.0 390h155.25"></path><path d="M852.75 390h155.25"></path><g>
<path d="M215.25 390h0.0"></path><path d="M593.75 390h0.0"></path><path d="M215.25 390h20"></path><g>
<path d="M235.25 390h338.5"></path></g><path d="M573.75 390h20"></path><path d="M215.25 390a10 10 0 0 1 10 10v0a10 10 0 0 0 10 10"></path><g>
<path d="M235.25 410h0.0"></path><path d="M573.75 410h0.0"></path><path d="M235.25 410h10"></path><g>
<path d="M245.25 410h0.0"></path><path d="M563.75 410h0.0"></path><g>
<path d="M245.25 410h0.0"></path><path d="M432.75 410h0.0"></path><g class="terminal ">
<path d="M245.25 410h0.0"></path><path d="M307.75 410h0.0"></path><rect height="22" rx="10" ry="10" width="62.5" x="245.25" y="399"></rect><text x="276.5" y="414">APPLY</text></g><path d="M307.75 410h10"></path><path d="M317.75 410h10"></path><g class="non-terminal ">
<path d="M327.75 410h0.0"></path><path d="M432.75 410h0.0"></path><rect height="22" width="105.0" x="327.75" y="399"></rect><text x="380.25" y="414">expression</text><title>string</title></g></g><path d="M432.75 410h10"></path><path d="M442.75 410h10"></path><g>
<path d="M452.75 410h0.0"></path><path d="M563.75 410h0.0"></path><g class="terminal ">
<path d="M452.75 410h0.0"></path><path d="M489.75 410h0.0"></path><rect height="22" rx="10" ry="10" width="37.0" x="452.75" y="399"></rect><text x="471.25" y="414">AS</text></g><path d="M489.75 410h10"></path><path d="M499.75 410h10"></path><g class="non-terminal ">
<path d="M509.75 410h0.0"></path><path d="M563.75 410h0.0"></path><rect height="22" width="54.0" x="509.75" y="399"></rect><text x="536.75" y="414">name</text><title>string</title></g></g></g><path d="M563.75 410h10"></path><path d="M245.25 410a10 10 0 0 0 -10 10v0a10 10 0 0 0 10 10"></path><g>
<path d="M245.25 430h318.5"></path></g><path d="M563.75 430a10 10 0 0 0 10 -10v0a10 10 0 0 0 -10 -10"></path></g><path d="M573.75 410a10 10 0 0 0 10 -10v0a10 10 0 0 1 10 -10"></path></g><g>
<path d="M593.75 390h0.0"></path><path d="M852.75 390h0.0"></path><path d="M593.75 390h20"></path><g>
<path d="M613.75 390h219.0"></path></g><path d="M832.75 390h20"></path><path d="M593.75 390a10 10 0 0 1 10 10v0a10 10 0 0 0 10 10"></path><g>
<path d="M613.75 410h0.0"></path><path d="M832.75 410h0.0"></path><g class="terminal ">
<path d="M613.75 410h0.0"></path><path d="M676.25 410h0.0"></path><rect height="22" rx="10" ry="10" width="62.5" x="613.75" y="399"></rect><text x="645.0" y="414">LIMIT</text></g><path d="M676.25 410h10"></path><path d="M686.25 410h10"></path><g class="non-terminal ">
<path d="M696.25 410h0.0"></path><path d="M767.25 410h0.0"></path><rect height="22" width="71.0" x="696.25" y="399"></rect><text x="731.75" y="414">offset</text><title>integer</title></g><path d="M767.25 410h10"></path><path d="M777.25 410h10"></path><g class="non-terminal ">
<path d="M787.25 410h0.0"></path><path d="M832.75 410h0.0"></path><rect height="22" width="45.5" x="787.25" y="399"></rect><text x="810.0" y="414">num</text><title>integer</title></g></g><path d="M832.75 410a10 10 0 0 0 10 -10v0a10 10 0 0 1 10 -10"></path></g></g><path d="M1008.0 390a10 10 0 0 1 10 10v28a10 10 0 0 1 -10 10h-948.0a10 10 0 0 0 -10 10v0a10 10 0 0 0 10 10"></path><g>
<path d="M60.0 458h373.0"></path><path d="M635.0 458h373.0"></path><g>
<path d="M433.0 458h0.0"></path><path d="M635.0 458h0.0"></path><path d="M433.0 458h20"></path><g>
<path d="M453.0 458h162.0"></path></g><path d="M615.0 458h20"></path><path d="M433.0 458a10 10 0 0 1 10 10v0a10 10 0 0 0 10 10"></path><g>
<path d="M453.0 478h0.0"></path><path d="M615.0 478h0.0"></path><g class="terminal ">
<path d="M453.0 478h0.0"></path><path d="M524.0 478h0.0"></path><rect height="22" rx="10" ry="10" width="71.0" x="453.0" y="467"></rect><text x="488.5" y="482">FILTER</text></g><path d="M524.0 478h10"></path><path d="M534.0 478h10"></path><g class="non-terminal ">
<path d="M544.0 478h0.0"></path><path d="M615.0 478h0.0"></path><rect height="22" width="71.0" x="544.0" y="467"></rect><text x="579.5" y="482">filter</text><title>string</title></g></g><path d="M615.0 478a10 10 0 0 0 10 -10v0a10 10 0 0 1 10 -10"></path></g></g><path d="M1008.0 458a10 10 0 0 1 10 10v19a10 10 0 0 1 -10 10h-948.0a10 10 0 0 0 -10 10v0a10 10 0 0 0 10 10"></path><g>
<path d="M60.0 517h169.0"></path><path d="M839.0 517h169.0"></path><g>
<path d="M229.0 517h0.0"></path><path d="M839.0 517h0.0"></path><path d="M229.0 517h20"></path><g>
<path d="M249.0 517h570.0"></path></g><path d="M819.0 517h20"></path><path d="M229.0 517a10 10 0 0 1 10 10v0a10 10 0 0 0 10 10"></path><g>
<path d="M249.0 537h0.0"></path><path d="M819.0 537h0.0"></path><g class="terminal ">
<path d="M249.0 537h0.0"></path><path d="M354.0 537h0.0"></path><rect height="22" rx="10" ry="10" width="105.0" x="249.0" y="526"></rect><text x="301.5" y="541">WITHCURSOR</text></g><path d="M354.0 537h10"></path><g>
<path d="M364.0 537h0.0"></path><path d="M583.0 537h0.0"></path><path d="M364.0 537h20"></path><g>
<path d="M384.0 537h179.0"></path></g><path d="M563.0 537h20"></path><path d="M364.0 537a10 10 0 0 1 10 10v0a10 10 0 0 0 10 10"></path><g>
<path d="M384.0 557h0.0"></path><path d="M563.0 557h0.0"></path><g class="terminal ">
<path d="M384.0 557h0.0"></path><path d="M446.5 557h0.0"></path><rect height="22" rx="10" ry="10" width="62.5" x="384.0" y="546"></rect><text x="415.25" y="561">COUNT</text></g><path d="M446.5 557h10"></path><path d="M456.5 557h10"></path><g class="non-terminal ">
<path d="M466.5 557h0.0"></path><path d="M563.0 557h0.0"></path><rect height="22" width="96.5" x="466.5" y="546"></rect><text x="514.75" y="561">read&#95;size</text><title>integer</title></g></g><path d="M563.0 557a10 10 0 0 0 10 -10v0a10 10 0 0 1 10 -10"></path></g><g>
<path d="M583.0 537h0.0"></path><path d="M819.0 537h0.0"></path><path d="M583.0 537h20"></path><g>
<path d="M603.0 537h196.0"></path></g><path d="M799.0 537h20"></path><path d="M583.0 537a10 10 0 0 1 10 10v0a10 10 0 0 0 10 10"></path><g>
<path d="M603.0 557h0.0"></path><path d="M799.0 557h0.0"></path><g class="terminal ">
<path d="M603.0 557h0.0"></path><path d="M682.5 557h0.0"></path><rect height="22" rx="10" ry="10" width="79.5" x="603.0" y="546"></rect><text x="642.75" y="561">MAXIDLE</text></g><path d="M682.5 557h10"></path><path d="M692.5 557h10"></path><g class="non-terminal ">
<path d="M702.5 557h0.0"></path><path d="M799.0 557h0.0"></path><rect height="22" width="96.5" x="702.5" y="546"></rect><text x="750.75" y="561">idle&#95;time</text><title>integer</title></g></g><path d="M799.0 557a10 10 0 0 0 10 -10v0a10 10 0 0 1 10 -10"></path></g></g><path d="M819.0 537a10 10 0 0 0 10 -10v0a10 10 0 0 1 10 -10"></path></g></g><path d="M1008.0 517a10 10 0 0 1 10 10v39a10 10 0 0 1 -10 10h-948.0a10 10 0 0 0 -10 10v0a10 10 0 0 0 10 10"></path><g>
<path d="M60.0 596h179.5"></path><path d="M828.5 596h179.5"></path><g>
<path d="M239.5 596h0.0"></path><path d="M609.5 596h0.0"></path><path d="M239.5 596h20"></path><g>
<path d="M259.5 596h330.0"></path></g><path d="M589.5 596h20"></path><path d="M239.5 596a10 10 0 0 1 10 10v0a10 10 0 0 0 10 10"></path><g>
<path d="M259.5 616h0.0"></path><path d="M589.5 616h0.0"></path><g class="terminal ">
<path d="M259.5 616h0.0"></path><path d="M330.5 616h0.0"></path><rect height="22" rx="10" ry="10" width="71.0" x="259.5" y="605"></rect><text x="295.0" y="620">PARAMS</text></g><path d="M330.5 616h10"></path><path d="M340.5 616h10"></path><g class="non-terminal ">
<path d="M350.5 616h0.0"></path><path d="M413.0 616h0.0"></path><rect height="22" width="62.5" x="350.5" y="605"></rect><text x="381.75" y="620">nargs</text><title>integer</title></g><path d="M413.0 616h10"></path><path d="M423.0 616h10"></path><g>
<path d="M433.0 616h0.0"></path><path d="M589.5 616h0.0"></path><path d="M433.0 616h10"></path><g>
<path d="M443.0 616h0.0"></path><path d="M579.5 616h0.0"></path><g class="non-terminal ">
<path d="M443.0 616h0.0"></path><path d="M497.0 616h0.0"></path><rect height="22" width="54.0" x="443.0" y="605"></rect><text x="470.0" y="620">name</text><title>string</title></g><path d="M497.0 616h10"></path><path d="M507.0 616h10"></path><g class="non-terminal ">
<path d="M517.0 616h0.0"></path><path d="M579.5 616h0.0"></path><rect height="22" width="62.5" x="517.0" y="605"></rect><text x="548.25" y="620">value</text><title>string</title></g></g><path d="M579.5 616h10"></path><path d="M443.0 616a10 10 0 0 0 -10 10v0a10 10 0 0 0 10 10"></path><g>
<path d="M443.0 636h136.5"></path></g><path d="M579.5 636a10 10 0 0 0 10 -10v0a10 10 0 0 0 -10 -10"></path></g></g><path d="M589.5 616a10 10 0 0 0 10 -10v0a10 10 0 0 1 10 -10"></path></g><g>
<path d="M609.5 596h0.0"></path><path d="M828.5 596h0.0"></path><path d="M609.5 596h20"></path><g>
<path d="M629.5 596h179.0"></path></g><path d="M808.5 596h20"></path><path d="M609.5 596a10 10 0 0 1 10 10v0a10 10 0 0 0 10 10"></path><g>
<path d="M629.5 616h0.0"></path><path d="M808.5 616h0.0"></path><g class="terminal ">
<path d="M629.5 616h0.0"></path><path d="M709.0 616h0.0"></path><rect height="22" rx="10" ry="10" width="79.5" x="629.5" y="605"></rect><text x="669.25" y="620">DIALECT</text></g><path d="M709.0 616h10"></path><path d="M719.0 616h10"></path><g class="non-terminal ">
<path d="M729.0 616h0.0"></path><path d="M808.5 616h0.0"></path><rect height="22" width="79.5" x="729.0" y="605"></rect><text x="768.75" y="620">dialect</text><title>integer</title></g></g><path d="M808.5 616a10 10 0 0 0 10 -10v0a10 10 0 0 1 10 -10"></path></g></g><path d="M1008.0 596h10"></path><path d="M1018.0 596h0.0"></path></g><path d="M1018.0 596h10"></path><path d="M 1028.0 596 h 20 m -10 -10 v 20 m 10 -20 v 20"></path></g></svg>