<svg class="railroad-diagram" viewBox="0 0 451.5 82" xmlns="http://www.w3.org/2000/svg" xmlns:xlink="http://www.w3.org/1999/xlink">
<g transform="translate(.5 .5)">
<g>
<path d="M20 21v20m10 -20v20m-10 -10h20"></path></g><path d="M40 31h10"></path><g>
<path d="M50 31h0.0"></path><g>
<path d="M50.0 31h10.0"></path><path d="M391.5 31h10.0"></path><g class="terminal ">
<path d="M60.0 31h0.0"></path><path d="M182.0 31h0.0"></path><rect height="22" rx="10" ry="10" width="122.0" x="60.0" y="20"></rect><text x="121.0" y="35">FT.DROPINDEX</text></g><path d="M182.0 31h10"></path><path d="M192.0 31h10"></path><g class="non-terminal ">
<path d="M202.0 31h0.0"></path><path d="M264.5 31h0.0"></path><rect height="22" width="62.5" x="202.0" y="20"></rect><text x="233.25" y="35">index</text><title>string</title></g><path d="M264.5 31h10"></path><g>
<path d="M274.5 31h0.0"></path><path d="M391.5 31h0.0"></path><path d="M274.5 31h20"></path><g>
<path d="M294.5 31h77.0"></path></g><path d="M371.5 31h20"></path><path d="M274.5 31a10 10 0 0 1 10 10v0a10 10 0 0 0 10 10"></path><g>
<path d="M294.5 51h0.0"></path><path d="M371.5 51h0.0"></path><path d="M294.5 51h20"></path><g class="terminal ">
<path d="M314.5 51h0.0"></path><path d="M351.5 51h0.0"></path><rect height="22" rx="10" ry="10" width="37.0" x="314.5" y="40"></rect><text x="333.0" y="55">DD</text></g><path d="M351.5 51h20"></path></g><path d="M371.5 51a10 10 0 0 0 10 -10v0a10 10 0 0 1 10 -10"></path></g></g><path d="M401.5 31h0.0"></path></g><path d="M401.5 31h10"></path><path d="M 411.5 31 h 20 m -10 -10 v 20 m 10 -20 v 20"></path></g></svg>