<svg class="railroad-diagram" viewBox="0 0 678.0 239" xmlns="http://www.w3.org/2000/svg" xmlns:xlink="http://www.w3.org/1999/xlink">
<g transform="translate(.5 .5)">
<g>
<path d="M20 51v20m10 -20v20m-10 -10h20"></path></g><path d="M40 61h10"></path><g>
<path d="M50 61h0.0"></path><path d="M50.0 61h10"></path><g>
<path d="M60.0 61h35.25"></path><path d="M582.75 61h35.25"></path><g class="terminal ">
<path d="M95.25 61h0.0"></path><path d="M242.75 61h0.0"></path><rect height="22" rx="10" ry="10" width="147.5" x="95.25" y="50"></rect><text x="169.0" y="65">CLIENT TRACKING</text></g><path d="M242.75 61h10"></path><g>
<path d="M252.75 61h0.0"></path><path d="M338.25 61h0.0"></path><path d="M252.75 61a10 10 0 0 0 10 -10v-10a10 10 0 0 1 10 -10"></path><g class="terminal ">
<path d="M272.75 31h4.25"></path><path d="M314.0 31h4.25"></path><rect height="22" rx="10" ry="10" width="37.0" x="277.0" y="20"></rect><text x="295.5" y="35">ON</text></g><path d="M318.25 31a10 10 0 0 1 10 10v10a10 10 0 0 0 10 10"></path><path d="M252.75 61h20"></path><g class="terminal ">
<path d="M272.75 61h0.0"></path><path d="M318.25 61h0.0"></path><rect height="22" rx="10" ry="10" width="45.5" x="272.75" y="50"></rect><text x="295.5" y="65">OFF</text></g><path d="M318.25 61h20"></path></g><g>
<path d="M338.25 61h0.0"></path><path d="M582.75 61h0.0"></path><path d="M338.25 61h20"></path><g>
<path d="M358.25 61h204.5"></path></g><path d="M562.75 61h20"></path><path d="M338.25 61a10 10 0 0 1 10 10v0a10 10 0 0 0 10 10"></path><g>
<path d="M358.25 81h0.0"></path><path d="M562.75 81h0.0"></path><g class="terminal ">
<path d="M358.25 81h0.0"></path><path d="M446.25 81h0.0"></path><rect height="22" rx="10" ry="10" width="88.0" x="358.25" y="70"></rect><text x="402.25" y="85">REDIRECT</text></g><path d="M446.25 81h10"></path><path d="M456.25 81h10"></path><g class="non-terminal ">
<path d="M466.25 81h0.0"></path><path d="M562.75 81h0.0"></path><rect height="22" width="96.5" x="466.25" y="70"></rect><text x="514.5" y="85">client-id</text><title>integer</title></g></g><path d="M562.75 81a10 10 0 0 0 10 -10v0a10 10 0 0 1 10 -10"></path></g></g><path d="M618.0 61a10 10 0 0 1 10 10v19a10 10 0 0 1 -10 10h-558.0a10 10 0 0 0 -10 10v0a10 10 0 0 0 10 10"></path><g>
<path d="M60.0 120h10.0"></path><path d="M608.0 120h10.0"></path><g>
<path d="M70.0 120h0.0"></path><path d="M292.0 120h0.0"></path><path d="M70.0 120h20"></path><g>
<path d="M90.0 120h182.0"></path></g><path d="M272.0 120h20"></path><path d="M70.0 120a10 10 0 0 1 10 10v0a10 10 0 0 0 10 10"></path><g>
<path d="M90.0 140h0.0"></path><path d="M272.0 140h0.0"></path><path d="M90.0 140h10"></path><g>
<path d="M100.0 140h0.0"></path><path d="M262.0 140h0.0"></path><g class="terminal ">
<path d="M100.0 140h0.0"></path><path d="M171.0 140h0.0"></path><rect height="22" rx="10" ry="10" width="71.0" x="100.0" y="129"></rect><text x="135.5" y="144">PREFIX</text></g><path d="M171.0 140h10"></path><path d="M181.0 140h10"></path><g class="non-terminal ">
<path d="M191.0 140h0.0"></path><path d="M262.0 140h0.0"></path><rect height="22" width="71.0" x="191.0" y="129"></rect><text x="226.5" y="144">prefix</text><title>string</title></g></g><path d="M262.0 140h10"></path><path d="M100.0 140a10 10 0 0 0 -10 10v0a10 10 0 0 0 10 10"></path><g>
<path d="M100.0 160h162.0"></path></g><path d="M262.0 160a10 10 0 0 0 10 -10v0a10 10 0 0 0 -10 -10"></path></g><path d="M272.0 140a10 10 0 0 0 10 -10v0a10 10 0 0 1 10 -10"></path></g><g>
<path d="M292.0 120h0.0"></path><path d="M394.5 120h0.0"></path><path d="M292.0 120h20"></path><g>
<path d="M312.0 120h62.5"></path></g><path d="M374.5 120h20"></path><path d="M292.0 120a10 10 0 0 1 10 10v0a10 10 0 0 0 10 10"></path><g class="terminal ">
<path d="M312.0 140h0.0"></path><path d="M374.5 140h0.0"></path><rect height="22" rx="10" ry="10" width="62.5" x="312.0" y="129"></rect><text x="343.25" y="144">BCAST</text></g><path d="M374.5 140a10 10 0 0 0 10 -10v0a10 10 0 0 1 10 -10"></path></g><g>
<path d="M394.5 120h0.0"></path><path d="M497.0 120h0.0"></path><path d="M394.5 120h20"></path><g>
<path d="M414.5 120h62.5"></path></g><path d="M477.0 120h20"></path><path d="M394.5 120a10 10 0 0 1 10 10v0a10 10 0 0 0 10 10"></path><g class="terminal ">
<path d="M414.5 140h0.0"></path><path d="M477.0 140h0.0"></path><rect height="22" rx="10" ry="10" width="62.5" x="414.5" y="129"></rect><text x="445.75" y="144">OPTIN</text></g><path d="M477.0 140a10 10 0 0 0 10 -10v0a10 10 0 0 1 10 -10"></path></g><g>
<path d="M497.0 120h0.0"></path><path d="M608.0 120h0.0"></path><path d="M497.0 120h20"></path><g>
<path d="M517.0 120h71.0"></path></g><path d="M588.0 120h20"></path><path d="M497.0 120a10 10 0 0 1 10 10v0a10 10 0 0 0 10 10"></path><g class="terminal ">
<path d="M517.0 140h0.0"></path><path d="M588.0 140h0.0"></path><rect height="22" rx="10" ry="10" width="71.0" x="517.0" y="129"></rect><text x="552.5" y="144">OPTOUT</text></g><path d="M588.0 140a10 10 0 0 0 10 -10v0a10 10 0 0 1 10 -10"></path></g></g><path d="M618.0 120a10 10 0 0 1 10 10v28a10 10 0 0 1 -10 10h-558.0a10 10 0 0 0 -10 10v0a10 10 0 0 0 10 10"></path><g>
<path d="M60.0 188h223.5"></path><path d="M394.5 188h223.5"></path><g>
<path d="M283.5 188h0.0"></path><path d="M394.5 188h0.0"></path><path d="M283.5 188h20"></path><g>
<path d="M303.5 188h71.0"></path></g><path d="M374.5 188h20"></path><path d="M283.5 188a10 10 0 0 1 10 10v0a10 10 0 0 0 10 10"></path><g class="terminal ">
<path d="M303.5 208h0.0"></path><path d="M374.5 208h0.0"></path><rect height="22" rx="10" ry="10" width="71.0" x="303.5" y="197"></rect><text x="339.0" y="212">NOLOOP</text></g><path d="M374.5 208a10 10 0 0 0 10 -10v0a10 10 0 0 1 10 -10"></path></g></g><path d="M618.0 188h10"></path><path d="M628.0 188h0.0"></path></g><path d="M628.0 188h10"></path><path d="M 638.0 188 h 20 m -10 -10 v 20 m 10 -20 v 20"></path></g></svg>