<svg class="railroad-diagram" viewBox="0 0 748.5 397" xmlns="http://www.w3.org/2000/svg" xmlns:xlink="http://www.w3.org/1999/xlink">
<g transform="translate(.5 .5)">
<g>
<path d="M20 21v20m10 -20v20m-10 -10h20"></path></g><path d="M40 31h10"></path><g>
<path d="M50 31h0.0"></path><path d="M50.0 31h10"></path><g>
<path d="M60.0 31h10.0"></path><path d="M678.5 31h10.0"></path><g class="terminal ">
<path d="M70.0 31h0.0"></path><path d="M132.5 31h0.0"></path><rect height="22" rx="10" ry="10" width="62.5" x="70.0" y="20"></rect><text x="101.25" y="35">HSETF</text></g><path d="M132.5 31h10"></path><path d="M142.5 31h10"></path><g class="non-terminal ">
<path d="M152.5 31h0.0"></path><path d="M198.0 31h0.0"></path><rect height="22" width="45.5" x="152.5" y="20"></rect><text x="175.25" y="35">key</text><title>key</title></g><path d="M198.0 31h10"></path><g>
<path d="M208.0 31h0.0"></path><path d="M285.0 31h0.0"></path><path d="M208.0 31h20"></path><g>
<path d="M228.0 31h37.0"></path></g><path d="M265.0 31h20"></path><path d="M208.0 31a10 10 0 0 1 10 10v0a10 10 0 0 0 10 10"></path><g class="terminal ">
<path d="M228.0 51h0.0"></path><path d="M265.0 51h0.0"></path><rect height="22" rx="10" ry="10" width="37.0" x="228.0" y="40"></rect><text x="246.5" y="55">DC</text></g><path d="M265.0 51a10 10 0 0 0 10 -10v0a10 10 0 0 1 10 -10"></path></g><g>
<path d="M285.0 31h0.0"></path><path d="M410.5 31h0.0"></path><path d="M285.0 31h20"></path><g>
<path d="M305.0 31h85.5"></path></g><path d="M390.5 31h20"></path><path d="M285.0 31a10 10 0 0 1 10 10v29a10 10 0 0 0 10 10"></path><g>
<path d="M305.0 80h0.0"></path><path d="M390.5 80h0.0"></path><path d="M305.0 80a10 10 0 0 0 10 -10v-10a10 10 0 0 1 10 -10"></path><g class="terminal ">
<path d="M325.0 50h0.0"></path><path d="M370.5 50h0.0"></path><rect height="22" rx="10" ry="10" width="45.5" x="325.0" y="39"></rect><text x="347.75" y="54">DCF</text></g><path d="M370.5 50a10 10 0 0 1 10 10v10a10 10 0 0 0 10 10"></path><path d="M305.0 80h20"></path><g class="terminal ">
<path d="M325.0 80h0.0"></path><path d="M370.5 80h0.0"></path><rect height="22" rx="10" ry="10" width="45.5" x="325.0" y="69"></rect><text x="347.75" y="84">DOF</text></g><path d="M370.5 80h20"></path></g><path d="M390.5 80a10 10 0 0 0 10 -10v-29a10 10 0 0 1 10 -10"></path></g><g>
<path d="M410.5 31h0.0"></path><path d="M561.5 31h0.0"></path><path d="M410.5 31h20"></path><g>
<path d="M430.5 31h111.0"></path></g><path d="M541.5 31h20"></path><path d="M410.5 31a10 10 0 0 1 10 10v29a10 10 0 0 0 10 10"></path><g>
<path d="M430.5 80h0.0"></path><path d="M541.5 80h0.0"></path><path d="M430.5 80a10 10 0 0 0 10 -10v-10a10 10 0 0 1 10 -10"></path><g class="terminal ">
<path d="M450.5 50h0.0"></path><path d="M521.5 50h0.0"></path><rect height="22" rx="10" ry="10" width="71.0" x="450.5" y="39"></rect><text x="486.0" y="54">GETNEW</text></g><path d="M521.5 50a10 10 0 0 1 10 10v10a10 10 0 0 0 10 10"></path><path d="M430.5 80h20"></path><g class="terminal ">
<path d="M450.5 80h0.0"></path><path d="M521.5 80h0.0"></path><rect height="22" rx="10" ry="10" width="71.0" x="450.5" y="69"></rect><text x="486.0" y="84">GETOLD</text></g><path d="M521.5 80h20"></path></g><path d="M541.5 80a10 10 0 0 0 10 -10v-29a10 10 0 0 1 10 -10"></path></g><g>
<path d="M561.5 31h0.0"></path><path d="M678.5 31h0.0"></path><path d="M561.5 31h20"></path><g>
<path d="M581.5 31h77.0"></path></g><path d="M658.5 31h20"></path><path d="M561.5 31a10 10 0 0 1 10 10v59a10 10 0 0 0 10 10"></path><g>
<path d="M581.5 110h0.0"></path><path d="M658.5 110h0.0"></path><path d="M581.5 110a10 10 0 0 0 10 -10v-10a10 10 0 0 1 10 -10"></path><g class="terminal ">
<path d="M601.5 80h0.0"></path><path d="M638.5 80h0.0"></path><rect height="22" rx="10" ry="10" width="37.0" x="601.5" y="69"></rect><text x="620.0" y="84">XX</text></g><path d="M638.5 80a10 10 0 0 1 10 10v10a10 10 0 0 0 10 10"></path><path d="M581.5 110a10 10 0 0 0 10 -10v-40a10 10 0 0 1 10 -10"></path><g class="terminal ">
<path d="M601.5 50h0.0"></path><path d="M638.5 50h0.0"></path><rect height="22" rx="10" ry="10" width="37.0" x="601.5" y="39"></rect><text x="620.0" y="54">NX</text></g><path d="M638.5 50a10 10 0 0 1 10 10v40a10 10 0 0 0 10 10"></path><path d="M581.5 110h20"></path><g class="terminal ">
<path d="M601.5 110h0.0"></path><path d="M638.5 110h0.0"></path><rect height="22" rx="10" ry="10" width="37.0" x="601.5" y="99"></rect><text x="620.0" y="114">GT</text></g><path d="M638.5 110h20"></path><path d="M581.5 110a10 10 0 0 1 10 10v10a10 10 0 0 0 10 10"></path><g class="terminal ">
<path d="M601.5 140h0.0"></path><path d="M638.5 140h0.0"></path><rect height="22" rx="10" ry="10" width="37.0" x="601.5" y="129"></rect><text x="620.0" y="144">LT</text></g><path d="M638.5 140a10 10 0 0 0 10 -10v-10a10 10 0 0 1 10 -10"></path></g><path d="M658.5 110a10 10 0 0 0 10 -10v-59a10 10 0 0 1 10 -10"></path></g></g><path d="M688.5 31a10 10 0 0 1 10 10v108a10 10 0 0 1 -10 10h-628.5a10 10 0 0 0 -10 10v0a10 10 0 0 0 10 10"></path><g>
<path d="M60.0 179h64.75"></path><path d="M623.75 179h64.75"></path><g>
<path d="M124.75 179h0.0"></path><path d="M485.75 179h0.0"></path><path d="M124.75 179h20"></path><g>
<path d="M144.75 179h321.0"></path></g><path d="M465.75 179h20"></path><path d="M124.75 179a10 10 0 0 1 10 10v59a10 10 0 0 0 10 10"></path><g>
<path d="M144.75 258h0.0"></path><path d="M465.75 258h0.0"></path><path d="M144.75 258a10 10 0 0 0 10 -10v-10a10 10 0 0 1 10 -10"></path><g>
<path d="M164.75 228h51.0"></path><path d="M394.75 228h51.0"></path><g class="terminal ">
<path d="M215.75 228h0.0"></path><path d="M252.75 228h0.0"></path><rect height="22" rx="10" ry="10" width="37.0" x="215.75" y="217"></rect><text x="234.25" y="232">PX</text></g><path d="M252.75 228h10"></path><path d="M262.75 228h10"></path><g class="non-terminal ">
<path d="M272.75 228h0.0"></path><path d="M394.75 228h0.0"></path><rect height="22" width="122.0" x="272.75" y="217"></rect><text x="333.75" y="232">milliseconds</text><title>integer</title></g></g><path d="M445.75 228a10 10 0 0 1 10 10v10a10 10 0 0 0 10 10"></path><path d="M144.75 258a10 10 0 0 0 10 -10v-40a10 10 0 0 1 10 -10"></path><g>
<path d="M164.75 198h72.25"></path><path d="M373.5 198h72.25"></path><g class="terminal ">
<path d="M237.0 198h0.0"></path><path d="M274.0 198h0.0"></path><rect height="22" rx="10" ry="10" width="37.0" x="237.0" y="187"></rect><text x="255.5" y="202">EX</text></g><path d="M274.0 198h10"></path><path d="M284.0 198h10"></path><g class="non-terminal ">
<path d="M294.0 198h0.0"></path><path d="M373.5 198h0.0"></path><rect height="22" width="79.5" x="294.0" y="187"></rect><text x="333.75" y="202">seconds</text><title>integer</title></g></g><path d="M445.75 198a10 10 0 0 1 10 10v40a10 10 0 0 0 10 10"></path><path d="M144.75 258h20"></path><g>
<path d="M164.75 258h21.25"></path><path d="M424.5 258h21.25"></path><g class="terminal ">
<path d="M186.0 258h0.0"></path><path d="M240.0 258h0.0"></path><rect height="22" rx="10" ry="10" width="54.0" x="186.0" y="247"></rect><text x="213.0" y="262">EXAT</text></g><path d="M240.0 258h10"></path><path d="M250.0 258h10"></path><g class="non-terminal ">
<path d="M260.0 258h0.0"></path><path d="M424.5 258h0.0"></path><rect height="22" width="164.5" x="260.0" y="247"></rect><text x="342.25" y="262">unix-time-seconds</text><title>unix-time</title></g></g><path d="M445.75 258h20"></path><path d="M144.75 258a10 10 0 0 1 10 10v10a10 10 0 0 0 10 10"></path><g>
<path d="M164.75 288h0.0"></path><path d="M445.75 288h0.0"></path><g class="terminal ">
<path d="M164.75 288h0.0"></path><path d="M218.75 288h0.0"></path><rect height="22" rx="10" ry="10" width="54.0" x="164.75" y="277"></rect><text x="191.75" y="292">PXAT</text></g><path d="M218.75 288h10"></path><path d="M228.75 288h10"></path><g class="non-terminal ">
<path d="M238.75 288h0.0"></path><path d="M445.75 288h0.0"></path><rect height="22" width="207.0" x="238.75" y="277"></rect><text x="342.25" y="292">unix-time-milliseconds</text><title>unix-time</title></g></g><path d="M445.75 288a10 10 0 0 0 10 -10v-10a10 10 0 0 1 10 -10"></path><path d="M144.75 258a10 10 0 0 1 10 10v40a10 10 0 0 0 10 10"></path><g class="terminal ">
<path d="M164.75 318h100.75"></path><path d="M345.0 318h100.75"></path><rect height="22" rx="10" ry="10" width="79.5" x="265.5" y="307"></rect><text x="305.25" y="322">KEEPTTL</text></g><path d="M445.75 318a10 10 0 0 0 10 -10v-40a10 10 0 0 1 10 -10"></path></g><path d="M465.75 258a10 10 0 0 0 10 -10v-59a10 10 0 0 1 10 -10"></path></g><path d="M485.75 179h10"></path><g class="non-terminal ">
<path d="M495.75 179h0.0"></path><path d="M541.25 179h0.0"></path><rect height="22" width="45.5" x="495.75" y="168"></rect><text x="518.5" y="183">fvs</text><title>string</title></g><path d="M541.25 179h10"></path><path d="M551.25 179h10"></path><g class="non-terminal ">
<path d="M561.25 179h0.0"></path><path d="M623.75 179h0.0"></path><rect height="22" width="62.5" x="561.25" y="168"></rect><text x="592.5" y="183">count</text><title>integer</title></g></g><path d="M688.5 179a10 10 0 0 1 10 10v138a10 10 0 0 1 -10 10h-628.5a10 10 0 0 0 -10 10v0a10 10 0 0 0 10 10"></path><g>
<path d="M60.0 357h231.75"></path><path d="M456.75 357h231.75"></path><g>
<path d="M291.75 357h0.0"></path><path d="M456.75 357h0.0"></path><path d="M291.75 357h10"></path><g>
<path d="M301.75 357h0.0"></path><path d="M446.75 357h0.0"></path><g class="non-terminal ">
<path d="M301.75 357h0.0"></path><path d="M364.25 357h0.0"></path><rect height="22" width="62.5" x="301.75" y="346"></rect><text x="333.0" y="361">field</text><title>string</title></g><path d="M364.25 357h10"></path><path d="M374.25 357h10"></path><g class="non-terminal ">
<path d="M384.25 357h0.0"></path><path d="M446.75 357h0.0"></path><rect height="22" width="62.5" x="384.25" y="346"></rect><text x="415.5" y="361">value</text><title>string</title></g></g><path d="M446.75 357h10"></path><path d="M301.75 357a10 10 0 0 0 -10 10v0a10 10 0 0 0 10 10"></path><g>
<path d="M301.75 377h145.0"></path></g><path d="M446.75 377a10 10 0 0 0 10 -10v0a10 10 0 0 0 -10 -10"></path></g></g><path d="M688.5 357h10"></path><path d="M698.5 357h0.0"></path></g><path d="M698.5 357h10"></path><path d="M 708.5 357 h 20 m -10 -10 v 20 m 10 -20 v 20"></path></g></svg>