<svg class="railroad-diagram" viewBox="0 0 667.5 358" xmlns="http://www.w3.org/2000/svg" xmlns:xlink="http://www.w3.org/1999/xlink">
<g transform="translate(.5 .5)">
<g>
<path d="M20 21v20m10 -20v20m-10 -10h20"></path></g><path d="M40 31h10"></path><g>
<path d="M50 31h0.0"></path><path d="M50.0 31h10"></path><g>
<path d="M60.0 31h40.0"></path><path d="M567.5 31h40.0"></path><g class="terminal ">
<path d="M100.0 31h0.0"></path><path d="M188.0 31h0.0"></path><rect height="22" rx="10" ry="10" width="88.0" x="100.0" y="20"></rect><text x="144.0" y="35">TS.ALTER</text></g><path d="M188.0 31h10"></path><path d="M198.0 31h10"></path><g class="non-terminal ">
<path d="M208.0 31h0.0"></path><path d="M253.5 31h0.0"></path><rect height="22" width="45.5" x="208.0" y="20"></rect><text x="230.75" y="35">key</text><title>key</title></g><path d="M253.5 31h10"></path><g>
<path d="M263.5 31h0.0"></path><path d="M567.5 31h0.0"></path><path d="M263.5 31h20"></path><g>
<path d="M283.5 31h264.0"></path></g><path d="M547.5 31h20"></path><path d="M263.5 31a10 10 0 0 1 10 10v0a10 10 0 0 0 10 10"></path><g>
<path d="M283.5 51h0.0"></path><path d="M547.5 51h0.0"></path><g class="terminal ">
<path d="M283.5 51h0.0"></path><path d="M380.0 51h0.0"></path><rect height="22" rx="10" ry="10" width="96.5" x="283.5" y="40"></rect><text x="331.75" y="55">RETENTION</text></g><path d="M380.0 51h10"></path><path d="M390.0 51h10"></path><g class="non-terminal ">
<path d="M400.0 51h0.0"></path><path d="M547.5 51h0.0"></path><rect height="22" width="147.5" x="400.0" y="40"></rect><text x="473.75" y="55">retentionPeriod</text><title>integer</title></g></g><path d="M547.5 51a10 10 0 0 0 10 -10v0a10 10 0 0 1 10 -10"></path></g></g><path d="M607.5 31a10 10 0 0 1 10 10v19a10 10 0 0 1 -10 10h-547.5a10 10 0 0 0 -10 10v0a10 10 0 0 0 10 10"></path><g>
<path d="M60.0 90h10.0"></path><path d="M597.5 90h10.0"></path><g>
<path d="M70.0 90h0.0"></path><path d="M289.0 90h0.0"></path><path d="M70.0 90h20"></path><g>
<path d="M90.0 90h179.0"></path></g><path d="M269.0 90h20"></path><path d="M70.0 90a10 10 0 0 1 10 10v0a10 10 0 0 0 10 10"></path><g>
<path d="M90.0 110h0.0"></path><path d="M269.0 110h0.0"></path><g class="terminal ">
<path d="M90.0 110h0.0"></path><path d="M195.0 110h0.0"></path><rect height="22" rx="10" ry="10" width="105.0" x="90.0" y="99"></rect><text x="142.5" y="114">CHUNK&#95;SIZE</text></g><path d="M195.0 110h10"></path><path d="M205.0 110h10"></path><g class="non-terminal ">
<path d="M215.0 110h0.0"></path><path d="M269.0 110h0.0"></path><rect height="22" width="54.0" x="215.0" y="99"></rect><text x="242.0" y="114">size</text><title>integer</title></g></g><path d="M269.0 110a10 10 0 0 0 10 -10v0a10 10 0 0 1 10 -10"></path></g><g>
<path d="M289.0 90h0.0"></path><path d="M597.5 90h0.0"></path><path d="M289.0 90h20"></path><g>
<path d="M309.0 90h268.5"></path></g><path d="M577.5 90h20"></path><path d="M289.0 90a10 10 0 0 1 10 10v89a10 10 0 0 0 10 10"></path><g>
<path d="M309.0 199h0.0"></path><path d="M577.5 199h0.0"></path><g class="terminal ">
<path d="M309.0 199h0.0"></path><path d="M465.0 199h0.0"></path><rect height="22" rx="10" ry="10" width="156.0" x="309.0" y="188"></rect><text x="387.0" y="203">DUPLICATE&#95;POLICY</text></g><path d="M465.0 199h10"></path><g>
<path d="M475.0 199h0.0"></path><path d="M577.5 199h0.0"></path><path d="M475.0 199a10 10 0 0 0 10 -10v-10a10 10 0 0 1 10 -10"></path><g class="terminal ">
<path d="M495.0 169h4.25"></path><path d="M553.25 169h4.25"></path><rect height="22" rx="10" ry="10" width="54.0" x="499.25" y="158"></rect><text x="526.25" y="173">LAST</text></g><path d="M557.5 169a10 10 0 0 1 10 10v10a10 10 0 0 0 10 10"></path><path d="M475.0 199a10 10 0 0 0 10 -10v-40a10 10 0 0 1 10 -10"></path><g class="terminal ">
<path d="M495.0 139h0.0"></path><path d="M557.5 139h0.0"></path><rect height="22" rx="10" ry="10" width="62.5" x="495.0" y="128"></rect><text x="526.25" y="143">FIRST</text></g><path d="M557.5 139a10 10 0 0 1 10 10v40a10 10 0 0 0 10 10"></path><path d="M475.0 199a10 10 0 0 0 10 -10v-70a10 10 0 0 1 10 -10"></path><g class="terminal ">
<path d="M495.0 109h0.0"></path><path d="M557.5 109h0.0"></path><rect height="22" rx="10" ry="10" width="62.5" x="495.0" y="98"></rect><text x="526.25" y="113">BLOCK</text></g><path d="M557.5 109a10 10 0 0 1 10 10v70a10 10 0 0 0 10 10"></path><path d="M475.0 199h20"></path><g class="terminal ">
<path d="M495.0 199h8.5"></path><path d="M549.0 199h8.5"></path><rect height="22" rx="10" ry="10" width="45.5" x="503.5" y="188"></rect><text x="526.25" y="203">MIN</text></g><path d="M557.5 199h20"></path><path d="M475.0 199a10 10 0 0 1 10 10v10a10 10 0 0 0 10 10"></path><g class="terminal ">
<path d="M495.0 229h8.5"></path><path d="M549.0 229h8.5"></path><rect height="22" rx="10" ry="10" width="45.5" x="503.5" y="218"></rect><text x="526.25" y="233">MAX</text></g><path d="M557.5 229a10 10 0 0 0 10 -10v-10a10 10 0 0 1 10 -10"></path><path d="M475.0 199a10 10 0 0 1 10 10v40a10 10 0 0 0 10 10"></path><g class="terminal ">
<path d="M495.0 259h8.5"></path><path d="M549.0 259h8.5"></path><rect height="22" rx="10" ry="10" width="45.5" x="503.5" y="248"></rect><text x="526.25" y="263">SUM</text></g><path d="M557.5 259a10 10 0 0 0 10 -10v-40a10 10 0 0 1 10 -10"></path></g></g><path d="M577.5 199a10 10 0 0 0 10 -10v-89a10 10 0 0 1 10 -10"></path></g></g><path d="M607.5 90a10 10 0 0 1 10 10v168a10 10 0 0 1 -10 10h-547.5a10 10 0 0 0 -10 10v0a10 10 0 0 0 10 10"></path><g>
<path d="M60.0 298h171.25"></path><path d="M436.25 298h171.25"></path><g>
<path d="M231.25 298h0.0"></path><path d="M436.25 298h0.0"></path><path d="M231.25 298h20"></path><g>
<path d="M251.25 298h165.0"></path></g><path d="M416.25 298h20"></path><path d="M231.25 298a10 10 0 0 1 10 10v0a10 10 0 0 0 10 10"></path><g>
<path d="M251.25 318h0.0"></path><path d="M416.25 318h0.0"></path><path d="M251.25 318h10"></path><g>
<path d="M261.25 318h0.0"></path><path d="M406.25 318h0.0"></path><g class="non-terminal ">
<path d="M261.25 318h0.0"></path><path d="M323.75 318h0.0"></path><rect height="22" width="62.5" x="261.25" y="307"></rect><text x="292.5" y="322">label</text><title>string</title></g><path d="M323.75 318h10"></path><path d="M333.75 318h10"></path><g class="non-terminal ">
<path d="M343.75 318h0.0"></path><path d="M406.25 318h0.0"></path><rect height="22" width="62.5" x="343.75" y="307"></rect><text x="375.0" y="322">value</text><title>string</title></g></g><path d="M406.25 318h10"></path><path d="M261.25 318a10 10 0 0 0 -10 10v0a10 10 0 0 0 10 10"></path><g>
<path d="M261.25 338h145.0"></path></g><path d="M406.25 338a10 10 0 0 0 10 -10v0a10 10 0 0 0 -10 -10"></path></g><path d="M416.25 318a10 10 0 0 0 10 -10v0a10 10 0 0 1 10 -10"></path></g></g><path d="M607.5 298h10"></path><path d="M617.5 298h0.0"></path></g><path d="M617.5 298h10"></path><path d="M 627.5 298 h 20 m -10 -10 v 20 m 10 -20 v 20"></path></g></svg>