<svg class="railroad-diagram" viewBox="0 0 432.5 62" xmlns="http://www.w3.org/2000/svg" xmlns:xlink="http://www.w3.org/1999/xlink">
<g transform="translate(.5 .5)">
<g>
<path d="M20 21v20m10 -20v20m-10 -10h20"></path></g><path d="M40 31h10"></path><g>
<path d="M50 31h0.0"></path><g>
<path d="M50.0 31h10.0"></path><path d="M372.5 31h10.0"></path><g class="terminal ">
<path d="M60.0 31h0.0"></path><path d="M165.0 31h0.0"></path><rect height="22" rx="10" ry="10" width="105.0" x="60.0" y="20"></rect><text x="112.5" y="35">FT.TAGVALS</text></g><path d="M165.0 31h10"></path><path d="M175.0 31h10"></path><g class="non-terminal ">
<path d="M185.0 31h0.0"></path><path d="M247.5 31h0.0"></path><rect height="22" width="62.5" x="185.0" y="20"></rect><text x="216.25" y="35">index</text><title>string</title></g><path d="M247.5 31h10"></path><path d="M257.5 31h10"></path><g class="non-terminal ">
<path d="M267.5 31h0.0"></path><path d="M372.5 31h0.0"></path><rect height="22" width="105.0" x="267.5" y="20"></rect><text x="320.0" y="35">field&#95;name</text><title>string</title></g></g><path d="M382.5 31h0.0"></path></g><path d="M382.5 31h10"></path><path d="M 392.5 31 h 20 m -10 -10 v 20 m 10 -20 v 20"></path></g></svg>