<svg class="railroad-diagram" viewBox="0 0 377.5 92" xmlns="http://www.w3.org/2000/svg" xmlns:xlink="http://www.w3.org/1999/xlink">
<g transform="translate(.5 .5)">
<g>
<path d="M20 51v20m10 -20v20m-10 -10h20"></path></g><path d="M40 61h10"></path><g>
<path d="M50 61h0.0"></path><g>
<path d="M50.0 61h10.0"></path><path d="M317.5 61h10.0"></path><g class="terminal ">
<path d="M60.0 61h0.0"></path><path d="M139.5 61h0.0"></path><rect height="22" rx="10" ry="10" width="79.5" x="60.0" y="50"></rect><text x="99.75" y="65">SLAVEOF</text></g><path d="M139.5 61h10"></path><g>
<path d="M149.5 61h0.0"></path><path d="M317.5 61h0.0"></path><path d="M149.5 61a10 10 0 0 0 10 -10v-10a10 10 0 0 1 10 -10"></path><g>
<path d="M169.5 31h0.0"></path><path d="M297.5 31h0.0"></path><g class="non-terminal ">
<path d="M169.5 31h0.0"></path><path d="M223.5 31h0.0"></path><rect height="22" width="54.0" x="169.5" y="20"></rect><text x="196.5" y="35">host</text><title>string</title></g><path d="M223.5 31h10"></path><path d="M233.5 31h10"></path><g class="non-terminal ">
<path d="M243.5 31h0.0"></path><path d="M297.5 31h0.0"></path><rect height="22" width="54.0" x="243.5" y="20"></rect><text x="270.5" y="35">port</text><title>integer</title></g></g><path d="M297.5 31a10 10 0 0 1 10 10v10a10 10 0 0 0 10 10"></path><path d="M149.5 61h20"></path><g>
<path d="M169.5 61h12.75"></path><path d="M284.75 61h12.75"></path><g class="terminal ">
<path d="M182.25 61h0.0"></path><path d="M219.25 61h0.0"></path><rect height="22" rx="10" ry="10" width="37.0" x="182.25" y="50"></rect><text x="200.75" y="65">NO</text></g><path d="M219.25 61h10"></path><path d="M229.25 61h10"></path><g class="terminal ">
<path d="M239.25 61h0.0"></path><path d="M284.75 61h0.0"></path><rect height="22" rx="10" ry="10" width="45.5" x="239.25" y="50"></rect><text x="262.0" y="65">ONE</text></g></g><path d="M297.5 61h20"></path></g></g><path d="M327.5 61h0.0"></path></g><path d="M327.5 61h10"></path><path d="M 337.5 61 h 20 m -10 -10 v 20 m 10 -20 v 20"></path></g></svg>