<svg class="railroad-diagram" viewBox="0 0 756.0 249" xmlns="http://www.w3.org/2000/svg" xmlns:xlink="http://www.w3.org/1999/xlink">
<g transform="translate(.5 .5)">
<g>
<path d="M20 21v20m10 -20v20m-10 -10h20"></path></g><path d="M40 31h10"></path><g>
<path d="M50 31h0.0"></path><path d="M50.0 31h10"></path><g>
<path d="M60.0 31h10.0"></path><path d="M686.0 31h10.0"></path><g class="terminal ">
<path d="M70.0 31h0.0"></path><path d="M132.5 31h0.0"></path><rect height="22" rx="10" ry="10" width="62.5" x="70.0" y="20"></rect><text x="101.25" y="35">HGETF</text></g><path d="M132.5 31h10"></path><path d="M142.5 31h10"></path><g class="non-terminal ">
<path d="M152.5 31h0.0"></path><path d="M198.0 31h0.0"></path><rect height="22" width="45.5" x="152.5" y="20"></rect><text x="175.25" y="35">key</text><title>key</title></g><path d="M198.0 31h10"></path><g>
<path d="M208.0 31h0.0"></path><path d="M325.0 31h0.0"></path><path d="M208.0 31h20"></path><g>
<path d="M228.0 31h77.0"></path></g><path d="M305.0 31h20"></path><path d="M208.0 31a10 10 0 0 1 10 10v59a10 10 0 0 0 10 10"></path><g>
<path d="M228.0 110h0.0"></path><path d="M305.0 110h0.0"></path><path d="M228.0 110a10 10 0 0 0 10 -10v-10a10 10 0 0 1 10 -10"></path><g class="terminal ">
<path d="M248.0 80h0.0"></path><path d="M285.0 80h0.0"></path><rect height="22" rx="10" ry="10" width="37.0" x="248.0" y="69"></rect><text x="266.5" y="84">XX</text></g><path d="M285.0 80a10 10 0 0 1 10 10v10a10 10 0 0 0 10 10"></path><path d="M228.0 110a10 10 0 0 0 10 -10v-40a10 10 0 0 1 10 -10"></path><g class="terminal ">
<path d="M248.0 50h0.0"></path><path d="M285.0 50h0.0"></path><rect height="22" rx="10" ry="10" width="37.0" x="248.0" y="39"></rect><text x="266.5" y="54">NX</text></g><path d="M285.0 50a10 10 0 0 1 10 10v40a10 10 0 0 0 10 10"></path><path d="M228.0 110h20"></path><g class="terminal ">
<path d="M248.0 110h0.0"></path><path d="M285.0 110h0.0"></path><rect height="22" rx="10" ry="10" width="37.0" x="248.0" y="99"></rect><text x="266.5" y="114">GT</text></g><path d="M285.0 110h20"></path><path d="M228.0 110a10 10 0 0 1 10 10v10a10 10 0 0 0 10 10"></path><g class="terminal ">
<path d="M248.0 140h0.0"></path><path d="M285.0 140h0.0"></path><rect height="22" rx="10" ry="10" width="37.0" x="248.0" y="129"></rect><text x="266.5" y="144">LT</text></g><path d="M285.0 140a10 10 0 0 0 10 -10v-10a10 10 0 0 1 10 -10"></path></g><path d="M305.0 110a10 10 0 0 0 10 -10v-59a10 10 0 0 1 10 -10"></path></g><g>
<path d="M325.0 31h0.0"></path><path d="M686.0 31h0.0"></path><path d="M325.0 31h20"></path><g>
<path d="M345.0 31h321.0"></path></g><path d="M666.0 31h20"></path><path d="M325.0 31a10 10 0 0 1 10 10v59a10 10 0 0 0 10 10"></path><g>
<path d="M345.0 110h0.0"></path><path d="M666.0 110h0.0"></path><path d="M345.0 110a10 10 0 0 0 10 -10v-10a10 10 0 0 1 10 -10"></path><g>
<path d="M365.0 80h51.0"></path><path d="M595.0 80h51.0"></path><g class="terminal ">
<path d="M416.0 80h0.0"></path><path d="M453.0 80h0.0"></path><rect height="22" rx="10" ry="10" width="37.0" x="416.0" y="69"></rect><text x="434.5" y="84">PX</text></g><path d="M453.0 80h10"></path><path d="M463.0 80h10"></path><g class="non-terminal ">
<path d="M473.0 80h0.0"></path><path d="M595.0 80h0.0"></path><rect height="22" width="122.0" x="473.0" y="69"></rect><text x="534.0" y="84">milliseconds</text><title>integer</title></g></g><path d="M646.0 80a10 10 0 0 1 10 10v10a10 10 0 0 0 10 10"></path><path d="M345.0 110a10 10 0 0 0 10 -10v-40a10 10 0 0 1 10 -10"></path><g>
<path d="M365.0 50h72.25"></path><path d="M573.75 50h72.25"></path><g class="terminal ">
<path d="M437.25 50h0.0"></path><path d="M474.25 50h0.0"></path><rect height="22" rx="10" ry="10" width="37.0" x="437.25" y="39"></rect><text x="455.75" y="54">EX</text></g><path d="M474.25 50h10"></path><path d="M484.25 50h10"></path><g class="non-terminal ">
<path d="M494.25 50h0.0"></path><path d="M573.75 50h0.0"></path><rect height="22" width="79.5" x="494.25" y="39"></rect><text x="534.0" y="54">seconds</text><title>integer</title></g></g><path d="M646.0 50a10 10 0 0 1 10 10v40a10 10 0 0 0 10 10"></path><path d="M345.0 110h20"></path><g>
<path d="M365.0 110h21.25"></path><path d="M624.75 110h21.25"></path><g class="terminal ">
<path d="M386.25 110h0.0"></path><path d="M440.25 110h0.0"></path><rect height="22" rx="10" ry="10" width="54.0" x="386.25" y="99"></rect><text x="413.25" y="114">EXAT</text></g><path d="M440.25 110h10"></path><path d="M450.25 110h10"></path><g class="non-terminal ">
<path d="M460.25 110h0.0"></path><path d="M624.75 110h0.0"></path><rect height="22" width="164.5" x="460.25" y="99"></rect><text x="542.5" y="114">unix-time-seconds</text><title>unix-time</title></g></g><path d="M646.0 110h20"></path><path d="M345.0 110a10 10 0 0 1 10 10v10a10 10 0 0 0 10 10"></path><g>
<path d="M365.0 140h0.0"></path><path d="M646.0 140h0.0"></path><g class="terminal ">
<path d="M365.0 140h0.0"></path><path d="M419.0 140h0.0"></path><rect height="22" rx="10" ry="10" width="54.0" x="365.0" y="129"></rect><text x="392.0" y="144">PXAT</text></g><path d="M419.0 140h10"></path><path d="M429.0 140h10"></path><g class="non-terminal ">
<path d="M439.0 140h0.0"></path><path d="M646.0 140h0.0"></path><rect height="22" width="207.0" x="439.0" y="129"></rect><text x="542.5" y="144">unix-time-milliseconds</text><title>unix-time</title></g></g><path d="M646.0 140a10 10 0 0 0 10 -10v-10a10 10 0 0 1 10 -10"></path><path d="M345.0 110a10 10 0 0 1 10 10v40a10 10 0 0 0 10 10"></path><g class="terminal ">
<path d="M365.0 170h100.75"></path><path d="M545.25 170h100.75"></path><rect height="22" rx="10" ry="10" width="79.5" x="465.75" y="159"></rect><text x="505.5" y="174">PERSIST</text></g><path d="M646.0 170a10 10 0 0 0 10 -10v-40a10 10 0 0 1 10 -10"></path></g><path d="M666.0 110a10 10 0 0 0 10 -10v-59a10 10 0 0 1 10 -10"></path></g></g><path d="M696.0 31a10 10 0 0 1 10 10v138a10 10 0 0 1 -10 10h-636.0a10 10 0 0 0 -10 10v0a10 10 0 0 0 10 10"></path><g>
<path d="M60.0 209h190.0"></path><path d="M506.0 209h190.0"></path><g class="non-terminal ">
<path d="M250.0 209h0.0"></path><path d="M321.0 209h0.0"></path><rect height="22" width="71.0" x="250.0" y="198"></rect><text x="285.5" y="213">fields</text><title>string</title></g><path d="M321.0 209h10"></path><path d="M331.0 209h10"></path><g class="non-terminal ">
<path d="M341.0 209h0.0"></path><path d="M403.5 209h0.0"></path><rect height="22" width="62.5" x="341.0" y="198"></rect><text x="372.25" y="213">count</text><title>integer</title></g><path d="M403.5 209h10"></path><path d="M413.5 209h10"></path><g>
<path d="M423.5 209h0.0"></path><path d="M506.0 209h0.0"></path><path d="M423.5 209h10"></path><g class="non-terminal ">
<path d="M433.5 209h0.0"></path><path d="M496.0 209h0.0"></path><rect height="22" width="62.5" x="433.5" y="198"></rect><text x="464.75" y="213">field</text><title>string</title></g><path d="M496.0 209h10"></path><path d="M433.5 209a10 10 0 0 0 -10 10v0a10 10 0 0 0 10 10"></path><g>
<path d="M433.5 229h62.5"></path></g><path d="M496.0 229a10 10 0 0 0 10 -10v0a10 10 0 0 0 -10 -10"></path></g></g><path d="M696.0 209h10"></path><path d="M706.0 209h0.0"></path></g><path d="M706.0 209h10"></path><path d="M 716.0 209 h 20 m -10 -10 v 20 m 10 -20 v 20"></path></g></svg>