<svg class="railroad-diagram" viewBox="0 0 634.5 141" xmlns="http://www.w3.org/2000/svg" xmlns:xlink="http://www.w3.org/1999/xlink">
<g transform="translate(.5 .5)">
<g>
<path d="M20 21v20m10 -20v20m-10 -10h20"></path></g><path d="M40 31h10"></path><g>
<path d="M50 31h0.0"></path><g>
<path d="M50.0 31h10.0"></path><path d="M574.5 31h10.0"></path><g class="terminal ">
<path d="M60.0 31h0.0"></path><path d="M182.0 31h0.0"></path><rect height="22" rx="10" ry="10" width="122.0" x="60.0" y="20"></rect><text x="121.0" y="35">COMMAND LIST</text></g><path d="M182.0 31h10"></path><g>
<path d="M192.0 31h0.0"></path><path d="M574.5 31h0.0"></path><path d="M192.0 31h20"></path><g>
<path d="M212.0 31h342.5"></path></g><path d="M554.5 31h20"></path><path d="M192.0 31a10 10 0 0 1 10 10v59a10 10 0 0 0 10 10"></path><g>
<path d="M212.0 110h0.0"></path><path d="M554.5 110h0.0"></path><g class="terminal ">
<path d="M212.0 110h0.0"></path><path d="M300.0 110h0.0"></path><rect height="22" rx="10" ry="10" width="88.0" x="212.0" y="99"></rect><text x="256.0" y="114">FILTERBY</text></g><path d="M300.0 110h10"></path><g>
<path d="M310.0 110h0.0"></path><path d="M554.5 110h0.0"></path><path d="M310.0 110a10 10 0 0 0 10 -10v-10a10 10 0 0 1 10 -10"></path><g>
<path d="M330.0 80h12.75"></path><path d="M521.75 80h12.75"></path><g class="terminal ">
<path d="M342.75 80h0.0"></path><path d="M413.75 80h0.0"></path><rect height="22" rx="10" ry="10" width="71.0" x="342.75" y="69"></rect><text x="378.25" y="84">ACLCAT</text></g><path d="M413.75 80h10"></path><path d="M423.75 80h10"></path><g class="non-terminal ">
<path d="M433.75 80h0.0"></path><path d="M521.75 80h0.0"></path><rect height="22" width="88.0" x="433.75" y="69"></rect><text x="477.75" y="84">category</text><title>string</title></g></g><path d="M534.5 80a10 10 0 0 1 10 10v10a10 10 0 0 0 10 10"></path><path d="M310.0 110a10 10 0 0 0 10 -10v-40a10 10 0 0 1 10 -10"></path><g>
<path d="M330.0 50h0.0"></path><path d="M534.5 50h0.0"></path><g class="terminal ">
<path d="M330.0 50h0.0"></path><path d="M401.0 50h0.0"></path><rect height="22" rx="10" ry="10" width="71.0" x="330.0" y="39"></rect><text x="365.5" y="54">MODULE</text></g><path d="M401.0 50h10"></path><path d="M411.0 50h10"></path><g class="non-terminal ">
<path d="M421.0 50h0.0"></path><path d="M534.5 50h0.0"></path><rect height="22" width="113.5" x="421.0" y="39"></rect><text x="477.75" y="54">module-name</text><title>string</title></g></g><path d="M534.5 50a10 10 0 0 1 10 10v40a10 10 0 0 0 10 10"></path><path d="M310.0 110h20"></path><g>
<path d="M330.0 110h12.75"></path><path d="M521.75 110h12.75"></path><g class="terminal ">
<path d="M342.75 110h0.0"></path><path d="M422.25 110h0.0"></path><rect height="22" rx="10" ry="10" width="79.5" x="342.75" y="99"></rect><text x="382.5" y="114">PATTERN</text></g><path d="M422.25 110h10"></path><path d="M432.25 110h10"></path><g class="non-terminal ">
<path d="M442.25 110h0.0"></path><path d="M521.75 110h0.0"></path><rect height="22" width="79.5" x="442.25" y="99"></rect><text x="482.0" y="114">pattern</text><title>pattern</title></g></g><path d="M534.5 110h20"></path></g></g><path d="M554.5 110a10 10 0 0 0 10 -10v-59a10 10 0 0 1 10 -10"></path></g></g><path d="M584.5 31h0.0"></path></g><path d="M584.5 31h10"></path><path d="M 594.5 31 h 20 m -10 -10 v 20 m 10 -20 v 20"></path></g></svg>