<svg class="railroad-diagram" viewBox="0 0 665.0 112" xmlns="http://www.w3.org/2000/svg" xmlns:xlink="http://www.w3.org/1999/xlink">
<g transform="translate(.5 .5)">
<g>
<path d="M20 51v20m10 -20v20m-10 -10h20"></path></g><path d="M40 61h10"></path><g>
<path d="M50 61h0.0"></path><g>
<path d="M50.0 61h10.0"></path><path d="M605.0 61h10.0"></path><g class="terminal ">
<path d="M60.0 61h0.0"></path><path d="M122.5 61h0.0"></path><rect height="22" rx="10" ry="10" width="62.5" x="60.0" y="50"></rect><text x="91.25" y="65">LMPOP</text></g><path d="M122.5 61h10"></path><path d="M132.5 61h10"></path><g class="non-terminal ">
<path d="M142.5 61h0.0"></path><path d="M222.0 61h0.0"></path><rect height="22" width="79.5" x="142.5" y="50"></rect><text x="182.25" y="65">numkeys</text><title>integer</title></g><path d="M222.0 61h10"></path><path d="M232.0 61h10"></path><g>
<path d="M242.0 61h0.0"></path><path d="M307.5 61h0.0"></path><path d="M242.0 61h10"></path><g class="non-terminal ">
<path d="M252.0 61h0.0"></path><path d="M297.5 61h0.0"></path><rect height="22" width="45.5" x="252.0" y="50"></rect><text x="274.75" y="65">key</text><title>key</title></g><path d="M297.5 61h10"></path><path d="M252.0 61a10 10 0 0 0 -10 10v0a10 10 0 0 0 10 10"></path><g>
<path d="M252.0 81h45.5"></path></g><path d="M297.5 81a10 10 0 0 0 10 -10v0a10 10 0 0 0 -10 -10"></path></g><path d="M307.5 61h10"></path><g>
<path d="M317.5 61h0.0"></path><path d="M420.0 61h0.0"></path><path d="M317.5 61a10 10 0 0 0 10 -10v-10a10 10 0 0 1 10 -10"></path><g class="terminal ">
<path d="M337.5 31h4.25"></path><path d="M395.75 31h4.25"></path><rect height="22" rx="10" ry="10" width="54.0" x="341.75" y="20"></rect><text x="368.75" y="35">LEFT</text></g><path d="M400.0 31a10 10 0 0 1 10 10v10a10 10 0 0 0 10 10"></path><path d="M317.5 61h20"></path><g class="terminal ">
<path d="M337.5 61h0.0"></path><path d="M400.0 61h0.0"></path><rect height="22" rx="10" ry="10" width="62.5" x="337.5" y="50"></rect><text x="368.75" y="65">RIGHT</text></g><path d="M400.0 61h20"></path></g><g>
<path d="M420.0 61h0.0"></path><path d="M605.0 61h0.0"></path><path d="M420.0 61h20"></path><g>
<path d="M440.0 61h145.0"></path></g><path d="M585.0 61h20"></path><path d="M420.0 61a10 10 0 0 1 10 10v0a10 10 0 0 0 10 10"></path><g>
<path d="M440.0 81h0.0"></path><path d="M585.0 81h0.0"></path><g class="terminal ">
<path d="M440.0 81h0.0"></path><path d="M502.5 81h0.0"></path><rect height="22" rx="10" ry="10" width="62.5" x="440.0" y="70"></rect><text x="471.25" y="85">COUNT</text></g><path d="M502.5 81h10"></path><path d="M512.5 81h10"></path><g class="non-terminal ">
<path d="M522.5 81h0.0"></path><path d="M585.0 81h0.0"></path><rect height="22" width="62.5" x="522.5" y="70"></rect><text x="553.75" y="85">count</text><title>integer</title></g></g><path d="M585.0 81a10 10 0 0 0 10 -10v0a10 10 0 0 1 10 -10"></path></g></g><path d="M615.0 61h0.0"></path></g><path d="M615.0 61h10"></path><path d="M 625.0 61 h 20 m -10 -10 v 20 m 10 -20 v 20"></path></g></svg>