<svg class="railroad-diagram" viewBox="0 0 574.5 62" xmlns="http://www.w3.org/2000/svg" xmlns:xlink="http://www.w3.org/1999/xlink">
<g transform="translate(.5 .5)">
<g>
<path d="M20 21v20m10 -20v20m-10 -10h20"></path></g><path d="M40 31h10"></path><g>
<path d="M50 31h0.0"></path><g>
<path d="M50.0 31h10.0"></path><path d="M514.5 31h10.0"></path><g class="terminal ">
<path d="M60.0 31h0.0"></path><path d="M258.5 31h0.0"></path><rect height="22" rx="10" ry="10" width="198.5" x="60.0" y="20"></rect><text x="159.25" y="35">XGROUP CREATECONSUMER</text></g><path d="M258.5 31h10"></path><path d="M268.5 31h10"></path><g class="non-terminal ">
<path d="M278.5 31h0.0"></path><path d="M324.0 31h0.0"></path><rect height="22" width="45.5" x="278.5" y="20"></rect><text x="301.25" y="35">key</text><title>key</title></g><path d="M324.0 31h10"></path><path d="M334.0 31h10"></path><g class="non-terminal ">
<path d="M344.0 31h0.0"></path><path d="M406.5 31h0.0"></path><rect height="22" width="62.5" x="344.0" y="20"></rect><text x="375.25" y="35">group</text><title>string</title></g><path d="M406.5 31h10"></path><path d="M416.5 31h10"></path><g class="non-terminal ">
<path d="M426.5 31h0.0"></path><path d="M514.5 31h0.0"></path><rect height="22" width="88.0" x="426.5" y="20"></rect><text x="470.5" y="35">consumer</text><title>string</title></g></g><path d="M524.5 31h0.0"></path></g><path d="M524.5 31h10"></path><path d="M 534.5 31 h 20 m -10 -10 v 20 m 10 -20 v 20"></path></g></svg>