<svg class="railroad-diagram" viewBox="0 0 398.5 62" xmlns="http://www.w3.org/2000/svg" xmlns:xlink="http://www.w3.org/1999/xlink">
<g transform="translate(.5 .5)">
<g>
<path d="M20 21v20m10 -20v20m-10 -10h20"></path></g><path d="M40 31h10"></path><g>
<path d="M50 31h0.0"></path><g>
<path d="M50.0 31h10.0"></path><path d="M338.5 31h10.0"></path><g class="terminal ">
<path d="M60.0 31h0.0"></path><path d="M139.5 31h0.0"></path><rect height="22" rx="10" ry="10" width="79.5" x="60.0" y="20"></rect><text x="99.75" y="35">PUBLISH</text></g><path d="M139.5 31h10"></path><path d="M149.5 31h10"></path><g class="non-terminal ">
<path d="M159.5 31h0.0"></path><path d="M239.0 31h0.0"></path><rect height="22" width="79.5" x="159.5" y="20"></rect><text x="199.25" y="35">channel</text><title>string</title></g><path d="M239.0 31h10"></path><path d="M249.0 31h10"></path><g class="non-terminal ">
<path d="M259.0 31h0.0"></path><path d="M338.5 31h0.0"></path><rect height="22" width="79.5" x="259.0" y="20"></rect><text x="298.75" y="35">message</text><title>string</title></g></g><path d="M348.5 31h0.0"></path></g><path d="M348.5 31h10"></path><path d="M 358.5 31 h 20 m -10 -10 v 20 m 10 -20 v 20"></path></g></svg>