<svg class="railroad-diagram" viewBox="0 0 393.0 71" xmlns="http://www.w3.org/2000/svg" xmlns:xlink="http://www.w3.org/1999/xlink">
<g transform="translate(.5 .5)">
<g>
<path d="M20 21v20m10 -20v20m-10 -10h20"></path></g><path d="M40 31h10"></path><g>
<path d="M50 31h0.0"></path><g>
<path d="M50.0 31h10.0"></path><path d="M333.0 31h10.0"></path><g class="terminal ">
<path d="M60.0 31h0.0"></path><path d="M148.0 31h0.0"></path><rect height="22" rx="10" ry="10" width="88.0" x="60.0" y="20"></rect><text x="104.0" y="35">BZPOPMIN</text></g><path d="M148.0 31h10"></path><path d="M158.0 31h10"></path><g>
<path d="M168.0 31h0.0"></path><path d="M233.5 31h0.0"></path><path d="M168.0 31h10"></path><g class="non-terminal ">
<path d="M178.0 31h0.0"></path><path d="M223.5 31h0.0"></path><rect height="22" width="45.5" x="178.0" y="20"></rect><text x="200.75" y="35">key</text><title>key</title></g><path d="M223.5 31h10"></path><path d="M178.0 31a10 10 0 0 0 -10 10v0a10 10 0 0 0 10 10"></path><g>
<path d="M178.0 51h45.5"></path></g><path d="M223.5 51a10 10 0 0 0 10 -10v0a10 10 0 0 0 -10 -10"></path></g><path d="M233.5 31h10"></path><path d="M243.5 31h10"></path><g class="non-terminal ">
<path d="M253.5 31h0.0"></path><path d="M333.0 31h0.0"></path><rect height="22" width="79.5" x="253.5" y="20"></rect><text x="293.25" y="35">timeout</text><title>double</title></g></g><path d="M343.0 31h0.0"></path></g><path d="M343.0 31h10"></path><path d="M 353.0 31 h 20 m -10 -10 v 20 m 10 -20 v 20"></path></g></svg>