<svg class="railroad-diagram" viewBox="0 0 732.5 481" xmlns="http://www.w3.org/2000/svg" xmlns:xlink="http://www.w3.org/1999/xlink">
<g transform="translate(.5 .5)">
<g>
<path d="M20 201v20m10 -20v20m-10 -10h20"></path></g><path d="M40 211h10"></path><g>
<path d="M50 211h0.0"></path><path d="M50.0 211h10"></path><g>
<path d="M60.0 211h10.0"></path><path d="M662.5 211h10.0"></path><g class="terminal ">
<path d="M70.0 211h0.0"></path><path d="M200.5 211h0.0"></path><rect height="22" rx="10" ry="10" width="130.5" x="70.0" y="200"></rect><text x="135.25" y="215">TS.CREATERULE</text></g><path d="M200.5 211h10"></path><path d="M210.5 211h10"></path><g class="non-terminal ">
<path d="M220.5 211h0.0"></path><path d="M317.0 211h0.0"></path><rect height="22" width="96.5" x="220.5" y="200"></rect><text x="268.75" y="215">sourceKey</text><title>key</title></g><path d="M317.0 211h10"></path><path d="M327.0 211h10"></path><g class="non-terminal ">
<path d="M337.0 211h0.0"></path><path d="M416.5 211h0.0"></path><rect height="22" width="79.5" x="337.0" y="200"></rect><text x="376.75" y="215">destKey</text><title>key</title></g><path d="M416.5 211h10"></path><path d="M426.5 211h10"></path><g class="terminal ">
<path d="M436.5 211h0.0"></path><path d="M550.0 211h0.0"></path><rect height="22" rx="10" ry="10" width="113.5" x="436.5" y="200"></rect><text x="493.25" y="215">AGGREGATION</text></g><path d="M550.0 211h10"></path><g>
<path d="M560.0 211h0.0"></path><path d="M662.5 211h0.0"></path><path d="M560.0 211a10 10 0 0 0 10 -10v-10a10 10 0 0 1 10 -10"></path><g class="terminal ">
<path d="M580.0 181h8.5"></path><path d="M634.0 181h8.5"></path><rect height="22" rx="10" ry="10" width="45.5" x="588.5" y="170"></rect><text x="611.25" y="185">SUM</text></g><path d="M642.5 181a10 10 0 0 1 10 10v10a10 10 0 0 0 10 10"></path><path d="M560.0 211a10 10 0 0 0 10 -10v-40a10 10 0 0 1 10 -10"></path><g class="terminal ">
<path d="M580.0 151h8.5"></path><path d="M634.0 151h8.5"></path><rect height="22" rx="10" ry="10" width="45.5" x="588.5" y="140"></rect><text x="611.25" y="155">MAX</text></g><path d="M642.5 151a10 10 0 0 1 10 10v40a10 10 0 0 0 10 10"></path><path d="M560.0 211a10 10 0 0 0 10 -10v-70a10 10 0 0 1 10 -10"></path><g class="terminal ">
<path d="M580.0 121h8.5"></path><path d="M634.0 121h8.5"></path><rect height="22" rx="10" ry="10" width="45.5" x="588.5" y="110"></rect><text x="611.25" y="125">MIN</text></g><path d="M642.5 121a10 10 0 0 1 10 10v70a10 10 0 0 0 10 10"></path><path d="M560.0 211a10 10 0 0 0 10 -10v-100a10 10 0 0 1 10 -10"></path><g class="terminal ">
<path d="M580.0 91h4.25"></path><path d="M638.25 91h4.25"></path><rect height="22" rx="10" ry="10" width="54.0" x="584.25" y="80"></rect><text x="611.25" y="95">LAST</text></g><path d="M642.5 91a10 10 0 0 1 10 10v100a10 10 0 0 0 10 10"></path><path d="M560.0 211a10 10 0 0 0 10 -10v-130a10 10 0 0 1 10 -10"></path><g class="terminal ">
<path d="M580.0 61h0.0"></path><path d="M642.5 61h0.0"></path><rect height="22" rx="10" ry="10" width="62.5" x="580.0" y="50"></rect><text x="611.25" y="65">FIRST</text></g><path d="M642.5 61a10 10 0 0 1 10 10v130a10 10 0 0 0 10 10"></path><path d="M560.0 211a10 10 0 0 0 10 -10v-160a10 10 0 0 1 10 -10"></path><g class="terminal ">
<path d="M580.0 31h8.5"></path><path d="M634.0 31h8.5"></path><rect height="22" rx="10" ry="10" width="45.5" x="588.5" y="20"></rect><text x="611.25" y="35">AVG</text></g><path d="M642.5 31a10 10 0 0 1 10 10v160a10 10 0 0 0 10 10"></path><path d="M560.0 211h20"></path><g class="terminal ">
<path d="M580.0 211h0.0"></path><path d="M642.5 211h0.0"></path><rect height="22" rx="10" ry="10" width="62.5" x="580.0" y="200"></rect><text x="611.25" y="215">RANGE</text></g><path d="M642.5 211h20"></path><path d="M560.0 211a10 10 0 0 1 10 10v10a10 10 0 0 0 10 10"></path><g class="terminal ">
<path d="M580.0 241h0.0"></path><path d="M642.5 241h0.0"></path><rect height="22" rx="10" ry="10" width="62.5" x="580.0" y="230"></rect><text x="611.25" y="245">COUNT</text></g><path d="M642.5 241a10 10 0 0 0 10 -10v-10a10 10 0 0 1 10 -10"></path><path d="M560.0 211a10 10 0 0 1 10 10v40a10 10 0 0 0 10 10"></path><g class="terminal ">
<path d="M580.0 271h0.0"></path><path d="M642.5 271h0.0"></path><rect height="22" rx="10" ry="10" width="62.5" x="580.0" y="260"></rect><text x="611.25" y="275">STD.P</text></g><path d="M642.5 271a10 10 0 0 0 10 -10v-40a10 10 0 0 1 10 -10"></path><path d="M560.0 211a10 10 0 0 1 10 10v70a10 10 0 0 0 10 10"></path><g class="terminal ">
<path d="M580.0 301h0.0"></path><path d="M642.5 301h0.0"></path><rect height="22" rx="10" ry="10" width="62.5" x="580.0" y="290"></rect><text x="611.25" y="305">STD.S</text></g><path d="M642.5 301a10 10 0 0 0 10 -10v-70a10 10 0 0 1 10 -10"></path><path d="M560.0 211a10 10 0 0 1 10 10v100a10 10 0 0 0 10 10"></path><g class="terminal ">
<path d="M580.0 331h0.0"></path><path d="M642.5 331h0.0"></path><rect height="22" rx="10" ry="10" width="62.5" x="580.0" y="320"></rect><text x="611.25" y="335">VAR.P</text></g><path d="M642.5 331a10 10 0 0 0 10 -10v-100a10 10 0 0 1 10 -10"></path><path d="M560.0 211a10 10 0 0 1 10 10v130a10 10 0 0 0 10 10"></path><g class="terminal ">
<path d="M580.0 361h0.0"></path><path d="M642.5 361h0.0"></path><rect height="22" rx="10" ry="10" width="62.5" x="580.0" y="350"></rect><text x="611.25" y="365">VAR.S</text></g><path d="M642.5 361a10 10 0 0 0 10 -10v-130a10 10 0 0 1 10 -10"></path><path d="M560.0 211a10 10 0 0 1 10 10v160a10 10 0 0 0 10 10"></path><g class="terminal ">
<path d="M580.0 391h8.5"></path><path d="M634.0 391h8.5"></path><rect height="22" rx="10" ry="10" width="45.5" x="588.5" y="380"></rect><text x="611.25" y="395">TWA</text></g><path d="M642.5 391a10 10 0 0 0 10 -10v-160a10 10 0 0 1 10 -10"></path></g></g><path d="M672.5 211a10 10 0 0 1 10 10v179a10 10 0 0 1 -10 10h-612.5a10 10 0 0 0 -10 10v0a10 10 0 0 0 10 10"></path><g>
<path d="M60.0 430h142.25"></path><path d="M530.25 430h142.25"></path><g class="non-terminal ">
<path d="M202.25 430h0.0"></path><path d="M341.25 430h0.0"></path><rect height="22" width="139.0" x="202.25" y="419"></rect><text x="271.75" y="434">bucketDuration</text><title>integer</title></g><path d="M341.25 430h10"></path><g>
<path d="M351.25 430h0.0"></path><path d="M530.25 430h0.0"></path><path d="M351.25 430h20"></path><g>
<path d="M371.25 430h139.0"></path></g><path d="M510.25 430h20"></path><path d="M351.25 430a10 10 0 0 1 10 10v0a10 10 0 0 0 10 10"></path><g class="non-terminal ">
<path d="M371.25 450h0.0"></path><path d="M510.25 450h0.0"></path><rect height="22" width="139.0" x="371.25" y="439"></rect><text x="440.75" y="454">alignTimestamp</text><title>integer</title></g><path d="M510.25 450a10 10 0 0 0 10 -10v0a10 10 0 0 1 10 -10"></path></g></g><path d="M672.5 430h10"></path><path d="M682.5 430h0.0"></path></g><path d="M682.5 430h10"></path><path d="M 692.5 430 h 20 m -10 -10 v 20 m 10 -20 v 20"></path></g></svg>