<svg class="railroad-diagram" viewBox="0 0 449.5 62" xmlns="http://www.w3.org/2000/svg" xmlns:xlink="http://www.w3.org/1999/xlink">
<g transform="translate(.5 .5)">
<g>
<path d="M20 21v20m10 -20v20m-10 -10h20"></path></g><path d="M40 31h10"></path><g>
<path d="M50 31h0.0"></path><g>
<path d="M50.0 31h10.0"></path><path d="M389.5 31h10.0"></path><g class="terminal ">
<path d="M60.0 31h0.0"></path><path d="M148.0 31h0.0"></path><rect height="22" rx="10" ry="10" width="88.0" x="60.0" y="20"></rect><text x="104.0" y="35">SPUBLISH</text></g><path d="M148.0 31h10"></path><path d="M158.0 31h10"></path><g class="non-terminal ">
<path d="M168.0 31h0.0"></path><path d="M290.0 31h0.0"></path><rect height="22" width="122.0" x="168.0" y="20"></rect><text x="229.0" y="35">shardchannel</text><title>string</title></g><path d="M290.0 31h10"></path><path d="M300.0 31h10"></path><g class="non-terminal ">
<path d="M310.0 31h0.0"></path><path d="M389.5 31h0.0"></path><rect height="22" width="79.5" x="310.0" y="20"></rect><text x="349.75" y="35">message</text><title>string</title></g></g><path d="M399.5 31h0.0"></path></g><path d="M399.5 31h10"></path><path d="M 409.5 31 h 20 m -10 -10 v 20 m 10 -20 v 20"></path></g></svg>