<svg class="railroad-diagram" viewBox="0 0 397.5 91" xmlns="http://www.w3.org/2000/svg" xmlns:xlink="http://www.w3.org/1999/xlink">
<g transform="translate(.5 .5)">
<g>
<path d="M20 21v20m10 -20v20m-10 -10h20"></path></g><path d="M40 31h10"></path><g>
<path d="M50 31h0.0"></path><g>
<path d="M50.0 31h10.0"></path><path d="M337.5 31h10.0"></path><g class="terminal ">
<path d="M60.0 31h0.0"></path><path d="M122.5 31h0.0"></path><rect height="22" rx="10" ry="10" width="62.5" x="60.0" y="20"></rect><text x="91.25" y="35">PFADD</text></g><path d="M122.5 31h10"></path><path d="M132.5 31h10"></path><g class="non-terminal ">
<path d="M142.5 31h0.0"></path><path d="M188.0 31h0.0"></path><rect height="22" width="45.5" x="142.5" y="20"></rect><text x="165.25" y="35">key</text><title>key</title></g><path d="M188.0 31h10"></path><g>
<path d="M198.0 31h0.0"></path><path d="M337.5 31h0.0"></path><path d="M198.0 31h20"></path><g>
<path d="M218.0 31h99.5"></path></g><path d="M317.5 31h20"></path><path d="M198.0 31a10 10 0 0 1 10 10v0a10 10 0 0 0 10 10"></path><g>
<path d="M218.0 51h0.0"></path><path d="M317.5 51h0.0"></path><path d="M218.0 51h10"></path><g class="non-terminal ">
<path d="M228.0 51h0.0"></path><path d="M307.5 51h0.0"></path><rect height="22" width="79.5" x="228.0" y="40"></rect><text x="267.75" y="55">element</text><title>string</title></g><path d="M307.5 51h10"></path><path d="M228.0 51a10 10 0 0 0 -10 10v0a10 10 0 0 0 10 10"></path><g>
<path d="M228.0 71h79.5"></path></g><path d="M307.5 71a10 10 0 0 0 10 -10v0a10 10 0 0 0 -10 -10"></path></g><path d="M317.5 51a10 10 0 0 0 10 -10v0a10 10 0 0 1 10 -10"></path></g></g><path d="M347.5 31h0.0"></path></g><path d="M347.5 31h10"></path><path d="M 357.5 31 h 20 m -10 -10 v 20 m 10 -20 v 20"></path></g></svg>