<svg class="railroad-diagram" viewBox="0 0 543.5 71" xmlns="http://www.w3.org/2000/svg" xmlns:xlink="http://www.w3.org/1999/xlink">
<g transform="translate(.5 .5)">
<g>
<path d="M20 21v20m10 -20v20m-10 -10h20"></path></g><path d="M40 31h10"></path><g>
<path d="M50 31h0.0"></path><g>
<path d="M50.0 31h10.0"></path><path d="M483.5 31h10.0"></path><g class="terminal ">
<path d="M60.0 31h0.0"></path><path d="M165.0 31h0.0"></path><rect height="22" rx="10" ry="10" width="105.0" x="60.0" y="20"></rect><text x="112.5" y="35">ZDIFFSTORE</text></g><path d="M165.0 31h10"></path><path d="M175.0 31h10"></path><g class="non-terminal ">
<path d="M185.0 31h0.0"></path><path d="M298.5 31h0.0"></path><rect height="22" width="113.5" x="185.0" y="20"></rect><text x="241.75" y="35">destination</text><title>key</title></g><path d="M298.5 31h10"></path><path d="M308.5 31h10"></path><g class="non-terminal ">
<path d="M318.5 31h0.0"></path><path d="M398.0 31h0.0"></path><rect height="22" width="79.5" x="318.5" y="20"></rect><text x="358.25" y="35">numkeys</text><title>integer</title></g><path d="M398.0 31h10"></path><path d="M408.0 31h10"></path><g>
<path d="M418.0 31h0.0"></path><path d="M483.5 31h0.0"></path><path d="M418.0 31h10"></path><g class="non-terminal ">
<path d="M428.0 31h0.0"></path><path d="M473.5 31h0.0"></path><rect height="22" width="45.5" x="428.0" y="20"></rect><text x="450.75" y="35">key</text><title>key</title></g><path d="M473.5 31h10"></path><path d="M428.0 31a10 10 0 0 0 -10 10v0a10 10 0 0 0 10 10"></path><g>
<path d="M428.0 51h45.5"></path></g><path d="M473.5 51a10 10 0 0 0 10 -10v0a10 10 0 0 0 -10 -10"></path></g></g><path d="M493.5 31h0.0"></path></g><path d="M493.5 31h10"></path><path d="M 503.5 31 h 20 m -10 -10 v 20 m 10 -20 v 20"></path></g></svg>