<svg class="railroad-diagram" viewBox="0 0 373.0 62" xmlns="http://www.w3.org/2000/svg" xmlns:xlink="http://www.w3.org/1999/xlink">
<g transform="translate(.5 .5)">
<g>
<path d="M20 21v20m10 -20v20m-10 -10h20"></path></g><path d="M40 31h10"></path><g>
<path d="M50 31h0.0"></path><g>
<path d="M50.0 31h10.0"></path><path d="M313.0 31h10.0"></path><g class="terminal ">
<path d="M60.0 31h0.0"></path><path d="M131.0 31h0.0"></path><rect height="22" rx="10" ry="10" width="71.0" x="60.0" y="20"></rect><text x="95.5" y="35">SWAPDB</text></g><path d="M131.0 31h10"></path><path d="M141.0 31h10"></path><g class="non-terminal ">
<path d="M151.0 31h0.0"></path><path d="M222.0 31h0.0"></path><rect height="22" width="71.0" x="151.0" y="20"></rect><text x="186.5" y="35">index1</text><title>integer</title></g><path d="M222.0 31h10"></path><path d="M232.0 31h10"></path><g class="non-terminal ">
<path d="M242.0 31h0.0"></path><path d="M313.0 31h0.0"></path><rect height="22" width="71.0" x="242.0" y="20"></rect><text x="277.5" y="35">index2</text><title>integer</title></g></g><path d="M323.0 31h0.0"></path></g><path d="M323.0 31h10"></path><path d="M 333.0 31 h 20 m -10 -10 v 20 m 10 -20 v 20"></path></g></svg>