<svg class="railroad-diagram" viewBox="0 0 344.5 71" xmlns="http://www.w3.org/2000/svg" xmlns:xlink="http://www.w3.org/1999/xlink">
<g transform="translate(.5 .5)">
<g>
<path d="M20 21v20m10 -20v20m-10 -10h20"></path></g><path d="M40 31h10"></path><g>
<path d="M50 31h0.0"></path><g>
<path d="M50.0 31h10.0"></path><path d="M284.5 31h10.0"></path><g class="terminal ">
<path d="M60.0 31h0.0"></path><path d="M165.0 31h0.0"></path><rect height="22" rx="10" ry="10" width="105.0" x="60.0" y="20"></rect><text x="112.5" y="35">PSUBSCRIBE</text></g><path d="M165.0 31h10"></path><path d="M175.0 31h10"></path><g>
<path d="M185.0 31h0.0"></path><path d="M284.5 31h0.0"></path><path d="M185.0 31h10"></path><g class="non-terminal ">
<path d="M195.0 31h0.0"></path><path d="M274.5 31h0.0"></path><rect height="22" width="79.5" x="195.0" y="20"></rect><text x="234.75" y="35">pattern</text><title>pattern</title></g><path d="M274.5 31h10"></path><path d="M195.0 31a10 10 0 0 0 -10 10v0a10 10 0 0 0 10 10"></path><g>
<path d="M195.0 51h79.5"></path></g><path d="M274.5 51a10 10 0 0 0 10 -10v0a10 10 0 0 0 -10 -10"></path></g></g><path d="M294.5 31h0.0"></path></g><path d="M294.5 31h10"></path><path d="M 304.5 31 h 20 m -10 -10 v 20 m 10 -20 v 20"></path></g></svg>