<svg class="railroad-diagram" viewBox="0 0 688.0 170" xmlns="http://www.w3.org/2000/svg" xmlns:xlink="http://www.w3.org/1999/xlink">
<g transform="translate(.5 .5)">
<g>
<path d="M20 21v20m10 -20v20m-10 -10h20"></path></g><path d="M40 31h10"></path><g>
<path d="M50 31h0.0"></path><path d="M50.0 31h10"></path><g>
<path d="M60.0 31h10.0"></path><path d="M618.0 31h10.0"></path><g class="terminal ">
<path d="M70.0 31h0.0"></path><path d="M141.0 31h0.0"></path><rect height="22" rx="10" ry="10" width="71.0" x="70.0" y="20"></rect><text x="105.5" y="35">ZRANGE</text></g><path d="M141.0 31h10"></path><path d="M151.0 31h10"></path><g class="non-terminal ">
<path d="M161.0 31h0.0"></path><path d="M206.5 31h0.0"></path><rect height="22" width="45.5" x="161.0" y="20"></rect><text x="183.75" y="35">key</text><title>key</title></g><path d="M206.5 31h10"></path><path d="M216.5 31h10"></path><g class="non-terminal ">
<path d="M226.5 31h0.0"></path><path d="M289.0 31h0.0"></path><rect height="22" width="62.5" x="226.5" y="20"></rect><text x="257.75" y="35">start</text><title>string</title></g><path d="M289.0 31h10"></path><path d="M299.0 31h10"></path><g class="non-terminal ">
<path d="M309.0 31h0.0"></path><path d="M363.0 31h0.0"></path><rect height="22" width="54.0" x="309.0" y="20"></rect><text x="336.0" y="35">stop</text><title>string</title></g><path d="M363.0 31h10"></path><g>
<path d="M373.0 31h0.0"></path><path d="M532.5 31h0.0"></path><path d="M373.0 31h20"></path><g>
<path d="M393.0 31h119.5"></path></g><path d="M512.5 31h20"></path><path d="M373.0 31a10 10 0 0 1 10 10v29a10 10 0 0 0 10 10"></path><g>
<path d="M393.0 80h0.0"></path><path d="M512.5 80h0.0"></path><path d="M393.0 80a10 10 0 0 0 10 -10v-10a10 10 0 0 1 10 -10"></path><g class="terminal ">
<path d="M413.0 50h0.0"></path><path d="M492.5 50h0.0"></path><rect height="22" rx="10" ry="10" width="79.5" x="413.0" y="39"></rect><text x="452.75" y="54">BYSCORE</text></g><path d="M492.5 50a10 10 0 0 1 10 10v10a10 10 0 0 0 10 10"></path><path d="M393.0 80h20"></path><g class="terminal ">
<path d="M413.0 80h8.5"></path><path d="M484.0 80h8.5"></path><rect height="22" rx="10" ry="10" width="62.5" x="421.5" y="69"></rect><text x="452.75" y="84">BYLEX</text></g><path d="M492.5 80h20"></path></g><path d="M512.5 80a10 10 0 0 0 10 -10v-29a10 10 0 0 1 10 -10"></path></g><g>
<path d="M532.5 31h0.0"></path><path d="M618.0 31h0.0"></path><path d="M532.5 31h20"></path><g>
<path d="M552.5 31h45.5"></path></g><path d="M598.0 31h20"></path><path d="M532.5 31a10 10 0 0 1 10 10v0a10 10 0 0 0 10 10"></path><g class="terminal ">
<path d="M552.5 51h0.0"></path><path d="M598.0 51h0.0"></path><rect height="22" rx="10" ry="10" width="45.5" x="552.5" y="40"></rect><text x="575.25" y="55">REV</text></g><path d="M598.0 51a10 10 0 0 0 10 -10v0a10 10 0 0 1 10 -10"></path></g></g><path d="M628.0 31a10 10 0 0 1 10 10v48a10 10 0 0 1 -10 10h-568.0a10 10 0 0 0 -10 10v0a10 10 0 0 0 10 10"></path><g>
<path d="M60.0 119h73.5"></path><path d="M554.5 119h73.5"></path><g>
<path d="M133.5 119h0.0"></path><path d="M409.5 119h0.0"></path><path d="M133.5 119h20"></path><g>
<path d="M153.5 119h236.0"></path></g><path d="M389.5 119h20"></path><path d="M133.5 119a10 10 0 0 1 10 10v0a10 10 0 0 0 10 10"></path><g>
<path d="M153.5 139h0.0"></path><path d="M389.5 139h0.0"></path><g class="terminal ">
<path d="M153.5 139h0.0"></path><path d="M216.0 139h0.0"></path><rect height="22" rx="10" ry="10" width="62.5" x="153.5" y="128"></rect><text x="184.75" y="143">LIMIT</text></g><path d="M216.0 139h10"></path><path d="M226.0 139h10"></path><g>
<path d="M236.0 139h0.0"></path><path d="M389.5 139h0.0"></path><g class="non-terminal ">
<path d="M236.0 139h0.0"></path><path d="M307.0 139h0.0"></path><rect height="22" width="71.0" x="236.0" y="128"></rect><text x="271.5" y="143">offset</text><title>integer</title></g><path d="M307.0 139h10"></path><path d="M317.0 139h10"></path><g class="non-terminal ">
<path d="M327.0 139h0.0"></path><path d="M389.5 139h0.0"></path><rect height="22" width="62.5" x="327.0" y="128"></rect><text x="358.25" y="143">count</text><title>integer</title></g></g></g><path d="M389.5 139a10 10 0 0 0 10 -10v0a10 10 0 0 1 10 -10"></path></g><g>
<path d="M409.5 119h0.0"></path><path d="M554.5 119h0.0"></path><path d="M409.5 119h20"></path><g>
<path d="M429.5 119h105.0"></path></g><path d="M534.5 119h20"></path><path d="M409.5 119a10 10 0 0 1 10 10v0a10 10 0 0 0 10 10"></path><g class="terminal ">
<path d="M429.5 139h0.0"></path><path d="M534.5 139h0.0"></path><rect height="22" rx="10" ry="10" width="105.0" x="429.5" y="128"></rect><text x="482.0" y="143">WITHSCORES</text></g><path d="M534.5 139a10 10 0 0 0 10 -10v0a10 10 0 0 1 10 -10"></path></g></g><path d="M628.0 119h10"></path><path d="M638.0 119h0.0"></path></g><path d="M638.0 119h10"></path><path d="M 648.0 119 h 20 m -10 -10 v 20 m 10 -20 v 20"></path></g></svg>