<svg class="railroad-diagram" viewBox="0 0 567.0 452" xmlns="http://www.w3.org/2000/svg" xmlns:xlink="http://www.w3.org/1999/xlink">
<g transform="translate(.5 .5)">
<g>
<path d="M20 276v20m10 -20v20m-10 -10h20"></path></g><path d="M40 286h10"></path><g>
<path d="M50 286h0.0"></path><g>
<path d="M50.0 286h10.0"></path><path d="M507.0 286h10.0"></path><g class="terminal ">
<path d="M60.0 286h0.0"></path><path d="M173.5 286h0.0"></path><rect height="22" rx="10" ry="10" width="113.5" x="60.0" y="275"></rect><text x="116.75" y="290">CLIENT KILL</text></g><path d="M173.5 286h10"></path><g>
<path d="M183.5 286h0.0"></path><path d="M507.0 286h0.0"></path><path d="M183.5 286a10 10 0 0 0 10 -10v-235a10 10 0 0 1 10 -10"></path><g class="non-terminal ">
<path d="M203.5 31h102.0"></path><path d="M385.0 31h102.0"></path><rect height="22" width="79.5" x="305.5" y="20"></rect><text x="345.25" y="35">ip:port</text><title>string</title></g><path d="M487.0 31a10 10 0 0 1 10 10v235a10 10 0 0 0 10 10"></path><path d="M183.5 286h20"></path><g>
<path d="M203.5 286h0.0"></path><path d="M487.0 286h0.0"></path><path d="M203.5 286h10"></path><g>
<path d="M213.5 286h0.0"></path><path d="M477.0 286h0.0"></path><path d="M213.5 286a10 10 0 0 0 10 -10v-19a10 10 0 0 1 10 -10"></path><g>
<path d="M233.5 247h10.75"></path><path d="M446.25 247h10.75"></path><path d="M244.25 247h20"></path><g>
<path d="M264.25 247h162.0"></path></g><path d="M426.25 247h20"></path><path d="M244.25 247a10 10 0 0 1 10 10v0a10 10 0 0 0 10 10"></path><g>
<path d="M264.25 267h0.0"></path><path d="M426.25 267h0.0"></path><g class="terminal ">
<path d="M264.25 267h0.0"></path><path d="M318.25 267h0.0"></path><rect height="22" rx="10" ry="10" width="54.0" x="264.25" y="256"></rect><text x="291.25" y="271">USER</text></g><path d="M318.25 267h10"></path><path d="M328.25 267h10"></path><g class="non-terminal ">
<path d="M338.25 267h0.0"></path><path d="M426.25 267h0.0"></path><rect height="22" width="88.0" x="338.25" y="256"></rect><text x="382.25" y="271">username</text><title>string</title></g></g><path d="M426.25 267a10 10 0 0 0 10 -10v0a10 10 0 0 1 10 -10"></path></g><path d="M457.0 247a10 10 0 0 1 10 10v19a10 10 0 0 0 10 10"></path><path d="M213.5 286a10 10 0 0 0 10 -10v-177a10 10 0 0 1 10 -10"></path><g>
<path d="M233.5 89h0.0"></path><path d="M457.0 89h0.0"></path><path d="M233.5 89h20"></path><g>
<path d="M253.5 89h183.5"></path></g><path d="M437.0 89h20"></path><path d="M233.5 89a10 10 0 0 1 10 10v59a10 10 0 0 0 10 10"></path><g>
<path d="M253.5 168h0.0"></path><path d="M437.0 168h0.0"></path><g class="terminal ">
<path d="M253.5 168h0.0"></path><path d="M307.5 168h0.0"></path><rect height="22" rx="10" ry="10" width="54.0" x="253.5" y="157"></rect><text x="280.5" y="172">TYPE</text></g><path d="M307.5 168h10"></path><g>
<path d="M317.5 168h0.0"></path><path d="M437.0 168h0.0"></path><path d="M317.5 168a10 10 0 0 0 10 -10v-10a10 10 0 0 1 10 -10"></path><g class="terminal ">
<path d="M337.5 138h4.25"></path><path d="M412.75 138h4.25"></path><rect height="22" rx="10" ry="10" width="71.0" x="341.75" y="127"></rect><text x="377.25" y="142">MASTER</text></g><path d="M417.0 138a10 10 0 0 1 10 10v10a10 10 0 0 0 10 10"></path><path d="M317.5 168a10 10 0 0 0 10 -10v-40a10 10 0 0 1 10 -10"></path><g class="terminal ">
<path d="M337.5 108h4.25"></path><path d="M412.75 108h4.25"></path><rect height="22" rx="10" ry="10" width="71.0" x="341.75" y="97"></rect><text x="377.25" y="112">NORMAL</text></g><path d="M417.0 108a10 10 0 0 1 10 10v40a10 10 0 0 0 10 10"></path><path d="M317.5 168h20"></path><g class="terminal ">
<path d="M337.5 168h8.5"></path><path d="M408.5 168h8.5"></path><rect height="22" rx="10" ry="10" width="62.5" x="346.0" y="157"></rect><text x="377.25" y="172">SLAVE</text></g><path d="M417.0 168h20"></path><path d="M317.5 168a10 10 0 0 1 10 10v10a10 10 0 0 0 10 10"></path><g class="terminal ">
<path d="M337.5 198h0.0"></path><path d="M417.0 198h0.0"></path><rect height="22" rx="10" ry="10" width="79.5" x="337.5" y="187"></rect><text x="377.25" y="202">REPLICA</text></g><path d="M417.0 198a10 10 0 0 0 10 -10v-10a10 10 0 0 1 10 -10"></path><path d="M317.5 168a10 10 0 0 1 10 10v40a10 10 0 0 0 10 10"></path><g class="terminal ">
<path d="M337.5 228h4.25"></path><path d="M412.75 228h4.25"></path><rect height="22" rx="10" ry="10" width="71.0" x="341.75" y="217"></rect><text x="377.25" y="232">PUBSUB</text></g><path d="M417.0 228a10 10 0 0 0 10 -10v-40a10 10 0 0 1 10 -10"></path></g></g><path d="M437.0 168a10 10 0 0 0 10 -10v-59a10 10 0 0 1 10 -10"></path></g><path d="M457.0 89a10 10 0 0 1 10 10v177a10 10 0 0 0 10 10"></path><path d="M213.5 286a10 10 0 0 0 10 -10v-216a10 10 0 0 1 10 -10"></path><g>
<path d="M233.5 50h15.0"></path><path d="M442.0 50h15.0"></path><path d="M248.5 50h20"></path><g>
<path d="M268.5 50h153.5"></path></g><path d="M422.0 50h20"></path><path d="M248.5 50a10 10 0 0 1 10 10v0a10 10 0 0 0 10 10"></path><g>
<path d="M268.5 70h0.0"></path><path d="M422.0 70h0.0"></path><g class="terminal ">
<path d="M268.5 70h0.0"></path><path d="M305.5 70h0.0"></path><rect height="22" rx="10" ry="10" width="37.0" x="268.5" y="59"></rect><text x="287.0" y="74">ID</text></g><path d="M305.5 70h10"></path><path d="M315.5 70h10"></path><g class="non-terminal ">
<path d="M325.5 70h0.0"></path><path d="M422.0 70h0.0"></path><rect height="22" width="96.5" x="325.5" y="59"></rect><text x="373.75" y="74">client-id</text><title>integer</title></g></g><path d="M422.0 70a10 10 0 0 0 10 -10v0a10 10 0 0 1 10 -10"></path></g><path d="M457.0 50a10 10 0 0 1 10 10v216a10 10 0 0 0 10 10"></path><path d="M213.5 286h20"></path><g>
<path d="M233.5 286h15.0"></path><path d="M442.0 286h15.0"></path><path d="M248.5 286h20"></path><g>
<path d="M268.5 286h153.5"></path></g><path d="M422.0 286h20"></path><path d="M248.5 286a10 10 0 0 1 10 10v0a10 10 0 0 0 10 10"></path><g>
<path d="M268.5 306h0.0"></path><path d="M422.0 306h0.0"></path><g class="terminal ">
<path d="M268.5 306h0.0"></path><path d="M322.5 306h0.0"></path><rect height="22" rx="10" ry="10" width="54.0" x="268.5" y="295"></rect><text x="295.5" y="310">ADDR</text></g><path d="M322.5 306h10"></path><path d="M332.5 306h10"></path><g class="non-terminal ">
<path d="M342.5 306h0.0"></path><path d="M422.0 306h0.0"></path><rect height="22" width="79.5" x="342.5" y="295"></rect><text x="382.25" y="310">ip:port</text><title>string</title></g></g><path d="M422.0 306a10 10 0 0 0 10 -10v0a10 10 0 0 1 10 -10"></path></g><path d="M457.0 286h20"></path><path d="M213.5 286a10 10 0 0 1 10 10v19a10 10 0 0 0 10 10"></path><g>
<path d="M233.5 325h10.75"></path><path d="M446.25 325h10.75"></path><path d="M244.25 325h20"></path><g>
<path d="M264.25 325h162.0"></path></g><path d="M426.25 325h20"></path><path d="M244.25 325a10 10 0 0 1 10 10v0a10 10 0 0 0 10 10"></path><g>
<path d="M264.25 345h0.0"></path><path d="M426.25 345h0.0"></path><g class="terminal ">
<path d="M264.25 345h0.0"></path><path d="M326.75 345h0.0"></path><rect height="22" rx="10" ry="10" width="62.5" x="264.25" y="334"></rect><text x="295.5" y="349">LADDR</text></g><path d="M326.75 345h10"></path><path d="M336.75 345h10"></path><g class="non-terminal ">
<path d="M346.75 345h0.0"></path><path d="M426.25 345h0.0"></path><rect height="22" width="79.5" x="346.75" y="334"></rect><text x="386.5" y="349">ip:port</text><title>string</title></g></g><path d="M426.25 345a10 10 0 0 0 10 -10v0a10 10 0 0 1 10 -10"></path></g><path d="M457.0 325a10 10 0 0 0 10 -10v-19a10 10 0 0 1 10 -10"></path><path d="M213.5 286a10 10 0 0 1 10 10v58a10 10 0 0 0 10 10"></path><g>
<path d="M233.5 364h8.5"></path><path d="M448.5 364h8.5"></path><path d="M242.0 364h20"></path><g>
<path d="M262.0 364h166.5"></path></g><path d="M428.5 364h20"></path><path d="M242.0 364a10 10 0 0 1 10 10v29a10 10 0 0 0 10 10"></path><g>
<path d="M262.0 413h0.0"></path><path d="M428.5 413h0.0"></path><g class="terminal ">
<path d="M262.0 413h0.0"></path><path d="M333.0 413h0.0"></path><rect height="22" rx="10" ry="10" width="71.0" x="262.0" y="402"></rect><text x="297.5" y="417">SKIPME</text></g><path d="M333.0 413h10"></path><g>
<path d="M343.0 413h0.0"></path><path d="M428.5 413h0.0"></path><path d="M343.0 413a10 10 0 0 0 10 -10v-10a10 10 0 0 1 10 -10"></path><g class="terminal ">
<path d="M363.0 383h0.0"></path><path d="M408.5 383h0.0"></path><rect height="22" rx="10" ry="10" width="45.5" x="363.0" y="372"></rect><text x="385.75" y="387">YES</text></g><path d="M408.5 383a10 10 0 0 1 10 10v10a10 10 0 0 0 10 10"></path><path d="M343.0 413h20"></path><g class="terminal ">
<path d="M363.0 413h4.25"></path><path d="M404.25 413h4.25"></path><rect height="22" rx="10" ry="10" width="37.0" x="367.25" y="402"></rect><text x="385.75" y="417">NO</text></g><path d="M408.5 413h20"></path></g></g><path d="M428.5 413a10 10 0 0 0 10 -10v-29a10 10 0 0 1 10 -10"></path></g><path d="M457.0 364a10 10 0 0 0 10 -10v-58a10 10 0 0 1 10 -10"></path></g><path d="M477.0 286h10"></path><path d="M213.5 286a10 10 0 0 0 -10 10v126a10 10 0 0 0 10 10"></path><g>
<path d="M213.5 432h263.5"></path></g><path d="M477.0 432a10 10 0 0 0 10 -10v-126a10 10 0 0 0 -10 -10"></path></g><path d="M487.0 286h20"></path></g></g><path d="M517.0 286h0.0"></path></g><path d="M517.0 286h10"></path><path d="M 527.0 286 h 20 m -10 -10 v 20 m 10 -20 v 20"></path></g></svg>