<svg class="railroad-diagram" viewBox="0 0 730.0 299" xmlns="http://www.w3.org/2000/svg" xmlns:xlink="http://www.w3.org/1999/xlink">
<g transform="translate(.5 .5)">
<g>
<path d="M20 81v20m10 -20v20m-10 -10h20"></path></g><path d="M40 91h10"></path><g>
<path d="M50 91h0.0"></path><path d="M50.0 91h10"></path><g>
<path d="M60.0 91h10.0"></path><path d="M660.0 91h10.0"></path><g class="terminal ">
<path d="M70.0 91h0.0"></path><path d="M192.0 91h0.0"></path><rect height="22" rx="10" ry="10" width="122.0" x="70.0" y="80"></rect><text x="131.0" y="95">GEORADIUS&#95;RO</text></g><path d="M192.0 91h10"></path><path d="M202.0 91h10"></path><g class="non-terminal ">
<path d="M212.0 91h0.0"></path><path d="M257.5 91h0.0"></path><rect height="22" width="45.5" x="212.0" y="80"></rect><text x="234.75" y="95">key</text><title>key</title></g><path d="M257.5 91h10"></path><path d="M267.5 91h10"></path><g class="non-terminal ">
<path d="M277.5 91h0.0"></path><path d="M374.0 91h0.0"></path><rect height="22" width="96.5" x="277.5" y="80"></rect><text x="325.75" y="95">longitude</text><title>double</title></g><path d="M374.0 91h10"></path><path d="M384.0 91h10"></path><g class="non-terminal ">
<path d="M394.0 91h0.0"></path><path d="M482.0 91h0.0"></path><rect height="22" width="88.0" x="394.0" y="80"></rect><text x="438.0" y="95">latitude</text><title>double</title></g><path d="M482.0 91h10"></path><path d="M492.0 91h10"></path><g class="non-terminal ">
<path d="M502.0 91h0.0"></path><path d="M573.0 91h0.0"></path><rect height="22" width="71.0" x="502.0" y="80"></rect><text x="537.5" y="95">radius</text><title>double</title></g><path d="M573.0 91h10"></path><g>
<path d="M583.0 91h0.0"></path><path d="M660.0 91h0.0"></path><path d="M583.0 91a10 10 0 0 0 10 -10v-10a10 10 0 0 1 10 -10"></path><g class="terminal ">
<path d="M603.0 61h0.0"></path><path d="M640.0 61h0.0"></path><rect height="22" rx="10" ry="10" width="37.0" x="603.0" y="50"></rect><text x="621.5" y="65">KM</text></g><path d="M640.0 61a10 10 0 0 1 10 10v10a10 10 0 0 0 10 10"></path><path d="M583.0 91a10 10 0 0 0 10 -10v-40a10 10 0 0 1 10 -10"></path><g class="terminal ">
<path d="M603.0 31h4.25"></path><path d="M635.75 31h4.25"></path><rect height="22" rx="10" ry="10" width="28.5" x="607.25" y="20"></rect><text x="621.5" y="35">M</text></g><path d="M640.0 31a10 10 0 0 1 10 10v40a10 10 0 0 0 10 10"></path><path d="M583.0 91h20"></path><g class="terminal ">
<path d="M603.0 91h0.0"></path><path d="M640.0 91h0.0"></path><rect height="22" rx="10" ry="10" width="37.0" x="603.0" y="80"></rect><text x="621.5" y="95">FT</text></g><path d="M640.0 91h20"></path><path d="M583.0 91a10 10 0 0 1 10 10v10a10 10 0 0 0 10 10"></path><g class="terminal ">
<path d="M603.0 121h0.0"></path><path d="M640.0 121h0.0"></path><rect height="22" rx="10" ry="10" width="37.0" x="603.0" y="110"></rect><text x="621.5" y="125">MI</text></g><path d="M640.0 121a10 10 0 0 0 10 -10v-10a10 10 0 0 1 10 -10"></path></g></g><path d="M670.0 91a10 10 0 0 1 10 10v29a10 10 0 0 1 -10 10h-610.0a10 10 0 0 0 -10 10v0a10 10 0 0 0 10 10"></path><g>
<path d="M60.0 160h108.75"></path><path d="M561.25 160h108.75"></path><g>
<path d="M168.75 160h0.0"></path><path d="M305.25 160h0.0"></path><path d="M168.75 160h20"></path><g>
<path d="M188.75 160h96.5"></path></g><path d="M285.25 160h20"></path><path d="M168.75 160a10 10 0 0 1 10 10v0a10 10 0 0 0 10 10"></path><g class="terminal ">
<path d="M188.75 180h0.0"></path><path d="M285.25 180h0.0"></path><rect height="22" rx="10" ry="10" width="96.5" x="188.75" y="169"></rect><text x="237.0" y="184">WITHCOORD</text></g><path d="M285.25 180a10 10 0 0 0 10 -10v0a10 10 0 0 1 10 -10"></path></g><g>
<path d="M305.25 160h0.0"></path><path d="M433.25 160h0.0"></path><path d="M305.25 160h20"></path><g>
<path d="M325.25 160h88.0"></path></g><path d="M413.25 160h20"></path><path d="M305.25 160a10 10 0 0 1 10 10v0a10 10 0 0 0 10 10"></path><g class="terminal ">
<path d="M325.25 180h0.0"></path><path d="M413.25 180h0.0"></path><rect height="22" rx="10" ry="10" width="88.0" x="325.25" y="169"></rect><text x="369.25" y="184">WITHDIST</text></g><path d="M413.25 180a10 10 0 0 0 10 -10v0a10 10 0 0 1 10 -10"></path></g><g>
<path d="M433.25 160h0.0"></path><path d="M561.25 160h0.0"></path><path d="M433.25 160h20"></path><g>
<path d="M453.25 160h88.0"></path></g><path d="M541.25 160h20"></path><path d="M433.25 160a10 10 0 0 1 10 10v0a10 10 0 0 0 10 10"></path><g class="terminal ">
<path d="M453.25 180h0.0"></path><path d="M541.25 180h0.0"></path><rect height="22" rx="10" ry="10" width="88.0" x="453.25" y="169"></rect><text x="497.25" y="184">WITHHASH</text></g><path d="M541.25 180a10 10 0 0 0 10 -10v0a10 10 0 0 1 10 -10"></path></g></g><path d="M670.0 160a10 10 0 0 1 10 10v19a10 10 0 0 1 -10 10h-610.0a10 10 0 0 0 -10 10v0a10 10 0 0 0 10 10"></path><g>
<path d="M60.0 219h97.75"></path><path d="M572.25 219h97.75"></path><g>
<path d="M157.75 219h0.0"></path><path d="M438.25 219h0.0"></path><path d="M157.75 219h20"></path><g>
<path d="M177.75 219h240.5"></path></g><path d="M418.25 219h20"></path><path d="M157.75 219a10 10 0 0 1 10 10v0a10 10 0 0 0 10 10"></path><g>
<path d="M177.75 239h0.0"></path><path d="M418.25 239h0.0"></path><g>
<path d="M177.75 239h0.0"></path><path d="M322.75 239h0.0"></path><g class="terminal ">
<path d="M177.75 239h0.0"></path><path d="M240.25 239h0.0"></path><rect height="22" rx="10" ry="10" width="62.5" x="177.75" y="228"></rect><text x="209.0" y="243">COUNT</text></g><path d="M240.25 239h10"></path><path d="M250.25 239h10"></path><g class="non-terminal ">
<path d="M260.25 239h0.0"></path><path d="M322.75 239h0.0"></path><rect height="22" width="62.5" x="260.25" y="228"></rect><text x="291.5" y="243">count</text><title>integer</title></g></g><path d="M322.75 239h10"></path><g>
<path d="M332.75 239h0.0"></path><path d="M418.25 239h0.0"></path><path d="M332.75 239h20"></path><g>
<path d="M352.75 239h45.5"></path></g><path d="M398.25 239h20"></path><path d="M332.75 239a10 10 0 0 1 10 10v0a10 10 0 0 0 10 10"></path><g class="terminal ">
<path d="M352.75 259h0.0"></path><path d="M398.25 259h0.0"></path><rect height="22" rx="10" ry="10" width="45.5" x="352.75" y="248"></rect><text x="375.5" y="263">ANY</text></g><path d="M398.25 259a10 10 0 0 0 10 -10v0a10 10 0 0 1 10 -10"></path></g></g><path d="M418.25 239a10 10 0 0 0 10 -10v0a10 10 0 0 1 10 -10"></path></g><g>
<path d="M438.25 219h0.0"></path><path d="M572.25 219h0.0"></path><path d="M438.25 219h20"></path><g>
<path d="M458.25 219h94.0"></path></g><path d="M552.25 219h20"></path><path d="M438.25 219a10 10 0 0 1 10 10v29a10 10 0 0 0 10 10"></path><g>
<path d="M458.25 268h0.0"></path><path d="M552.25 268h0.0"></path><path d="M458.25 268a10 10 0 0 0 10 -10v-10a10 10 0 0 1 10 -10"></path><g class="terminal ">
<path d="M478.25 238h4.25"></path><path d="M528.0 238h4.25"></path><rect height="22" rx="10" ry="10" width="45.5" x="482.5" y="227"></rect><text x="505.25" y="242">ASC</text></g><path d="M532.25 238a10 10 0 0 1 10 10v10a10 10 0 0 0 10 10"></path><path d="M458.25 268h20"></path><g class="terminal ">
<path d="M478.25 268h0.0"></path><path d="M532.25 268h0.0"></path><rect height="22" rx="10" ry="10" width="54.0" x="478.25" y="257"></rect><text x="505.25" y="272">DESC</text></g><path d="M532.25 268h20"></path></g><path d="M552.25 268a10 10 0 0 0 10 -10v-29a10 10 0 0 1 10 -10"></path></g></g><path d="M670.0 219h10"></path><path d="M680.0 219h0.0"></path></g><path d="M680.0 219h10"></path><path d="M 690.0 219 h 20 m -10 -10 v 20 m 10 -20 v 20"></path></g></svg>