<svg class="railroad-diagram" viewBox="0 0 485.0 91" xmlns="http://www.w3.org/2000/svg" xmlns:xlink="http://www.w3.org/1999/xlink">
<g transform="translate(.5 .5)">
<g>
<path d="M20 21v20m10 -20v20m-10 -10h20"></path></g><path d="M40 31h10"></path><g>
<path d="M50 31h0.0"></path><g>
<path d="M50.0 31h10.0"></path><path d="M425.0 31h10.0"></path><g class="terminal ">
<path d="M60.0 31h0.0"></path><path d="M233.0 31h0.0"></path><rect height="22" rx="10" ry="10" width="173.0" x="60.0" y="20"></rect><text x="146.5" y="35">PUBSUB SHARDNUMSUB</text></g><path d="M233.0 31h10"></path><g>
<path d="M243.0 31h0.0"></path><path d="M425.0 31h0.0"></path><path d="M243.0 31h20"></path><g>
<path d="M263.0 31h142.0"></path></g><path d="M405.0 31h20"></path><path d="M243.0 31a10 10 0 0 1 10 10v0a10 10 0 0 0 10 10"></path><g>
<path d="M263.0 51h0.0"></path><path d="M405.0 51h0.0"></path><path d="M263.0 51h10"></path><g class="non-terminal ">
<path d="M273.0 51h0.0"></path><path d="M395.0 51h0.0"></path><rect height="22" width="122.0" x="273.0" y="40"></rect><text x="334.0" y="55">shardchannel</text><title>string</title></g><path d="M395.0 51h10"></path><path d="M273.0 51a10 10 0 0 0 -10 10v0a10 10 0 0 0 10 10"></path><g>
<path d="M273.0 71h122.0"></path></g><path d="M395.0 71a10 10 0 0 0 10 -10v0a10 10 0 0 0 -10 -10"></path></g><path d="M405.0 51a10 10 0 0 0 10 -10v0a10 10 0 0 1 10 -10"></path></g></g><path d="M435.0 31h0.0"></path></g><path d="M435.0 31h10"></path><path d="M 445.0 31 h 20 m -10 -10 v 20 m 10 -20 v 20"></path></g></svg>