<svg class="railroad-diagram" viewBox="0 0 1060.0 627" xmlns="http://www.w3.org/2000/svg" xmlns:xlink="http://www.w3.org/1999/xlink">
<g transform="translate(.5 .5)">
<g>
<path d="M20 21v20m10 -20v20m-10 -10h20"></path></g><path d="M40 31h10"></path><g>
<path d="M50 31h0.0"></path><path d="M50.0 31h10"></path><g>
<path d="M60.0 31h178.0"></path><path d="M822.0 31h178.0"></path><g class="terminal ">
<path d="M238.0 31h0.0"></path><path d="M351.5 31h0.0"></path><rect height="22" rx="10" ry="10" width="113.5" x="238.0" y="20"></rect><text x="294.75" y="35">TS.REVRANGE</text></g><path d="M351.5 31h10"></path><path d="M361.5 31h10"></path><g class="non-terminal ">
<path d="M371.5 31h0.0"></path><path d="M417.0 31h0.0"></path><rect height="22" width="45.5" x="371.5" y="20"></rect><text x="394.25" y="35">key</text><title>key</title></g><path d="M417.0 31h10"></path><path d="M427.0 31h10"></path><g class="non-terminal ">
<path d="M437.0 31h0.0"></path><path d="M567.5 31h0.0"></path><rect height="22" width="130.5" x="437.0" y="20"></rect><text x="502.25" y="35">fromTimestamp</text><title>string</title></g><path d="M567.5 31h10"></path><path d="M577.5 31h10"></path><g class="non-terminal ">
<path d="M587.5 31h0.0"></path><path d="M701.0 31h0.0"></path><rect height="22" width="113.5" x="587.5" y="20"></rect><text x="644.25" y="35">toTimestamp</text><title>string</title></g><path d="M701.0 31h10"></path><g>
<path d="M711.0 31h0.0"></path><path d="M822.0 31h0.0"></path><path d="M711.0 31h20"></path><g>
<path d="M731.0 31h71.0"></path></g><path d="M802.0 31h20"></path><path d="M711.0 31a10 10 0 0 1 10 10v0a10 10 0 0 0 10 10"></path><g class="non-terminal ">
<path d="M731.0 51h0.0"></path><path d="M802.0 51h0.0"></path><rect height="22" width="71.0" x="731.0" y="40"></rect><text x="766.5" y="55">LATEST</text><title>string</title></g><path d="M802.0 51a10 10 0 0 0 10 -10v0a10 10 0 0 1 10 -10"></path></g></g><path d="M1000.0 31a10 10 0 0 1 10 10v19a10 10 0 0 1 -10 10h-940.0a10 10 0 0 0 -10 10v0a10 10 0 0 0 10 10"></path><g>
<path d="M60.0 90h232.5"></path><path d="M767.5 90h232.5"></path><g>
<path d="M292.5 90h0.0"></path><path d="M449.0 90h0.0"></path><path d="M292.5 90h20"></path><g>
<path d="M312.5 90h116.5"></path></g><path d="M429.0 90h20"></path><path d="M292.5 90a10 10 0 0 1 10 10v0a10 10 0 0 0 10 10"></path><g>
<path d="M312.5 110h0.0"></path><path d="M429.0 110h0.0"></path><path d="M312.5 110h10"></path><g class="non-terminal ">
<path d="M322.5 110h0.0"></path><path d="M419.0 110h0.0"></path><rect height="22" width="96.5" x="322.5" y="99"></rect><text x="370.75" y="114">Timestamp</text><title>integer</title></g><path d="M419.0 110h10"></path><path d="M322.5 110a10 10 0 0 0 -10 10v0a10 10 0 0 0 10 10"></path><g>
<path d="M322.5 130h96.5"></path></g><path d="M419.0 130a10 10 0 0 0 10 -10v0a10 10 0 0 0 -10 -10"></path></g><path d="M429.0 110a10 10 0 0 0 10 -10v0a10 10 0 0 1 10 -10"></path></g><g>
<path d="M449.0 90h0.0"></path><path d="M767.5 90h0.0"></path><path d="M449.0 90h20"></path><g>
<path d="M469.0 90h278.5"></path></g><path d="M747.5 90h20"></path><path d="M449.0 90a10 10 0 0 1 10 10v0a10 10 0 0 0 10 10"></path><g>
<path d="M469.0 110h0.0"></path><path d="M747.5 110h0.0"></path><g class="terminal ">
<path d="M469.0 110h0.0"></path><path d="M616.5 110h0.0"></path><rect height="22" rx="10" ry="10" width="147.5" x="469.0" y="99"></rect><text x="542.75" y="114">FILTER&#95;BY&#95;VALUE</text></g><path d="M616.5 110h10"></path><path d="M626.5 110h10"></path><g class="non-terminal ">
<path d="M636.5 110h0.0"></path><path d="M682.0 110h0.0"></path><rect height="22" width="45.5" x="636.5" y="99"></rect><text x="659.25" y="114">min</text><title>double</title></g><path d="M682.0 110h10"></path><path d="M692.0 110h10"></path><g class="non-terminal ">
<path d="M702.0 110h0.0"></path><path d="M747.5 110h0.0"></path><rect height="22" width="45.5" x="702.0" y="99"></rect><text x="724.75" y="114">max</text><title>double</title></g></g><path d="M747.5 110a10 10 0 0 0 10 -10v0a10 10 0 0 1 10 -10"></path></g></g><path d="M1000.0 90a10 10 0 0 1 10 10v28a10 10 0 0 1 -10 10h-940.0a10 10 0 0 0 -10 10v0a10 10 0 0 0 10 10"></path><g>
<path d="M60.0 158h377.5"></path><path d="M622.5 158h377.5"></path><g>
<path d="M437.5 158h0.0"></path><path d="M622.5 158h0.0"></path><path d="M437.5 158h20"></path><g>
<path d="M457.5 158h145.0"></path></g><path d="M602.5 158h20"></path><path d="M437.5 158a10 10 0 0 1 10 10v0a10 10 0 0 0 10 10"></path><g>
<path d="M457.5 178h0.0"></path><path d="M602.5 178h0.0"></path><g class="terminal ">
<path d="M457.5 178h0.0"></path><path d="M520.0 178h0.0"></path><rect height="22" rx="10" ry="10" width="62.5" x="457.5" y="167"></rect><text x="488.75" y="182">COUNT</text></g><path d="M520.0 178h10"></path><path d="M530.0 178h10"></path><g class="non-terminal ">
<path d="M540.0 178h0.0"></path><path d="M602.5 178h0.0"></path><rect height="22" width="62.5" x="540.0" y="167"></rect><text x="571.25" y="182">count</text><title>integer</title></g></g><path d="M602.5 178a10 10 0 0 0 10 -10v0a10 10 0 0 1 10 -10"></path></g></g><path d="M1000.0 158a10 10 0 0 1 10 10v19a10 10 0 0 1 -10 10h-940.0a10 10 0 0 0 -10 10v0a10 10 0 0 0 10 10"></path><g>
<path d="M60.0 217h10.0"></path><path d="M990.0 217h10.0"></path><g>
<path d="M70.0 217h0.0"></path><path d="M990.0 217h0.0"></path><path d="M70.0 217h20"></path><g>
<path d="M90.0 217h880.0"></path></g><path d="M970.0 217h20"></path><path d="M70.0 217a10 10 0 0 1 10 10v179a10 10 0 0 0 10 10"></path><g>
<path d="M90.0 416h0.0"></path><path d="M970.0 416h0.0"></path><g>
<path d="M90.0 416h0.0"></path><path d="M275.0 416h0.0"></path><path d="M90.0 416h20"></path><g>
<path d="M110.0 416h145.0"></path></g><path d="M255.0 416h20"></path><path d="M90.0 416a10 10 0 0 1 10 10v0a10 10 0 0 0 10 10"></path><g>
<path d="M110.0 436h0.0"></path><path d="M255.0 436h0.0"></path><g class="terminal ">
<path d="M110.0 436h0.0"></path><path d="M172.5 436h0.0"></path><rect height="22" rx="10" ry="10" width="62.5" x="110.0" y="425"></rect><text x="141.25" y="440">ALIGN</text></g><path d="M172.5 436h10"></path><path d="M182.5 436h10"></path><g class="non-terminal ">
<path d="M192.5 436h0.0"></path><path d="M255.0 436h0.0"></path><rect height="22" width="62.5" x="192.5" y="425"></rect><text x="223.75" y="440">value</text><title>integer</title></g></g><path d="M255.0 436a10 10 0 0 0 10 -10v0a10 10 0 0 1 10 -10"></path></g><path d="M275.0 416h10"></path><g>
<path d="M285.0 416h0.0"></path><path d="M511.0 416h0.0"></path><g class="terminal ">
<path d="M285.0 416h0.0"></path><path d="M398.5 416h0.0"></path><rect height="22" rx="10" ry="10" width="113.5" x="285.0" y="405"></rect><text x="341.75" y="420">AGGREGATION</text></g><path d="M398.5 416h10"></path><g>
<path d="M408.5 416h0.0"></path><path d="M511.0 416h0.0"></path><path d="M408.5 416a10 10 0 0 0 10 -10v-10a10 10 0 0 1 10 -10"></path><g class="terminal ">
<path d="M428.5 386h8.5"></path><path d="M482.5 386h8.5"></path><rect height="22" rx="10" ry="10" width="45.5" x="437.0" y="375"></rect><text x="459.75" y="390">SUM</text></g><path d="M491.0 386a10 10 0 0 1 10 10v10a10 10 0 0 0 10 10"></path><path d="M408.5 416a10 10 0 0 0 10 -10v-40a10 10 0 0 1 10 -10"></path><g class="terminal ">
<path d="M428.5 356h8.5"></path><path d="M482.5 356h8.5"></path><rect height="22" rx="10" ry="10" width="45.5" x="437.0" y="345"></rect><text x="459.75" y="360">MAX</text></g><path d="M491.0 356a10 10 0 0 1 10 10v40a10 10 0 0 0 10 10"></path><path d="M408.5 416a10 10 0 0 0 10 -10v-70a10 10 0 0 1 10 -10"></path><g class="terminal ">
<path d="M428.5 326h8.5"></path><path d="M482.5 326h8.5"></path><rect height="22" rx="10" ry="10" width="45.5" x="437.0" y="315"></rect><text x="459.75" y="330">MIN</text></g><path d="M491.0 326a10 10 0 0 1 10 10v70a10 10 0 0 0 10 10"></path><path d="M408.5 416a10 10 0 0 0 10 -10v-100a10 10 0 0 1 10 -10"></path><g class="terminal ">
<path d="M428.5 296h4.25"></path><path d="M486.75 296h4.25"></path><rect height="22" rx="10" ry="10" width="54.0" x="432.75" y="285"></rect><text x="459.75" y="300">LAST</text></g><path d="M491.0 296a10 10 0 0 1 10 10v100a10 10 0 0 0 10 10"></path><path d="M408.5 416a10 10 0 0 0 10 -10v-130a10 10 0 0 1 10 -10"></path><g class="terminal ">
<path d="M428.5 266h0.0"></path><path d="M491.0 266h0.0"></path><rect height="22" rx="10" ry="10" width="62.5" x="428.5" y="255"></rect><text x="459.75" y="270">FIRST</text></g><path d="M491.0 266a10 10 0 0 1 10 10v130a10 10 0 0 0 10 10"></path><path d="M408.5 416a10 10 0 0 0 10 -10v-160a10 10 0 0 1 10 -10"></path><g class="terminal ">
<path d="M428.5 236h8.5"></path><path d="M482.5 236h8.5"></path><rect height="22" rx="10" ry="10" width="45.5" x="437.0" y="225"></rect><text x="459.75" y="240">AVG</text></g><path d="M491.0 236a10 10 0 0 1 10 10v160a10 10 0 0 0 10 10"></path><path d="M408.5 416h20"></path><g class="terminal ">
<path d="M428.5 416h0.0"></path><path d="M491.0 416h0.0"></path><rect height="22" rx="10" ry="10" width="62.5" x="428.5" y="405"></rect><text x="459.75" y="420">RANGE</text></g><path d="M491.0 416h20"></path><path d="M408.5 416a10 10 0 0 1 10 10v10a10 10 0 0 0 10 10"></path><g class="terminal ">
<path d="M428.5 446h0.0"></path><path d="M491.0 446h0.0"></path><rect height="22" rx="10" ry="10" width="62.5" x="428.5" y="435"></rect><text x="459.75" y="450">COUNT</text></g><path d="M491.0 446a10 10 0 0 0 10 -10v-10a10 10 0 0 1 10 -10"></path><path d="M408.5 416a10 10 0 0 1 10 10v40a10 10 0 0 0 10 10"></path><g class="terminal ">
<path d="M428.5 476h0.0"></path><path d="M491.0 476h0.0"></path><rect height="22" rx="10" ry="10" width="62.5" x="428.5" y="465"></rect><text x="459.75" y="480">STD.P</text></g><path d="M491.0 476a10 10 0 0 0 10 -10v-40a10 10 0 0 1 10 -10"></path><path d="M408.5 416a10 10 0 0 1 10 10v70a10 10 0 0 0 10 10"></path><g class="terminal ">
<path d="M428.5 506h0.0"></path><path d="M491.0 506h0.0"></path><rect height="22" rx="10" ry="10" width="62.5" x="428.5" y="495"></rect><text x="459.75" y="510">STD.S</text></g><path d="M491.0 506a10 10 0 0 0 10 -10v-70a10 10 0 0 1 10 -10"></path><path d="M408.5 416a10 10 0 0 1 10 10v100a10 10 0 0 0 10 10"></path><g class="terminal ">
<path d="M428.5 536h0.0"></path><path d="M491.0 536h0.0"></path><rect height="22" rx="10" ry="10" width="62.5" x="428.5" y="525"></rect><text x="459.75" y="540">VAR.P</text></g><path d="M491.0 536a10 10 0 0 0 10 -10v-100a10 10 0 0 1 10 -10"></path><path d="M408.5 416a10 10 0 0 1 10 10v130a10 10 0 0 0 10 10"></path><g class="terminal ">
<path d="M428.5 566h0.0"></path><path d="M491.0 566h0.0"></path><rect height="22" rx="10" ry="10" width="62.5" x="428.5" y="555"></rect><text x="459.75" y="570">VAR.S</text></g><path d="M491.0 566a10 10 0 0 0 10 -10v-130a10 10 0 0 1 10 -10"></path><path d="M408.5 416a10 10 0 0 1 10 10v160a10 10 0 0 0 10 10"></path><g class="terminal ">
<path d="M428.5 596h8.5"></path><path d="M482.5 596h8.5"></path><rect height="22" rx="10" ry="10" width="45.5" x="437.0" y="585"></rect><text x="459.75" y="600">TWA</text></g><path d="M491.0 596a10 10 0 0 0 10 -10v-160a10 10 0 0 1 10 -10"></path></g></g><path d="M511.0 416h10"></path><path d="M521.0 416h10"></path><g class="non-terminal ">
<path d="M531.0 416h0.0"></path><path d="M670.0 416h0.0"></path><rect height="22" width="139.0" x="531.0" y="405"></rect><text x="600.5" y="420">bucketDuration</text><title>integer</title></g><path d="M670.0 416h10"></path><g>
<path d="M680.0 416h0.0"></path><path d="M867.5 416h0.0"></path><path d="M680.0 416h20"></path><g>
<path d="M700.0 416h147.5"></path></g><path d="M847.5 416h20"></path><path d="M680.0 416a10 10 0 0 1 10 10v0a10 10 0 0 0 10 10"></path><g class="terminal ">
<path d="M700.0 436h0.0"></path><path d="M847.5 436h0.0"></path><rect height="22" rx="10" ry="10" width="147.5" x="700.0" y="425"></rect><text x="773.75" y="440">BUCKETTIMESTAMP</text></g><path d="M847.5 436a10 10 0 0 0 10 -10v0a10 10 0 0 1 10 -10"></path></g><g>
<path d="M867.5 416h0.0"></path><path d="M970.0 416h0.0"></path><path d="M867.5 416h20"></path><g>
<path d="M887.5 416h62.5"></path></g><path d="M950.0 416h20"></path><path d="M867.5 416a10 10 0 0 1 10 10v0a10 10 0 0 0 10 10"></path><g class="terminal ">
<path d="M887.5 436h0.0"></path><path d="M950.0 436h0.0"></path><rect height="22" rx="10" ry="10" width="62.5" x="887.5" y="425"></rect><text x="918.75" y="440">EMPTY</text></g><path d="M950.0 436a10 10 0 0 0 10 -10v0a10 10 0 0 1 10 -10"></path></g></g><path d="M970.0 416a10 10 0 0 0 10 -10v-179a10 10 0 0 1 10 -10"></path></g></g><path d="M1000.0 217h10"></path><path d="M1010.0 217h0.0"></path></g><path d="M1010.0 217h10"></path><path d="M 1020.0 217 h 20 m -10 -10 v 20 m 10 -20 v 20"></path></g></svg>