<svg class="railroad-diagram" viewBox="0 0 604.0 200" xmlns="http://www.w3.org/2000/svg" xmlns:xlink="http://www.w3.org/1999/xlink">
<g transform="translate(.5 .5)">
<g>
<path d="M20 51v20m10 -20v20m-10 -10h20"></path></g><path d="M40 61h10"></path><g>
<path d="M50 61h0.0"></path><path d="M50.0 61h10"></path><g>
<path d="M60.0 61h10.0"></path><path d="M534.0 61h10.0"></path><g class="terminal ">
<path d="M70.0 61h0.0"></path><path d="M132.5 61h0.0"></path><rect height="22" rx="10" ry="10" width="62.5" x="70.0" y="50"></rect><text x="101.25" y="65">XTRIM</text></g><path d="M132.5 61h10"></path><path d="M142.5 61h10"></path><g class="non-terminal ">
<path d="M152.5 61h0.0"></path><path d="M198.0 61h0.0"></path><rect height="22" width="45.5" x="152.5" y="50"></rect><text x="175.25" y="65">key</text><title>key</title></g><path d="M198.0 61h10"></path><g>
<path d="M208.0 61h0.0"></path><path d="M319.0 61h0.0"></path><path d="M208.0 61a10 10 0 0 0 10 -10v-10a10 10 0 0 1 10 -10"></path><g class="terminal ">
<path d="M228.0 31h0.0"></path><path d="M299.0 31h0.0"></path><rect height="22" rx="10" ry="10" width="71.0" x="228.0" y="20"></rect><text x="263.5" y="35">MAXLEN</text></g><path d="M299.0 31a10 10 0 0 1 10 10v10a10 10 0 0 0 10 10"></path><path d="M208.0 61h20"></path><g class="terminal ">
<path d="M228.0 61h4.25"></path><path d="M294.75 61h4.25"></path><rect height="22" rx="10" ry="10" width="62.5" x="232.25" y="50"></rect><text x="263.5" y="65">MINID</text></g><path d="M299.0 61h20"></path></g><g>
<path d="M319.0 61h0.0"></path><path d="M427.5 61h0.0"></path><path d="M319.0 61h20"></path><g>
<path d="M339.0 61h68.5"></path></g><path d="M407.5 61h20"></path><path d="M319.0 61a10 10 0 0 1 10 10v29a10 10 0 0 0 10 10"></path><g>
<path d="M339.0 110h0.0"></path><path d="M407.5 110h0.0"></path><path d="M339.0 110a10 10 0 0 0 10 -10v-10a10 10 0 0 1 10 -10"></path><g class="terminal ">
<path d="M359.0 80h0.0"></path><path d="M387.5 80h0.0"></path><rect height="22" rx="10" ry="10" width="28.5" x="359.0" y="69"></rect><text x="373.25" y="84">=</text></g><path d="M387.5 80a10 10 0 0 1 10 10v10a10 10 0 0 0 10 10"></path><path d="M339.0 110h20"></path><g class="terminal ">
<path d="M359.0 110h0.0"></path><path d="M387.5 110h0.0"></path><rect height="22" rx="10" ry="10" width="28.5" x="359.0" y="99"></rect><text x="373.25" y="114">~</text></g><path d="M387.5 110h20"></path></g><path d="M407.5 110a10 10 0 0 0 10 -10v-29a10 10 0 0 1 10 -10"></path></g><path d="M427.5 61h10"></path><g class="non-terminal ">
<path d="M437.5 61h0.0"></path><path d="M534.0 61h0.0"></path><rect height="22" width="96.5" x="437.5" y="50"></rect><text x="485.75" y="65">threshold</text><title>string</title></g></g><path d="M544.0 61a10 10 0 0 1 10 10v48a10 10 0 0 1 -10 10h-484.0a10 10 0 0 0 -10 10v0a10 10 0 0 0 10 10"></path><g>
<path d="M60.0 149h149.5"></path><path d="M394.5 149h149.5"></path><g>
<path d="M209.5 149h0.0"></path><path d="M394.5 149h0.0"></path><path d="M209.5 149h20"></path><g>
<path d="M229.5 149h145.0"></path></g><path d="M374.5 149h20"></path><path d="M209.5 149a10 10 0 0 1 10 10v0a10 10 0 0 0 10 10"></path><g>
<path d="M229.5 169h0.0"></path><path d="M374.5 169h0.0"></path><g class="terminal ">
<path d="M229.5 169h0.0"></path><path d="M292.0 169h0.0"></path><rect height="22" rx="10" ry="10" width="62.5" x="229.5" y="158"></rect><text x="260.75" y="173">LIMIT</text></g><path d="M292.0 169h10"></path><path d="M302.0 169h10"></path><g class="non-terminal ">
<path d="M312.0 169h0.0"></path><path d="M374.5 169h0.0"></path><rect height="22" width="62.5" x="312.0" y="158"></rect><text x="343.25" y="173">count</text><title>integer</title></g></g><path d="M374.5 169a10 10 0 0 0 10 -10v0a10 10 0 0 1 10 -10"></path></g></g><path d="M544.0 149h10"></path><path d="M554.0 149h0.0"></path></g><path d="M554.0 149h10"></path><path d="M 564.0 149 h 20 m -10 -10 v 20 m 10 -20 v 20"></path></g></svg>