<svg class="railroad-diagram" viewBox="0 0 571.5 71" xmlns="http://www.w3.org/2000/svg" xmlns:xlink="http://www.w3.org/1999/xlink">
<g transform="translate(.5 .5)">
<g>
<path d="M20 21v20m10 -20v20m-10 -10h20"></path></g><path d="M40 31h10"></path><g>
<path d="M50 31h0.0"></path><g>
<path d="M50.0 31h10.0"></path><path d="M511.5 31h10.0"></path><g class="terminal ">
<path d="M60.0 31h0.0"></path><path d="M258.5 31h0.0"></path><rect height="22" rx="10" ry="10" width="198.5" x="60.0" y="20"></rect><text x="159.25" y="35">CLUSTER DELSLOTSRANGE</text></g><path d="M258.5 31h10"></path><path d="M268.5 31h10"></path><g>
<path d="M278.5 31h0.0"></path><path d="M511.5 31h0.0"></path><path d="M278.5 31h10"></path><g>
<path d="M288.5 31h0.0"></path><path d="M501.5 31h0.0"></path><g class="non-terminal ">
<path d="M288.5 31h0.0"></path><path d="M393.5 31h0.0"></path><rect height="22" width="105.0" x="288.5" y="20"></rect><text x="341.0" y="35">start-slot</text><title>integer</title></g><path d="M393.5 31h10"></path><path d="M403.5 31h10"></path><g class="non-terminal ">
<path d="M413.5 31h0.0"></path><path d="M501.5 31h0.0"></path><rect height="22" width="88.0" x="413.5" y="20"></rect><text x="457.5" y="35">end-slot</text><title>integer</title></g></g><path d="M501.5 31h10"></path><path d="M288.5 31a10 10 0 0 0 -10 10v0a10 10 0 0 0 10 10"></path><g>
<path d="M288.5 51h213.0"></path></g><path d="M501.5 51a10 10 0 0 0 10 -10v0a10 10 0 0 0 -10 -10"></path></g></g><path d="M521.5 31h0.0"></path></g><path d="M521.5 31h10"></path><path d="M 531.5 31 h 20 m -10 -10 v 20 m 10 -20 v 20"></path></g></svg>