<svg class="railroad-diagram" viewBox="0 0 715.5 141" xmlns="http://www.w3.org/2000/svg" xmlns:xlink="http://www.w3.org/1999/xlink">
<g transform="translate(.5 .5)">
<g>
<path d="M20 21v20m10 -20v20m-10 -10h20"></path></g><path d="M40 31h10"></path><g>
<path d="M50 31h0.0"></path><path d="M50.0 31h10"></path><g>
<path d="M60.0 31h10.0"></path><path d="M645.5 31h10.0"></path><g class="terminal ">
<path d="M70.0 31h0.0"></path><path d="M209.0 31h0.0"></path><rect height="22" rx="10" ry="10" width="139.0" x="70.0" y="20"></rect><text x="139.5" y="35">RESTORE-ASKING</text></g><path d="M209.0 31h10"></path><path d="M219.0 31h10"></path><g class="non-terminal ">
<path d="M229.0 31h0.0"></path><path d="M274.5 31h0.0"></path><rect height="22" width="45.5" x="229.0" y="20"></rect><text x="251.75" y="35">key</text><title>key</title></g><path d="M274.5 31h10"></path><path d="M284.5 31h10"></path><g class="non-terminal ">
<path d="M294.5 31h0.0"></path><path d="M340.0 31h0.0"></path><rect height="22" width="45.5" x="294.5" y="20"></rect><text x="317.25" y="35">ttl</text><title>integer</title></g><path d="M340.0 31h10"></path><path d="M350.0 31h10"></path><g class="non-terminal ">
<path d="M360.0 31h0.0"></path><path d="M516.0 31h0.0"></path><rect height="22" width="156.0" x="360.0" y="20"></rect><text x="438.0" y="35">serialized-value</text><title>string</title></g><path d="M516.0 31h10"></path><g>
<path d="M526.0 31h0.0"></path><path d="M645.5 31h0.0"></path><path d="M526.0 31h20"></path><g>
<path d="M546.0 31h79.5"></path></g><path d="M625.5 31h20"></path><path d="M526.0 31a10 10 0 0 1 10 10v0a10 10 0 0 0 10 10"></path><g class="terminal ">
<path d="M546.0 51h0.0"></path><path d="M625.5 51h0.0"></path><rect height="22" rx="10" ry="10" width="79.5" x="546.0" y="40"></rect><text x="585.75" y="55">REPLACE</text></g><path d="M625.5 51a10 10 0 0 0 10 -10v0a10 10 0 0 1 10 -10"></path></g></g><path d="M655.5 31a10 10 0 0 1 10 10v19a10 10 0 0 1 -10 10h-595.5a10 10 0 0 0 -10 10v0a10 10 0 0 0 10 10"></path><g>
<path d="M60.0 90h23.25"></path><path d="M632.25 90h23.25"></path><g>
<path d="M83.25 90h0.0"></path><path d="M194.25 90h0.0"></path><path d="M83.25 90h20"></path><g>
<path d="M103.25 90h71.0"></path></g><path d="M174.25 90h20"></path><path d="M83.25 90a10 10 0 0 1 10 10v0a10 10 0 0 0 10 10"></path><g class="terminal ">
<path d="M103.25 110h0.0"></path><path d="M174.25 110h0.0"></path><rect height="22" rx="10" ry="10" width="71.0" x="103.25" y="99"></rect><text x="138.75" y="114">ABSTTL</text></g><path d="M174.25 110a10 10 0 0 0 10 -10v0a10 10 0 0 1 10 -10"></path></g><g>
<path d="M194.25 90h0.0"></path><path d="M421.75 90h0.0"></path><path d="M194.25 90h20"></path><g>
<path d="M214.25 90h187.5"></path></g><path d="M401.75 90h20"></path><path d="M194.25 90a10 10 0 0 1 10 10v0a10 10 0 0 0 10 10"></path><g>
<path d="M214.25 110h0.0"></path><path d="M401.75 110h0.0"></path><g class="terminal ">
<path d="M214.25 110h0.0"></path><path d="M302.25 110h0.0"></path><rect height="22" rx="10" ry="10" width="88.0" x="214.25" y="99"></rect><text x="258.25" y="114">IDLETIME</text></g><path d="M302.25 110h10"></path><path d="M312.25 110h10"></path><g class="non-terminal ">
<path d="M322.25 110h0.0"></path><path d="M401.75 110h0.0"></path><rect height="22" width="79.5" x="322.25" y="99"></rect><text x="362.0" y="114">seconds</text><title>integer</title></g></g><path d="M401.75 110a10 10 0 0 0 10 -10v0a10 10 0 0 1 10 -10"></path></g><g>
<path d="M421.75 90h0.0"></path><path d="M632.25 90h0.0"></path><path d="M421.75 90h20"></path><g>
<path d="M441.75 90h170.5"></path></g><path d="M612.25 90h20"></path><path d="M421.75 90a10 10 0 0 1 10 10v0a10 10 0 0 0 10 10"></path><g>
<path d="M441.75 110h0.0"></path><path d="M612.25 110h0.0"></path><g class="terminal ">
<path d="M441.75 110h0.0"></path><path d="M495.75 110h0.0"></path><rect height="22" rx="10" ry="10" width="54.0" x="441.75" y="99"></rect><text x="468.75" y="114">FREQ</text></g><path d="M495.75 110h10"></path><path d="M505.75 110h10"></path><g class="non-terminal ">
<path d="M515.75 110h0.0"></path><path d="M612.25 110h0.0"></path><rect height="22" width="96.5" x="515.75" y="99"></rect><text x="564.0" y="114">frequency</text><title>integer</title></g></g><path d="M612.25 110a10 10 0 0 0 10 -10v0a10 10 0 0 1 10 -10"></path></g></g><path d="M655.5 90h10"></path><path d="M665.5 90h0.0"></path></g><path d="M665.5 90h10"></path><path d="M 675.5 90 h 20 m -10 -10 v 20 m 10 -20 v 20"></path></g></svg>