<svg class="railroad-diagram" viewBox="0 0 424.0 62" xmlns="http://www.w3.org/2000/svg" xmlns:xlink="http://www.w3.org/1999/xlink">
<g transform="translate(.5 .5)">
<g>
<path d="M20 21v20m10 -20v20m-10 -10h20"></path></g><path d="M40 31h10"></path><g>
<path d="M50 31h0.0"></path><g>
<path d="M50.0 31h10.0"></path><path d="M364.0 31h10.0"></path><g class="terminal ">
<path d="M60.0 31h0.0"></path><path d="M199.0 31h0.0"></path><rect height="22" rx="10" ry="10" width="139.0" x="60.0" y="20"></rect><text x="129.5" y="35">FT.ALIASUPDATE</text></g><path d="M199.0 31h10"></path><path d="M209.0 31h10"></path><g class="non-terminal ">
<path d="M219.0 31h0.0"></path><path d="M281.5 31h0.0"></path><rect height="22" width="62.5" x="219.0" y="20"></rect><text x="250.25" y="35">alias</text><title>string</title></g><path d="M281.5 31h10"></path><path d="M291.5 31h10"></path><g class="non-terminal ">
<path d="M301.5 31h0.0"></path><path d="M364.0 31h0.0"></path><rect height="22" width="62.5" x="301.5" y="20"></rect><text x="332.75" y="35">index</text><title>string</title></g></g><path d="M374.0 31h0.0"></path></g><path d="M374.0 31h10"></path><path d="M 384.0 31 h 20 m -10 -10 v 20 m 10 -20 v 20"></path></g></svg>