<?xml version="1.0" standalone="no"?>
<!DOCTYPE svg PUBLIC "-//W3C//DTD SVG 20010904//EN"
 "http://www.w3.org/TR/2001/REC-SVG-20010904/DTD/svg10.dtd">
<svg version="1.0" xmlns="http://www.w3.org/2000/svg"
 width="192.000000pt" height="192.000000pt" viewBox="0 0 192.000000 192.000000"
 preserveAspectRatio="xMidYMid meet">
<metadata>
Created by potrace 1.14, written by Peter Selinger 2001-2017
</metadata>
<g transform="translate(0.000000,192.000000) scale(0.100000,-0.100000)"
fill="#000000" stroke="none">
<path d="M945 1913 c-24 -6 -215 -89 -332 -144 -46 -22 -85 -39 -87 -39 -3 0
-52 -22 -110 -50 -58 -27 -107 -50 -110 -50 -3 0 -51 -22 -108 -49 -57 -27
-112 -51 -124 -55 -11 -3 -30 -15 -42 -27 -21 -18 -22 -29 -22 -154 l0 -135
40 -29 39 -28 -37 -24 -37 -24 -3 -137 -3 -137 35 -27 34 -28 -31 -16 -32 -17
-3 -138 c-2 -120 0 -140 15 -158 10 -11 133 -76 273 -144 140 -69 332 -162
425 -208 94 -46 182 -86 197 -89 39 -9 116 11 164 42 22 15 197 106 388 202
191 96 368 191 394 210 l47 36 3 132 3 132 -36 21 c-19 12 -35 24 -35 27 0 4
16 20 35 35 l35 28 0 130 0 129 -32 20 c-18 11 -37 22 -43 24 -5 2 9 20 33 41
l42 37 0 128 c0 127 0 129 -26 149 -15 12 -31 21 -36 21 -4 0 -45 18 -91 39
-45 21 -138 65 -207 96 -69 31 -156 72 -195 90 -38 18 -99 45 -135 60 -36 15
-74 33 -86 40 -50 32 -147 50 -199 38z m-13 -144 l61 -31 60 26 c33 14 62 24
64 23 2 -2 -4 -23 -12 -47 -8 -24 -14 -44 -13 -45 2 -2 30 -16 63 -33 l60 -30
-70 -7 c-90 -8 -93 -10 -105 -40 -6 -14 -15 -37 -21 -52 l-10 -28 -32 60 -32
60 -75 7 c-121 12 -118 11 -69 35 24 12 56 26 72 32 l28 11 -21 39 c-31 62
-32 62 52 20z m-258 -204 c129 -27 175 -94 101 -150 -47 -37 -115 -55 -199
-55 -92 1 -152 15 -199 47 -66 46 -59 100 19 134 88 39 172 47 278 24z m452
-222 c-16 -40 -122 -212 -131 -212 -5 0 -77 33 -160 73 l-149 74 74 16 c58 13
316 59 364 65 4 1 5 -7 2 -16z"/>
</g>
</svg>
