<svg class="railroad-diagram" viewBox="0 0 720.0 219" xmlns="http://www.w3.org/2000/svg" xmlns:xlink="http://www.w3.org/1999/xlink">
<g transform="translate(.5 .5)">
<g>
<path d="M20 21v20m10 -20v20m-10 -10h20"></path></g><path d="M40 31h10"></path><g>
<path d="M50 31h0.0"></path><path d="M50.0 31h10"></path><g>
<path d="M60.0 31h10.0"></path><path d="M650.0 31h10.0"></path><g class="terminal ">
<path d="M70.0 31h0.0"></path><path d="M166.5 31h0.0"></path><rect height="22" rx="10" ry="10" width="96.5" x="70.0" y="20"></rect><text x="118.25" y="35">HEXPIREAT</text></g><path d="M166.5 31h10"></path><path d="M176.5 31h10"></path><g class="non-terminal ">
<path d="M186.5 31h0.0"></path><path d="M232.0 31h0.0"></path><rect height="22" width="45.5" x="186.5" y="20"></rect><text x="209.25" y="35">key</text><title>key</title></g><path d="M232.0 31h10"></path><path d="M242.0 31h10"></path><g class="non-terminal ">
<path d="M252.0 31h0.0"></path><path d="M416.5 31h0.0"></path><rect height="22" width="164.5" x="252.0" y="20"></rect><text x="334.25" y="35">unix-time-seconds</text><title>unix-time</title></g><path d="M416.5 31h10"></path><g>
<path d="M426.5 31h0.0"></path><path d="M543.5 31h0.0"></path><path d="M426.5 31h20"></path><g>
<path d="M446.5 31h77.0"></path></g><path d="M523.5 31h20"></path><path d="M426.5 31a10 10 0 0 1 10 10v59a10 10 0 0 0 10 10"></path><g>
<path d="M446.5 110h0.0"></path><path d="M523.5 110h0.0"></path><path d="M446.5 110a10 10 0 0 0 10 -10v-10a10 10 0 0 1 10 -10"></path><g class="terminal ">
<path d="M466.5 80h0.0"></path><path d="M503.5 80h0.0"></path><rect height="22" rx="10" ry="10" width="37.0" x="466.5" y="69"></rect><text x="485.0" y="84">XX</text></g><path d="M503.5 80a10 10 0 0 1 10 10v10a10 10 0 0 0 10 10"></path><path d="M446.5 110a10 10 0 0 0 10 -10v-40a10 10 0 0 1 10 -10"></path><g class="terminal ">
<path d="M466.5 50h0.0"></path><path d="M503.5 50h0.0"></path><rect height="22" rx="10" ry="10" width="37.0" x="466.5" y="39"></rect><text x="485.0" y="54">NX</text></g><path d="M503.5 50a10 10 0 0 1 10 10v40a10 10 0 0 0 10 10"></path><path d="M446.5 110h20"></path><g class="terminal ">
<path d="M466.5 110h0.0"></path><path d="M503.5 110h0.0"></path><rect height="22" rx="10" ry="10" width="37.0" x="466.5" y="99"></rect><text x="485.0" y="114">GT</text></g><path d="M503.5 110h20"></path><path d="M446.5 110a10 10 0 0 1 10 10v10a10 10 0 0 0 10 10"></path><g class="terminal ">
<path d="M466.5 140h0.0"></path><path d="M503.5 140h0.0"></path><rect height="22" rx="10" ry="10" width="37.0" x="466.5" y="129"></rect><text x="485.0" y="144">LT</text></g><path d="M503.5 140a10 10 0 0 0 10 -10v-10a10 10 0 0 1 10 -10"></path></g><path d="M523.5 110a10 10 0 0 0 10 -10v-59a10 10 0 0 1 10 -10"></path></g><path d="M543.5 31h10"></path><g class="non-terminal ">
<path d="M553.5 31h0.0"></path><path d="M650.0 31h0.0"></path><rect height="22" width="96.5" x="553.5" y="20"></rect><text x="601.75" y="35">numfields</text><title>integer</title></g></g><path d="M660.0 31a10 10 0 0 1 10 10v108a10 10 0 0 1 -10 10h-600.0a10 10 0 0 0 -10 10v0a10 10 0 0 0 10 10"></path><g>
<path d="M60.0 179h258.75"></path><path d="M401.25 179h258.75"></path><g>
<path d="M318.75 179h0.0"></path><path d="M401.25 179h0.0"></path><path d="M318.75 179h10"></path><g class="non-terminal ">
<path d="M328.75 179h0.0"></path><path d="M391.25 179h0.0"></path><rect height="22" width="62.5" x="328.75" y="168"></rect><text x="360.0" y="183">field</text><title>string</title></g><path d="M391.25 179h10"></path><path d="M328.75 179a10 10 0 0 0 -10 10v0a10 10 0 0 0 10 10"></path><g>
<path d="M328.75 199h62.5"></path></g><path d="M391.25 199a10 10 0 0 0 10 -10v0a10 10 0 0 0 -10 -10"></path></g></g><path d="M660.0 179h10"></path><path d="M670.0 179h0.0"></path></g><path d="M670.0 179h10"></path><path d="M 680.0 179 h 20 m -10 -10 v 20 m 10 -20 v 20"></path></g></svg>