<svg class="railroad-diagram" viewBox="0 0 595.5 131" xmlns="http://www.w3.org/2000/svg" xmlns:xlink="http://www.w3.org/1999/xlink">
<g transform="translate(.5 .5)">
<g>
<path d="M20 21v20m10 -20v20m-10 -10h20"></path></g><path d="M40 31h10"></path><g>
<path d="M50 31h0.0"></path><g>
<path d="M50.0 31h10.0"></path><path d="M535.5 31h10.0"></path><g class="terminal ">
<path d="M60.0 31h0.0"></path><path d="M148.0 31h0.0"></path><rect height="22" rx="10" ry="10" width="88.0" x="60.0" y="20"></rect><text x="104.0" y="35">BITCOUNT</text></g><path d="M148.0 31h10"></path><path d="M158.0 31h10"></path><g class="non-terminal ">
<path d="M168.0 31h0.0"></path><path d="M213.5 31h0.0"></path><rect height="22" width="45.5" x="168.0" y="20"></rect><text x="190.75" y="35">key</text><title>key</title></g><path d="M213.5 31h10"></path><g>
<path d="M223.5 31h0.0"></path><path d="M535.5 31h0.0"></path><path d="M223.5 31h20"></path><g>
<path d="M243.5 31h272.0"></path></g><path d="M515.5 31h20"></path><path d="M223.5 31a10 10 0 0 1 10 10v0a10 10 0 0 0 10 10"></path><g>
<path d="M243.5 51h0.0"></path><path d="M515.5 51h0.0"></path><g class="non-terminal ">
<path d="M243.5 51h0.0"></path><path d="M306.0 51h0.0"></path><rect height="22" width="62.5" x="243.5" y="40"></rect><text x="274.75" y="55">start</text><title>integer</title></g><path d="M306.0 51h10"></path><path d="M316.0 51h10"></path><g class="non-terminal ">
<path d="M326.0 51h0.0"></path><path d="M371.5 51h0.0"></path><rect height="22" width="45.5" x="326.0" y="40"></rect><text x="348.75" y="55">end</text><title>integer</title></g><path d="M371.5 51h10"></path><g>
<path d="M381.5 51h0.0"></path><path d="M515.5 51h0.0"></path><path d="M381.5 51h20"></path><g>
<path d="M401.5 51h94.0"></path></g><path d="M495.5 51h20"></path><path d="M381.5 51a10 10 0 0 1 10 10v29a10 10 0 0 0 10 10"></path><g>
<path d="M401.5 100h0.0"></path><path d="M495.5 100h0.0"></path><path d="M401.5 100a10 10 0 0 0 10 -10v-10a10 10 0 0 1 10 -10"></path><g class="terminal ">
<path d="M421.5 70h0.0"></path><path d="M475.5 70h0.0"></path><rect height="22" rx="10" ry="10" width="54.0" x="421.5" y="59"></rect><text x="448.5" y="74">BYTE</text></g><path d="M475.5 70a10 10 0 0 1 10 10v10a10 10 0 0 0 10 10"></path><path d="M401.5 100h20"></path><g class="terminal ">
<path d="M421.5 100h4.25"></path><path d="M471.25 100h4.25"></path><rect height="22" rx="10" ry="10" width="45.5" x="425.75" y="89"></rect><text x="448.5" y="104">BIT</text></g><path d="M475.5 100h20"></path></g><path d="M495.5 100a10 10 0 0 0 10 -10v-29a10 10 0 0 1 10 -10"></path></g></g><path d="M515.5 51a10 10 0 0 0 10 -10v0a10 10 0 0 1 10 -10"></path></g></g><path d="M545.5 31h0.0"></path></g><path d="M545.5 31h10"></path><path d="M 555.5 31 h 20 m -10 -10 v 20 m 10 -20 v 20"></path></g></svg>