<svg class="railroad-diagram" viewBox="0 0 659.0 378" xmlns="http://www.w3.org/2000/svg" xmlns:xlink="http://www.w3.org/1999/xlink">
<g transform="translate(.5 .5)">
<g>
<path d="M20 21v20m10 -20v20m-10 -10h20"></path></g><path d="M40 31h10"></path><g>
<path d="M50 31h0.0"></path><path d="M50.0 31h10"></path><g>
<path d="M60.0 31h31.5"></path><path d="M567.5 31h31.5"></path><g class="terminal ">
<path d="M91.5 31h0.0"></path><path d="M188.0 31h0.0"></path><rect height="22" rx="10" ry="10" width="96.5" x="91.5" y="20"></rect><text x="139.75" y="35">TS.CREATE</text></g><path d="M188.0 31h10"></path><path d="M198.0 31h10"></path><g class="non-terminal ">
<path d="M208.0 31h0.0"></path><path d="M253.5 31h0.0"></path><rect height="22" width="45.5" x="208.0" y="20"></rect><text x="230.75" y="35">key</text><title>key</title></g><path d="M253.5 31h10"></path><g>
<path d="M263.5 31h0.0"></path><path d="M567.5 31h0.0"></path><path d="M263.5 31h20"></path><g>
<path d="M283.5 31h264.0"></path></g><path d="M547.5 31h20"></path><path d="M263.5 31a10 10 0 0 1 10 10v0a10 10 0 0 0 10 10"></path><g>
<path d="M283.5 51h0.0"></path><path d="M547.5 51h0.0"></path><g class="terminal ">
<path d="M283.5 51h0.0"></path><path d="M380.0 51h0.0"></path><rect height="22" rx="10" ry="10" width="96.5" x="283.5" y="40"></rect><text x="331.75" y="55">RETENTION</text></g><path d="M380.0 51h10"></path><path d="M390.0 51h10"></path><g class="non-terminal ">
<path d="M400.0 51h0.0"></path><path d="M547.5 51h0.0"></path><rect height="22" width="147.5" x="400.0" y="40"></rect><text x="473.75" y="55">retentionPeriod</text><title>integer</title></g></g><path d="M547.5 51a10 10 0 0 0 10 -10v0a10 10 0 0 1 10 -10"></path></g></g><path d="M599.0 31a10 10 0 0 1 10 10v19a10 10 0 0 1 -10 10h-539.0a10 10 0 0 0 -10 10v0a10 10 0 0 0 10 10"></path><g>
<path d="M60.0 90h10.0"></path><path d="M589.0 90h10.0"></path><g>
<path d="M70.0 90h0.0"></path><path d="M370.0 90h0.0"></path><path d="M70.0 90h20"></path><g>
<path d="M90.0 90h260.0"></path></g><path d="M350.0 90h20"></path><path d="M70.0 90a10 10 0 0 1 10 10v29a10 10 0 0 0 10 10"></path><g>
<path d="M90.0 139h0.0"></path><path d="M350.0 139h0.0"></path><g class="terminal ">
<path d="M90.0 139h0.0"></path><path d="M178.0 139h0.0"></path><rect height="22" rx="10" ry="10" width="88.0" x="90.0" y="128"></rect><text x="134.0" y="143">ENCODING</text></g><path d="M178.0 139h10"></path><g>
<path d="M188.0 139h0.0"></path><path d="M350.0 139h0.0"></path><path d="M188.0 139a10 10 0 0 0 10 -10v-10a10 10 0 0 1 10 -10"></path><g class="terminal ">
<path d="M208.0 109h0.0"></path><path d="M330.0 109h0.0"></path><rect height="22" rx="10" ry="10" width="122.0" x="208.0" y="98"></rect><text x="269.0" y="113">UNCOMPRESSED</text></g><path d="M330.0 109a10 10 0 0 1 10 10v10a10 10 0 0 0 10 10"></path><path d="M188.0 139h20"></path><g class="terminal ">
<path d="M208.0 139h8.5"></path><path d="M321.5 139h8.5"></path><rect height="22" rx="10" ry="10" width="105.0" x="216.5" y="128"></rect><text x="269.0" y="143">COMPRESSED</text></g><path d="M330.0 139h20"></path></g></g><path d="M350.0 139a10 10 0 0 0 10 -10v-29a10 10 0 0 1 10 -10"></path></g><g>
<path d="M370.0 90h0.0"></path><path d="M589.0 90h0.0"></path><path d="M370.0 90h20"></path><g>
<path d="M390.0 90h179.0"></path></g><path d="M569.0 90h20"></path><path d="M370.0 90a10 10 0 0 1 10 10v0a10 10 0 0 0 10 10"></path><g>
<path d="M390.0 110h0.0"></path><path d="M569.0 110h0.0"></path><g class="terminal ">
<path d="M390.0 110h0.0"></path><path d="M495.0 110h0.0"></path><rect height="22" rx="10" ry="10" width="105.0" x="390.0" y="99"></rect><text x="442.5" y="114">CHUNK&#95;SIZE</text></g><path d="M495.0 110h10"></path><path d="M505.0 110h10"></path><g class="non-terminal ">
<path d="M515.0 110h0.0"></path><path d="M569.0 110h0.0"></path><rect height="22" width="54.0" x="515.0" y="99"></rect><text x="542.0" y="114">size</text><title>integer</title></g></g><path d="M569.0 110a10 10 0 0 0 10 -10v0a10 10 0 0 1 10 -10"></path></g></g><path d="M599.0 90a10 10 0 0 1 10 10v48a10 10 0 0 1 -10 10h-539.0a10 10 0 0 0 -10 10v0a10 10 0 0 0 10 10"></path><g>
<path d="M60.0 178h12.75"></path><path d="M586.25 178h12.75"></path><g>
<path d="M72.75 178h0.0"></path><path d="M381.25 178h0.0"></path><path d="M72.75 178h20"></path><g>
<path d="M92.75 178h268.5"></path></g><path d="M361.25 178h20"></path><path d="M72.75 178a10 10 0 0 1 10 10v89a10 10 0 0 0 10 10"></path><g>
<path d="M92.75 287h0.0"></path><path d="M361.25 287h0.0"></path><g class="terminal ">
<path d="M92.75 287h0.0"></path><path d="M248.75 287h0.0"></path><rect height="22" rx="10" ry="10" width="156.0" x="92.75" y="276"></rect><text x="170.75" y="291">DUPLICATE&#95;POLICY</text></g><path d="M248.75 287h10"></path><g>
<path d="M258.75 287h0.0"></path><path d="M361.25 287h0.0"></path><path d="M258.75 287a10 10 0 0 0 10 -10v-10a10 10 0 0 1 10 -10"></path><g class="terminal ">
<path d="M278.75 257h4.25"></path><path d="M337.0 257h4.25"></path><rect height="22" rx="10" ry="10" width="54.0" x="283.0" y="246"></rect><text x="310.0" y="261">LAST</text></g><path d="M341.25 257a10 10 0 0 1 10 10v10a10 10 0 0 0 10 10"></path><path d="M258.75 287a10 10 0 0 0 10 -10v-40a10 10 0 0 1 10 -10"></path><g class="terminal ">
<path d="M278.75 227h0.0"></path><path d="M341.25 227h0.0"></path><rect height="22" rx="10" ry="10" width="62.5" x="278.75" y="216"></rect><text x="310.0" y="231">FIRST</text></g><path d="M341.25 227a10 10 0 0 1 10 10v40a10 10 0 0 0 10 10"></path><path d="M258.75 287a10 10 0 0 0 10 -10v-70a10 10 0 0 1 10 -10"></path><g class="terminal ">
<path d="M278.75 197h0.0"></path><path d="M341.25 197h0.0"></path><rect height="22" rx="10" ry="10" width="62.5" x="278.75" y="186"></rect><text x="310.0" y="201">BLOCK</text></g><path d="M341.25 197a10 10 0 0 1 10 10v70a10 10 0 0 0 10 10"></path><path d="M258.75 287h20"></path><g class="terminal ">
<path d="M278.75 287h8.5"></path><path d="M332.75 287h8.5"></path><rect height="22" rx="10" ry="10" width="45.5" x="287.25" y="276"></rect><text x="310.0" y="291">MIN</text></g><path d="M341.25 287h20"></path><path d="M258.75 287a10 10 0 0 1 10 10v10a10 10 0 0 0 10 10"></path><g class="terminal ">
<path d="M278.75 317h8.5"></path><path d="M332.75 317h8.5"></path><rect height="22" rx="10" ry="10" width="45.5" x="287.25" y="306"></rect><text x="310.0" y="321">MAX</text></g><path d="M341.25 317a10 10 0 0 0 10 -10v-10a10 10 0 0 1 10 -10"></path><path d="M258.75 287a10 10 0 0 1 10 10v40a10 10 0 0 0 10 10"></path><g class="terminal ">
<path d="M278.75 347h8.5"></path><path d="M332.75 347h8.5"></path><rect height="22" rx="10" ry="10" width="45.5" x="287.25" y="336"></rect><text x="310.0" y="351">SUM</text></g><path d="M341.25 347a10 10 0 0 0 10 -10v-40a10 10 0 0 1 10 -10"></path></g></g><path d="M361.25 287a10 10 0 0 0 10 -10v-89a10 10 0 0 1 10 -10"></path></g><g>
<path d="M381.25 178h0.0"></path><path d="M586.25 178h0.0"></path><path d="M381.25 178h20"></path><g>
<path d="M401.25 178h165.0"></path></g><path d="M566.25 178h20"></path><path d="M381.25 178a10 10 0 0 1 10 10v0a10 10 0 0 0 10 10"></path><g>
<path d="M401.25 198h0.0"></path><path d="M566.25 198h0.0"></path><path d="M401.25 198h10"></path><g>
<path d="M411.25 198h0.0"></path><path d="M556.25 198h0.0"></path><g class="non-terminal ">
<path d="M411.25 198h0.0"></path><path d="M473.75 198h0.0"></path><rect height="22" width="62.5" x="411.25" y="187"></rect><text x="442.5" y="202">label</text><title>string</title></g><path d="M473.75 198h10"></path><path d="M483.75 198h10"></path><g class="non-terminal ">
<path d="M493.75 198h0.0"></path><path d="M556.25 198h0.0"></path><rect height="22" width="62.5" x="493.75" y="187"></rect><text x="525.0" y="202">value</text><title>string</title></g></g><path d="M556.25 198h10"></path><path d="M411.25 198a10 10 0 0 0 -10 10v0a10 10 0 0 0 10 10"></path><g>
<path d="M411.25 218h145.0"></path></g><path d="M556.25 218a10 10 0 0 0 10 -10v0a10 10 0 0 0 -10 -10"></path></g><path d="M566.25 198a10 10 0 0 0 10 -10v0a10 10 0 0 1 10 -10"></path></g></g><path d="M599.0 178h10"></path><path d="M609.0 178h0.0"></path></g><path d="M609.0 178h10"></path><path d="M 619.0 178 h 20 m -10 -10 v 20 m 10 -20 v 20"></path></g></svg>