<svg class="railroad-diagram" height="80" viewBox="0 0 1385.5 80" width="1385.5" xmlns="http://www.w3.org/2000/svg" xmlns:xlink="http://www.w3.org/1999/xlink">
<defs>
<style type="text/css"><![CDATA[
svg.railroad-diagram { background-color: transparent; }
.terminal rect { fill: #DC382D !important; stroke: #DC382D !important; }
.terminal text { fill: white !important; font-weight: bold; }
.nonterminal rect { fill: none !important; stroke: #DC382D !important; stroke-width: 2; }
.nonterminal text { fill: #DC382D !important; font-weight: bold; }
path { stroke: #DC382D !important; stroke-width: 2; fill: none; }
circle { fill: #DC382D !important; stroke: #DC382D !important; }
]]></style>
</defs>
<g transform="translate(.5 .5)">
<style>/* <![CDATA[ */
	svg.railroad-diagram {
		background-color: transparent;
	}
	svg.railroad-diagram path {
		stroke-width:3;
		stroke: #DC382D;
		fill:rgba(0,0,0,0);
	}
	svg.railroad-diagram text {
		font:bold 14px monospace;
		text-anchor:middle;
	}
	svg.railroad-diagram text.label{
		text-anchor:start;
	}
	svg.railroad-diagram text.comment{
		font:italic 12px monospace;
	}
	svg.railroad-diagram rect{
		stroke-width:3;
		stroke: #DC382D;
		fill: none;
	}
	svg.railroad-diagram rect.group-box {
		stroke: #DC382D;
		stroke-dasharray: 10 5;
		fill: none;
	}

/* ]]> */
</style><g>
<path d="M20 30v20m10 -20v20m-10 -10h20"></path></g><path d="M40 40h10"></path><g>
<path d="M50 40h0.0"></path><path d="M1335.5 40h0.0"></path><g class="terminal ">
<path d="M50.0 40h0.0"></path><path d="M146.5 40h0.0"></path><rect height="22" rx="10" ry="10" width="96.5" x="50.0" y="29"></rect><text x="98.25" y="44">BF.INSERT</text></g><path d="M146.5 40h10"></path><path d="M156.5 40h10"></path><g class="non-terminal ">
<path d="M166.5 40h0.0"></path><path d="M212.0 40h0.0"></path><rect height="22" width="45.5" x="166.5" y="29"></rect><text x="189.25" y="44">key</text></g><path d="M212.0 40h10"></path><g>
<path d="M222.0 40h0.0"></path><path d="M458.0 40h0.0"></path><path d="M222.0 40a10 10 0 0 0 10 -10v0a10 10 0 0 1 10 -10"></path><g>
<path d="M242.0 20h196.0"></path></g><path d="M438.0 20a10 10 0 0 1 10 10v0a10 10 0 0 0 10 10"></path><path d="M222.0 40h20"></path><g>
<path d="M242.0 40h0.0"></path><path d="M438.0 40h0.0"></path><g class="terminal ">
<path d="M242.0 40h0.0"></path><path d="M330.0 40h0.0"></path><rect height="22" rx="10" ry="10" width="88.0" x="242.0" y="29"></rect><text x="286.0" y="44">CAPACITY</text></g><path d="M330.0 40h10"></path><path d="M340.0 40h10"></path><g class="non-terminal ">
<path d="M350.0 40h0.0"></path><path d="M438.0 40h0.0"></path><rect height="22" width="88.0" x="350.0" y="29"></rect><text x="394.0" y="44">capacity</text></g></g><path d="M438.0 40h20"></path></g><g>
<path d="M458.0 40h0.0"></path><path d="M643.0 40h0.0"></path><path d="M458.0 40a10 10 0 0 0 10 -10v0a10 10 0 0 1 10 -10"></path><g>
<path d="M478.0 20h145.0"></path></g><path d="M623.0 20a10 10 0 0 1 10 10v0a10 10 0 0 0 10 10"></path><path d="M458.0 40h20"></path><g>
<path d="M478.0 40h0.0"></path><path d="M623.0 40h0.0"></path><g class="terminal ">
<path d="M478.0 40h0.0"></path><path d="M540.5 40h0.0"></path><rect height="22" rx="10" ry="10" width="62.5" x="478.0" y="29"></rect><text x="509.25" y="44">ERROR</text></g><path d="M540.5 40h10"></path><path d="M550.5 40h10"></path><g class="non-terminal ">
<path d="M560.5 40h0.0"></path><path d="M623.0 40h0.0"></path><rect height="22" width="62.5" x="560.5" y="29"></rect><text x="591.75" y="44">error</text></g></g><path d="M623.0 40h20"></path></g><g>
<path d="M643.0 40h0.0"></path><path d="M896.0 40h0.0"></path><path d="M643.0 40a10 10 0 0 0 10 -10v0a10 10 0 0 1 10 -10"></path><g>
<path d="M663.0 20h213.0"></path></g><path d="M876.0 20a10 10 0 0 1 10 10v0a10 10 0 0 0 10 10"></path><path d="M643.0 40h20"></path><g>
<path d="M663.0 40h0.0"></path><path d="M876.0 40h0.0"></path><g class="terminal ">
<path d="M663.0 40h0.0"></path><path d="M759.5 40h0.0"></path><rect height="22" rx="10" ry="10" width="96.5" x="663.0" y="29"></rect><text x="711.25" y="44">EXPANSION</text></g><path d="M759.5 40h10"></path><path d="M769.5 40h10"></path><g class="non-terminal ">
<path d="M779.5 40h0.0"></path><path d="M876.0 40h0.0"></path><rect height="22" width="96.5" x="779.5" y="29"></rect><text x="827.75" y="44">expansion</text></g></g><path d="M876.0 40h20"></path></g><g>
<path d="M896.0 40h0.0"></path><path d="M1024.0 40h0.0"></path><path d="M896.0 40a10 10 0 0 0 10 -10v0a10 10 0 0 1 10 -10"></path><g>
<path d="M916.0 20h88.0"></path></g><path d="M1004.0 20a10 10 0 0 1 10 10v0a10 10 0 0 0 10 10"></path><path d="M896.0 40h20"></path><g class="terminal ">
<path d="M916.0 40h0.0"></path><path d="M1004.0 40h0.0"></path><rect height="22" rx="10" ry="10" width="88.0" x="916.0" y="29"></rect><text x="960.0" y="44">NOCREATE</text></g><path d="M1004.0 40h20"></path></g><g>
<path d="M1024.0 40h0.0"></path><path d="M1169.0 40h0.0"></path><path d="M1024.0 40a10 10 0 0 0 10 -10v0a10 10 0 0 1 10 -10"></path><g>
<path d="M1044.0 20h105.0"></path></g><path d="M1149.0 20a10 10 0 0 1 10 10v0a10 10 0 0 0 10 10"></path><path d="M1024.0 40h20"></path><g class="terminal ">
<path d="M1044.0 40h0.0"></path><path d="M1149.0 40h0.0"></path><rect height="22" rx="10" ry="10" width="105.0" x="1044.0" y="29"></rect><text x="1096.5" y="44">NONSCALING</text></g><path d="M1149.0 40h20"></path></g><path d="M1169.0 40h10"></path><g class="terminal ">
<path d="M1179.0 40h0.0"></path><path d="M1241.5 40h0.0"></path><rect height="22" rx="10" ry="10" width="62.5" x="1179.0" y="29"></rect><text x="1210.25" y="44">ITEMS</text></g><path d="M1241.5 40h10"></path><path d="M1251.5 40h10"></path><g>
<path d="M1261.5 40h0.0"></path><path d="M1335.5 40h0.0"></path><path d="M1261.5 40h10"></path><g class="non-terminal ">
<path d="M1271.5 40h0.0"></path><path d="M1325.5 40h0.0"></path><rect height="22" width="54.0" x="1271.5" y="29"></rect><text x="1298.5" y="44">item</text></g><path d="M1325.5 40h10"></path><path d="M1271.5 40a10 10 0 0 0 -10 10v0a10 10 0 0 0 10 10"></path><g>
<path d="M1271.5 60h54.0"></path></g><path d="M1325.5 60a10 10 0 0 0 10 -10v0a10 10 0 0 0 -10 -10"></path></g></g><path d="M1335.5 40h10"></path><path d="M 1345.5 40 h 20 m -10 -10 v 20 m 10 -20 v 20"></path></g></svg>