<svg class="railroad-diagram" height="191" viewBox="0 0 431.5 191" width="431.5" xmlns="http://www.w3.org/2000/svg" xmlns:xlink="http://www.w3.org/1999/xlink">
<defs>
<style type="text/css"><![CDATA[
svg.railroad-diagram { background-color: transparent; }
.terminal rect { fill: #DC382D !important; stroke: #DC382D !important; }
.terminal text { fill: white !important; font-weight: bold; }
.nonterminal rect { fill: none !important; stroke: #DC382D !important; stroke-width: 2; }
.nonterminal text { fill: #DC382D !important; font-weight: bold; }
path { stroke: #DC382D !important; stroke-width: 2; fill: none; }
circle { fill: #DC382D !important; stroke: #DC382D !important; }
]]></style>
</defs>
<g transform="translate(.5 .5)">
<style>/* <![CDATA[ */
	svg.railroad-diagram {
		background-color: transparent;
	}
	svg.railroad-diagram path {
		stroke-width:3;
		stroke: #DC382D;
		fill:rgba(0,0,0,0);
	}
	svg.railroad-diagram text {
		font:bold 14px monospace;
		text-anchor:middle;
	}
	svg.railroad-diagram text.label{
		text-anchor:start;
	}
	svg.railroad-diagram text.comment{
		font:italic 12px monospace;
	}
	svg.railroad-diagram rect{
		stroke-width:3;
		stroke: #DC382D;
		fill: none;
	}
	svg.railroad-diagram rect.group-box {
		stroke: #DC382D;
		stroke-dasharray: 10 5;
		fill: none;
	}

/* ]]> */
</style><g>
<path d="M20 30v20m10 -20v20m-10 -10h20"></path></g><path d="M40 40h10"></path><g>
<path d="M50 40h0.0"></path><path d="M381.5 40h0.0"></path><g class="terminal ">
<path d="M50.0 40h0.0"></path><path d="M129.5 40h0.0"></path><rect height="22" rx="10" ry="10" width="79.5" x="50.0" y="29"></rect><text x="89.75" y="44">BF.INFO</text></g><path d="M129.5 40h10"></path><path d="M139.5 40h10"></path><g class="non-terminal ">
<path d="M149.5 40h0.0"></path><path d="M195.0 40h0.0"></path><rect height="22" width="45.5" x="149.5" y="29"></rect><text x="172.25" y="44">key</text></g><path d="M195.0 40h10"></path><g>
<path d="M205.0 40h0.0"></path><path d="M381.5 40h0.0"></path><path d="M205.0 40a10 10 0 0 0 10 -10v0a10 10 0 0 1 10 -10"></path><g>
<path d="M225.0 20h136.5"></path></g><path d="M361.5 20a10 10 0 0 1 10 10v0a10 10 0 0 0 10 10"></path><path d="M205.0 40h20"></path><g>
<path d="M225.0 40h0.0"></path><path d="M361.5 40h0.0"></path><path d="M225.0 40h20"></path><g class="terminal ">
<path d="M245.0 40h4.25"></path><path d="M337.25 40h4.25"></path><rect height="22" rx="10" ry="10" width="88.0" x="249.25" y="29"></rect><text x="293.25" y="44">CAPACITY</text></g><path d="M341.5 40h20"></path><path d="M225.0 40a10 10 0 0 1 10 10v10a10 10 0 0 0 10 10"></path><g class="terminal ">
<path d="M245.0 70h21.25"></path><path d="M320.25 70h21.25"></path><rect height="22" rx="10" ry="10" width="54.0" x="266.25" y="59"></rect><text x="293.25" y="74">SIZE</text></g><path d="M341.5 70a10 10 0 0 0 10 -10v-10a10 10 0 0 1 10 -10"></path><path d="M225.0 40a10 10 0 0 1 10 10v40a10 10 0 0 0 10 10"></path><g class="terminal ">
<path d="M245.0 100h8.5"></path><path d="M333.0 100h8.5"></path><rect height="22" rx="10" ry="10" width="79.5" x="253.5" y="89"></rect><text x="293.25" y="104">FILTERS</text></g><path d="M341.5 100a10 10 0 0 0 10 -10v-40a10 10 0 0 1 10 -10"></path><path d="M225.0 40a10 10 0 0 1 10 10v70a10 10 0 0 0 10 10"></path><g class="terminal ">
<path d="M245.0 130h17.0"></path><path d="M324.5 130h17.0"></path><rect height="22" rx="10" ry="10" width="62.5" x="262.0" y="119"></rect><text x="293.25" y="134">ITEMS</text></g><path d="M341.5 130a10 10 0 0 0 10 -10v-70a10 10 0 0 1 10 -10"></path><path d="M225.0 40a10 10 0 0 1 10 10v100a10 10 0 0 0 10 10"></path><g class="terminal ">
<path d="M245.0 160h0.0"></path><path d="M341.5 160h0.0"></path><rect height="22" rx="10" ry="10" width="96.5" x="245.0" y="149"></rect><text x="293.25" y="164">EXPANSION</text></g><path d="M341.5 160a10 10 0 0 0 10 -10v-100a10 10 0 0 1 10 -10"></path></g><path d="M361.5 40h20"></path></g></g><path d="M381.5 40h10"></path><path d="M 391.5 40 h 20 m -10 -10 v 20 m 10 -20 v 20"></path></g></svg>