<svg class="railroad-diagram" height="71" viewBox="0 0 911.5 71" width="911.5" xmlns="http://www.w3.org/2000/svg" xmlns:xlink="http://www.w3.org/1999/xlink">
<defs>
<style type="text/css"><![CDATA[
svg.railroad-diagram { background-color: transparent; }
.terminal rect { fill: #DC382D !important; stroke: #DC382D !important; }
.terminal text { fill: white !important; font-weight: bold; }
.nonterminal rect { fill: none !important; stroke: #DC382D !important; stroke-width: 2; }
.nonterminal text { fill: #DC382D !important; font-weight: bold; }
path { stroke: #DC382D !important; stroke-width: 2; fill: none; }
circle { fill: #DC382D !important; stroke: #DC382D !important; }
]]></style>
</defs>
<g transform="translate(.5 .5)">
<style>/* <![CDATA[ */
	svg.railroad-diagram {
		background-color: transparent;
	}
	svg.railroad-diagram path {
		stroke-width:3;
		stroke: #DC382D;
		fill:rgba(0,0,0,0);
	}
	svg.railroad-diagram text {
		font:bold 14px monospace;
		text-anchor:middle;
	}
	svg.railroad-diagram text.label{
		text-anchor:start;
	}
	svg.railroad-diagram text.comment{
		font:italic 12px monospace;
	}
	svg.railroad-diagram rect{
		stroke-width:3;
		stroke: #DC382D;
		fill: none;
	}
	svg.railroad-diagram rect.group-box {
		stroke: #DC382D;
		stroke-dasharray: 10 5;
		fill: none;
	}

/* ]]> */
</style><g>
<path d="M20 30v20m10 -20v20m-10 -10h20"></path></g><path d="M40 40h10"></path><g>
<path d="M50 40h0.0"></path><path d="M861.5 40h0.0"></path><g class="terminal ">
<path d="M50.0 40h0.0"></path><path d="M155.0 40h0.0"></path><rect height="22" rx="10" ry="10" width="105.0" x="50.0" y="29"></rect><text x="102.5" y="44">BF.RESERVE</text></g><path d="M155.0 40h10"></path><path d="M165.0 40h10"></path><g class="non-terminal ">
<path d="M175.0 40h0.0"></path><path d="M220.5 40h0.0"></path><rect height="22" width="45.5" x="175.0" y="29"></rect><text x="197.75" y="44">key</text></g><path d="M220.5 40h10"></path><path d="M230.5 40h10"></path><g class="non-terminal ">
<path d="M240.5 40h0.0"></path><path d="M345.5 40h0.0"></path><rect height="22" width="105.0" x="240.5" y="29"></rect><text x="293.0" y="44">error&#95;rate</text></g><path d="M345.5 40h10"></path><path d="M355.5 40h10"></path><g class="non-terminal ">
<path d="M365.5 40h0.0"></path><path d="M453.5 40h0.0"></path><rect height="22" width="88.0" x="365.5" y="29"></rect><text x="409.5" y="44">capacity</text></g><path d="M453.5 40h10"></path><g>
<path d="M463.5 40h0.0"></path><path d="M716.5 40h0.0"></path><path d="M463.5 40a10 10 0 0 0 10 -10v0a10 10 0 0 1 10 -10"></path><g>
<path d="M483.5 20h213.0"></path></g><path d="M696.5 20a10 10 0 0 1 10 10v0a10 10 0 0 0 10 10"></path><path d="M463.5 40h20"></path><g>
<path d="M483.5 40h0.0"></path><path d="M696.5 40h0.0"></path><g class="terminal ">
<path d="M483.5 40h0.0"></path><path d="M580.0 40h0.0"></path><rect height="22" rx="10" ry="10" width="96.5" x="483.5" y="29"></rect><text x="531.75" y="44">EXPANSION</text></g><path d="M580.0 40h10"></path><path d="M590.0 40h10"></path><g class="non-terminal ">
<path d="M600.0 40h0.0"></path><path d="M696.5 40h0.0"></path><rect height="22" width="96.5" x="600.0" y="29"></rect><text x="648.25" y="44">expansion</text></g></g><path d="M696.5 40h20"></path></g><g>
<path d="M716.5 40h0.0"></path><path d="M861.5 40h0.0"></path><path d="M716.5 40a10 10 0 0 0 10 -10v0a10 10 0 0 1 10 -10"></path><g>
<path d="M736.5 20h105.0"></path></g><path d="M841.5 20a10 10 0 0 1 10 10v0a10 10 0 0 0 10 10"></path><path d="M716.5 40h20"></path><g class="terminal ">
<path d="M736.5 40h0.0"></path><path d="M841.5 40h0.0"></path><rect height="22" rx="10" ry="10" width="105.0" x="736.5" y="29"></rect><text x="789.0" y="44">NONSCALING</text></g><path d="M841.5 40h20"></path></g></g><path d="M861.5 40h10"></path><path d="M 871.5 40 h 20 m -10 -10 v 20 m 10 -20 v 20"></path></g></svg>