<svg class="railroad-diagram" height="152" viewBox="0 0 433.0 152" width="433.0" xmlns="http://www.w3.org/2000/svg" xmlns:xlink="http://www.w3.org/1999/xlink">
<defs>
<style type="text/css"><![CDATA[
svg.railroad-diagram { background-color: transparent; }
.terminal rect { fill: #DC382D !important; stroke: #DC382D !important; }
.terminal text { fill: white !important; font-weight: bold; }
.nonterminal rect { fill: none !important; stroke: #DC382D !important; stroke-width: 2; }
.nonterminal text { fill: #DC382D !important; font-weight: bold; }
path { stroke: #DC382D !important; stroke-width: 2; fill: none; }
circle { fill: #DC382D !important; stroke: #DC382D !important; }
]]></style>
</defs>
<g transform="translate(.5 .5)">
<style>/* <![CDATA[ */
	svg.railroad-diagram {
		background-color: transparent;
	}
	svg.railroad-diagram path {
		stroke-width:3;
		stroke: #DC382D;
		fill:rgba(0,0,0,0);
	}
	svg.railroad-diagram text {
		font:bold 14px monospace;
		text-anchor:middle;
	}
	svg.railroad-diagram text.label{
		text-anchor:start;
	}
	svg.railroad-diagram text.comment{
		font:italic 12px monospace;
	}
	svg.railroad-diagram rect{
		stroke-width:3;
		stroke: #DC382D;
		fill: none;
	}
	svg.railroad-diagram rect.group-box {
		stroke: #DC382D;
		stroke-dasharray: 10 5;
		fill: none;
	}

/* ]]> */
</style><g>
<path d="M20 21v20m10 -20v20m-10 -10h20"></path></g><path d="M40 31h10"></path><g>
<path d="M50 31h0.0"></path><path d="M383.0 31h0.0"></path><g class="terminal ">
<path d="M50.0 31h0.0"></path><path d="M112.5 31h0.0"></path><rect height="22" rx="10" ry="10" width="62.5" x="50.0" y="20"></rect><text x="81.25" y="35">BITOP</text></g><path d="M112.5 31h10"></path><g>
<path d="M122.5 31h0.0"></path><path d="M208.0 31h0.0"></path><path d="M122.5 31h20"></path><g class="terminal ">
<path d="M142.5 31h0.0"></path><path d="M188.0 31h0.0"></path><rect height="22" rx="10" ry="10" width="45.5" x="142.5" y="20"></rect><text x="165.25" y="35">AND</text></g><path d="M188.0 31h20"></path><path d="M122.5 31a10 10 0 0 1 10 10v10a10 10 0 0 0 10 10"></path><g class="terminal ">
<path d="M142.5 61h4.25"></path><path d="M183.75 61h4.25"></path><rect height="22" rx="10" ry="10" width="37.0" x="146.75" y="50"></rect><text x="165.25" y="65">OR</text></g><path d="M188.0 61a10 10 0 0 0 10 -10v-10a10 10 0 0 1 10 -10"></path><path d="M122.5 31a10 10 0 0 1 10 10v40a10 10 0 0 0 10 10"></path><g class="terminal ">
<path d="M142.5 91h0.0"></path><path d="M188.0 91h0.0"></path><rect height="22" rx="10" ry="10" width="45.5" x="142.5" y="80"></rect><text x="165.25" y="95">XOR</text></g><path d="M188.0 91a10 10 0 0 0 10 -10v-40a10 10 0 0 1 10 -10"></path><path d="M122.5 31a10 10 0 0 1 10 10v70a10 10 0 0 0 10 10"></path><g class="terminal ">
<path d="M142.5 121h0.0"></path><path d="M188.0 121h0.0"></path><rect height="22" rx="10" ry="10" width="45.5" x="142.5" y="110"></rect><text x="165.25" y="125">NOT</text></g><path d="M188.0 121a10 10 0 0 0 10 -10v-70a10 10 0 0 1 10 -10"></path></g><path d="M208.0 31h10"></path><g class="non-terminal ">
<path d="M218.0 31h0.0"></path><path d="M297.5 31h0.0"></path><rect height="22" width="79.5" x="218.0" y="20"></rect><text x="257.75" y="35">destkey</text></g><path d="M297.5 31h10"></path><path d="M307.5 31h10"></path><g>
<path d="M317.5 31h0.0"></path><path d="M383.0 31h0.0"></path><path d="M317.5 31h10"></path><g class="non-terminal ">
<path d="M327.5 31h0.0"></path><path d="M373.0 31h0.0"></path><rect height="22" width="45.5" x="327.5" y="20"></rect><text x="350.25" y="35">key</text></g><path d="M373.0 31h10"></path><path d="M327.5 31a10 10 0 0 0 -10 10v0a10 10 0 0 0 10 10"></path><g>
<path d="M327.5 51h45.5"></path></g><path d="M373.0 51a10 10 0 0 0 10 -10v0a10 10 0 0 0 -10 -10"></path></g></g><path d="M383.0 31h10"></path><path d="M 393.0 31 h 20 m -10 -10 v 20 m 10 -20 v 20"></path></g></svg>