<svg class="railroad-diagram" height="272" viewBox="0 0 450.0 272" width="450.0" xmlns="http://www.w3.org/2000/svg" xmlns:xlink="http://www.w3.org/1999/xlink">
<defs>
<style type="text/css"><![CDATA[
svg.railroad-diagram { background-color: transparent; }
.terminal rect { fill: #DC382D !important; stroke: #DC382D !important; }
.terminal text { fill: white !important; font-weight: bold; }
.nonterminal rect { fill: none !important; stroke: #DC382D !important; stroke-width: 2; }
.nonterminal text { fill: #DC382D !important; font-weight: bold; }
path { stroke: #DC382D !important; stroke-width: 2; fill: none; }
circle { fill: #DC382D !important; stroke: #DC382D !important; }
]]></style>
</defs>
<g transform="translate(.5 .5)">
<style>/* <![CDATA[ */
	svg.railroad-diagram {
		background-color: transparent;
	}
	svg.railroad-diagram path {
		stroke-width:3;
		stroke: #DC382D;
		fill:rgba(0,0,0,0);
	}
	svg.railroad-diagram text {
		font:bold 14px monospace;
		text-anchor:middle;
	}
	svg.railroad-diagram text.label{
		text-anchor:start;
	}
	svg.railroad-diagram text.comment{
		font:italic 12px monospace;
	}
	svg.railroad-diagram rect{
		stroke-width:3;
		stroke: #DC382D;
		fill: none;
	}
	svg.railroad-diagram rect.group-box {
		stroke: #DC382D;
		stroke-dasharray: 10 5;
		fill: none;
	}

/* ]]> */
</style><g>
<path d="M20 21v20m10 -20v20m-10 -10h20"></path></g><path d="M40 31h10"></path><g>
<path d="M50 31h0.0"></path><path d="M400.0 31h0.0"></path><g class="terminal ">
<path d="M50.0 31h0.0"></path><path d="M112.5 31h0.0"></path><rect height="22" rx="10" ry="10" width="62.5" x="50.0" y="20"></rect><text x="81.25" y="35">BITOP</text></g><path d="M112.5 31h10"></path><g>
<path d="M122.5 31h0.0"></path><path d="M225.0 31h0.0"></path><path d="M122.5 31h20"></path><g class="terminal ">
<path d="M142.5 31h8.5"></path><path d="M196.5 31h8.5"></path><rect height="22" rx="10" ry="10" width="45.5" x="151.0" y="20"></rect><text x="173.75" y="35">AND</text></g><path d="M205.0 31h20"></path><path d="M122.5 31a10 10 0 0 1 10 10v10a10 10 0 0 0 10 10"></path><g class="terminal ">
<path d="M142.5 61h12.75"></path><path d="M192.25 61h12.75"></path><rect height="22" rx="10" ry="10" width="37.0" x="155.25" y="50"></rect><text x="173.75" y="65">OR</text></g><path d="M205.0 61a10 10 0 0 0 10 -10v-10a10 10 0 0 1 10 -10"></path><path d="M122.5 31a10 10 0 0 1 10 10v40a10 10 0 0 0 10 10"></path><g class="terminal ">
<path d="M142.5 91h8.5"></path><path d="M196.5 91h8.5"></path><rect height="22" rx="10" ry="10" width="45.5" x="151.0" y="80"></rect><text x="173.75" y="95">XOR</text></g><path d="M205.0 91a10 10 0 0 0 10 -10v-40a10 10 0 0 1 10 -10"></path><path d="M122.5 31a10 10 0 0 1 10 10v70a10 10 0 0 0 10 10"></path><g class="terminal ">
<path d="M142.5 121h8.5"></path><path d="M196.5 121h8.5"></path><rect height="22" rx="10" ry="10" width="45.5" x="151.0" y="110"></rect><text x="173.75" y="125">NOT</text></g><path d="M205.0 121a10 10 0 0 0 10 -10v-70a10 10 0 0 1 10 -10"></path><path d="M122.5 31a10 10 0 0 1 10 10v100a10 10 0 0 0 10 10"></path><g class="terminal ">
<path d="M142.5 151h4.25"></path><path d="M200.75 151h4.25"></path><rect height="22" rx="10" ry="10" width="54.0" x="146.75" y="140"></rect><text x="173.75" y="155">DIFF</text></g><path d="M205.0 151a10 10 0 0 0 10 -10v-100a10 10 0 0 1 10 -10"></path><path d="M122.5 31a10 10 0 0 1 10 10v130a10 10 0 0 0 10 10"></path><g class="terminal ">
<path d="M142.5 181h0.0"></path><path d="M205.0 181h0.0"></path><rect height="22" rx="10" ry="10" width="62.5" x="142.5" y="170"></rect><text x="173.75" y="185">DIFF1</text></g><path d="M205.0 181a10 10 0 0 0 10 -10v-130a10 10 0 0 1 10 -10"></path><path d="M122.5 31a10 10 0 0 1 10 10v160a10 10 0 0 0 10 10"></path><g class="terminal ">
<path d="M142.5 211h0.0"></path><path d="M205.0 211h0.0"></path><rect height="22" rx="10" ry="10" width="62.5" x="142.5" y="200"></rect><text x="173.75" y="215">ANDOR</text></g><path d="M205.0 211a10 10 0 0 0 10 -10v-160a10 10 0 0 1 10 -10"></path><path d="M122.5 31a10 10 0 0 1 10 10v190a10 10 0 0 0 10 10"></path><g class="terminal ">
<path d="M142.5 241h8.5"></path><path d="M196.5 241h8.5"></path><rect height="22" rx="10" ry="10" width="45.5" x="151.0" y="230"></rect><text x="173.75" y="245">ONE</text></g><path d="M205.0 241a10 10 0 0 0 10 -10v-190a10 10 0 0 1 10 -10"></path></g><path d="M225.0 31h10"></path><g class="non-terminal ">
<path d="M235.0 31h0.0"></path><path d="M314.5 31h0.0"></path><rect height="22" width="79.5" x="235.0" y="20"></rect><text x="274.75" y="35">destkey</text></g><path d="M314.5 31h10"></path><path d="M324.5 31h10"></path><g>
<path d="M334.5 31h0.0"></path><path d="M400.0 31h0.0"></path><path d="M334.5 31h10"></path><g class="non-terminal ">
<path d="M344.5 31h0.0"></path><path d="M390.0 31h0.0"></path><rect height="22" width="45.5" x="344.5" y="20"></rect><text x="367.25" y="35">key</text></g><path d="M390.0 31h10"></path><path d="M344.5 31a10 10 0 0 0 -10 10v0a10 10 0 0 0 10 10"></path><g>
<path d="M344.5 51h45.5"></path></g><path d="M390.0 51a10 10 0 0 0 10 -10v0a10 10 0 0 0 -10 -10"></path></g></g><path d="M400.0 31h10"></path><path d="M 410.0 31 h 20 m -10 -10 v 20 m 10 -20 v 20"></path></g></svg>