<svg class="railroad-diagram" height="101" viewBox="0 0 1071.5 101" width="1071.5" xmlns="http://www.w3.org/2000/svg" xmlns:xlink="http://www.w3.org/1999/xlink">
<defs>
<style type="text/css"><![CDATA[
svg.railroad-diagram { background-color: transparent; }
.terminal rect { fill: #DC382D !important; stroke: #DC382D !important; }
.terminal text { fill: white !important; font-weight: bold; }
.nonterminal rect { fill: none !important; stroke: #DC382D !important; stroke-width: 2; }
.nonterminal text { fill: #DC382D !important; font-weight: bold; }
path { stroke: #DC382D !important; stroke-width: 2; fill: none; }
circle { fill: #DC382D !important; stroke: #DC382D !important; }
]]></style>
</defs>
<g transform="translate(.5 .5)">
<style>/* <![CDATA[ */
	svg.railroad-diagram {
		background-color: transparent;
	}
	svg.railroad-diagram path {
		stroke-width:3;
		stroke: #DC382D;
		fill:rgba(0,0,0,0);
	}
	svg.railroad-diagram text {
		font:bold 14px monospace;
		text-anchor:middle;
	}
	svg.railroad-diagram text.label{
		text-anchor:start;
	}
	svg.railroad-diagram text.comment{
		font:italic 12px monospace;
	}
	svg.railroad-diagram rect{
		stroke-width:3;
		stroke: #DC382D;
		fill: none;
	}
	svg.railroad-diagram rect.group-box {
		stroke: #DC382D;
		stroke-dasharray: 10 5;
		fill: none;
	}

/* ]]> */
</style><g>
<path d="M20 30v20m10 -20v20m-10 -10h20"></path></g><path d="M40 40h10"></path><g>
<path d="M50 40h0.0"></path><path d="M1021.5 40h0.0"></path><g class="terminal ">
<path d="M50.0 40h0.0"></path><path d="M129.5 40h0.0"></path><rect height="22" rx="10" ry="10" width="79.5" x="50.0" y="29"></rect><text x="89.75" y="44">BLMOVEM</text></g><path d="M129.5 40h10"></path><path d="M139.5 40h10"></path><g class="non-terminal ">
<path d="M149.5 40h0.0"></path><path d="M220.5 40h0.0"></path><rect height="22" width="71.0" x="149.5" y="29"></rect><text x="185.0" y="44">source</text></g><path d="M220.5 40h10"></path><path d="M230.5 40h10"></path><g class="non-terminal ">
<path d="M240.5 40h0.0"></path><path d="M354.0 40h0.0"></path><rect height="22" width="113.5" x="240.5" y="29"></rect><text x="297.25" y="44">destination</text></g><path d="M354.0 40h10"></path><g>
<path d="M364.0 40h0.0"></path><path d="M466.5 40h0.0"></path><path d="M364.0 40h20"></path><g class="terminal ">
<path d="M384.0 40h4.25"></path><path d="M442.25 40h4.25"></path><rect height="22" rx="10" ry="10" width="54.0" x="388.25" y="29"></rect><text x="415.25" y="44">LEFT</text></g><path d="M446.5 40h20"></path><path d="M364.0 40a10 10 0 0 1 10 10v10a10 10 0 0 0 10 10"></path><g class="terminal ">
<path d="M384.0 70h0.0"></path><path d="M446.5 70h0.0"></path><rect height="22" rx="10" ry="10" width="62.5" x="384.0" y="59"></rect><text x="415.25" y="74">RIGHT</text></g><path d="M446.5 70a10 10 0 0 0 10 -10v-10a10 10 0 0 1 10 -10"></path></g><g>
<path d="M466.5 40h0.0"></path><path d="M569.0 40h0.0"></path><path d="M466.5 40h20"></path><g class="terminal ">
<path d="M486.5 40h4.25"></path><path d="M544.75 40h4.25"></path><rect height="22" rx="10" ry="10" width="54.0" x="490.75" y="29"></rect><text x="517.75" y="44">LEFT</text></g><path d="M549.0 40h20"></path><path d="M466.5 40a10 10 0 0 1 10 10v10a10 10 0 0 0 10 10"></path><g class="terminal ">
<path d="M486.5 70h0.0"></path><path d="M549.0 70h0.0"></path><rect height="22" rx="10" ry="10" width="62.5" x="486.5" y="59"></rect><text x="517.75" y="74">RIGHT</text></g><path d="M549.0 70a10 10 0 0 0 10 -10v-10a10 10 0 0 1 10 -10"></path></g><path d="M569.0 40h10"></path><g class="non-terminal ">
<path d="M579.0 40h0.0"></path><path d="M658.5 40h0.0"></path><rect height="22" width="79.5" x="579.0" y="29"></rect><text x="618.75" y="44">timeout</text></g><path d="M658.5 40h10"></path><g>
<path d="M668.5 40h0.0"></path><path d="M1021.5 40h0.0"></path><path d="M668.5 40a10 10 0 0 0 10 -10v0a10 10 0 0 1 10 -10"></path><g>
<path d="M688.5 20h313.0"></path></g><path d="M1001.5 20a10 10 0 0 1 10 10v0a10 10 0 0 0 10 10"></path><path d="M668.5 40h20"></path><g>
<path d="M688.5 40h0.0"></path><path d="M1001.5 40h0.0"></path><g>
<path d="M688.5 40h0.0"></path><path d="M907.5 40h0.0"></path><path d="M688.5 40h20"></path><g>
<path d="M708.5 40h17.0"></path><path d="M870.5 40h17.0"></path><g class="terminal ">
<path d="M725.5 40h0.0"></path><path d="M788.0 40h0.0"></path><rect height="22" rx="10" ry="10" width="62.5" x="725.5" y="29"></rect><text x="756.75" y="44">COUNT</text></g><path d="M788.0 40h10"></path><path d="M798.0 40h10"></path><g class="non-terminal ">
<path d="M808.0 40h0.0"></path><path d="M870.5 40h0.0"></path><rect height="22" width="62.5" x="808.0" y="29"></rect><text x="839.25" y="44">count</text></g></g><path d="M887.5 40h20"></path><path d="M688.5 40a10 10 0 0 1 10 10v10a10 10 0 0 0 10 10"></path><g>
<path d="M708.5 70h0.0"></path><path d="M887.5 70h0.0"></path><g class="terminal ">
<path d="M708.5 70h0.0"></path><path d="M788.0 70h0.0"></path><rect height="22" rx="10" ry="10" width="79.5" x="708.5" y="59"></rect><text x="748.25" y="74">EXACTLY</text></g><path d="M788.0 70h10"></path><path d="M798.0 70h10"></path><g class="non-terminal ">
<path d="M808.0 70h0.0"></path><path d="M887.5 70h0.0"></path><rect height="22" width="79.5" x="808.0" y="59"></rect><text x="847.75" y="74">exactly</text></g></g><path d="M887.5 70a10 10 0 0 0 10 -10v-10a10 10 0 0 1 10 -10"></path></g><g>
<path d="M907.5 40h0.0"></path><path d="M1001.5 40h0.0"></path><path d="M907.5 40h20"></path><g class="terminal ">
<path d="M927.5 40h4.25"></path><path d="M977.25 40h4.25"></path><rect height="22" rx="10" ry="10" width="45.5" x="931.75" y="29"></rect><text x="954.5" y="44">OBO</text></g><path d="M981.5 40h20"></path><path d="M907.5 40a10 10 0 0 1 10 10v10a10 10 0 0 0 10 10"></path><g class="terminal ">
<path d="M927.5 70h0.0"></path><path d="M981.5 70h0.0"></path><rect height="22" rx="10" ry="10" width="54.0" x="927.5" y="59"></rect><text x="954.5" y="74">BULK</text></g><path d="M981.5 70a10 10 0 0 0 10 -10v-10a10 10 0 0 1 10 -10"></path></g></g><path d="M1001.5 40h20"></path></g></g><path d="M1021.5 40h10"></path><path d="M 1031.5 40 h 20 m -10 -10 v 20 m 10 -20 v 20"></path></g></svg>