<svg class="railroad-diagram" height="80" viewBox="0 0 802.5 80" width="802.5" xmlns="http://www.w3.org/2000/svg" xmlns:xlink="http://www.w3.org/1999/xlink">
<defs>
<style type="text/css"><![CDATA[
svg.railroad-diagram { background-color: transparent; }
.terminal rect { fill: #DC382D !important; stroke: #DC382D !important; }
.terminal text { fill: white !important; font-weight: bold; }
.nonterminal rect { fill: none !important; stroke: #DC382D !important; stroke-width: 2; }
.nonterminal text { fill: #DC382D !important; font-weight: bold; }
path { stroke: #DC382D !important; stroke-width: 2; fill: none; }
circle { fill: #DC382D !important; stroke: #DC382D !important; }
]]></style>
</defs>
<g transform="translate(.5 .5)">
<style>/* <![CDATA[ */
	svg.railroad-diagram {
		background-color: transparent;
	}
	svg.railroad-diagram path {
		stroke-width:3;
		stroke: #DC382D;
		fill:rgba(0,0,0,0);
	}
	svg.railroad-diagram text {
		font:bold 14px monospace;
		text-anchor:middle;
	}
	svg.railroad-diagram text.label{
		text-anchor:start;
	}
	svg.railroad-diagram text.comment{
		font:italic 12px monospace;
	}
	svg.railroad-diagram rect{
		stroke-width:3;
		stroke: #DC382D;
		fill: none;
	}
	svg.railroad-diagram rect.group-box {
		stroke: #DC382D;
		stroke-dasharray: 10 5;
		fill: none;
	}

/* ]]> */
</style><g>
<path d="M20 30v20m10 -20v20m-10 -10h20"></path></g><path d="M40 40h10"></path><g>
<path d="M50 40h0.0"></path><path d="M752.5 40h0.0"></path><g class="terminal ">
<path d="M50.0 40h0.0"></path><path d="M146.5 40h0.0"></path><rect height="22" rx="10" ry="10" width="96.5" x="50.0" y="29"></rect><text x="98.25" y="44">CF.INSERT</text></g><path d="M146.5 40h10"></path><path d="M156.5 40h10"></path><g class="non-terminal ">
<path d="M166.5 40h0.0"></path><path d="M212.0 40h0.0"></path><rect height="22" width="45.5" x="166.5" y="29"></rect><text x="189.25" y="44">key</text></g><path d="M212.0 40h10"></path><g>
<path d="M222.0 40h0.0"></path><path d="M458.0 40h0.0"></path><path d="M222.0 40a10 10 0 0 0 10 -10v0a10 10 0 0 1 10 -10"></path><g>
<path d="M242.0 20h196.0"></path></g><path d="M438.0 20a10 10 0 0 1 10 10v0a10 10 0 0 0 10 10"></path><path d="M222.0 40h20"></path><g>
<path d="M242.0 40h0.0"></path><path d="M438.0 40h0.0"></path><g class="terminal ">
<path d="M242.0 40h0.0"></path><path d="M330.0 40h0.0"></path><rect height="22" rx="10" ry="10" width="88.0" x="242.0" y="29"></rect><text x="286.0" y="44">CAPACITY</text></g><path d="M330.0 40h10"></path><path d="M340.0 40h10"></path><g class="non-terminal ">
<path d="M350.0 40h0.0"></path><path d="M438.0 40h0.0"></path><rect height="22" width="88.0" x="350.0" y="29"></rect><text x="394.0" y="44">capacity</text></g></g><path d="M438.0 40h20"></path></g><g>
<path d="M458.0 40h0.0"></path><path d="M586.0 40h0.0"></path><path d="M458.0 40a10 10 0 0 0 10 -10v0a10 10 0 0 1 10 -10"></path><g>
<path d="M478.0 20h88.0"></path></g><path d="M566.0 20a10 10 0 0 1 10 10v0a10 10 0 0 0 10 10"></path><path d="M458.0 40h20"></path><g class="terminal ">
<path d="M478.0 40h0.0"></path><path d="M566.0 40h0.0"></path><rect height="22" rx="10" ry="10" width="88.0" x="478.0" y="29"></rect><text x="522.0" y="44">NOCREATE</text></g><path d="M566.0 40h20"></path></g><path d="M586.0 40h10"></path><g class="terminal ">
<path d="M596.0 40h0.0"></path><path d="M658.5 40h0.0"></path><rect height="22" rx="10" ry="10" width="62.5" x="596.0" y="29"></rect><text x="627.25" y="44">ITEMS</text></g><path d="M658.5 40h10"></path><path d="M668.5 40h10"></path><g>
<path d="M678.5 40h0.0"></path><path d="M752.5 40h0.0"></path><path d="M678.5 40h10"></path><g class="non-terminal ">
<path d="M688.5 40h0.0"></path><path d="M742.5 40h0.0"></path><rect height="22" width="54.0" x="688.5" y="29"></rect><text x="715.5" y="44">item</text></g><path d="M742.5 40h10"></path><path d="M688.5 40a10 10 0 0 0 -10 10v0a10 10 0 0 0 10 10"></path><g>
<path d="M688.5 60h54.0"></path></g><path d="M742.5 60a10 10 0 0 0 10 -10v0a10 10 0 0 0 -10 -10"></path></g></g><path d="M752.5 40h10"></path><path d="M 762.5 40 h 20 m -10 -10 v 20 m 10 -20 v 20"></path></g></svg>