<svg class="railroad-diagram" height="101" viewBox="0 0 474.0 101" width="474.0" xmlns="http://www.w3.org/2000/svg" xmlns:xlink="http://www.w3.org/1999/xlink">
<defs>
<style type="text/css"><![CDATA[
svg.railroad-diagram { background-color: transparent; }
.terminal rect { fill: #DC382D !important; stroke: #DC382D !important; }
.terminal text { fill: white !important; font-weight: bold; }
.nonterminal rect { fill: none !important; stroke: #DC382D !important; stroke-width: 2; }
.nonterminal text { fill: #DC382D !important; font-weight: bold; }
path { stroke: #DC382D !important; stroke-width: 2; fill: none; }
circle { fill: #DC382D !important; stroke: #DC382D !important; }
]]></style>
</defs>
<g transform="translate(.5 .5)">
<style>/* <![CDATA[ */
	svg.railroad-diagram {
		background-color: transparent;
	}
	svg.railroad-diagram path {
		stroke-width:3;
		stroke: #DC382D;
		fill:rgba(0,0,0,0);
	}
	svg.railroad-diagram text {
		font:bold 14px monospace;
		text-anchor:middle;
	}
	svg.railroad-diagram text.label{
		text-anchor:start;
	}
	svg.railroad-diagram text.comment{
		font:italic 12px monospace;
	}
	svg.railroad-diagram rect{
		stroke-width:3;
		stroke: #DC382D;
		fill: none;
	}
	svg.railroad-diagram rect.group-box {
		stroke: #DC382D;
		stroke-dasharray: 10 5;
		fill: none;
	}

/* ]]> */
</style><g>
<path d="M20 30v20m10 -20v20m-10 -10h20"></path></g><path d="M40 40h10"></path><g>
<path d="M50 40h0.0"></path><path d="M424.0 40h0.0"></path><g class="terminal ">
<path d="M50.0 40h0.0"></path><path d="M172.0 40h0.0"></path><rect height="22" rx="10" ry="10" width="122.0" x="50.0" y="29"></rect><text x="111.0" y="44">CLIENT PAUSE</text></g><path d="M172.0 40h10"></path><path d="M182.0 40h10"></path><g class="non-terminal ">
<path d="M192.0 40h0.0"></path><path d="M271.5 40h0.0"></path><rect height="22" width="79.5" x="192.0" y="29"></rect><text x="231.75" y="44">timeout</text></g><path d="M271.5 40h10"></path><g>
<path d="M281.5 40h0.0"></path><path d="M424.0 40h0.0"></path><path d="M281.5 40a10 10 0 0 0 10 -10v0a10 10 0 0 1 10 -10"></path><g>
<path d="M301.5 20h102.5"></path></g><path d="M404.0 20a10 10 0 0 1 10 10v0a10 10 0 0 0 10 10"></path><path d="M281.5 40h20"></path><g>
<path d="M301.5 40h0.0"></path><path d="M404.0 40h0.0"></path><path d="M301.5 40h20"></path><g class="terminal ">
<path d="M321.5 40h0.0"></path><path d="M384.0 40h0.0"></path><rect height="22" rx="10" ry="10" width="62.5" x="321.5" y="29"></rect><text x="352.75" y="44">WRITE</text></g><path d="M384.0 40h20"></path><path d="M301.5 40a10 10 0 0 1 10 10v10a10 10 0 0 0 10 10"></path><g class="terminal ">
<path d="M321.5 70h8.5"></path><path d="M375.5 70h8.5"></path><rect height="22" rx="10" ry="10" width="45.5" x="330.0" y="59"></rect><text x="352.75" y="74">ALL</text></g><path d="M384.0 70a10 10 0 0 0 10 -10v-10a10 10 0 0 1 10 -10"></path></g><path d="M404.0 40h20"></path></g></g><path d="M424.0 40h10"></path><path d="M 434.0 40 h 20 m -10 -10 v 20 m 10 -20 v 20"></path></g></svg>