<svg class="railroad-diagram" height="161" viewBox="0 0 596.5 161" width="596.5" xmlns="http://www.w3.org/2000/svg" xmlns:xlink="http://www.w3.org/1999/xlink">
<defs>
<style type="text/css"><![CDATA[
svg.railroad-diagram { background-color: transparent; }
.terminal rect { fill: #DC382D !important; stroke: #DC382D !important; }
.terminal text { fill: white !important; font-weight: bold; }
.nonterminal rect { fill: none !important; stroke: #DC382D !important; stroke-width: 2; }
.nonterminal text { fill: #DC382D !important; font-weight: bold; }
path { stroke: #DC382D !important; stroke-width: 2; fill: none; }
circle { fill: #DC382D !important; stroke: #DC382D !important; }
]]></style>
</defs>
<g transform="translate(.5 .5)">
<style>/* <![CDATA[ */
	svg.railroad-diagram {
		background-color: transparent;
	}
	svg.railroad-diagram path {
		stroke-width:3;
		stroke: #DC382D;
		fill:rgba(0,0,0,0);
	}
	svg.railroad-diagram text {
		font:bold 14px monospace;
		text-anchor:middle;
	}
	svg.railroad-diagram text.label{
		text-anchor:start;
	}
	svg.railroad-diagram text.comment{
		font:italic 12px monospace;
	}
	svg.railroad-diagram rect{
		stroke-width:3;
		stroke: #DC382D;
		fill: none;
	}
	svg.railroad-diagram rect.group-box {
		stroke: #DC382D;
		stroke-dasharray: 10 5;
		fill: none;
	}

/* ]]> */
</style><g>
<path d="M20 30v20m10 -20v20m-10 -10h20"></path></g><path d="M40 40h10"></path><g>
<path d="M50 40h0.0"></path><path d="M546.5 40h0.0"></path><g class="terminal ">
<path d="M50.0 40h0.0"></path><path d="M163.5 40h0.0"></path><rect height="22" rx="10" ry="10" width="113.5" x="50.0" y="29"></rect><text x="106.75" y="44">CLIENT LIST</text></g><path d="M163.5 40h10"></path><g>
<path d="M173.5 40h0.0"></path><path d="M333.0 40h0.0"></path><path d="M173.5 40a10 10 0 0 0 10 -10v0a10 10 0 0 1 10 -10"></path><g>
<path d="M193.5 20h119.5"></path></g><path d="M313.0 20a10 10 0 0 1 10 10v0a10 10 0 0 0 10 10"></path><path d="M173.5 40h20"></path><g>
<path d="M193.5 40h0.0"></path><path d="M313.0 40h0.0"></path><path d="M193.5 40h20"></path><g class="terminal ">
<path d="M213.5 40h4.25"></path><path d="M288.75 40h4.25"></path><rect height="22" rx="10" ry="10" width="71.0" x="217.75" y="29"></rect><text x="253.25" y="44">NORMAL</text></g><path d="M293.0 40h20"></path><path d="M193.5 40a10 10 0 0 1 10 10v10a10 10 0 0 0 10 10"></path><g class="terminal ">
<path d="M213.5 70h4.25"></path><path d="M288.75 70h4.25"></path><rect height="22" rx="10" ry="10" width="71.0" x="217.75" y="59"></rect><text x="253.25" y="74">MASTER</text></g><path d="M293.0 70a10 10 0 0 0 10 -10v-10a10 10 0 0 1 10 -10"></path><path d="M193.5 40a10 10 0 0 1 10 10v40a10 10 0 0 0 10 10"></path><g class="terminal ">
<path d="M213.5 100h0.0"></path><path d="M293.0 100h0.0"></path><rect height="22" rx="10" ry="10" width="79.5" x="213.5" y="89"></rect><text x="253.25" y="104">REPLICA</text></g><path d="M293.0 100a10 10 0 0 0 10 -10v-40a10 10 0 0 1 10 -10"></path><path d="M193.5 40a10 10 0 0 1 10 10v70a10 10 0 0 0 10 10"></path><g class="terminal ">
<path d="M213.5 130h4.25"></path><path d="M288.75 130h4.25"></path><rect height="22" rx="10" ry="10" width="71.0" x="217.75" y="119"></rect><text x="253.25" y="134">PUBSUB</text></g><path d="M293.0 130a10 10 0 0 0 10 -10v-70a10 10 0 0 1 10 -10"></path></g><path d="M313.0 40h20"></path></g><g>
<path d="M333.0 40h0.0"></path><path d="M546.5 40h0.0"></path><path d="M333.0 40a10 10 0 0 0 10 -10v0a10 10 0 0 1 10 -10"></path><g>
<path d="M353.0 20h173.5"></path></g><path d="M526.5 20a10 10 0 0 1 10 10v0a10 10 0 0 0 10 10"></path><path d="M333.0 40h20"></path><g>
<path d="M353.0 40h0.0"></path><path d="M526.5 40h0.0"></path><path d="M353.0 40h10"></path><g>
<path d="M363.0 40h0.0"></path><path d="M516.5 40h0.0"></path><g class="terminal ">
<path d="M363.0 40h0.0"></path><path d="M400.0 40h0.0"></path><rect height="22" rx="10" ry="10" width="37.0" x="363.0" y="29"></rect><text x="381.5" y="44">ID</text></g><path d="M400.0 40h10"></path><path d="M410.0 40h10"></path><g class="non-terminal ">
<path d="M420.0 40h0.0"></path><path d="M516.5 40h0.0"></path><rect height="22" width="96.5" x="420.0" y="29"></rect><text x="468.25" y="44">client-id</text></g></g><path d="M516.5 40h10"></path><path d="M363.0 40a10 10 0 0 0 -10 10v0a10 10 0 0 0 10 10"></path><g>
<path d="M363.0 60h153.5"></path></g><path d="M516.5 60a10 10 0 0 0 10 -10v0a10 10 0 0 0 -10 -10"></path></g><path d="M526.5 40h20"></path></g></g><path d="M546.5 40h10"></path><path d="M 556.5 40 h 20 m -10 -10 v 20 m 10 -20 v 20"></path></g></svg>