<svg class="railroad-diagram" height="501" viewBox="0 0 850.5 501" width="850.5" xmlns="http://www.w3.org/2000/svg" xmlns:xlink="http://www.w3.org/1999/xlink">
<defs>
<style type="text/css"><![CDATA[
svg.railroad-diagram { background-color: transparent; }
.terminal rect { fill: #DC382D !important; stroke: #DC382D !important; }
.terminal text { fill: white !important; font-weight: bold; }
.nonterminal rect { fill: none !important; stroke: #DC382D !important; stroke-width: 2; }
.nonterminal text { fill: #DC382D !important; font-weight: bold; }
path { stroke: #DC382D !important; stroke-width: 2; fill: none; }
circle { fill: #DC382D !important; stroke: #DC382D !important; }
]]></style>
</defs>
<g transform="translate(.5 .5)">
<style>/* <![CDATA[ */
	svg.railroad-diagram {
		background-color: transparent;
	}
	svg.railroad-diagram path {
		stroke-width:3;
		stroke: #DC382D;
		fill:rgba(0,0,0,0);
	}
	svg.railroad-diagram text {
		font:bold 14px monospace;
		text-anchor:middle;
	}
	svg.railroad-diagram text.label{
		text-anchor:start;
	}
	svg.railroad-diagram text.comment{
		font:italic 12px monospace;
	}
	svg.railroad-diagram rect{
		stroke-width:3;
		stroke: #DC382D;
		fill: none;
	}
	svg.railroad-diagram rect.group-box {
		stroke: #DC382D;
		stroke-dasharray: 10 5;
		fill: none;
	}

/* ]]> */
</style><g>
<path d="M20 21v20m10 -20v20m-10 -10h20"></path></g><path d="M40 31h10"></path><g>
<path d="M50 31h0.0"></path><path d="M800.5 31h0.0"></path><g class="terminal ">
<path d="M50.0 31h0.0"></path><path d="M163.5 31h0.0"></path><rect height="22" rx="10" ry="10" width="113.5" x="50.0" y="20"></rect><text x="106.75" y="35">CLIENT KILL</text></g><path d="M163.5 31h10"></path><g>
<path d="M173.5 31h0.0"></path><path d="M800.5 31h0.0"></path><path d="M173.5 31h20"></path><g class="non-terminal ">
<path d="M193.5 31h253.75"></path><path d="M526.75 31h253.75"></path><rect height="22" width="79.5" x="447.25" y="20"></rect><text x="487.0" y="35">ip:port</text></g><path d="M780.5 31h20"></path><path d="M173.5 31a10 10 0 0 1 10 10v27a10 10 0 0 0 10 10"></path><g>
<path d="M193.5 78h0.0"></path><path d="M780.5 78h0.0"></path><g>
<path d="M193.5 78h0.0"></path><path d="M457.0 78h0.0"></path><path d="M193.5 78h20"></path><g>
<path d="M213.5 78h15.0"></path><path d="M422.0 78h15.0"></path><path d="M228.5 78a10 10 0 0 0 10 -10v0a10 10 0 0 1 10 -10"></path><g>
<path d="M248.5 58h153.5"></path></g><path d="M402.0 58a10 10 0 0 1 10 10v0a10 10 0 0 0 10 10"></path><path d="M228.5 78h20"></path><g>
<path d="M248.5 78h0.0"></path><path d="M402.0 78h0.0"></path><g class="terminal ">
<path d="M248.5 78h0.0"></path><path d="M285.5 78h0.0"></path><rect height="22" rx="10" ry="10" width="37.0" x="248.5" y="67"></rect><text x="267.0" y="82">ID</text></g><path d="M285.5 78h10"></path><path d="M295.5 78h10"></path><g class="non-terminal ">
<path d="M305.5 78h0.0"></path><path d="M402.0 78h0.0"></path><rect height="22" width="96.5" x="305.5" y="67"></rect><text x="353.75" y="82">client-id</text></g></g><path d="M402.0 78h20"></path></g><path d="M437.0 78h20"></path><path d="M193.5 78a10 10 0 0 1 10 10v19a10 10 0 0 0 10 10"></path><g>
<path d="M213.5 117h0.0"></path><path d="M437.0 117h0.0"></path><path d="M213.5 117a10 10 0 0 0 10 -10v0a10 10 0 0 1 10 -10"></path><g>
<path d="M233.5 97h183.5"></path></g><path d="M417.0 97a10 10 0 0 1 10 10v0a10 10 0 0 0 10 10"></path><path d="M213.5 117h20"></path><g>
<path d="M233.5 117h0.0"></path><path d="M417.0 117h0.0"></path><g class="terminal ">
<path d="M233.5 117h0.0"></path><path d="M287.5 117h0.0"></path><rect height="22" rx="10" ry="10" width="54.0" x="233.5" y="106"></rect><text x="260.5" y="121">TYPE</text></g><path d="M287.5 117h10"></path><g>
<path d="M297.5 117h0.0"></path><path d="M417.0 117h0.0"></path><path d="M297.5 117h20"></path><g class="terminal ">
<path d="M317.5 117h4.25"></path><path d="M392.75 117h4.25"></path><rect height="22" rx="10" ry="10" width="71.0" x="321.75" y="106"></rect><text x="357.25" y="121">NORMAL</text></g><path d="M397.0 117h20"></path><path d="M297.5 117a10 10 0 0 1 10 10v10a10 10 0 0 0 10 10"></path><g class="terminal ">
<path d="M317.5 147h4.25"></path><path d="M392.75 147h4.25"></path><rect height="22" rx="10" ry="10" width="71.0" x="321.75" y="136"></rect><text x="357.25" y="151">MASTER</text></g><path d="M397.0 147a10 10 0 0 0 10 -10v-10a10 10 0 0 1 10 -10"></path><path d="M297.5 117a10 10 0 0 1 10 10v40a10 10 0 0 0 10 10"></path><g class="terminal ">
<path d="M317.5 177h8.5"></path><path d="M388.5 177h8.5"></path><rect height="22" rx="10" ry="10" width="62.5" x="326.0" y="166"></rect><text x="357.25" y="181">SLAVE</text></g><path d="M397.0 177a10 10 0 0 0 10 -10v-40a10 10 0 0 1 10 -10"></path><path d="M297.5 117a10 10 0 0 1 10 10v70a10 10 0 0 0 10 10"></path><g class="terminal ">
<path d="M317.5 207h0.0"></path><path d="M397.0 207h0.0"></path><rect height="22" rx="10" ry="10" width="79.5" x="317.5" y="196"></rect><text x="357.25" y="211">REPLICA</text></g><path d="M397.0 207a10 10 0 0 0 10 -10v-70a10 10 0 0 1 10 -10"></path><path d="M297.5 117a10 10 0 0 1 10 10v100a10 10 0 0 0 10 10"></path><g class="terminal ">
<path d="M317.5 237h4.25"></path><path d="M392.75 237h4.25"></path><rect height="22" rx="10" ry="10" width="71.0" x="321.75" y="226"></rect><text x="357.25" y="241">PUBSUB</text></g><path d="M397.0 237a10 10 0 0 0 10 -10v-100a10 10 0 0 1 10 -10"></path></g></g><path d="M417.0 117h20"></path></g><path d="M437.0 117a10 10 0 0 0 10 -10v-19a10 10 0 0 1 10 -10"></path><path d="M193.5 78a10 10 0 0 1 10 10v178a10 10 0 0 0 10 10"></path><g>
<path d="M213.5 276h10.75"></path><path d="M426.25 276h10.75"></path><path d="M224.25 276a10 10 0 0 0 10 -10v0a10 10 0 0 1 10 -10"></path><g>
<path d="M244.25 256h162.0"></path></g><path d="M406.25 256a10 10 0 0 1 10 10v0a10 10 0 0 0 10 10"></path><path d="M224.25 276h20"></path><g>
<path d="M244.25 276h0.0"></path><path d="M406.25 276h0.0"></path><g class="terminal ">
<path d="M244.25 276h0.0"></path><path d="M298.25 276h0.0"></path><rect height="22" rx="10" ry="10" width="54.0" x="244.25" y="265"></rect><text x="271.25" y="280">USER</text></g><path d="M298.25 276h10"></path><path d="M308.25 276h10"></path><g class="non-terminal ">
<path d="M318.25 276h0.0"></path><path d="M406.25 276h0.0"></path><rect height="22" width="88.0" x="318.25" y="265"></rect><text x="362.25" y="280">username</text></g></g><path d="M406.25 276h20"></path></g><path d="M437.0 276a10 10 0 0 0 10 -10v-178a10 10 0 0 1 10 -10"></path><path d="M193.5 78a10 10 0 0 1 10 10v217a10 10 0 0 0 10 10"></path><g>
<path d="M213.5 315h15.0"></path><path d="M422.0 315h15.0"></path><path d="M228.5 315a10 10 0 0 0 10 -10v0a10 10 0 0 1 10 -10"></path><g>
<path d="M248.5 295h153.5"></path></g><path d="M402.0 295a10 10 0 0 1 10 10v0a10 10 0 0 0 10 10"></path><path d="M228.5 315h20"></path><g>
<path d="M248.5 315h0.0"></path><path d="M402.0 315h0.0"></path><g class="terminal ">
<path d="M248.5 315h0.0"></path><path d="M302.5 315h0.0"></path><rect height="22" rx="10" ry="10" width="54.0" x="248.5" y="304"></rect><text x="275.5" y="319">ADDR</text></g><path d="M302.5 315h10"></path><path d="M312.5 315h10"></path><g class="non-terminal ">
<path d="M322.5 315h0.0"></path><path d="M402.0 315h0.0"></path><rect height="22" width="79.5" x="322.5" y="304"></rect><text x="362.25" y="319">ip:port</text></g></g><path d="M402.0 315h20"></path></g><path d="M437.0 315a10 10 0 0 0 10 -10v-217a10 10 0 0 1 10 -10"></path><path d="M193.5 78a10 10 0 0 1 10 10v256a10 10 0 0 0 10 10"></path><g>
<path d="M213.5 354h10.75"></path><path d="M426.25 354h10.75"></path><path d="M224.25 354a10 10 0 0 0 10 -10v0a10 10 0 0 1 10 -10"></path><g>
<path d="M244.25 334h162.0"></path></g><path d="M406.25 334a10 10 0 0 1 10 10v0a10 10 0 0 0 10 10"></path><path d="M224.25 354h20"></path><g>
<path d="M244.25 354h0.0"></path><path d="M406.25 354h0.0"></path><g class="terminal ">
<path d="M244.25 354h0.0"></path><path d="M306.75 354h0.0"></path><rect height="22" rx="10" ry="10" width="62.5" x="244.25" y="343"></rect><text x="275.5" y="358">LADDR</text></g><path d="M306.75 354h10"></path><path d="M316.75 354h10"></path><g class="non-terminal ">
<path d="M326.75 354h0.0"></path><path d="M406.25 354h0.0"></path><rect height="22" width="79.5" x="326.75" y="343"></rect><text x="366.5" y="358">ip:port</text></g></g><path d="M406.25 354h20"></path></g><path d="M437.0 354a10 10 0 0 0 10 -10v-256a10 10 0 0 1 10 -10"></path><path d="M193.5 78a10 10 0 0 1 10 10v295a10 10 0 0 0 10 10"></path><g>
<path d="M213.5 393h8.5"></path><path d="M428.5 393h8.5"></path><path d="M222.0 393a10 10 0 0 0 10 -10v0a10 10 0 0 1 10 -10"></path><g>
<path d="M242.0 373h166.5"></path></g><path d="M408.5 373a10 10 0 0 1 10 10v0a10 10 0 0 0 10 10"></path><path d="M222.0 393h20"></path><g>
<path d="M242.0 393h0.0"></path><path d="M408.5 393h0.0"></path><g class="terminal ">
<path d="M242.0 393h0.0"></path><path d="M313.0 393h0.0"></path><rect height="22" rx="10" ry="10" width="71.0" x="242.0" y="382"></rect><text x="277.5" y="397">SKIPME</text></g><path d="M313.0 393h10"></path><g>
<path d="M323.0 393h0.0"></path><path d="M408.5 393h0.0"></path><path d="M323.0 393h20"></path><g class="terminal ">
<path d="M343.0 393h0.0"></path><path d="M388.5 393h0.0"></path><rect height="22" rx="10" ry="10" width="45.5" x="343.0" y="382"></rect><text x="365.75" y="397">YES</text></g><path d="M388.5 393h20"></path><path d="M323.0 393a10 10 0 0 1 10 10v10a10 10 0 0 0 10 10"></path><g class="terminal ">
<path d="M343.0 423h4.25"></path><path d="M384.25 423h4.25"></path><rect height="22" rx="10" ry="10" width="37.0" x="347.25" y="412"></rect><text x="365.75" y="427">NO</text></g><path d="M388.5 423a10 10 0 0 0 10 -10v-10a10 10 0 0 1 10 -10"></path></g></g><path d="M408.5 393h20"></path></g><path d="M437.0 393a10 10 0 0 0 10 -10v-295a10 10 0 0 1 10 -10"></path><path d="M193.5 78a10 10 0 0 1 10 10v364a10 10 0 0 0 10 10"></path><g>
<path d="M213.5 462h10.75"></path><path d="M426.25 462h10.75"></path><path d="M224.25 462a10 10 0 0 0 10 -10v0a10 10 0 0 1 10 -10"></path><g>
<path d="M244.25 442h162.0"></path></g><path d="M406.25 442a10 10 0 0 1 10 10v0a10 10 0 0 0 10 10"></path><path d="M224.25 462h20"></path><g>
<path d="M244.25 462h0.0"></path><path d="M406.25 462h0.0"></path><g class="terminal ">
<path d="M244.25 462h0.0"></path><path d="M315.25 462h0.0"></path><rect height="22" rx="10" ry="10" width="71.0" x="244.25" y="451"></rect><text x="279.75" y="466">MAXAGE</text></g><path d="M315.25 462h10"></path><path d="M325.25 462h10"></path><g class="non-terminal ">
<path d="M335.25 462h0.0"></path><path d="M406.25 462h0.0"></path><rect height="22" width="71.0" x="335.25" y="451"></rect><text x="370.75" y="466">maxage</text></g></g><path d="M406.25 462h20"></path></g><path d="M437.0 462a10 10 0 0 0 10 -10v-364a10 10 0 0 1 10 -10"></path></g><g>
<path d="M457.0 78h0.0"></path><path d="M780.5 78h0.0"></path><path d="M457.0 78a10 10 0 0 0 10 -10v-8a10 10 0 0 1 10 -10"></path><g>
<path d="M477.0 50h283.5"></path></g><path d="M760.5 50a10 10 0 0 1 10 10v8a10 10 0 0 0 10 10"></path><path d="M457.0 78h20"></path><g>
<path d="M477.0 78h0.0"></path><path d="M760.5 78h0.0"></path><path d="M477.0 78h10"></path><g>
<path d="M487.0 78h0.0"></path><path d="M750.5 78h0.0"></path><path d="M487.0 78h20"></path><g>
<path d="M507.0 78h15.0"></path><path d="M715.5 78h15.0"></path><path d="M522.0 78a10 10 0 0 0 10 -10v0a10 10 0 0 1 10 -10"></path><g>
<path d="M542.0 58h153.5"></path></g><path d="M695.5 58a10 10 0 0 1 10 10v0a10 10 0 0 0 10 10"></path><path d="M522.0 78h20"></path><g>
<path d="M542.0 78h0.0"></path><path d="M695.5 78h0.0"></path><g class="terminal ">
<path d="M542.0 78h0.0"></path><path d="M579.0 78h0.0"></path><rect height="22" rx="10" ry="10" width="37.0" x="542.0" y="67"></rect><text x="560.5" y="82">ID</text></g><path d="M579.0 78h10"></path><path d="M589.0 78h10"></path><g class="non-terminal ">
<path d="M599.0 78h0.0"></path><path d="M695.5 78h0.0"></path><rect height="22" width="96.5" x="599.0" y="67"></rect><text x="647.25" y="82">client-id</text></g></g><path d="M695.5 78h20"></path></g><path d="M730.5 78h20"></path><path d="M487.0 78a10 10 0 0 1 10 10v19a10 10 0 0 0 10 10"></path><g>
<path d="M507.0 117h0.0"></path><path d="M730.5 117h0.0"></path><path d="M507.0 117a10 10 0 0 0 10 -10v0a10 10 0 0 1 10 -10"></path><g>
<path d="M527.0 97h183.5"></path></g><path d="M710.5 97a10 10 0 0 1 10 10v0a10 10 0 0 0 10 10"></path><path d="M507.0 117h20"></path><g>
<path d="M527.0 117h0.0"></path><path d="M710.5 117h0.0"></path><g class="terminal ">
<path d="M527.0 117h0.0"></path><path d="M581.0 117h0.0"></path><rect height="22" rx="10" ry="10" width="54.0" x="527.0" y="106"></rect><text x="554.0" y="121">TYPE</text></g><path d="M581.0 117h10"></path><g>
<path d="M591.0 117h0.0"></path><path d="M710.5 117h0.0"></path><path d="M591.0 117h20"></path><g class="terminal ">
<path d="M611.0 117h4.25"></path><path d="M686.25 117h4.25"></path><rect height="22" rx="10" ry="10" width="71.0" x="615.25" y="106"></rect><text x="650.75" y="121">NORMAL</text></g><path d="M690.5 117h20"></path><path d="M591.0 117a10 10 0 0 1 10 10v10a10 10 0 0 0 10 10"></path><g class="terminal ">
<path d="M611.0 147h4.25"></path><path d="M686.25 147h4.25"></path><rect height="22" rx="10" ry="10" width="71.0" x="615.25" y="136"></rect><text x="650.75" y="151">MASTER</text></g><path d="M690.5 147a10 10 0 0 0 10 -10v-10a10 10 0 0 1 10 -10"></path><path d="M591.0 117a10 10 0 0 1 10 10v40a10 10 0 0 0 10 10"></path><g class="terminal ">
<path d="M611.0 177h8.5"></path><path d="M682.0 177h8.5"></path><rect height="22" rx="10" ry="10" width="62.5" x="619.5" y="166"></rect><text x="650.75" y="181">SLAVE</text></g><path d="M690.5 177a10 10 0 0 0 10 -10v-40a10 10 0 0 1 10 -10"></path><path d="M591.0 117a10 10 0 0 1 10 10v70a10 10 0 0 0 10 10"></path><g class="terminal ">
<path d="M611.0 207h0.0"></path><path d="M690.5 207h0.0"></path><rect height="22" rx="10" ry="10" width="79.5" x="611.0" y="196"></rect><text x="650.75" y="211">REPLICA</text></g><path d="M690.5 207a10 10 0 0 0 10 -10v-70a10 10 0 0 1 10 -10"></path><path d="M591.0 117a10 10 0 0 1 10 10v100a10 10 0 0 0 10 10"></path><g class="terminal ">
<path d="M611.0 237h4.25"></path><path d="M686.25 237h4.25"></path><rect height="22" rx="10" ry="10" width="71.0" x="615.25" y="226"></rect><text x="650.75" y="241">PUBSUB</text></g><path d="M690.5 237a10 10 0 0 0 10 -10v-100a10 10 0 0 1 10 -10"></path></g></g><path d="M710.5 117h20"></path></g><path d="M730.5 117a10 10 0 0 0 10 -10v-19a10 10 0 0 1 10 -10"></path><path d="M487.0 78a10 10 0 0 1 10 10v178a10 10 0 0 0 10 10"></path><g>
<path d="M507.0 276h10.75"></path><path d="M719.75 276h10.75"></path><path d="M517.75 276a10 10 0 0 0 10 -10v0a10 10 0 0 1 10 -10"></path><g>
<path d="M537.75 256h162.0"></path></g><path d="M699.75 256a10 10 0 0 1 10 10v0a10 10 0 0 0 10 10"></path><path d="M517.75 276h20"></path><g>
<path d="M537.75 276h0.0"></path><path d="M699.75 276h0.0"></path><g class="terminal ">
<path d="M537.75 276h0.0"></path><path d="M591.75 276h0.0"></path><rect height="22" rx="10" ry="10" width="54.0" x="537.75" y="265"></rect><text x="564.75" y="280">USER</text></g><path d="M591.75 276h10"></path><path d="M601.75 276h10"></path><g class="non-terminal ">
<path d="M611.75 276h0.0"></path><path d="M699.75 276h0.0"></path><rect height="22" width="88.0" x="611.75" y="265"></rect><text x="655.75" y="280">username</text></g></g><path d="M699.75 276h20"></path></g><path d="M730.5 276a10 10 0 0 0 10 -10v-178a10 10 0 0 1 10 -10"></path><path d="M487.0 78a10 10 0 0 1 10 10v217a10 10 0 0 0 10 10"></path><g>
<path d="M507.0 315h15.0"></path><path d="M715.5 315h15.0"></path><path d="M522.0 315a10 10 0 0 0 10 -10v0a10 10 0 0 1 10 -10"></path><g>
<path d="M542.0 295h153.5"></path></g><path d="M695.5 295a10 10 0 0 1 10 10v0a10 10 0 0 0 10 10"></path><path d="M522.0 315h20"></path><g>
<path d="M542.0 315h0.0"></path><path d="M695.5 315h0.0"></path><g class="terminal ">
<path d="M542.0 315h0.0"></path><path d="M596.0 315h0.0"></path><rect height="22" rx="10" ry="10" width="54.0" x="542.0" y="304"></rect><text x="569.0" y="319">ADDR</text></g><path d="M596.0 315h10"></path><path d="M606.0 315h10"></path><g class="non-terminal ">
<path d="M616.0 315h0.0"></path><path d="M695.5 315h0.0"></path><rect height="22" width="79.5" x="616.0" y="304"></rect><text x="655.75" y="319">ip:port</text></g></g><path d="M695.5 315h20"></path></g><path d="M730.5 315a10 10 0 0 0 10 -10v-217a10 10 0 0 1 10 -10"></path><path d="M487.0 78a10 10 0 0 1 10 10v256a10 10 0 0 0 10 10"></path><g>
<path d="M507.0 354h10.75"></path><path d="M719.75 354h10.75"></path><path d="M517.75 354a10 10 0 0 0 10 -10v0a10 10 0 0 1 10 -10"></path><g>
<path d="M537.75 334h162.0"></path></g><path d="M699.75 334a10 10 0 0 1 10 10v0a10 10 0 0 0 10 10"></path><path d="M517.75 354h20"></path><g>
<path d="M537.75 354h0.0"></path><path d="M699.75 354h0.0"></path><g class="terminal ">
<path d="M537.75 354h0.0"></path><path d="M600.25 354h0.0"></path><rect height="22" rx="10" ry="10" width="62.5" x="537.75" y="343"></rect><text x="569.0" y="358">LADDR</text></g><path d="M600.25 354h10"></path><path d="M610.25 354h10"></path><g class="non-terminal ">
<path d="M620.25 354h0.0"></path><path d="M699.75 354h0.0"></path><rect height="22" width="79.5" x="620.25" y="343"></rect><text x="660.0" y="358">ip:port</text></g></g><path d="M699.75 354h20"></path></g><path d="M730.5 354a10 10 0 0 0 10 -10v-256a10 10 0 0 1 10 -10"></path><path d="M487.0 78a10 10 0 0 1 10 10v295a10 10 0 0 0 10 10"></path><g>
<path d="M507.0 393h8.5"></path><path d="M722.0 393h8.5"></path><path d="M515.5 393a10 10 0 0 0 10 -10v0a10 10 0 0 1 10 -10"></path><g>
<path d="M535.5 373h166.5"></path></g><path d="M702.0 373a10 10 0 0 1 10 10v0a10 10 0 0 0 10 10"></path><path d="M515.5 393h20"></path><g>
<path d="M535.5 393h0.0"></path><path d="M702.0 393h0.0"></path><g class="terminal ">
<path d="M535.5 393h0.0"></path><path d="M606.5 393h0.0"></path><rect height="22" rx="10" ry="10" width="71.0" x="535.5" y="382"></rect><text x="571.0" y="397">SKIPME</text></g><path d="M606.5 393h10"></path><g>
<path d="M616.5 393h0.0"></path><path d="M702.0 393h0.0"></path><path d="M616.5 393h20"></path><g class="terminal ">
<path d="M636.5 393h0.0"></path><path d="M682.0 393h0.0"></path><rect height="22" rx="10" ry="10" width="45.5" x="636.5" y="382"></rect><text x="659.25" y="397">YES</text></g><path d="M682.0 393h20"></path><path d="M616.5 393a10 10 0 0 1 10 10v10a10 10 0 0 0 10 10"></path><g class="terminal ">
<path d="M636.5 423h4.25"></path><path d="M677.75 423h4.25"></path><rect height="22" rx="10" ry="10" width="37.0" x="640.75" y="412"></rect><text x="659.25" y="427">NO</text></g><path d="M682.0 423a10 10 0 0 0 10 -10v-10a10 10 0 0 1 10 -10"></path></g></g><path d="M702.0 393h20"></path></g><path d="M730.5 393a10 10 0 0 0 10 -10v-295a10 10 0 0 1 10 -10"></path><path d="M487.0 78a10 10 0 0 1 10 10v364a10 10 0 0 0 10 10"></path><g>
<path d="M507.0 462h10.75"></path><path d="M719.75 462h10.75"></path><path d="M517.75 462a10 10 0 0 0 10 -10v0a10 10 0 0 1 10 -10"></path><g>
<path d="M537.75 442h162.0"></path></g><path d="M699.75 442a10 10 0 0 1 10 10v0a10 10 0 0 0 10 10"></path><path d="M517.75 462h20"></path><g>
<path d="M537.75 462h0.0"></path><path d="M699.75 462h0.0"></path><g class="terminal ">
<path d="M537.75 462h0.0"></path><path d="M608.75 462h0.0"></path><rect height="22" rx="10" ry="10" width="71.0" x="537.75" y="451"></rect><text x="573.25" y="466">MAXAGE</text></g><path d="M608.75 462h10"></path><path d="M618.75 462h10"></path><g class="non-terminal ">
<path d="M628.75 462h0.0"></path><path d="M699.75 462h0.0"></path><rect height="22" width="71.0" x="628.75" y="451"></rect><text x="664.25" y="466">maxage</text></g></g><path d="M699.75 462h20"></path></g><path d="M730.5 462a10 10 0 0 0 10 -10v-364a10 10 0 0 1 10 -10"></path></g><path d="M750.5 78h10"></path><path d="M487.0 78a10 10 0 0 0 -10 10v383a10 10 0 0 0 10 10"></path><g>
<path d="M487.0 481h263.5"></path></g><path d="M750.5 481a10 10 0 0 0 10 -10v-383a10 10 0 0 0 -10 -10"></path></g><path d="M760.5 78h20"></path></g></g><path d="M780.5 78a10 10 0 0 0 10 -10v-27a10 10 0 0 1 10 -10"></path></g></g><path d="M800.5 31h10"></path><path d="M 810.5 31 h 20 m -10 -10 v 20 m 10 -20 v 20"></path></g></svg>