<svg class="railroad-diagram" height="92" viewBox="0 0 343.0 92" width="343.0" xmlns="http://www.w3.org/2000/svg" xmlns:xlink="http://www.w3.org/1999/xlink">
<defs>
<style type="text/css"><![CDATA[
svg.railroad-diagram { background-color: transparent; }
.terminal rect { fill: #DC382D !important; stroke: #DC382D !important; }
.terminal text { fill: white !important; font-weight: bold; }
.nonterminal rect { fill: none !important; stroke: #DC382D !important; stroke-width: 2; }
.nonterminal text { fill: #DC382D !important; font-weight: bold; }
path { stroke: #DC382D !important; stroke-width: 2; fill: none; }
circle { fill: #DC382D !important; stroke: #DC382D !important; }
]]></style>
</defs>
<g transform="translate(.5 .5)">
<style>/* <![CDATA[ */
	svg.railroad-diagram {
		background-color: transparent;
	}
	svg.railroad-diagram path {
		stroke-width:3;
		stroke: #DC382D;
		fill:rgba(0,0,0,0);
	}
	svg.railroad-diagram text {
		font:bold 14px monospace;
		text-anchor:middle;
	}
	svg.railroad-diagram text.label{
		text-anchor:start;
	}
	svg.railroad-diagram text.comment{
		font:italic 12px monospace;
	}
	svg.railroad-diagram rect{
		stroke-width:3;
		stroke: #DC382D;
		fill: none;
	}
	svg.railroad-diagram rect.group-box {
		stroke: #DC382D;
		stroke-dasharray: 10 5;
		fill: none;
	}

/* ]]> */
</style><g>
<path d="M20 21v20m10 -20v20m-10 -10h20"></path></g><path d="M40 31h10"></path><g>
<path d="M50 31h0.0"></path><path d="M293.0 31h0.0"></path><g class="terminal ">
<path d="M50.0 31h0.0"></path><path d="M197.5 31h0.0"></path><rect height="22" rx="10" ry="10" width="147.5" x="50.0" y="20"></rect><text x="123.75" y="35">CLIENT NO-TOUCH</text></g><path d="M197.5 31h10"></path><g>
<path d="M207.5 31h0.0"></path><path d="M293.0 31h0.0"></path><path d="M207.5 31h20"></path><g class="terminal ">
<path d="M227.5 31h4.25"></path><path d="M268.75 31h4.25"></path><rect height="22" rx="10" ry="10" width="37.0" x="231.75" y="20"></rect><text x="250.25" y="35">ON</text></g><path d="M273.0 31h20"></path><path d="M207.5 31a10 10 0 0 1 10 10v10a10 10 0 0 0 10 10"></path><g class="terminal ">
<path d="M227.5 61h0.0"></path><path d="M273.0 61h0.0"></path><rect height="22" rx="10" ry="10" width="45.5" x="227.5" y="50"></rect><text x="250.25" y="65">OFF</text></g><path d="M273.0 61a10 10 0 0 0 10 -10v-10a10 10 0 0 1 10 -10"></path></g></g><path d="M293.0 31h10"></path><path d="M 303.0 31 h 20 m -10 -10 v 20 m 10 -20 v 20"></path></g></svg>