<svg class="railroad-diagram" height="152" viewBox="0 0 567.5 152" width="567.5" xmlns="http://www.w3.org/2000/svg" xmlns:xlink="http://www.w3.org/1999/xlink">
<defs>
<style type="text/css"><![CDATA[
svg.railroad-diagram { background-color: transparent; }
.terminal rect { fill: #DC382D !important; stroke: #DC382D !important; }
.terminal text { fill: white !important; font-weight: bold; }
.nonterminal rect { fill: none !important; stroke: #DC382D !important; stroke-width: 2; }
.nonterminal text { fill: #DC382D !important; font-weight: bold; }
path { stroke: #DC382D !important; stroke-width: 2; fill: none; }
circle { fill: #DC382D !important; stroke: #DC382D !important; }
]]></style>
</defs>
<g transform="translate(.5 .5)">
<style>/* <![CDATA[ */
	svg.railroad-diagram {
		background-color: transparent;
	}
	svg.railroad-diagram path {
		stroke-width:3;
		stroke: #DC382D;
		fill:rgba(0,0,0,0);
	}
	svg.railroad-diagram text {
		font:bold 14px monospace;
		text-anchor:middle;
	}
	svg.railroad-diagram text.label{
		text-anchor:start;
	}
	svg.railroad-diagram text.comment{
		font:italic 12px monospace;
	}
	svg.railroad-diagram rect{
		stroke-width:3;
		stroke: #DC382D;
		fill: none;
	}
	svg.railroad-diagram rect.group-box {
		stroke: #DC382D;
		stroke-dasharray: 10 5;
		fill: none;
	}

/* ]]> */
</style><g>
<path d="M20 21v20m10 -20v20m-10 -10h20"></path></g><path d="M40 31h10"></path><g>
<path d="M50 31h0.0"></path><path d="M517.5 31h0.0"></path><g class="terminal ">
<path d="M50.0 31h0.0"></path><path d="M197.5 31h0.0"></path><rect height="22" rx="10" ry="10" width="147.5" x="50.0" y="20"></rect><text x="123.75" y="35">CLUSTER SETSLOT</text></g><path d="M197.5 31h10"></path><path d="M207.5 31h10"></path><g class="non-terminal ">
<path d="M217.5 31h0.0"></path><path d="M271.5 31h0.0"></path><rect height="22" width="54.0" x="217.5" y="20"></rect><text x="244.5" y="35">slot</text></g><path d="M271.5 31h10"></path><g>
<path d="M281.5 31h0.0"></path><path d="M517.5 31h0.0"></path><path d="M281.5 31h20"></path><g>
<path d="M301.5 31h0.0"></path><path d="M497.5 31h0.0"></path><g class="terminal ">
<path d="M301.5 31h0.0"></path><path d="M398.0 31h0.0"></path><rect height="22" rx="10" ry="10" width="96.5" x="301.5" y="20"></rect><text x="349.75" y="35">IMPORTING</text></g><path d="M398.0 31h10"></path><path d="M408.0 31h10"></path><g class="non-terminal ">
<path d="M418.0 31h0.0"></path><path d="M497.5 31h0.0"></path><rect height="22" width="79.5" x="418.0" y="20"></rect><text x="457.75" y="35">node-id</text></g></g><path d="M497.5 31h20"></path><path d="M281.5 31a10 10 0 0 1 10 10v10a10 10 0 0 0 10 10"></path><g>
<path d="M301.5 61h0.0"></path><path d="M497.5 61h0.0"></path><g class="terminal ">
<path d="M301.5 61h0.0"></path><path d="M398.0 61h0.0"></path><rect height="22" rx="10" ry="10" width="96.5" x="301.5" y="50"></rect><text x="349.75" y="65">MIGRATING</text></g><path d="M398.0 61h10"></path><path d="M408.0 61h10"></path><g class="non-terminal ">
<path d="M418.0 61h0.0"></path><path d="M497.5 61h0.0"></path><rect height="22" width="79.5" x="418.0" y="50"></rect><text x="457.75" y="65">node-id</text></g></g><path d="M497.5 61a10 10 0 0 0 10 -10v-10a10 10 0 0 1 10 -10"></path><path d="M281.5 31a10 10 0 0 1 10 10v40a10 10 0 0 0 10 10"></path><g>
<path d="M301.5 91h21.25"></path><path d="M476.25 91h21.25"></path><g class="terminal ">
<path d="M322.75 91h0.0"></path><path d="M376.75 91h0.0"></path><rect height="22" rx="10" ry="10" width="54.0" x="322.75" y="80"></rect><text x="349.75" y="95">NODE</text></g><path d="M376.75 91h10"></path><path d="M386.75 91h10"></path><g class="non-terminal ">
<path d="M396.75 91h0.0"></path><path d="M476.25 91h0.0"></path><rect height="22" width="79.5" x="396.75" y="80"></rect><text x="436.5" y="95">node-id</text></g></g><path d="M497.5 91a10 10 0 0 0 10 -10v-40a10 10 0 0 1 10 -10"></path><path d="M281.5 31a10 10 0 0 1 10 10v70a10 10 0 0 0 10 10"></path><g class="terminal ">
<path d="M301.5 121h62.5"></path><path d="M435.0 121h62.5"></path><rect height="22" rx="10" ry="10" width="71.0" x="364.0" y="110"></rect><text x="399.5" y="125">STABLE</text></g><path d="M497.5 121a10 10 0 0 0 10 -10v-70a10 10 0 0 1 10 -10"></path></g></g><path d="M517.5 31h10"></path><path d="M 527.5 31 h 20 m -10 -10 v 20 m 10 -20 v 20"></path></g></svg>