<svg class="railroad-diagram" height="209" viewBox="0 0 638.5 209" width="638.5" xmlns="http://www.w3.org/2000/svg" xmlns:xlink="http://www.w3.org/1999/xlink">
<defs>
<style type="text/css"><![CDATA[
svg.railroad-diagram { background-color: transparent; }
.terminal rect { fill: #DC382D !important; stroke: #DC382D !important; }
.terminal text { fill: white !important; font-weight: bold; }
.nonterminal rect { fill: none !important; stroke: #DC382D !important; stroke-width: 2; }
.nonterminal text { fill: #DC382D !important; font-weight: bold; }
path { stroke: #DC382D !important; stroke-width: 2; fill: none; }
circle { fill: #DC382D !important; stroke: #DC382D !important; }
]]></style>
</defs>
<g transform="translate(.5 .5)">
<style>/* <![CDATA[ */
	svg.railroad-diagram {
		background-color: transparent;
	}
	svg.railroad-diagram path {
		stroke-width:3;
		stroke: #DC382D;
		fill:rgba(0,0,0,0);
	}
	svg.railroad-diagram text {
		font:bold 14px monospace;
		text-anchor:middle;
	}
	svg.railroad-diagram text.label{
		text-anchor:start;
	}
	svg.railroad-diagram text.comment{
		font:italic 12px monospace;
	}
	svg.railroad-diagram rect{
		stroke-width:3;
		stroke: #DC382D;
		fill: none;
	}
	svg.railroad-diagram rect.group-box {
		stroke: #DC382D;
		stroke-dasharray: 10 5;
		fill: none;
	}

/* ]]> */
</style><g>
<path d="M20 21v20m10 -20v20m-10 -10h20"></path></g><path d="M40 31h10"></path><g>
<path d="M50 31h0.0"></path><path d="M588.5 31h0.0"></path><g class="terminal ">
<path d="M50.0 31h0.0"></path><path d="M214.5 31h0.0"></path><rect height="22" rx="10" ry="10" width="164.5" x="50.0" y="20"></rect><text x="132.25" y="35">CLUSTER MIGRATION</text></g><path d="M214.5 31h10"></path><g>
<path d="M224.5 31h0.0"></path><path d="M588.5 31h0.0"></path><path d="M224.5 31h20"></path><g>
<path d="M244.5 31h0.0"></path><path d="M568.5 31h0.0"></path><g class="terminal ">
<path d="M244.5 31h0.0"></path><path d="M315.5 31h0.0"></path><rect height="22" rx="10" ry="10" width="71.0" x="244.5" y="20"></rect><text x="280.0" y="35">IMPORT</text></g><path d="M315.5 31h10"></path><path d="M325.5 31h10"></path><g>
<path d="M335.5 31h0.0"></path><path d="M568.5 31h0.0"></path><path d="M335.5 31h10"></path><g>
<path d="M345.5 31h0.0"></path><path d="M558.5 31h0.0"></path><g class="non-terminal ">
<path d="M345.5 31h0.0"></path><path d="M450.5 31h0.0"></path><rect height="22" width="105.0" x="345.5" y="20"></rect><text x="398.0" y="35">start-slot</text></g><path d="M450.5 31h10"></path><path d="M460.5 31h10"></path><g class="non-terminal ">
<path d="M470.5 31h0.0"></path><path d="M558.5 31h0.0"></path><rect height="22" width="88.0" x="470.5" y="20"></rect><text x="514.5" y="35">end-slot</text></g></g><path d="M558.5 31h10"></path><path d="M345.5 31a10 10 0 0 0 -10 10v0a10 10 0 0 0 10 10"></path><g>
<path d="M345.5 51h213.0"></path></g><path d="M558.5 51a10 10 0 0 0 10 -10v0a10 10 0 0 0 -10 -10"></path></g></g><path d="M568.5 31h20"></path><path d="M224.5 31a10 10 0 0 1 10 10v19a10 10 0 0 0 10 10"></path><g>
<path d="M244.5 70h33.25"></path><path d="M535.25 70h33.25"></path><g class="terminal ">
<path d="M277.75 70h0.0"></path><path d="M348.75 70h0.0"></path><rect height="22" rx="10" ry="10" width="71.0" x="277.75" y="59"></rect><text x="313.25" y="74">CANCEL</text></g><path d="M348.75 70h10"></path><g>
<path d="M358.75 70h0.0"></path><path d="M535.25 70h0.0"></path><path d="M358.75 70h20"></path><g>
<path d="M378.75 70h0.0"></path><path d="M515.25 70h0.0"></path><g class="terminal ">
<path d="M378.75 70h0.0"></path><path d="M415.75 70h0.0"></path><rect height="22" rx="10" ry="10" width="37.0" x="378.75" y="59"></rect><text x="397.25" y="74">ID</text></g><path d="M415.75 70h10"></path><path d="M425.75 70h10"></path><g class="non-terminal ">
<path d="M435.75 70h0.0"></path><path d="M515.25 70h0.0"></path><rect height="22" width="79.5" x="435.75" y="59"></rect><text x="475.5" y="74">task-id</text></g></g><path d="M515.25 70h20"></path><path d="M358.75 70a10 10 0 0 1 10 10v10a10 10 0 0 0 10 10"></path><g class="terminal ">
<path d="M378.75 100h45.5"></path><path d="M469.75 100h45.5"></path><rect height="22" rx="10" ry="10" width="45.5" x="424.25" y="89"></rect><text x="447.0" y="104">ALL</text></g><path d="M515.25 100a10 10 0 0 0 10 -10v-10a10 10 0 0 1 10 -10"></path></g></g><path d="M568.5 70a10 10 0 0 0 10 -10v-19a10 10 0 0 1 10 -10"></path><path d="M224.5 31a10 10 0 0 1 10 10v88a10 10 0 0 0 10 10"></path><g>
<path d="M244.5 139h13.25"></path><path d="M555.25 139h13.25"></path><g class="terminal ">
<path d="M257.75 139h0.0"></path><path d="M328.75 139h0.0"></path><rect height="22" rx="10" ry="10" width="71.0" x="257.75" y="128"></rect><text x="293.25" y="143">STATUS</text></g><path d="M328.75 139h10"></path><g>
<path d="M338.75 139h0.0"></path><path d="M555.25 139h0.0"></path><path d="M338.75 139h20"></path><g>
<path d="M358.75 139h0.0"></path><path d="M535.25 139h0.0"></path><path d="M358.75 139a10 10 0 0 0 10 -10v0a10 10 0 0 1 10 -10"></path><g>
<path d="M378.75 119h136.5"></path></g><path d="M515.25 119a10 10 0 0 1 10 10v0a10 10 0 0 0 10 10"></path><path d="M358.75 139h20"></path><g>
<path d="M378.75 139h0.0"></path><path d="M515.25 139h0.0"></path><g class="terminal ">
<path d="M378.75 139h0.0"></path><path d="M415.75 139h0.0"></path><rect height="22" rx="10" ry="10" width="37.0" x="378.75" y="128"></rect><text x="397.25" y="143">ID</text></g><path d="M415.75 139h10"></path><path d="M425.75 139h10"></path><g class="non-terminal ">
<path d="M435.75 139h0.0"></path><path d="M515.25 139h0.0"></path><rect height="22" width="79.5" x="435.75" y="128"></rect><text x="475.5" y="143">task-id</text></g></g><path d="M515.25 139h20"></path></g><path d="M535.25 139h20"></path><path d="M338.75 139a10 10 0 0 1 10 10v19a10 10 0 0 0 10 10"></path><g>
<path d="M358.75 178h45.5"></path><path d="M489.75 178h45.5"></path><path d="M404.25 178a10 10 0 0 0 10 -10v0a10 10 0 0 1 10 -10"></path><g>
<path d="M424.25 158h45.5"></path></g><path d="M469.75 158a10 10 0 0 1 10 10v0a10 10 0 0 0 10 10"></path><path d="M404.25 178h20"></path><g class="terminal ">
<path d="M424.25 178h0.0"></path><path d="M469.75 178h0.0"></path><rect height="22" rx="10" ry="10" width="45.5" x="424.25" y="167"></rect><text x="447.0" y="182">ALL</text></g><path d="M469.75 178h20"></path></g><path d="M535.25 178a10 10 0 0 0 10 -10v-19a10 10 0 0 1 10 -10"></path></g></g><path d="M568.5 139a10 10 0 0 0 10 -10v-88a10 10 0 0 1 10 -10"></path></g></g><path d="M588.5 31h10"></path><path d="M 598.5 31 h 20 m -10 -10 v 20 m 10 -20 v 20"></path></g></svg>