<svg class="railroad-diagram" height="101" viewBox="0 0 374.5 101" width="374.5" xmlns="http://www.w3.org/2000/svg" xmlns:xlink="http://www.w3.org/1999/xlink">
<defs>
<style type="text/css"><![CDATA[
svg.railroad-diagram { background-color: transparent; }
.terminal rect { fill: #DC382D !important; stroke: #DC382D !important; }
.terminal text { fill: white !important; font-weight: bold; }
.nonterminal rect { fill: none !important; stroke: #DC382D !important; stroke-width: 2; }
.nonterminal text { fill: #DC382D !important; font-weight: bold; }
path { stroke: #DC382D !important; stroke-width: 2; fill: none; }
circle { fill: #DC382D !important; stroke: #DC382D !important; }
]]></style>
</defs>
<g transform="translate(.5 .5)">
<style>/* <![CDATA[ */
	svg.railroad-diagram {
		background-color: transparent;
	}
	svg.railroad-diagram path {
		stroke-width:3;
		stroke: #DC382D;
		fill:rgba(0,0,0,0);
	}
	svg.railroad-diagram text {
		font:bold 14px monospace;
		text-anchor:middle;
	}
	svg.railroad-diagram text.label{
		text-anchor:start;
	}
	svg.railroad-diagram text.comment{
		font:italic 12px monospace;
	}
	svg.railroad-diagram rect{
		stroke-width:3;
		stroke: #DC382D;
		fill: none;
	}
	svg.railroad-diagram rect.group-box {
		stroke: #DC382D;
		stroke-dasharray: 10 5;
		fill: none;
	}

/* ]]> */
</style><g>
<path d="M20 30v20m10 -20v20m-10 -10h20"></path></g><path d="M40 40h10"></path><g>
<path d="M50 40h0.0"></path><path d="M324.5 40h0.0"></path><g class="terminal ">
<path d="M50.0 40h0.0"></path><path d="M180.5 40h0.0"></path><rect height="22" rx="10" ry="10" width="130.5" x="50.0" y="29"></rect><text x="115.25" y="44">CLUSTER RESET</text></g><path d="M180.5 40h10"></path><g>
<path d="M190.5 40h0.0"></path><path d="M324.5 40h0.0"></path><path d="M190.5 40a10 10 0 0 0 10 -10v0a10 10 0 0 1 10 -10"></path><g>
<path d="M210.5 20h94.0"></path></g><path d="M304.5 20a10 10 0 0 1 10 10v0a10 10 0 0 0 10 10"></path><path d="M190.5 40h20"></path><g>
<path d="M210.5 40h0.0"></path><path d="M304.5 40h0.0"></path><path d="M210.5 40h20"></path><g class="terminal ">
<path d="M230.5 40h0.0"></path><path d="M284.5 40h0.0"></path><rect height="22" rx="10" ry="10" width="54.0" x="230.5" y="29"></rect><text x="257.5" y="44">HARD</text></g><path d="M284.5 40h20"></path><path d="M210.5 40a10 10 0 0 1 10 10v10a10 10 0 0 0 10 10"></path><g class="terminal ">
<path d="M230.5 70h0.0"></path><path d="M284.5 70h0.0"></path><rect height="22" rx="10" ry="10" width="54.0" x="230.5" y="59"></rect><text x="257.5" y="74">SOFT</text></g><path d="M284.5 70a10 10 0 0 0 10 -10v-10a10 10 0 0 1 10 -10"></path></g><path d="M304.5 40h20"></path></g></g><path d="M324.5 40h10"></path><path d="M 334.5 40 h 20 m -10 -10 v 20 m 10 -20 v 20"></path></g></svg>