<svg class="railroad-diagram" height="71" viewBox="0 0 551.5 71" width="551.5" xmlns="http://www.w3.org/2000/svg" xmlns:xlink="http://www.w3.org/1999/xlink">
<defs>
<style type="text/css"><![CDATA[
svg.railroad-diagram { background-color: transparent; }
.terminal rect { fill: #DC382D !important; stroke: #DC382D !important; }
.terminal text { fill: white !important; font-weight: bold; }
.nonterminal rect { fill: none !important; stroke: #DC382D !important; stroke-width: 2; }
.nonterminal text { fill: #DC382D !important; font-weight: bold; }
path { stroke: #DC382D !important; stroke-width: 2; fill: none; }
circle { fill: #DC382D !important; stroke: #DC382D !important; }
]]></style>
</defs>
<g transform="translate(.5 .5)">
<style>/* <![CDATA[ */
	svg.railroad-diagram {
		background-color: transparent;
	}
	svg.railroad-diagram path {
		stroke-width:3;
		stroke: #DC382D;
		fill:rgba(0,0,0,0);
	}
	svg.railroad-diagram text {
		font:bold 14px monospace;
		text-anchor:middle;
	}
	svg.railroad-diagram text.label{
		text-anchor:start;
	}
	svg.railroad-diagram text.comment{
		font:italic 12px monospace;
	}
	svg.railroad-diagram rect{
		stroke-width:3;
		stroke: #DC382D;
		fill: none;
	}
	svg.railroad-diagram rect.group-box {
		stroke: #DC382D;
		stroke-dasharray: 10 5;
		fill: none;
	}

/* ]]> */
</style><g>
<path d="M20 21v20m10 -20v20m-10 -10h20"></path></g><path d="M40 31h10"></path><g>
<path d="M50 31h0.0"></path><path d="M501.5 31h0.0"></path><g class="terminal ">
<path d="M50.0 31h0.0"></path><path d="M248.5 31h0.0"></path><rect height="22" rx="10" ry="10" width="198.5" x="50.0" y="20"></rect><text x="149.25" y="35">CLUSTER ADDSLOTSRANGE</text></g><path d="M248.5 31h10"></path><path d="M258.5 31h10"></path><g>
<path d="M268.5 31h0.0"></path><path d="M501.5 31h0.0"></path><path d="M268.5 31h10"></path><g>
<path d="M278.5 31h0.0"></path><path d="M491.5 31h0.0"></path><g class="non-terminal ">
<path d="M278.5 31h0.0"></path><path d="M383.5 31h0.0"></path><rect height="22" width="105.0" x="278.5" y="20"></rect><text x="331.0" y="35">start-slot</text></g><path d="M383.5 31h10"></path><path d="M393.5 31h10"></path><g class="non-terminal ">
<path d="M403.5 31h0.0"></path><path d="M491.5 31h0.0"></path><rect height="22" width="88.0" x="403.5" y="20"></rect><text x="447.5" y="35">end-slot</text></g></g><path d="M491.5 31h10"></path><path d="M278.5 31a10 10 0 0 0 -10 10v0a10 10 0 0 0 10 10"></path><g>
<path d="M278.5 51h213.0"></path></g><path d="M491.5 51a10 10 0 0 0 10 -10v0a10 10 0 0 0 -10 -10"></path></g></g><path d="M501.5 31h10"></path><path d="M 511.5 31 h 20 m -10 -10 v 20 m 10 -20 v 20"></path></g></svg>