<svg class="railroad-diagram" height="62" viewBox="0 0 520.5 62" width="520.5" xmlns="http://www.w3.org/2000/svg" xmlns:xlink="http://www.w3.org/1999/xlink">
<defs>
<style type="text/css"><![CDATA[
svg.railroad-diagram { background-color: transparent; }
.terminal rect { fill: #DC382D !important; stroke: #DC382D !important; }
.terminal text { fill: white !important; font-weight: bold; }
.nonterminal rect { fill: none !important; stroke: #DC382D !important; stroke-width: 2; }
.nonterminal text { fill: #DC382D !important; font-weight: bold; }
path { stroke: #DC382D !important; stroke-width: 2; fill: none; }
circle { fill: #DC382D !important; stroke: #DC382D !important; }
]]></style>
</defs>
<g transform="translate(.5 .5)">
<style>/* <![CDATA[ */
	svg.railroad-diagram {
		background-color: transparent;
	}
	svg.railroad-diagram path {
		stroke-width:3;
		stroke: #DC382D;
		fill:rgba(0,0,0,0);
	}
	svg.railroad-diagram text {
		font:bold 14px monospace;
		text-anchor:middle;
	}
	svg.railroad-diagram text.label{
		text-anchor:start;
	}
	svg.railroad-diagram text.comment{
		font:italic 12px monospace;
	}
	svg.railroad-diagram rect{
		stroke-width:3;
		stroke: #DC382D;
		fill: none;
	}
	svg.railroad-diagram rect.group-box {
		stroke: #DC382D;
		stroke-dasharray: 10 5;
		fill: none;
	}

/* ]]> */
</style><g>
<path d="M20 21v20m10 -20v20m-10 -10h20"></path></g><path d="M40 31h10"></path><g>
<path d="M50 31h0.0"></path><path d="M470.5 31h0.0"></path><g class="terminal ">
<path d="M50.0 31h0.0"></path><path d="M189.0 31h0.0"></path><rect height="22" rx="10" ry="10" width="139.0" x="50.0" y="20"></rect><text x="119.5" y="35">CMS.INITBYPROB</text></g><path d="M189.0 31h10"></path><path d="M199.0 31h10"></path><g class="non-terminal ">
<path d="M209.0 31h0.0"></path><path d="M254.5 31h0.0"></path><rect height="22" width="45.5" x="209.0" y="20"></rect><text x="231.75" y="35">key</text></g><path d="M254.5 31h10"></path><path d="M264.5 31h10"></path><g class="non-terminal ">
<path d="M274.5 31h0.0"></path><path d="M337.0 31h0.0"></path><rect height="22" width="62.5" x="274.5" y="20"></rect><text x="305.75" y="35">error</text></g><path d="M337.0 31h10"></path><path d="M347.0 31h10"></path><g class="non-terminal ">
<path d="M357.0 31h0.0"></path><path d="M470.5 31h0.0"></path><rect height="22" width="113.5" x="357.0" y="20"></rect><text x="413.75" y="35">probability</text></g></g><path d="M470.5 31h10"></path><path d="M 480.5 31 h 20 m -10 -10 v 20 m 10 -20 v 20"></path></g></svg>