<svg class="railroad-diagram" height="131" viewBox="0 0 516.5 131" width="516.5" xmlns="http://www.w3.org/2000/svg" xmlns:xlink="http://www.w3.org/1999/xlink">
<defs>
<style type="text/css"><![CDATA[
svg.railroad-diagram { background-color: transparent; }
.terminal rect { fill: #DC382D !important; stroke: #DC382D !important; }
.terminal text { fill: white !important; font-weight: bold; }
.nonterminal rect { fill: none !important; stroke: #DC382D !important; stroke-width: 2; }
.nonterminal text { fill: #DC382D !important; font-weight: bold; }
path { stroke: #DC382D !important; stroke-width: 2; fill: none; }
circle { fill: #DC382D !important; stroke: #DC382D !important; }
]]></style>
</defs>
<g transform="translate(.5 .5)">
<style>/* <![CDATA[ */
	svg.railroad-diagram {
		background-color: transparent;
	}
	svg.railroad-diagram path {
		stroke-width:3;
		stroke: #DC382D;
		fill:rgba(0,0,0,0);
	}
	svg.railroad-diagram text {
		font:bold 14px monospace;
		text-anchor:middle;
	}
	svg.railroad-diagram text.label{
		text-anchor:start;
	}
	svg.railroad-diagram text.comment{
		font:italic 12px monospace;
	}
	svg.railroad-diagram rect{
		stroke-width:3;
		stroke: #DC382D;
		fill: none;
	}
	svg.railroad-diagram rect.group-box {
		stroke: #DC382D;
		stroke-dasharray: 10 5;
		fill: none;
	}

/* ]]> */
</style><g>
<path d="M20 30v20m10 -20v20m-10 -10h20"></path></g><path d="M40 40h10"></path><g>
<path d="M50 40h0.0"></path><path d="M466.5 40h0.0"></path><g class="terminal ">
<path d="M50.0 40h0.0"></path><path d="M172.0 40h0.0"></path><rect height="22" rx="10" ry="10" width="122.0" x="50.0" y="29"></rect><text x="111.0" y="44">COMMAND LIST</text></g><path d="M172.0 40h10"></path><g>
<path d="M182.0 40h0.0"></path><path d="M466.5 40h0.0"></path><path d="M182.0 40a10 10 0 0 0 10 -10v0a10 10 0 0 1 10 -10"></path><g>
<path d="M202.0 20h244.5"></path></g><path d="M446.5 20a10 10 0 0 1 10 10v0a10 10 0 0 0 10 10"></path><path d="M182.0 40h20"></path><g>
<path d="M202.0 40h0.0"></path><path d="M446.5 40h0.0"></path><path d="M202.0 40h20"></path><g>
<path d="M222.0 40h0.0"></path><path d="M426.5 40h0.0"></path><g class="terminal ">
<path d="M222.0 40h0.0"></path><path d="M293.0 40h0.0"></path><rect height="22" rx="10" ry="10" width="71.0" x="222.0" y="29"></rect><text x="257.5" y="44">MODULE</text></g><path d="M293.0 40h10"></path><path d="M303.0 40h10"></path><g class="non-terminal ">
<path d="M313.0 40h0.0"></path><path d="M426.5 40h0.0"></path><rect height="22" width="113.5" x="313.0" y="29"></rect><text x="369.75" y="44">module-name</text></g></g><path d="M426.5 40h20"></path><path d="M202.0 40a10 10 0 0 1 10 10v10a10 10 0 0 0 10 10"></path><g>
<path d="M222.0 70h12.75"></path><path d="M413.75 70h12.75"></path><g class="terminal ">
<path d="M234.75 70h0.0"></path><path d="M305.75 70h0.0"></path><rect height="22" rx="10" ry="10" width="71.0" x="234.75" y="59"></rect><text x="270.25" y="74">ACLCAT</text></g><path d="M305.75 70h10"></path><path d="M315.75 70h10"></path><g class="non-terminal ">
<path d="M325.75 70h0.0"></path><path d="M413.75 70h0.0"></path><rect height="22" width="88.0" x="325.75" y="59"></rect><text x="369.75" y="74">category</text></g></g><path d="M426.5 70a10 10 0 0 0 10 -10v-10a10 10 0 0 1 10 -10"></path><path d="M202.0 40a10 10 0 0 1 10 10v40a10 10 0 0 0 10 10"></path><g>
<path d="M222.0 100h12.75"></path><path d="M413.75 100h12.75"></path><g class="terminal ">
<path d="M234.75 100h0.0"></path><path d="M314.25 100h0.0"></path><rect height="22" rx="10" ry="10" width="79.5" x="234.75" y="89"></rect><text x="274.5" y="104">PATTERN</text></g><path d="M314.25 100h10"></path><path d="M324.25 100h10"></path><g class="non-terminal ">
<path d="M334.25 100h0.0"></path><path d="M413.75 100h0.0"></path><rect height="22" width="79.5" x="334.25" y="89"></rect><text x="374.0" y="104">pattern</text></g></g><path d="M426.5 100a10 10 0 0 0 10 -10v-40a10 10 0 0 1 10 -10"></path></g><path d="M446.5 40h20"></path></g></g><path d="M466.5 40h10"></path><path d="M 476.5 40 h 20 m -10 -10 v 20 m 10 -20 v 20"></path></g></svg>