<svg class="railroad-diagram" height="71" viewBox="0 0 744.0 71" width="744.0" xmlns="http://www.w3.org/2000/svg" xmlns:xlink="http://www.w3.org/1999/xlink">
<defs>
<style type="text/css"><![CDATA[
svg.railroad-diagram { background-color: transparent; }
.terminal rect { fill: #DC382D !important; stroke: #DC382D !important; }
.terminal text { fill: white !important; font-weight: bold; }
.nonterminal rect { fill: none !important; stroke: #DC382D !important; stroke-width: 2; }
.nonterminal text { fill: #DC382D !important; font-weight: bold; }
path { stroke: #DC382D !important; stroke-width: 2; fill: none; }
circle { fill: #DC382D !important; stroke: #DC382D !important; }
]]></style>
</defs>
<g transform="translate(.5 .5)">
<style>/* <![CDATA[ */
	svg.railroad-diagram {
		background-color: transparent;
	}
	svg.railroad-diagram path {
		stroke-width:3;
		stroke: #DC382D;
		fill:rgba(0,0,0,0);
	}
	svg.railroad-diagram text {
		font:bold 14px monospace;
		text-anchor:middle;
	}
	svg.railroad-diagram text.label{
		text-anchor:start;
	}
	svg.railroad-diagram text.comment{
		font:italic 12px monospace;
	}
	svg.railroad-diagram rect{
		stroke-width:3;
		stroke: #DC382D;
		fill: none;
	}
	svg.railroad-diagram rect.group-box {
		stroke: #DC382D;
		stroke-dasharray: 10 5;
		fill: none;
	}

/* ]]> */
</style><g>
<path d="M20 30v20m10 -20v20m-10 -10h20"></path></g><path d="M40 40h10"></path><g>
<path d="M50 40h0.0"></path><path d="M694.0 40h0.0"></path><g class="terminal ">
<path d="M50.0 40h0.0"></path><path d="M104.0 40h0.0"></path><rect height="22" rx="10" ry="10" width="54.0" x="50.0" y="29"></rect><text x="77.0" y="44">COPY</text></g><path d="M104.0 40h10"></path><path d="M114.0 40h10"></path><g class="non-terminal ">
<path d="M124.0 40h0.0"></path><path d="M195.0 40h0.0"></path><rect height="22" width="71.0" x="124.0" y="29"></rect><text x="159.5" y="44">source</text></g><path d="M195.0 40h10"></path><path d="M205.0 40h10"></path><g class="non-terminal ">
<path d="M215.0 40h0.0"></path><path d="M328.5 40h0.0"></path><rect height="22" width="113.5" x="215.0" y="29"></rect><text x="271.75" y="44">destination</text></g><path d="M328.5 40h10"></path><g>
<path d="M338.5 40h0.0"></path><path d="M574.5 40h0.0"></path><path d="M338.5 40a10 10 0 0 0 10 -10v0a10 10 0 0 1 10 -10"></path><g>
<path d="M358.5 20h196.0"></path></g><path d="M554.5 20a10 10 0 0 1 10 10v0a10 10 0 0 0 10 10"></path><path d="M338.5 40h20"></path><g>
<path d="M358.5 40h0.0"></path><path d="M554.5 40h0.0"></path><g class="terminal ">
<path d="M358.5 40h0.0"></path><path d="M395.5 40h0.0"></path><rect height="22" rx="10" ry="10" width="37.0" x="358.5" y="29"></rect><text x="377.0" y="44">DB</text></g><path d="M395.5 40h10"></path><path d="M405.5 40h10"></path><g class="non-terminal ">
<path d="M415.5 40h0.0"></path><path d="M554.5 40h0.0"></path><rect height="22" width="139.0" x="415.5" y="29"></rect><text x="485.0" y="44">destination-db</text></g></g><path d="M554.5 40h20"></path></g><g>
<path d="M574.5 40h0.0"></path><path d="M694.0 40h0.0"></path><path d="M574.5 40a10 10 0 0 0 10 -10v0a10 10 0 0 1 10 -10"></path><g>
<path d="M594.5 20h79.5"></path></g><path d="M674.0 20a10 10 0 0 1 10 10v0a10 10 0 0 0 10 10"></path><path d="M574.5 40h20"></path><g class="terminal ">
<path d="M594.5 40h0.0"></path><path d="M674.0 40h0.0"></path><rect height="22" rx="10" ry="10" width="79.5" x="594.5" y="29"></rect><text x="634.25" y="44">REPLACE</text></g><path d="M674.0 40h20"></path></g></g><path d="M694.0 40h10"></path><path d="M 704.0 40 h 20 m -10 -10 v 20 m 10 -20 v 20"></path></g></svg>