<svg class="railroad-diagram" height="80" viewBox="0 0 599.5 80" width="599.5" xmlns="http://www.w3.org/2000/svg" xmlns:xlink="http://www.w3.org/1999/xlink">
<defs>
<style type="text/css"><![CDATA[
svg.railroad-diagram { background-color: transparent; }
.terminal rect { fill: #DC382D !important; stroke: #DC382D !important; }
.terminal text { fill: white !important; font-weight: bold; }
.nonterminal rect { fill: none !important; stroke: #DC382D !important; stroke-width: 2; }
.nonterminal text { fill: #DC382D !important; font-weight: bold; }
path { stroke: #DC382D !important; stroke-width: 2; fill: none; }
circle { fill: #DC382D !important; stroke: #DC382D !important; }
]]></style>
</defs>
<g transform="translate(.5 .5)">
<style>/* <![CDATA[ */
	svg.railroad-diagram {
		background-color: transparent;
	}
	svg.railroad-diagram path {
		stroke-width:3;
		stroke: #DC382D;
		fill:rgba(0,0,0,0);
	}
	svg.railroad-diagram text {
		font:bold 14px monospace;
		text-anchor:middle;
	}
	svg.railroad-diagram text.label{
		text-anchor:start;
	}
	svg.railroad-diagram text.comment{
		font:italic 12px monospace;
	}
	svg.railroad-diagram rect{
		stroke-width:3;
		stroke: #DC382D;
		fill: none;
	}
	svg.railroad-diagram rect.group-box {
		stroke: #DC382D;
		stroke-dasharray: 10 5;
		fill: none;
	}

/* ]]> */
</style><g>
<path d="M20 30v20m10 -20v20m-10 -10h20"></path></g><path d="M40 40h10"></path><g>
<path d="M50 40h0.0"></path><path d="M549.5 40h0.0"></path><g class="terminal ">
<path d="M50.0 40h0.0"></path><path d="M155.0 40h0.0"></path><rect height="22" rx="10" ry="10" width="105.0" x="50.0" y="29"></rect><text x="102.5" y="44">EVALSHA&#95;RO</text></g><path d="M155.0 40h10"></path><path d="M165.0 40h10"></path><g class="non-terminal ">
<path d="M175.0 40h0.0"></path><path d="M229.0 40h0.0"></path><rect height="22" width="54.0" x="175.0" y="29"></rect><text x="202.0" y="44">sha1</text></g><path d="M229.0 40h10"></path><path d="M239.0 40h10"></path><g class="non-terminal ">
<path d="M249.0 40h0.0"></path><path d="M328.5 40h0.0"></path><rect height="22" width="79.5" x="249.0" y="29"></rect><text x="288.75" y="44">numkeys</text></g><path d="M328.5 40h10"></path><g>
<path d="M338.5 40h0.0"></path><path d="M444.0 40h0.0"></path><path d="M338.5 40a10 10 0 0 0 10 -10v0a10 10 0 0 1 10 -10"></path><g>
<path d="M358.5 20h65.5"></path></g><path d="M424.0 20a10 10 0 0 1 10 10v0a10 10 0 0 0 10 10"></path><path d="M338.5 40h20"></path><g>
<path d="M358.5 40h0.0"></path><path d="M424.0 40h0.0"></path><path d="M358.5 40h10"></path><g class="non-terminal ">
<path d="M368.5 40h0.0"></path><path d="M414.0 40h0.0"></path><rect height="22" width="45.5" x="368.5" y="29"></rect><text x="391.25" y="44">key</text></g><path d="M414.0 40h10"></path><path d="M368.5 40a10 10 0 0 0 -10 10v0a10 10 0 0 0 10 10"></path><g>
<path d="M368.5 60h45.5"></path></g><path d="M414.0 60a10 10 0 0 0 10 -10v0a10 10 0 0 0 -10 -10"></path></g><path d="M424.0 40h20"></path></g><g>
<path d="M444.0 40h0.0"></path><path d="M549.5 40h0.0"></path><path d="M444.0 40a10 10 0 0 0 10 -10v0a10 10 0 0 1 10 -10"></path><g>
<path d="M464.0 20h65.5"></path></g><path d="M529.5 20a10 10 0 0 1 10 10v0a10 10 0 0 0 10 10"></path><path d="M444.0 40h20"></path><g>
<path d="M464.0 40h0.0"></path><path d="M529.5 40h0.0"></path><path d="M464.0 40h10"></path><g class="non-terminal ">
<path d="M474.0 40h0.0"></path><path d="M519.5 40h0.0"></path><rect height="22" width="45.5" x="474.0" y="29"></rect><text x="496.75" y="44">arg</text></g><path d="M519.5 40h10"></path><path d="M474.0 40a10 10 0 0 0 -10 10v0a10 10 0 0 0 10 10"></path><g>
<path d="M474.0 60h45.5"></path></g><path d="M519.5 60a10 10 0 0 0 10 -10v0a10 10 0 0 0 -10 -10"></path></g><path d="M529.5 40h20"></path></g></g><path d="M549.5 40h10"></path><path d="M 559.5 40 h 20 m -10 -10 v 20 m 10 -20 v 20"></path></g></svg>