<svg class="railroad-diagram" height="80" viewBox="0 0 616.5 80" width="616.5" xmlns="http://www.w3.org/2000/svg" xmlns:xlink="http://www.w3.org/1999/xlink">
<defs>
<style type="text/css"><![CDATA[
svg.railroad-diagram { background-color: transparent; }
.terminal rect { fill: #DC382D !important; stroke: #DC382D !important; }
.terminal text { fill: white !important; font-weight: bold; }
.nonterminal rect { fill: none !important; stroke: #DC382D !important; stroke-width: 2; }
.nonterminal text { fill: #DC382D !important; font-weight: bold; }
path { stroke: #DC382D !important; stroke-width: 2; fill: none; }
circle { fill: #DC382D !important; stroke: #DC382D !important; }
]]></style>
</defs>
<g transform="translate(.5 .5)">
<style>/* <![CDATA[ */
	svg.railroad-diagram {
		background-color: transparent;
	}
	svg.railroad-diagram path {
		stroke-width:3;
		stroke: #DC382D;
		fill:rgba(0,0,0,0);
	}
	svg.railroad-diagram text {
		font:bold 14px monospace;
		text-anchor:middle;
	}
	svg.railroad-diagram text.label{
		text-anchor:start;
	}
	svg.railroad-diagram text.comment{
		font:italic 12px monospace;
	}
	svg.railroad-diagram rect{
		stroke-width:3;
		stroke: #DC382D;
		fill: none;
	}
	svg.railroad-diagram rect.group-box {
		stroke: #DC382D;
		stroke-dasharray: 10 5;
		fill: none;
	}

/* ]]> */
</style><g>
<path d="M20 30v20m10 -20v20m-10 -10h20"></path></g><path d="M40 40h10"></path><g>
<path d="M50 40h0.0"></path><path d="M566.5 40h0.0"></path><g class="terminal ">
<path d="M50.0 40h0.0"></path><path d="M138.0 40h0.0"></path><rect height="22" rx="10" ry="10" width="88.0" x="50.0" y="29"></rect><text x="94.0" y="44">FCALL&#95;RO</text></g><path d="M138.0 40h10"></path><path d="M148.0 40h10"></path><g class="non-terminal ">
<path d="M158.0 40h0.0"></path><path d="M246.0 40h0.0"></path><rect height="22" width="88.0" x="158.0" y="29"></rect><text x="202.0" y="44">function</text></g><path d="M246.0 40h10"></path><path d="M256.0 40h10"></path><g class="non-terminal ">
<path d="M266.0 40h0.0"></path><path d="M345.5 40h0.0"></path><rect height="22" width="79.5" x="266.0" y="29"></rect><text x="305.75" y="44">numkeys</text></g><path d="M345.5 40h10"></path><g>
<path d="M355.5 40h0.0"></path><path d="M461.0 40h0.0"></path><path d="M355.5 40a10 10 0 0 0 10 -10v0a10 10 0 0 1 10 -10"></path><g>
<path d="M375.5 20h65.5"></path></g><path d="M441.0 20a10 10 0 0 1 10 10v0a10 10 0 0 0 10 10"></path><path d="M355.5 40h20"></path><g>
<path d="M375.5 40h0.0"></path><path d="M441.0 40h0.0"></path><path d="M375.5 40h10"></path><g class="non-terminal ">
<path d="M385.5 40h0.0"></path><path d="M431.0 40h0.0"></path><rect height="22" width="45.5" x="385.5" y="29"></rect><text x="408.25" y="44">key</text></g><path d="M431.0 40h10"></path><path d="M385.5 40a10 10 0 0 0 -10 10v0a10 10 0 0 0 10 10"></path><g>
<path d="M385.5 60h45.5"></path></g><path d="M431.0 60a10 10 0 0 0 10 -10v0a10 10 0 0 0 -10 -10"></path></g><path d="M441.0 40h20"></path></g><g>
<path d="M461.0 40h0.0"></path><path d="M566.5 40h0.0"></path><path d="M461.0 40a10 10 0 0 0 10 -10v0a10 10 0 0 1 10 -10"></path><g>
<path d="M481.0 20h65.5"></path></g><path d="M546.5 20a10 10 0 0 1 10 10v0a10 10 0 0 0 10 10"></path><path d="M461.0 40h20"></path><g>
<path d="M481.0 40h0.0"></path><path d="M546.5 40h0.0"></path><path d="M481.0 40h10"></path><g class="non-terminal ">
<path d="M491.0 40h0.0"></path><path d="M536.5 40h0.0"></path><rect height="22" width="45.5" x="491.0" y="29"></rect><text x="513.75" y="44">arg</text></g><path d="M536.5 40h10"></path><path d="M491.0 40a10 10 0 0 0 -10 10v0a10 10 0 0 0 10 10"></path><g>
<path d="M491.0 60h45.5"></path></g><path d="M536.5 60a10 10 0 0 0 10 -10v0a10 10 0 0 0 -10 -10"></path></g><path d="M546.5 40h20"></path></g></g><path d="M566.5 40h10"></path><path d="M 576.5 40 h 20 m -10 -10 v 20 m 10 -20 v 20"></path></g></svg>