<svg class="railroad-diagram" height="101" viewBox="0 0 332.0 101" width="332.0" xmlns="http://www.w3.org/2000/svg" xmlns:xlink="http://www.w3.org/1999/xlink">
<defs>
<style type="text/css"><![CDATA[
svg.railroad-diagram { background-color: transparent; }
.terminal rect { fill: #DC382D !important; stroke: #DC382D !important; }
.terminal text { fill: white !important; font-weight: bold; }
.nonterminal rect { fill: none !important; stroke: #DC382D !important; stroke-width: 2; }
.nonterminal text { fill: #DC382D !important; font-weight: bold; }
path { stroke: #DC382D !important; stroke-width: 2; fill: none; }
circle { fill: #DC382D !important; stroke: #DC382D !important; }
]]></style>
</defs>
<g transform="translate(.5 .5)">
<style>/* <![CDATA[ */
	svg.railroad-diagram {
		background-color: transparent;
	}
	svg.railroad-diagram path {
		stroke-width:3;
		stroke: #DC382D;
		fill:rgba(0,0,0,0);
	}
	svg.railroad-diagram text {
		font:bold 14px monospace;
		text-anchor:middle;
	}
	svg.railroad-diagram text.label{
		text-anchor:start;
	}
	svg.railroad-diagram text.comment{
		font:italic 12px monospace;
	}
	svg.railroad-diagram rect{
		stroke-width:3;
		stroke: #DC382D;
		fill: none;
	}
	svg.railroad-diagram rect.group-box {
		stroke: #DC382D;
		stroke-dasharray: 10 5;
		fill: none;
	}

/* ]]> */
</style><g>
<path d="M20 30v20m10 -20v20m-10 -10h20"></path></g><path d="M40 40h10"></path><g>
<path d="M50 40h0.0"></path><path d="M282.0 40h0.0"></path><g class="terminal ">
<path d="M50.0 40h0.0"></path><path d="M129.5 40h0.0"></path><rect height="22" rx="10" ry="10" width="79.5" x="50.0" y="29"></rect><text x="89.75" y="44">FLUSHDB</text></g><path d="M129.5 40h10"></path><g>
<path d="M139.5 40h0.0"></path><path d="M282.0 40h0.0"></path><path d="M139.5 40a10 10 0 0 0 10 -10v0a10 10 0 0 1 10 -10"></path><g>
<path d="M159.5 20h102.5"></path></g><path d="M262.0 20a10 10 0 0 1 10 10v0a10 10 0 0 0 10 10"></path><path d="M139.5 40h20"></path><g>
<path d="M159.5 40h0.0"></path><path d="M262.0 40h0.0"></path><path d="M159.5 40h20"></path><g class="terminal ">
<path d="M179.5 40h0.0"></path><path d="M242.0 40h0.0"></path><rect height="22" rx="10" ry="10" width="62.5" x="179.5" y="29"></rect><text x="210.75" y="44">ASYNC</text></g><path d="M242.0 40h20"></path><path d="M159.5 40a10 10 0 0 1 10 10v10a10 10 0 0 0 10 10"></path><g class="terminal ">
<path d="M179.5 70h4.25"></path><path d="M237.75 70h4.25"></path><rect height="22" rx="10" ry="10" width="54.0" x="183.75" y="59"></rect><text x="210.75" y="74">SYNC</text></g><path d="M242.0 70a10 10 0 0 0 10 -10v-10a10 10 0 0 1 10 -10"></path></g><path d="M262.0 40h20"></path></g></g><path d="M282.0 40h10"></path><path d="M 292.0 40 h 20 m -10 -10 v 20 m 10 -20 v 20"></path></g></svg>