<svg class="railroad-diagram" height="101" viewBox="0 0 708.5 101" width="708.5" xmlns="http://www.w3.org/2000/svg" xmlns:xlink="http://www.w3.org/1999/xlink">
<defs>
<style type="text/css"><![CDATA[
svg.railroad-diagram { background-color: transparent; }
.terminal rect { fill: #DC382D !important; stroke: #DC382D !important; }
.terminal text { fill: white !important; font-weight: bold; }
.nonterminal rect { fill: none !important; stroke: #DC382D !important; stroke-width: 2; }
.nonterminal text { fill: #DC382D !important; font-weight: bold; }
path { stroke: #DC382D !important; stroke-width: 2; fill: none; }
circle { fill: #DC382D !important; stroke: #DC382D !important; }
]]></style>
</defs>
<g transform="translate(.5 .5)">
<style>/* <![CDATA[ */
	svg.railroad-diagram {
		background-color: transparent;
	}
	svg.railroad-diagram path {
		stroke-width:3;
		stroke: #DC382D;
		fill:rgba(0,0,0,0);
	}
	svg.railroad-diagram text {
		font:bold 14px monospace;
		text-anchor:middle;
	}
	svg.railroad-diagram text.label{
		text-anchor:start;
	}
	svg.railroad-diagram text.comment{
		font:italic 12px monospace;
	}
	svg.railroad-diagram rect{
		stroke-width:3;
		stroke: #DC382D;
		fill: none;
	}
	svg.railroad-diagram rect.group-box {
		stroke: #DC382D;
		stroke-dasharray: 10 5;
		fill: none;
	}

/* ]]> */
</style><g>
<path d="M20 30v20m10 -20v20m-10 -10h20"></path></g><path d="M40 40h10"></path><g>
<path d="M50 40h0.0"></path><path d="M658.5 40h0.0"></path><g class="terminal ">
<path d="M50.0 40h0.0"></path><path d="M155.0 40h0.0"></path><rect height="22" rx="10" ry="10" width="105.0" x="50.0" y="29"></rect><text x="102.5" y="44">FT.PROFILE</text></g><path d="M155.0 40h10"></path><path d="M165.0 40h10"></path><g class="non-terminal ">
<path d="M175.0 40h0.0"></path><path d="M237.5 40h0.0"></path><rect height="22" width="62.5" x="175.0" y="29"></rect><text x="206.25" y="44">index</text></g><path d="M237.5 40h10"></path><g>
<path d="M247.5 40h0.0"></path><path d="M384.0 40h0.0"></path><path d="M247.5 40h20"></path><g class="terminal ">
<path d="M267.5 40h12.75"></path><path d="M351.25 40h12.75"></path><rect height="22" rx="10" ry="10" width="71.0" x="280.25" y="29"></rect><text x="315.75" y="44">SEARCH</text></g><path d="M364.0 40h20"></path><path d="M247.5 40a10 10 0 0 1 10 10v10a10 10 0 0 0 10 10"></path><g class="terminal ">
<path d="M267.5 70h0.0"></path><path d="M364.0 70h0.0"></path><rect height="22" rx="10" ry="10" width="96.5" x="267.5" y="59"></rect><text x="315.75" y="74">AGGREGATE</text></g><path d="M364.0 70a10 10 0 0 0 10 -10v-10a10 10 0 0 1 10 -10"></path></g><g>
<path d="M384.0 40h0.0"></path><path d="M503.5 40h0.0"></path><path d="M384.0 40a10 10 0 0 0 10 -10v0a10 10 0 0 1 10 -10"></path><g>
<path d="M404.0 20h79.5"></path></g><path d="M483.5 20a10 10 0 0 1 10 10v0a10 10 0 0 0 10 10"></path><path d="M384.0 40h20"></path><g class="terminal ">
<path d="M404.0 40h0.0"></path><path d="M483.5 40h0.0"></path><rect height="22" rx="10" ry="10" width="79.5" x="404.0" y="29"></rect><text x="443.75" y="44">LIMITED</text></g><path d="M483.5 40h20"></path></g><path d="M503.5 40h10"></path><g class="terminal ">
<path d="M513.5 40h0.0"></path><path d="M576.0 40h0.0"></path><rect height="22" rx="10" ry="10" width="62.5" x="513.5" y="29"></rect><text x="544.75" y="44">QUERY</text></g><path d="M576.0 40h10"></path><path d="M586.0 40h10"></path><g class="non-terminal ">
<path d="M596.0 40h0.0"></path><path d="M658.5 40h0.0"></path><rect height="22" width="62.5" x="596.0" y="29"></rect><text x="627.25" y="44">query</text></g></g><path d="M658.5 40h10"></path><path d="M 668.5 40 h 20 m -10 -10 v 20 m 10 -20 v 20"></path></g></svg>