<svg class="railroad-diagram" height="80" viewBox="0 0 762.0 80" width="762.0" xmlns="http://www.w3.org/2000/svg" xmlns:xlink="http://www.w3.org/1999/xlink">
<defs>
<style type="text/css"><![CDATA[
svg.railroad-diagram { background-color: transparent; }
.terminal rect { fill: #DC382D !important; stroke: #DC382D !important; }
.terminal text { fill: white !important; font-weight: bold; }
.nonterminal rect { fill: none !important; stroke: #DC382D !important; stroke-width: 2; }
.nonterminal text { fill: #DC382D !important; font-weight: bold; }
path { stroke: #DC382D !important; stroke-width: 2; fill: none; }
circle { fill: #DC382D !important; stroke: #DC382D !important; }
]]></style>
</defs>
<g transform="translate(.5 .5)">
<style>/* <![CDATA[ */
	svg.railroad-diagram {
		background-color: transparent;
	}
	svg.railroad-diagram path {
		stroke-width:3;
		stroke: #DC382D;
		fill:rgba(0,0,0,0);
	}
	svg.railroad-diagram text {
		font:bold 14px monospace;
		text-anchor:middle;
	}
	svg.railroad-diagram text.label{
		text-anchor:start;
	}
	svg.railroad-diagram text.comment{
		font:italic 12px monospace;
	}
	svg.railroad-diagram rect{
		stroke-width:3;
		stroke: #DC382D;
		fill: none;
	}
	svg.railroad-diagram rect.group-box {
		stroke: #DC382D;
		stroke-dasharray: 10 5;
		fill: none;
	}

/* ]]> */
</style><g>
<path d="M20 30v20m10 -20v20m-10 -10h20"></path></g><path d="M40 40h10"></path><g>
<path d="M50 40h0.0"></path><path d="M712.0 40h0.0"></path><g class="terminal ">
<path d="M50.0 40h0.0"></path><path d="M172.0 40h0.0"></path><rect height="22" rx="10" ry="10" width="122.0" x="50.0" y="29"></rect><text x="111.0" y="44">FT.SYNUPDATE</text></g><path d="M172.0 40h10"></path><path d="M182.0 40h10"></path><g class="non-terminal ">
<path d="M192.0 40h0.0"></path><path d="M254.5 40h0.0"></path><rect height="22" width="62.5" x="192.0" y="29"></rect><text x="223.25" y="44">index</text></g><path d="M254.5 40h10"></path><path d="M264.5 40h10"></path><g class="non-terminal ">
<path d="M274.5 40h0.0"></path><path d="M430.5 40h0.0"></path><rect height="22" width="156.0" x="274.5" y="29"></rect><text x="352.5" y="44">synonym&#95;group&#95;id</text></g><path d="M430.5 40h10"></path><g>
<path d="M440.5 40h0.0"></path><path d="M628.0 40h0.0"></path><path d="M440.5 40a10 10 0 0 0 10 -10v0a10 10 0 0 1 10 -10"></path><g>
<path d="M460.5 20h147.5"></path></g><path d="M608.0 20a10 10 0 0 1 10 10v0a10 10 0 0 0 10 10"></path><path d="M440.5 40h20"></path><g class="terminal ">
<path d="M460.5 40h0.0"></path><path d="M608.0 40h0.0"></path><rect height="22" rx="10" ry="10" width="147.5" x="460.5" y="29"></rect><text x="534.25" y="44">SKIPINITIALSCAN</text></g><path d="M608.0 40h20"></path></g><path d="M628.0 40h10"></path><g>
<path d="M638.0 40h0.0"></path><path d="M712.0 40h0.0"></path><path d="M638.0 40h10"></path><g class="non-terminal ">
<path d="M648.0 40h0.0"></path><path d="M702.0 40h0.0"></path><rect height="22" width="54.0" x="648.0" y="29"></rect><text x="675.0" y="44">term</text></g><path d="M702.0 40h10"></path><path d="M648.0 40a10 10 0 0 0 -10 10v0a10 10 0 0 0 10 10"></path><g>
<path d="M648.0 60h54.0"></path></g><path d="M702.0 60a10 10 0 0 0 10 -10v0a10 10 0 0 0 -10 -10"></path></g></g><path d="M712.0 40h10"></path><path d="M 722.0 40 h 20 m -10 -10 v 20 m 10 -20 v 20"></path></g></svg>