<svg class="railroad-diagram" height="71" viewBox="0 0 798.5 71" width="798.5" xmlns="http://www.w3.org/2000/svg" xmlns:xlink="http://www.w3.org/1999/xlink">
<defs>
<style type="text/css"><![CDATA[
svg.railroad-diagram { background-color: transparent; }
.terminal rect { fill: #DC382D !important; stroke: #DC382D !important; }
.terminal text { fill: white !important; font-weight: bold; }
.nonterminal rect { fill: none !important; stroke: #DC382D !important; stroke-width: 2; }
.nonterminal text { fill: #DC382D !important; font-weight: bold; }
path { stroke: #DC382D !important; stroke-width: 2; fill: none; }
circle { fill: #DC382D !important; stroke: #DC382D !important; }
]]></style>
</defs>
<g transform="translate(.5 .5)">
<style>/* <![CDATA[ */
	svg.railroad-diagram {
		background-color: transparent;
	}
	svg.railroad-diagram path {
		stroke-width:3;
		stroke: #DC382D;
		fill:rgba(0,0,0,0);
	}
	svg.railroad-diagram text {
		font:bold 14px monospace;
		text-anchor:middle;
	}
	svg.railroad-diagram text.label{
		text-anchor:start;
	}
	svg.railroad-diagram text.comment{
		font:italic 12px monospace;
	}
	svg.railroad-diagram rect{
		stroke-width:3;
		stroke: #DC382D;
		fill: none;
	}
	svg.railroad-diagram rect.group-box {
		stroke: #DC382D;
		stroke-dasharray: 10 5;
		fill: none;
	}

/* ]]> */
</style><g>
<path d="M20 30v20m10 -20v20m-10 -10h20"></path></g><path d="M40 40h10"></path><g>
<path d="M50 40h0.0"></path><path d="M748.5 40h0.0"></path><g class="terminal ">
<path d="M50.0 40h0.0"></path><path d="M146.5 40h0.0"></path><rect height="22" rx="10" ry="10" width="96.5" x="50.0" y="29"></rect><text x="98.25" y="44">FT.SUGADD</text></g><path d="M146.5 40h10"></path><path d="M156.5 40h10"></path><g class="non-terminal ">
<path d="M166.5 40h0.0"></path><path d="M212.0 40h0.0"></path><rect height="22" width="45.5" x="166.5" y="29"></rect><text x="189.25" y="44">key</text></g><path d="M212.0 40h10"></path><path d="M222.0 40h10"></path><g class="non-terminal ">
<path d="M232.0 40h0.0"></path><path d="M303.0 40h0.0"></path><rect height="22" width="71.0" x="232.0" y="29"></rect><text x="267.5" y="44">string</text></g><path d="M303.0 40h10"></path><path d="M313.0 40h10"></path><g class="non-terminal ">
<path d="M323.0 40h0.0"></path><path d="M385.5 40h0.0"></path><rect height="22" width="62.5" x="323.0" y="29"></rect><text x="354.25" y="44">score</text></g><path d="M385.5 40h10"></path><g>
<path d="M395.5 40h0.0"></path><path d="M529.5 40h0.0"></path><path d="M395.5 40a10 10 0 0 0 10 -10v0a10 10 0 0 1 10 -10"></path><g>
<path d="M415.5 20h94.0"></path></g><path d="M509.5 20a10 10 0 0 1 10 10v0a10 10 0 0 0 10 10"></path><path d="M395.5 40h20"></path><g>
<path d="M415.5 40h0.0"></path><path d="M509.5 40h0.0"></path><path d="M415.5 40h20"></path><g class="terminal ">
<path d="M435.5 40h0.0"></path><path d="M489.5 40h0.0"></path><rect height="22" rx="10" ry="10" width="54.0" x="435.5" y="29"></rect><text x="462.5" y="44">INCR</text></g><path d="M489.5 40h20"></path></g><path d="M509.5 40h20"></path></g><g>
<path d="M529.5 40h0.0"></path><path d="M748.5 40h0.0"></path><path d="M529.5 40a10 10 0 0 0 10 -10v0a10 10 0 0 1 10 -10"></path><g>
<path d="M549.5 20h179.0"></path></g><path d="M728.5 20a10 10 0 0 1 10 10v0a10 10 0 0 0 10 10"></path><path d="M529.5 40h20"></path><g>
<path d="M549.5 40h0.0"></path><path d="M728.5 40h0.0"></path><g class="terminal ">
<path d="M549.5 40h0.0"></path><path d="M629.0 40h0.0"></path><rect height="22" rx="10" ry="10" width="79.5" x="549.5" y="29"></rect><text x="589.25" y="44">PAYLOAD</text></g><path d="M629.0 40h10"></path><path d="M639.0 40h10"></path><g class="non-terminal ">
<path d="M649.0 40h0.0"></path><path d="M728.5 40h0.0"></path><rect height="22" width="79.5" x="649.0" y="29"></rect><text x="688.75" y="44">payload</text></g></g><path d="M728.5 40h20"></path></g></g><path d="M748.5 40h10"></path><path d="M 758.5 40 h 20 m -10 -10 v 20 m 10 -20 v 20"></path></g></svg>