<svg class="railroad-diagram" height="71" viewBox="0 0 732.0 71" width="732.0" xmlns="http://www.w3.org/2000/svg" xmlns:xlink="http://www.w3.org/1999/xlink">
<defs>
<style type="text/css"><![CDATA[
svg.railroad-diagram { background-color: transparent; }
.terminal rect { fill: #DC382D !important; stroke: #DC382D !important; }
.terminal text { fill: white !important; font-weight: bold; }
.nonterminal rect { fill: none !important; stroke: #DC382D !important; stroke-width: 2; }
.nonterminal text { fill: #DC382D !important; font-weight: bold; }
path { stroke: #DC382D !important; stroke-width: 2; fill: none; }
circle { fill: #DC382D !important; stroke: #DC382D !important; }
]]></style>
</defs>
<g transform="translate(.5 .5)">
<style>/* <![CDATA[ */
	svg.railroad-diagram {
		background-color: transparent;
	}
	svg.railroad-diagram path {
		stroke-width:3;
		stroke: #DC382D;
		fill:rgba(0,0,0,0);
	}
	svg.railroad-diagram text {
		font:bold 14px monospace;
		text-anchor:middle;
	}
	svg.railroad-diagram text.label{
		text-anchor:start;
	}
	svg.railroad-diagram text.comment{
		font:italic 12px monospace;
	}
	svg.railroad-diagram rect{
		stroke-width:3;
		stroke: #DC382D;
		fill: none;
	}
	svg.railroad-diagram rect.group-box {
		stroke: #DC382D;
		stroke-dasharray: 10 5;
		fill: none;
	}

/* ]]> */
</style><g>
<path d="M20 30v20m10 -20v20m-10 -10h20"></path></g><path d="M40 40h10"></path><g>
<path d="M50 40h0.0"></path><path d="M682.0 40h0.0"></path><g class="terminal ">
<path d="M50.0 40h0.0"></path><path d="M180.5 40h0.0"></path><rect height="22" rx="10" ry="10" width="130.5" x="50.0" y="29"></rect><text x="115.25" y="44">FUNCTION LIST</text></g><path d="M180.5 40h10"></path><g>
<path d="M190.5 40h0.0"></path><path d="M554.0 40h0.0"></path><path d="M190.5 40a10 10 0 0 0 10 -10v0a10 10 0 0 1 10 -10"></path><g>
<path d="M210.5 20h323.5"></path></g><path d="M534.0 20a10 10 0 0 1 10 10v0a10 10 0 0 0 10 10"></path><path d="M190.5 40h20"></path><g>
<path d="M210.5 40h0.0"></path><path d="M534.0 40h0.0"></path><g class="terminal ">
<path d="M210.5 40h0.0"></path><path d="M324.0 40h0.0"></path><rect height="22" rx="10" ry="10" width="113.5" x="210.5" y="29"></rect><text x="267.25" y="44">LIBRARYNAME</text></g><path d="M324.0 40h10"></path><path d="M334.0 40h10"></path><g class="non-terminal ">
<path d="M344.0 40h0.0"></path><path d="M534.0 40h0.0"></path><rect height="22" width="190.0" x="344.0" y="29"></rect><text x="439.0" y="44">library-name-pattern</text></g></g><path d="M534.0 40h20"></path></g><g>
<path d="M554.0 40h0.0"></path><path d="M682.0 40h0.0"></path><path d="M554.0 40a10 10 0 0 0 10 -10v0a10 10 0 0 1 10 -10"></path><g>
<path d="M574.0 20h88.0"></path></g><path d="M662.0 20a10 10 0 0 1 10 10v0a10 10 0 0 0 10 10"></path><path d="M554.0 40h20"></path><g class="terminal ">
<path d="M574.0 40h0.0"></path><path d="M662.0 40h0.0"></path><rect height="22" rx="10" ry="10" width="88.0" x="574.0" y="29"></rect><text x="618.0" y="44">WITHCODE</text></g><path d="M662.0 40h20"></path></g></g><path d="M682.0 40h10"></path><path d="M 692.0 40 h 20 m -10 -10 v 20 m 10 -20 v 20"></path></g></svg>