<svg class="railroad-diagram" height="131" viewBox="0 0 601.5 131" width="601.5" xmlns="http://www.w3.org/2000/svg" xmlns:xlink="http://www.w3.org/1999/xlink">
<defs>
<style type="text/css"><![CDATA[
svg.railroad-diagram { background-color: transparent; }
.terminal rect { fill: #DC382D !important; stroke: #DC382D !important; }
.terminal text { fill: white !important; font-weight: bold; }
.nonterminal rect { fill: none !important; stroke: #DC382D !important; stroke-width: 2; }
.nonterminal text { fill: #DC382D !important; font-weight: bold; }
path { stroke: #DC382D !important; stroke-width: 2; fill: none; }
circle { fill: #DC382D !important; stroke: #DC382D !important; }
]]></style>
</defs>
<g transform="translate(.5 .5)">
<style>/* <![CDATA[ */
	svg.railroad-diagram {
		background-color: transparent;
	}
	svg.railroad-diagram path {
		stroke-width:3;
		stroke: #DC382D;
		fill:rgba(0,0,0,0);
	}
	svg.railroad-diagram text {
		font:bold 14px monospace;
		text-anchor:middle;
	}
	svg.railroad-diagram text.label{
		text-anchor:start;
	}
	svg.railroad-diagram text.comment{
		font:italic 12px monospace;
	}
	svg.railroad-diagram rect{
		stroke-width:3;
		stroke: #DC382D;
		fill: none;
	}
	svg.railroad-diagram rect.group-box {
		stroke: #DC382D;
		stroke-dasharray: 10 5;
		fill: none;
	}

/* ]]> */
</style><g>
<path d="M20 30v20m10 -20v20m-10 -10h20"></path></g><path d="M40 40h10"></path><g>
<path d="M50 40h0.0"></path><path d="M551.5 40h0.0"></path><g class="terminal ">
<path d="M50.0 40h0.0"></path><path d="M206.0 40h0.0"></path><rect height="22" rx="10" ry="10" width="156.0" x="50.0" y="29"></rect><text x="128.0" y="44">FUNCTION RESTORE</text></g><path d="M206.0 40h10"></path><path d="M216.0 40h10"></path><g class="non-terminal ">
<path d="M226.0 40h0.0"></path><path d="M382.0 40h0.0"></path><rect height="22" width="156.0" x="226.0" y="29"></rect><text x="304.0" y="44">serialized-value</text></g><path d="M382.0 40h10"></path><g>
<path d="M392.0 40h0.0"></path><path d="M551.5 40h0.0"></path><path d="M392.0 40a10 10 0 0 0 10 -10v0a10 10 0 0 1 10 -10"></path><g>
<path d="M412.0 20h119.5"></path></g><path d="M531.5 20a10 10 0 0 1 10 10v0a10 10 0 0 0 10 10"></path><path d="M392.0 40h20"></path><g>
<path d="M412.0 40h0.0"></path><path d="M531.5 40h0.0"></path><path d="M412.0 40h20"></path><g class="terminal ">
<path d="M432.0 40h8.5"></path><path d="M503.0 40h8.5"></path><rect height="22" rx="10" ry="10" width="62.5" x="440.5" y="29"></rect><text x="471.75" y="44">FLUSH</text></g><path d="M511.5 40h20"></path><path d="M412.0 40a10 10 0 0 1 10 10v10a10 10 0 0 0 10 10"></path><g class="terminal ">
<path d="M432.0 70h4.25"></path><path d="M507.25 70h4.25"></path><rect height="22" rx="10" ry="10" width="71.0" x="436.25" y="59"></rect><text x="471.75" y="74">APPEND</text></g><path d="M511.5 70a10 10 0 0 0 10 -10v-10a10 10 0 0 1 10 -10"></path><path d="M412.0 40a10 10 0 0 1 10 10v40a10 10 0 0 0 10 10"></path><g class="terminal ">
<path d="M432.0 100h0.0"></path><path d="M511.5 100h0.0"></path><rect height="22" rx="10" ry="10" width="79.5" x="432.0" y="89"></rect><text x="471.75" y="104">REPLACE</text></g><path d="M511.5 100a10 10 0 0 0 10 -10v-40a10 10 0 0 1 10 -10"></path></g><path d="M531.5 40h20"></path></g></g><path d="M551.5 40h10"></path><path d="M 561.5 40 h 20 m -10 -10 v 20 m 10 -20 v 20"></path></g></svg>