<svg class="railroad-diagram" height="101" viewBox="0 0 766.0 101" width="766.0" xmlns="http://www.w3.org/2000/svg" xmlns:xlink="http://www.w3.org/1999/xlink">
<defs>
<style type="text/css"><![CDATA[
svg.railroad-diagram { background-color: transparent; }
.terminal rect { fill: #DC382D !important; stroke: #DC382D !important; }
.terminal text { fill: white !important; font-weight: bold; }
.nonterminal rect { fill: none !important; stroke: #DC382D !important; stroke-width: 2; }
.nonterminal text { fill: #DC382D !important; font-weight: bold; }
path { stroke: #DC382D !important; stroke-width: 2; fill: none; }
circle { fill: #DC382D !important; stroke: #DC382D !important; }
]]></style>
</defs>
<g transform="translate(.5 .5)">
<style>/* <![CDATA[ */
	svg.railroad-diagram {
		background-color: transparent;
	}
	svg.railroad-diagram path {
		stroke-width:3;
		stroke: #DC382D;
		fill:rgba(0,0,0,0);
	}
	svg.railroad-diagram text {
		font:bold 14px monospace;
		text-anchor:middle;
	}
	svg.railroad-diagram text.label{
		text-anchor:start;
	}
	svg.railroad-diagram text.comment{
		font:italic 12px monospace;
	}
	svg.railroad-diagram rect{
		stroke-width:3;
		stroke: #DC382D;
		fill: none;
	}
	svg.railroad-diagram rect.group-box {
		stroke: #DC382D;
		stroke-dasharray: 10 5;
		fill: none;
	}

/* ]]> */
</style><g>
<path d="M20 30v20m10 -20v20m-10 -10h20"></path></g><path d="M40 40h10"></path><g>
<path d="M50 40h0.0"></path><path d="M716.0 40h0.0"></path><g class="terminal ">
<path d="M50.0 40h0.0"></path><path d="M121.0 40h0.0"></path><rect height="22" rx="10" ry="10" width="71.0" x="50.0" y="29"></rect><text x="85.5" y="44">GEOADD</text></g><path d="M121.0 40h10"></path><path d="M131.0 40h10"></path><g class="non-terminal ">
<path d="M141.0 40h0.0"></path><path d="M186.5 40h0.0"></path><rect height="22" width="45.5" x="141.0" y="29"></rect><text x="163.75" y="44">key</text></g><path d="M186.5 40h10"></path><g>
<path d="M196.5 40h0.0"></path><path d="M313.5 40h0.0"></path><path d="M196.5 40a10 10 0 0 0 10 -10v0a10 10 0 0 1 10 -10"></path><g>
<path d="M216.5 20h77.0"></path></g><path d="M293.5 20a10 10 0 0 1 10 10v0a10 10 0 0 0 10 10"></path><path d="M196.5 40h20"></path><g>
<path d="M216.5 40h0.0"></path><path d="M293.5 40h0.0"></path><path d="M216.5 40h20"></path><g class="terminal ">
<path d="M236.5 40h0.0"></path><path d="M273.5 40h0.0"></path><rect height="22" rx="10" ry="10" width="37.0" x="236.5" y="29"></rect><text x="255.0" y="44">NX</text></g><path d="M273.5 40h20"></path><path d="M216.5 40a10 10 0 0 1 10 10v10a10 10 0 0 0 10 10"></path><g class="terminal ">
<path d="M236.5 70h0.0"></path><path d="M273.5 70h0.0"></path><rect height="22" rx="10" ry="10" width="37.0" x="236.5" y="59"></rect><text x="255.0" y="74">XX</text></g><path d="M273.5 70a10 10 0 0 0 10 -10v-10a10 10 0 0 1 10 -10"></path></g><path d="M293.5 40h20"></path></g><g>
<path d="M313.5 40h0.0"></path><path d="M390.5 40h0.0"></path><path d="M313.5 40a10 10 0 0 0 10 -10v0a10 10 0 0 1 10 -10"></path><g>
<path d="M333.5 20h37.0"></path></g><path d="M370.5 20a10 10 0 0 1 10 10v0a10 10 0 0 0 10 10"></path><path d="M313.5 40h20"></path><g class="terminal ">
<path d="M333.5 40h0.0"></path><path d="M370.5 40h0.0"></path><rect height="22" rx="10" ry="10" width="37.0" x="333.5" y="29"></rect><text x="352.0" y="44">CH</text></g><path d="M370.5 40h20"></path></g><path d="M390.5 40h10"></path><g>
<path d="M400.5 40h0.0"></path><path d="M716.0 40h0.0"></path><path d="M400.5 40h10"></path><g>
<path d="M410.5 40h0.0"></path><path d="M706.0 40h0.0"></path><g class="non-terminal ">
<path d="M410.5 40h0.0"></path><path d="M507.0 40h0.0"></path><rect height="22" width="96.5" x="410.5" y="29"></rect><text x="458.75" y="44">longitude</text></g><path d="M507.0 40h10"></path><path d="M517.0 40h10"></path><g class="non-terminal ">
<path d="M527.0 40h0.0"></path><path d="M615.0 40h0.0"></path><rect height="22" width="88.0" x="527.0" y="29"></rect><text x="571.0" y="44">latitude</text></g><path d="M615.0 40h10"></path><path d="M625.0 40h10"></path><g class="non-terminal ">
<path d="M635.0 40h0.0"></path><path d="M706.0 40h0.0"></path><rect height="22" width="71.0" x="635.0" y="29"></rect><text x="670.5" y="44">member</text></g></g><path d="M706.0 40h10"></path><path d="M410.5 40a10 10 0 0 0 -10 10v0a10 10 0 0 0 10 10"></path><g>
<path d="M410.5 60h295.5"></path></g><path d="M706.0 60a10 10 0 0 0 10 -10v0a10 10 0 0 0 -10 -10"></path></g></g><path d="M716.0 40h10"></path><path d="M 726.0 40 h 20 m -10 -10 v 20 m 10 -20 v 20"></path></g></svg>