<svg class="railroad-diagram" height="169" viewBox="0 0 1497.0 169" width="1497.0" xmlns="http://www.w3.org/2000/svg" xmlns:xlink="http://www.w3.org/1999/xlink">
<defs>
<style type="text/css"><![CDATA[
svg.railroad-diagram { background-color: transparent; }
.terminal rect { fill: #DC382D !important; stroke: #DC382D !important; }
.terminal text { fill: white !important; font-weight: bold; }
.nonterminal rect { fill: none !important; stroke: #DC382D !important; stroke-width: 2; }
.nonterminal text { fill: #DC382D !important; font-weight: bold; }
path { stroke: #DC382D !important; stroke-width: 2; fill: none; }
circle { fill: #DC382D !important; stroke: #DC382D !important; }
]]></style>
</defs>
<g transform="translate(.5 .5)">
<style>/* <![CDATA[ */
	svg.railroad-diagram {
		background-color: transparent;
	}
	svg.railroad-diagram path {
		stroke-width:3;
		stroke: #DC382D;
		fill:rgba(0,0,0,0);
	}
	svg.railroad-diagram text {
		font:bold 14px monospace;
		text-anchor:middle;
	}
	svg.railroad-diagram text.label{
		text-anchor:start;
	}
	svg.railroad-diagram text.comment{
		font:italic 12px monospace;
	}
	svg.railroad-diagram rect{
		stroke-width:3;
		stroke: #DC382D;
		fill: none;
	}
	svg.railroad-diagram rect.group-box {
		stroke: #DC382D;
		stroke-dasharray: 10 5;
		fill: none;
	}

/* ]]> */
</style><g>
<path d="M20 38v20m10 -20v20m-10 -10h20"></path></g><path d="M40 48h10"></path><g>
<path d="M50 48h0.0"></path><path d="M1447.0 48h0.0"></path><g class="terminal ">
<path d="M50.0 48h0.0"></path><path d="M172.0 48h0.0"></path><rect height="22" rx="10" ry="10" width="122.0" x="50.0" y="37"></rect><text x="111.0" y="52">GEORADIUS&#95;RO</text></g><path d="M172.0 48h10"></path><path d="M182.0 48h10"></path><g class="non-terminal ">
<path d="M192.0 48h0.0"></path><path d="M237.5 48h0.0"></path><rect height="22" width="45.5" x="192.0" y="37"></rect><text x="214.75" y="52">key</text></g><path d="M237.5 48h10"></path><path d="M247.5 48h10"></path><g class="non-terminal ">
<path d="M257.5 48h0.0"></path><path d="M354.0 48h0.0"></path><rect height="22" width="96.5" x="257.5" y="37"></rect><text x="305.75" y="52">longitude</text></g><path d="M354.0 48h10"></path><path d="M364.0 48h10"></path><g class="non-terminal ">
<path d="M374.0 48h0.0"></path><path d="M462.0 48h0.0"></path><rect height="22" width="88.0" x="374.0" y="37"></rect><text x="418.0" y="52">latitude</text></g><path d="M462.0 48h10"></path><path d="M472.0 48h10"></path><g class="non-terminal ">
<path d="M482.0 48h0.0"></path><path d="M553.0 48h0.0"></path><rect height="22" width="71.0" x="482.0" y="37"></rect><text x="517.5" y="52">radius</text></g><path d="M553.0 48h10"></path><g>
<path d="M563.0 48h0.0"></path><path d="M640.0 48h0.0"></path><path d="M563.0 48h20"></path><g class="terminal ">
<path d="M583.0 48h4.25"></path><path d="M615.75 48h4.25"></path><rect height="22" rx="10" ry="10" width="28.5" x="587.25" y="37"></rect><text x="601.5" y="52">M</text></g><path d="M620.0 48h20"></path><path d="M563.0 48a10 10 0 0 1 10 10v10a10 10 0 0 0 10 10"></path><g class="terminal ">
<path d="M583.0 78h0.0"></path><path d="M620.0 78h0.0"></path><rect height="22" rx="10" ry="10" width="37.0" x="583.0" y="67"></rect><text x="601.5" y="82">KM</text></g><path d="M620.0 78a10 10 0 0 0 10 -10v-10a10 10 0 0 1 10 -10"></path><path d="M563.0 48a10 10 0 0 1 10 10v40a10 10 0 0 0 10 10"></path><g class="terminal ">
<path d="M583.0 108h0.0"></path><path d="M620.0 108h0.0"></path><rect height="22" rx="10" ry="10" width="37.0" x="583.0" y="97"></rect><text x="601.5" y="112">FT</text></g><path d="M620.0 108a10 10 0 0 0 10 -10v-40a10 10 0 0 1 10 -10"></path><path d="M563.0 48a10 10 0 0 1 10 10v70a10 10 0 0 0 10 10"></path><g class="terminal ">
<path d="M583.0 138h0.0"></path><path d="M620.0 138h0.0"></path><rect height="22" rx="10" ry="10" width="37.0" x="583.0" y="127"></rect><text x="601.5" y="142">MI</text></g><path d="M620.0 138a10 10 0 0 0 10 -10v-70a10 10 0 0 1 10 -10"></path></g><g>
<path d="M640.0 48h0.0"></path><path d="M776.5 48h0.0"></path><path d="M640.0 48a10 10 0 0 0 10 -10v0a10 10 0 0 1 10 -10"></path><g>
<path d="M660.0 28h96.5"></path></g><path d="M756.5 28a10 10 0 0 1 10 10v0a10 10 0 0 0 10 10"></path><path d="M640.0 48h20"></path><g class="terminal ">
<path d="M660.0 48h0.0"></path><path d="M756.5 48h0.0"></path><rect height="22" rx="10" ry="10" width="96.5" x="660.0" y="37"></rect><text x="708.25" y="52">WITHCOORD</text></g><path d="M756.5 48h20"></path></g><g>
<path d="M776.5 48h0.0"></path><path d="M904.5 48h0.0"></path><path d="M776.5 48a10 10 0 0 0 10 -10v0a10 10 0 0 1 10 -10"></path><g>
<path d="M796.5 28h88.0"></path></g><path d="M884.5 28a10 10 0 0 1 10 10v0a10 10 0 0 0 10 10"></path><path d="M776.5 48h20"></path><g class="terminal ">
<path d="M796.5 48h0.0"></path><path d="M884.5 48h0.0"></path><rect height="22" rx="10" ry="10" width="88.0" x="796.5" y="37"></rect><text x="840.5" y="52">WITHDIST</text></g><path d="M884.5 48h20"></path></g><g>
<path d="M904.5 48h0.0"></path><path d="M1032.5 48h0.0"></path><path d="M904.5 48a10 10 0 0 0 10 -10v0a10 10 0 0 1 10 -10"></path><g>
<path d="M924.5 28h88.0"></path></g><path d="M1012.5 28a10 10 0 0 1 10 10v0a10 10 0 0 0 10 10"></path><path d="M904.5 48h20"></path><g class="terminal ">
<path d="M924.5 48h0.0"></path><path d="M1012.5 48h0.0"></path><rect height="22" rx="10" ry="10" width="88.0" x="924.5" y="37"></rect><text x="968.5" y="52">WITHHASH</text></g><path d="M1012.5 48h20"></path></g><g>
<path d="M1032.5 48h0.0"></path><path d="M1313.0 48h0.0"></path><path d="M1032.5 48a10 10 0 0 0 10 -10v-8a10 10 0 0 1 10 -10"></path><g>
<path d="M1052.5 20h240.5"></path></g><path d="M1293.0 20a10 10 0 0 1 10 10v8a10 10 0 0 0 10 10"></path><path d="M1032.5 48h20"></path><g>
<path d="M1052.5 48h0.0"></path><path d="M1293.0 48h0.0"></path><g>
<path d="M1052.5 48h0.0"></path><path d="M1197.5 48h0.0"></path><g class="terminal ">
<path d="M1052.5 48h0.0"></path><path d="M1115.0 48h0.0"></path><rect height="22" rx="10" ry="10" width="62.5" x="1052.5" y="37"></rect><text x="1083.75" y="52">COUNT</text></g><path d="M1115.0 48h10"></path><path d="M1125.0 48h10"></path><g class="non-terminal ">
<path d="M1135.0 48h0.0"></path><path d="M1197.5 48h0.0"></path><rect height="22" width="62.5" x="1135.0" y="37"></rect><text x="1166.25" y="52">count</text></g></g><path d="M1197.5 48h10"></path><g>
<path d="M1207.5 48h0.0"></path><path d="M1293.0 48h0.0"></path><path d="M1207.5 48a10 10 0 0 0 10 -10v0a10 10 0 0 1 10 -10"></path><g>
<path d="M1227.5 28h45.5"></path></g><path d="M1273.0 28a10 10 0 0 1 10 10v0a10 10 0 0 0 10 10"></path><path d="M1207.5 48h20"></path><g class="terminal ">
<path d="M1227.5 48h0.0"></path><path d="M1273.0 48h0.0"></path><rect height="22" rx="10" ry="10" width="45.5" x="1227.5" y="37"></rect><text x="1250.25" y="52">ANY</text></g><path d="M1273.0 48h20"></path></g></g><path d="M1293.0 48h20"></path></g><g>
<path d="M1313.0 48h0.0"></path><path d="M1447.0 48h0.0"></path><path d="M1313.0 48a10 10 0 0 0 10 -10v0a10 10 0 0 1 10 -10"></path><g>
<path d="M1333.0 28h94.0"></path></g><path d="M1427.0 28a10 10 0 0 1 10 10v0a10 10 0 0 0 10 10"></path><path d="M1313.0 48h20"></path><g>
<path d="M1333.0 48h0.0"></path><path d="M1427.0 48h0.0"></path><path d="M1333.0 48h20"></path><g class="terminal ">
<path d="M1353.0 48h4.25"></path><path d="M1402.75 48h4.25"></path><rect height="22" rx="10" ry="10" width="45.5" x="1357.25" y="37"></rect><text x="1380.0" y="52">ASC</text></g><path d="M1407.0 48h20"></path><path d="M1333.0 48a10 10 0 0 1 10 10v10a10 10 0 0 0 10 10"></path><g class="terminal ">
<path d="M1353.0 78h0.0"></path><path d="M1407.0 78h0.0"></path><rect height="22" rx="10" ry="10" width="54.0" x="1353.0" y="67"></rect><text x="1380.0" y="82">DESC</text></g><path d="M1407.0 78a10 10 0 0 0 10 -10v-10a10 10 0 0 1 10 -10"></path></g><path d="M1427.0 48h20"></path></g></g><path d="M1447.0 48h10"></path><path d="M 1457.0 48 h 20 m -10 -10 v 20 m 10 -20 v 20"></path></g></svg>