<svg class="railroad-diagram" height="289" viewBox="0 0 1632.0 289" width="1632.0" xmlns="http://www.w3.org/2000/svg" xmlns:xlink="http://www.w3.org/1999/xlink">
<defs>
<style type="text/css"><![CDATA[
svg.railroad-diagram { background-color: transparent; }
.terminal rect { fill: #DC382D !important; stroke: #DC382D !important; }
.terminal text { fill: white !important; font-weight: bold; }
.nonterminal rect { fill: none !important; stroke: #DC382D !important; stroke-width: 2; }
.nonterminal text { fill: #DC382D !important; font-weight: bold; }
path { stroke: #DC382D !important; stroke-width: 2; fill: none; }
circle { fill: #DC382D !important; stroke: #DC382D !important; }
]]></style>
</defs>
<g transform="translate(.5 .5)">
<style>/* <![CDATA[ */
	svg.railroad-diagram {
		background-color: transparent;
	}
	svg.railroad-diagram path {
		stroke-width:3;
		stroke: #DC382D;
		fill:rgba(0,0,0,0);
	}
	svg.railroad-diagram text {
		font:bold 14px monospace;
		text-anchor:middle;
	}
	svg.railroad-diagram text.label{
		text-anchor:start;
	}
	svg.railroad-diagram text.comment{
		font:italic 12px monospace;
	}
	svg.railroad-diagram rect{
		stroke-width:3;
		stroke: #DC382D;
		fill: none;
	}
	svg.railroad-diagram rect.group-box {
		stroke: #DC382D;
		stroke-dasharray: 10 5;
		fill: none;
	}

/* ]]> */
</style><g>
<path d="M20 38v20m10 -20v20m-10 -10h20"></path></g><path d="M40 48h10"></path><g>
<path d="M50 48h0.0"></path><path d="M1582.0 48h0.0"></path><g class="terminal ">
<path d="M50.0 48h0.0"></path><path d="M189.0 48h0.0"></path><rect height="22" rx="10" ry="10" width="139.0" x="50.0" y="37"></rect><text x="119.5" y="52">GEOSEARCHSTORE</text></g><path d="M189.0 48h10"></path><path d="M199.0 48h10"></path><g class="non-terminal ">
<path d="M209.0 48h0.0"></path><path d="M322.5 48h0.0"></path><rect height="22" width="113.5" x="209.0" y="37"></rect><text x="265.75" y="52">destination</text></g><path d="M322.5 48h10"></path><path d="M332.5 48h10"></path><g class="non-terminal ">
<path d="M342.5 48h0.0"></path><path d="M413.5 48h0.0"></path><rect height="22" width="71.0" x="342.5" y="37"></rect><text x="378.0" y="52">source</text></g><path d="M413.5 48h10"></path><g>
<path d="M423.5 48h0.0"></path><path d="M668.0 48h0.0"></path><path d="M423.5 48h20"></path><g>
<path d="M443.5 48h4.25"></path><path d="M643.75 48h4.25"></path><g class="terminal ">
<path d="M447.75 48h0.0"></path><path d="M552.75 48h0.0"></path><rect height="22" rx="10" ry="10" width="105.0" x="447.75" y="37"></rect><text x="500.25" y="52">FROMMEMBER</text></g><path d="M552.75 48h10"></path><path d="M562.75 48h10"></path><g class="non-terminal ">
<path d="M572.75 48h0.0"></path><path d="M643.75 48h0.0"></path><rect height="22" width="71.0" x="572.75" y="37"></rect><text x="608.25" y="52">member</text></g></g><path d="M648.0 48h20"></path><path d="M423.5 48a10 10 0 0 1 10 10v10a10 10 0 0 0 10 10"></path><g>
<path d="M443.5 78h0.0"></path><path d="M648.0 78h0.0"></path><g class="non-terminal ">
<path d="M443.5 78h0.0"></path><path d="M540.0 78h0.0"></path><rect height="22" width="96.5" x="443.5" y="67"></rect><text x="491.75" y="82">longitude</text></g><path d="M540.0 78h10"></path><path d="M550.0 78h10"></path><g class="non-terminal ">
<path d="M560.0 78h0.0"></path><path d="M648.0 78h0.0"></path><rect height="22" width="88.0" x="560.0" y="67"></rect><text x="604.0" y="82">latitude</text></g></g><path d="M648.0 78a10 10 0 0 0 10 -10v-10a10 10 0 0 1 10 -10"></path></g><g>
<path d="M668.0 48h0.0"></path><path d="M1031.0 48h0.0"></path><path d="M668.0 48h20"></path><g>
<path d="M688.0 48h28.5"></path><path d="M982.5 48h28.5"></path><g>
<path d="M716.5 48h0.0"></path><path d="M895.5 48h0.0"></path><g class="terminal ">
<path d="M716.5 48h0.0"></path><path d="M804.5 48h0.0"></path><rect height="22" rx="10" ry="10" width="88.0" x="716.5" y="37"></rect><text x="760.5" y="52">BYRADIUS</text></g><path d="M804.5 48h10"></path><path d="M814.5 48h10"></path><g class="non-terminal ">
<path d="M824.5 48h0.0"></path><path d="M895.5 48h0.0"></path><rect height="22" width="71.0" x="824.5" y="37"></rect><text x="860.0" y="52">radius</text></g></g><path d="M895.5 48h10"></path><g>
<path d="M905.5 48h0.0"></path><path d="M982.5 48h0.0"></path><path d="M905.5 48h20"></path><g class="terminal ">
<path d="M925.5 48h4.25"></path><path d="M958.25 48h4.25"></path><rect height="22" rx="10" ry="10" width="28.5" x="929.75" y="37"></rect><text x="944.0" y="52">M</text></g><path d="M962.5 48h20"></path><path d="M905.5 48a10 10 0 0 1 10 10v10a10 10 0 0 0 10 10"></path><g class="terminal ">
<path d="M925.5 78h0.0"></path><path d="M962.5 78h0.0"></path><rect height="22" rx="10" ry="10" width="37.0" x="925.5" y="67"></rect><text x="944.0" y="82">KM</text></g><path d="M962.5 78a10 10 0 0 0 10 -10v-10a10 10 0 0 1 10 -10"></path><path d="M905.5 48a10 10 0 0 1 10 10v40a10 10 0 0 0 10 10"></path><g class="terminal ">
<path d="M925.5 108h0.0"></path><path d="M962.5 108h0.0"></path><rect height="22" rx="10" ry="10" width="37.0" x="925.5" y="97"></rect><text x="944.0" y="112">FT</text></g><path d="M962.5 108a10 10 0 0 0 10 -10v-40a10 10 0 0 1 10 -10"></path><path d="M905.5 48a10 10 0 0 1 10 10v70a10 10 0 0 0 10 10"></path><g class="terminal ">
<path d="M925.5 138h0.0"></path><path d="M962.5 138h0.0"></path><rect height="22" rx="10" ry="10" width="37.0" x="925.5" y="127"></rect><text x="944.0" y="142">MI</text></g><path d="M962.5 138a10 10 0 0 0 10 -10v-70a10 10 0 0 1 10 -10"></path></g></g><path d="M1011.0 48h20"></path><path d="M668.0 48a10 10 0 0 1 10 10v100a10 10 0 0 0 10 10"></path><g>
<path d="M688.0 168h0.0"></path><path d="M1011.0 168h0.0"></path><g>
<path d="M688.0 168h0.0"></path><path d="M833.0 168h0.0"></path><g class="terminal ">
<path d="M688.0 168h0.0"></path><path d="M750.5 168h0.0"></path><rect height="22" rx="10" ry="10" width="62.5" x="688.0" y="157"></rect><text x="719.25" y="172">BYBOX</text></g><path d="M750.5 168h10"></path><path d="M760.5 168h10"></path><g class="non-terminal ">
<path d="M770.5 168h0.0"></path><path d="M833.0 168h0.0"></path><rect height="22" width="62.5" x="770.5" y="157"></rect><text x="801.75" y="172">width</text></g></g><path d="M833.0 168h10"></path><path d="M843.0 168h10"></path><g class="non-terminal ">
<path d="M853.0 168h0.0"></path><path d="M924.0 168h0.0"></path><rect height="22" width="71.0" x="853.0" y="157"></rect><text x="888.5" y="172">height</text></g><path d="M924.0 168h10"></path><g>
<path d="M934.0 168h0.0"></path><path d="M1011.0 168h0.0"></path><path d="M934.0 168h20"></path><g class="terminal ">
<path d="M954.0 168h4.25"></path><path d="M986.75 168h4.25"></path><rect height="22" rx="10" ry="10" width="28.5" x="958.25" y="157"></rect><text x="972.5" y="172">M</text></g><path d="M991.0 168h20"></path><path d="M934.0 168a10 10 0 0 1 10 10v10a10 10 0 0 0 10 10"></path><g class="terminal ">
<path d="M954.0 198h0.0"></path><path d="M991.0 198h0.0"></path><rect height="22" rx="10" ry="10" width="37.0" x="954.0" y="187"></rect><text x="972.5" y="202">KM</text></g><path d="M991.0 198a10 10 0 0 0 10 -10v-10a10 10 0 0 1 10 -10"></path><path d="M934.0 168a10 10 0 0 1 10 10v40a10 10 0 0 0 10 10"></path><g class="terminal ">
<path d="M954.0 228h0.0"></path><path d="M991.0 228h0.0"></path><rect height="22" rx="10" ry="10" width="37.0" x="954.0" y="217"></rect><text x="972.5" y="232">FT</text></g><path d="M991.0 228a10 10 0 0 0 10 -10v-40a10 10 0 0 1 10 -10"></path><path d="M934.0 168a10 10 0 0 1 10 10v70a10 10 0 0 0 10 10"></path><g class="terminal ">
<path d="M954.0 258h0.0"></path><path d="M991.0 258h0.0"></path><rect height="22" rx="10" ry="10" width="37.0" x="954.0" y="247"></rect><text x="972.5" y="262">MI</text></g><path d="M991.0 258a10 10 0 0 0 10 -10v-70a10 10 0 0 1 10 -10"></path></g></g><path d="M1011.0 168a10 10 0 0 0 10 -10v-100a10 10 0 0 1 10 -10"></path></g><g>
<path d="M1031.0 48h0.0"></path><path d="M1165.0 48h0.0"></path><path d="M1031.0 48a10 10 0 0 0 10 -10v0a10 10 0 0 1 10 -10"></path><g>
<path d="M1051.0 28h94.0"></path></g><path d="M1145.0 28a10 10 0 0 1 10 10v0a10 10 0 0 0 10 10"></path><path d="M1031.0 48h20"></path><g>
<path d="M1051.0 48h0.0"></path><path d="M1145.0 48h0.0"></path><path d="M1051.0 48h20"></path><g class="terminal ">
<path d="M1071.0 48h4.25"></path><path d="M1120.75 48h4.25"></path><rect height="22" rx="10" ry="10" width="45.5" x="1075.25" y="37"></rect><text x="1098.0" y="52">ASC</text></g><path d="M1125.0 48h20"></path><path d="M1051.0 48a10 10 0 0 1 10 10v10a10 10 0 0 0 10 10"></path><g class="terminal ">
<path d="M1071.0 78h0.0"></path><path d="M1125.0 78h0.0"></path><rect height="22" rx="10" ry="10" width="54.0" x="1071.0" y="67"></rect><text x="1098.0" y="82">DESC</text></g><path d="M1125.0 78a10 10 0 0 0 10 -10v-10a10 10 0 0 1 10 -10"></path></g><path d="M1145.0 48h20"></path></g><g>
<path d="M1165.0 48h0.0"></path><path d="M1445.5 48h0.0"></path><path d="M1165.0 48a10 10 0 0 0 10 -10v-8a10 10 0 0 1 10 -10"></path><g>
<path d="M1185.0 20h240.5"></path></g><path d="M1425.5 20a10 10 0 0 1 10 10v8a10 10 0 0 0 10 10"></path><path d="M1165.0 48h20"></path><g>
<path d="M1185.0 48h0.0"></path><path d="M1425.5 48h0.0"></path><g>
<path d="M1185.0 48h0.0"></path><path d="M1330.0 48h0.0"></path><g class="terminal ">
<path d="M1185.0 48h0.0"></path><path d="M1247.5 48h0.0"></path><rect height="22" rx="10" ry="10" width="62.5" x="1185.0" y="37"></rect><text x="1216.25" y="52">COUNT</text></g><path d="M1247.5 48h10"></path><path d="M1257.5 48h10"></path><g class="non-terminal ">
<path d="M1267.5 48h0.0"></path><path d="M1330.0 48h0.0"></path><rect height="22" width="62.5" x="1267.5" y="37"></rect><text x="1298.75" y="52">count</text></g></g><path d="M1330.0 48h10"></path><g>
<path d="M1340.0 48h0.0"></path><path d="M1425.5 48h0.0"></path><path d="M1340.0 48a10 10 0 0 0 10 -10v0a10 10 0 0 1 10 -10"></path><g>
<path d="M1360.0 28h45.5"></path></g><path d="M1405.5 28a10 10 0 0 1 10 10v0a10 10 0 0 0 10 10"></path><path d="M1340.0 48h20"></path><g class="terminal ">
<path d="M1360.0 48h0.0"></path><path d="M1405.5 48h0.0"></path><rect height="22" rx="10" ry="10" width="45.5" x="1360.0" y="37"></rect><text x="1382.75" y="52">ANY</text></g><path d="M1405.5 48h20"></path></g></g><path d="M1425.5 48h20"></path></g><g>
<path d="M1445.5 48h0.0"></path><path d="M1582.0 48h0.0"></path><path d="M1445.5 48a10 10 0 0 0 10 -10v0a10 10 0 0 1 10 -10"></path><g>
<path d="M1465.5 28h96.5"></path></g><path d="M1562.0 28a10 10 0 0 1 10 10v0a10 10 0 0 0 10 10"></path><path d="M1445.5 48h20"></path><g class="terminal ">
<path d="M1465.5 48h0.0"></path><path d="M1562.0 48h0.0"></path><rect height="22" rx="10" ry="10" width="96.5" x="1465.5" y="37"></rect><text x="1513.75" y="52">STOREDIST</text></g><path d="M1562.0 48h20"></path></g></g><path d="M1582.0 48h10"></path><path d="M 1592.0 48 h 20 m -10 -10 v 20 m 10 -20 v 20"></path></g></svg>