<svg class="railroad-diagram" height="289" viewBox="0 0 1686.5 289" width="1686.5" xmlns="http://www.w3.org/2000/svg" xmlns:xlink="http://www.w3.org/1999/xlink">
<defs>
<style type="text/css"><![CDATA[
svg.railroad-diagram { background-color: transparent; }
.terminal rect { fill: #DC382D !important; stroke: #DC382D !important; }
.terminal text { fill: white !important; font-weight: bold; }
.nonterminal rect { fill: none !important; stroke: #DC382D !important; stroke-width: 2; }
.nonterminal text { fill: #DC382D !important; font-weight: bold; }
path { stroke: #DC382D !important; stroke-width: 2; fill: none; }
circle { fill: #DC382D !important; stroke: #DC382D !important; }
]]></style>
</defs>
<g transform="translate(.5 .5)">
<style>/* <![CDATA[ */
	svg.railroad-diagram {
		background-color: transparent;
	}
	svg.railroad-diagram path {
		stroke-width:3;
		stroke: #DC382D;
		fill:rgba(0,0,0,0);
	}
	svg.railroad-diagram text {
		font:bold 14px monospace;
		text-anchor:middle;
	}
	svg.railroad-diagram text.label{
		text-anchor:start;
	}
	svg.railroad-diagram text.comment{
		font:italic 12px monospace;
	}
	svg.railroad-diagram rect{
		stroke-width:3;
		stroke: #DC382D;
		fill: none;
	}
	svg.railroad-diagram rect.group-box {
		stroke: #DC382D;
		stroke-dasharray: 10 5;
		fill: none;
	}

/* ]]> */
</style><g>
<path d="M20 38v20m10 -20v20m-10 -10h20"></path></g><path d="M40 48h10"></path><g>
<path d="M50 48h0.0"></path><path d="M1636.5 48h0.0"></path><g class="terminal ">
<path d="M50.0 48h0.0"></path><path d="M146.5 48h0.0"></path><rect height="22" rx="10" ry="10" width="96.5" x="50.0" y="37"></rect><text x="98.25" y="52">GEOSEARCH</text></g><path d="M146.5 48h10"></path><path d="M156.5 48h10"></path><g class="non-terminal ">
<path d="M166.5 48h0.0"></path><path d="M212.0 48h0.0"></path><rect height="22" width="45.5" x="166.5" y="37"></rect><text x="189.25" y="52">key</text></g><path d="M212.0 48h10"></path><g>
<path d="M222.0 48h0.0"></path><path d="M466.5 48h0.0"></path><path d="M222.0 48h20"></path><g>
<path d="M242.0 48h4.25"></path><path d="M442.25 48h4.25"></path><g class="terminal ">
<path d="M246.25 48h0.0"></path><path d="M351.25 48h0.0"></path><rect height="22" rx="10" ry="10" width="105.0" x="246.25" y="37"></rect><text x="298.75" y="52">FROMMEMBER</text></g><path d="M351.25 48h10"></path><path d="M361.25 48h10"></path><g class="non-terminal ">
<path d="M371.25 48h0.0"></path><path d="M442.25 48h0.0"></path><rect height="22" width="71.0" x="371.25" y="37"></rect><text x="406.75" y="52">member</text></g></g><path d="M446.5 48h20"></path><path d="M222.0 48a10 10 0 0 1 10 10v10a10 10 0 0 0 10 10"></path><g>
<path d="M242.0 78h0.0"></path><path d="M446.5 78h0.0"></path><g class="non-terminal ">
<path d="M242.0 78h0.0"></path><path d="M338.5 78h0.0"></path><rect height="22" width="96.5" x="242.0" y="67"></rect><text x="290.25" y="82">longitude</text></g><path d="M338.5 78h10"></path><path d="M348.5 78h10"></path><g class="non-terminal ">
<path d="M358.5 78h0.0"></path><path d="M446.5 78h0.0"></path><rect height="22" width="88.0" x="358.5" y="67"></rect><text x="402.5" y="82">latitude</text></g></g><path d="M446.5 78a10 10 0 0 0 10 -10v-10a10 10 0 0 1 10 -10"></path></g><g>
<path d="M466.5 48h0.0"></path><path d="M829.5 48h0.0"></path><path d="M466.5 48h20"></path><g>
<path d="M486.5 48h28.5"></path><path d="M781.0 48h28.5"></path><g>
<path d="M515.0 48h0.0"></path><path d="M694.0 48h0.0"></path><g class="terminal ">
<path d="M515.0 48h0.0"></path><path d="M603.0 48h0.0"></path><rect height="22" rx="10" ry="10" width="88.0" x="515.0" y="37"></rect><text x="559.0" y="52">BYRADIUS</text></g><path d="M603.0 48h10"></path><path d="M613.0 48h10"></path><g class="non-terminal ">
<path d="M623.0 48h0.0"></path><path d="M694.0 48h0.0"></path><rect height="22" width="71.0" x="623.0" y="37"></rect><text x="658.5" y="52">radius</text></g></g><path d="M694.0 48h10"></path><g>
<path d="M704.0 48h0.0"></path><path d="M781.0 48h0.0"></path><path d="M704.0 48h20"></path><g class="terminal ">
<path d="M724.0 48h4.25"></path><path d="M756.75 48h4.25"></path><rect height="22" rx="10" ry="10" width="28.5" x="728.25" y="37"></rect><text x="742.5" y="52">M</text></g><path d="M761.0 48h20"></path><path d="M704.0 48a10 10 0 0 1 10 10v10a10 10 0 0 0 10 10"></path><g class="terminal ">
<path d="M724.0 78h0.0"></path><path d="M761.0 78h0.0"></path><rect height="22" rx="10" ry="10" width="37.0" x="724.0" y="67"></rect><text x="742.5" y="82">KM</text></g><path d="M761.0 78a10 10 0 0 0 10 -10v-10a10 10 0 0 1 10 -10"></path><path d="M704.0 48a10 10 0 0 1 10 10v40a10 10 0 0 0 10 10"></path><g class="terminal ">
<path d="M724.0 108h0.0"></path><path d="M761.0 108h0.0"></path><rect height="22" rx="10" ry="10" width="37.0" x="724.0" y="97"></rect><text x="742.5" y="112">FT</text></g><path d="M761.0 108a10 10 0 0 0 10 -10v-40a10 10 0 0 1 10 -10"></path><path d="M704.0 48a10 10 0 0 1 10 10v70a10 10 0 0 0 10 10"></path><g class="terminal ">
<path d="M724.0 138h0.0"></path><path d="M761.0 138h0.0"></path><rect height="22" rx="10" ry="10" width="37.0" x="724.0" y="127"></rect><text x="742.5" y="142">MI</text></g><path d="M761.0 138a10 10 0 0 0 10 -10v-70a10 10 0 0 1 10 -10"></path></g></g><path d="M809.5 48h20"></path><path d="M466.5 48a10 10 0 0 1 10 10v100a10 10 0 0 0 10 10"></path><g>
<path d="M486.5 168h0.0"></path><path d="M809.5 168h0.0"></path><g>
<path d="M486.5 168h0.0"></path><path d="M631.5 168h0.0"></path><g class="terminal ">
<path d="M486.5 168h0.0"></path><path d="M549.0 168h0.0"></path><rect height="22" rx="10" ry="10" width="62.5" x="486.5" y="157"></rect><text x="517.75" y="172">BYBOX</text></g><path d="M549.0 168h10"></path><path d="M559.0 168h10"></path><g class="non-terminal ">
<path d="M569.0 168h0.0"></path><path d="M631.5 168h0.0"></path><rect height="22" width="62.5" x="569.0" y="157"></rect><text x="600.25" y="172">width</text></g></g><path d="M631.5 168h10"></path><path d="M641.5 168h10"></path><g class="non-terminal ">
<path d="M651.5 168h0.0"></path><path d="M722.5 168h0.0"></path><rect height="22" width="71.0" x="651.5" y="157"></rect><text x="687.0" y="172">height</text></g><path d="M722.5 168h10"></path><g>
<path d="M732.5 168h0.0"></path><path d="M809.5 168h0.0"></path><path d="M732.5 168h20"></path><g class="terminal ">
<path d="M752.5 168h4.25"></path><path d="M785.25 168h4.25"></path><rect height="22" rx="10" ry="10" width="28.5" x="756.75" y="157"></rect><text x="771.0" y="172">M</text></g><path d="M789.5 168h20"></path><path d="M732.5 168a10 10 0 0 1 10 10v10a10 10 0 0 0 10 10"></path><g class="terminal ">
<path d="M752.5 198h0.0"></path><path d="M789.5 198h0.0"></path><rect height="22" rx="10" ry="10" width="37.0" x="752.5" y="187"></rect><text x="771.0" y="202">KM</text></g><path d="M789.5 198a10 10 0 0 0 10 -10v-10a10 10 0 0 1 10 -10"></path><path d="M732.5 168a10 10 0 0 1 10 10v40a10 10 0 0 0 10 10"></path><g class="terminal ">
<path d="M752.5 228h0.0"></path><path d="M789.5 228h0.0"></path><rect height="22" rx="10" ry="10" width="37.0" x="752.5" y="217"></rect><text x="771.0" y="232">FT</text></g><path d="M789.5 228a10 10 0 0 0 10 -10v-40a10 10 0 0 1 10 -10"></path><path d="M732.5 168a10 10 0 0 1 10 10v70a10 10 0 0 0 10 10"></path><g class="terminal ">
<path d="M752.5 258h0.0"></path><path d="M789.5 258h0.0"></path><rect height="22" rx="10" ry="10" width="37.0" x="752.5" y="247"></rect><text x="771.0" y="262">MI</text></g><path d="M789.5 258a10 10 0 0 0 10 -10v-70a10 10 0 0 1 10 -10"></path></g></g><path d="M809.5 168a10 10 0 0 0 10 -10v-100a10 10 0 0 1 10 -10"></path></g><g>
<path d="M829.5 48h0.0"></path><path d="M963.5 48h0.0"></path><path d="M829.5 48a10 10 0 0 0 10 -10v0a10 10 0 0 1 10 -10"></path><g>
<path d="M849.5 28h94.0"></path></g><path d="M943.5 28a10 10 0 0 1 10 10v0a10 10 0 0 0 10 10"></path><path d="M829.5 48h20"></path><g>
<path d="M849.5 48h0.0"></path><path d="M943.5 48h0.0"></path><path d="M849.5 48h20"></path><g class="terminal ">
<path d="M869.5 48h4.25"></path><path d="M919.25 48h4.25"></path><rect height="22" rx="10" ry="10" width="45.5" x="873.75" y="37"></rect><text x="896.5" y="52">ASC</text></g><path d="M923.5 48h20"></path><path d="M849.5 48a10 10 0 0 1 10 10v10a10 10 0 0 0 10 10"></path><g class="terminal ">
<path d="M869.5 78h0.0"></path><path d="M923.5 78h0.0"></path><rect height="22" rx="10" ry="10" width="54.0" x="869.5" y="67"></rect><text x="896.5" y="82">DESC</text></g><path d="M923.5 78a10 10 0 0 0 10 -10v-10a10 10 0 0 1 10 -10"></path></g><path d="M943.5 48h20"></path></g><g>
<path d="M963.5 48h0.0"></path><path d="M1244.0 48h0.0"></path><path d="M963.5 48a10 10 0 0 0 10 -10v-8a10 10 0 0 1 10 -10"></path><g>
<path d="M983.5 20h240.5"></path></g><path d="M1224.0 20a10 10 0 0 1 10 10v8a10 10 0 0 0 10 10"></path><path d="M963.5 48h20"></path><g>
<path d="M983.5 48h0.0"></path><path d="M1224.0 48h0.0"></path><g>
<path d="M983.5 48h0.0"></path><path d="M1128.5 48h0.0"></path><g class="terminal ">
<path d="M983.5 48h0.0"></path><path d="M1046.0 48h0.0"></path><rect height="22" rx="10" ry="10" width="62.5" x="983.5" y="37"></rect><text x="1014.75" y="52">COUNT</text></g><path d="M1046.0 48h10"></path><path d="M1056.0 48h10"></path><g class="non-terminal ">
<path d="M1066.0 48h0.0"></path><path d="M1128.5 48h0.0"></path><rect height="22" width="62.5" x="1066.0" y="37"></rect><text x="1097.25" y="52">count</text></g></g><path d="M1128.5 48h10"></path><g>
<path d="M1138.5 48h0.0"></path><path d="M1224.0 48h0.0"></path><path d="M1138.5 48a10 10 0 0 0 10 -10v0a10 10 0 0 1 10 -10"></path><g>
<path d="M1158.5 28h45.5"></path></g><path d="M1204.0 28a10 10 0 0 1 10 10v0a10 10 0 0 0 10 10"></path><path d="M1138.5 48h20"></path><g class="terminal ">
<path d="M1158.5 48h0.0"></path><path d="M1204.0 48h0.0"></path><rect height="22" rx="10" ry="10" width="45.5" x="1158.5" y="37"></rect><text x="1181.25" y="52">ANY</text></g><path d="M1204.0 48h20"></path></g></g><path d="M1224.0 48h20"></path></g><g>
<path d="M1244.0 48h0.0"></path><path d="M1380.5 48h0.0"></path><path d="M1244.0 48a10 10 0 0 0 10 -10v0a10 10 0 0 1 10 -10"></path><g>
<path d="M1264.0 28h96.5"></path></g><path d="M1360.5 28a10 10 0 0 1 10 10v0a10 10 0 0 0 10 10"></path><path d="M1244.0 48h20"></path><g class="terminal ">
<path d="M1264.0 48h0.0"></path><path d="M1360.5 48h0.0"></path><rect height="22" rx="10" ry="10" width="96.5" x="1264.0" y="37"></rect><text x="1312.25" y="52">WITHCOORD</text></g><path d="M1360.5 48h20"></path></g><g>
<path d="M1380.5 48h0.0"></path><path d="M1508.5 48h0.0"></path><path d="M1380.5 48a10 10 0 0 0 10 -10v0a10 10 0 0 1 10 -10"></path><g>
<path d="M1400.5 28h88.0"></path></g><path d="M1488.5 28a10 10 0 0 1 10 10v0a10 10 0 0 0 10 10"></path><path d="M1380.5 48h20"></path><g class="terminal ">
<path d="M1400.5 48h0.0"></path><path d="M1488.5 48h0.0"></path><rect height="22" rx="10" ry="10" width="88.0" x="1400.5" y="37"></rect><text x="1444.5" y="52">WITHDIST</text></g><path d="M1488.5 48h20"></path></g><g>
<path d="M1508.5 48h0.0"></path><path d="M1636.5 48h0.0"></path><path d="M1508.5 48a10 10 0 0 0 10 -10v0a10 10 0 0 1 10 -10"></path><g>
<path d="M1528.5 28h88.0"></path></g><path d="M1616.5 28a10 10 0 0 1 10 10v0a10 10 0 0 0 10 10"></path><path d="M1508.5 48h20"></path><g class="terminal ">
<path d="M1528.5 48h0.0"></path><path d="M1616.5 48h0.0"></path><rect height="22" rx="10" ry="10" width="88.0" x="1528.5" y="37"></rect><text x="1572.5" y="52">WITHHASH</text></g><path d="M1616.5 48h20"></path></g></g><path d="M1636.5 48h10"></path><path d="M 1646.5 48 h 20 m -10 -10 v 20 m 10 -20 v 20"></path></g></svg>