<svg class="railroad-diagram" height="289" viewBox="0 0 1811.5 289" width="1811.5" xmlns="http://www.w3.org/2000/svg" xmlns:xlink="http://www.w3.org/1999/xlink">
<defs>
<style type="text/css"><![CDATA[
svg.railroad-diagram { background-color: transparent; }
.terminal rect { fill: #DC382D !important; stroke: #DC382D !important; }
.terminal text { fill: white !important; font-weight: bold; }
.nonterminal rect { fill: none !important; stroke: #DC382D !important; stroke-width: 2; }
.nonterminal text { fill: #DC382D !important; font-weight: bold; }
path { stroke: #DC382D !important; stroke-width: 2; fill: none; }
circle { fill: #DC382D !important; stroke: #DC382D !important; }
]]></style>
</defs>
<g transform="translate(.5 .5)">
<style>/* <![CDATA[ */
	svg.railroad-diagram {
		background-color: transparent;
	}
	svg.railroad-diagram path {
		stroke-width:3;
		stroke: #DC382D;
		fill:rgba(0,0,0,0);
	}
	svg.railroad-diagram text {
		font:bold 14px monospace;
		text-anchor:middle;
	}
	svg.railroad-diagram text.label{
		text-anchor:start;
	}
	svg.railroad-diagram text.comment{
		font:italic 12px monospace;
	}
	svg.railroad-diagram rect{
		stroke-width:3;
		stroke: #DC382D;
		fill: none;
	}
	svg.railroad-diagram rect.group-box {
		stroke: #DC382D;
		stroke-dasharray: 10 5;
		fill: none;
	}

/* ]]> */
</style><g>
<path d="M20 38v20m10 -20v20m-10 -10h20"></path></g><path d="M40 48h10"></path><g>
<path d="M50 48h0.0"></path><path d="M1761.5 48h0.0"></path><g class="terminal ">
<path d="M50.0 48h0.0"></path><path d="M146.5 48h0.0"></path><rect height="22" rx="10" ry="10" width="96.5" x="50.0" y="37"></rect><text x="98.25" y="52">GEOSEARCH</text></g><path d="M146.5 48h10"></path><path d="M156.5 48h10"></path><g class="non-terminal ">
<path d="M166.5 48h0.0"></path><path d="M212.0 48h0.0"></path><rect height="22" width="45.5" x="166.5" y="37"></rect><text x="189.25" y="52">key</text></g><path d="M212.0 48h10"></path><g>
<path d="M222.0 48h0.0"></path><path d="M591.5 48h0.0"></path><path d="M222.0 48h20"></path><g>
<path d="M242.0 48h66.75"></path><path d="M504.75 48h66.75"></path><g class="terminal ">
<path d="M308.75 48h0.0"></path><path d="M413.75 48h0.0"></path><rect height="22" rx="10" ry="10" width="105.0" x="308.75" y="37"></rect><text x="361.25" y="52">FROMMEMBER</text></g><path d="M413.75 48h10"></path><path d="M423.75 48h10"></path><g class="non-terminal ">
<path d="M433.75 48h0.0"></path><path d="M504.75 48h0.0"></path><rect height="22" width="71.0" x="433.75" y="37"></rect><text x="469.25" y="52">member</text></g></g><path d="M571.5 48h20"></path><path d="M222.0 48a10 10 0 0 1 10 10v10a10 10 0 0 0 10 10"></path><g>
<path d="M242.0 78h0.0"></path><path d="M571.5 78h0.0"></path><g class="terminal ">
<path d="M242.0 78h0.0"></path><path d="M347.0 78h0.0"></path><rect height="22" rx="10" ry="10" width="105.0" x="242.0" y="67"></rect><text x="294.5" y="82">FROMLONLAT</text></g><path d="M347.0 78h10"></path><path d="M357.0 78h10"></path><g class="non-terminal ">
<path d="M367.0 78h0.0"></path><path d="M463.5 78h0.0"></path><rect height="22" width="96.5" x="367.0" y="67"></rect><text x="415.25" y="82">longitude</text></g><path d="M463.5 78h10"></path><path d="M473.5 78h10"></path><g class="non-terminal ">
<path d="M483.5 78h0.0"></path><path d="M571.5 78h0.0"></path><rect height="22" width="88.0" x="483.5" y="67"></rect><text x="527.5" y="82">latitude</text></g></g><path d="M571.5 78a10 10 0 0 0 10 -10v-10a10 10 0 0 1 10 -10"></path></g><g>
<path d="M591.5 48h0.0"></path><path d="M954.5 48h0.0"></path><path d="M591.5 48h20"></path><g>
<path d="M611.5 48h28.5"></path><path d="M906.0 48h28.5"></path><g>
<path d="M640.0 48h0.0"></path><path d="M819.0 48h0.0"></path><g class="terminal ">
<path d="M640.0 48h0.0"></path><path d="M728.0 48h0.0"></path><rect height="22" rx="10" ry="10" width="88.0" x="640.0" y="37"></rect><text x="684.0" y="52">BYRADIUS</text></g><path d="M728.0 48h10"></path><path d="M738.0 48h10"></path><g class="non-terminal ">
<path d="M748.0 48h0.0"></path><path d="M819.0 48h0.0"></path><rect height="22" width="71.0" x="748.0" y="37"></rect><text x="783.5" y="52">radius</text></g></g><path d="M819.0 48h10"></path><g>
<path d="M829.0 48h0.0"></path><path d="M906.0 48h0.0"></path><path d="M829.0 48h20"></path><g class="terminal ">
<path d="M849.0 48h4.25"></path><path d="M881.75 48h4.25"></path><rect height="22" rx="10" ry="10" width="28.5" x="853.25" y="37"></rect><text x="867.5" y="52">M</text></g><path d="M886.0 48h20"></path><path d="M829.0 48a10 10 0 0 1 10 10v10a10 10 0 0 0 10 10"></path><g class="terminal ">
<path d="M849.0 78h0.0"></path><path d="M886.0 78h0.0"></path><rect height="22" rx="10" ry="10" width="37.0" x="849.0" y="67"></rect><text x="867.5" y="82">KM</text></g><path d="M886.0 78a10 10 0 0 0 10 -10v-10a10 10 0 0 1 10 -10"></path><path d="M829.0 48a10 10 0 0 1 10 10v40a10 10 0 0 0 10 10"></path><g class="terminal ">
<path d="M849.0 108h0.0"></path><path d="M886.0 108h0.0"></path><rect height="22" rx="10" ry="10" width="37.0" x="849.0" y="97"></rect><text x="867.5" y="112">FT</text></g><path d="M886.0 108a10 10 0 0 0 10 -10v-40a10 10 0 0 1 10 -10"></path><path d="M829.0 48a10 10 0 0 1 10 10v70a10 10 0 0 0 10 10"></path><g class="terminal ">
<path d="M849.0 138h0.0"></path><path d="M886.0 138h0.0"></path><rect height="22" rx="10" ry="10" width="37.0" x="849.0" y="127"></rect><text x="867.5" y="142">MI</text></g><path d="M886.0 138a10 10 0 0 0 10 -10v-70a10 10 0 0 1 10 -10"></path></g></g><path d="M934.5 48h20"></path><path d="M591.5 48a10 10 0 0 1 10 10v100a10 10 0 0 0 10 10"></path><g>
<path d="M611.5 168h0.0"></path><path d="M934.5 168h0.0"></path><g>
<path d="M611.5 168h0.0"></path><path d="M756.5 168h0.0"></path><g class="terminal ">
<path d="M611.5 168h0.0"></path><path d="M674.0 168h0.0"></path><rect height="22" rx="10" ry="10" width="62.5" x="611.5" y="157"></rect><text x="642.75" y="172">BYBOX</text></g><path d="M674.0 168h10"></path><path d="M684.0 168h10"></path><g class="non-terminal ">
<path d="M694.0 168h0.0"></path><path d="M756.5 168h0.0"></path><rect height="22" width="62.5" x="694.0" y="157"></rect><text x="725.25" y="172">width</text></g></g><path d="M756.5 168h10"></path><path d="M766.5 168h10"></path><g class="non-terminal ">
<path d="M776.5 168h0.0"></path><path d="M847.5 168h0.0"></path><rect height="22" width="71.0" x="776.5" y="157"></rect><text x="812.0" y="172">height</text></g><path d="M847.5 168h10"></path><g>
<path d="M857.5 168h0.0"></path><path d="M934.5 168h0.0"></path><path d="M857.5 168h20"></path><g class="terminal ">
<path d="M877.5 168h4.25"></path><path d="M910.25 168h4.25"></path><rect height="22" rx="10" ry="10" width="28.5" x="881.75" y="157"></rect><text x="896.0" y="172">M</text></g><path d="M914.5 168h20"></path><path d="M857.5 168a10 10 0 0 1 10 10v10a10 10 0 0 0 10 10"></path><g class="terminal ">
<path d="M877.5 198h0.0"></path><path d="M914.5 198h0.0"></path><rect height="22" rx="10" ry="10" width="37.0" x="877.5" y="187"></rect><text x="896.0" y="202">KM</text></g><path d="M914.5 198a10 10 0 0 0 10 -10v-10a10 10 0 0 1 10 -10"></path><path d="M857.5 168a10 10 0 0 1 10 10v40a10 10 0 0 0 10 10"></path><g class="terminal ">
<path d="M877.5 228h0.0"></path><path d="M914.5 228h0.0"></path><rect height="22" rx="10" ry="10" width="37.0" x="877.5" y="217"></rect><text x="896.0" y="232">FT</text></g><path d="M914.5 228a10 10 0 0 0 10 -10v-40a10 10 0 0 1 10 -10"></path><path d="M857.5 168a10 10 0 0 1 10 10v70a10 10 0 0 0 10 10"></path><g class="terminal ">
<path d="M877.5 258h0.0"></path><path d="M914.5 258h0.0"></path><rect height="22" rx="10" ry="10" width="37.0" x="877.5" y="247"></rect><text x="896.0" y="262">MI</text></g><path d="M914.5 258a10 10 0 0 0 10 -10v-70a10 10 0 0 1 10 -10"></path></g></g><path d="M934.5 168a10 10 0 0 0 10 -10v-100a10 10 0 0 1 10 -10"></path></g><g>
<path d="M954.5 48h0.0"></path><path d="M1088.5 48h0.0"></path><path d="M954.5 48a10 10 0 0 0 10 -10v0a10 10 0 0 1 10 -10"></path><g>
<path d="M974.5 28h94.0"></path></g><path d="M1068.5 28a10 10 0 0 1 10 10v0a10 10 0 0 0 10 10"></path><path d="M954.5 48h20"></path><g>
<path d="M974.5 48h0.0"></path><path d="M1068.5 48h0.0"></path><path d="M974.5 48h20"></path><g class="terminal ">
<path d="M994.5 48h4.25"></path><path d="M1044.25 48h4.25"></path><rect height="22" rx="10" ry="10" width="45.5" x="998.75" y="37"></rect><text x="1021.5" y="52">ASC</text></g><path d="M1048.5 48h20"></path><path d="M974.5 48a10 10 0 0 1 10 10v10a10 10 0 0 0 10 10"></path><g class="terminal ">
<path d="M994.5 78h0.0"></path><path d="M1048.5 78h0.0"></path><rect height="22" rx="10" ry="10" width="54.0" x="994.5" y="67"></rect><text x="1021.5" y="82">DESC</text></g><path d="M1048.5 78a10 10 0 0 0 10 -10v-10a10 10 0 0 1 10 -10"></path></g><path d="M1068.5 48h20"></path></g><g>
<path d="M1088.5 48h0.0"></path><path d="M1369.0 48h0.0"></path><path d="M1088.5 48a10 10 0 0 0 10 -10v-8a10 10 0 0 1 10 -10"></path><g>
<path d="M1108.5 20h240.5"></path></g><path d="M1349.0 20a10 10 0 0 1 10 10v8a10 10 0 0 0 10 10"></path><path d="M1088.5 48h20"></path><g>
<path d="M1108.5 48h0.0"></path><path d="M1349.0 48h0.0"></path><g>
<path d="M1108.5 48h0.0"></path><path d="M1253.5 48h0.0"></path><g class="terminal ">
<path d="M1108.5 48h0.0"></path><path d="M1171.0 48h0.0"></path><rect height="22" rx="10" ry="10" width="62.5" x="1108.5" y="37"></rect><text x="1139.75" y="52">COUNT</text></g><path d="M1171.0 48h10"></path><path d="M1181.0 48h10"></path><g class="non-terminal ">
<path d="M1191.0 48h0.0"></path><path d="M1253.5 48h0.0"></path><rect height="22" width="62.5" x="1191.0" y="37"></rect><text x="1222.25" y="52">count</text></g></g><path d="M1253.5 48h10"></path><g>
<path d="M1263.5 48h0.0"></path><path d="M1349.0 48h0.0"></path><path d="M1263.5 48a10 10 0 0 0 10 -10v0a10 10 0 0 1 10 -10"></path><g>
<path d="M1283.5 28h45.5"></path></g><path d="M1329.0 28a10 10 0 0 1 10 10v0a10 10 0 0 0 10 10"></path><path d="M1263.5 48h20"></path><g class="terminal ">
<path d="M1283.5 48h0.0"></path><path d="M1329.0 48h0.0"></path><rect height="22" rx="10" ry="10" width="45.5" x="1283.5" y="37"></rect><text x="1306.25" y="52">ANY</text></g><path d="M1329.0 48h20"></path></g></g><path d="M1349.0 48h20"></path></g><g>
<path d="M1369.0 48h0.0"></path><path d="M1505.5 48h0.0"></path><path d="M1369.0 48a10 10 0 0 0 10 -10v0a10 10 0 0 1 10 -10"></path><g>
<path d="M1389.0 28h96.5"></path></g><path d="M1485.5 28a10 10 0 0 1 10 10v0a10 10 0 0 0 10 10"></path><path d="M1369.0 48h20"></path><g class="terminal ">
<path d="M1389.0 48h0.0"></path><path d="M1485.5 48h0.0"></path><rect height="22" rx="10" ry="10" width="96.5" x="1389.0" y="37"></rect><text x="1437.25" y="52">WITHCOORD</text></g><path d="M1485.5 48h20"></path></g><g>
<path d="M1505.5 48h0.0"></path><path d="M1633.5 48h0.0"></path><path d="M1505.5 48a10 10 0 0 0 10 -10v0a10 10 0 0 1 10 -10"></path><g>
<path d="M1525.5 28h88.0"></path></g><path d="M1613.5 28a10 10 0 0 1 10 10v0a10 10 0 0 0 10 10"></path><path d="M1505.5 48h20"></path><g class="terminal ">
<path d="M1525.5 48h0.0"></path><path d="M1613.5 48h0.0"></path><rect height="22" rx="10" ry="10" width="88.0" x="1525.5" y="37"></rect><text x="1569.5" y="52">WITHDIST</text></g><path d="M1613.5 48h20"></path></g><g>
<path d="M1633.5 48h0.0"></path><path d="M1761.5 48h0.0"></path><path d="M1633.5 48a10 10 0 0 0 10 -10v0a10 10 0 0 1 10 -10"></path><g>
<path d="M1653.5 28h88.0"></path></g><path d="M1741.5 28a10 10 0 0 1 10 10v0a10 10 0 0 0 10 10"></path><path d="M1633.5 48h20"></path><g class="terminal ">
<path d="M1653.5 48h0.0"></path><path d="M1741.5 48h0.0"></path><rect height="22" rx="10" ry="10" width="88.0" x="1653.5" y="37"></rect><text x="1697.5" y="52">WITHHASH</text></g><path d="M1741.5 48h20"></path></g></g><path d="M1761.5 48h10"></path><path d="M 1771.5 48 h 20 m -10 -10 v 20 m 10 -20 v 20"></path></g></svg>