<svg class="railroad-diagram" height="191" viewBox="0 0 599.0 191" width="599.0" xmlns="http://www.w3.org/2000/svg" xmlns:xlink="http://www.w3.org/1999/xlink">
<defs>
<style type="text/css"><![CDATA[
svg.railroad-diagram { background-color: transparent; }
.terminal rect { fill: #DC382D !important; stroke: #DC382D !important; }
.terminal text { fill: white !important; font-weight: bold; }
.nonterminal rect { fill: none !important; stroke: #DC382D !important; stroke-width: 2; }
.nonterminal text { fill: #DC382D !important; font-weight: bold; }
path { stroke: #DC382D !important; stroke-width: 2; fill: none; }
circle { fill: #DC382D !important; stroke: #DC382D !important; }
]]></style>
</defs>
<g transform="translate(.5 .5)">
<style>/* <![CDATA[ */
	svg.railroad-diagram {
		background-color: transparent;
	}
	svg.railroad-diagram path {
		stroke-width:3;
		stroke: #DC382D;
		fill:rgba(0,0,0,0);
	}
	svg.railroad-diagram text {
		font:bold 14px monospace;
		text-anchor:middle;
	}
	svg.railroad-diagram text.label{
		text-anchor:start;
	}
	svg.railroad-diagram text.comment{
		font:italic 12px monospace;
	}
	svg.railroad-diagram rect{
		stroke-width:3;
		stroke: #DC382D;
		fill: none;
	}
	svg.railroad-diagram rect.group-box {
		stroke: #DC382D;
		stroke-dasharray: 10 5;
		fill: none;
	}

/* ]]> */
</style><g>
<path d="M20 30v20m10 -20v20m-10 -10h20"></path></g><path d="M40 40h10"></path><g>
<path d="M50 40h0.0"></path><path d="M549.0 40h0.0"></path><g class="terminal ">
<path d="M50.0 40h0.0"></path><path d="M112.5 40h0.0"></path><rect height="22" rx="10" ry="10" width="62.5" x="50.0" y="29"></rect><text x="81.25" y="44">GETEX</text></g><path d="M112.5 40h10"></path><path d="M122.5 40h10"></path><g class="non-terminal ">
<path d="M132.5 40h0.0"></path><path d="M178.0 40h0.0"></path><rect height="22" width="45.5" x="132.5" y="29"></rect><text x="155.25" y="44">key</text></g><path d="M178.0 40h10"></path><g>
<path d="M188.0 40h0.0"></path><path d="M549.0 40h0.0"></path><path d="M188.0 40a10 10 0 0 0 10 -10v0a10 10 0 0 1 10 -10"></path><g>
<path d="M208.0 20h321.0"></path></g><path d="M529.0 20a10 10 0 0 1 10 10v0a10 10 0 0 0 10 10"></path><path d="M188.0 40h20"></path><g>
<path d="M208.0 40h0.0"></path><path d="M529.0 40h0.0"></path><path d="M208.0 40h20"></path><g>
<path d="M228.0 40h72.25"></path><path d="M436.75 40h72.25"></path><g class="terminal ">
<path d="M300.25 40h0.0"></path><path d="M337.25 40h0.0"></path><rect height="22" rx="10" ry="10" width="37.0" x="300.25" y="29"></rect><text x="318.75" y="44">EX</text></g><path d="M337.25 40h10"></path><path d="M347.25 40h10"></path><g class="non-terminal ">
<path d="M357.25 40h0.0"></path><path d="M436.75 40h0.0"></path><rect height="22" width="79.5" x="357.25" y="29"></rect><text x="397.0" y="44">seconds</text></g></g><path d="M509.0 40h20"></path><path d="M208.0 40a10 10 0 0 1 10 10v10a10 10 0 0 0 10 10"></path><g>
<path d="M228.0 70h51.0"></path><path d="M458.0 70h51.0"></path><g class="terminal ">
<path d="M279.0 70h0.0"></path><path d="M316.0 70h0.0"></path><rect height="22" rx="10" ry="10" width="37.0" x="279.0" y="59"></rect><text x="297.5" y="74">PX</text></g><path d="M316.0 70h10"></path><path d="M326.0 70h10"></path><g class="non-terminal ">
<path d="M336.0 70h0.0"></path><path d="M458.0 70h0.0"></path><rect height="22" width="122.0" x="336.0" y="59"></rect><text x="397.0" y="74">milliseconds</text></g></g><path d="M509.0 70a10 10 0 0 0 10 -10v-10a10 10 0 0 1 10 -10"></path><path d="M208.0 40a10 10 0 0 1 10 10v40a10 10 0 0 0 10 10"></path><g>
<path d="M228.0 100h21.25"></path><path d="M487.75 100h21.25"></path><g class="terminal ">
<path d="M249.25 100h0.0"></path><path d="M303.25 100h0.0"></path><rect height="22" rx="10" ry="10" width="54.0" x="249.25" y="89"></rect><text x="276.25" y="104">EXAT</text></g><path d="M303.25 100h10"></path><path d="M313.25 100h10"></path><g class="non-terminal ">
<path d="M323.25 100h0.0"></path><path d="M487.75 100h0.0"></path><rect height="22" width="164.5" x="323.25" y="89"></rect><text x="405.5" y="104">unix-time-seconds</text></g></g><path d="M509.0 100a10 10 0 0 0 10 -10v-40a10 10 0 0 1 10 -10"></path><path d="M208.0 40a10 10 0 0 1 10 10v70a10 10 0 0 0 10 10"></path><g>
<path d="M228.0 130h0.0"></path><path d="M509.0 130h0.0"></path><g class="terminal ">
<path d="M228.0 130h0.0"></path><path d="M282.0 130h0.0"></path><rect height="22" rx="10" ry="10" width="54.0" x="228.0" y="119"></rect><text x="255.0" y="134">PXAT</text></g><path d="M282.0 130h10"></path><path d="M292.0 130h10"></path><g class="non-terminal ">
<path d="M302.0 130h0.0"></path><path d="M509.0 130h0.0"></path><rect height="22" width="207.0" x="302.0" y="119"></rect><text x="405.5" y="134">unix-time-milliseconds</text></g></g><path d="M509.0 130a10 10 0 0 0 10 -10v-70a10 10 0 0 1 10 -10"></path><path d="M208.0 40a10 10 0 0 1 10 10v100a10 10 0 0 0 10 10"></path><g class="terminal ">
<path d="M228.0 160h100.75"></path><path d="M408.25 160h100.75"></path><rect height="22" rx="10" ry="10" width="79.5" x="328.75" y="149"></rect><text x="368.5" y="164">PERSIST</text></g><path d="M509.0 160a10 10 0 0 0 10 -10v-100a10 10 0 0 1 10 -10"></path></g><path d="M529.0 40h20"></path></g></g><path d="M549.0 40h10"></path><path d="M 559.0 40 h 20 m -10 -10 v 20 m 10 -20 v 20"></path></g></svg>