<svg class="railroad-diagram" height="79" viewBox="0 0 791.0 79" width="791.0" xmlns="http://www.w3.org/2000/svg" xmlns:xlink="http://www.w3.org/1999/xlink">
<defs>
<style type="text/css"><![CDATA[
svg.railroad-diagram { background-color: transparent; }
.terminal rect { fill: #DC382D !important; stroke: #DC382D !important; }
.terminal text { fill: white !important; font-weight: bold; }
.nonterminal rect { fill: none !important; stroke: #DC382D !important; stroke-width: 2; }
.nonterminal text { fill: #DC382D !important; font-weight: bold; }
path { stroke: #DC382D !important; stroke-width: 2; fill: none; }
circle { fill: #DC382D !important; stroke: #DC382D !important; }
]]></style>
</defs>
<g transform="translate(.5 .5)">
<style>/* <![CDATA[ */
	svg.railroad-diagram {
		background-color: transparent;
	}
	svg.railroad-diagram path {
		stroke-width:3;
		stroke: #DC382D;
		fill:rgba(0,0,0,0);
	}
	svg.railroad-diagram text {
		font:bold 14px monospace;
		text-anchor:middle;
	}
	svg.railroad-diagram text.label{
		text-anchor:start;
	}
	svg.railroad-diagram text.comment{
		font:italic 12px monospace;
	}
	svg.railroad-diagram rect{
		stroke-width:3;
		stroke: #DC382D;
		fill: none;
	}
	svg.railroad-diagram rect.group-box {
		stroke: #DC382D;
		stroke-dasharray: 10 5;
		fill: none;
	}

/* ]]> */
</style><g>
<path d="M20 38v20m10 -20v20m-10 -10h20"></path></g><path d="M40 48h10"></path><g>
<path d="M50 48h0.0"></path><path d="M741.0 48h0.0"></path><g class="terminal ">
<path d="M50.0 48h0.0"></path><path d="M112.5 48h0.0"></path><rect height="22" rx="10" ry="10" width="62.5" x="50.0" y="37"></rect><text x="81.25" y="52">HELLO</text></g><path d="M112.5 48h10"></path><g>
<path d="M122.5 48h0.0"></path><path d="M741.0 48h0.0"></path><path d="M122.5 48a10 10 0 0 0 10 -10v-8a10 10 0 0 1 10 -10"></path><g>
<path d="M142.5 20h578.5"></path></g><path d="M721.0 20a10 10 0 0 1 10 10v8a10 10 0 0 0 10 10"></path><path d="M122.5 48h20"></path><g>
<path d="M142.5 48h0.0"></path><path d="M721.0 48h0.0"></path><g class="non-terminal ">
<path d="M142.5 48h0.0"></path><path d="M230.5 48h0.0"></path><rect height="22" width="88.0" x="142.5" y="37"></rect><text x="186.5" y="52">protover</text></g><path d="M230.5 48h10"></path><g>
<path d="M240.5 48h0.0"></path><path d="M476.5 48h0.0"></path><path d="M240.5 48a10 10 0 0 0 10 -10v0a10 10 0 0 1 10 -10"></path><g>
<path d="M260.5 28h196.0"></path></g><path d="M456.5 28a10 10 0 0 1 10 10v0a10 10 0 0 0 10 10"></path><path d="M240.5 48h20"></path><g>
<path d="M260.5 48h0.0"></path><path d="M456.5 48h0.0"></path><g class="non-terminal ">
<path d="M260.5 48h0.0"></path><path d="M348.5 48h0.0"></path><rect height="22" width="88.0" x="260.5" y="37"></rect><text x="304.5" y="52">username</text></g><path d="M348.5 48h10"></path><path d="M358.5 48h10"></path><g class="non-terminal ">
<path d="M368.5 48h0.0"></path><path d="M456.5 48h0.0"></path><rect height="22" width="88.0" x="368.5" y="37"></rect><text x="412.5" y="52">password</text></g></g><path d="M456.5 48h20"></path></g><g>
<path d="M476.5 48h0.0"></path><path d="M721.0 48h0.0"></path><path d="M476.5 48a10 10 0 0 0 10 -10v0a10 10 0 0 1 10 -10"></path><g>
<path d="M496.5 28h204.5"></path></g><path d="M701.0 28a10 10 0 0 1 10 10v0a10 10 0 0 0 10 10"></path><path d="M476.5 48h20"></path><g>
<path d="M496.5 48h0.0"></path><path d="M701.0 48h0.0"></path><g class="terminal ">
<path d="M496.5 48h0.0"></path><path d="M576.0 48h0.0"></path><rect height="22" rx="10" ry="10" width="79.5" x="496.5" y="37"></rect><text x="536.25" y="52">SETNAME</text></g><path d="M576.0 48h10"></path><path d="M586.0 48h10"></path><g class="non-terminal ">
<path d="M596.0 48h0.0"></path><path d="M701.0 48h0.0"></path><rect height="22" width="105.0" x="596.0" y="37"></rect><text x="648.5" y="52">clientname</text></g></g><path d="M701.0 48h20"></path></g></g><path d="M721.0 48h20"></path></g></g><path d="M741.0 48h10"></path><path d="M 751.0 48 h 20 m -10 -10 v 20 m 10 -20 v 20"></path></g></svg>