<svg class="railroad-diagram" height="161" viewBox="0 0 782.5 161" width="782.5" xmlns="http://www.w3.org/2000/svg" xmlns:xlink="http://www.w3.org/1999/xlink">
<defs>
<style type="text/css"><![CDATA[
svg.railroad-diagram { background-color: transparent; }
.terminal rect { fill: #DC382D !important; stroke: #DC382D !important; }
.terminal text { fill: white !important; font-weight: bold; }
.nonterminal rect { fill: none !important; stroke: #DC382D !important; stroke-width: 2; }
.nonterminal text { fill: #DC382D !important; font-weight: bold; }
path { stroke: #DC382D !important; stroke-width: 2; fill: none; }
circle { fill: #DC382D !important; stroke: #DC382D !important; }
]]></style>
</defs>
<g transform="translate(.5 .5)">
<style>/* <![CDATA[ */
	svg.railroad-diagram {
		background-color: transparent;
	}
	svg.railroad-diagram path {
		stroke-width:3;
		stroke: #DC382D;
		fill:rgba(0,0,0,0);
	}
	svg.railroad-diagram text {
		font:bold 14px monospace;
		text-anchor:middle;
	}
	svg.railroad-diagram text.label{
		text-anchor:start;
	}
	svg.railroad-diagram text.comment{
		font:italic 12px monospace;
	}
	svg.railroad-diagram rect{
		stroke-width:3;
		stroke: #DC382D;
		fill: none;
	}
	svg.railroad-diagram rect.group-box {
		stroke: #DC382D;
		stroke-dasharray: 10 5;
		fill: none;
	}

/* ]]> */
</style><g>
<path d="M20 30v20m10 -20v20m-10 -10h20"></path></g><path d="M40 40h10"></path><g>
<path d="M50 40h0.0"></path><path d="M732.5 40h0.0"></path><g class="terminal ">
<path d="M50.0 40h0.0"></path><path d="M146.5 40h0.0"></path><rect height="22" rx="10" ry="10" width="96.5" x="50.0" y="29"></rect><text x="98.25" y="44">HEXPIREAT</text></g><path d="M146.5 40h10"></path><path d="M156.5 40h10"></path><g class="non-terminal ">
<path d="M166.5 40h0.0"></path><path d="M212.0 40h0.0"></path><rect height="22" width="45.5" x="166.5" y="29"></rect><text x="189.25" y="44">key</text></g><path d="M212.0 40h10"></path><path d="M222.0 40h10"></path><g class="non-terminal ">
<path d="M232.0 40h0.0"></path><path d="M396.5 40h0.0"></path><rect height="22" width="164.5" x="232.0" y="29"></rect><text x="314.25" y="44">unix-time-seconds</text></g><path d="M396.5 40h10"></path><g>
<path d="M406.5 40h0.0"></path><path d="M523.5 40h0.0"></path><path d="M406.5 40a10 10 0 0 0 10 -10v0a10 10 0 0 1 10 -10"></path><g>
<path d="M426.5 20h77.0"></path></g><path d="M503.5 20a10 10 0 0 1 10 10v0a10 10 0 0 0 10 10"></path><path d="M406.5 40h20"></path><g>
<path d="M426.5 40h0.0"></path><path d="M503.5 40h0.0"></path><path d="M426.5 40h20"></path><g class="terminal ">
<path d="M446.5 40h0.0"></path><path d="M483.5 40h0.0"></path><rect height="22" rx="10" ry="10" width="37.0" x="446.5" y="29"></rect><text x="465.0" y="44">NX</text></g><path d="M483.5 40h20"></path><path d="M426.5 40a10 10 0 0 1 10 10v10a10 10 0 0 0 10 10"></path><g class="terminal ">
<path d="M446.5 70h0.0"></path><path d="M483.5 70h0.0"></path><rect height="22" rx="10" ry="10" width="37.0" x="446.5" y="59"></rect><text x="465.0" y="74">XX</text></g><path d="M483.5 70a10 10 0 0 0 10 -10v-10a10 10 0 0 1 10 -10"></path><path d="M426.5 40a10 10 0 0 1 10 10v40a10 10 0 0 0 10 10"></path><g class="terminal ">
<path d="M446.5 100h0.0"></path><path d="M483.5 100h0.0"></path><rect height="22" rx="10" ry="10" width="37.0" x="446.5" y="89"></rect><text x="465.0" y="104">GT</text></g><path d="M483.5 100a10 10 0 0 0 10 -10v-40a10 10 0 0 1 10 -10"></path><path d="M426.5 40a10 10 0 0 1 10 10v70a10 10 0 0 0 10 10"></path><g class="terminal ">
<path d="M446.5 130h0.0"></path><path d="M483.5 130h0.0"></path><rect height="22" rx="10" ry="10" width="37.0" x="446.5" y="119"></rect><text x="465.0" y="134">LT</text></g><path d="M483.5 130a10 10 0 0 0 10 -10v-70a10 10 0 0 1 10 -10"></path></g><path d="M503.5 40h20"></path></g><path d="M523.5 40h10"></path><g>
<path d="M533.5 40h0.0"></path><path d="M732.5 40h0.0"></path><g class="non-terminal ">
<path d="M533.5 40h0.0"></path><path d="M630.0 40h0.0"></path><rect height="22" width="96.5" x="533.5" y="29"></rect><text x="581.75" y="44">numfields</text></g><path d="M630.0 40h10"></path><path d="M640.0 40h10"></path><g>
<path d="M650.0 40h0.0"></path><path d="M732.5 40h0.0"></path><path d="M650.0 40h10"></path><g class="non-terminal ">
<path d="M660.0 40h0.0"></path><path d="M722.5 40h0.0"></path><rect height="22" width="62.5" x="660.0" y="29"></rect><text x="691.25" y="44">field</text></g><path d="M722.5 40h10"></path><path d="M660.0 40a10 10 0 0 0 -10 10v0a10 10 0 0 0 10 10"></path><g>
<path d="M660.0 60h62.5"></path></g><path d="M722.5 60a10 10 0 0 0 10 -10v0a10 10 0 0 0 -10 -10"></path></g></g></g><path d="M732.5 40h10"></path><path d="M 742.5 40 h 20 m -10 -10 v 20 m 10 -20 v 20"></path></g></svg>