<svg class="railroad-diagram" height="161" viewBox="0 0 680.5 161" width="680.5" xmlns="http://www.w3.org/2000/svg" xmlns:xlink="http://www.w3.org/1999/xlink">
<defs>
<style type="text/css"><![CDATA[
svg.railroad-diagram { background-color: transparent; }
.terminal rect { fill: #DC382D !important; stroke: #DC382D !important; }
.terminal text { fill: white !important; font-weight: bold; }
.nonterminal rect { fill: none !important; stroke: #DC382D !important; stroke-width: 2; }
.nonterminal text { fill: #DC382D !important; font-weight: bold; }
path { stroke: #DC382D !important; stroke-width: 2; fill: none; }
circle { fill: #DC382D !important; stroke: #DC382D !important; }
]]></style>
</defs>
<g transform="translate(.5 .5)">
<style>/* <![CDATA[ */
	svg.railroad-diagram {
		background-color: transparent;
	}
	svg.railroad-diagram path {
		stroke-width:3;
		stroke: #DC382D;
		fill:rgba(0,0,0,0);
	}
	svg.railroad-diagram text {
		font:bold 14px monospace;
		text-anchor:middle;
	}
	svg.railroad-diagram text.label{
		text-anchor:start;
	}
	svg.railroad-diagram text.comment{
		font:italic 12px monospace;
	}
	svg.railroad-diagram rect{
		stroke-width:3;
		stroke: #DC382D;
		fill: none;
	}
	svg.railroad-diagram rect.group-box {
		stroke: #DC382D;
		stroke-dasharray: 10 5;
		fill: none;
	}

/* ]]> */
</style><g>
<path d="M20 30v20m10 -20v20m-10 -10h20"></path></g><path d="M40 40h10"></path><g>
<path d="M50 40h0.0"></path><path d="M630.5 40h0.0"></path><g class="terminal ">
<path d="M50.0 40h0.0"></path><path d="M129.5 40h0.0"></path><rect height="22" rx="10" ry="10" width="79.5" x="50.0" y="29"></rect><text x="89.75" y="44">HEXPIRE</text></g><path d="M129.5 40h10"></path><path d="M139.5 40h10"></path><g class="non-terminal ">
<path d="M149.5 40h0.0"></path><path d="M195.0 40h0.0"></path><rect height="22" width="45.5" x="149.5" y="29"></rect><text x="172.25" y="44">key</text></g><path d="M195.0 40h10"></path><path d="M205.0 40h10"></path><g class="non-terminal ">
<path d="M215.0 40h0.0"></path><path d="M294.5 40h0.0"></path><rect height="22" width="79.5" x="215.0" y="29"></rect><text x="254.75" y="44">seconds</text></g><path d="M294.5 40h10"></path><g>
<path d="M304.5 40h0.0"></path><path d="M421.5 40h0.0"></path><path d="M304.5 40a10 10 0 0 0 10 -10v0a10 10 0 0 1 10 -10"></path><g>
<path d="M324.5 20h77.0"></path></g><path d="M401.5 20a10 10 0 0 1 10 10v0a10 10 0 0 0 10 10"></path><path d="M304.5 40h20"></path><g>
<path d="M324.5 40h0.0"></path><path d="M401.5 40h0.0"></path><path d="M324.5 40h20"></path><g class="terminal ">
<path d="M344.5 40h0.0"></path><path d="M381.5 40h0.0"></path><rect height="22" rx="10" ry="10" width="37.0" x="344.5" y="29"></rect><text x="363.0" y="44">NX</text></g><path d="M381.5 40h20"></path><path d="M324.5 40a10 10 0 0 1 10 10v10a10 10 0 0 0 10 10"></path><g class="terminal ">
<path d="M344.5 70h0.0"></path><path d="M381.5 70h0.0"></path><rect height="22" rx="10" ry="10" width="37.0" x="344.5" y="59"></rect><text x="363.0" y="74">XX</text></g><path d="M381.5 70a10 10 0 0 0 10 -10v-10a10 10 0 0 1 10 -10"></path><path d="M324.5 40a10 10 0 0 1 10 10v40a10 10 0 0 0 10 10"></path><g class="terminal ">
<path d="M344.5 100h0.0"></path><path d="M381.5 100h0.0"></path><rect height="22" rx="10" ry="10" width="37.0" x="344.5" y="89"></rect><text x="363.0" y="104">GT</text></g><path d="M381.5 100a10 10 0 0 0 10 -10v-40a10 10 0 0 1 10 -10"></path><path d="M324.5 40a10 10 0 0 1 10 10v70a10 10 0 0 0 10 10"></path><g class="terminal ">
<path d="M344.5 130h0.0"></path><path d="M381.5 130h0.0"></path><rect height="22" rx="10" ry="10" width="37.0" x="344.5" y="119"></rect><text x="363.0" y="134">LT</text></g><path d="M381.5 130a10 10 0 0 0 10 -10v-70a10 10 0 0 1 10 -10"></path></g><path d="M401.5 40h20"></path></g><path d="M421.5 40h10"></path><g>
<path d="M431.5 40h0.0"></path><path d="M630.5 40h0.0"></path><g class="non-terminal ">
<path d="M431.5 40h0.0"></path><path d="M528.0 40h0.0"></path><rect height="22" width="96.5" x="431.5" y="29"></rect><text x="479.75" y="44">numfields</text></g><path d="M528.0 40h10"></path><path d="M538.0 40h10"></path><g>
<path d="M548.0 40h0.0"></path><path d="M630.5 40h0.0"></path><path d="M548.0 40h10"></path><g class="non-terminal ">
<path d="M558.0 40h0.0"></path><path d="M620.5 40h0.0"></path><rect height="22" width="62.5" x="558.0" y="29"></rect><text x="589.25" y="44">field</text></g><path d="M620.5 40h10"></path><path d="M558.0 40a10 10 0 0 0 -10 10v0a10 10 0 0 0 10 10"></path><g>
<path d="M558.0 60h62.5"></path></g><path d="M620.5 60a10 10 0 0 0 10 -10v0a10 10 0 0 0 -10 -10"></path></g></g></g><path d="M630.5 40h10"></path><path d="M 640.5 40 h 20 m -10 -10 v 20 m 10 -20 v 20"></path></g></svg>