<svg class="railroad-diagram" height="71" viewBox="0 0 555.0 71" width="555.0" xmlns="http://www.w3.org/2000/svg" xmlns:xlink="http://www.w3.org/1999/xlink">
<defs>
<style type="text/css"><![CDATA[
svg.railroad-diagram { background-color: transparent; }
.terminal rect { fill: #DC382D !important; stroke: #DC382D !important; }
.terminal text { fill: white !important; font-weight: bold; }
.nonterminal rect { fill: none !important; stroke: #DC382D !important; stroke-width: 2; }
.nonterminal text { fill: #DC382D !important; font-weight: bold; }
path { stroke: #DC382D !important; stroke-width: 2; fill: none; }
circle { fill: #DC382D !important; stroke: #DC382D !important; }
]]></style>
</defs>
<g transform="translate(.5 .5)">
<style>/* <![CDATA[ */
	svg.railroad-diagram {
		background-color: transparent;
	}
	svg.railroad-diagram path {
		stroke-width:3;
		stroke: #DC382D;
		fill:rgba(0,0,0,0);
	}
	svg.railroad-diagram text {
		font:bold 14px monospace;
		text-anchor:middle;
	}
	svg.railroad-diagram text.label{
		text-anchor:start;
	}
	svg.railroad-diagram text.comment{
		font:italic 12px monospace;
	}
	svg.railroad-diagram rect{
		stroke-width:3;
		stroke: #DC382D;
		fill: none;
	}
	svg.railroad-diagram rect.group-box {
		stroke: #DC382D;
		stroke-dasharray: 10 5;
		fill: none;
	}

/* ]]> */
</style><g>
<path d="M20 21v20m10 -20v20m-10 -10h20"></path></g><path d="M40 31h10"></path><g>
<path d="M50 31h0.0"></path><path d="M505.0 31h0.0"></path><g class="terminal ">
<path d="M50.0 31h0.0"></path><path d="M129.5 31h0.0"></path><rect height="22" rx="10" ry="10" width="79.5" x="50.0" y="20"></rect><text x="89.75" y="35">HGETDEL</text></g><path d="M129.5 31h10"></path><path d="M139.5 31h10"></path><g class="non-terminal ">
<path d="M149.5 31h0.0"></path><path d="M195.0 31h0.0"></path><rect height="22" width="45.5" x="149.5" y="20"></rect><text x="172.25" y="35">key</text></g><path d="M195.0 31h10"></path><path d="M205.0 31h10"></path><g>
<path d="M215.0 31h0.0"></path><path d="M505.0 31h0.0"></path><g class="terminal ">
<path d="M215.0 31h0.0"></path><path d="M286.0 31h0.0"></path><rect height="22" rx="10" ry="10" width="71.0" x="215.0" y="20"></rect><text x="250.5" y="35">FIELDS</text></g><path d="M286.0 31h10"></path><path d="M296.0 31h10"></path><g class="non-terminal ">
<path d="M306.0 31h0.0"></path><path d="M402.5 31h0.0"></path><rect height="22" width="96.5" x="306.0" y="20"></rect><text x="354.25" y="35">numfields</text></g><path d="M402.5 31h10"></path><path d="M412.5 31h10"></path><g>
<path d="M422.5 31h0.0"></path><path d="M505.0 31h0.0"></path><path d="M422.5 31h10"></path><g class="non-terminal ">
<path d="M432.5 31h0.0"></path><path d="M495.0 31h0.0"></path><rect height="22" width="62.5" x="432.5" y="20"></rect><text x="463.75" y="35">field</text></g><path d="M495.0 31h10"></path><path d="M432.5 31a10 10 0 0 0 -10 10v0a10 10 0 0 0 10 10"></path><g>
<path d="M432.5 51h62.5"></path></g><path d="M495.0 51a10 10 0 0 0 10 -10v0a10 10 0 0 0 -10 -10"></path></g></g></g><path d="M505.0 31h10"></path><path d="M 515.0 31 h 20 m -10 -10 v 20 m 10 -20 v 20"></path></g></svg>