<svg class="railroad-diagram" height="191" viewBox="0 0 907.5 191" width="907.5" xmlns="http://www.w3.org/2000/svg" xmlns:xlink="http://www.w3.org/1999/xlink">
<defs>
<style type="text/css"><![CDATA[
svg.railroad-diagram { background-color: transparent; }
.terminal rect { fill: #DC382D !important; stroke: #DC382D !important; }
.terminal text { fill: white !important; font-weight: bold; }
.nonterminal rect { fill: none !important; stroke: #DC382D !important; stroke-width: 2; }
.nonterminal text { fill: #DC382D !important; font-weight: bold; }
path { stroke: #DC382D !important; stroke-width: 2; fill: none; }
circle { fill: #DC382D !important; stroke: #DC382D !important; }
]]></style>
</defs>
<g transform="translate(.5 .5)">
<style>/* <![CDATA[ */
	svg.railroad-diagram {
		background-color: transparent;
	}
	svg.railroad-diagram path {
		stroke-width:3;
		stroke: #DC382D;
		fill:rgba(0,0,0,0);
	}
	svg.railroad-diagram text {
		font:bold 14px monospace;
		text-anchor:middle;
	}
	svg.railroad-diagram text.label{
		text-anchor:start;
	}
	svg.railroad-diagram text.comment{
		font:italic 12px monospace;
	}
	svg.railroad-diagram rect{
		stroke-width:3;
		stroke: #DC382D;
		fill: none;
	}
	svg.railroad-diagram rect.group-box {
		stroke: #DC382D;
		stroke-dasharray: 10 5;
		fill: none;
	}

/* ]]> */
</style><g>
<path d="M20 30v20m10 -20v20m-10 -10h20"></path></g><path d="M40 40h10"></path><g>
<path d="M50 40h0.0"></path><path d="M857.5 40h0.0"></path><g class="terminal ">
<path d="M50.0 40h0.0"></path><path d="M121.0 40h0.0"></path><rect height="22" rx="10" ry="10" width="71.0" x="50.0" y="29"></rect><text x="85.5" y="44">HGETEX</text></g><path d="M121.0 40h10"></path><path d="M131.0 40h10"></path><g class="non-terminal ">
<path d="M141.0 40h0.0"></path><path d="M186.5 40h0.0"></path><rect height="22" width="45.5" x="141.0" y="29"></rect><text x="163.75" y="44">key</text></g><path d="M186.5 40h10"></path><g>
<path d="M196.5 40h0.0"></path><path d="M557.5 40h0.0"></path><path d="M196.5 40a10 10 0 0 0 10 -10v0a10 10 0 0 1 10 -10"></path><g>
<path d="M216.5 20h321.0"></path></g><path d="M537.5 20a10 10 0 0 1 10 10v0a10 10 0 0 0 10 10"></path><path d="M196.5 40h20"></path><g>
<path d="M216.5 40h0.0"></path><path d="M537.5 40h0.0"></path><path d="M216.5 40h20"></path><g>
<path d="M236.5 40h72.25"></path><path d="M445.25 40h72.25"></path><g class="terminal ">
<path d="M308.75 40h0.0"></path><path d="M345.75 40h0.0"></path><rect height="22" rx="10" ry="10" width="37.0" x="308.75" y="29"></rect><text x="327.25" y="44">EX</text></g><path d="M345.75 40h10"></path><path d="M355.75 40h10"></path><g class="non-terminal ">
<path d="M365.75 40h0.0"></path><path d="M445.25 40h0.0"></path><rect height="22" width="79.5" x="365.75" y="29"></rect><text x="405.5" y="44">seconds</text></g></g><path d="M517.5 40h20"></path><path d="M216.5 40a10 10 0 0 1 10 10v10a10 10 0 0 0 10 10"></path><g>
<path d="M236.5 70h51.0"></path><path d="M466.5 70h51.0"></path><g class="terminal ">
<path d="M287.5 70h0.0"></path><path d="M324.5 70h0.0"></path><rect height="22" rx="10" ry="10" width="37.0" x="287.5" y="59"></rect><text x="306.0" y="74">PX</text></g><path d="M324.5 70h10"></path><path d="M334.5 70h10"></path><g class="non-terminal ">
<path d="M344.5 70h0.0"></path><path d="M466.5 70h0.0"></path><rect height="22" width="122.0" x="344.5" y="59"></rect><text x="405.5" y="74">milliseconds</text></g></g><path d="M517.5 70a10 10 0 0 0 10 -10v-10a10 10 0 0 1 10 -10"></path><path d="M216.5 40a10 10 0 0 1 10 10v40a10 10 0 0 0 10 10"></path><g>
<path d="M236.5 100h21.25"></path><path d="M496.25 100h21.25"></path><g class="terminal ">
<path d="M257.75 100h0.0"></path><path d="M311.75 100h0.0"></path><rect height="22" rx="10" ry="10" width="54.0" x="257.75" y="89"></rect><text x="284.75" y="104">EXAT</text></g><path d="M311.75 100h10"></path><path d="M321.75 100h10"></path><g class="non-terminal ">
<path d="M331.75 100h0.0"></path><path d="M496.25 100h0.0"></path><rect height="22" width="164.5" x="331.75" y="89"></rect><text x="414.0" y="104">unix-time-seconds</text></g></g><path d="M517.5 100a10 10 0 0 0 10 -10v-40a10 10 0 0 1 10 -10"></path><path d="M216.5 40a10 10 0 0 1 10 10v70a10 10 0 0 0 10 10"></path><g>
<path d="M236.5 130h0.0"></path><path d="M517.5 130h0.0"></path><g class="terminal ">
<path d="M236.5 130h0.0"></path><path d="M290.5 130h0.0"></path><rect height="22" rx="10" ry="10" width="54.0" x="236.5" y="119"></rect><text x="263.5" y="134">PXAT</text></g><path d="M290.5 130h10"></path><path d="M300.5 130h10"></path><g class="non-terminal ">
<path d="M310.5 130h0.0"></path><path d="M517.5 130h0.0"></path><rect height="22" width="207.0" x="310.5" y="119"></rect><text x="414.0" y="134">unix-time-milliseconds</text></g></g><path d="M517.5 130a10 10 0 0 0 10 -10v-70a10 10 0 0 1 10 -10"></path><path d="M216.5 40a10 10 0 0 1 10 10v100a10 10 0 0 0 10 10"></path><g class="terminal ">
<path d="M236.5 160h100.75"></path><path d="M416.75 160h100.75"></path><rect height="22" rx="10" ry="10" width="79.5" x="337.25" y="149"></rect><text x="377.0" y="164">PERSIST</text></g><path d="M517.5 160a10 10 0 0 0 10 -10v-100a10 10 0 0 1 10 -10"></path></g><path d="M537.5 40h20"></path></g><path d="M557.5 40h10"></path><g>
<path d="M567.5 40h0.0"></path><path d="M857.5 40h0.0"></path><g class="terminal ">
<path d="M567.5 40h0.0"></path><path d="M638.5 40h0.0"></path><rect height="22" rx="10" ry="10" width="71.0" x="567.5" y="29"></rect><text x="603.0" y="44">FIELDS</text></g><path d="M638.5 40h10"></path><path d="M648.5 40h10"></path><g class="non-terminal ">
<path d="M658.5 40h0.0"></path><path d="M755.0 40h0.0"></path><rect height="22" width="96.5" x="658.5" y="29"></rect><text x="706.75" y="44">numfields</text></g><path d="M755.0 40h10"></path><path d="M765.0 40h10"></path><g>
<path d="M775.0 40h0.0"></path><path d="M857.5 40h0.0"></path><path d="M775.0 40h10"></path><g class="non-terminal ">
<path d="M785.0 40h0.0"></path><path d="M847.5 40h0.0"></path><rect height="22" width="62.5" x="785.0" y="29"></rect><text x="816.25" y="44">field</text></g><path d="M847.5 40h10"></path><path d="M785.0 40a10 10 0 0 0 -10 10v0a10 10 0 0 0 10 10"></path><g>
<path d="M785.0 60h62.5"></path></g><path d="M847.5 60a10 10 0 0 0 10 -10v0a10 10 0 0 0 -10 -10"></path></g></g></g><path d="M857.5 40h10"></path><path d="M 867.5 40 h 20 m -10 -10 v 20 m 10 -20 v 20"></path></g></svg>