<svg class="railroad-diagram" height="71" viewBox="0 0 563.5 71" width="563.5" xmlns="http://www.w3.org/2000/svg" xmlns:xlink="http://www.w3.org/1999/xlink">
<defs>
<style type="text/css"><![CDATA[
svg.railroad-diagram { background-color: transparent; }
.terminal rect { fill: #DC382D !important; stroke: #DC382D !important; }
.terminal text { fill: white !important; font-weight: bold; }
.nonterminal rect { fill: none !important; stroke: #DC382D !important; stroke-width: 2; }
.nonterminal text { fill: #DC382D !important; font-weight: bold; }
path { stroke: #DC382D !important; stroke-width: 2; fill: none; }
circle { fill: #DC382D !important; stroke: #DC382D !important; }
]]></style>
</defs>
<g transform="translate(.5 .5)">
<style>/* <![CDATA[ */
	svg.railroad-diagram {
		background-color: transparent;
	}
	svg.railroad-diagram path {
		stroke-width:3;
		stroke: #DC382D;
		fill:rgba(0,0,0,0);
	}
	svg.railroad-diagram text {
		font:bold 14px monospace;
		text-anchor:middle;
	}
	svg.railroad-diagram text.label{
		text-anchor:start;
	}
	svg.railroad-diagram text.comment{
		font:italic 12px monospace;
	}
	svg.railroad-diagram rect{
		stroke-width:3;
		stroke: #DC382D;
		fill: none;
	}
	svg.railroad-diagram rect.group-box {
		stroke: #DC382D;
		stroke-dasharray: 10 5;
		fill: none;
	}

/* ]]> */
</style><g>
<path d="M20 21v20m10 -20v20m-10 -10h20"></path></g><path d="M40 31h10"></path><g>
<path d="M50 31h0.0"></path><path d="M513.5 31h0.0"></path><g class="terminal ">
<path d="M50.0 31h0.0"></path><path d="M138.0 31h0.0"></path><rect height="22" rx="10" ry="10" width="88.0" x="50.0" y="20"></rect><text x="94.0" y="35">HPERSIST</text></g><path d="M138.0 31h10"></path><path d="M148.0 31h10"></path><g class="non-terminal ">
<path d="M158.0 31h0.0"></path><path d="M203.5 31h0.0"></path><rect height="22" width="45.5" x="158.0" y="20"></rect><text x="180.75" y="35">key</text></g><path d="M203.5 31h10"></path><path d="M213.5 31h10"></path><g>
<path d="M223.5 31h0.0"></path><path d="M513.5 31h0.0"></path><g class="terminal ">
<path d="M223.5 31h0.0"></path><path d="M294.5 31h0.0"></path><rect height="22" rx="10" ry="10" width="71.0" x="223.5" y="20"></rect><text x="259.0" y="35">FIELDS</text></g><path d="M294.5 31h10"></path><path d="M304.5 31h10"></path><g class="non-terminal ">
<path d="M314.5 31h0.0"></path><path d="M411.0 31h0.0"></path><rect height="22" width="96.5" x="314.5" y="20"></rect><text x="362.75" y="35">numfields</text></g><path d="M411.0 31h10"></path><path d="M421.0 31h10"></path><g>
<path d="M431.0 31h0.0"></path><path d="M513.5 31h0.0"></path><path d="M431.0 31h10"></path><g class="non-terminal ">
<path d="M441.0 31h0.0"></path><path d="M503.5 31h0.0"></path><rect height="22" width="62.5" x="441.0" y="20"></rect><text x="472.25" y="35">field</text></g><path d="M503.5 31h10"></path><path d="M441.0 31a10 10 0 0 0 -10 10v0a10 10 0 0 0 10 10"></path><g>
<path d="M441.0 51h62.5"></path></g><path d="M503.5 51a10 10 0 0 0 10 -10v0a10 10 0 0 0 -10 -10"></path></g></g></g><path d="M513.5 31h10"></path><path d="M 523.5 31 h 20 m -10 -10 v 20 m 10 -20 v 20"></path></g></svg>