<svg class="railroad-diagram" height="161" viewBox="0 0 822.5 161" width="822.5" xmlns="http://www.w3.org/2000/svg" xmlns:xlink="http://www.w3.org/1999/xlink">
<defs>
<style type="text/css"><![CDATA[
svg.railroad-diagram { background-color: transparent; }
.terminal rect { fill: #DC382D !important; stroke: #DC382D !important; }
.terminal text { fill: white !important; font-weight: bold; }
.nonterminal rect { fill: none !important; stroke: #DC382D !important; stroke-width: 2; }
.nonterminal text { fill: #DC382D !important; font-weight: bold; }
path { stroke: #DC382D !important; stroke-width: 2; fill: none; }
circle { fill: #DC382D !important; stroke: #DC382D !important; }
]]></style>
</defs>
<g transform="translate(.5 .5)">
<style>/* <![CDATA[ */
	svg.railroad-diagram {
		background-color: transparent;
	}
	svg.railroad-diagram path {
		stroke-width:3;
		stroke: #DC382D;
		fill:rgba(0,0,0,0);
	}
	svg.railroad-diagram text {
		font:bold 14px monospace;
		text-anchor:middle;
	}
	svg.railroad-diagram text.label{
		text-anchor:start;
	}
	svg.railroad-diagram text.comment{
		font:italic 12px monospace;
	}
	svg.railroad-diagram rect{
		stroke-width:3;
		stroke: #DC382D;
		fill: none;
	}
	svg.railroad-diagram rect.group-box {
		stroke: #DC382D;
		stroke-dasharray: 10 5;
		fill: none;
	}

/* ]]> */
</style><g>
<path d="M20 30v20m10 -20v20m-10 -10h20"></path></g><path d="M40 40h10"></path><g>
<path d="M50 40h0.0"></path><path d="M772.5 40h0.0"></path><g class="terminal ">
<path d="M50.0 40h0.0"></path><path d="M138.0 40h0.0"></path><rect height="22" rx="10" ry="10" width="88.0" x="50.0" y="29"></rect><text x="94.0" y="44">HPEXPIRE</text></g><path d="M138.0 40h10"></path><path d="M148.0 40h10"></path><g class="non-terminal ">
<path d="M158.0 40h0.0"></path><path d="M203.5 40h0.0"></path><rect height="22" width="45.5" x="158.0" y="29"></rect><text x="180.75" y="44">key</text></g><path d="M203.5 40h10"></path><path d="M213.5 40h10"></path><g class="non-terminal ">
<path d="M223.5 40h0.0"></path><path d="M345.5 40h0.0"></path><rect height="22" width="122.0" x="223.5" y="29"></rect><text x="284.5" y="44">milliseconds</text></g><path d="M345.5 40h10"></path><g>
<path d="M355.5 40h0.0"></path><path d="M472.5 40h0.0"></path><path d="M355.5 40a10 10 0 0 0 10 -10v0a10 10 0 0 1 10 -10"></path><g>
<path d="M375.5 20h77.0"></path></g><path d="M452.5 20a10 10 0 0 1 10 10v0a10 10 0 0 0 10 10"></path><path d="M355.5 40h20"></path><g>
<path d="M375.5 40h0.0"></path><path d="M452.5 40h0.0"></path><path d="M375.5 40h20"></path><g class="terminal ">
<path d="M395.5 40h0.0"></path><path d="M432.5 40h0.0"></path><rect height="22" rx="10" ry="10" width="37.0" x="395.5" y="29"></rect><text x="414.0" y="44">NX</text></g><path d="M432.5 40h20"></path><path d="M375.5 40a10 10 0 0 1 10 10v10a10 10 0 0 0 10 10"></path><g class="terminal ">
<path d="M395.5 70h0.0"></path><path d="M432.5 70h0.0"></path><rect height="22" rx="10" ry="10" width="37.0" x="395.5" y="59"></rect><text x="414.0" y="74">XX</text></g><path d="M432.5 70a10 10 0 0 0 10 -10v-10a10 10 0 0 1 10 -10"></path><path d="M375.5 40a10 10 0 0 1 10 10v40a10 10 0 0 0 10 10"></path><g class="terminal ">
<path d="M395.5 100h0.0"></path><path d="M432.5 100h0.0"></path><rect height="22" rx="10" ry="10" width="37.0" x="395.5" y="89"></rect><text x="414.0" y="104">GT</text></g><path d="M432.5 100a10 10 0 0 0 10 -10v-40a10 10 0 0 1 10 -10"></path><path d="M375.5 40a10 10 0 0 1 10 10v70a10 10 0 0 0 10 10"></path><g class="terminal ">
<path d="M395.5 130h0.0"></path><path d="M432.5 130h0.0"></path><rect height="22" rx="10" ry="10" width="37.0" x="395.5" y="119"></rect><text x="414.0" y="134">LT</text></g><path d="M432.5 130a10 10 0 0 0 10 -10v-70a10 10 0 0 1 10 -10"></path></g><path d="M452.5 40h20"></path></g><path d="M472.5 40h10"></path><g>
<path d="M482.5 40h0.0"></path><path d="M772.5 40h0.0"></path><g class="terminal ">
<path d="M482.5 40h0.0"></path><path d="M553.5 40h0.0"></path><rect height="22" rx="10" ry="10" width="71.0" x="482.5" y="29"></rect><text x="518.0" y="44">FIELDS</text></g><path d="M553.5 40h10"></path><path d="M563.5 40h10"></path><g class="non-terminal ">
<path d="M573.5 40h0.0"></path><path d="M670.0 40h0.0"></path><rect height="22" width="96.5" x="573.5" y="29"></rect><text x="621.75" y="44">numfields</text></g><path d="M670.0 40h10"></path><path d="M680.0 40h10"></path><g>
<path d="M690.0 40h0.0"></path><path d="M772.5 40h0.0"></path><path d="M690.0 40h10"></path><g class="non-terminal ">
<path d="M700.0 40h0.0"></path><path d="M762.5 40h0.0"></path><rect height="22" width="62.5" x="700.0" y="29"></rect><text x="731.25" y="44">field</text></g><path d="M762.5 40h10"></path><path d="M700.0 40a10 10 0 0 0 -10 10v0a10 10 0 0 0 10 10"></path><g>
<path d="M700.0 60h62.5"></path></g><path d="M762.5 60a10 10 0 0 0 10 -10v0a10 10 0 0 0 -10 -10"></path></g></g></g><path d="M772.5 40h10"></path><path d="M 782.5 40 h 20 m -10 -10 v 20 m 10 -20 v 20"></path></g></svg>