<svg class="railroad-diagram" height="71" viewBox="0 0 538.0 71" width="538.0" xmlns="http://www.w3.org/2000/svg" xmlns:xlink="http://www.w3.org/1999/xlink">
<defs>
<style type="text/css"><![CDATA[
svg.railroad-diagram { background-color: transparent; }
.terminal rect { fill: #DC382D !important; stroke: #DC382D !important; }
.terminal text { fill: white !important; font-weight: bold; }
.nonterminal rect { fill: none !important; stroke: #DC382D !important; stroke-width: 2; }
.nonterminal text { fill: #DC382D !important; font-weight: bold; }
path { stroke: #DC382D !important; stroke-width: 2; fill: none; }
circle { fill: #DC382D !important; stroke: #DC382D !important; }
]]></style>
</defs>
<g transform="translate(.5 .5)">
<style>/* <![CDATA[ */
	svg.railroad-diagram {
		background-color: transparent;
	}
	svg.railroad-diagram path {
		stroke-width:3;
		stroke: #DC382D;
		fill:rgba(0,0,0,0);
	}
	svg.railroad-diagram text {
		font:bold 14px monospace;
		text-anchor:middle;
	}
	svg.railroad-diagram text.label{
		text-anchor:start;
	}
	svg.railroad-diagram text.comment{
		font:italic 12px monospace;
	}
	svg.railroad-diagram rect{
		stroke-width:3;
		stroke: #DC382D;
		fill: none;
	}
	svg.railroad-diagram rect.group-box {
		stroke: #DC382D;
		stroke-dasharray: 10 5;
		fill: none;
	}

/* ]]> */
</style><g>
<path d="M20 21v20m10 -20v20m-10 -10h20"></path></g><path d="M40 31h10"></path><g>
<path d="M50 31h0.0"></path><path d="M488.0 31h0.0"></path><g class="terminal ">
<path d="M50.0 31h0.0"></path><path d="M112.5 31h0.0"></path><rect height="22" rx="10" ry="10" width="62.5" x="50.0" y="20"></rect><text x="81.25" y="35">HPTTL</text></g><path d="M112.5 31h10"></path><path d="M122.5 31h10"></path><g class="non-terminal ">
<path d="M132.5 31h0.0"></path><path d="M178.0 31h0.0"></path><rect height="22" width="45.5" x="132.5" y="20"></rect><text x="155.25" y="35">key</text></g><path d="M178.0 31h10"></path><path d="M188.0 31h10"></path><g>
<path d="M198.0 31h0.0"></path><path d="M488.0 31h0.0"></path><g class="terminal ">
<path d="M198.0 31h0.0"></path><path d="M269.0 31h0.0"></path><rect height="22" rx="10" ry="10" width="71.0" x="198.0" y="20"></rect><text x="233.5" y="35">FIELDS</text></g><path d="M269.0 31h10"></path><path d="M279.0 31h10"></path><g class="non-terminal ">
<path d="M289.0 31h0.0"></path><path d="M385.5 31h0.0"></path><rect height="22" width="96.5" x="289.0" y="20"></rect><text x="337.25" y="35">numfields</text></g><path d="M385.5 31h10"></path><path d="M395.5 31h10"></path><g>
<path d="M405.5 31h0.0"></path><path d="M488.0 31h0.0"></path><path d="M405.5 31h10"></path><g class="non-terminal ">
<path d="M415.5 31h0.0"></path><path d="M478.0 31h0.0"></path><rect height="22" width="62.5" x="415.5" y="20"></rect><text x="446.75" y="35">field</text></g><path d="M478.0 31h10"></path><path d="M415.5 31a10 10 0 0 0 -10 10v0a10 10 0 0 0 10 10"></path><g>
<path d="M415.5 51h62.5"></path></g><path d="M478.0 51a10 10 0 0 0 10 -10v0a10 10 0 0 0 -10 -10"></path></g></g></g><path d="M488.0 31h10"></path><path d="M 498.0 31 h 20 m -10 -10 v 20 m 10 -20 v 20"></path></g></svg>