<svg class="railroad-diagram" height="191" viewBox="0 0 1115.5 191" width="1115.5" xmlns="http://www.w3.org/2000/svg" xmlns:xlink="http://www.w3.org/1999/xlink">
<defs>
<style type="text/css"><![CDATA[
svg.railroad-diagram { background-color: transparent; }
.terminal rect { fill: #DC382D !important; stroke: #DC382D !important; }
.terminal text { fill: white !important; font-weight: bold; }
.nonterminal rect { fill: none !important; stroke: #DC382D !important; stroke-width: 2; }
.nonterminal text { fill: #DC382D !important; font-weight: bold; }
path { stroke: #DC382D !important; stroke-width: 2; fill: none; }
circle { fill: #DC382D !important; stroke: #DC382D !important; }
]]></style>
</defs>
<g transform="translate(.5 .5)">
<style>/* <![CDATA[ */
	svg.railroad-diagram {
		background-color: transparent;
	}
	svg.railroad-diagram path {
		stroke-width:3;
		stroke: #DC382D;
		fill:rgba(0,0,0,0);
	}
	svg.railroad-diagram text {
		font:bold 14px monospace;
		text-anchor:middle;
	}
	svg.railroad-diagram text.label{
		text-anchor:start;
	}
	svg.railroad-diagram text.comment{
		font:italic 12px monospace;
	}
	svg.railroad-diagram rect{
		stroke-width:3;
		stroke: #DC382D;
		fill: none;
	}
	svg.railroad-diagram rect.group-box {
		stroke: #DC382D;
		stroke-dasharray: 10 5;
		fill: none;
	}

/* ]]> */
</style><g>
<path d="M20 30v20m10 -20v20m-10 -10h20"></path></g><path d="M40 40h10"></path><g>
<path d="M50 40h0.0"></path><path d="M1065.5 40h0.0"></path><g class="terminal ">
<path d="M50.0 40h0.0"></path><path d="M121.0 40h0.0"></path><rect height="22" rx="10" ry="10" width="71.0" x="50.0" y="29"></rect><text x="85.5" y="44">HSETEX</text></g><path d="M121.0 40h10"></path><path d="M131.0 40h10"></path><g class="non-terminal ">
<path d="M141.0 40h0.0"></path><path d="M186.5 40h0.0"></path><rect height="22" width="45.5" x="141.0" y="29"></rect><text x="163.75" y="44">key</text></g><path d="M186.5 40h10"></path><g>
<path d="M196.5 40h0.0"></path><path d="M322.0 40h0.0"></path><path d="M196.5 40a10 10 0 0 0 10 -10v0a10 10 0 0 1 10 -10"></path><g>
<path d="M216.5 20h85.5"></path></g><path d="M302.0 20a10 10 0 0 1 10 10v0a10 10 0 0 0 10 10"></path><path d="M196.5 40h20"></path><g>
<path d="M216.5 40h0.0"></path><path d="M302.0 40h0.0"></path><path d="M216.5 40h20"></path><g class="terminal ">
<path d="M236.5 40h0.0"></path><path d="M282.0 40h0.0"></path><rect height="22" rx="10" ry="10" width="45.5" x="236.5" y="29"></rect><text x="259.25" y="44">FNX</text></g><path d="M282.0 40h20"></path><path d="M216.5 40a10 10 0 0 1 10 10v10a10 10 0 0 0 10 10"></path><g class="terminal ">
<path d="M236.5 70h0.0"></path><path d="M282.0 70h0.0"></path><rect height="22" rx="10" ry="10" width="45.5" x="236.5" y="59"></rect><text x="259.25" y="74">FXX</text></g><path d="M282.0 70a10 10 0 0 0 10 -10v-10a10 10 0 0 1 10 -10"></path></g><path d="M302.0 40h20"></path></g><g>
<path d="M322.0 40h0.0"></path><path d="M683.0 40h0.0"></path><path d="M322.0 40a10 10 0 0 0 10 -10v0a10 10 0 0 1 10 -10"></path><g>
<path d="M342.0 20h321.0"></path></g><path d="M663.0 20a10 10 0 0 1 10 10v0a10 10 0 0 0 10 10"></path><path d="M322.0 40h20"></path><g>
<path d="M342.0 40h0.0"></path><path d="M663.0 40h0.0"></path><path d="M342.0 40h20"></path><g>
<path d="M362.0 40h72.25"></path><path d="M570.75 40h72.25"></path><g class="terminal ">
<path d="M434.25 40h0.0"></path><path d="M471.25 40h0.0"></path><rect height="22" rx="10" ry="10" width="37.0" x="434.25" y="29"></rect><text x="452.75" y="44">EX</text></g><path d="M471.25 40h10"></path><path d="M481.25 40h10"></path><g class="non-terminal ">
<path d="M491.25 40h0.0"></path><path d="M570.75 40h0.0"></path><rect height="22" width="79.5" x="491.25" y="29"></rect><text x="531.0" y="44">seconds</text></g></g><path d="M643.0 40h20"></path><path d="M342.0 40a10 10 0 0 1 10 10v10a10 10 0 0 0 10 10"></path><g>
<path d="M362.0 70h51.0"></path><path d="M592.0 70h51.0"></path><g class="terminal ">
<path d="M413.0 70h0.0"></path><path d="M450.0 70h0.0"></path><rect height="22" rx="10" ry="10" width="37.0" x="413.0" y="59"></rect><text x="431.5" y="74">PX</text></g><path d="M450.0 70h10"></path><path d="M460.0 70h10"></path><g class="non-terminal ">
<path d="M470.0 70h0.0"></path><path d="M592.0 70h0.0"></path><rect height="22" width="122.0" x="470.0" y="59"></rect><text x="531.0" y="74">milliseconds</text></g></g><path d="M643.0 70a10 10 0 0 0 10 -10v-10a10 10 0 0 1 10 -10"></path><path d="M342.0 40a10 10 0 0 1 10 10v40a10 10 0 0 0 10 10"></path><g>
<path d="M362.0 100h21.25"></path><path d="M621.75 100h21.25"></path><g class="terminal ">
<path d="M383.25 100h0.0"></path><path d="M437.25 100h0.0"></path><rect height="22" rx="10" ry="10" width="54.0" x="383.25" y="89"></rect><text x="410.25" y="104">EXAT</text></g><path d="M437.25 100h10"></path><path d="M447.25 100h10"></path><g class="non-terminal ">
<path d="M457.25 100h0.0"></path><path d="M621.75 100h0.0"></path><rect height="22" width="164.5" x="457.25" y="89"></rect><text x="539.5" y="104">unix-time-seconds</text></g></g><path d="M643.0 100a10 10 0 0 0 10 -10v-40a10 10 0 0 1 10 -10"></path><path d="M342.0 40a10 10 0 0 1 10 10v70a10 10 0 0 0 10 10"></path><g>
<path d="M362.0 130h0.0"></path><path d="M643.0 130h0.0"></path><g class="terminal ">
<path d="M362.0 130h0.0"></path><path d="M416.0 130h0.0"></path><rect height="22" rx="10" ry="10" width="54.0" x="362.0" y="119"></rect><text x="389.0" y="134">PXAT</text></g><path d="M416.0 130h10"></path><path d="M426.0 130h10"></path><g class="non-terminal ">
<path d="M436.0 130h0.0"></path><path d="M643.0 130h0.0"></path><rect height="22" width="207.0" x="436.0" y="119"></rect><text x="539.5" y="134">unix-time-milliseconds</text></g></g><path d="M643.0 130a10 10 0 0 0 10 -10v-70a10 10 0 0 1 10 -10"></path><path d="M342.0 40a10 10 0 0 1 10 10v100a10 10 0 0 0 10 10"></path><g class="terminal ">
<path d="M362.0 160h100.75"></path><path d="M542.25 160h100.75"></path><rect height="22" rx="10" ry="10" width="79.5" x="462.75" y="149"></rect><text x="502.5" y="164">KEEPTTL</text></g><path d="M643.0 160a10 10 0 0 0 10 -10v-100a10 10 0 0 1 10 -10"></path></g><path d="M663.0 40h20"></path></g><path d="M683.0 40h10"></path><g>
<path d="M693.0 40h0.0"></path><path d="M1065.5 40h0.0"></path><g class="terminal ">
<path d="M693.0 40h0.0"></path><path d="M764.0 40h0.0"></path><rect height="22" rx="10" ry="10" width="71.0" x="693.0" y="29"></rect><text x="728.5" y="44">FIELDS</text></g><path d="M764.0 40h10"></path><path d="M774.0 40h10"></path><g class="non-terminal ">
<path d="M784.0 40h0.0"></path><path d="M880.5 40h0.0"></path><rect height="22" width="96.5" x="784.0" y="29"></rect><text x="832.25" y="44">numfields</text></g><path d="M880.5 40h10"></path><path d="M890.5 40h10"></path><g>
<path d="M900.5 40h0.0"></path><path d="M1065.5 40h0.0"></path><path d="M900.5 40h10"></path><g>
<path d="M910.5 40h0.0"></path><path d="M1055.5 40h0.0"></path><g class="non-terminal ">
<path d="M910.5 40h0.0"></path><path d="M973.0 40h0.0"></path><rect height="22" width="62.5" x="910.5" y="29"></rect><text x="941.75" y="44">field</text></g><path d="M973.0 40h10"></path><path d="M983.0 40h10"></path><g class="non-terminal ">
<path d="M993.0 40h0.0"></path><path d="M1055.5 40h0.0"></path><rect height="22" width="62.5" x="993.0" y="29"></rect><text x="1024.25" y="44">value</text></g></g><path d="M1055.5 40h10"></path><path d="M910.5 40a10 10 0 0 0 -10 10v0a10 10 0 0 0 10 10"></path><g>
<path d="M910.5 60h145.0"></path></g><path d="M1055.5 60a10 10 0 0 0 10 -10v0a10 10 0 0 0 -10 -10"></path></g></g></g><path d="M1065.5 40h10"></path><path d="M 1075.5 40 h 20 m -10 -10 v 20 m 10 -20 v 20"></path></g></svg>