<svg class="railroad-diagram" height="191" viewBox="0 0 1407.0 191" width="1407.0" xmlns="http://www.w3.org/2000/svg" xmlns:xlink="http://www.w3.org/1999/xlink">
<defs>
<style type="text/css"><![CDATA[
svg.railroad-diagram { background-color: transparent; }
.terminal rect { fill: #DC382D !important; stroke: #DC382D !important; }
.terminal text { fill: white !important; font-weight: bold; }
.nonterminal rect { fill: none !important; stroke: #DC382D !important; stroke-width: 2; }
.nonterminal text { fill: #DC382D !important; font-weight: bold; }
path { stroke: #DC382D !important; stroke-width: 2; fill: none; }
circle { fill: #DC382D !important; stroke: #DC382D !important; }
]]></style>
</defs>
<g transform="translate(.5 .5)">
<style>/* <![CDATA[ */
	svg.railroad-diagram {
		background-color: transparent;
	}
	svg.railroad-diagram path {
		stroke-width:3;
		stroke: #DC382D;
		fill:rgba(0,0,0,0);
	}
	svg.railroad-diagram text {
		font:bold 14px monospace;
		text-anchor:middle;
	}
	svg.railroad-diagram text.label{
		text-anchor:start;
	}
	svg.railroad-diagram text.comment{
		font:italic 12px monospace;
	}
	svg.railroad-diagram rect{
		stroke-width:3;
		stroke: #DC382D;
		fill: none;
	}
	svg.railroad-diagram rect.group-box {
		stroke: #DC382D;
		stroke-dasharray: 10 5;
		fill: none;
	}

/* ]]> */
</style><g>
<path d="M20 30v20m10 -20v20m-10 -10h20"></path></g><path d="M40 40h10"></path><g>
<path d="M50 40h0.0"></path><path d="M1357.0 40h0.0"></path><g class="terminal ">
<path d="M50.0 40h0.0"></path><path d="M121.0 40h0.0"></path><rect height="22" rx="10" ry="10" width="71.0" x="50.0" y="29"></rect><text x="85.5" y="44">INCREX</text></g><path d="M121.0 40h10"></path><path d="M131.0 40h10"></path><g class="non-terminal ">
<path d="M141.0 40h0.0"></path><path d="M186.5 40h0.0"></path><rect height="22" width="45.5" x="141.0" y="29"></rect><text x="163.75" y="44">key</text></g><path d="M186.5 40h10"></path><g>
<path d="M196.5 40h0.0"></path><path d="M438.5 40h0.0"></path><path d="M196.5 40a10 10 0 0 0 10 -10v0a10 10 0 0 1 10 -10"></path><g>
<path d="M216.5 20h202.0"></path></g><path d="M418.5 20a10 10 0 0 1 10 10v0a10 10 0 0 0 10 10"></path><path d="M196.5 40h20"></path><g>
<path d="M216.5 40h0.0"></path><path d="M418.5 40h0.0"></path><path d="M216.5 40h20"></path><g>
<path d="M236.5 40h0.0"></path><path d="M398.5 40h0.0"></path><g class="terminal ">
<path d="M236.5 40h0.0"></path><path d="M316.0 40h0.0"></path><rect height="22" rx="10" ry="10" width="79.5" x="236.5" y="29"></rect><text x="276.25" y="44">BYFLOAT</text></g><path d="M316.0 40h10"></path><path d="M326.0 40h10"></path><g class="non-terminal ">
<path d="M336.0 40h0.0"></path><path d="M398.5 40h0.0"></path><rect height="22" width="62.5" x="336.0" y="29"></rect><text x="367.25" y="44">float</text></g></g><path d="M398.5 40h20"></path><path d="M216.5 40a10 10 0 0 1 10 10v10a10 10 0 0 0 10 10"></path><g>
<path d="M236.5 70h0.0"></path><path d="M398.5 70h0.0"></path><g class="terminal ">
<path d="M236.5 70h0.0"></path><path d="M299.0 70h0.0"></path><rect height="22" rx="10" ry="10" width="62.5" x="236.5" y="59"></rect><text x="267.75" y="74">BYINT</text></g><path d="M299.0 70h10"></path><path d="M309.0 70h10"></path><g class="non-terminal ">
<path d="M319.0 70h0.0"></path><path d="M398.5 70h0.0"></path><rect height="22" width="79.5" x="319.0" y="59"></rect><text x="358.75" y="74">integer</text></g></g><path d="M398.5 70a10 10 0 0 0 10 -10v-10a10 10 0 0 1 10 -10"></path></g><path d="M418.5 40h20"></path></g><g>
<path d="M438.5 40h0.0"></path><path d="M674.5 40h0.0"></path><path d="M438.5 40a10 10 0 0 0 10 -10v0a10 10 0 0 1 10 -10"></path><g>
<path d="M458.5 20h196.0"></path></g><path d="M654.5 20a10 10 0 0 1 10 10v0a10 10 0 0 0 10 10"></path><path d="M438.5 40h20"></path><g>
<path d="M458.5 40h0.0"></path><path d="M654.5 40h0.0"></path><g class="terminal ">
<path d="M458.5 40h0.0"></path><path d="M529.5 40h0.0"></path><rect height="22" rx="10" ry="10" width="71.0" x="458.5" y="29"></rect><text x="494.0" y="44">LBOUND</text></g><path d="M529.5 40h10"></path><path d="M539.5 40h10"></path><g class="non-terminal ">
<path d="M549.5 40h0.0"></path><path d="M654.5 40h0.0"></path><rect height="22" width="105.0" x="549.5" y="29"></rect><text x="602.0" y="44">lowerbound</text></g></g><path d="M654.5 40h20"></path></g><g>
<path d="M674.5 40h0.0"></path><path d="M910.5 40h0.0"></path><path d="M674.5 40a10 10 0 0 0 10 -10v0a10 10 0 0 1 10 -10"></path><g>
<path d="M694.5 20h196.0"></path></g><path d="M890.5 20a10 10 0 0 1 10 10v0a10 10 0 0 0 10 10"></path><path d="M674.5 40h20"></path><g>
<path d="M694.5 40h0.0"></path><path d="M890.5 40h0.0"></path><g class="terminal ">
<path d="M694.5 40h0.0"></path><path d="M765.5 40h0.0"></path><rect height="22" rx="10" ry="10" width="71.0" x="694.5" y="29"></rect><text x="730.0" y="44">UBOUND</text></g><path d="M765.5 40h10"></path><path d="M775.5 40h10"></path><g class="non-terminal ">
<path d="M785.5 40h0.0"></path><path d="M890.5 40h0.0"></path><rect height="22" width="105.0" x="785.5" y="29"></rect><text x="838.0" y="44">upperbound</text></g></g><path d="M890.5 40h20"></path></g><g>
<path d="M910.5 40h0.0"></path><path d="M1271.5 40h0.0"></path><path d="M910.5 40a10 10 0 0 0 10 -10v0a10 10 0 0 1 10 -10"></path><g>
<path d="M930.5 20h321.0"></path></g><path d="M1251.5 20a10 10 0 0 1 10 10v0a10 10 0 0 0 10 10"></path><path d="M910.5 40h20"></path><g>
<path d="M930.5 40h0.0"></path><path d="M1251.5 40h0.0"></path><path d="M930.5 40h20"></path><g>
<path d="M950.5 40h72.25"></path><path d="M1159.25 40h72.25"></path><g class="terminal ">
<path d="M1022.75 40h0.0"></path><path d="M1059.75 40h0.0"></path><rect height="22" rx="10" ry="10" width="37.0" x="1022.75" y="29"></rect><text x="1041.25" y="44">EX</text></g><path d="M1059.75 40h10"></path><path d="M1069.75 40h10"></path><g class="non-terminal ">
<path d="M1079.75 40h0.0"></path><path d="M1159.25 40h0.0"></path><rect height="22" width="79.5" x="1079.75" y="29"></rect><text x="1119.5" y="44">seconds</text></g></g><path d="M1231.5 40h20"></path><path d="M930.5 40a10 10 0 0 1 10 10v10a10 10 0 0 0 10 10"></path><g>
<path d="M950.5 70h51.0"></path><path d="M1180.5 70h51.0"></path><g class="terminal ">
<path d="M1001.5 70h0.0"></path><path d="M1038.5 70h0.0"></path><rect height="22" rx="10" ry="10" width="37.0" x="1001.5" y="59"></rect><text x="1020.0" y="74">PX</text></g><path d="M1038.5 70h10"></path><path d="M1048.5 70h10"></path><g class="non-terminal ">
<path d="M1058.5 70h0.0"></path><path d="M1180.5 70h0.0"></path><rect height="22" width="122.0" x="1058.5" y="59"></rect><text x="1119.5" y="74">milliseconds</text></g></g><path d="M1231.5 70a10 10 0 0 0 10 -10v-10a10 10 0 0 1 10 -10"></path><path d="M930.5 40a10 10 0 0 1 10 10v40a10 10 0 0 0 10 10"></path><g>
<path d="M950.5 100h21.25"></path><path d="M1210.25 100h21.25"></path><g class="terminal ">
<path d="M971.75 100h0.0"></path><path d="M1025.75 100h0.0"></path><rect height="22" rx="10" ry="10" width="54.0" x="971.75" y="89"></rect><text x="998.75" y="104">EXAT</text></g><path d="M1025.75 100h10"></path><path d="M1035.75 100h10"></path><g class="non-terminal ">
<path d="M1045.75 100h0.0"></path><path d="M1210.25 100h0.0"></path><rect height="22" width="164.5" x="1045.75" y="89"></rect><text x="1128.0" y="104">unix-time-seconds</text></g></g><path d="M1231.5 100a10 10 0 0 0 10 -10v-40a10 10 0 0 1 10 -10"></path><path d="M930.5 40a10 10 0 0 1 10 10v70a10 10 0 0 0 10 10"></path><g>
<path d="M950.5 130h0.0"></path><path d="M1231.5 130h0.0"></path><g class="terminal ">
<path d="M950.5 130h0.0"></path><path d="M1004.5 130h0.0"></path><rect height="22" rx="10" ry="10" width="54.0" x="950.5" y="119"></rect><text x="977.5" y="134">PXAT</text></g><path d="M1004.5 130h10"></path><path d="M1014.5 130h10"></path><g class="non-terminal ">
<path d="M1024.5 130h0.0"></path><path d="M1231.5 130h0.0"></path><rect height="22" width="207.0" x="1024.5" y="119"></rect><text x="1128.0" y="134">unix-time-milliseconds</text></g></g><path d="M1231.5 130a10 10 0 0 0 10 -10v-70a10 10 0 0 1 10 -10"></path><path d="M930.5 40a10 10 0 0 1 10 10v100a10 10 0 0 0 10 10"></path><g class="terminal ">
<path d="M950.5 160h100.75"></path><path d="M1130.75 160h100.75"></path><rect height="22" rx="10" ry="10" width="79.5" x="1051.25" y="149"></rect><text x="1091.0" y="164">PERSIST</text></g><path d="M1231.5 160a10 10 0 0 0 10 -10v-100a10 10 0 0 1 10 -10"></path></g><path d="M1251.5 40h20"></path></g><g>
<path d="M1271.5 40h0.0"></path><path d="M1357.0 40h0.0"></path><path d="M1271.5 40a10 10 0 0 0 10 -10v0a10 10 0 0 1 10 -10"></path><g>
<path d="M1291.5 20h45.5"></path></g><path d="M1337.0 20a10 10 0 0 1 10 10v0a10 10 0 0 0 10 10"></path><path d="M1271.5 40h20"></path><g class="terminal ">
<path d="M1291.5 40h0.0"></path><path d="M1337.0 40h0.0"></path><rect height="22" rx="10" ry="10" width="45.5" x="1291.5" y="29"></rect><text x="1314.25" y="44">ENX</text></g><path d="M1337.0 40h20"></path></g></g><path d="M1357.0 40h10"></path><path d="M 1367.0 40 h 20 m -10 -10 v 20 m 10 -20 v 20"></path></g></svg>