<svg class="railroad-diagram" height="191" viewBox="0 0 1656.0 191" width="1656.0" xmlns="http://www.w3.org/2000/svg" xmlns:xlink="http://www.w3.org/1999/xlink">
<defs>
<style type="text/css"><![CDATA[
svg.railroad-diagram { background-color: transparent; }
.terminal rect { fill: #DC382D !important; stroke: #DC382D !important; }
.terminal text { fill: white !important; font-weight: bold; }
.nonterminal rect { fill: none !important; stroke: #DC382D !important; stroke-width: 2; }
.nonterminal text { fill: #DC382D !important; font-weight: bold; }
path { stroke: #DC382D !important; stroke-width: 2; fill: none; }
circle { fill: #DC382D !important; stroke: #DC382D !important; }
]]></style>
</defs>
<g transform="translate(.5 .5)">
<style>/* <![CDATA[ */
	svg.railroad-diagram {
		background-color: transparent;
	}
	svg.railroad-diagram path {
		stroke-width:3;
		stroke: #DC382D;
		fill:rgba(0,0,0,0);
	}
	svg.railroad-diagram text {
		font:bold 14px monospace;
		text-anchor:middle;
	}
	svg.railroad-diagram text.label{
		text-anchor:start;
	}
	svg.railroad-diagram text.comment{
		font:italic 12px monospace;
	}
	svg.railroad-diagram rect{
		stroke-width:3;
		stroke: #DC382D;
		fill: none;
	}
	svg.railroad-diagram rect.group-box {
		stroke: #DC382D;
		stroke-dasharray: 10 5;
		fill: none;
	}

/* ]]> */
</style><g>
<path d="M20 30v20m10 -20v20m-10 -10h20"></path></g><path d="M40 40h10"></path><g>
<path d="M50 40h0.0"></path><path d="M1606.0 40h0.0"></path><g class="terminal ">
<path d="M50.0 40h0.0"></path><path d="M121.0 40h0.0"></path><rect height="22" rx="10" ry="10" width="71.0" x="50.0" y="29"></rect><text x="85.5" y="44">INCREX</text></g><path d="M121.0 40h10"></path><path d="M131.0 40h10"></path><g class="non-terminal ">
<path d="M141.0 40h0.0"></path><path d="M186.5 40h0.0"></path><rect height="22" width="45.5" x="141.0" y="29"></rect><text x="163.75" y="44">key</text></g><path d="M186.5 40h10"></path><g>
<path d="M196.5 40h0.0"></path><path d="M438.5 40h0.0"></path><path d="M196.5 40a10 10 0 0 0 10 -10v0a10 10 0 0 1 10 -10"></path><g>
<path d="M216.5 20h202.0"></path></g><path d="M418.5 20a10 10 0 0 1 10 10v0a10 10 0 0 0 10 10"></path><path d="M196.5 40h20"></path><g>
<path d="M216.5 40h0.0"></path><path d="M418.5 40h0.0"></path><path d="M216.5 40h20"></path><g>
<path d="M236.5 40h0.0"></path><path d="M398.5 40h0.0"></path><g class="terminal ">
<path d="M236.5 40h0.0"></path><path d="M316.0 40h0.0"></path><rect height="22" rx="10" ry="10" width="79.5" x="236.5" y="29"></rect><text x="276.25" y="44">BYFLOAT</text></g><path d="M316.0 40h10"></path><path d="M326.0 40h10"></path><g class="non-terminal ">
<path d="M336.0 40h0.0"></path><path d="M398.5 40h0.0"></path><rect height="22" width="62.5" x="336.0" y="29"></rect><text x="367.25" y="44">float</text></g></g><path d="M398.5 40h20"></path><path d="M216.5 40a10 10 0 0 1 10 10v10a10 10 0 0 0 10 10"></path><g>
<path d="M236.5 70h0.0"></path><path d="M398.5 70h0.0"></path><g class="terminal ">
<path d="M236.5 70h0.0"></path><path d="M299.0 70h0.0"></path><rect height="22" rx="10" ry="10" width="62.5" x="236.5" y="59"></rect><text x="267.75" y="74">BYINT</text></g><path d="M299.0 70h10"></path><path d="M309.0 70h10"></path><g class="non-terminal ">
<path d="M319.0 70h0.0"></path><path d="M398.5 70h0.0"></path><rect height="22" width="79.5" x="319.0" y="59"></rect><text x="358.75" y="74">integer</text></g></g><path d="M398.5 70a10 10 0 0 0 10 -10v-10a10 10 0 0 1 10 -10"></path></g><path d="M418.5 40h20"></path></g><g>
<path d="M438.5 40h0.0"></path><path d="M687.5 40h0.0"></path><path d="M438.5 40a10 10 0 0 0 10 -10v0a10 10 0 0 1 10 -10"></path><g>
<path d="M458.5 20h209.0"></path></g><path d="M667.5 20a10 10 0 0 1 10 10v0a10 10 0 0 0 10 10"></path><path d="M438.5 40h20"></path><g>
<path d="M458.5 40h0.0"></path><path d="M667.5 40h0.0"></path><g class="terminal ">
<path d="M458.5 40h0.0"></path><path d="M546.5 40h0.0"></path><rect height="22" rx="10" ry="10" width="88.0" x="458.5" y="29"></rect><text x="502.5" y="44">OVERFLOW</text></g><path d="M546.5 40h10"></path><g>
<path d="M556.5 40h0.0"></path><path d="M667.5 40h0.0"></path><path d="M556.5 40h20"></path><g class="terminal ">
<path d="M576.5 40h8.5"></path><path d="M639.0 40h8.5"></path><rect height="22" rx="10" ry="10" width="54.0" x="585.0" y="29"></rect><text x="612.0" y="44">FAIL</text></g><path d="M647.5 40h20"></path><path d="M556.5 40a10 10 0 0 1 10 10v10a10 10 0 0 0 10 10"></path><g class="terminal ">
<path d="M576.5 70h12.75"></path><path d="M634.75 70h12.75"></path><rect height="22" rx="10" ry="10" width="45.5" x="589.25" y="59"></rect><text x="612.0" y="74">SAT</text></g><path d="M647.5 70a10 10 0 0 0 10 -10v-10a10 10 0 0 1 10 -10"></path><path d="M556.5 40a10 10 0 0 1 10 10v40a10 10 0 0 0 10 10"></path><g class="terminal ">
<path d="M576.5 100h0.0"></path><path d="M647.5 100h0.0"></path><rect height="22" rx="10" ry="10" width="71.0" x="576.5" y="89"></rect><text x="612.0" y="104">REJECT</text></g><path d="M647.5 100a10 10 0 0 0 10 -10v-40a10 10 0 0 1 10 -10"></path></g></g><path d="M667.5 40h20"></path></g><g>
<path d="M687.5 40h0.0"></path><path d="M923.5 40h0.0"></path><path d="M687.5 40a10 10 0 0 0 10 -10v0a10 10 0 0 1 10 -10"></path><g>
<path d="M707.5 20h196.0"></path></g><path d="M903.5 20a10 10 0 0 1 10 10v0a10 10 0 0 0 10 10"></path><path d="M687.5 40h20"></path><g>
<path d="M707.5 40h0.0"></path><path d="M903.5 40h0.0"></path><g class="terminal ">
<path d="M707.5 40h0.0"></path><path d="M778.5 40h0.0"></path><rect height="22" rx="10" ry="10" width="71.0" x="707.5" y="29"></rect><text x="743.0" y="44">LBOUND</text></g><path d="M778.5 40h10"></path><path d="M788.5 40h10"></path><g class="non-terminal ">
<path d="M798.5 40h0.0"></path><path d="M903.5 40h0.0"></path><rect height="22" width="105.0" x="798.5" y="29"></rect><text x="851.0" y="44">lowerbound</text></g></g><path d="M903.5 40h20"></path></g><g>
<path d="M923.5 40h0.0"></path><path d="M1159.5 40h0.0"></path><path d="M923.5 40a10 10 0 0 0 10 -10v0a10 10 0 0 1 10 -10"></path><g>
<path d="M943.5 20h196.0"></path></g><path d="M1139.5 20a10 10 0 0 1 10 10v0a10 10 0 0 0 10 10"></path><path d="M923.5 40h20"></path><g>
<path d="M943.5 40h0.0"></path><path d="M1139.5 40h0.0"></path><g class="terminal ">
<path d="M943.5 40h0.0"></path><path d="M1014.5 40h0.0"></path><rect height="22" rx="10" ry="10" width="71.0" x="943.5" y="29"></rect><text x="979.0" y="44">UBOUND</text></g><path d="M1014.5 40h10"></path><path d="M1024.5 40h10"></path><g class="non-terminal ">
<path d="M1034.5 40h0.0"></path><path d="M1139.5 40h0.0"></path><rect height="22" width="105.0" x="1034.5" y="29"></rect><text x="1087.0" y="44">upperbound</text></g></g><path d="M1139.5 40h20"></path></g><g>
<path d="M1159.5 40h0.0"></path><path d="M1520.5 40h0.0"></path><path d="M1159.5 40a10 10 0 0 0 10 -10v0a10 10 0 0 1 10 -10"></path><g>
<path d="M1179.5 20h321.0"></path></g><path d="M1500.5 20a10 10 0 0 1 10 10v0a10 10 0 0 0 10 10"></path><path d="M1159.5 40h20"></path><g>
<path d="M1179.5 40h0.0"></path><path d="M1500.5 40h0.0"></path><path d="M1179.5 40h20"></path><g>
<path d="M1199.5 40h72.25"></path><path d="M1408.25 40h72.25"></path><g class="terminal ">
<path d="M1271.75 40h0.0"></path><path d="M1308.75 40h0.0"></path><rect height="22" rx="10" ry="10" width="37.0" x="1271.75" y="29"></rect><text x="1290.25" y="44">EX</text></g><path d="M1308.75 40h10"></path><path d="M1318.75 40h10"></path><g class="non-terminal ">
<path d="M1328.75 40h0.0"></path><path d="M1408.25 40h0.0"></path><rect height="22" width="79.5" x="1328.75" y="29"></rect><text x="1368.5" y="44">seconds</text></g></g><path d="M1480.5 40h20"></path><path d="M1179.5 40a10 10 0 0 1 10 10v10a10 10 0 0 0 10 10"></path><g>
<path d="M1199.5 70h51.0"></path><path d="M1429.5 70h51.0"></path><g class="terminal ">
<path d="M1250.5 70h0.0"></path><path d="M1287.5 70h0.0"></path><rect height="22" rx="10" ry="10" width="37.0" x="1250.5" y="59"></rect><text x="1269.0" y="74">PX</text></g><path d="M1287.5 70h10"></path><path d="M1297.5 70h10"></path><g class="non-terminal ">
<path d="M1307.5 70h0.0"></path><path d="M1429.5 70h0.0"></path><rect height="22" width="122.0" x="1307.5" y="59"></rect><text x="1368.5" y="74">milliseconds</text></g></g><path d="M1480.5 70a10 10 0 0 0 10 -10v-10a10 10 0 0 1 10 -10"></path><path d="M1179.5 40a10 10 0 0 1 10 10v40a10 10 0 0 0 10 10"></path><g>
<path d="M1199.5 100h21.25"></path><path d="M1459.25 100h21.25"></path><g class="terminal ">
<path d="M1220.75 100h0.0"></path><path d="M1274.75 100h0.0"></path><rect height="22" rx="10" ry="10" width="54.0" x="1220.75" y="89"></rect><text x="1247.75" y="104">EXAT</text></g><path d="M1274.75 100h10"></path><path d="M1284.75 100h10"></path><g class="non-terminal ">
<path d="M1294.75 100h0.0"></path><path d="M1459.25 100h0.0"></path><rect height="22" width="164.5" x="1294.75" y="89"></rect><text x="1377.0" y="104">unix-time-seconds</text></g></g><path d="M1480.5 100a10 10 0 0 0 10 -10v-40a10 10 0 0 1 10 -10"></path><path d="M1179.5 40a10 10 0 0 1 10 10v70a10 10 0 0 0 10 10"></path><g>
<path d="M1199.5 130h0.0"></path><path d="M1480.5 130h0.0"></path><g class="terminal ">
<path d="M1199.5 130h0.0"></path><path d="M1253.5 130h0.0"></path><rect height="22" rx="10" ry="10" width="54.0" x="1199.5" y="119"></rect><text x="1226.5" y="134">PXAT</text></g><path d="M1253.5 130h10"></path><path d="M1263.5 130h10"></path><g class="non-terminal ">
<path d="M1273.5 130h0.0"></path><path d="M1480.5 130h0.0"></path><rect height="22" width="207.0" x="1273.5" y="119"></rect><text x="1377.0" y="134">unix-time-milliseconds</text></g></g><path d="M1480.5 130a10 10 0 0 0 10 -10v-70a10 10 0 0 1 10 -10"></path><path d="M1179.5 40a10 10 0 0 1 10 10v100a10 10 0 0 0 10 10"></path><g class="terminal ">
<path d="M1199.5 160h100.75"></path><path d="M1379.75 160h100.75"></path><rect height="22" rx="10" ry="10" width="79.5" x="1300.25" y="149"></rect><text x="1340.0" y="164">PERSIST</text></g><path d="M1480.5 160a10 10 0 0 0 10 -10v-100a10 10 0 0 1 10 -10"></path></g><path d="M1500.5 40h20"></path></g><g>
<path d="M1520.5 40h0.0"></path><path d="M1606.0 40h0.0"></path><path d="M1520.5 40a10 10 0 0 0 10 -10v0a10 10 0 0 1 10 -10"></path><g>
<path d="M1540.5 20h45.5"></path></g><path d="M1586.0 20a10 10 0 0 1 10 10v0a10 10 0 0 0 10 10"></path><path d="M1520.5 40h20"></path><g class="terminal ">
<path d="M1540.5 40h0.0"></path><path d="M1586.0 40h0.0"></path><rect height="22" rx="10" ry="10" width="45.5" x="1540.5" y="29"></rect><text x="1563.25" y="44">ENX</text></g><path d="M1586.0 40h20"></path></g></g><path d="M1606.0 40h10"></path><path d="M 1616.0 40 h 20 m -10 -10 v 20 m 10 -20 v 20"></path></g></svg>