<svg class="railroad-diagram" height="191" viewBox="0 0 1535.0 191" width="1535.0" xmlns="http://www.w3.org/2000/svg" xmlns:xlink="http://www.w3.org/1999/xlink">
<defs>
<style type="text/css"><![CDATA[
svg.railroad-diagram { background-color: transparent; }
.terminal rect { fill: #DC382D !important; stroke: #DC382D !important; }
.terminal text { fill: white !important; font-weight: bold; }
.nonterminal rect { fill: none !important; stroke: #DC382D !important; stroke-width: 2; }
.nonterminal text { fill: #DC382D !important; font-weight: bold; }
path { stroke: #DC382D !important; stroke-width: 2; fill: none; }
circle { fill: #DC382D !important; stroke: #DC382D !important; }
]]></style>
</defs>
<g transform="translate(.5 .5)">
<style>/* <![CDATA[ */
	svg.railroad-diagram {
		background-color: transparent;
	}
	svg.railroad-diagram path {
		stroke-width:3;
		stroke: #DC382D;
		fill:rgba(0,0,0,0);
	}
	svg.railroad-diagram text {
		font:bold 14px monospace;
		text-anchor:middle;
	}
	svg.railroad-diagram text.label{
		text-anchor:start;
	}
	svg.railroad-diagram text.comment{
		font:italic 12px monospace;
	}
	svg.railroad-diagram rect{
		stroke-width:3;
		stroke: #DC382D;
		fill: none;
	}
	svg.railroad-diagram rect.group-box {
		stroke: #DC382D;
		stroke-dasharray: 10 5;
		fill: none;
	}

/* ]]> */
</style><g>
<path d="M20 30v20m10 -20v20m-10 -10h20"></path></g><path d="M40 40h10"></path><g>
<path d="M50 40h0.0"></path><path d="M1485.0 40h0.0"></path><g class="terminal ">
<path d="M50.0 40h0.0"></path><path d="M121.0 40h0.0"></path><rect height="22" rx="10" ry="10" width="71.0" x="50.0" y="29"></rect><text x="85.5" y="44">INCREX</text></g><path d="M121.0 40h10"></path><path d="M131.0 40h10"></path><g class="non-terminal ">
<path d="M141.0 40h0.0"></path><path d="M186.5 40h0.0"></path><rect height="22" width="45.5" x="141.0" y="29"></rect><text x="163.75" y="44">key</text></g><path d="M186.5 40h10"></path><g>
<path d="M196.5 40h0.0"></path><path d="M438.5 40h0.0"></path><path d="M196.5 40a10 10 0 0 0 10 -10v0a10 10 0 0 1 10 -10"></path><g>
<path d="M216.5 20h202.0"></path></g><path d="M418.5 20a10 10 0 0 1 10 10v0a10 10 0 0 0 10 10"></path><path d="M196.5 40h20"></path><g>
<path d="M216.5 40h0.0"></path><path d="M418.5 40h0.0"></path><path d="M216.5 40h20"></path><g>
<path d="M236.5 40h0.0"></path><path d="M398.5 40h0.0"></path><g class="terminal ">
<path d="M236.5 40h0.0"></path><path d="M316.0 40h0.0"></path><rect height="22" rx="10" ry="10" width="79.5" x="236.5" y="29"></rect><text x="276.25" y="44">BYFLOAT</text></g><path d="M316.0 40h10"></path><path d="M326.0 40h10"></path><g class="non-terminal ">
<path d="M336.0 40h0.0"></path><path d="M398.5 40h0.0"></path><rect height="22" width="62.5" x="336.0" y="29"></rect><text x="367.25" y="44">float</text></g></g><path d="M398.5 40h20"></path><path d="M216.5 40a10 10 0 0 1 10 10v10a10 10 0 0 0 10 10"></path><g>
<path d="M236.5 70h0.0"></path><path d="M398.5 70h0.0"></path><g class="terminal ">
<path d="M236.5 70h0.0"></path><path d="M299.0 70h0.0"></path><rect height="22" rx="10" ry="10" width="62.5" x="236.5" y="59"></rect><text x="267.75" y="74">BYINT</text></g><path d="M299.0 70h10"></path><path d="M309.0 70h10"></path><g class="non-terminal ">
<path d="M319.0 70h0.0"></path><path d="M398.5 70h0.0"></path><rect height="22" width="79.5" x="319.0" y="59"></rect><text x="358.75" y="74">integer</text></g></g><path d="M398.5 70a10 10 0 0 0 10 -10v-10a10 10 0 0 1 10 -10"></path></g><path d="M418.5 40h20"></path></g><g>
<path d="M438.5 40h0.0"></path><path d="M566.5 40h0.0"></path><path d="M438.5 40a10 10 0 0 0 10 -10v0a10 10 0 0 1 10 -10"></path><g>
<path d="M458.5 20h88.0"></path></g><path d="M546.5 20a10 10 0 0 1 10 10v0a10 10 0 0 0 10 10"></path><path d="M438.5 40h20"></path><g class="terminal ">
<path d="M458.5 40h0.0"></path><path d="M546.5 40h0.0"></path><rect height="22" rx="10" ry="10" width="88.0" x="458.5" y="29"></rect><text x="502.5" y="44">SATURATE</text></g><path d="M546.5 40h20"></path></g><g>
<path d="M566.5 40h0.0"></path><path d="M802.5 40h0.0"></path><path d="M566.5 40a10 10 0 0 0 10 -10v0a10 10 0 0 1 10 -10"></path><g>
<path d="M586.5 20h196.0"></path></g><path d="M782.5 20a10 10 0 0 1 10 10v0a10 10 0 0 0 10 10"></path><path d="M566.5 40h20"></path><g>
<path d="M586.5 40h0.0"></path><path d="M782.5 40h0.0"></path><g class="terminal ">
<path d="M586.5 40h0.0"></path><path d="M657.5 40h0.0"></path><rect height="22" rx="10" ry="10" width="71.0" x="586.5" y="29"></rect><text x="622.0" y="44">LBOUND</text></g><path d="M657.5 40h10"></path><path d="M667.5 40h10"></path><g class="non-terminal ">
<path d="M677.5 40h0.0"></path><path d="M782.5 40h0.0"></path><rect height="22" width="105.0" x="677.5" y="29"></rect><text x="730.0" y="44">lowerbound</text></g></g><path d="M782.5 40h20"></path></g><g>
<path d="M802.5 40h0.0"></path><path d="M1038.5 40h0.0"></path><path d="M802.5 40a10 10 0 0 0 10 -10v0a10 10 0 0 1 10 -10"></path><g>
<path d="M822.5 20h196.0"></path></g><path d="M1018.5 20a10 10 0 0 1 10 10v0a10 10 0 0 0 10 10"></path><path d="M802.5 40h20"></path><g>
<path d="M822.5 40h0.0"></path><path d="M1018.5 40h0.0"></path><g class="terminal ">
<path d="M822.5 40h0.0"></path><path d="M893.5 40h0.0"></path><rect height="22" rx="10" ry="10" width="71.0" x="822.5" y="29"></rect><text x="858.0" y="44">UBOUND</text></g><path d="M893.5 40h10"></path><path d="M903.5 40h10"></path><g class="non-terminal ">
<path d="M913.5 40h0.0"></path><path d="M1018.5 40h0.0"></path><rect height="22" width="105.0" x="913.5" y="29"></rect><text x="966.0" y="44">upperbound</text></g></g><path d="M1018.5 40h20"></path></g><g>
<path d="M1038.5 40h0.0"></path><path d="M1399.5 40h0.0"></path><path d="M1038.5 40a10 10 0 0 0 10 -10v0a10 10 0 0 1 10 -10"></path><g>
<path d="M1058.5 20h321.0"></path></g><path d="M1379.5 20a10 10 0 0 1 10 10v0a10 10 0 0 0 10 10"></path><path d="M1038.5 40h20"></path><g>
<path d="M1058.5 40h0.0"></path><path d="M1379.5 40h0.0"></path><path d="M1058.5 40h20"></path><g>
<path d="M1078.5 40h72.25"></path><path d="M1287.25 40h72.25"></path><g class="terminal ">
<path d="M1150.75 40h0.0"></path><path d="M1187.75 40h0.0"></path><rect height="22" rx="10" ry="10" width="37.0" x="1150.75" y="29"></rect><text x="1169.25" y="44">EX</text></g><path d="M1187.75 40h10"></path><path d="M1197.75 40h10"></path><g class="non-terminal ">
<path d="M1207.75 40h0.0"></path><path d="M1287.25 40h0.0"></path><rect height="22" width="79.5" x="1207.75" y="29"></rect><text x="1247.5" y="44">seconds</text></g></g><path d="M1359.5 40h20"></path><path d="M1058.5 40a10 10 0 0 1 10 10v10a10 10 0 0 0 10 10"></path><g>
<path d="M1078.5 70h51.0"></path><path d="M1308.5 70h51.0"></path><g class="terminal ">
<path d="M1129.5 70h0.0"></path><path d="M1166.5 70h0.0"></path><rect height="22" rx="10" ry="10" width="37.0" x="1129.5" y="59"></rect><text x="1148.0" y="74">PX</text></g><path d="M1166.5 70h10"></path><path d="M1176.5 70h10"></path><g class="non-terminal ">
<path d="M1186.5 70h0.0"></path><path d="M1308.5 70h0.0"></path><rect height="22" width="122.0" x="1186.5" y="59"></rect><text x="1247.5" y="74">milliseconds</text></g></g><path d="M1359.5 70a10 10 0 0 0 10 -10v-10a10 10 0 0 1 10 -10"></path><path d="M1058.5 40a10 10 0 0 1 10 10v40a10 10 0 0 0 10 10"></path><g>
<path d="M1078.5 100h21.25"></path><path d="M1338.25 100h21.25"></path><g class="terminal ">
<path d="M1099.75 100h0.0"></path><path d="M1153.75 100h0.0"></path><rect height="22" rx="10" ry="10" width="54.0" x="1099.75" y="89"></rect><text x="1126.75" y="104">EXAT</text></g><path d="M1153.75 100h10"></path><path d="M1163.75 100h10"></path><g class="non-terminal ">
<path d="M1173.75 100h0.0"></path><path d="M1338.25 100h0.0"></path><rect height="22" width="164.5" x="1173.75" y="89"></rect><text x="1256.0" y="104">unix-time-seconds</text></g></g><path d="M1359.5 100a10 10 0 0 0 10 -10v-40a10 10 0 0 1 10 -10"></path><path d="M1058.5 40a10 10 0 0 1 10 10v70a10 10 0 0 0 10 10"></path><g>
<path d="M1078.5 130h0.0"></path><path d="M1359.5 130h0.0"></path><g class="terminal ">
<path d="M1078.5 130h0.0"></path><path d="M1132.5 130h0.0"></path><rect height="22" rx="10" ry="10" width="54.0" x="1078.5" y="119"></rect><text x="1105.5" y="134">PXAT</text></g><path d="M1132.5 130h10"></path><path d="M1142.5 130h10"></path><g class="non-terminal ">
<path d="M1152.5 130h0.0"></path><path d="M1359.5 130h0.0"></path><rect height="22" width="207.0" x="1152.5" y="119"></rect><text x="1256.0" y="134">unix-time-milliseconds</text></g></g><path d="M1359.5 130a10 10 0 0 0 10 -10v-70a10 10 0 0 1 10 -10"></path><path d="M1058.5 40a10 10 0 0 1 10 10v100a10 10 0 0 0 10 10"></path><g class="terminal ">
<path d="M1078.5 160h100.75"></path><path d="M1258.75 160h100.75"></path><rect height="22" rx="10" ry="10" width="79.5" x="1179.25" y="149"></rect><text x="1219.0" y="164">PERSIST</text></g><path d="M1359.5 160a10 10 0 0 0 10 -10v-100a10 10 0 0 1 10 -10"></path></g><path d="M1379.5 40h20"></path></g><g>
<path d="M1399.5 40h0.0"></path><path d="M1485.0 40h0.0"></path><path d="M1399.5 40a10 10 0 0 0 10 -10v0a10 10 0 0 1 10 -10"></path><g>
<path d="M1419.5 20h45.5"></path></g><path d="M1465.0 20a10 10 0 0 1 10 10v0a10 10 0 0 0 10 10"></path><path d="M1399.5 40h20"></path><g class="terminal ">
<path d="M1419.5 40h0.0"></path><path d="M1465.0 40h0.0"></path><rect height="22" rx="10" ry="10" width="45.5" x="1419.5" y="29"></rect><text x="1442.25" y="44">ENX</text></g><path d="M1465.0 40h20"></path></g></g><path d="M1485.0 40h10"></path><path d="M 1495.0 40 h 20 m -10 -10 v 20 m 10 -20 v 20"></path></g></svg>