<svg class="railroad-diagram" height="80" viewBox="0 0 983.5 80" width="983.5" xmlns="http://www.w3.org/2000/svg" xmlns:xlink="http://www.w3.org/1999/xlink">
<defs>
<style type="text/css"><![CDATA[
svg.railroad-diagram { background-color: transparent; }
.terminal rect { fill: #DC382D !important; stroke: #DC382D !important; }
.terminal text { fill: white !important; font-weight: bold; }
.nonterminal rect { fill: none !important; stroke: #DC382D !important; stroke-width: 2; }
.nonterminal text { fill: #DC382D !important; font-weight: bold; }
path { stroke: #DC382D !important; stroke-width: 2; fill: none; }
circle { fill: #DC382D !important; stroke: #DC382D !important; }
]]></style>
</defs>
<g transform="translate(.5 .5)">
<style>/* <![CDATA[ */
	svg.railroad-diagram {
		background-color: transparent;
	}
	svg.railroad-diagram path {
		stroke-width:3;
		stroke: #DC382D;
		fill:rgba(0,0,0,0);
	}
	svg.railroad-diagram text {
		font:bold 14px monospace;
		text-anchor:middle;
	}
	svg.railroad-diagram text.label{
		text-anchor:start;
	}
	svg.railroad-diagram text.comment{
		font:italic 12px monospace;
	}
	svg.railroad-diagram rect{
		stroke-width:3;
		stroke: #DC382D;
		fill: none;
	}
	svg.railroad-diagram rect.group-box {
		stroke: #DC382D;
		stroke-dasharray: 10 5;
		fill: none;
	}

/* ]]> */
</style><g>
<path d="M20 30v20m10 -20v20m-10 -10h20"></path></g><path d="M40 40h10"></path><g>
<path d="M50 40h0.0"></path><path d="M933.5 40h0.0"></path><g class="terminal ">
<path d="M50.0 40h0.0"></path><path d="M138.0 40h0.0"></path><rect height="22" rx="10" ry="10" width="88.0" x="50.0" y="29"></rect><text x="94.0" y="44">JSON.GET</text></g><path d="M138.0 40h10"></path><path d="M148.0 40h10"></path><g class="non-terminal ">
<path d="M158.0 40h0.0"></path><path d="M203.5 40h0.0"></path><rect height="22" width="45.5" x="158.0" y="29"></rect><text x="180.75" y="44">key</text></g><path d="M203.5 40h10"></path><g>
<path d="M213.5 40h0.0"></path><path d="M415.5 40h0.0"></path><path d="M213.5 40a10 10 0 0 0 10 -10v0a10 10 0 0 1 10 -10"></path><g>
<path d="M233.5 20h162.0"></path></g><path d="M395.5 20a10 10 0 0 1 10 10v0a10 10 0 0 0 10 10"></path><path d="M213.5 40h20"></path><g>
<path d="M233.5 40h0.0"></path><path d="M395.5 40h0.0"></path><g class="terminal ">
<path d="M233.5 40h0.0"></path><path d="M304.5 40h0.0"></path><rect height="22" rx="10" ry="10" width="71.0" x="233.5" y="29"></rect><text x="269.0" y="44">INDENT</text></g><path d="M304.5 40h10"></path><path d="M314.5 40h10"></path><g class="non-terminal ">
<path d="M324.5 40h0.0"></path><path d="M395.5 40h0.0"></path><rect height="22" width="71.0" x="324.5" y="29"></rect><text x="360.0" y="44">indent</text></g></g><path d="M395.5 40h20"></path></g><g>
<path d="M415.5 40h0.0"></path><path d="M634.5 40h0.0"></path><path d="M415.5 40a10 10 0 0 0 10 -10v0a10 10 0 0 1 10 -10"></path><g>
<path d="M435.5 20h179.0"></path></g><path d="M614.5 20a10 10 0 0 1 10 10v0a10 10 0 0 0 10 10"></path><path d="M415.5 40h20"></path><g>
<path d="M435.5 40h0.0"></path><path d="M614.5 40h0.0"></path><g class="terminal ">
<path d="M435.5 40h0.0"></path><path d="M515.0 40h0.0"></path><rect height="22" rx="10" ry="10" width="79.5" x="435.5" y="29"></rect><text x="475.25" y="44">NEWLINE</text></g><path d="M515.0 40h10"></path><path d="M525.0 40h10"></path><g class="non-terminal ">
<path d="M535.0 40h0.0"></path><path d="M614.5 40h0.0"></path><rect height="22" width="79.5" x="535.0" y="29"></rect><text x="574.75" y="44">newline</text></g></g><path d="M614.5 40h20"></path></g><g>
<path d="M634.5 40h0.0"></path><path d="M819.5 40h0.0"></path><path d="M634.5 40a10 10 0 0 0 10 -10v0a10 10 0 0 1 10 -10"></path><g>
<path d="M654.5 20h145.0"></path></g><path d="M799.5 20a10 10 0 0 1 10 10v0a10 10 0 0 0 10 10"></path><path d="M634.5 40h20"></path><g>
<path d="M654.5 40h0.0"></path><path d="M799.5 40h0.0"></path><g class="terminal ">
<path d="M654.5 40h0.0"></path><path d="M717.0 40h0.0"></path><rect height="22" rx="10" ry="10" width="62.5" x="654.5" y="29"></rect><text x="685.75" y="44">SPACE</text></g><path d="M717.0 40h10"></path><path d="M727.0 40h10"></path><g class="non-terminal ">
<path d="M737.0 40h0.0"></path><path d="M799.5 40h0.0"></path><rect height="22" width="62.5" x="737.0" y="29"></rect><text x="768.25" y="44">space</text></g></g><path d="M799.5 40h20"></path></g><g>
<path d="M819.5 40h0.0"></path><path d="M933.5 40h0.0"></path><path d="M819.5 40a10 10 0 0 0 10 -10v0a10 10 0 0 1 10 -10"></path><g>
<path d="M839.5 20h74.0"></path></g><path d="M913.5 20a10 10 0 0 1 10 10v0a10 10 0 0 0 10 10"></path><path d="M819.5 40h20"></path><g>
<path d="M839.5 40h0.0"></path><path d="M913.5 40h0.0"></path><path d="M839.5 40h10"></path><g class="non-terminal ">
<path d="M849.5 40h0.0"></path><path d="M903.5 40h0.0"></path><rect height="22" width="54.0" x="849.5" y="29"></rect><text x="876.5" y="44">path</text></g><path d="M903.5 40h10"></path><path d="M849.5 40a10 10 0 0 0 -10 10v0a10 10 0 0 0 10 10"></path><g>
<path d="M849.5 60h54.0"></path></g><path d="M903.5 60a10 10 0 0 0 10 -10v0a10 10 0 0 0 -10 -10"></path></g><path d="M913.5 40h20"></path></g></g><path d="M933.5 40h10"></path><path d="M 943.5 40 h 20 m -10 -10 v 20 m 10 -20 v 20"></path></g></svg>