<svg class="railroad-diagram" height="71" viewBox="0 0 940.5 71" width="940.5" xmlns="http://www.w3.org/2000/svg" xmlns:xlink="http://www.w3.org/1999/xlink">
<defs>
<style type="text/css"><![CDATA[
svg.railroad-diagram { background-color: transparent; }
.terminal rect { fill: #DC382D !important; stroke: #DC382D !important; }
.terminal text { fill: white !important; font-weight: bold; }
.nonterminal rect { fill: none !important; stroke: #DC382D !important; stroke-width: 2; }
.nonterminal text { fill: #DC382D !important; font-weight: bold; }
path { stroke: #DC382D !important; stroke-width: 2; fill: none; }
circle { fill: #DC382D !important; stroke: #DC382D !important; }
]]></style>
</defs>
<g transform="translate(.5 .5)">
<style>/* <![CDATA[ */
	svg.railroad-diagram {
		background-color: transparent;
	}
	svg.railroad-diagram path {
		stroke-width:3;
		stroke: #DC382D;
		fill:rgba(0,0,0,0);
	}
	svg.railroad-diagram text {
		font:bold 14px monospace;
		text-anchor:middle;
	}
	svg.railroad-diagram text.label{
		text-anchor:start;
	}
	svg.railroad-diagram text.comment{
		font:italic 12px monospace;
	}
	svg.railroad-diagram rect{
		stroke-width:3;
		stroke: #DC382D;
		fill: none;
	}
	svg.railroad-diagram rect.group-box {
		stroke: #DC382D;
		stroke-dasharray: 10 5;
		fill: none;
	}

/* ]]> */
</style><g>
<path d="M20 30v20m10 -20v20m-10 -10h20"></path></g><path d="M40 40h10"></path><g>
<path d="M50 40h0.0"></path><path d="M890.5 40h0.0"></path><g class="terminal ">
<path d="M50.0 40h0.0"></path><path d="M95.5 40h0.0"></path><rect height="22" rx="10" ry="10" width="45.5" x="50.0" y="29"></rect><text x="72.75" y="44">LCS</text></g><path d="M95.5 40h10"></path><path d="M105.5 40h10"></path><g class="non-terminal ">
<path d="M115.5 40h0.0"></path><path d="M169.5 40h0.0"></path><rect height="22" width="54.0" x="115.5" y="29"></rect><text x="142.5" y="44">key1</text></g><path d="M169.5 40h10"></path><path d="M179.5 40h10"></path><g class="non-terminal ">
<path d="M189.5 40h0.0"></path><path d="M243.5 40h0.0"></path><rect height="22" width="54.0" x="189.5" y="29"></rect><text x="216.5" y="44">key2</text></g><path d="M243.5 40h10"></path><g>
<path d="M253.5 40h0.0"></path><path d="M339.0 40h0.0"></path><path d="M253.5 40a10 10 0 0 0 10 -10v0a10 10 0 0 1 10 -10"></path><g>
<path d="M273.5 20h45.5"></path></g><path d="M319.0 20a10 10 0 0 1 10 10v0a10 10 0 0 0 10 10"></path><path d="M253.5 40h20"></path><g class="terminal ">
<path d="M273.5 40h0.0"></path><path d="M319.0 40h0.0"></path><rect height="22" rx="10" ry="10" width="45.5" x="273.5" y="29"></rect><text x="296.25" y="44">LEN</text></g><path d="M319.0 40h20"></path></g><g>
<path d="M339.0 40h0.0"></path><path d="M424.5 40h0.0"></path><path d="M339.0 40a10 10 0 0 0 10 -10v0a10 10 0 0 1 10 -10"></path><g>
<path d="M359.0 20h45.5"></path></g><path d="M404.5 20a10 10 0 0 1 10 10v0a10 10 0 0 0 10 10"></path><path d="M339.0 40h20"></path><g class="terminal ">
<path d="M359.0 40h0.0"></path><path d="M404.5 40h0.0"></path><rect height="22" rx="10" ry="10" width="45.5" x="359.0" y="29"></rect><text x="381.75" y="44">IDX</text></g><path d="M404.5 40h20"></path></g><g>
<path d="M424.5 40h0.0"></path><path d="M728.5 40h0.0"></path><path d="M424.5 40a10 10 0 0 0 10 -10v0a10 10 0 0 1 10 -10"></path><g>
<path d="M444.5 20h264.0"></path></g><path d="M708.5 20a10 10 0 0 1 10 10v0a10 10 0 0 0 10 10"></path><path d="M424.5 40h20"></path><g>
<path d="M444.5 40h0.0"></path><path d="M708.5 40h0.0"></path><g class="terminal ">
<path d="M444.5 40h0.0"></path><path d="M558.0 40h0.0"></path><rect height="22" rx="10" ry="10" width="113.5" x="444.5" y="29"></rect><text x="501.25" y="44">MINMATCHLEN</text></g><path d="M558.0 40h10"></path><path d="M568.0 40h10"></path><g class="non-terminal ">
<path d="M578.0 40h0.0"></path><path d="M708.5 40h0.0"></path><rect height="22" width="130.5" x="578.0" y="29"></rect><text x="643.25" y="44">min-match-len</text></g></g><path d="M708.5 40h20"></path></g><g>
<path d="M728.5 40h0.0"></path><path d="M890.5 40h0.0"></path><path d="M728.5 40a10 10 0 0 0 10 -10v0a10 10 0 0 1 10 -10"></path><g>
<path d="M748.5 20h122.0"></path></g><path d="M870.5 20a10 10 0 0 1 10 10v0a10 10 0 0 0 10 10"></path><path d="M728.5 40h20"></path><g class="terminal ">
<path d="M748.5 40h0.0"></path><path d="M870.5 40h0.0"></path><rect height="22" rx="10" ry="10" width="122.0" x="748.5" y="29"></rect><text x="809.5" y="44">WITHMATCHLEN</text></g><path d="M870.5 40h20"></path></g></g><path d="M890.5 40h10"></path><path d="M 900.5 40 h 20 m -10 -10 v 20 m 10 -20 v 20"></path></g></svg>