<svg class="railroad-diagram" height="101" viewBox="0 0 963.5 101" width="963.5" xmlns="http://www.w3.org/2000/svg" xmlns:xlink="http://www.w3.org/1999/xlink">
<defs>
<style type="text/css"><![CDATA[
svg.railroad-diagram { background-color: transparent; }
.terminal rect { fill: #DC382D !important; stroke: #DC382D !important; }
.terminal text { fill: white !important; font-weight: bold; }
.nonterminal rect { fill: none !important; stroke: #DC382D !important; stroke-width: 2; }
.nonterminal text { fill: #DC382D !important; font-weight: bold; }
path { stroke: #DC382D !important; stroke-width: 2; fill: none; }
circle { fill: #DC382D !important; stroke: #DC382D !important; }
]]></style>
</defs>
<g transform="translate(.5 .5)">
<style>/* <![CDATA[ */
	svg.railroad-diagram {
		background-color: transparent;
	}
	svg.railroad-diagram path {
		stroke-width:3;
		stroke: #DC382D;
		fill:rgba(0,0,0,0);
	}
	svg.railroad-diagram text {
		font:bold 14px monospace;
		text-anchor:middle;
	}
	svg.railroad-diagram text.label{
		text-anchor:start;
	}
	svg.railroad-diagram text.comment{
		font:italic 12px monospace;
	}
	svg.railroad-diagram rect{
		stroke-width:3;
		stroke: #DC382D;
		fill: none;
	}
	svg.railroad-diagram rect.group-box {
		stroke: #DC382D;
		stroke-dasharray: 10 5;
		fill: none;
	}

/* ]]> */
</style><g>
<path d="M20 30v20m10 -20v20m-10 -10h20"></path></g><path d="M40 40h10"></path><g>
<path d="M50 40h0.0"></path><path d="M913.5 40h0.0"></path><g class="terminal ">
<path d="M50.0 40h0.0"></path><path d="M121.0 40h0.0"></path><rect height="22" rx="10" ry="10" width="71.0" x="50.0" y="29"></rect><text x="85.5" y="44">LMOVEM</text></g><path d="M121.0 40h10"></path><path d="M131.0 40h10"></path><g class="non-terminal ">
<path d="M141.0 40h0.0"></path><path d="M212.0 40h0.0"></path><rect height="22" width="71.0" x="141.0" y="29"></rect><text x="176.5" y="44">source</text></g><path d="M212.0 40h10"></path><path d="M222.0 40h10"></path><g class="non-terminal ">
<path d="M232.0 40h0.0"></path><path d="M345.5 40h0.0"></path><rect height="22" width="113.5" x="232.0" y="29"></rect><text x="288.75" y="44">destination</text></g><path d="M345.5 40h10"></path><g>
<path d="M355.5 40h0.0"></path><path d="M458.0 40h0.0"></path><path d="M355.5 40h20"></path><g class="terminal ">
<path d="M375.5 40h4.25"></path><path d="M433.75 40h4.25"></path><rect height="22" rx="10" ry="10" width="54.0" x="379.75" y="29"></rect><text x="406.75" y="44">LEFT</text></g><path d="M438.0 40h20"></path><path d="M355.5 40a10 10 0 0 1 10 10v10a10 10 0 0 0 10 10"></path><g class="terminal ">
<path d="M375.5 70h0.0"></path><path d="M438.0 70h0.0"></path><rect height="22" rx="10" ry="10" width="62.5" x="375.5" y="59"></rect><text x="406.75" y="74">RIGHT</text></g><path d="M438.0 70a10 10 0 0 0 10 -10v-10a10 10 0 0 1 10 -10"></path></g><g>
<path d="M458.0 40h0.0"></path><path d="M560.5 40h0.0"></path><path d="M458.0 40h20"></path><g class="terminal ">
<path d="M478.0 40h4.25"></path><path d="M536.25 40h4.25"></path><rect height="22" rx="10" ry="10" width="54.0" x="482.25" y="29"></rect><text x="509.25" y="44">LEFT</text></g><path d="M540.5 40h20"></path><path d="M458.0 40a10 10 0 0 1 10 10v10a10 10 0 0 0 10 10"></path><g class="terminal ">
<path d="M478.0 70h0.0"></path><path d="M540.5 70h0.0"></path><rect height="22" rx="10" ry="10" width="62.5" x="478.0" y="59"></rect><text x="509.25" y="74">RIGHT</text></g><path d="M540.5 70a10 10 0 0 0 10 -10v-10a10 10 0 0 1 10 -10"></path></g><g>
<path d="M560.5 40h0.0"></path><path d="M913.5 40h0.0"></path><path d="M560.5 40a10 10 0 0 0 10 -10v0a10 10 0 0 1 10 -10"></path><g>
<path d="M580.5 20h313.0"></path></g><path d="M893.5 20a10 10 0 0 1 10 10v0a10 10 0 0 0 10 10"></path><path d="M560.5 40h20"></path><g>
<path d="M580.5 40h0.0"></path><path d="M893.5 40h0.0"></path><g>
<path d="M580.5 40h0.0"></path><path d="M799.5 40h0.0"></path><path d="M580.5 40h20"></path><g>
<path d="M600.5 40h17.0"></path><path d="M762.5 40h17.0"></path><g class="terminal ">
<path d="M617.5 40h0.0"></path><path d="M680.0 40h0.0"></path><rect height="22" rx="10" ry="10" width="62.5" x="617.5" y="29"></rect><text x="648.75" y="44">COUNT</text></g><path d="M680.0 40h10"></path><path d="M690.0 40h10"></path><g class="non-terminal ">
<path d="M700.0 40h0.0"></path><path d="M762.5 40h0.0"></path><rect height="22" width="62.5" x="700.0" y="29"></rect><text x="731.25" y="44">count</text></g></g><path d="M779.5 40h20"></path><path d="M580.5 40a10 10 0 0 1 10 10v10a10 10 0 0 0 10 10"></path><g>
<path d="M600.5 70h0.0"></path><path d="M779.5 70h0.0"></path><g class="terminal ">
<path d="M600.5 70h0.0"></path><path d="M680.0 70h0.0"></path><rect height="22" rx="10" ry="10" width="79.5" x="600.5" y="59"></rect><text x="640.25" y="74">EXACTLY</text></g><path d="M680.0 70h10"></path><path d="M690.0 70h10"></path><g class="non-terminal ">
<path d="M700.0 70h0.0"></path><path d="M779.5 70h0.0"></path><rect height="22" width="79.5" x="700.0" y="59"></rect><text x="739.75" y="74">exactly</text></g></g><path d="M779.5 70a10 10 0 0 0 10 -10v-10a10 10 0 0 1 10 -10"></path></g><g>
<path d="M799.5 40h0.0"></path><path d="M893.5 40h0.0"></path><path d="M799.5 40h20"></path><g class="terminal ">
<path d="M819.5 40h4.25"></path><path d="M869.25 40h4.25"></path><rect height="22" rx="10" ry="10" width="45.5" x="823.75" y="29"></rect><text x="846.5" y="44">OBO</text></g><path d="M873.5 40h20"></path><path d="M799.5 40a10 10 0 0 1 10 10v10a10 10 0 0 0 10 10"></path><g class="terminal ">
<path d="M819.5 70h0.0"></path><path d="M873.5 70h0.0"></path><rect height="22" rx="10" ry="10" width="54.0" x="819.5" y="59"></rect><text x="846.5" y="74">BULK</text></g><path d="M873.5 70a10 10 0 0 0 10 -10v-10a10 10 0 0 1 10 -10"></path></g></g><path d="M893.5 40h20"></path></g></g><path d="M913.5 40h10"></path><path d="M 923.5 40 h 20 m -10 -10 v 20 m 10 -20 v 20"></path></g></svg>