<svg class="railroad-diagram" height="92" viewBox="0 0 602.0 92" width="602.0" xmlns="http://www.w3.org/2000/svg" xmlns:xlink="http://www.w3.org/1999/xlink">
<defs>
<style type="text/css"><![CDATA[
svg.railroad-diagram { background-color: transparent; }
.terminal rect { fill: #DC382D !important; stroke: #DC382D !important; }
.terminal text { fill: white !important; font-weight: bold; }
.nonterminal rect { fill: none !important; stroke: #DC382D !important; stroke-width: 2; }
.nonterminal text { fill: #DC382D !important; font-weight: bold; }
path { stroke: #DC382D !important; stroke-width: 2; fill: none; }
circle { fill: #DC382D !important; stroke: #DC382D !important; }
]]></style>
</defs>
<g transform="translate(.5 .5)">
<style>/* <![CDATA[ */
	svg.railroad-diagram {
		background-color: transparent;
	}
	svg.railroad-diagram path {
		stroke-width:3;
		stroke: #DC382D;
		fill:rgba(0,0,0,0);
	}
	svg.railroad-diagram text {
		font:bold 14px monospace;
		text-anchor:middle;
	}
	svg.railroad-diagram text.label{
		text-anchor:start;
	}
	svg.railroad-diagram text.comment{
		font:italic 12px monospace;
	}
	svg.railroad-diagram rect{
		stroke-width:3;
		stroke: #DC382D;
		fill: none;
	}
	svg.railroad-diagram rect.group-box {
		stroke: #DC382D;
		stroke-dasharray: 10 5;
		fill: none;
	}

/* ]]> */
</style><g>
<path d="M20 21v20m10 -20v20m-10 -10h20"></path></g><path d="M40 31h10"></path><g>
<path d="M50 31h0.0"></path><path d="M552.0 31h0.0"></path><g class="terminal ">
<path d="M50.0 31h0.0"></path><path d="M112.5 31h0.0"></path><rect height="22" rx="10" ry="10" width="62.5" x="50.0" y="20"></rect><text x="81.25" y="35">LMOVE</text></g><path d="M112.5 31h10"></path><path d="M122.5 31h10"></path><g class="non-terminal ">
<path d="M132.5 31h0.0"></path><path d="M203.5 31h0.0"></path><rect height="22" width="71.0" x="132.5" y="20"></rect><text x="168.0" y="35">source</text></g><path d="M203.5 31h10"></path><path d="M213.5 31h10"></path><g class="non-terminal ">
<path d="M223.5 31h0.0"></path><path d="M337.0 31h0.0"></path><rect height="22" width="113.5" x="223.5" y="20"></rect><text x="280.25" y="35">destination</text></g><path d="M337.0 31h10"></path><g>
<path d="M347.0 31h0.0"></path><path d="M449.5 31h0.0"></path><path d="M347.0 31h20"></path><g class="terminal ">
<path d="M367.0 31h4.25"></path><path d="M425.25 31h4.25"></path><rect height="22" rx="10" ry="10" width="54.0" x="371.25" y="20"></rect><text x="398.25" y="35">LEFT</text></g><path d="M429.5 31h20"></path><path d="M347.0 31a10 10 0 0 1 10 10v10a10 10 0 0 0 10 10"></path><g class="terminal ">
<path d="M367.0 61h0.0"></path><path d="M429.5 61h0.0"></path><rect height="22" rx="10" ry="10" width="62.5" x="367.0" y="50"></rect><text x="398.25" y="65">RIGHT</text></g><path d="M429.5 61a10 10 0 0 0 10 -10v-10a10 10 0 0 1 10 -10"></path></g><g>
<path d="M449.5 31h0.0"></path><path d="M552.0 31h0.0"></path><path d="M449.5 31h20"></path><g class="terminal ">
<path d="M469.5 31h4.25"></path><path d="M527.75 31h4.25"></path><rect height="22" rx="10" ry="10" width="54.0" x="473.75" y="20"></rect><text x="500.75" y="35">LEFT</text></g><path d="M532.0 31h20"></path><path d="M449.5 31a10 10 0 0 1 10 10v10a10 10 0 0 0 10 10"></path><g class="terminal ">
<path d="M469.5 61h0.0"></path><path d="M532.0 61h0.0"></path><rect height="22" rx="10" ry="10" width="62.5" x="469.5" y="50"></rect><text x="500.75" y="65">RIGHT</text></g><path d="M532.0 61a10 10 0 0 0 10 -10v-10a10 10 0 0 1 10 -10"></path></g></g><path d="M552.0 31h10"></path><path d="M 562.0 31 h 20 m -10 -10 v 20 m 10 -20 v 20"></path></g></svg>