<svg class="railroad-diagram" height="71" viewBox="0 0 909.5 71" width="909.5" xmlns="http://www.w3.org/2000/svg" xmlns:xlink="http://www.w3.org/1999/xlink">
<defs>
<style type="text/css"><![CDATA[
svg.railroad-diagram { background-color: transparent; }
.terminal rect { fill: #DC382D !important; stroke: #DC382D !important; }
.terminal text { fill: white !important; font-weight: bold; }
.nonterminal rect { fill: none !important; stroke: #DC382D !important; stroke-width: 2; }
.nonterminal text { fill: #DC382D !important; font-weight: bold; }
path { stroke: #DC382D !important; stroke-width: 2; fill: none; }
circle { fill: #DC382D !important; stroke: #DC382D !important; }
]]></style>
</defs>
<g transform="translate(.5 .5)">
<style>/* <![CDATA[ */
	svg.railroad-diagram {
		background-color: transparent;
	}
	svg.railroad-diagram path {
		stroke-width:3;
		stroke: #DC382D;
		fill:rgba(0,0,0,0);
	}
	svg.railroad-diagram text {
		font:bold 14px monospace;
		text-anchor:middle;
	}
	svg.railroad-diagram text.label{
		text-anchor:start;
	}
	svg.railroad-diagram text.comment{
		font:italic 12px monospace;
	}
	svg.railroad-diagram rect{
		stroke-width:3;
		stroke: #DC382D;
		fill: none;
	}
	svg.railroad-diagram rect.group-box {
		stroke: #DC382D;
		stroke-dasharray: 10 5;
		fill: none;
	}

/* ]]> */
</style><g>
<path d="M20 30v20m10 -20v20m-10 -10h20"></path></g><path d="M40 40h10"></path><g>
<path d="M50 40h0.0"></path><path d="M859.5 40h0.0"></path><g class="terminal ">
<path d="M50.0 40h0.0"></path><path d="M104.0 40h0.0"></path><rect height="22" rx="10" ry="10" width="54.0" x="50.0" y="29"></rect><text x="77.0" y="44">LPOS</text></g><path d="M104.0 40h10"></path><path d="M114.0 40h10"></path><g class="non-terminal ">
<path d="M124.0 40h0.0"></path><path d="M169.5 40h0.0"></path><rect height="22" width="45.5" x="124.0" y="29"></rect><text x="146.75" y="44">key</text></g><path d="M169.5 40h10"></path><path d="M179.5 40h10"></path><g class="non-terminal ">
<path d="M189.5 40h0.0"></path><path d="M269.0 40h0.0"></path><rect height="22" width="79.5" x="189.5" y="29"></rect><text x="229.25" y="44">element</text></g><path d="M269.0 40h10"></path><g>
<path d="M279.0 40h0.0"></path><path d="M447.0 40h0.0"></path><path d="M279.0 40a10 10 0 0 0 10 -10v0a10 10 0 0 1 10 -10"></path><g>
<path d="M299.0 20h128.0"></path></g><path d="M427.0 20a10 10 0 0 1 10 10v0a10 10 0 0 0 10 10"></path><path d="M279.0 40h20"></path><g>
<path d="M299.0 40h0.0"></path><path d="M427.0 40h0.0"></path><g class="terminal ">
<path d="M299.0 40h0.0"></path><path d="M353.0 40h0.0"></path><rect height="22" rx="10" ry="10" width="54.0" x="299.0" y="29"></rect><text x="326.0" y="44">RANK</text></g><path d="M353.0 40h10"></path><path d="M363.0 40h10"></path><g class="non-terminal ">
<path d="M373.0 40h0.0"></path><path d="M427.0 40h0.0"></path><rect height="22" width="54.0" x="373.0" y="29"></rect><text x="400.0" y="44">rank</text></g></g><path d="M427.0 40h20"></path></g><g>
<path d="M447.0 40h0.0"></path><path d="M683.0 40h0.0"></path><path d="M447.0 40a10 10 0 0 0 10 -10v0a10 10 0 0 1 10 -10"></path><g>
<path d="M467.0 20h196.0"></path></g><path d="M663.0 20a10 10 0 0 1 10 10v0a10 10 0 0 0 10 10"></path><path d="M447.0 40h20"></path><g>
<path d="M467.0 40h0.0"></path><path d="M663.0 40h0.0"></path><g class="terminal ">
<path d="M467.0 40h0.0"></path><path d="M529.5 40h0.0"></path><rect height="22" rx="10" ry="10" width="62.5" x="467.0" y="29"></rect><text x="498.25" y="44">COUNT</text></g><path d="M529.5 40h10"></path><path d="M539.5 40h10"></path><g class="non-terminal ">
<path d="M549.5 40h0.0"></path><path d="M663.0 40h0.0"></path><rect height="22" width="113.5" x="549.5" y="29"></rect><text x="606.25" y="44">num-matches</text></g></g><path d="M663.0 40h20"></path></g><g>
<path d="M683.0 40h0.0"></path><path d="M859.5 40h0.0"></path><path d="M683.0 40a10 10 0 0 0 10 -10v0a10 10 0 0 1 10 -10"></path><g>
<path d="M703.0 20h136.5"></path></g><path d="M839.5 20a10 10 0 0 1 10 10v0a10 10 0 0 0 10 10"></path><path d="M683.0 40h20"></path><g>
<path d="M703.0 40h0.0"></path><path d="M839.5 40h0.0"></path><g class="terminal ">
<path d="M703.0 40h0.0"></path><path d="M774.0 40h0.0"></path><rect height="22" rx="10" ry="10" width="71.0" x="703.0" y="29"></rect><text x="738.5" y="44">MAXLEN</text></g><path d="M774.0 40h10"></path><path d="M784.0 40h10"></path><g class="non-terminal ">
<path d="M794.0 40h0.0"></path><path d="M839.5 40h0.0"></path><rect height="22" width="45.5" x="794.0" y="29"></rect><text x="816.75" y="44">len</text></g></g><path d="M839.5 40h20"></path></g></g><path d="M859.5 40h10"></path><path d="M 869.5 40 h 20 m -10 -10 v 20 m 10 -20 v 20"></path></g></svg>