<svg class="railroad-diagram" height="88" viewBox="0 0 976.5 88" width="976.5" xmlns="http://www.w3.org/2000/svg" xmlns:xlink="http://www.w3.org/1999/xlink">
<defs>
<style type="text/css"><![CDATA[
svg.railroad-diagram { background-color: transparent; }
.terminal rect { fill: #DC382D !important; stroke: #DC382D !important; }
.terminal text { fill: white !important; font-weight: bold; }
.nonterminal rect { fill: none !important; stroke: #DC382D !important; stroke-width: 2; }
.nonterminal text { fill: #DC382D !important; font-weight: bold; }
path { stroke: #DC382D !important; stroke-width: 2; fill: none; }
circle { fill: #DC382D !important; stroke: #DC382D !important; }
]]></style>
</defs>
<g transform="translate(.5 .5)">
<style>/* <![CDATA[ */
	svg.railroad-diagram {
		background-color: transparent;
	}
	svg.railroad-diagram path {
		stroke-width:3;
		stroke: #DC382D;
		fill:rgba(0,0,0,0);
	}
	svg.railroad-diagram text {
		font:bold 14px monospace;
		text-anchor:middle;
	}
	svg.railroad-diagram text.label{
		text-anchor:start;
	}
	svg.railroad-diagram text.comment{
		font:italic 12px monospace;
	}
	svg.railroad-diagram rect{
		stroke-width:3;
		stroke: #DC382D;
		fill: none;
	}
	svg.railroad-diagram rect.group-box {
		stroke: #DC382D;
		stroke-dasharray: 10 5;
		fill: none;
	}

/* ]]> */
</style><g>
<path d="M20 38v20m10 -20v20m-10 -10h20"></path></g><path d="M40 48h10"></path><g>
<path d="M50 48h0.0"></path><path d="M926.5 48h0.0"></path><g class="terminal ">
<path d="M50.0 48h0.0"></path><path d="M180.5 48h0.0"></path><rect height="22" rx="10" ry="10" width="130.5" x="50.0" y="37"></rect><text x="115.25" y="52">MODULE LOADEX</text></g><path d="M180.5 48h10"></path><path d="M190.5 48h10"></path><g class="non-terminal ">
<path d="M200.5 48h0.0"></path><path d="M254.5 48h0.0"></path><rect height="22" width="54.0" x="200.5" y="37"></rect><text x="227.5" y="52">path</text></g><path d="M254.5 48h10"></path><g>
<path d="M264.5 48h0.0"></path><path d="M738.5 48h0.0"></path><path d="M264.5 48a10 10 0 0 0 10 -10v-8a10 10 0 0 1 10 -10"></path><g>
<path d="M284.5 20h434.0"></path></g><path d="M718.5 20a10 10 0 0 1 10 10v8a10 10 0 0 0 10 10"></path><path d="M264.5 48h20"></path><g>
<path d="M284.5 48h0.0"></path><path d="M718.5 48h0.0"></path><g>
<path d="M284.5 48h0.0"></path><path d="M421.0 48h0.0"></path><g class="non-terminal ">
<path d="M284.5 48h0.0"></path><path d="M338.5 48h0.0"></path><rect height="22" width="54.0" x="284.5" y="37"></rect><text x="311.5" y="52">name</text><path d="M552.0 48h0.0"></path><path d="M606.0 48h0.0"></path><rect height="22" width="54.0" x="552.0" y="37"></rect><text x="579.0" y="52">name</text></g><path d="M338.5 48h10"></path><path d="M348.5 48h10"></path><g class="non-terminal ">
<path d="M358.5 48h0.0"></path><path d="M421.0 48h0.0"></path><rect height="22" width="62.5" x="358.5" y="37"></rect><text x="389.75" y="52">value</text><path d="M626.0 48h0.0"></path><path d="M688.5 48h0.0"></path><rect height="22" width="62.5" x="626.0" y="37"></rect><text x="657.25" y="52">value</text></g><path d="M552.0 48h0.0"></path><path d="M688.5 48h0.0"></path><g class="non-terminal ">
<path d="M284.5 48h0.0"></path><path d="M338.5 48h0.0"></path><rect height="22" width="54.0" x="284.5" y="37"></rect><text x="311.5" y="52">name</text><path d="M552.0 48h0.0"></path><path d="M606.0 48h0.0"></path><rect height="22" width="54.0" x="552.0" y="37"></rect><text x="579.0" y="52">name</text></g><path d="M606.0 48h10"></path><path d="M616.0 48h10"></path><g class="non-terminal ">
<path d="M358.5 48h0.0"></path><path d="M421.0 48h0.0"></path><rect height="22" width="62.5" x="358.5" y="37"></rect><text x="389.75" y="52">value</text><path d="M626.0 48h0.0"></path><path d="M688.5 48h0.0"></path><rect height="22" width="62.5" x="626.0" y="37"></rect><text x="657.25" y="52">value</text></g></g><path d="M421.0 48h10"></path><g>
<path d="M431.0 48h0.0"></path><path d="M718.5 48h0.0"></path><path d="M431.0 48a10 10 0 0 0 10 -10v0a10 10 0 0 1 10 -10"></path><g>
<path d="M451.0 28h247.5"></path></g><path d="M698.5 28a10 10 0 0 1 10 10v0a10 10 0 0 0 10 10"></path><path d="M431.0 48h20"></path><g>
<path d="M451.0 48h0.0"></path><path d="M698.5 48h0.0"></path><path d="M451.0 48h10"></path><g>
<path d="M461.0 48h0.0"></path><path d="M688.5 48h0.0"></path><g class="terminal ">
<path d="M461.0 48h0.0"></path><path d="M532.0 48h0.0"></path><rect height="22" rx="10" ry="10" width="71.0" x="461.0" y="37"></rect><text x="496.5" y="52">CONFIG</text></g><path d="M532.0 48h10"></path><path d="M542.0 48h10"></path><g>
<path d="M284.5 48h0.0"></path><path d="M421.0 48h0.0"></path><g class="non-terminal ">
<path d="M284.5 48h0.0"></path><path d="M338.5 48h0.0"></path><rect height="22" width="54.0" x="284.5" y="37"></rect><text x="311.5" y="52">name</text><path d="M552.0 48h0.0"></path><path d="M606.0 48h0.0"></path><rect height="22" width="54.0" x="552.0" y="37"></rect><text x="579.0" y="52">name</text></g><path d="M338.5 48h10"></path><path d="M348.5 48h10"></path><g class="non-terminal ">
<path d="M358.5 48h0.0"></path><path d="M421.0 48h0.0"></path><rect height="22" width="62.5" x="358.5" y="37"></rect><text x="389.75" y="52">value</text><path d="M626.0 48h0.0"></path><path d="M688.5 48h0.0"></path><rect height="22" width="62.5" x="626.0" y="37"></rect><text x="657.25" y="52">value</text></g><path d="M552.0 48h0.0"></path><path d="M688.5 48h0.0"></path><g class="non-terminal ">
<path d="M284.5 48h0.0"></path><path d="M338.5 48h0.0"></path><rect height="22" width="54.0" x="284.5" y="37"></rect><text x="311.5" y="52">name</text><path d="M552.0 48h0.0"></path><path d="M606.0 48h0.0"></path><rect height="22" width="54.0" x="552.0" y="37"></rect><text x="579.0" y="52">name</text></g><path d="M606.0 48h10"></path><path d="M616.0 48h10"></path><g class="non-terminal ">
<path d="M358.5 48h0.0"></path><path d="M421.0 48h0.0"></path><rect height="22" width="62.5" x="358.5" y="37"></rect><text x="389.75" y="52">value</text><path d="M626.0 48h0.0"></path><path d="M688.5 48h0.0"></path><rect height="22" width="62.5" x="626.0" y="37"></rect><text x="657.25" y="52">value</text></g></g></g><path d="M688.5 48h10"></path><path d="M461.0 48a10 10 0 0 0 -10 10v0a10 10 0 0 0 10 10"></path><g>
<path d="M461.0 68h227.5"></path></g><path d="M688.5 68a10 10 0 0 0 10 -10v0a10 10 0 0 0 -10 -10"></path></g><path d="M698.5 48h20"></path></g></g><path d="M718.5 48h20"></path></g><g>
<path d="M738.5 48h0.0"></path><path d="M926.5 48h0.0"></path><path d="M738.5 48a10 10 0 0 0 10 -10v0a10 10 0 0 1 10 -10"></path><g>
<path d="M758.5 28h148.0"></path></g><path d="M906.5 28a10 10 0 0 1 10 10v0a10 10 0 0 0 10 10"></path><path d="M738.5 48h20"></path><g>
<path d="M758.5 48h0.0"></path><path d="M906.5 48h0.0"></path><path d="M758.5 48h10"></path><g>
<path d="M768.5 48h0.0"></path><path d="M896.5 48h0.0"></path><g class="terminal ">
<path d="M768.5 48h0.0"></path><path d="M822.5 48h0.0"></path><rect height="22" rx="10" ry="10" width="54.0" x="768.5" y="37"></rect><text x="795.5" y="52">ARGS</text></g><path d="M822.5 48h10"></path><path d="M832.5 48h10"></path><g class="non-terminal ">
<path d="M842.5 48h0.0"></path><path d="M896.5 48h0.0"></path><rect height="22" width="54.0" x="842.5" y="37"></rect><text x="869.5" y="52">args</text></g></g><path d="M896.5 48h10"></path><path d="M768.5 48a10 10 0 0 0 -10 10v0a10 10 0 0 0 10 10"></path><g>
<path d="M768.5 68h128.0"></path></g><path d="M896.5 68a10 10 0 0 0 10 -10v0a10 10 0 0 0 -10 -10"></path></g><path d="M906.5 48h20"></path></g></g><path d="M926.5 48h10"></path><path d="M 936.5 48 h 20 m -10 -10 v 20 m 10 -20 v 20"></path></g></svg>