<svg class="railroad-diagram" height="191" viewBox="0 0 926.5 191" width="926.5" xmlns="http://www.w3.org/2000/svg" xmlns:xlink="http://www.w3.org/1999/xlink">
<defs>
<style type="text/css"><![CDATA[
svg.railroad-diagram { background-color: transparent; }
.terminal rect { fill: #DC382D !important; stroke: #DC382D !important; }
.terminal text { fill: white !important; font-weight: bold; }
.nonterminal rect { fill: none !important; stroke: #DC382D !important; stroke-width: 2; }
.nonterminal text { fill: #DC382D !important; font-weight: bold; }
path { stroke: #DC382D !important; stroke-width: 2; fill: none; }
circle { fill: #DC382D !important; stroke: #DC382D !important; }
]]></style>
</defs>
<g transform="translate(.5 .5)">
<style>/* <![CDATA[ */
	svg.railroad-diagram {
		background-color: transparent;
	}
	svg.railroad-diagram path {
		stroke-width:3;
		stroke: #DC382D;
		fill:rgba(0,0,0,0);
	}
	svg.railroad-diagram text {
		font:bold 14px monospace;
		text-anchor:middle;
	}
	svg.railroad-diagram text.label{
		text-anchor:start;
	}
	svg.railroad-diagram text.comment{
		font:italic 12px monospace;
	}
	svg.railroad-diagram rect{
		stroke-width:3;
		stroke: #DC382D;
		fill: none;
	}
	svg.railroad-diagram rect.group-box {
		stroke: #DC382D;
		stroke-dasharray: 10 5;
		fill: none;
	}

/* ]]> */
</style><g>
<path d="M20 30v20m10 -20v20m-10 -10h20"></path></g><path d="M40 40h10"></path><g>
<path d="M50 40h0.0"></path><path d="M876.5 40h0.0"></path><g class="terminal ">
<path d="M50.0 40h0.0"></path><path d="M121.0 40h0.0"></path><rect height="22" rx="10" ry="10" width="71.0" x="50.0" y="29"></rect><text x="85.5" y="44">MSETEX</text></g><path d="M121.0 40h10"></path><path d="M131.0 40h10"></path><g class="non-terminal ">
<path d="M141.0 40h0.0"></path><path d="M220.5 40h0.0"></path><rect height="22" width="79.5" x="141.0" y="29"></rect><text x="180.75" y="44">numkeys</text></g><path d="M220.5 40h10"></path><path d="M230.5 40h10"></path><g>
<path d="M240.5 40h0.0"></path><path d="M388.5 40h0.0"></path><path d="M240.5 40h10"></path><g>
<path d="M250.5 40h0.0"></path><path d="M378.5 40h0.0"></path><g class="non-terminal ">
<path d="M250.5 40h0.0"></path><path d="M296.0 40h0.0"></path><rect height="22" width="45.5" x="250.5" y="29"></rect><text x="273.25" y="44">key</text></g><path d="M296.0 40h10"></path><path d="M306.0 40h10"></path><g class="non-terminal ">
<path d="M316.0 40h0.0"></path><path d="M378.5 40h0.0"></path><rect height="22" width="62.5" x="316.0" y="29"></rect><text x="347.25" y="44">value</text></g></g><path d="M378.5 40h10"></path><path d="M250.5 40a10 10 0 0 0 -10 10v0a10 10 0 0 0 10 10"></path><g>
<path d="M250.5 60h128.0"></path></g><path d="M378.5 60a10 10 0 0 0 10 -10v0a10 10 0 0 0 -10 -10"></path></g><path d="M388.5 40h10"></path><g>
<path d="M398.5 40h0.0"></path><path d="M515.5 40h0.0"></path><path d="M398.5 40a10 10 0 0 0 10 -10v0a10 10 0 0 1 10 -10"></path><g>
<path d="M418.5 20h77.0"></path></g><path d="M495.5 20a10 10 0 0 1 10 10v0a10 10 0 0 0 10 10"></path><path d="M398.5 40h20"></path><g>
<path d="M418.5 40h0.0"></path><path d="M495.5 40h0.0"></path><path d="M418.5 40h20"></path><g class="terminal ">
<path d="M438.5 40h0.0"></path><path d="M475.5 40h0.0"></path><rect height="22" rx="10" ry="10" width="37.0" x="438.5" y="29"></rect><text x="457.0" y="44">NX</text></g><path d="M475.5 40h20"></path><path d="M418.5 40a10 10 0 0 1 10 10v10a10 10 0 0 0 10 10"></path><g class="terminal ">
<path d="M438.5 70h0.0"></path><path d="M475.5 70h0.0"></path><rect height="22" rx="10" ry="10" width="37.0" x="438.5" y="59"></rect><text x="457.0" y="74">XX</text></g><path d="M475.5 70a10 10 0 0 0 10 -10v-10a10 10 0 0 1 10 -10"></path></g><path d="M495.5 40h20"></path></g><g>
<path d="M515.5 40h0.0"></path><path d="M876.5 40h0.0"></path><path d="M515.5 40a10 10 0 0 0 10 -10v0a10 10 0 0 1 10 -10"></path><g>
<path d="M535.5 20h321.0"></path></g><path d="M856.5 20a10 10 0 0 1 10 10v0a10 10 0 0 0 10 10"></path><path d="M515.5 40h20"></path><g>
<path d="M535.5 40h0.0"></path><path d="M856.5 40h0.0"></path><path d="M535.5 40h20"></path><g>
<path d="M555.5 40h72.25"></path><path d="M764.25 40h72.25"></path><g class="terminal ">
<path d="M627.75 40h0.0"></path><path d="M664.75 40h0.0"></path><rect height="22" rx="10" ry="10" width="37.0" x="627.75" y="29"></rect><text x="646.25" y="44">EX</text></g><path d="M664.75 40h10"></path><path d="M674.75 40h10"></path><g class="non-terminal ">
<path d="M684.75 40h0.0"></path><path d="M764.25 40h0.0"></path><rect height="22" width="79.5" x="684.75" y="29"></rect><text x="724.5" y="44">seconds</text></g></g><path d="M836.5 40h20"></path><path d="M535.5 40a10 10 0 0 1 10 10v10a10 10 0 0 0 10 10"></path><g>
<path d="M555.5 70h51.0"></path><path d="M785.5 70h51.0"></path><g class="terminal ">
<path d="M606.5 70h0.0"></path><path d="M643.5 70h0.0"></path><rect height="22" rx="10" ry="10" width="37.0" x="606.5" y="59"></rect><text x="625.0" y="74">PX</text></g><path d="M643.5 70h10"></path><path d="M653.5 70h10"></path><g class="non-terminal ">
<path d="M663.5 70h0.0"></path><path d="M785.5 70h0.0"></path><rect height="22" width="122.0" x="663.5" y="59"></rect><text x="724.5" y="74">milliseconds</text></g></g><path d="M836.5 70a10 10 0 0 0 10 -10v-10a10 10 0 0 1 10 -10"></path><path d="M535.5 40a10 10 0 0 1 10 10v40a10 10 0 0 0 10 10"></path><g>
<path d="M555.5 100h21.25"></path><path d="M815.25 100h21.25"></path><g class="terminal ">
<path d="M576.75 100h0.0"></path><path d="M630.75 100h0.0"></path><rect height="22" rx="10" ry="10" width="54.0" x="576.75" y="89"></rect><text x="603.75" y="104">EXAT</text></g><path d="M630.75 100h10"></path><path d="M640.75 100h10"></path><g class="non-terminal ">
<path d="M650.75 100h0.0"></path><path d="M815.25 100h0.0"></path><rect height="22" width="164.5" x="650.75" y="89"></rect><text x="733.0" y="104">unix-time-seconds</text></g></g><path d="M836.5 100a10 10 0 0 0 10 -10v-40a10 10 0 0 1 10 -10"></path><path d="M535.5 40a10 10 0 0 1 10 10v70a10 10 0 0 0 10 10"></path><g>
<path d="M555.5 130h0.0"></path><path d="M836.5 130h0.0"></path><g class="terminal ">
<path d="M555.5 130h0.0"></path><path d="M609.5 130h0.0"></path><rect height="22" rx="10" ry="10" width="54.0" x="555.5" y="119"></rect><text x="582.5" y="134">PXAT</text></g><path d="M609.5 130h10"></path><path d="M619.5 130h10"></path><g class="non-terminal ">
<path d="M629.5 130h0.0"></path><path d="M836.5 130h0.0"></path><rect height="22" width="207.0" x="629.5" y="119"></rect><text x="733.0" y="134">unix-time-milliseconds</text></g></g><path d="M836.5 130a10 10 0 0 0 10 -10v-70a10 10 0 0 1 10 -10"></path><path d="M535.5 40a10 10 0 0 1 10 10v100a10 10 0 0 0 10 10"></path><g class="terminal ">
<path d="M555.5 160h100.75"></path><path d="M735.75 160h100.75"></path><rect height="22" rx="10" ry="10" width="79.5" x="656.25" y="149"></rect><text x="696.0" y="164">KEEPTTL</text></g><path d="M836.5 160a10 10 0 0 0 10 -10v-100a10 10 0 0 1 10 -10"></path></g><path d="M856.5 40h20"></path></g></g><path d="M876.5 40h10"></path><path d="M 886.5 40 h 20 m -10 -10 v 20 m 10 -20 v 20"></path></g></svg>