<svg class="railroad-diagram" height="80" viewBox="0 0 465.0 80" width="465.0" xmlns="http://www.w3.org/2000/svg" xmlns:xlink="http://www.w3.org/1999/xlink">
<defs>
<style type="text/css"><![CDATA[
svg.railroad-diagram { background-color: transparent; }
.terminal rect { fill: #DC382D !important; stroke: #DC382D !important; }
.terminal text { fill: white !important; font-weight: bold; }
.nonterminal rect { fill: none !important; stroke: #DC382D !important; stroke-width: 2; }
.nonterminal text { fill: #DC382D !important; font-weight: bold; }
path { stroke: #DC382D !important; stroke-width: 2; fill: none; }
circle { fill: #DC382D !important; stroke: #DC382D !important; }
]]></style>
</defs>
<g transform="translate(.5 .5)">
<style>/* <![CDATA[ */
	svg.railroad-diagram {
		background-color: transparent;
	}
	svg.railroad-diagram path {
		stroke-width:3;
		stroke: #DC382D;
		fill:rgba(0,0,0,0);
	}
	svg.railroad-diagram text {
		font:bold 14px monospace;
		text-anchor:middle;
	}
	svg.railroad-diagram text.label{
		text-anchor:start;
	}
	svg.railroad-diagram text.comment{
		font:italic 12px monospace;
	}
	svg.railroad-diagram rect{
		stroke-width:3;
		stroke: #DC382D;
		fill: none;
	}
	svg.railroad-diagram rect.group-box {
		stroke: #DC382D;
		stroke-dasharray: 10 5;
		fill: none;
	}

/* ]]> */
</style><g>
<path d="M20 30v20m10 -20v20m-10 -10h20"></path></g><path d="M40 40h10"></path><g>
<path d="M50 40h0.0"></path><path d="M415.0 40h0.0"></path><g class="terminal ">
<path d="M50.0 40h0.0"></path><path d="M223.0 40h0.0"></path><rect height="22" rx="10" ry="10" width="173.0" x="50.0" y="29"></rect><text x="136.5" y="44">PUBSUB SHARDNUMSUB</text></g><path d="M223.0 40h10"></path><g>
<path d="M233.0 40h0.0"></path><path d="M415.0 40h0.0"></path><path d="M233.0 40a10 10 0 0 0 10 -10v0a10 10 0 0 1 10 -10"></path><g>
<path d="M253.0 20h142.0"></path></g><path d="M395.0 20a10 10 0 0 1 10 10v0a10 10 0 0 0 10 10"></path><path d="M233.0 40h20"></path><g>
<path d="M253.0 40h0.0"></path><path d="M395.0 40h0.0"></path><path d="M253.0 40h10"></path><g class="non-terminal ">
<path d="M263.0 40h0.0"></path><path d="M385.0 40h0.0"></path><rect height="22" width="122.0" x="263.0" y="29"></rect><text x="324.0" y="44">shardchannel</text></g><path d="M385.0 40h10"></path><path d="M263.0 40a10 10 0 0 0 -10 10v0a10 10 0 0 0 10 10"></path><g>
<path d="M263.0 60h122.0"></path></g><path d="M385.0 60a10 10 0 0 0 10 -10v0a10 10 0 0 0 -10 -10"></path></g><path d="M395.0 40h20"></path></g></g><path d="M415.0 40h10"></path><path d="M 425.0 40 h 20 m -10 -10 v 20 m 10 -20 v 20"></path></g></svg>