<svg class="railroad-diagram" height="92" viewBox="0 0 374.5 92" width="374.5" xmlns="http://www.w3.org/2000/svg" xmlns:xlink="http://www.w3.org/1999/xlink">
<defs>
<style type="text/css"><![CDATA[
svg.railroad-diagram { background-color: transparent; }
.terminal rect { fill: #DC382D !important; stroke: #DC382D !important; }
.terminal text { fill: white !important; font-weight: bold; }
.nonterminal rect { fill: none !important; stroke: #DC382D !important; stroke-width: 2; }
.nonterminal text { fill: #DC382D !important; font-weight: bold; }
path { stroke: #DC382D !important; stroke-width: 2; fill: none; }
circle { fill: #DC382D !important; stroke: #DC382D !important; }
]]></style>
</defs>
<g transform="translate(.5 .5)">
<style>/* <![CDATA[ */
	svg.railroad-diagram {
		background-color: transparent;
	}
	svg.railroad-diagram path {
		stroke-width:3;
		stroke: #DC382D;
		fill:rgba(0,0,0,0);
	}
	svg.railroad-diagram text {
		font:bold 14px monospace;
		text-anchor:middle;
	}
	svg.railroad-diagram text.label{
		text-anchor:start;
	}
	svg.railroad-diagram text.comment{
		font:italic 12px monospace;
	}
	svg.railroad-diagram rect{
		stroke-width:3;
		stroke: #DC382D;
		fill: none;
	}
	svg.railroad-diagram rect.group-box {
		stroke: #DC382D;
		stroke-dasharray: 10 5;
		fill: none;
	}

/* ]]> */
</style><g>
<path d="M20 21v20m10 -20v20m-10 -10h20"></path></g><path d="M40 31h10"></path><g>
<path d="M50 31h0.0"></path><path d="M324.5 31h0.0"></path><g class="terminal ">
<path d="M50.0 31h0.0"></path><path d="M146.5 31h0.0"></path><rect height="22" rx="10" ry="10" width="96.5" x="50.0" y="20"></rect><text x="98.25" y="35">REPLICAOF</text></g><path d="M146.5 31h10"></path><g>
<path d="M156.5 31h0.0"></path><path d="M324.5 31h0.0"></path><path d="M156.5 31h20"></path><g>
<path d="M176.5 31h0.0"></path><path d="M304.5 31h0.0"></path><g class="non-terminal ">
<path d="M176.5 31h0.0"></path><path d="M230.5 31h0.0"></path><rect height="22" width="54.0" x="176.5" y="20"></rect><text x="203.5" y="35">host</text></g><path d="M230.5 31h10"></path><path d="M240.5 31h10"></path><g class="non-terminal ">
<path d="M250.5 31h0.0"></path><path d="M304.5 31h0.0"></path><rect height="22" width="54.0" x="250.5" y="20"></rect><text x="277.5" y="35">port</text></g></g><path d="M304.5 31h20"></path><path d="M156.5 31a10 10 0 0 1 10 10v10a10 10 0 0 0 10 10"></path><g>
<path d="M176.5 61h12.75"></path><path d="M291.75 61h12.75"></path><g class="terminal ">
<path d="M189.25 61h0.0"></path><path d="M226.25 61h0.0"></path><rect height="22" rx="10" ry="10" width="37.0" x="189.25" y="50"></rect><text x="207.75" y="65">NO</text></g><path d="M226.25 61h10"></path><path d="M236.25 61h10"></path><g class="terminal ">
<path d="M246.25 61h0.0"></path><path d="M291.75 61h0.0"></path><rect height="22" rx="10" ry="10" width="45.5" x="246.25" y="50"></rect><text x="269.0" y="65">ONE</text></g></g><path d="M304.5 61a10 10 0 0 0 10 -10v-10a10 10 0 0 1 10 -10"></path></g></g><path d="M324.5 31h10"></path><path d="M 334.5 31 h 20 m -10 -10 v 20 m 10 -20 v 20"></path></g></svg>