<svg class="railroad-diagram" height="71" viewBox="0 0 1165.0 71" width="1165.0" xmlns="http://www.w3.org/2000/svg" xmlns:xlink="http://www.w3.org/1999/xlink">
<defs>
<style type="text/css"><![CDATA[
svg.railroad-diagram { background-color: transparent; }
.terminal rect { fill: #DC382D !important; stroke: #DC382D !important; }
.terminal text { fill: white !important; font-weight: bold; }
.nonterminal rect { fill: none !important; stroke: #DC382D !important; stroke-width: 2; }
.nonterminal text { fill: #DC382D !important; font-weight: bold; }
path { stroke: #DC382D !important; stroke-width: 2; fill: none; }
circle { fill: #DC382D !important; stroke: #DC382D !important; }
]]></style>
</defs>
<g transform="translate(.5 .5)">
<style>/* <![CDATA[ */
	svg.railroad-diagram {
		background-color: transparent;
	}
	svg.railroad-diagram path {
		stroke-width:3;
		stroke: #DC382D;
		fill:rgba(0,0,0,0);
	}
	svg.railroad-diagram text {
		font:bold 14px monospace;
		text-anchor:middle;
	}
	svg.railroad-diagram text.label{
		text-anchor:start;
	}
	svg.railroad-diagram text.comment{
		font:italic 12px monospace;
	}
	svg.railroad-diagram rect{
		stroke-width:3;
		stroke: #DC382D;
		fill: none;
	}
	svg.railroad-diagram rect.group-box {
		stroke: #DC382D;
		stroke-dasharray: 10 5;
		fill: none;
	}

/* ]]> */
</style><g>
<path d="M20 30v20m10 -20v20m-10 -10h20"></path></g><path d="M40 40h10"></path><g>
<path d="M50 40h0.0"></path><path d="M1115.0 40h0.0"></path><g class="terminal ">
<path d="M50.0 40h0.0"></path><path d="M129.5 40h0.0"></path><rect height="22" rx="10" ry="10" width="79.5" x="50.0" y="29"></rect><text x="89.75" y="44">RESTORE</text></g><path d="M129.5 40h10"></path><path d="M139.5 40h10"></path><g class="non-terminal ">
<path d="M149.5 40h0.0"></path><path d="M195.0 40h0.0"></path><rect height="22" width="45.5" x="149.5" y="29"></rect><text x="172.25" y="44">key</text></g><path d="M195.0 40h10"></path><path d="M205.0 40h10"></path><g class="non-terminal ">
<path d="M215.0 40h0.0"></path><path d="M260.5 40h0.0"></path><rect height="22" width="45.5" x="215.0" y="29"></rect><text x="237.75" y="44">ttl</text></g><path d="M260.5 40h10"></path><path d="M270.5 40h10"></path><g class="non-terminal ">
<path d="M280.5 40h0.0"></path><path d="M436.5 40h0.0"></path><rect height="22" width="156.0" x="280.5" y="29"></rect><text x="358.5" y="44">serialized-value</text></g><path d="M436.5 40h10"></path><g>
<path d="M446.5 40h0.0"></path><path d="M566.0 40h0.0"></path><path d="M446.5 40a10 10 0 0 0 10 -10v0a10 10 0 0 1 10 -10"></path><g>
<path d="M466.5 20h79.5"></path></g><path d="M546.0 20a10 10 0 0 1 10 10v0a10 10 0 0 0 10 10"></path><path d="M446.5 40h20"></path><g class="terminal ">
<path d="M466.5 40h0.0"></path><path d="M546.0 40h0.0"></path><rect height="22" rx="10" ry="10" width="79.5" x="466.5" y="29"></rect><text x="506.25" y="44">REPLACE</text></g><path d="M546.0 40h20"></path></g><g>
<path d="M566.0 40h0.0"></path><path d="M677.0 40h0.0"></path><path d="M566.0 40a10 10 0 0 0 10 -10v0a10 10 0 0 1 10 -10"></path><g>
<path d="M586.0 20h71.0"></path></g><path d="M657.0 20a10 10 0 0 1 10 10v0a10 10 0 0 0 10 10"></path><path d="M566.0 40h20"></path><g class="terminal ">
<path d="M586.0 40h0.0"></path><path d="M657.0 40h0.0"></path><rect height="22" rx="10" ry="10" width="71.0" x="586.0" y="29"></rect><text x="621.5" y="44">ABSTTL</text></g><path d="M657.0 40h20"></path></g><g>
<path d="M677.0 40h0.0"></path><path d="M904.5 40h0.0"></path><path d="M677.0 40a10 10 0 0 0 10 -10v0a10 10 0 0 1 10 -10"></path><g>
<path d="M697.0 20h187.5"></path></g><path d="M884.5 20a10 10 0 0 1 10 10v0a10 10 0 0 0 10 10"></path><path d="M677.0 40h20"></path><g>
<path d="M697.0 40h0.0"></path><path d="M884.5 40h0.0"></path><g class="terminal ">
<path d="M697.0 40h0.0"></path><path d="M785.0 40h0.0"></path><rect height="22" rx="10" ry="10" width="88.0" x="697.0" y="29"></rect><text x="741.0" y="44">IDLETIME</text></g><path d="M785.0 40h10"></path><path d="M795.0 40h10"></path><g class="non-terminal ">
<path d="M805.0 40h0.0"></path><path d="M884.5 40h0.0"></path><rect height="22" width="79.5" x="805.0" y="29"></rect><text x="844.75" y="44">seconds</text></g></g><path d="M884.5 40h20"></path></g><g>
<path d="M904.5 40h0.0"></path><path d="M1115.0 40h0.0"></path><path d="M904.5 40a10 10 0 0 0 10 -10v0a10 10 0 0 1 10 -10"></path><g>
<path d="M924.5 20h170.5"></path></g><path d="M1095.0 20a10 10 0 0 1 10 10v0a10 10 0 0 0 10 10"></path><path d="M904.5 40h20"></path><g>
<path d="M924.5 40h0.0"></path><path d="M1095.0 40h0.0"></path><g class="terminal ">
<path d="M924.5 40h0.0"></path><path d="M978.5 40h0.0"></path><rect height="22" rx="10" ry="10" width="54.0" x="924.5" y="29"></rect><text x="951.5" y="44">FREQ</text></g><path d="M978.5 40h10"></path><path d="M988.5 40h10"></path><g class="non-terminal ">
<path d="M998.5 40h0.0"></path><path d="M1095.0 40h0.0"></path><rect height="22" width="96.5" x="998.5" y="29"></rect><text x="1046.75" y="44">frequency</text></g></g><path d="M1095.0 40h20"></path></g></g><path d="M1115.0 40h10"></path><path d="M 1125.0 40 h 20 m -10 -10 v 20 m 10 -20 v 20"></path></g></svg>