<svg class="railroad-diagram" height="71" viewBox="0 0 1224.5 71" width="1224.5" xmlns="http://www.w3.org/2000/svg" xmlns:xlink="http://www.w3.org/1999/xlink">
<defs>
<style type="text/css"><![CDATA[
svg.railroad-diagram { background-color: transparent; }
.terminal rect { fill: #DC382D !important; stroke: #DC382D !important; }
.terminal text { fill: white !important; font-weight: bold; }
.nonterminal rect { fill: none !important; stroke: #DC382D !important; stroke-width: 2; }
.nonterminal text { fill: #DC382D !important; font-weight: bold; }
path { stroke: #DC382D !important; stroke-width: 2; fill: none; }
circle { fill: #DC382D !important; stroke: #DC382D !important; }
]]></style>
</defs>
<g transform="translate(.5 .5)">
<style>/* <![CDATA[ */
	svg.railroad-diagram {
		background-color: transparent;
	}
	svg.railroad-diagram path {
		stroke-width:3;
		stroke: #DC382D;
		fill:rgba(0,0,0,0);
	}
	svg.railroad-diagram text {
		font:bold 14px monospace;
		text-anchor:middle;
	}
	svg.railroad-diagram text.label{
		text-anchor:start;
	}
	svg.railroad-diagram text.comment{
		font:italic 12px monospace;
	}
	svg.railroad-diagram rect{
		stroke-width:3;
		stroke: #DC382D;
		fill: none;
	}
	svg.railroad-diagram rect.group-box {
		stroke: #DC382D;
		stroke-dasharray: 10 5;
		fill: none;
	}

/* ]]> */
</style><g>
<path d="M20 30v20m10 -20v20m-10 -10h20"></path></g><path d="M40 40h10"></path><g>
<path d="M50 40h0.0"></path><path d="M1174.5 40h0.0"></path><g class="terminal ">
<path d="M50.0 40h0.0"></path><path d="M189.0 40h0.0"></path><rect height="22" rx="10" ry="10" width="139.0" x="50.0" y="29"></rect><text x="119.5" y="44">RESTORE-ASKING</text></g><path d="M189.0 40h10"></path><path d="M199.0 40h10"></path><g class="non-terminal ">
<path d="M209.0 40h0.0"></path><path d="M254.5 40h0.0"></path><rect height="22" width="45.5" x="209.0" y="29"></rect><text x="231.75" y="44">key</text></g><path d="M254.5 40h10"></path><path d="M264.5 40h10"></path><g class="non-terminal ">
<path d="M274.5 40h0.0"></path><path d="M320.0 40h0.0"></path><rect height="22" width="45.5" x="274.5" y="29"></rect><text x="297.25" y="44">ttl</text></g><path d="M320.0 40h10"></path><path d="M330.0 40h10"></path><g class="non-terminal ">
<path d="M340.0 40h0.0"></path><path d="M496.0 40h0.0"></path><rect height="22" width="156.0" x="340.0" y="29"></rect><text x="418.0" y="44">serialized-value</text></g><path d="M496.0 40h10"></path><g>
<path d="M506.0 40h0.0"></path><path d="M625.5 40h0.0"></path><path d="M506.0 40a10 10 0 0 0 10 -10v0a10 10 0 0 1 10 -10"></path><g>
<path d="M526.0 20h79.5"></path></g><path d="M605.5 20a10 10 0 0 1 10 10v0a10 10 0 0 0 10 10"></path><path d="M506.0 40h20"></path><g class="terminal ">
<path d="M526.0 40h0.0"></path><path d="M605.5 40h0.0"></path><rect height="22" rx="10" ry="10" width="79.5" x="526.0" y="29"></rect><text x="565.75" y="44">REPLACE</text></g><path d="M605.5 40h20"></path></g><g>
<path d="M625.5 40h0.0"></path><path d="M736.5 40h0.0"></path><path d="M625.5 40a10 10 0 0 0 10 -10v0a10 10 0 0 1 10 -10"></path><g>
<path d="M645.5 20h71.0"></path></g><path d="M716.5 20a10 10 0 0 1 10 10v0a10 10 0 0 0 10 10"></path><path d="M625.5 40h20"></path><g class="terminal ">
<path d="M645.5 40h0.0"></path><path d="M716.5 40h0.0"></path><rect height="22" rx="10" ry="10" width="71.0" x="645.5" y="29"></rect><text x="681.0" y="44">ABSTTL</text></g><path d="M716.5 40h20"></path></g><g>
<path d="M736.5 40h0.0"></path><path d="M964.0 40h0.0"></path><path d="M736.5 40a10 10 0 0 0 10 -10v0a10 10 0 0 1 10 -10"></path><g>
<path d="M756.5 20h187.5"></path></g><path d="M944.0 20a10 10 0 0 1 10 10v0a10 10 0 0 0 10 10"></path><path d="M736.5 40h20"></path><g>
<path d="M756.5 40h0.0"></path><path d="M944.0 40h0.0"></path><g class="terminal ">
<path d="M756.5 40h0.0"></path><path d="M844.5 40h0.0"></path><rect height="22" rx="10" ry="10" width="88.0" x="756.5" y="29"></rect><text x="800.5" y="44">IDLETIME</text></g><path d="M844.5 40h10"></path><path d="M854.5 40h10"></path><g class="non-terminal ">
<path d="M864.5 40h0.0"></path><path d="M944.0 40h0.0"></path><rect height="22" width="79.5" x="864.5" y="29"></rect><text x="904.25" y="44">seconds</text></g></g><path d="M944.0 40h20"></path></g><g>
<path d="M964.0 40h0.0"></path><path d="M1174.5 40h0.0"></path><path d="M964.0 40a10 10 0 0 0 10 -10v0a10 10 0 0 1 10 -10"></path><g>
<path d="M984.0 20h170.5"></path></g><path d="M1154.5 20a10 10 0 0 1 10 10v0a10 10 0 0 0 10 10"></path><path d="M964.0 40h20"></path><g>
<path d="M984.0 40h0.0"></path><path d="M1154.5 40h0.0"></path><g class="terminal ">
<path d="M984.0 40h0.0"></path><path d="M1038.0 40h0.0"></path><rect height="22" rx="10" ry="10" width="54.0" x="984.0" y="29"></rect><text x="1011.0" y="44">FREQ</text></g><path d="M1038.0 40h10"></path><path d="M1048.0 40h10"></path><g class="non-terminal ">
<path d="M1058.0 40h0.0"></path><path d="M1154.5 40h0.0"></path><rect height="22" width="96.5" x="1058.0" y="29"></rect><text x="1106.25" y="44">frequency</text></g></g><path d="M1154.5 40h20"></path></g></g><path d="M1174.5 40h10"></path><path d="M 1184.5 40 h 20 m -10 -10 v 20 m 10 -20 v 20"></path></g></svg>