<svg class="railroad-diagram" height="71" viewBox="0 0 810.0 71" width="810.0" xmlns="http://www.w3.org/2000/svg" xmlns:xlink="http://www.w3.org/1999/xlink">
<defs>
<style type="text/css"><![CDATA[
svg.railroad-diagram { background-color: transparent; }
.terminal rect { fill: #DC382D !important; stroke: #DC382D !important; }
.terminal text { fill: white !important; font-weight: bold; }
.nonterminal rect { fill: none !important; stroke: #DC382D !important; stroke-width: 2; }
.nonterminal text { fill: #DC382D !important; font-weight: bold; }
path { stroke: #DC382D !important; stroke-width: 2; fill: none; }
circle { fill: #DC382D !important; stroke: #DC382D !important; }
]]></style>
</defs>
<g transform="translate(.5 .5)">
<style>/* <![CDATA[ */
	svg.railroad-diagram {
		background-color: transparent;
	}
	svg.railroad-diagram path {
		stroke-width:3;
		stroke: #DC382D;
		fill:rgba(0,0,0,0);
	}
	svg.railroad-diagram text {
		font:bold 14px monospace;
		text-anchor:middle;
	}
	svg.railroad-diagram text.label{
		text-anchor:start;
	}
	svg.railroad-diagram text.comment{
		font:italic 12px monospace;
	}
	svg.railroad-diagram rect{
		stroke-width:3;
		stroke: #DC382D;
		fill: none;
	}
	svg.railroad-diagram rect.group-box {
		stroke: #DC382D;
		stroke-dasharray: 10 5;
		fill: none;
	}

/* ]]> */
</style><g>
<path d="M20 30v20m10 -20v20m-10 -10h20"></path></g><path d="M40 40h10"></path><g>
<path d="M50 40h0.0"></path><path d="M760.0 40h0.0"></path><g class="terminal ">
<path d="M50.0 40h0.0"></path><path d="M104.0 40h0.0"></path><rect height="22" rx="10" ry="10" width="54.0" x="50.0" y="29"></rect><text x="77.0" y="44">SCAN</text></g><path d="M104.0 40h10"></path><path d="M114.0 40h10"></path><g class="non-terminal ">
<path d="M124.0 40h0.0"></path><path d="M195.0 40h0.0"></path><rect height="22" width="71.0" x="124.0" y="29"></rect><text x="159.5" y="44">cursor</text></g><path d="M195.0 40h10"></path><g>
<path d="M205.0 40h0.0"></path><path d="M407.0 40h0.0"></path><path d="M205.0 40a10 10 0 0 0 10 -10v0a10 10 0 0 1 10 -10"></path><g>
<path d="M225.0 20h162.0"></path></g><path d="M387.0 20a10 10 0 0 1 10 10v0a10 10 0 0 0 10 10"></path><path d="M205.0 40h20"></path><g>
<path d="M225.0 40h0.0"></path><path d="M387.0 40h0.0"></path><g class="terminal ">
<path d="M225.0 40h0.0"></path><path d="M287.5 40h0.0"></path><rect height="22" rx="10" ry="10" width="62.5" x="225.0" y="29"></rect><text x="256.25" y="44">MATCH</text></g><path d="M287.5 40h10"></path><path d="M297.5 40h10"></path><g class="non-terminal ">
<path d="M307.5 40h0.0"></path><path d="M387.0 40h0.0"></path><rect height="22" width="79.5" x="307.5" y="29"></rect><text x="347.25" y="44">pattern</text></g></g><path d="M387.0 40h20"></path></g><g>
<path d="M407.0 40h0.0"></path><path d="M592.0 40h0.0"></path><path d="M407.0 40a10 10 0 0 0 10 -10v0a10 10 0 0 1 10 -10"></path><g>
<path d="M427.0 20h145.0"></path></g><path d="M572.0 20a10 10 0 0 1 10 10v0a10 10 0 0 0 10 10"></path><path d="M407.0 40h20"></path><g>
<path d="M427.0 40h0.0"></path><path d="M572.0 40h0.0"></path><g class="terminal ">
<path d="M427.0 40h0.0"></path><path d="M489.5 40h0.0"></path><rect height="22" rx="10" ry="10" width="62.5" x="427.0" y="29"></rect><text x="458.25" y="44">COUNT</text></g><path d="M489.5 40h10"></path><path d="M499.5 40h10"></path><g class="non-terminal ">
<path d="M509.5 40h0.0"></path><path d="M572.0 40h0.0"></path><rect height="22" width="62.5" x="509.5" y="29"></rect><text x="540.75" y="44">count</text></g></g><path d="M572.0 40h20"></path></g><g>
<path d="M592.0 40h0.0"></path><path d="M760.0 40h0.0"></path><path d="M592.0 40a10 10 0 0 0 10 -10v0a10 10 0 0 1 10 -10"></path><g>
<path d="M612.0 20h128.0"></path></g><path d="M740.0 20a10 10 0 0 1 10 10v0a10 10 0 0 0 10 10"></path><path d="M592.0 40h20"></path><g>
<path d="M612.0 40h0.0"></path><path d="M740.0 40h0.0"></path><g class="terminal ">
<path d="M612.0 40h0.0"></path><path d="M666.0 40h0.0"></path><rect height="22" rx="10" ry="10" width="54.0" x="612.0" y="29"></rect><text x="639.0" y="44">TYPE</text></g><path d="M666.0 40h10"></path><path d="M676.0 40h10"></path><g class="non-terminal ">
<path d="M686.0 40h0.0"></path><path d="M740.0 40h0.0"></path><rect height="22" width="54.0" x="686.0" y="29"></rect><text x="713.0" y="44">type</text></g></g><path d="M740.0 40h20"></path></g></g><path d="M760.0 40h10"></path><path d="M 770.0 40 h 20 m -10 -10 v 20 m 10 -20 v 20"></path></g></svg>