<svg class="railroad-diagram" height="122" viewBox="0 0 326.0 122" width="326.0" xmlns="http://www.w3.org/2000/svg" xmlns:xlink="http://www.w3.org/1999/xlink">
<defs>
<style type="text/css"><![CDATA[
svg.railroad-diagram { background-color: transparent; }
.terminal rect { fill: #DC382D !important; stroke: #DC382D !important; }
.terminal text { fill: white !important; font-weight: bold; }
.nonterminal rect { fill: none !important; stroke: #DC382D !important; stroke-width: 2; }
.nonterminal text { fill: #DC382D !important; font-weight: bold; }
path { stroke: #DC382D !important; stroke-width: 2; fill: none; }
circle { fill: #DC382D !important; stroke: #DC382D !important; }
]]></style>
</defs>
<g transform="translate(.5 .5)">
<style>/* <![CDATA[ */
	svg.railroad-diagram {
		background-color: transparent;
	}
	svg.railroad-diagram path {
		stroke-width:3;
		stroke: #DC382D;
		fill:rgba(0,0,0,0);
	}
	svg.railroad-diagram text {
		font:bold 14px monospace;
		text-anchor:middle;
	}
	svg.railroad-diagram text.label{
		text-anchor:start;
	}
	svg.railroad-diagram text.comment{
		font:italic 12px monospace;
	}
	svg.railroad-diagram rect{
		stroke-width:3;
		stroke: #DC382D;
		fill: none;
	}
	svg.railroad-diagram rect.group-box {
		stroke: #DC382D;
		stroke-dasharray: 10 5;
		fill: none;
	}

/* ]]> */
</style><g>
<path d="M20 21v20m10 -20v20m-10 -10h20"></path></g><path d="M40 31h10"></path><g>
<path d="M50 31h0.0"></path><path d="M276.0 31h0.0"></path><g class="terminal ">
<path d="M50.0 31h0.0"></path><path d="M172.0 31h0.0"></path><rect height="22" rx="10" ry="10" width="122.0" x="50.0" y="20"></rect><text x="111.0" y="35">SCRIPT DEBUG</text></g><path d="M172.0 31h10"></path><g>
<path d="M182.0 31h0.0"></path><path d="M276.0 31h0.0"></path><path d="M182.0 31h20"></path><g class="terminal ">
<path d="M202.0 31h4.25"></path><path d="M251.75 31h4.25"></path><rect height="22" rx="10" ry="10" width="45.5" x="206.25" y="20"></rect><text x="229.0" y="35">YES</text></g><path d="M256.0 31h20"></path><path d="M182.0 31a10 10 0 0 1 10 10v10a10 10 0 0 0 10 10"></path><g class="terminal ">
<path d="M202.0 61h0.0"></path><path d="M256.0 61h0.0"></path><rect height="22" rx="10" ry="10" width="54.0" x="202.0" y="50"></rect><text x="229.0" y="65">SYNC</text></g><path d="M256.0 61a10 10 0 0 0 10 -10v-10a10 10 0 0 1 10 -10"></path><path d="M182.0 31a10 10 0 0 1 10 10v40a10 10 0 0 0 10 10"></path><g class="terminal ">
<path d="M202.0 91h8.5"></path><path d="M247.5 91h8.5"></path><rect height="22" rx="10" ry="10" width="37.0" x="210.5" y="80"></rect><text x="229.0" y="95">NO</text></g><path d="M256.0 91a10 10 0 0 0 10 -10v-40a10 10 0 0 1 10 -10"></path></g></g><path d="M276.0 31h10"></path><path d="M 286.0 31 h 20 m -10 -10 v 20 m 10 -20 v 20"></path></g></svg>