<svg class="railroad-diagram" height="80" viewBox="0 0 585.0 80" width="585.0" xmlns="http://www.w3.org/2000/svg" xmlns:xlink="http://www.w3.org/1999/xlink">
<defs>
<style type="text/css"><![CDATA[
svg.railroad-diagram { background-color: transparent; }
.terminal rect { fill: #DC382D !important; stroke: #DC382D !important; }
.terminal text { fill: white !important; font-weight: bold; }
.nonterminal rect { fill: none !important; stroke: #DC382D !important; stroke-width: 2; }
.nonterminal text { fill: #DC382D !important; font-weight: bold; }
path { stroke: #DC382D !important; stroke-width: 2; fill: none; }
circle { fill: #DC382D !important; stroke: #DC382D !important; }
]]></style>
</defs>
<g transform="translate(.5 .5)">
<style>/* <![CDATA[ */
	svg.railroad-diagram {
		background-color: transparent;
	}
	svg.railroad-diagram path {
		stroke-width:3;
		stroke: #DC382D;
		fill:rgba(0,0,0,0);
	}
	svg.railroad-diagram text {
		font:bold 14px monospace;
		text-anchor:middle;
	}
	svg.railroad-diagram text.label{
		text-anchor:start;
	}
	svg.railroad-diagram text.comment{
		font:italic 12px monospace;
	}
	svg.railroad-diagram rect{
		stroke-width:3;
		stroke: #DC382D;
		fill: none;
	}
	svg.railroad-diagram rect.group-box {
		stroke: #DC382D;
		stroke-dasharray: 10 5;
		fill: none;
	}

/* ]]> */
</style><g>
<path d="M20 30v20m10 -20v20m-10 -10h20"></path></g><path d="M40 40h10"></path><g>
<path d="M50 40h0.0"></path><path d="M535.0 40h0.0"></path><g class="terminal ">
<path d="M50.0 40h0.0"></path><path d="M155.0 40h0.0"></path><rect height="22" rx="10" ry="10" width="105.0" x="50.0" y="29"></rect><text x="102.5" y="44">SINTERCARD</text></g><path d="M155.0 40h10"></path><path d="M165.0 40h10"></path><g class="non-terminal ">
<path d="M175.0 40h0.0"></path><path d="M254.5 40h0.0"></path><rect height="22" width="79.5" x="175.0" y="29"></rect><text x="214.75" y="44">numkeys</text></g><path d="M254.5 40h10"></path><path d="M264.5 40h10"></path><g>
<path d="M274.5 40h0.0"></path><path d="M340.0 40h0.0"></path><path d="M274.5 40h10"></path><g class="non-terminal ">
<path d="M284.5 40h0.0"></path><path d="M330.0 40h0.0"></path><rect height="22" width="45.5" x="284.5" y="29"></rect><text x="307.25" y="44">key</text></g><path d="M330.0 40h10"></path><path d="M284.5 40a10 10 0 0 0 -10 10v0a10 10 0 0 0 10 10"></path><g>
<path d="M284.5 60h45.5"></path></g><path d="M330.0 60a10 10 0 0 0 10 -10v0a10 10 0 0 0 -10 -10"></path></g><path d="M340.0 40h10"></path><g>
<path d="M350.0 40h0.0"></path><path d="M535.0 40h0.0"></path><path d="M350.0 40a10 10 0 0 0 10 -10v0a10 10 0 0 1 10 -10"></path><g>
<path d="M370.0 20h145.0"></path></g><path d="M515.0 20a10 10 0 0 1 10 10v0a10 10 0 0 0 10 10"></path><path d="M350.0 40h20"></path><g>
<path d="M370.0 40h0.0"></path><path d="M515.0 40h0.0"></path><g class="terminal ">
<path d="M370.0 40h0.0"></path><path d="M432.5 40h0.0"></path><rect height="22" rx="10" ry="10" width="62.5" x="370.0" y="29"></rect><text x="401.25" y="44">LIMIT</text></g><path d="M432.5 40h10"></path><path d="M442.5 40h10"></path><g class="non-terminal ">
<path d="M452.5 40h0.0"></path><path d="M515.0 40h0.0"></path><rect height="22" width="62.5" x="452.5" y="29"></rect><text x="483.75" y="44">limit</text></g></g><path d="M515.0 40h20"></path></g></g><path d="M535.0 40h10"></path><path d="M 545.0 40 h 20 m -10 -10 v 20 m 10 -20 v 20"></path></g></svg>