<svg class="railroad-diagram" height="109" viewBox="0 0 1537.5 109" width="1537.5" xmlns="http://www.w3.org/2000/svg" xmlns:xlink="http://www.w3.org/1999/xlink">
<defs>
<style type="text/css"><![CDATA[
svg.railroad-diagram { background-color: transparent; }
.terminal rect { fill: #DC382D !important; stroke: #DC382D !important; }
.terminal text { fill: white !important; font-weight: bold; }
.nonterminal rect { fill: none !important; stroke: #DC382D !important; stroke-width: 2; }
.nonterminal text { fill: #DC382D !important; font-weight: bold; }
path { stroke: #DC382D !important; stroke-width: 2; fill: none; }
circle { fill: #DC382D !important; stroke: #DC382D !important; }
]]></style>
</defs>
<g transform="translate(.5 .5)">
<style>/* <![CDATA[ */
	svg.railroad-diagram {
		background-color: transparent;
	}
	svg.railroad-diagram path {
		stroke-width:3;
		stroke: #DC382D;
		fill:rgba(0,0,0,0);
	}
	svg.railroad-diagram text {
		font:bold 14px monospace;
		text-anchor:middle;
	}
	svg.railroad-diagram text.label{
		text-anchor:start;
	}
	svg.railroad-diagram text.comment{
		font:italic 12px monospace;
	}
	svg.railroad-diagram rect{
		stroke-width:3;
		stroke: #DC382D;
		fill: none;
	}
	svg.railroad-diagram rect.group-box {
		stroke: #DC382D;
		stroke-dasharray: 10 5;
		fill: none;
	}

/* ]]> */
</style><g>
<path d="M20 38v20m10 -20v20m-10 -10h20"></path></g><path d="M40 48h10"></path><g>
<path d="M50 48h0.0"></path><path d="M1487.5 48h0.0"></path><g class="terminal ">
<path d="M50.0 48h0.0"></path><path d="M104.0 48h0.0"></path><rect height="22" rx="10" ry="10" width="54.0" x="50.0" y="37"></rect><text x="77.0" y="52">SORT</text></g><path d="M104.0 48h10"></path><path d="M114.0 48h10"></path><g class="non-terminal ">
<path d="M124.0 48h0.0"></path><path d="M169.5 48h0.0"></path><rect height="22" width="45.5" x="124.0" y="37"></rect><text x="146.75" y="52">key</text></g><path d="M169.5 48h10"></path><g>
<path d="M179.5 48h0.0"></path><path d="M356.0 48h0.0"></path><path d="M179.5 48a10 10 0 0 0 10 -10v0a10 10 0 0 1 10 -10"></path><g>
<path d="M199.5 28h136.5"></path></g><path d="M336.0 28a10 10 0 0 1 10 10v0a10 10 0 0 0 10 10"></path><path d="M179.5 48h20"></path><g>
<path d="M199.5 48h0.0"></path><path d="M336.0 48h0.0"></path><g class="terminal ">
<path d="M199.5 48h0.0"></path><path d="M236.5 48h0.0"></path><rect height="22" rx="10" ry="10" width="37.0" x="199.5" y="37"></rect><text x="218.0" y="52">BY</text></g><path d="M236.5 48h10"></path><path d="M246.5 48h10"></path><g class="non-terminal ">
<path d="M256.5 48h0.0"></path><path d="M336.0 48h0.0"></path><rect height="22" width="79.5" x="256.5" y="37"></rect><text x="296.25" y="52">pattern</text></g></g><path d="M336.0 48h20"></path></g><g>
<path d="M356.0 48h0.0"></path><path d="M549.5 48h0.0"></path><path d="M356.0 48a10 10 0 0 0 10 -10v0a10 10 0 0 1 10 -10"></path><g>
<path d="M376.0 28h153.5"></path></g><path d="M529.5 28a10 10 0 0 1 10 10v0a10 10 0 0 0 10 10"></path><path d="M356.0 48h20"></path><g>
<path d="M376.0 48h0.0"></path><path d="M529.5 48h0.0"></path><g class="non-terminal ">
<path d="M376.0 48h0.0"></path><path d="M447.0 48h0.0"></path><rect height="22" width="71.0" x="376.0" y="37"></rect><text x="411.5" y="52">offset</text></g><path d="M447.0 48h10"></path><path d="M457.0 48h10"></path><g class="non-terminal ">
<path d="M467.0 48h0.0"></path><path d="M529.5 48h0.0"></path><rect height="22" width="62.5" x="467.0" y="37"></rect><text x="498.25" y="52">count</text></g></g><path d="M529.5 48h20"></path></g><g>
<path d="M549.5 48h0.0"></path><path d="M1015.0 48h0.0"></path><path d="M549.5 48a10 10 0 0 0 10 -10v-8a10 10 0 0 1 10 -10"></path><g>
<path d="M569.5 20h425.5"></path></g><path d="M995.0 20a10 10 0 0 1 10 10v8a10 10 0 0 0 10 10"></path><path d="M549.5 48h20"></path><g>
<path d="M569.5 48h0.0"></path><path d="M995.0 48h0.0"></path><g>
<path d="M569.5 48h0.0"></path><path d="M714.5 48h0.0"></path><g class="terminal ">
<path d="M569.5 48h0.0"></path><path d="M615.0 48h0.0"></path><rect height="22" rx="10" ry="10" width="45.5" x="569.5" y="37"></rect><text x="592.25" y="52">GET</text><path d="M820.0 48h0.0"></path><path d="M865.5 48h0.0"></path><rect height="22" rx="10" ry="10" width="45.5" x="820.0" y="37"></rect><text x="842.75" y="52">GET</text></g><path d="M615.0 48h10"></path><path d="M625.0 48h10"></path><g class="non-terminal ">
<path d="M635.0 48h0.0"></path><path d="M714.5 48h0.0"></path><rect height="22" width="79.5" x="635.0" y="37"></rect><text x="674.75" y="52">pattern</text><path d="M885.5 48h0.0"></path><path d="M965.0 48h0.0"></path><rect height="22" width="79.5" x="885.5" y="37"></rect><text x="925.25" y="52">pattern</text></g><path d="M820.0 48h0.0"></path><path d="M965.0 48h0.0"></path><g class="terminal ">
<path d="M569.5 48h0.0"></path><path d="M615.0 48h0.0"></path><rect height="22" rx="10" ry="10" width="45.5" x="569.5" y="37"></rect><text x="592.25" y="52">GET</text><path d="M820.0 48h0.0"></path><path d="M865.5 48h0.0"></path><rect height="22" rx="10" ry="10" width="45.5" x="820.0" y="37"></rect><text x="842.75" y="52">GET</text></g><path d="M865.5 48h10"></path><path d="M875.5 48h10"></path><g class="non-terminal ">
<path d="M635.0 48h0.0"></path><path d="M714.5 48h0.0"></path><rect height="22" width="79.5" x="635.0" y="37"></rect><text x="674.75" y="52">pattern</text><path d="M885.5 48h0.0"></path><path d="M965.0 48h0.0"></path><rect height="22" width="79.5" x="885.5" y="37"></rect><text x="925.25" y="52">pattern</text></g></g><path d="M714.5 48h10"></path><g>
<path d="M724.5 48h0.0"></path><path d="M995.0 48h0.0"></path><path d="M724.5 48a10 10 0 0 0 10 -10v0a10 10 0 0 1 10 -10"></path><g>
<path d="M744.5 28h230.5"></path></g><path d="M975.0 28a10 10 0 0 1 10 10v0a10 10 0 0 0 10 10"></path><path d="M724.5 48h20"></path><g>
<path d="M744.5 48h0.0"></path><path d="M975.0 48h0.0"></path><path d="M744.5 48h10"></path><g>
<path d="M754.5 48h0.0"></path><path d="M965.0 48h0.0"></path><g class="terminal ">
<path d="M754.5 48h0.0"></path><path d="M800.0 48h0.0"></path><rect height="22" rx="10" ry="10" width="45.5" x="754.5" y="37"></rect><text x="777.25" y="52">GET</text></g><path d="M800.0 48h10"></path><path d="M810.0 48h10"></path><g>
<path d="M569.5 48h0.0"></path><path d="M714.5 48h0.0"></path><g class="terminal ">
<path d="M569.5 48h0.0"></path><path d="M615.0 48h0.0"></path><rect height="22" rx="10" ry="10" width="45.5" x="569.5" y="37"></rect><text x="592.25" y="52">GET</text><path d="M820.0 48h0.0"></path><path d="M865.5 48h0.0"></path><rect height="22" rx="10" ry="10" width="45.5" x="820.0" y="37"></rect><text x="842.75" y="52">GET</text></g><path d="M615.0 48h10"></path><path d="M625.0 48h10"></path><g class="non-terminal ">
<path d="M635.0 48h0.0"></path><path d="M714.5 48h0.0"></path><rect height="22" width="79.5" x="635.0" y="37"></rect><text x="674.75" y="52">pattern</text><path d="M885.5 48h0.0"></path><path d="M965.0 48h0.0"></path><rect height="22" width="79.5" x="885.5" y="37"></rect><text x="925.25" y="52">pattern</text></g><path d="M820.0 48h0.0"></path><path d="M965.0 48h0.0"></path><g class="terminal ">
<path d="M569.5 48h0.0"></path><path d="M615.0 48h0.0"></path><rect height="22" rx="10" ry="10" width="45.5" x="569.5" y="37"></rect><text x="592.25" y="52">GET</text><path d="M820.0 48h0.0"></path><path d="M865.5 48h0.0"></path><rect height="22" rx="10" ry="10" width="45.5" x="820.0" y="37"></rect><text x="842.75" y="52">GET</text></g><path d="M865.5 48h10"></path><path d="M875.5 48h10"></path><g class="non-terminal ">
<path d="M635.0 48h0.0"></path><path d="M714.5 48h0.0"></path><rect height="22" width="79.5" x="635.0" y="37"></rect><text x="674.75" y="52">pattern</text><path d="M885.5 48h0.0"></path><path d="M965.0 48h0.0"></path><rect height="22" width="79.5" x="885.5" y="37"></rect><text x="925.25" y="52">pattern</text></g></g></g><path d="M965.0 48h10"></path><path d="M754.5 48a10 10 0 0 0 -10 10v0a10 10 0 0 0 10 10"></path><g>
<path d="M754.5 68h210.5"></path></g><path d="M965.0 68a10 10 0 0 0 10 -10v0a10 10 0 0 0 -10 -10"></path></g><path d="M975.0 48h20"></path></g></g><path d="M995.0 48h20"></path></g><g>
<path d="M1015.0 48h0.0"></path><path d="M1149.0 48h0.0"></path><path d="M1015.0 48a10 10 0 0 0 10 -10v0a10 10 0 0 1 10 -10"></path><g>
<path d="M1035.0 28h94.0"></path></g><path d="M1129.0 28a10 10 0 0 1 10 10v0a10 10 0 0 0 10 10"></path><path d="M1015.0 48h20"></path><g>
<path d="M1035.0 48h0.0"></path><path d="M1129.0 48h0.0"></path><path d="M1035.0 48h20"></path><g class="terminal ">
<path d="M1055.0 48h4.25"></path><path d="M1104.75 48h4.25"></path><rect height="22" rx="10" ry="10" width="45.5" x="1059.25" y="37"></rect><text x="1082.0" y="52">ASC</text></g><path d="M1109.0 48h20"></path><path d="M1035.0 48a10 10 0 0 1 10 10v10a10 10 0 0 0 10 10"></path><g class="terminal ">
<path d="M1055.0 78h0.0"></path><path d="M1109.0 78h0.0"></path><rect height="22" rx="10" ry="10" width="54.0" x="1055.0" y="67"></rect><text x="1082.0" y="82">DESC</text></g><path d="M1109.0 78a10 10 0 0 0 10 -10v-10a10 10 0 0 1 10 -10"></path></g><path d="M1129.0 48h20"></path></g><g>
<path d="M1149.0 48h0.0"></path><path d="M1251.5 48h0.0"></path><path d="M1149.0 48a10 10 0 0 0 10 -10v0a10 10 0 0 1 10 -10"></path><g>
<path d="M1169.0 28h62.5"></path></g><path d="M1231.5 28a10 10 0 0 1 10 10v0a10 10 0 0 0 10 10"></path><path d="M1149.0 48h20"></path><g class="terminal ">
<path d="M1169.0 48h0.0"></path><path d="M1231.5 48h0.0"></path><rect height="22" rx="10" ry="10" width="62.5" x="1169.0" y="37"></rect><text x="1200.25" y="52">ALPHA</text></g><path d="M1231.5 48h20"></path></g><g>
<path d="M1251.5 48h0.0"></path><path d="M1487.5 48h0.0"></path><path d="M1251.5 48a10 10 0 0 0 10 -10v0a10 10 0 0 1 10 -10"></path><g>
<path d="M1271.5 28h196.0"></path></g><path d="M1467.5 28a10 10 0 0 1 10 10v0a10 10 0 0 0 10 10"></path><path d="M1251.5 48h20"></path><g>
<path d="M1271.5 48h0.0"></path><path d="M1467.5 48h0.0"></path><g class="terminal ">
<path d="M1271.5 48h0.0"></path><path d="M1334.0 48h0.0"></path><rect height="22" rx="10" ry="10" width="62.5" x="1271.5" y="37"></rect><text x="1302.75" y="52">STORE</text></g><path d="M1334.0 48h10"></path><path d="M1344.0 48h10"></path><g class="non-terminal ">
<path d="M1354.0 48h0.0"></path><path d="M1467.5 48h0.0"></path><rect height="22" width="113.5" x="1354.0" y="37"></rect><text x="1410.75" y="52">destination</text></g></g><path d="M1467.5 48h20"></path></g></g><path d="M1487.5 48h10"></path><path d="M 1497.5 48 h 20 m -10 -10 v 20 m 10 -20 v 20"></path></g></svg>