<svg class="railroad-diagram" height="109" viewBox="0 0 1344.0 109" width="1344.0" xmlns="http://www.w3.org/2000/svg" xmlns:xlink="http://www.w3.org/1999/xlink">
<defs>
<style type="text/css"><![CDATA[
svg.railroad-diagram { background-color: transparent; }
.terminal rect { fill: #DC382D !important; stroke: #DC382D !important; }
.terminal text { fill: white !important; font-weight: bold; }
.nonterminal rect { fill: none !important; stroke: #DC382D !important; stroke-width: 2; }
.nonterminal text { fill: #DC382D !important; font-weight: bold; }
path { stroke: #DC382D !important; stroke-width: 2; fill: none; }
circle { fill: #DC382D !important; stroke: #DC382D !important; }
]]></style>
</defs>
<g transform="translate(.5 .5)">
<style>/* <![CDATA[ */
	svg.railroad-diagram {
		background-color: transparent;
	}
	svg.railroad-diagram path {
		stroke-width:3;
		stroke: #DC382D;
		fill:rgba(0,0,0,0);
	}
	svg.railroad-diagram text {
		font:bold 14px monospace;
		text-anchor:middle;
	}
	svg.railroad-diagram text.label{
		text-anchor:start;
	}
	svg.railroad-diagram text.comment{
		font:italic 12px monospace;
	}
	svg.railroad-diagram rect{
		stroke-width:3;
		stroke: #DC382D;
		fill: none;
	}
	svg.railroad-diagram rect.group-box {
		stroke: #DC382D;
		stroke-dasharray: 10 5;
		fill: none;
	}

/* ]]> */
</style><g>
<path d="M20 38v20m10 -20v20m-10 -10h20"></path></g><path d="M40 48h10"></path><g>
<path d="M50 48h0.0"></path><path d="M1294.0 48h0.0"></path><g class="terminal ">
<path d="M50.0 48h0.0"></path><path d="M129.5 48h0.0"></path><rect height="22" rx="10" ry="10" width="79.5" x="50.0" y="37"></rect><text x="89.75" y="52">SORT&#95;RO</text></g><path d="M129.5 48h10"></path><path d="M139.5 48h10"></path><g class="non-terminal ">
<path d="M149.5 48h0.0"></path><path d="M195.0 48h0.0"></path><rect height="22" width="45.5" x="149.5" y="37"></rect><text x="172.25" y="52">key</text></g><path d="M195.0 48h10"></path><g>
<path d="M205.0 48h0.0"></path><path d="M381.5 48h0.0"></path><path d="M205.0 48a10 10 0 0 0 10 -10v0a10 10 0 0 1 10 -10"></path><g>
<path d="M225.0 28h136.5"></path></g><path d="M361.5 28a10 10 0 0 1 10 10v0a10 10 0 0 0 10 10"></path><path d="M205.0 48h20"></path><g>
<path d="M225.0 48h0.0"></path><path d="M361.5 48h0.0"></path><g class="terminal ">
<path d="M225.0 48h0.0"></path><path d="M262.0 48h0.0"></path><rect height="22" rx="10" ry="10" width="37.0" x="225.0" y="37"></rect><text x="243.5" y="52">BY</text></g><path d="M262.0 48h10"></path><path d="M272.0 48h10"></path><g class="non-terminal ">
<path d="M282.0 48h0.0"></path><path d="M361.5 48h0.0"></path><rect height="22" width="79.5" x="282.0" y="37"></rect><text x="321.75" y="52">pattern</text></g></g><path d="M361.5 48h20"></path></g><g>
<path d="M381.5 48h0.0"></path><path d="M657.5 48h0.0"></path><path d="M381.5 48a10 10 0 0 0 10 -10v0a10 10 0 0 1 10 -10"></path><g>
<path d="M401.5 28h236.0"></path></g><path d="M637.5 28a10 10 0 0 1 10 10v0a10 10 0 0 0 10 10"></path><path d="M381.5 48h20"></path><g>
<path d="M401.5 48h0.0"></path><path d="M637.5 48h0.0"></path><g class="terminal ">
<path d="M401.5 48h0.0"></path><path d="M464.0 48h0.0"></path><rect height="22" rx="10" ry="10" width="62.5" x="401.5" y="37"></rect><text x="432.75" y="52">LIMIT</text></g><path d="M464.0 48h10"></path><path d="M474.0 48h10"></path><g class="non-terminal ">
<path d="M484.0 48h0.0"></path><path d="M555.0 48h0.0"></path><rect height="22" width="71.0" x="484.0" y="37"></rect><text x="519.5" y="52">offset</text></g><path d="M555.0 48h10"></path><path d="M565.0 48h10"></path><g class="non-terminal ">
<path d="M575.0 48h0.0"></path><path d="M637.5 48h0.0"></path><rect height="22" width="62.5" x="575.0" y="37"></rect><text x="606.25" y="52">count</text></g></g><path d="M637.5 48h20"></path></g><g>
<path d="M657.5 48h0.0"></path><path d="M1057.5 48h0.0"></path><path d="M657.5 48a10 10 0 0 0 10 -10v-8a10 10 0 0 1 10 -10"></path><g>
<path d="M677.5 20h360.0"></path></g><path d="M1037.5 20a10 10 0 0 1 10 10v8a10 10 0 0 0 10 10"></path><path d="M657.5 48h20"></path><g>
<path d="M677.5 48h0.0"></path><path d="M1037.5 48h0.0"></path><g>
<path d="M677.5 48h0.0"></path><path d="M822.5 48h0.0"></path><g class="terminal ">
<path d="M677.5 48h0.0"></path><path d="M723.0 48h0.0"></path><rect height="22" rx="10" ry="10" width="45.5" x="677.5" y="37"></rect><text x="700.25" y="52">GET</text></g><path d="M723.0 48h10"></path><path d="M733.0 48h10"></path><g class="non-terminal ">
<path d="M743.0 48h0.0"></path><path d="M822.5 48h0.0"></path><rect height="22" width="79.5" x="743.0" y="37"></rect><text x="782.75" y="52">pattern</text><path d="M928.0 48h0.0"></path><path d="M1007.5 48h0.0"></path><rect height="22" width="79.5" x="928.0" y="37"></rect><text x="967.75" y="52">pattern</text></g></g><path d="M822.5 48h10"></path><g>
<path d="M832.5 48h0.0"></path><path d="M1037.5 48h0.0"></path><path d="M832.5 48a10 10 0 0 0 10 -10v0a10 10 0 0 1 10 -10"></path><g>
<path d="M852.5 28h165.0"></path></g><path d="M1017.5 28a10 10 0 0 1 10 10v0a10 10 0 0 0 10 10"></path><path d="M832.5 48h20"></path><g>
<path d="M852.5 48h0.0"></path><path d="M1017.5 48h0.0"></path><path d="M852.5 48h10"></path><g>
<path d="M862.5 48h0.0"></path><path d="M1007.5 48h0.0"></path><g class="terminal ">
<path d="M862.5 48h0.0"></path><path d="M908.0 48h0.0"></path><rect height="22" rx="10" ry="10" width="45.5" x="862.5" y="37"></rect><text x="885.25" y="52">GET</text></g><path d="M908.0 48h10"></path><path d="M918.0 48h10"></path><g class="non-terminal ">
<path d="M743.0 48h0.0"></path><path d="M822.5 48h0.0"></path><rect height="22" width="79.5" x="743.0" y="37"></rect><text x="782.75" y="52">pattern</text><path d="M928.0 48h0.0"></path><path d="M1007.5 48h0.0"></path><rect height="22" width="79.5" x="928.0" y="37"></rect><text x="967.75" y="52">pattern</text></g></g><path d="M1007.5 48h10"></path><path d="M862.5 48a10 10 0 0 0 -10 10v0a10 10 0 0 0 10 10"></path><g>
<path d="M862.5 68h145.0"></path></g><path d="M1007.5 68a10 10 0 0 0 10 -10v0a10 10 0 0 0 -10 -10"></path></g><path d="M1017.5 48h20"></path></g></g><path d="M1037.5 48h20"></path></g><g>
<path d="M1057.5 48h0.0"></path><path d="M1191.5 48h0.0"></path><path d="M1057.5 48a10 10 0 0 0 10 -10v0a10 10 0 0 1 10 -10"></path><g>
<path d="M1077.5 28h94.0"></path></g><path d="M1171.5 28a10 10 0 0 1 10 10v0a10 10 0 0 0 10 10"></path><path d="M1057.5 48h20"></path><g>
<path d="M1077.5 48h0.0"></path><path d="M1171.5 48h0.0"></path><path d="M1077.5 48h20"></path><g class="terminal ">
<path d="M1097.5 48h4.25"></path><path d="M1147.25 48h4.25"></path><rect height="22" rx="10" ry="10" width="45.5" x="1101.75" y="37"></rect><text x="1124.5" y="52">ASC</text></g><path d="M1151.5 48h20"></path><path d="M1077.5 48a10 10 0 0 1 10 10v10a10 10 0 0 0 10 10"></path><g class="terminal ">
<path d="M1097.5 78h0.0"></path><path d="M1151.5 78h0.0"></path><rect height="22" rx="10" ry="10" width="54.0" x="1097.5" y="67"></rect><text x="1124.5" y="82">DESC</text></g><path d="M1151.5 78a10 10 0 0 0 10 -10v-10a10 10 0 0 1 10 -10"></path></g><path d="M1171.5 48h20"></path></g><g>
<path d="M1191.5 48h0.0"></path><path d="M1294.0 48h0.0"></path><path d="M1191.5 48a10 10 0 0 0 10 -10v0a10 10 0 0 1 10 -10"></path><g>
<path d="M1211.5 28h62.5"></path></g><path d="M1274.0 28a10 10 0 0 1 10 10v0a10 10 0 0 0 10 10"></path><path d="M1191.5 48h20"></path><g class="terminal ">
<path d="M1211.5 48h0.0"></path><path d="M1274.0 48h0.0"></path><rect height="22" rx="10" ry="10" width="62.5" x="1211.5" y="37"></rect><text x="1242.75" y="52">ALPHA</text></g><path d="M1274.0 48h20"></path></g></g><path d="M1294.0 48h10"></path><path d="M 1304.0 48 h 20 m -10 -10 v 20 m 10 -20 v 20"></path></g></svg>