<svg class="railroad-diagram" height="71" viewBox="0 0 716.0 71" width="716.0" xmlns="http://www.w3.org/2000/svg" xmlns:xlink="http://www.w3.org/1999/xlink">
<defs>
<style type="text/css"><![CDATA[
svg.railroad-diagram { background-color: transparent; }
.terminal rect { fill: #DC382D !important; stroke: #DC382D !important; }
.terminal text { fill: white !important; font-weight: bold; }
.nonterminal rect { fill: none !important; stroke: #DC382D !important; stroke-width: 2; }
.nonterminal text { fill: #DC382D !important; font-weight: bold; }
path { stroke: #DC382D !important; stroke-width: 2; fill: none; }
circle { fill: #DC382D !important; stroke: #DC382D !important; }
]]></style>
</defs>
<g transform="translate(.5 .5)">
<style>/* <![CDATA[ */
	svg.railroad-diagram {
		background-color: transparent;
	}
	svg.railroad-diagram path {
		stroke-width:3;
		stroke: #DC382D;
		fill:rgba(0,0,0,0);
	}
	svg.railroad-diagram text {
		font:bold 14px monospace;
		text-anchor:middle;
	}
	svg.railroad-diagram text.label{
		text-anchor:start;
	}
	svg.railroad-diagram text.comment{
		font:italic 12px monospace;
	}
	svg.railroad-diagram rect{
		stroke-width:3;
		stroke: #DC382D;
		fill: none;
	}
	svg.railroad-diagram rect.group-box {
		stroke: #DC382D;
		stroke-dasharray: 10 5;
		fill: none;
	}

/* ]]> */
</style><g>
<path d="M20 30v20m10 -20v20m-10 -10h20"></path></g><path d="M40 40h10"></path><g>
<path d="M50 40h0.0"></path><path d="M666.0 40h0.0"></path><g class="terminal ">
<path d="M50.0 40h0.0"></path><path d="M112.5 40h0.0"></path><rect height="22" rx="10" ry="10" width="62.5" x="50.0" y="29"></rect><text x="81.25" y="44">SSCAN</text></g><path d="M112.5 40h10"></path><path d="M122.5 40h10"></path><g class="non-terminal ">
<path d="M132.5 40h0.0"></path><path d="M178.0 40h0.0"></path><rect height="22" width="45.5" x="132.5" y="29"></rect><text x="155.25" y="44">key</text></g><path d="M178.0 40h10"></path><path d="M188.0 40h10"></path><g class="non-terminal ">
<path d="M198.0 40h0.0"></path><path d="M269.0 40h0.0"></path><rect height="22" width="71.0" x="198.0" y="29"></rect><text x="233.5" y="44">cursor</text></g><path d="M269.0 40h10"></path><g>
<path d="M279.0 40h0.0"></path><path d="M481.0 40h0.0"></path><path d="M279.0 40a10 10 0 0 0 10 -10v0a10 10 0 0 1 10 -10"></path><g>
<path d="M299.0 20h162.0"></path></g><path d="M461.0 20a10 10 0 0 1 10 10v0a10 10 0 0 0 10 10"></path><path d="M279.0 40h20"></path><g>
<path d="M299.0 40h0.0"></path><path d="M461.0 40h0.0"></path><g class="terminal ">
<path d="M299.0 40h0.0"></path><path d="M361.5 40h0.0"></path><rect height="22" rx="10" ry="10" width="62.5" x="299.0" y="29"></rect><text x="330.25" y="44">MATCH</text></g><path d="M361.5 40h10"></path><path d="M371.5 40h10"></path><g class="non-terminal ">
<path d="M381.5 40h0.0"></path><path d="M461.0 40h0.0"></path><rect height="22" width="79.5" x="381.5" y="29"></rect><text x="421.25" y="44">pattern</text></g></g><path d="M461.0 40h20"></path></g><g>
<path d="M481.0 40h0.0"></path><path d="M666.0 40h0.0"></path><path d="M481.0 40a10 10 0 0 0 10 -10v0a10 10 0 0 1 10 -10"></path><g>
<path d="M501.0 20h145.0"></path></g><path d="M646.0 20a10 10 0 0 1 10 10v0a10 10 0 0 0 10 10"></path><path d="M481.0 40h20"></path><g>
<path d="M501.0 40h0.0"></path><path d="M646.0 40h0.0"></path><g class="terminal ">
<path d="M501.0 40h0.0"></path><path d="M563.5 40h0.0"></path><rect height="22" rx="10" ry="10" width="62.5" x="501.0" y="29"></rect><text x="532.25" y="44">COUNT</text></g><path d="M563.5 40h10"></path><path d="M573.5 40h10"></path><g class="non-terminal ">
<path d="M583.5 40h0.0"></path><path d="M646.0 40h0.0"></path><rect height="22" width="62.5" x="583.5" y="29"></rect><text x="614.75" y="44">count</text></g></g><path d="M646.0 40h20"></path></g></g><path d="M666.0 40h10"></path><path d="M 676.0 40 h 20 m -10 -10 v 20 m 10 -20 v 20"></path></g></svg>