<svg class="railroad-diagram" height="80" viewBox="0 0 1067.5 80" width="1067.5" xmlns="http://www.w3.org/2000/svg" xmlns:xlink="http://www.w3.org/1999/xlink">
<defs>
<style type="text/css"><![CDATA[
svg.railroad-diagram { background-color: transparent; }
.terminal rect { fill: #DC382D !important; stroke: #DC382D !important; }
.terminal text { fill: white !important; font-weight: bold; }
.nonterminal rect { fill: none !important; stroke: #DC382D !important; stroke-width: 2; }
.nonterminal text { fill: #DC382D !important; font-weight: bold; }
path { stroke: #DC382D !important; stroke-width: 2; fill: none; }
circle { fill: #DC382D !important; stroke: #DC382D !important; }
]]></style>
</defs>
<g transform="translate(.5 .5)">
<style>/* <![CDATA[ */
	svg.railroad-diagram {
		background-color: transparent;
	}
	svg.railroad-diagram path {
		stroke-width:3;
		stroke: #DC382D;
		fill:rgba(0,0,0,0);
	}
	svg.railroad-diagram text {
		font:bold 14px monospace;
		text-anchor:middle;
	}
	svg.railroad-diagram text.label{
		text-anchor:start;
	}
	svg.railroad-diagram text.comment{
		font:italic 12px monospace;
	}
	svg.railroad-diagram rect{
		stroke-width:3;
		stroke: #DC382D;
		fill: none;
	}
	svg.railroad-diagram rect.group-box {
		stroke: #DC382D;
		stroke-dasharray: 10 5;
		fill: none;
	}

/* ]]> */
</style><g>
<path d="M20 30v20m10 -20v20m-10 -10h20"></path></g><path d="M40 40h10"></path><g>
<path d="M50 40h0.0"></path><path d="M1017.5 40h0.0"></path><g class="terminal ">
<path d="M50.0 40h0.0"></path><path d="M180.5 40h0.0"></path><rect height="22" rx="10" ry="10" width="130.5" x="50.0" y="29"></rect><text x="115.25" y="44">TDIGEST.MERGE</text></g><path d="M180.5 40h10"></path><path d="M190.5 40h10"></path><g class="non-terminal ">
<path d="M200.5 40h0.0"></path><path d="M348.0 40h0.0"></path><rect height="22" width="147.5" x="200.5" y="29"></rect><text x="274.25" y="44">destination-key</text></g><path d="M348.0 40h10"></path><path d="M358.0 40h10"></path><g class="non-terminal ">
<path d="M368.0 40h0.0"></path><path d="M447.5 40h0.0"></path><rect height="22" width="79.5" x="368.0" y="29"></rect><text x="407.75" y="44">numkeys</text></g><path d="M447.5 40h10"></path><path d="M457.5 40h10"></path><g>
<path d="M467.5 40h0.0"></path><path d="M592.5 40h0.0"></path><path d="M467.5 40h10"></path><g class="non-terminal ">
<path d="M477.5 40h0.0"></path><path d="M582.5 40h0.0"></path><rect height="22" width="105.0" x="477.5" y="29"></rect><text x="530.0" y="44">source-key</text></g><path d="M582.5 40h10"></path><path d="M477.5 40a10 10 0 0 0 -10 10v0a10 10 0 0 0 10 10"></path><g>
<path d="M477.5 60h105.0"></path></g><path d="M582.5 60a10 10 0 0 0 10 -10v0a10 10 0 0 0 -10 -10"></path></g><path d="M592.5 40h10"></path><g>
<path d="M602.5 40h0.0"></path><path d="M889.5 40h0.0"></path><path d="M602.5 40a10 10 0 0 0 10 -10v0a10 10 0 0 1 10 -10"></path><g>
<path d="M622.5 20h247.0"></path></g><path d="M869.5 20a10 10 0 0 1 10 10v0a10 10 0 0 0 10 10"></path><path d="M602.5 40h20"></path><g>
<path d="M622.5 40h0.0"></path><path d="M869.5 40h0.0"></path><g class="terminal ">
<path d="M622.5 40h0.0"></path><path d="M736.0 40h0.0"></path><rect height="22" rx="10" ry="10" width="113.5" x="622.5" y="29"></rect><text x="679.25" y="44">COMPRESSION</text></g><path d="M736.0 40h10"></path><path d="M746.0 40h10"></path><g class="non-terminal ">
<path d="M756.0 40h0.0"></path><path d="M869.5 40h0.0"></path><rect height="22" width="113.5" x="756.0" y="29"></rect><text x="812.75" y="44">compression</text></g></g><path d="M869.5 40h20"></path></g><g>
<path d="M889.5 40h0.0"></path><path d="M1017.5 40h0.0"></path><path d="M889.5 40a10 10 0 0 0 10 -10v0a10 10 0 0 1 10 -10"></path><g>
<path d="M909.5 20h88.0"></path></g><path d="M997.5 20a10 10 0 0 1 10 10v0a10 10 0 0 0 10 10"></path><path d="M889.5 40h20"></path><g class="terminal ">
<path d="M909.5 40h0.0"></path><path d="M997.5 40h0.0"></path><rect height="22" rx="10" ry="10" width="88.0" x="909.5" y="29"></rect><text x="953.5" y="44">OVERRIDE</text></g><path d="M997.5 40h20"></path></g></g><path d="M1017.5 40h10"></path><path d="M 1027.5 40 h 20 m -10 -10 v 20 m 10 -20 v 20"></path></g></svg>