<svg class="railroad-diagram" height="221" viewBox="0 0 1134.0 221" width="1134.0" xmlns="http://www.w3.org/2000/svg" xmlns:xlink="http://www.w3.org/1999/xlink">
<defs>
<style type="text/css"><![CDATA[
svg.railroad-diagram { background-color: transparent; }
.terminal rect { fill: #DC382D !important; stroke: #DC382D !important; }
.terminal text { fill: white !important; font-weight: bold; }
.nonterminal rect { fill: none !important; stroke: #DC382D !important; stroke-width: 2; }
.nonterminal text { fill: #DC382D !important; font-weight: bold; }
path { stroke: #DC382D !important; stroke-width: 2; fill: none; }
circle { fill: #DC382D !important; stroke: #DC382D !important; }
]]></style>
</defs>
<g transform="translate(.5 .5)">
<style>/* <![CDATA[ */
	svg.railroad-diagram {
		background-color: transparent;
	}
	svg.railroad-diagram path {
		stroke-width:3;
		stroke: #DC382D;
		fill:rgba(0,0,0,0);
	}
	svg.railroad-diagram text {
		font:bold 14px monospace;
		text-anchor:middle;
	}
	svg.railroad-diagram text.label{
		text-anchor:start;
	}
	svg.railroad-diagram text.comment{
		font:italic 12px monospace;
	}
	svg.railroad-diagram rect{
		stroke-width:3;
		stroke: #DC382D;
		fill: none;
	}
	svg.railroad-diagram rect.group-box {
		stroke: #DC382D;
		stroke-dasharray: 10 5;
		fill: none;
	}

/* ]]> */
</style><g>
<path d="M20 30v20m10 -20v20m-10 -10h20"></path></g><path d="M40 40h10"></path><g>
<path d="M50 40h0.0"></path><path d="M1084.0 40h0.0"></path><g class="terminal ">
<path d="M50.0 40h0.0"></path><path d="M138.0 40h0.0"></path><rect height="22" rx="10" ry="10" width="88.0" x="50.0" y="29"></rect><text x="94.0" y="44">TS.ALTER</text></g><path d="M138.0 40h10"></path><path d="M148.0 40h10"></path><g class="non-terminal ">
<path d="M158.0 40h0.0"></path><path d="M203.5 40h0.0"></path><rect height="22" width="45.5" x="158.0" y="29"></rect><text x="180.75" y="44">key</text></g><path d="M203.5 40h10"></path><g>
<path d="M213.5 40h0.0"></path><path d="M517.5 40h0.0"></path><path d="M213.5 40a10 10 0 0 0 10 -10v0a10 10 0 0 1 10 -10"></path><g>
<path d="M233.5 20h264.0"></path></g><path d="M497.5 20a10 10 0 0 1 10 10v0a10 10 0 0 0 10 10"></path><path d="M213.5 40h20"></path><g>
<path d="M233.5 40h0.0"></path><path d="M497.5 40h0.0"></path><g class="terminal ">
<path d="M233.5 40h0.0"></path><path d="M330.0 40h0.0"></path><rect height="22" rx="10" ry="10" width="96.5" x="233.5" y="29"></rect><text x="281.75" y="44">RETENTION</text></g><path d="M330.0 40h10"></path><path d="M340.0 40h10"></path><g class="non-terminal ">
<path d="M350.0 40h0.0"></path><path d="M497.5 40h0.0"></path><rect height="22" width="147.5" x="350.0" y="29"></rect><text x="423.75" y="44">retentionPeriod</text></g></g><path d="M497.5 40h20"></path></g><g>
<path d="M517.5 40h0.0"></path><path d="M736.5 40h0.0"></path><path d="M517.5 40a10 10 0 0 0 10 -10v0a10 10 0 0 1 10 -10"></path><g>
<path d="M537.5 20h179.0"></path></g><path d="M716.5 20a10 10 0 0 1 10 10v0a10 10 0 0 0 10 10"></path><path d="M517.5 40h20"></path><g>
<path d="M537.5 40h0.0"></path><path d="M716.5 40h0.0"></path><g class="terminal ">
<path d="M537.5 40h0.0"></path><path d="M642.5 40h0.0"></path><rect height="22" rx="10" ry="10" width="105.0" x="537.5" y="29"></rect><text x="590.0" y="44">CHUNK&#95;SIZE</text></g><path d="M642.5 40h10"></path><path d="M652.5 40h10"></path><g class="non-terminal ">
<path d="M662.5 40h0.0"></path><path d="M716.5 40h0.0"></path><rect height="22" width="54.0" x="662.5" y="29"></rect><text x="689.5" y="44">size</text></g></g><path d="M716.5 40h20"></path></g><g>
<path d="M736.5 40h0.0"></path><path d="M879.0 40h0.0"></path><path d="M736.5 40a10 10 0 0 0 10 -10v0a10 10 0 0 1 10 -10"></path><g>
<path d="M756.5 20h102.5"></path></g><path d="M859.0 20a10 10 0 0 1 10 10v0a10 10 0 0 0 10 10"></path><path d="M736.5 40h20"></path><g>
<path d="M756.5 40h0.0"></path><path d="M859.0 40h0.0"></path><path d="M756.5 40h20"></path><g class="terminal ">
<path d="M776.5 40h0.0"></path><path d="M839.0 40h0.0"></path><rect height="22" rx="10" ry="10" width="62.5" x="776.5" y="29"></rect><text x="807.75" y="44">BLOCK</text></g><path d="M839.0 40h20"></path><path d="M756.5 40a10 10 0 0 1 10 10v10a10 10 0 0 0 10 10"></path><g class="terminal ">
<path d="M776.5 70h0.0"></path><path d="M839.0 70h0.0"></path><rect height="22" rx="10" ry="10" width="62.5" x="776.5" y="59"></rect><text x="807.75" y="74">FIRST</text></g><path d="M839.0 70a10 10 0 0 0 10 -10v-10a10 10 0 0 1 10 -10"></path><path d="M756.5 40a10 10 0 0 1 10 10v40a10 10 0 0 0 10 10"></path><g class="terminal ">
<path d="M776.5 100h4.25"></path><path d="M834.75 100h4.25"></path><rect height="22" rx="10" ry="10" width="54.0" x="780.75" y="89"></rect><text x="807.75" y="104">LAST</text></g><path d="M839.0 100a10 10 0 0 0 10 -10v-40a10 10 0 0 1 10 -10"></path><path d="M756.5 40a10 10 0 0 1 10 10v70a10 10 0 0 0 10 10"></path><g class="terminal ">
<path d="M776.5 130h8.5"></path><path d="M830.5 130h8.5"></path><rect height="22" rx="10" ry="10" width="45.5" x="785.0" y="119"></rect><text x="807.75" y="134">MIN</text></g><path d="M839.0 130a10 10 0 0 0 10 -10v-70a10 10 0 0 1 10 -10"></path><path d="M756.5 40a10 10 0 0 1 10 10v100a10 10 0 0 0 10 10"></path><g class="terminal ">
<path d="M776.5 160h8.5"></path><path d="M830.5 160h8.5"></path><rect height="22" rx="10" ry="10" width="45.5" x="785.0" y="149"></rect><text x="807.75" y="164">MAX</text></g><path d="M839.0 160a10 10 0 0 0 10 -10v-100a10 10 0 0 1 10 -10"></path><path d="M756.5 40a10 10 0 0 1 10 10v130a10 10 0 0 0 10 10"></path><g class="terminal ">
<path d="M776.5 190h8.5"></path><path d="M830.5 190h8.5"></path><rect height="22" rx="10" ry="10" width="45.5" x="785.0" y="179"></rect><text x="807.75" y="194">SUM</text></g><path d="M839.0 190a10 10 0 0 0 10 -10v-130a10 10 0 0 1 10 -10"></path></g><path d="M859.0 40h20"></path></g><g>
<path d="M879.0 40h0.0"></path><path d="M1084.0 40h0.0"></path><path d="M879.0 40a10 10 0 0 0 10 -10v0a10 10 0 0 1 10 -10"></path><g>
<path d="M899.0 20h165.0"></path></g><path d="M1064.0 20a10 10 0 0 1 10 10v0a10 10 0 0 0 10 10"></path><path d="M879.0 40h20"></path><g>
<path d="M899.0 40h0.0"></path><path d="M1064.0 40h0.0"></path><path d="M899.0 40h10"></path><g>
<path d="M909.0 40h0.0"></path><path d="M1054.0 40h0.0"></path><g class="non-terminal ">
<path d="M909.0 40h0.0"></path><path d="M971.5 40h0.0"></path><rect height="22" width="62.5" x="909.0" y="29"></rect><text x="940.25" y="44">label</text></g><path d="M971.5 40h10"></path><path d="M981.5 40h10"></path><g class="non-terminal ">
<path d="M991.5 40h0.0"></path><path d="M1054.0 40h0.0"></path><rect height="22" width="62.5" x="991.5" y="29"></rect><text x="1022.75" y="44">value</text></g></g><path d="M1054.0 40h10"></path><path d="M909.0 40a10 10 0 0 0 -10 10v0a10 10 0 0 0 10 10"></path><g>
<path d="M909.0 60h145.0"></path></g><path d="M1054.0 60a10 10 0 0 0 10 -10v0a10 10 0 0 0 -10 -10"></path></g><path d="M1064.0 40h20"></path></g></g><path d="M1084.0 40h10"></path><path d="M 1094.0 40 h 20 m -10 -10 v 20 m 10 -20 v 20"></path></g></svg>