<svg class="railroad-diagram" height="71" viewBox="0 0 977.0 71" width="977.0" xmlns="http://www.w3.org/2000/svg" xmlns:xlink="http://www.w3.org/1999/xlink">
<defs>
<style type="text/css"><![CDATA[
svg.railroad-diagram { background-color: transparent; }
.terminal rect { fill: #DC382D !important; stroke: #DC382D !important; }
.terminal text { fill: white !important; font-weight: bold; }
.nonterminal rect { fill: none !important; stroke: #DC382D !important; stroke-width: 2; }
.nonterminal text { fill: #DC382D !important; font-weight: bold; }
path { stroke: #DC382D !important; stroke-width: 2; fill: none; }
circle { fill: #DC382D !important; stroke: #DC382D !important; }
]]></style>
</defs>
<g transform="translate(.5 .5)">
<style>/* <![CDATA[ */
	svg.railroad-diagram {
		background-color: transparent;
	}
	svg.railroad-diagram path {
		stroke-width:3;
		stroke: #DC382D;
		fill:rgba(0,0,0,0);
	}
	svg.railroad-diagram text {
		font:bold 14px monospace;
		text-anchor:middle;
	}
	svg.railroad-diagram text.label{
		text-anchor:start;
	}
	svg.railroad-diagram text.comment{
		font:italic 12px monospace;
	}
	svg.railroad-diagram rect{
		stroke-width:3;
		stroke: #DC382D;
		fill: none;
	}
	svg.railroad-diagram rect.group-box {
		stroke: #DC382D;
		stroke-dasharray: 10 5;
		fill: none;
	}

/* ]]> */
</style><g>
<path d="M20 30v20m10 -20v20m-10 -10h20"></path></g><path d="M40 40h10"></path><g>
<path d="M50 40h0.0"></path><path d="M927.0 40h0.0"></path><g class="terminal ">
<path d="M50.0 40h0.0"></path><path d="M129.5 40h0.0"></path><rect height="22" rx="10" ry="10" width="79.5" x="50.0" y="29"></rect><text x="89.75" y="44">TS.BGET</text></g><path d="M129.5 40h10"></path><path d="M139.5 40h10"></path><g class="non-terminal ">
<path d="M149.5 40h0.0"></path><path d="M195.0 40h0.0"></path><rect height="22" width="45.5" x="149.5" y="29"></rect><text x="172.25" y="44">key</text></g><path d="M195.0 40h10"></path><path d="M205.0 40h10"></path><g class="non-terminal ">
<path d="M215.0 40h0.0"></path><path d="M311.5 40h0.0"></path><rect height="22" width="96.5" x="215.0" y="29"></rect><text x="263.25" y="44">timestamp</text></g><path d="M311.5 40h10"></path><path d="M321.5 40h10"></path><g class="non-terminal ">
<path d="M331.5 40h0.0"></path><path d="M411.0 40h0.0"></path><rect height="22" width="79.5" x="331.5" y="29"></rect><text x="371.25" y="44">timeout</text></g><path d="M411.0 40h10"></path><g>
<path d="M421.0 40h0.0"></path><path d="M674.0 40h0.0"></path><path d="M421.0 40a10 10 0 0 0 10 -10v0a10 10 0 0 1 10 -10"></path><g>
<path d="M441.0 20h213.0"></path></g><path d="M654.0 20a10 10 0 0 1 10 10v0a10 10 0 0 0 10 10"></path><path d="M421.0 40h20"></path><g>
<path d="M441.0 40h0.0"></path><path d="M654.0 40h0.0"></path><g>
<path d="M441.0 40h0.0"></path><path d="M654.0 40h0.0"></path><g class="terminal ">
<path d="M441.0 40h0.0"></path><path d="M537.5 40h0.0"></path><rect height="22" rx="10" ry="10" width="96.5" x="441.0" y="29"></rect><text x="489.25" y="44">MIN&#95;COUNT</text></g><path d="M537.5 40h10"></path><path d="M547.5 40h10"></path><g class="non-terminal ">
<path d="M557.5 40h0.0"></path><path d="M654.0 40h0.0"></path><rect height="22" width="96.5" x="557.5" y="29"></rect><text x="605.75" y="44">min&#95;count</text></g></g></g><path d="M654.0 40h20"></path></g><g>
<path d="M674.0 40h0.0"></path><path d="M927.0 40h0.0"></path><path d="M674.0 40a10 10 0 0 0 10 -10v0a10 10 0 0 1 10 -10"></path><g>
<path d="M694.0 20h213.0"></path></g><path d="M907.0 20a10 10 0 0 1 10 10v0a10 10 0 0 0 10 10"></path><path d="M674.0 40h20"></path><g>
<path d="M694.0 40h0.0"></path><path d="M907.0 40h0.0"></path><g>
<path d="M694.0 40h0.0"></path><path d="M907.0 40h0.0"></path><g class="terminal ">
<path d="M694.0 40h0.0"></path><path d="M790.5 40h0.0"></path><rect height="22" rx="10" ry="10" width="96.5" x="694.0" y="29"></rect><text x="742.25" y="44">MAX&#95;COUNT</text></g><path d="M790.5 40h10"></path><path d="M800.5 40h10"></path><g class="non-terminal ">
<path d="M810.5 40h0.0"></path><path d="M907.0 40h0.0"></path><rect height="22" width="96.5" x="810.5" y="29"></rect><text x="858.75" y="44">max&#95;count</text></g></g></g><path d="M907.0 40h20"></path></g></g><path d="M927.0 40h10"></path><path d="M 937.0 40 h 20 m -10 -10 v 20 m 10 -20 v 20"></path></g></svg>