<svg class="railroad-diagram" height="221" viewBox="0 0 1344.5 221" width="1344.5" xmlns="http://www.w3.org/2000/svg" xmlns:xlink="http://www.w3.org/1999/xlink">
<defs>
<style type="text/css"><![CDATA[
svg.railroad-diagram { background-color: transparent; }
.terminal rect { fill: #DC382D !important; stroke: #DC382D !important; }
.terminal text { fill: white !important; font-weight: bold; }
.nonterminal rect { fill: none !important; stroke: #DC382D !important; stroke-width: 2; }
.nonterminal text { fill: #DC382D !important; font-weight: bold; }
path { stroke: #DC382D !important; stroke-width: 2; fill: none; }
circle { fill: #DC382D !important; stroke: #DC382D !important; }
]]></style>
</defs>
<g transform="translate(.5 .5)">
<style>/* <![CDATA[ */
	svg.railroad-diagram {
		background-color: transparent;
	}
	svg.railroad-diagram path {
		stroke-width:3;
		stroke: #DC382D;
		fill:rgba(0,0,0,0);
	}
	svg.railroad-diagram text {
		font:bold 14px monospace;
		text-anchor:middle;
	}
	svg.railroad-diagram text.label{
		text-anchor:start;
	}
	svg.railroad-diagram text.comment{
		font:italic 12px monospace;
	}
	svg.railroad-diagram rect{
		stroke-width:3;
		stroke: #DC382D;
		fill: none;
	}
	svg.railroad-diagram rect.group-box {
		stroke: #DC382D;
		stroke-dasharray: 10 5;
		fill: none;
	}

/* ]]> */
</style><g>
<path d="M20 30v20m10 -20v20m-10 -10h20"></path></g><path d="M40 40h10"></path><g>
<path d="M50 40h0.0"></path><path d="M1294.5 40h0.0"></path><g class="terminal ">
<path d="M50.0 40h0.0"></path><path d="M146.5 40h0.0"></path><rect height="22" rx="10" ry="10" width="96.5" x="50.0" y="29"></rect><text x="98.25" y="44">TS.CREATE</text></g><path d="M146.5 40h10"></path><path d="M156.5 40h10"></path><g class="non-terminal ">
<path d="M166.5 40h0.0"></path><path d="M212.0 40h0.0"></path><rect height="22" width="45.5" x="166.5" y="29"></rect><text x="189.25" y="44">key</text></g><path d="M212.0 40h10"></path><g>
<path d="M222.0 40h0.0"></path><path d="M526.0 40h0.0"></path><path d="M222.0 40a10 10 0 0 0 10 -10v0a10 10 0 0 1 10 -10"></path><g>
<path d="M242.0 20h264.0"></path></g><path d="M506.0 20a10 10 0 0 1 10 10v0a10 10 0 0 0 10 10"></path><path d="M222.0 40h20"></path><g>
<path d="M242.0 40h0.0"></path><path d="M506.0 40h0.0"></path><g class="terminal ">
<path d="M242.0 40h0.0"></path><path d="M338.5 40h0.0"></path><rect height="22" rx="10" ry="10" width="96.5" x="242.0" y="29"></rect><text x="290.25" y="44">RETENTION</text></g><path d="M338.5 40h10"></path><path d="M348.5 40h10"></path><g class="non-terminal ">
<path d="M358.5 40h0.0"></path><path d="M506.0 40h0.0"></path><rect height="22" width="147.5" x="358.5" y="29"></rect><text x="432.25" y="44">retentionPeriod</text></g></g><path d="M506.0 40h20"></path></g><g>
<path d="M526.0 40h0.0"></path><path d="M728.0 40h0.0"></path><path d="M526.0 40a10 10 0 0 0 10 -10v0a10 10 0 0 1 10 -10"></path><g>
<path d="M546.0 20h162.0"></path></g><path d="M708.0 20a10 10 0 0 1 10 10v0a10 10 0 0 0 10 10"></path><path d="M526.0 40h20"></path><g>
<path d="M546.0 40h0.0"></path><path d="M708.0 40h0.0"></path><path d="M546.0 40h20"></path><g class="terminal ">
<path d="M566.0 40h0.0"></path><path d="M688.0 40h0.0"></path><rect height="22" rx="10" ry="10" width="122.0" x="566.0" y="29"></rect><text x="627.0" y="44">UNCOMPRESSED</text></g><path d="M688.0 40h20"></path><path d="M546.0 40a10 10 0 0 1 10 10v10a10 10 0 0 0 10 10"></path><g class="terminal ">
<path d="M566.0 70h8.5"></path><path d="M679.5 70h8.5"></path><rect height="22" rx="10" ry="10" width="105.0" x="574.5" y="59"></rect><text x="627.0" y="74">COMPRESSED</text></g><path d="M688.0 70a10 10 0 0 0 10 -10v-10a10 10 0 0 1 10 -10"></path></g><path d="M708.0 40h20"></path></g><g>
<path d="M728.0 40h0.0"></path><path d="M947.0 40h0.0"></path><path d="M728.0 40a10 10 0 0 0 10 -10v0a10 10 0 0 1 10 -10"></path><g>
<path d="M748.0 20h179.0"></path></g><path d="M927.0 20a10 10 0 0 1 10 10v0a10 10 0 0 0 10 10"></path><path d="M728.0 40h20"></path><g>
<path d="M748.0 40h0.0"></path><path d="M927.0 40h0.0"></path><g class="terminal ">
<path d="M748.0 40h0.0"></path><path d="M853.0 40h0.0"></path><rect height="22" rx="10" ry="10" width="105.0" x="748.0" y="29"></rect><text x="800.5" y="44">CHUNK&#95;SIZE</text></g><path d="M853.0 40h10"></path><path d="M863.0 40h10"></path><g class="non-terminal ">
<path d="M873.0 40h0.0"></path><path d="M927.0 40h0.0"></path><rect height="22" width="54.0" x="873.0" y="29"></rect><text x="900.0" y="44">size</text></g></g><path d="M927.0 40h20"></path></g><g>
<path d="M947.0 40h0.0"></path><path d="M1089.5 40h0.0"></path><path d="M947.0 40a10 10 0 0 0 10 -10v0a10 10 0 0 1 10 -10"></path><g>
<path d="M967.0 20h102.5"></path></g><path d="M1069.5 20a10 10 0 0 1 10 10v0a10 10 0 0 0 10 10"></path><path d="M947.0 40h20"></path><g>
<path d="M967.0 40h0.0"></path><path d="M1069.5 40h0.0"></path><path d="M967.0 40h20"></path><g class="terminal ">
<path d="M987.0 40h0.0"></path><path d="M1049.5 40h0.0"></path><rect height="22" rx="10" ry="10" width="62.5" x="987.0" y="29"></rect><text x="1018.25" y="44">BLOCK</text></g><path d="M1049.5 40h20"></path><path d="M967.0 40a10 10 0 0 1 10 10v10a10 10 0 0 0 10 10"></path><g class="terminal ">
<path d="M987.0 70h0.0"></path><path d="M1049.5 70h0.0"></path><rect height="22" rx="10" ry="10" width="62.5" x="987.0" y="59"></rect><text x="1018.25" y="74">FIRST</text></g><path d="M1049.5 70a10 10 0 0 0 10 -10v-10a10 10 0 0 1 10 -10"></path><path d="M967.0 40a10 10 0 0 1 10 10v40a10 10 0 0 0 10 10"></path><g class="terminal ">
<path d="M987.0 100h4.25"></path><path d="M1045.25 100h4.25"></path><rect height="22" rx="10" ry="10" width="54.0" x="991.25" y="89"></rect><text x="1018.25" y="104">LAST</text></g><path d="M1049.5 100a10 10 0 0 0 10 -10v-40a10 10 0 0 1 10 -10"></path><path d="M967.0 40a10 10 0 0 1 10 10v70a10 10 0 0 0 10 10"></path><g class="terminal ">
<path d="M987.0 130h8.5"></path><path d="M1041.0 130h8.5"></path><rect height="22" rx="10" ry="10" width="45.5" x="995.5" y="119"></rect><text x="1018.25" y="134">MIN</text></g><path d="M1049.5 130a10 10 0 0 0 10 -10v-70a10 10 0 0 1 10 -10"></path><path d="M967.0 40a10 10 0 0 1 10 10v100a10 10 0 0 0 10 10"></path><g class="terminal ">
<path d="M987.0 160h8.5"></path><path d="M1041.0 160h8.5"></path><rect height="22" rx="10" ry="10" width="45.5" x="995.5" y="149"></rect><text x="1018.25" y="164">MAX</text></g><path d="M1049.5 160a10 10 0 0 0 10 -10v-100a10 10 0 0 1 10 -10"></path><path d="M967.0 40a10 10 0 0 1 10 10v130a10 10 0 0 0 10 10"></path><g class="terminal ">
<path d="M987.0 190h8.5"></path><path d="M1041.0 190h8.5"></path><rect height="22" rx="10" ry="10" width="45.5" x="995.5" y="179"></rect><text x="1018.25" y="194">SUM</text></g><path d="M1049.5 190a10 10 0 0 0 10 -10v-130a10 10 0 0 1 10 -10"></path></g><path d="M1069.5 40h20"></path></g><g>
<path d="M1089.5 40h0.0"></path><path d="M1294.5 40h0.0"></path><path d="M1089.5 40a10 10 0 0 0 10 -10v0a10 10 0 0 1 10 -10"></path><g>
<path d="M1109.5 20h165.0"></path></g><path d="M1274.5 20a10 10 0 0 1 10 10v0a10 10 0 0 0 10 10"></path><path d="M1089.5 40h20"></path><g>
<path d="M1109.5 40h0.0"></path><path d="M1274.5 40h0.0"></path><path d="M1109.5 40h10"></path><g>
<path d="M1119.5 40h0.0"></path><path d="M1264.5 40h0.0"></path><g class="non-terminal ">
<path d="M1119.5 40h0.0"></path><path d="M1182.0 40h0.0"></path><rect height="22" width="62.5" x="1119.5" y="29"></rect><text x="1150.75" y="44">label</text></g><path d="M1182.0 40h10"></path><path d="M1192.0 40h10"></path><g class="non-terminal ">
<path d="M1202.0 40h0.0"></path><path d="M1264.5 40h0.0"></path><rect height="22" width="62.5" x="1202.0" y="29"></rect><text x="1233.25" y="44">value</text></g></g><path d="M1264.5 40h10"></path><path d="M1119.5 40a10 10 0 0 0 -10 10v0a10 10 0 0 0 10 10"></path><g>
<path d="M1119.5 60h145.0"></path></g><path d="M1264.5 60a10 10 0 0 0 10 -10v0a10 10 0 0 0 -10 -10"></path></g><path d="M1274.5 40h20"></path></g></g><path d="M1294.5 40h10"></path><path d="M 1304.5 40 h 20 m -10 -10 v 20 m 10 -20 v 20"></path></g></svg>