<svg class="railroad-diagram" height="221" viewBox="0 0 2151.0 221" width="2151.0" xmlns="http://www.w3.org/2000/svg" xmlns:xlink="http://www.w3.org/1999/xlink">
<defs>
<style type="text/css"><![CDATA[
svg.railroad-diagram { background-color: transparent; }
.terminal rect { fill: #DC382D !important; stroke: #DC382D !important; }
.terminal text { fill: white !important; font-weight: bold; }
.nonterminal rect { fill: none !important; stroke: #DC382D !important; stroke-width: 2; }
.nonterminal text { fill: #DC382D !important; font-weight: bold; }
path { stroke: #DC382D !important; stroke-width: 2; fill: none; }
circle { fill: #DC382D !important; stroke: #DC382D !important; }
]]></style>
</defs>
<g transform="translate(.5 .5)">
<style>/* <![CDATA[ */
	svg.railroad-diagram {
		background-color: transparent;
	}
	svg.railroad-diagram path {
		stroke-width:3;
		stroke: #DC382D;
		fill:rgba(0,0,0,0);
	}
	svg.railroad-diagram text {
		font:bold 14px monospace;
		text-anchor:middle;
	}
	svg.railroad-diagram text.label{
		text-anchor:start;
	}
	svg.railroad-diagram text.comment{
		font:italic 12px monospace;
	}
	svg.railroad-diagram rect{
		stroke-width:3;
		stroke: #DC382D;
		fill: none;
	}
	svg.railroad-diagram rect.group-box {
		stroke: #DC382D;
		stroke-dasharray: 10 5;
		fill: none;
	}

/* ]]> */
</style><g>
<path d="M20 30v20m10 -20v20m-10 -10h20"></path></g><path d="M40 40h10"></path><g>
<path d="M50 40h0.0"></path><path d="M2101.0 40h0.0"></path><g class="terminal ">
<path d="M50.0 40h0.0"></path><path d="M146.5 40h0.0"></path><rect height="22" rx="10" ry="10" width="96.5" x="50.0" y="29"></rect><text x="98.25" y="44">TS.CREATE</text></g><path d="M146.5 40h10"></path><path d="M156.5 40h10"></path><g class="non-terminal ">
<path d="M166.5 40h0.0"></path><path d="M212.0 40h0.0"></path><rect height="22" width="45.5" x="166.5" y="29"></rect><text x="189.25" y="44">key</text></g><path d="M212.0 40h10"></path><g>
<path d="M222.0 40h0.0"></path><path d="M526.0 40h0.0"></path><path d="M222.0 40a10 10 0 0 0 10 -10v0a10 10 0 0 1 10 -10"></path><g>
<path d="M242.0 20h264.0"></path></g><path d="M506.0 20a10 10 0 0 1 10 10v0a10 10 0 0 0 10 10"></path><path d="M222.0 40h20"></path><g>
<path d="M242.0 40h0.0"></path><path d="M506.0 40h0.0"></path><g class="terminal ">
<path d="M242.0 40h0.0"></path><path d="M338.5 40h0.0"></path><rect height="22" rx="10" ry="10" width="96.5" x="242.0" y="29"></rect><text x="290.25" y="44">RETENTION</text></g><path d="M338.5 40h10"></path><path d="M348.5 40h10"></path><g class="non-terminal ">
<path d="M358.5 40h0.0"></path><path d="M506.0 40h0.0"></path><rect height="22" width="147.5" x="358.5" y="29"></rect><text x="432.25" y="44">retentionPeriod</text></g></g><path d="M506.0 40h20"></path></g><g>
<path d="M526.0 40h0.0"></path><path d="M826.0 40h0.0"></path><path d="M526.0 40a10 10 0 0 0 10 -10v0a10 10 0 0 1 10 -10"></path><g>
<path d="M546.0 20h260.0"></path></g><path d="M806.0 20a10 10 0 0 1 10 10v0a10 10 0 0 0 10 10"></path><path d="M526.0 40h20"></path><g>
<path d="M546.0 40h0.0"></path><path d="M806.0 40h0.0"></path><g class="terminal ">
<path d="M546.0 40h0.0"></path><path d="M634.0 40h0.0"></path><rect height="22" rx="10" ry="10" width="88.0" x="546.0" y="29"></rect><text x="590.0" y="44">ENCODING</text></g><path d="M634.0 40h10"></path><g>
<path d="M644.0 40h0.0"></path><path d="M806.0 40h0.0"></path><path d="M644.0 40h20"></path><g class="terminal ">
<path d="M664.0 40h0.0"></path><path d="M786.0 40h0.0"></path><rect height="22" rx="10" ry="10" width="122.0" x="664.0" y="29"></rect><text x="725.0" y="44">UNCOMPRESSED</text></g><path d="M786.0 40h20"></path><path d="M644.0 40a10 10 0 0 1 10 10v10a10 10 0 0 0 10 10"></path><g class="terminal ">
<path d="M664.0 70h8.5"></path><path d="M777.5 70h8.5"></path><rect height="22" rx="10" ry="10" width="105.0" x="672.5" y="59"></rect><text x="725.0" y="74">COMPRESSED</text></g><path d="M786.0 70a10 10 0 0 0 10 -10v-10a10 10 0 0 1 10 -10"></path></g></g><path d="M806.0 40h20"></path></g><g>
<path d="M826.0 40h0.0"></path><path d="M1045.0 40h0.0"></path><path d="M826.0 40a10 10 0 0 0 10 -10v0a10 10 0 0 1 10 -10"></path><g>
<path d="M846.0 20h179.0"></path></g><path d="M1025.0 20a10 10 0 0 1 10 10v0a10 10 0 0 0 10 10"></path><path d="M826.0 40h20"></path><g>
<path d="M846.0 40h0.0"></path><path d="M1025.0 40h0.0"></path><g class="terminal ">
<path d="M846.0 40h0.0"></path><path d="M951.0 40h0.0"></path><rect height="22" rx="10" ry="10" width="105.0" x="846.0" y="29"></rect><text x="898.5" y="44">CHUNK&#95;SIZE</text></g><path d="M951.0 40h10"></path><path d="M961.0 40h10"></path><g class="non-terminal ">
<path d="M971.0 40h0.0"></path><path d="M1025.0 40h0.0"></path><rect height="22" width="54.0" x="971.0" y="29"></rect><text x="998.0" y="44">size</text></g></g><path d="M1025.0 40h20"></path></g><g>
<path d="M1045.0 40h0.0"></path><path d="M1353.5 40h0.0"></path><path d="M1045.0 40a10 10 0 0 0 10 -10v0a10 10 0 0 1 10 -10"></path><g>
<path d="M1065.0 20h268.5"></path></g><path d="M1333.5 20a10 10 0 0 1 10 10v0a10 10 0 0 0 10 10"></path><path d="M1045.0 40h20"></path><g>
<path d="M1065.0 40h0.0"></path><path d="M1333.5 40h0.0"></path><g class="terminal ">
<path d="M1065.0 40h0.0"></path><path d="M1221.0 40h0.0"></path><rect height="22" rx="10" ry="10" width="156.0" x="1065.0" y="29"></rect><text x="1143.0" y="44">DUPLICATE&#95;POLICY</text></g><path d="M1221.0 40h10"></path><g>
<path d="M1231.0 40h0.0"></path><path d="M1333.5 40h0.0"></path><path d="M1231.0 40h20"></path><g class="terminal ">
<path d="M1251.0 40h0.0"></path><path d="M1313.5 40h0.0"></path><rect height="22" rx="10" ry="10" width="62.5" x="1251.0" y="29"></rect><text x="1282.25" y="44">BLOCK</text></g><path d="M1313.5 40h20"></path><path d="M1231.0 40a10 10 0 0 1 10 10v10a10 10 0 0 0 10 10"></path><g class="terminal ">
<path d="M1251.0 70h0.0"></path><path d="M1313.5 70h0.0"></path><rect height="22" rx="10" ry="10" width="62.5" x="1251.0" y="59"></rect><text x="1282.25" y="74">FIRST</text></g><path d="M1313.5 70a10 10 0 0 0 10 -10v-10a10 10 0 0 1 10 -10"></path><path d="M1231.0 40a10 10 0 0 1 10 10v40a10 10 0 0 0 10 10"></path><g class="terminal ">
<path d="M1251.0 100h4.25"></path><path d="M1309.25 100h4.25"></path><rect height="22" rx="10" ry="10" width="54.0" x="1255.25" y="89"></rect><text x="1282.25" y="104">LAST</text></g><path d="M1313.5 100a10 10 0 0 0 10 -10v-40a10 10 0 0 1 10 -10"></path><path d="M1231.0 40a10 10 0 0 1 10 10v70a10 10 0 0 0 10 10"></path><g class="terminal ">
<path d="M1251.0 130h8.5"></path><path d="M1305.0 130h8.5"></path><rect height="22" rx="10" ry="10" width="45.5" x="1259.5" y="119"></rect><text x="1282.25" y="134">MIN</text></g><path d="M1313.5 130a10 10 0 0 0 10 -10v-70a10 10 0 0 1 10 -10"></path><path d="M1231.0 40a10 10 0 0 1 10 10v100a10 10 0 0 0 10 10"></path><g class="terminal ">
<path d="M1251.0 160h8.5"></path><path d="M1305.0 160h8.5"></path><rect height="22" rx="10" ry="10" width="45.5" x="1259.5" y="149"></rect><text x="1282.25" y="164">MAX</text></g><path d="M1313.5 160a10 10 0 0 0 10 -10v-100a10 10 0 0 1 10 -10"></path><path d="M1231.0 40a10 10 0 0 1 10 10v130a10 10 0 0 0 10 10"></path><g class="terminal ">
<path d="M1251.0 190h8.5"></path><path d="M1305.0 190h8.5"></path><rect height="22" rx="10" ry="10" width="45.5" x="1259.5" y="179"></rect><text x="1282.25" y="194">SUM</text></g><path d="M1313.5 190a10 10 0 0 0 10 -10v-130a10 10 0 0 1 10 -10"></path></g></g><path d="M1333.5 40h20"></path></g><g>
<path d="M1353.5 40h0.0"></path><path d="M1825.0 40h0.0"></path><path d="M1353.5 40a10 10 0 0 0 10 -10v0a10 10 0 0 1 10 -10"></path><g>
<path d="M1373.5 20h431.5"></path></g><path d="M1805.0 20a10 10 0 0 1 10 10v0a10 10 0 0 0 10 10"></path><path d="M1353.5 40h20"></path><g>
<path d="M1373.5 40h0.0"></path><path d="M1805.0 40h0.0"></path><g class="terminal ">
<path d="M1373.5 40h0.0"></path><path d="M1444.5 40h0.0"></path><rect height="22" rx="10" ry="10" width="71.0" x="1373.5" y="29"></rect><text x="1409.0" y="44">IGNORE</text></g><path d="M1444.5 40h10"></path><path d="M1454.5 40h10"></path><g class="non-terminal ">
<path d="M1464.5 40h0.0"></path><path d="M1629.0 40h0.0"></path><rect height="22" width="164.5" x="1464.5" y="29"></rect><text x="1546.75" y="44">ignoreMaxTimediff</text></g><path d="M1629.0 40h10"></path><path d="M1639.0 40h10"></path><g class="non-terminal ">
<path d="M1649.0 40h0.0"></path><path d="M1805.0 40h0.0"></path><rect height="22" width="156.0" x="1649.0" y="29"></rect><text x="1727.0" y="44">ignoreMaxValDiff</text></g></g><path d="M1805.0 40h20"></path></g><g>
<path d="M1825.0 40h0.0"></path><path d="M2101.0 40h0.0"></path><path d="M1825.0 40a10 10 0 0 0 10 -10v0a10 10 0 0 1 10 -10"></path><g>
<path d="M1845.0 20h236.0"></path></g><path d="M2081.0 20a10 10 0 0 1 10 10v0a10 10 0 0 0 10 10"></path><path d="M1825.0 40h20"></path><g>
<path d="M1845.0 40h0.0"></path><path d="M2081.0 40h0.0"></path><g class="terminal ">
<path d="M1845.0 40h0.0"></path><path d="M1916.0 40h0.0"></path><rect height="22" rx="10" ry="10" width="71.0" x="1845.0" y="29"></rect><text x="1880.5" y="44">LABELS</text></g><path d="M1916.0 40h10"></path><path d="M1926.0 40h10"></path><g class="non-terminal ">
<path d="M1936.0 40h0.0"></path><path d="M1998.5 40h0.0"></path><rect height="22" width="62.5" x="1936.0" y="29"></rect><text x="1967.25" y="44">label</text></g><path d="M1998.5 40h10"></path><path d="M2008.5 40h10"></path><g class="non-terminal ">
<path d="M2018.5 40h0.0"></path><path d="M2081.0 40h0.0"></path><rect height="22" width="62.5" x="2018.5" y="29"></rect><text x="2049.75" y="44">value</text></g></g><path d="M2081.0 40h20"></path></g></g><path d="M2101.0 40h10"></path><path d="M 2111.0 40 h 20 m -10 -10 v 20 m 10 -20 v 20"></path></g></svg>