<svg class="railroad-diagram" height="499" viewBox="0 0 3670.0 499" width="3670.0" xmlns="http://www.w3.org/2000/svg" xmlns:xlink="http://www.w3.org/1999/xlink">
<defs>
<style type="text/css"><![CDATA[
svg.railroad-diagram { background-color: transparent; }
.terminal rect { fill: #DC382D !important; stroke: #DC382D !important; }
.terminal text { fill: white !important; font-weight: bold; }
.nonterminal rect { fill: none !important; stroke: #DC382D !important; stroke-width: 2; }
.nonterminal text { fill: #DC382D !important; font-weight: bold; }
path { stroke: #DC382D !important; stroke-width: 2; fill: none; }
circle { fill: #DC382D !important; stroke: #DC382D !important; }
]]></style>
</defs>
<g transform="translate(.5 .5)">
<style>/* <![CDATA[ */
	svg.railroad-diagram {
		background-color: transparent;
	}
	svg.railroad-diagram path {
		stroke-width:3;
		stroke: #DC382D;
		fill:rgba(0,0,0,0);
	}
	svg.railroad-diagram text {
		font:bold 14px monospace;
		text-anchor:middle;
	}
	svg.railroad-diagram text.label{
		text-anchor:start;
	}
	svg.railroad-diagram text.comment{
		font:italic 12px monospace;
	}
	svg.railroad-diagram rect{
		stroke-width:3;
		stroke: #DC382D;
		fill: none;
	}
	svg.railroad-diagram rect.group-box {
		stroke: #DC382D;
		stroke-dasharray: 10 5;
		fill: none;
	}

/* ]]> */
</style><g>
<path d="M20 38v20m10 -20v20m-10 -10h20"></path></g><path d="M40 48h10"></path><g>
<path d="M50 48h0.0"></path><path d="M3620.0 48h0.0"></path><g class="terminal ">
<path d="M50.0 48h0.0"></path><path d="M146.5 48h0.0"></path><rect height="22" rx="10" ry="10" width="96.5" x="50.0" y="37"></rect><text x="98.25" y="52">TS.MRANGE</text></g><path d="M146.5 48h10"></path><path d="M156.5 48h10"></path><g class="non-terminal ">
<path d="M166.5 48h0.0"></path><path d="M297.0 48h0.0"></path><rect height="22" width="130.5" x="166.5" y="37"></rect><text x="231.75" y="52">fromTimestamp</text></g><path d="M297.0 48h10"></path><path d="M307.0 48h10"></path><g class="non-terminal ">
<path d="M317.0 48h0.0"></path><path d="M430.5 48h0.0"></path><rect height="22" width="113.5" x="317.0" y="37"></rect><text x="373.75" y="52">toTimestamp</text></g><path d="M430.5 48h10"></path><g>
<path d="M440.5 48h0.0"></path><path d="M551.5 48h0.0"></path><path d="M440.5 48a10 10 0 0 0 10 -10v0a10 10 0 0 1 10 -10"></path><g>
<path d="M460.5 28h71.0"></path></g><path d="M531.5 28a10 10 0 0 1 10 10v0a10 10 0 0 0 10 10"></path><path d="M440.5 48h20"></path><g class="terminal ">
<path d="M460.5 48h0.0"></path><path d="M531.5 48h0.0"></path><rect height="22" rx="10" ry="10" width="71.0" x="460.5" y="37"></rect><text x="496.0" y="52">LATEST</text></g><path d="M531.5 48h20"></path></g><g>
<path d="M551.5 48h0.0"></path><path d="M870.0 48h0.0"></path><path d="M551.5 48a10 10 0 0 0 10 -10v0a10 10 0 0 1 10 -10"></path><g>
<path d="M571.5 28h278.5"></path></g><path d="M850.0 28a10 10 0 0 1 10 10v0a10 10 0 0 0 10 10"></path><path d="M551.5 48h20"></path><g>
<path d="M571.5 48h0.0"></path><path d="M850.0 48h0.0"></path><path d="M571.5 48h10"></path><g>
<path d="M581.5 48h0.0"></path><path d="M840.0 48h0.0"></path><g class="terminal ">
<path d="M581.5 48h0.0"></path><path d="M703.5 48h0.0"></path><rect height="22" rx="10" ry="10" width="122.0" x="581.5" y="37"></rect><text x="642.5" y="52">FILTER&#95;BY&#95;TS</text></g><path d="M703.5 48h10"></path><path d="M713.5 48h10"></path><g>
<path d="M723.5 48h0.0"></path><path d="M840.0 48h0.0"></path><path d="M723.5 48h10"></path><g class="non-terminal ">
<path d="M733.5 48h0.0"></path><path d="M830.0 48h0.0"></path><rect height="22" width="96.5" x="733.5" y="37"></rect><text x="781.75" y="52">timestamp</text></g><path d="M830.0 48h10"></path><path d="M733.5 48a10 10 0 0 0 -10 10v0a10 10 0 0 0 10 10"></path><g>
<path d="M733.5 68h96.5"></path></g><path d="M830.0 68a10 10 0 0 0 10 -10v0a10 10 0 0 0 -10 -10"></path></g></g><path d="M840.0 48h10"></path><path d="M581.5 48a10 10 0 0 0 -10 10v8a10 10 0 0 0 10 10"></path><g>
<path d="M581.5 76h258.5"></path></g><path d="M840.0 76a10 10 0 0 0 10 -10v-8a10 10 0 0 0 -10 -10"></path></g><path d="M850.0 48h20"></path></g><g>
<path d="M870.0 48h0.0"></path><path d="M1188.5 48h0.0"></path><path d="M870.0 48a10 10 0 0 0 10 -10v0a10 10 0 0 1 10 -10"></path><g>
<path d="M890.0 28h278.5"></path></g><path d="M1168.5 28a10 10 0 0 1 10 10v0a10 10 0 0 0 10 10"></path><path d="M870.0 48h20"></path><g>
<path d="M890.0 48h0.0"></path><path d="M1168.5 48h0.0"></path><g class="terminal ">
<path d="M890.0 48h0.0"></path><path d="M1037.5 48h0.0"></path><rect height="22" rx="10" ry="10" width="147.5" x="890.0" y="37"></rect><text x="963.75" y="52">FILTER&#95;BY&#95;VALUE</text></g><path d="M1037.5 48h10"></path><path d="M1047.5 48h10"></path><g class="non-terminal ">
<path d="M1057.5 48h0.0"></path><path d="M1103.0 48h0.0"></path><rect height="22" width="45.5" x="1057.5" y="37"></rect><text x="1080.25" y="52">min</text></g><path d="M1103.0 48h10"></path><path d="M1113.0 48h10"></path><g class="non-terminal ">
<path d="M1123.0 48h0.0"></path><path d="M1168.5 48h0.0"></path><rect height="22" width="45.5" x="1123.0" y="37"></rect><text x="1145.75" y="52">max</text></g></g><path d="M1168.5 48h20"></path></g><g>
<path d="M1188.5 48h0.0"></path><path d="M1518.5 48h0.0"></path><path d="M1188.5 48a10 10 0 0 0 10 -10v0a10 10 0 0 1 10 -10"></path><g>
<path d="M1208.5 28h290.0"></path></g><path d="M1498.5 28a10 10 0 0 1 10 10v0a10 10 0 0 0 10 10"></path><path d="M1188.5 48h20"></path><g>
<path d="M1208.5 48h0.0"></path><path d="M1498.5 48h0.0"></path><path d="M1208.5 48h20"></path><g class="terminal ">
<path d="M1228.5 48h72.5"></path><path d="M1406.0 48h72.5"></path><rect height="22" rx="10" ry="10" width="105.0" x="1301.0" y="37"></rect><text x="1353.5" y="52">WITHLABELS</text></g><path d="M1478.5 48h20"></path><path d="M1208.5 48a10 10 0 0 1 10 10v10a10 10 0 0 0 10 10"></path><g>
<path d="M1228.5 78h0.0"></path><path d="M1478.5 78h0.0"></path><g class="terminal ">
<path d="M1228.5 78h0.0"></path><path d="M1376.0 78h0.0"></path><rect height="22" rx="10" ry="10" width="147.5" x="1228.5" y="67"></rect><text x="1302.25" y="82">SELECTED&#95;LABELS</text></g><path d="M1376.0 78h10"></path><path d="M1386.0 78h10"></path><g>
<path d="M1396.0 78h0.0"></path><path d="M1478.5 78h0.0"></path><path d="M1396.0 78h10"></path><g class="non-terminal ">
<path d="M1406.0 78h0.0"></path><path d="M1468.5 78h0.0"></path><rect height="22" width="62.5" x="1406.0" y="67"></rect><text x="1437.25" y="82">label</text></g><path d="M1468.5 78h10"></path><path d="M1406.0 78a10 10 0 0 0 -10 10v0a10 10 0 0 0 10 10"></path><g>
<path d="M1406.0 98h62.5"></path></g><path d="M1468.5 98a10 10 0 0 0 10 -10v0a10 10 0 0 0 -10 -10"></path></g></g><path d="M1478.5 78a10 10 0 0 0 10 -10v-10a10 10 0 0 1 10 -10"></path></g><path d="M1498.5 48h20"></path></g><g>
<path d="M1518.5 48h0.0"></path><path d="M1703.5 48h0.0"></path><path d="M1518.5 48a10 10 0 0 0 10 -10v0a10 10 0 0 1 10 -10"></path><g>
<path d="M1538.5 28h145.0"></path></g><path d="M1683.5 28a10 10 0 0 1 10 10v0a10 10 0 0 0 10 10"></path><path d="M1518.5 48h20"></path><g>
<path d="M1538.5 48h0.0"></path><path d="M1683.5 48h0.0"></path><g>
<path d="M1538.5 48h0.0"></path><path d="M1683.5 48h0.0"></path><g class="terminal ">
<path d="M1538.5 48h0.0"></path><path d="M1601.0 48h0.0"></path><rect height="22" rx="10" ry="10" width="62.5" x="1538.5" y="37"></rect><text x="1569.75" y="52">COUNT</text></g><path d="M1601.0 48h10"></path><path d="M1611.0 48h10"></path><g class="non-terminal ">
<path d="M1621.0 48h0.0"></path><path d="M1683.5 48h0.0"></path><rect height="22" width="62.5" x="1621.0" y="37"></rect><text x="1652.25" y="52">count</text></g></g></g><path d="M1683.5 48h20"></path></g><g>
<path d="M1703.5 48h0.0"></path><path d="M2791.0 48h0.0"></path><path d="M1703.5 48a10 10 0 0 0 10 -10v-8a10 10 0 0 1 10 -10"></path><g>
<path d="M1723.5 20h1047.5"></path></g><path d="M2771.0 20a10 10 0 0 1 10 10v8a10 10 0 0 0 10 10"></path><path d="M1703.5 48h20"></path><g>
<path d="M1723.5 48h0.0"></path><path d="M2771.0 48h0.0"></path><g>
<path d="M1723.5 48h0.0"></path><path d="M1942.5 48h0.0"></path><path d="M1723.5 48a10 10 0 0 0 10 -10v0a10 10 0 0 1 10 -10"></path><g>
<path d="M1743.5 28h179.0"></path></g><path d="M1922.5 28a10 10 0 0 1 10 10v0a10 10 0 0 0 10 10"></path><path d="M1723.5 48h20"></path><g>
<path d="M1743.5 48h0.0"></path><path d="M1922.5 48h0.0"></path><g>
<path d="M1743.5 48h0.0"></path><path d="M1922.5 48h0.0"></path><g class="terminal ">
<path d="M1743.5 48h0.0"></path><path d="M1806.0 48h0.0"></path><rect height="22" rx="10" ry="10" width="62.5" x="1743.5" y="37"></rect><text x="1774.75" y="52">ALIGN</text></g><path d="M1806.0 48h10"></path><path d="M1816.0 48h10"></path><g class="non-terminal ">
<path d="M1826.0 48h0.0"></path><path d="M1922.5 48h0.0"></path><rect height="22" width="96.5" x="1826.0" y="37"></rect><text x="1874.25" y="52">alignment</text></g></g></g><path d="M1922.5 48h20"></path></g><path d="M1942.5 48h10"></path><g>
<path d="M1952.5 48h0.0"></path><path d="M2771.0 48h0.0"></path><g class="terminal ">
<path d="M1952.5 48h0.0"></path><path d="M2066.0 48h0.0"></path><rect height="22" rx="10" ry="10" width="113.5" x="1952.5" y="37"></rect><text x="2009.25" y="52">AGGREGATION</text></g><path d="M2066.0 48h10"></path><path d="M2076.0 48h10"></path><g class="non-terminal ">
<path d="M2086.0 48h0.0"></path><path d="M2199.5 48h0.0"></path><rect height="22" width="113.5" x="2086.0" y="37"></rect><text x="2142.75" y="52">aggregators</text></g><path d="M2199.5 48h10"></path><path d="M2209.5 48h10"></path><g class="non-terminal ">
<path d="M2219.5 48h0.0"></path><path d="M2358.5 48h0.0"></path><rect height="22" width="139.0" x="2219.5" y="37"></rect><text x="2289.0" y="52">bucketDuration</text></g><path d="M2358.5 48h10"></path><g>
<path d="M2368.5 48h0.0"></path><path d="M2668.5 48h0.0"></path><path d="M2368.5 48a10 10 0 0 0 10 -10v0a10 10 0 0 1 10 -10"></path><g>
<path d="M2388.5 28h260.0"></path></g><path d="M2648.5 28a10 10 0 0 1 10 10v0a10 10 0 0 0 10 10"></path><path d="M2368.5 48h20"></path><g>
<path d="M2388.5 48h0.0"></path><path d="M2648.5 48h0.0"></path><g class="terminal ">
<path d="M2388.5 48h0.0"></path><path d="M2536.0 48h0.0"></path><rect height="22" rx="10" ry="10" width="147.5" x="2388.5" y="37"></rect><text x="2462.25" y="52">BUCKETTIMESTAMP</text></g><path d="M2536.0 48h10"></path><g>
<path d="M2546.0 48h0.0"></path><path d="M2648.5 48h0.0"></path><path d="M2546.0 48h20"></path><g class="terminal ">
<path d="M2566.0 48h8.5"></path><path d="M2620.0 48h8.5"></path><rect height="22" rx="10" ry="10" width="45.5" x="2574.5" y="37"></rect><text x="2597.25" y="52">mid</text></g><path d="M2628.5 48h20"></path><path d="M2546.0 48a10 10 0 0 1 10 10v10a10 10 0 0 0 10 10"></path><g class="terminal ">
<path d="M2566.0 78h0.0"></path><path d="M2628.5 78h0.0"></path><rect height="22" rx="10" ry="10" width="62.5" x="2566.0" y="67"></rect><text x="2597.25" y="82">start</text></g><path d="M2628.5 78a10 10 0 0 0 10 -10v-10a10 10 0 0 1 10 -10"></path><path d="M2546.0 48a10 10 0 0 1 10 10v40a10 10 0 0 0 10 10"></path><g class="terminal ">
<path d="M2566.0 108h8.5"></path><path d="M2620.0 108h8.5"></path><rect height="22" rx="10" ry="10" width="45.5" x="2574.5" y="97"></rect><text x="2597.25" y="112">end</text></g><path d="M2628.5 108a10 10 0 0 0 10 -10v-40a10 10 0 0 1 10 -10"></path><path d="M2546.0 48a10 10 0 0 1 10 10v70a10 10 0 0 0 10 10"></path><g class="terminal ">
<path d="M2566.0 138h17.0"></path><path d="M2611.5 138h17.0"></path><rect height="22" rx="10" ry="10" width="28.5" x="2583.0" y="127"></rect><text x="2597.25" y="142">+</text></g><path d="M2628.5 138a10 10 0 0 0 10 -10v-70a10 10 0 0 1 10 -10"></path><path d="M2546.0 48a10 10 0 0 1 10 10v100a10 10 0 0 0 10 10"></path><g class="terminal ">
<path d="M2566.0 168h17.0"></path><path d="M2611.5 168h17.0"></path><rect height="22" rx="10" ry="10" width="28.5" x="2583.0" y="157"></rect><text x="2597.25" y="172">-</text></g><path d="M2628.5 168a10 10 0 0 0 10 -10v-100a10 10 0 0 1 10 -10"></path><path d="M2546.0 48a10 10 0 0 1 10 10v130a10 10 0 0 0 10 10"></path><g class="terminal ">
<path d="M2566.0 198h17.0"></path><path d="M2611.5 198h17.0"></path><rect height="22" rx="10" ry="10" width="28.5" x="2583.0" y="187"></rect><text x="2597.25" y="202">~</text></g><path d="M2628.5 198a10 10 0 0 0 10 -10v-130a10 10 0 0 1 10 -10"></path></g></g><path d="M2648.5 48h20"></path></g><g>
<path d="M2668.5 48h0.0"></path><path d="M2771.0 48h0.0"></path><path d="M2668.5 48a10 10 0 0 0 10 -10v0a10 10 0 0 1 10 -10"></path><g>
<path d="M2688.5 28h62.5"></path></g><path d="M2751.0 28a10 10 0 0 1 10 10v0a10 10 0 0 0 10 10"></path><path d="M2668.5 48h20"></path><g class="terminal ">
<path d="M2688.5 48h0.0"></path><path d="M2751.0 48h0.0"></path><rect height="22" rx="10" ry="10" width="62.5" x="2688.5" y="37"></rect><text x="2719.75" y="52">EMPTY</text></g><path d="M2751.0 48h20"></path></g></g></g><path d="M2771.0 48h20"></path></g><path d="M2791.0 48h10"></path><g>
<path d="M2801.0 48h0.0"></path><path d="M3017.0 48h0.0"></path><g class="terminal ">
<path d="M2801.0 48h0.0"></path><path d="M2872.0 48h0.0"></path><rect height="22" rx="10" ry="10" width="71.0" x="2801.0" y="37"></rect><text x="2836.5" y="52">FILTER</text></g><path d="M2872.0 48h10"></path><path d="M2882.0 48h10"></path><g>
<path d="M2892.0 48h0.0"></path><path d="M3017.0 48h0.0"></path><path d="M2892.0 48h10"></path><g class="non-terminal ">
<path d="M2902.0 48h0.0"></path><path d="M3007.0 48h0.0"></path><rect height="22" width="105.0" x="2902.0" y="37"></rect><text x="2954.5" y="52">filterExpr</text></g><path d="M3007.0 48h10"></path><path d="M2902.0 48a10 10 0 0 0 -10 10v0a10 10 0 0 0 10 10"></path><g>
<path d="M2902.0 68h105.0"></path></g><path d="M3007.0 68a10 10 0 0 0 10 -10v0a10 10 0 0 0 -10 -10"></path></g></g><path d="M3017.0 48h10"></path><g>
<path d="M3027.0 48h0.0"></path><path d="M3458.0 48h0.0"></path><path d="M3027.0 48a10 10 0 0 0 10 -10v0a10 10 0 0 1 10 -10"></path><g>
<path d="M3047.0 28h391.0"></path></g><path d="M3438.0 28a10 10 0 0 1 10 10v0a10 10 0 0 0 10 10"></path><path d="M3027.0 48h20"></path><g>
<path d="M3047.0 48h0.0"></path><path d="M3438.0 48h0.0"></path><g class="terminal ">
<path d="M3047.0 48h0.0"></path><path d="M3126.5 48h0.0"></path><rect height="22" rx="10" ry="10" width="79.5" x="3047.0" y="37"></rect><text x="3086.75" y="52">GROUPBY</text></g><path d="M3126.5 48h10"></path><path d="M3136.5 48h10"></path><g class="non-terminal ">
<path d="M3146.5 48h0.0"></path><path d="M3209.0 48h0.0"></path><rect height="22" width="62.5" x="3146.5" y="37"></rect><text x="3177.75" y="52">label</text></g><path d="M3209.0 48h10"></path><path d="M3219.0 48h10"></path><g class="terminal ">
<path d="M3229.0 48h0.0"></path><path d="M3300.0 48h0.0"></path><rect height="22" rx="10" ry="10" width="71.0" x="3229.0" y="37"></rect><text x="3264.5" y="52">REDUCE</text></g><path d="M3300.0 48h10"></path><g>
<path d="M3310.0 48h0.0"></path><path d="M3438.0 48h0.0"></path><path d="M3310.0 48h20"></path><g class="terminal ">
<path d="M3330.0 48h21.25"></path><path d="M3396.75 48h21.25"></path><rect height="22" rx="10" ry="10" width="45.5" x="3351.25" y="37"></rect><text x="3374.0" y="52">avg</text></g><path d="M3418.0 48h20"></path><path d="M3310.0 48a10 10 0 0 1 10 10v10a10 10 0 0 0 10 10"></path><g class="terminal ">
<path d="M3330.0 78h21.25"></path><path d="M3396.75 78h21.25"></path><rect height="22" rx="10" ry="10" width="45.5" x="3351.25" y="67"></rect><text x="3374.0" y="82">sum</text></g><path d="M3418.0 78a10 10 0 0 0 10 -10v-10a10 10 0 0 1 10 -10"></path><path d="M3310.0 48a10 10 0 0 1 10 10v40a10 10 0 0 0 10 10"></path><g class="terminal ">
<path d="M3330.0 108h21.25"></path><path d="M3396.75 108h21.25"></path><rect height="22" rx="10" ry="10" width="45.5" x="3351.25" y="97"></rect><text x="3374.0" y="112">min</text></g><path d="M3418.0 108a10 10 0 0 0 10 -10v-40a10 10 0 0 1 10 -10"></path><path d="M3310.0 48a10 10 0 0 1 10 10v70a10 10 0 0 0 10 10"></path><g class="terminal ">
<path d="M3330.0 138h21.25"></path><path d="M3396.75 138h21.25"></path><rect height="22" rx="10" ry="10" width="45.5" x="3351.25" y="127"></rect><text x="3374.0" y="142">max</text></g><path d="M3418.0 138a10 10 0 0 0 10 -10v-70a10 10 0 0 1 10 -10"></path><path d="M3310.0 48a10 10 0 0 1 10 10v100a10 10 0 0 0 10 10"></path><g class="terminal ">
<path d="M3330.0 168h12.75"></path><path d="M3405.25 168h12.75"></path><rect height="22" rx="10" ry="10" width="62.5" x="3342.75" y="157"></rect><text x="3374.0" y="172">range</text></g><path d="M3418.0 168a10 10 0 0 0 10 -10v-100a10 10 0 0 1 10 -10"></path><path d="M3310.0 48a10 10 0 0 1 10 10v130a10 10 0 0 0 10 10"></path><g class="terminal ">
<path d="M3330.0 198h12.75"></path><path d="M3405.25 198h12.75"></path><rect height="22" rx="10" ry="10" width="62.5" x="3342.75" y="187"></rect><text x="3374.0" y="202">count</text></g><path d="M3418.0 198a10 10 0 0 0 10 -10v-130a10 10 0 0 1 10 -10"></path><path d="M3310.0 48a10 10 0 0 1 10 10v160a10 10 0 0 0 10 10"></path><g class="terminal ">
<path d="M3330.0 228h12.75"></path><path d="M3405.25 228h12.75"></path><rect height="22" rx="10" ry="10" width="62.5" x="3342.75" y="217"></rect><text x="3374.0" y="232">first</text></g><path d="M3418.0 228a10 10 0 0 0 10 -10v-160a10 10 0 0 1 10 -10"></path><path d="M3310.0 48a10 10 0 0 1 10 10v190a10 10 0 0 0 10 10"></path><g class="terminal ">
<path d="M3330.0 258h17.0"></path><path d="M3401.0 258h17.0"></path><rect height="22" rx="10" ry="10" width="54.0" x="3347.0" y="247"></rect><text x="3374.0" y="262">last</text></g><path d="M3418.0 258a10 10 0 0 0 10 -10v-190a10 10 0 0 1 10 -10"></path><path d="M3310.0 48a10 10 0 0 1 10 10v220a10 10 0 0 0 10 10"></path><g class="terminal ">
<path d="M3330.0 288h12.75"></path><path d="M3405.25 288h12.75"></path><rect height="22" rx="10" ry="10" width="62.5" x="3342.75" y="277"></rect><text x="3374.0" y="292">std.p</text></g><path d="M3418.0 288a10 10 0 0 0 10 -10v-220a10 10 0 0 1 10 -10"></path><path d="M3310.0 48a10 10 0 0 1 10 10v250a10 10 0 0 0 10 10"></path><g class="terminal ">
<path d="M3330.0 318h12.75"></path><path d="M3405.25 318h12.75"></path><rect height="22" rx="10" ry="10" width="62.5" x="3342.75" y="307"></rect><text x="3374.0" y="322">std.s</text></g><path d="M3418.0 318a10 10 0 0 0 10 -10v-250a10 10 0 0 1 10 -10"></path><path d="M3310.0 48a10 10 0 0 1 10 10v280a10 10 0 0 0 10 10"></path><g class="terminal ">
<path d="M3330.0 348h12.75"></path><path d="M3405.25 348h12.75"></path><rect height="22" rx="10" ry="10" width="62.5" x="3342.75" y="337"></rect><text x="3374.0" y="352">var.p</text></g><path d="M3418.0 348a10 10 0 0 0 10 -10v-280a10 10 0 0 1 10 -10"></path><path d="M3310.0 48a10 10 0 0 1 10 10v310a10 10 0 0 0 10 10"></path><g class="terminal ">
<path d="M3330.0 378h12.75"></path><path d="M3405.25 378h12.75"></path><rect height="22" rx="10" ry="10" width="62.5" x="3342.75" y="367"></rect><text x="3374.0" y="382">var.s</text></g><path d="M3418.0 378a10 10 0 0 0 10 -10v-310a10 10 0 0 1 10 -10"></path><path d="M3310.0 48a10 10 0 0 1 10 10v340a10 10 0 0 0 10 10"></path><g class="terminal ">
<path d="M3330.0 408h21.25"></path><path d="M3396.75 408h21.25"></path><rect height="22" rx="10" ry="10" width="45.5" x="3351.25" y="397"></rect><text x="3374.0" y="412">twa</text></g><path d="M3418.0 408a10 10 0 0 0 10 -10v-340a10 10 0 0 1 10 -10"></path><path d="M3310.0 48a10 10 0 0 1 10 10v370a10 10 0 0 0 10 10"></path><g class="terminal ">
<path d="M3330.0 438h0.0"></path><path d="M3418.0 438h0.0"></path><rect height="22" rx="10" ry="10" width="88.0" x="3330.0" y="427"></rect><text x="3374.0" y="442">countnan</text></g><path d="M3418.0 438a10 10 0 0 0 10 -10v-370a10 10 0 0 1 10 -10"></path><path d="M3310.0 48a10 10 0 0 1 10 10v400a10 10 0 0 0 10 10"></path><g class="terminal ">
<path d="M3330.0 468h0.0"></path><path d="M3418.0 468h0.0"></path><rect height="22" rx="10" ry="10" width="88.0" x="3330.0" y="457"></rect><text x="3374.0" y="472">countall</text></g><path d="M3418.0 468a10 10 0 0 0 10 -10v-400a10 10 0 0 1 10 -10"></path></g></g><path d="M3438.0 48h20"></path></g><g>
<path d="M3458.0 48h0.0"></path><path d="M3620.0 48h0.0"></path><path d="M3458.0 48a10 10 0 0 0 10 -10v0a10 10 0 0 1 10 -10"></path><g>
<path d="M3478.0 28h122.0"></path></g><path d="M3600.0 28a10 10 0 0 1 10 10v0a10 10 0 0 0 10 10"></path><path d="M3458.0 48h20"></path><g class="terminal ">
<path d="M3478.0 48h0.0"></path><path d="M3600.0 48h0.0"></path><rect height="22" rx="10" ry="10" width="122.0" x="3478.0" y="37"></rect><text x="3539.0" y="52">EXCLUDEEMPTY</text></g><path d="M3600.0 48h20"></path></g></g><path d="M3620.0 48h10"></path><path d="M 3630.0 48 h 20 m -10 -10 v 20 m 10 -20 v 20"></path></g></svg>