<svg class="railroad-diagram" height="229" viewBox="0 0 848.0 229" width="848.0" xmlns="http://www.w3.org/2000/svg" xmlns:xlink="http://www.w3.org/1999/xlink">
<defs>
<style type="text/css"><![CDATA[
svg.railroad-diagram { background-color: transparent; }
.terminal rect { fill: #DC382D !important; stroke: #DC382D !important; }
.terminal text { fill: white !important; font-weight: bold; }
.nonterminal rect { fill: none !important; stroke: #DC382D !important; stroke-width: 2; }
.nonterminal text { fill: #DC382D !important; font-weight: bold; }
path { stroke: #DC382D !important; stroke-width: 2; fill: none; }
circle { fill: #DC382D !important; stroke: #DC382D !important; }
]]></style>
</defs>
<g transform="translate(.5 .5)">
<style>/* <![CDATA[ */
	svg.railroad-diagram {
		background-color: transparent;
	}
	svg.railroad-diagram path {
		stroke-width:3;
		stroke: #DC382D;
		fill:rgba(0,0,0,0);
	}
	svg.railroad-diagram text {
		font:bold 14px monospace;
		text-anchor:middle;
	}
	svg.railroad-diagram text.label{
		text-anchor:start;
	}
	svg.railroad-diagram text.comment{
		font:italic 12px monospace;
	}
	svg.railroad-diagram rect{
		stroke-width:3;
		stroke: #DC382D;
		fill: none;
	}
	svg.railroad-diagram rect.group-box {
		stroke: #DC382D;
		stroke-dasharray: 10 5;
		fill: none;
	}

/* ]]> */
</style><g>
<path d="M20 30v20m10 -20v20m-10 -10h20"></path></g><path d="M40 40h10"></path><g>
<path d="M50 40h0.0"></path><path d="M798.0 40h0.0"></path><g class="terminal ">
<path d="M50.0 40h0.0"></path><path d="M129.5 40h0.0"></path><rect height="22" rx="10" ry="10" width="79.5" x="50.0" y="29"></rect><text x="89.75" y="44">TS.MGET</text></g><path d="M129.5 40h10"></path><g>
<path d="M139.5 40h0.0"></path><path d="M250.5 40h0.0"></path><path d="M139.5 40a10 10 0 0 0 10 -10v0a10 10 0 0 1 10 -10"></path><g>
<path d="M159.5 20h71.0"></path></g><path d="M230.5 20a10 10 0 0 1 10 10v0a10 10 0 0 0 10 10"></path><path d="M139.5 40h20"></path><g class="non-terminal ">
<path d="M159.5 40h0.0"></path><path d="M230.5 40h0.0"></path><rect height="22" width="71.0" x="159.5" y="29"></rect><text x="195.0" y="44">LATEST</text></g><path d="M230.5 40h20"></path></g><g>
<path d="M250.5 40h0.0"></path><path d="M589.0 40h0.0"></path><path d="M250.5 40a10 10 0 0 0 10 -10v0a10 10 0 0 1 10 -10"></path><g>
<path d="M270.5 20h298.5"></path></g><path d="M569.0 20a10 10 0 0 1 10 10v0a10 10 0 0 0 10 10"></path><path d="M250.5 40h20"></path><g>
<path d="M270.5 40h0.0"></path><path d="M569.0 40h0.0"></path><path d="M270.5 40h20"></path><g class="terminal ">
<path d="M290.5 40h76.75"></path><path d="M472.25 40h76.75"></path><rect height="22" rx="10" ry="10" width="105.0" x="367.25" y="29"></rect><text x="419.75" y="44">WITHLABELS</text></g><path d="M549.0 40h20"></path><path d="M270.5 40a10 10 0 0 1 10 10v10a10 10 0 0 0 10 10"></path><g>
<path d="M290.5 70h0.0"></path><path d="M549.0 70h0.0"></path><g class="terminal ">
<path d="M290.5 70h0.0"></path><path d="M438.0 70h0.0"></path><rect height="22" rx="10" ry="10" width="147.5" x="290.5" y="59"></rect><text x="364.25" y="74">SELECTED&#95;LABELS</text></g><path d="M438.0 70h10"></path><path d="M448.0 70h10"></path><g>
<path d="M458.0 70h0.0"></path><path d="M549.0 70h0.0"></path><path d="M458.0 70h10"></path><g class="non-terminal ">
<path d="M468.0 70h0.0"></path><path d="M539.0 70h0.0"></path><rect height="22" width="71.0" x="468.0" y="59"></rect><text x="503.5" y="74">label1</text></g><path d="M539.0 70h10"></path><path d="M468.0 70a10 10 0 0 0 -10 10v0a10 10 0 0 0 10 10"></path><g>
<path d="M468.0 90h71.0"></path></g><path d="M539.0 90a10 10 0 0 0 10 -10v0a10 10 0 0 0 -10 -10"></path></g></g><path d="M549.0 70a10 10 0 0 0 10 -10v-10a10 10 0 0 1 10 -10"></path></g><path d="M569.0 40h20"></path></g><path d="M589.0 40h10"></path><g>
<path d="M599.0 40h0.0"></path><path d="M798.0 40h0.0"></path><path d="M599.0 40h10"></path><g>
<path d="M609.0 40h0.0"></path><path d="M788.0 40h0.0"></path><path d="M609.0 40h20"></path><g class="non-terminal ">
<path d="M629.0 40h46.75"></path><path d="M721.25 40h46.75"></path><rect height="22" width="45.5" x="675.75" y="29"></rect><text x="698.5" y="44">l=v</text></g><path d="M768.0 40h20"></path><path d="M609.0 40a10 10 0 0 1 10 10v10a10 10 0 0 0 10 10"></path><g class="non-terminal ">
<path d="M629.0 70h42.5"></path><path d="M725.5 70h42.5"></path><rect height="22" width="54.0" x="671.5" y="59"></rect><text x="698.5" y="74">l!=v</text></g><path d="M768.0 70a10 10 0 0 0 10 -10v-10a10 10 0 0 1 10 -10"></path><path d="M609.0 40a10 10 0 0 1 10 10v40a10 10 0 0 0 10 10"></path><g class="non-terminal ">
<path d="M629.0 100h51.0"></path><path d="M717.0 100h51.0"></path><rect height="22" width="37.0" x="680.0" y="89"></rect><text x="698.5" y="104">l=</text></g><path d="M768.0 100a10 10 0 0 0 10 -10v-40a10 10 0 0 1 10 -10"></path><path d="M609.0 40a10 10 0 0 1 10 10v70a10 10 0 0 0 10 10"></path><g class="non-terminal ">
<path d="M629.0 130h46.75"></path><path d="M721.25 130h46.75"></path><rect height="22" width="45.5" x="675.75" y="119"></rect><text x="698.5" y="134">l!=</text></g><path d="M768.0 130a10 10 0 0 0 10 -10v-70a10 10 0 0 1 10 -10"></path><path d="M609.0 40a10 10 0 0 1 10 10v100a10 10 0 0 0 10 10"></path><g class="non-terminal ">
<path d="M629.0 160h4.25"></path><path d="M763.75 160h4.25"></path><rect height="22" width="130.5" x="633.25" y="149"></rect><text x="698.5" y="164">l=(v1,v2,...)</text></g><path d="M768.0 160a10 10 0 0 0 10 -10v-100a10 10 0 0 1 10 -10"></path><path d="M609.0 40a10 10 0 0 1 10 10v130a10 10 0 0 0 10 10"></path><g class="non-terminal ">
<path d="M629.0 190h0.0"></path><path d="M768.0 190h0.0"></path><rect height="22" width="139.0" x="629.0" y="179"></rect><text x="698.5" y="194">l!=(v1,v2,...)</text></g><path d="M768.0 190a10 10 0 0 0 10 -10v-130a10 10 0 0 1 10 -10"></path></g><path d="M788.0 40h10"></path><path d="M609.0 40a10 10 0 0 0 -10 10v149a10 10 0 0 0 10 10"></path><g>
<path d="M609.0 209h179.0"></path></g><path d="M788.0 209a10 10 0 0 0 10 -10v-149a10 10 0 0 0 -10 -10"></path></g></g><path d="M798.0 40h10"></path><path d="M 808.0 40 h 20 m -10 -10 v 20 m 10 -20 v 20"></path></g></svg>