<svg class="railroad-diagram" height="229" viewBox="0 0 668.5 229" width="668.5" xmlns="http://www.w3.org/2000/svg" xmlns:xlink="http://www.w3.org/1999/xlink">
<defs>
<style type="text/css"><![CDATA[
svg.railroad-diagram { background-color: transparent; }
.terminal rect { fill: #DC382D !important; stroke: #DC382D !important; }
.terminal text { fill: white !important; font-weight: bold; }
.nonterminal rect { fill: none !important; stroke: #DC382D !important; stroke-width: 2; }
.nonterminal text { fill: #DC382D !important; font-weight: bold; }
path { stroke: #DC382D !important; stroke-width: 2; fill: none; }
circle { fill: #DC382D !important; stroke: #DC382D !important; }
]]></style>
</defs>
<g transform="translate(.5 .5)">
<style>/* <![CDATA[ */
	svg.railroad-diagram {
		background-color: transparent;
	}
	svg.railroad-diagram path {
		stroke-width:3;
		stroke: #DC382D;
		fill:rgba(0,0,0,0);
	}
	svg.railroad-diagram text {
		font:bold 14px monospace;
		text-anchor:middle;
	}
	svg.railroad-diagram text.label{
		text-anchor:start;
	}
	svg.railroad-diagram text.comment{
		font:italic 12px monospace;
	}
	svg.railroad-diagram rect{
		stroke-width:3;
		stroke: #DC382D;
		fill: none;
	}
	svg.railroad-diagram rect.group-box {
		stroke: #DC382D;
		stroke-dasharray: 10 5;
		fill: none;
	}

/* ]]> */
</style><g>
<path d="M20 30v20m10 -20v20m-10 -10h20"></path></g><path d="M40 40h10"></path><g>
<path d="M50 40h0.0"></path><path d="M618.5 40h0.0"></path><g class="terminal ">
<path d="M50.0 40h0.0"></path><path d="M180.5 40h0.0"></path><rect height="22" rx="10" ry="10" width="130.5" x="50.0" y="29"></rect><text x="115.25" y="44">TS.QUERYINDEX</text></g><path d="M180.5 40h10"></path><path d="M190.5 40h10"></path><g>
<path d="M200.5 40h0.0"></path><path d="M618.5 40h0.0"></path><g>
<path d="M200.5 40h0.0"></path><path d="M379.5 40h0.0"></path><path d="M200.5 40h20"></path><g class="non-terminal ">
<path d="M220.5 40h46.75"></path><path d="M312.75 40h46.75"></path><rect height="22" width="45.5" x="267.25" y="29"></rect><text x="290.0" y="44">l=v</text></g><path d="M359.5 40h20"></path><path d="M200.5 40a10 10 0 0 1 10 10v10a10 10 0 0 0 10 10"></path><g class="non-terminal ">
<path d="M220.5 70h42.5"></path><path d="M317.0 70h42.5"></path><rect height="22" width="54.0" x="263.0" y="59"></rect><text x="290.0" y="74">l!=v</text></g><path d="M359.5 70a10 10 0 0 0 10 -10v-10a10 10 0 0 1 10 -10"></path><path d="M200.5 40a10 10 0 0 1 10 10v40a10 10 0 0 0 10 10"></path><g class="non-terminal ">
<path d="M220.5 100h51.0"></path><path d="M308.5 100h51.0"></path><rect height="22" width="37.0" x="271.5" y="89"></rect><text x="290.0" y="104">l=</text></g><path d="M359.5 100a10 10 0 0 0 10 -10v-40a10 10 0 0 1 10 -10"></path><path d="M200.5 40a10 10 0 0 1 10 10v70a10 10 0 0 0 10 10"></path><g class="non-terminal ">
<path d="M220.5 130h46.75"></path><path d="M312.75 130h46.75"></path><rect height="22" width="45.5" x="267.25" y="119"></rect><text x="290.0" y="134">l!=</text></g><path d="M359.5 130a10 10 0 0 0 10 -10v-70a10 10 0 0 1 10 -10"></path><path d="M200.5 40a10 10 0 0 1 10 10v100a10 10 0 0 0 10 10"></path><g class="non-terminal ">
<path d="M220.5 160h4.25"></path><path d="M355.25 160h4.25"></path><rect height="22" width="130.5" x="224.75" y="149"></rect><text x="290.0" y="164">l=(v1,v2,...)</text></g><path d="M359.5 160a10 10 0 0 0 10 -10v-100a10 10 0 0 1 10 -10"></path><path d="M200.5 40a10 10 0 0 1 10 10v130a10 10 0 0 0 10 10"></path><g class="non-terminal ">
<path d="M220.5 190h0.0"></path><path d="M359.5 190h0.0"></path><rect height="22" width="139.0" x="220.5" y="179"></rect><text x="290.0" y="194">l!=(v1,v2,...)</text></g><path d="M359.5 190a10 10 0 0 0 10 -10v-130a10 10 0 0 1 10 -10"></path></g><g>
<path d="M379.5 40h0.0"></path><path d="M618.5 40h0.0"></path><path d="M379.5 40a10 10 0 0 0 10 -10v0a10 10 0 0 1 10 -10"></path><g>
<path d="M399.5 20h199.0"></path></g><path d="M598.5 20a10 10 0 0 1 10 10v0a10 10 0 0 0 10 10"></path><path d="M379.5 40h20"></path><g>
<path d="M399.5 40h0.0"></path><path d="M598.5 40h0.0"></path><path d="M399.5 40h10"></path><g>
<path d="M409.5 40h0.0"></path><path d="M588.5 40h0.0"></path><path d="M409.5 40h20"></path><g class="non-terminal ">
<path d="M429.5 40h46.75"></path><path d="M521.75 40h46.75"></path><rect height="22" width="45.5" x="476.25" y="29"></rect><text x="499.0" y="44">l=v</text></g><path d="M568.5 40h20"></path><path d="M409.5 40a10 10 0 0 1 10 10v10a10 10 0 0 0 10 10"></path><g class="non-terminal ">
<path d="M429.5 70h42.5"></path><path d="M526.0 70h42.5"></path><rect height="22" width="54.0" x="472.0" y="59"></rect><text x="499.0" y="74">l!=v</text></g><path d="M568.5 70a10 10 0 0 0 10 -10v-10a10 10 0 0 1 10 -10"></path><path d="M409.5 40a10 10 0 0 1 10 10v40a10 10 0 0 0 10 10"></path><g class="non-terminal ">
<path d="M429.5 100h51.0"></path><path d="M517.5 100h51.0"></path><rect height="22" width="37.0" x="480.5" y="89"></rect><text x="499.0" y="104">l=</text></g><path d="M568.5 100a10 10 0 0 0 10 -10v-40a10 10 0 0 1 10 -10"></path><path d="M409.5 40a10 10 0 0 1 10 10v70a10 10 0 0 0 10 10"></path><g class="non-terminal ">
<path d="M429.5 130h46.75"></path><path d="M521.75 130h46.75"></path><rect height="22" width="45.5" x="476.25" y="119"></rect><text x="499.0" y="134">l!=</text></g><path d="M568.5 130a10 10 0 0 0 10 -10v-70a10 10 0 0 1 10 -10"></path><path d="M409.5 40a10 10 0 0 1 10 10v100a10 10 0 0 0 10 10"></path><g class="non-terminal ">
<path d="M429.5 160h4.25"></path><path d="M564.25 160h4.25"></path><rect height="22" width="130.5" x="433.75" y="149"></rect><text x="499.0" y="164">l=(v1,v2,...)</text></g><path d="M568.5 160a10 10 0 0 0 10 -10v-100a10 10 0 0 1 10 -10"></path><path d="M409.5 40a10 10 0 0 1 10 10v130a10 10 0 0 0 10 10"></path><g class="non-terminal ">
<path d="M429.5 190h0.0"></path><path d="M568.5 190h0.0"></path><rect height="22" width="139.0" x="429.5" y="179"></rect><text x="499.0" y="194">l!=(v1,v2,...)</text></g><path d="M568.5 190a10 10 0 0 0 10 -10v-130a10 10 0 0 1 10 -10"></path></g><path d="M588.5 40h10"></path><path d="M409.5 40a10 10 0 0 0 -10 10v149a10 10 0 0 0 10 10"></path><g>
<path d="M409.5 209h179.0"></path></g><path d="M588.5 209a10 10 0 0 0 10 -10v-149a10 10 0 0 0 -10 -10"></path></g><path d="M598.5 40h20"></path></g></g></g><path d="M618.5 40h10"></path><path d="M 628.5 40 h 20 m -10 -10 v 20 m 10 -20 v 20"></path></g></svg>