<svg class="railroad-diagram" height="101" viewBox="0 0 698.5 101" width="698.5" xmlns="http://www.w3.org/2000/svg" xmlns:xlink="http://www.w3.org/1999/xlink">
<defs>
<style type="text/css"><![CDATA[
svg.railroad-diagram { background-color: transparent; }
.terminal rect { fill: #DC382D !important; stroke: #DC382D !important; }
.terminal text { fill: white !important; font-weight: bold; }
.nonterminal rect { fill: none !important; stroke: #DC382D !important; stroke-width: 2; }
.nonterminal text { fill: #DC382D !important; font-weight: bold; }
path { stroke: #DC382D !important; stroke-width: 2; fill: none; }
circle { fill: #DC382D !important; stroke: #DC382D !important; }
]]></style>
</defs>
<g transform="translate(.5 .5)">
<style>/* <![CDATA[ */
	svg.railroad-diagram {
		background-color: transparent;
	}
	svg.railroad-diagram path {
		stroke-width:3;
		stroke: #DC382D;
		fill:rgba(0,0,0,0);
	}
	svg.railroad-diagram text {
		font:bold 14px monospace;
		text-anchor:middle;
	}
	svg.railroad-diagram text.label{
		text-anchor:start;
	}
	svg.railroad-diagram text.comment{
		font:italic 12px monospace;
	}
	svg.railroad-diagram rect{
		stroke-width:3;
		stroke: #DC382D;
		fill: none;
	}
	svg.railroad-diagram rect.group-box {
		stroke: #DC382D;
		stroke-dasharray: 10 5;
		fill: none;
	}

/* ]]> */
</style><g>
<path d="M20 30v20m10 -20v20m-10 -10h20"></path></g><path d="M40 40h10"></path><g>
<path d="M50 40h0.0"></path><path d="M648.5 40h0.0"></path><g class="terminal ">
<path d="M50.0 40h0.0"></path><path d="M189.0 40h0.0"></path><rect height="22" rx="10" ry="10" width="139.0" x="50.0" y="29"></rect><text x="119.5" y="44">TS.QUERYLABELS</text></g><path d="M189.0 40h10"></path><g>
<path d="M199.0 40h0.0"></path><path d="M392.5 40h0.0"></path><path d="M199.0 40h20"></path><g class="terminal ">
<path d="M219.0 40h41.25"></path><path d="M331.25 40h41.25"></path><rect height="22" rx="10" ry="10" width="71.0" x="260.25" y="29"></rect><text x="295.75" y="44">LABELS</text></g><path d="M372.5 40h20"></path><path d="M199.0 40a10 10 0 0 1 10 10v10a10 10 0 0 0 10 10"></path><g>
<path d="M219.0 70h0.0"></path><path d="M372.5 70h0.0"></path><g class="terminal ">
<path d="M219.0 70h0.0"></path><path d="M290.0 70h0.0"></path><rect height="22" rx="10" ry="10" width="71.0" x="219.0" y="59"></rect><text x="254.5" y="74">VALUES</text></g><path d="M290.0 70h10"></path><path d="M300.0 70h10"></path><g class="non-terminal ">
<path d="M310.0 70h0.0"></path><path d="M372.5 70h0.0"></path><rect height="22" width="62.5" x="310.0" y="59"></rect><text x="341.25" y="74">label</text></g></g><path d="M372.5 70a10 10 0 0 0 10 -10v-10a10 10 0 0 1 10 -10"></path></g><g>
<path d="M392.5 40h0.0"></path><path d="M648.5 40h0.0"></path><path d="M392.5 40a10 10 0 0 0 10 -10v0a10 10 0 0 1 10 -10"></path><g>
<path d="M412.5 20h216.0"></path></g><path d="M628.5 20a10 10 0 0 1 10 10v0a10 10 0 0 0 10 10"></path><path d="M392.5 40h20"></path><g>
<path d="M412.5 40h0.0"></path><path d="M628.5 40h0.0"></path><g class="terminal ">
<path d="M412.5 40h0.0"></path><path d="M483.5 40h0.0"></path><rect height="22" rx="10" ry="10" width="71.0" x="412.5" y="29"></rect><text x="448.0" y="44">FILTER</text></g><path d="M483.5 40h10"></path><path d="M493.5 40h10"></path><g>
<path d="M503.5 40h0.0"></path><path d="M628.5 40h0.0"></path><path d="M503.5 40h10"></path><g class="non-terminal ">
<path d="M513.5 40h0.0"></path><path d="M618.5 40h0.0"></path><rect height="22" width="105.0" x="513.5" y="29"></rect><text x="566.0" y="44">filterExpr</text></g><path d="M618.5 40h10"></path><path d="M513.5 40a10 10 0 0 0 -10 10v0a10 10 0 0 0 10 10"></path><g>
<path d="M513.5 60h105.0"></path></g><path d="M618.5 60a10 10 0 0 0 10 -10v0a10 10 0 0 0 -10 -10"></path></g></g><path d="M628.5 40h20"></path></g></g><path d="M648.5 40h10"></path><path d="M 658.5 40 h 20 m -10 -10 v 20 m 10 -20 v 20"></path></g></svg>