<svg class="railroad-diagram" height="71" viewBox="0 0 985.5 71" width="985.5" xmlns="http://www.w3.org/2000/svg" xmlns:xlink="http://www.w3.org/1999/xlink">
<defs>
<style type="text/css"><![CDATA[
svg.railroad-diagram { background-color: transparent; }
.terminal rect { fill: #DC382D !important; stroke: #DC382D !important; }
.terminal text { fill: white !important; font-weight: bold; }
.nonterminal rect { fill: none !important; stroke: #DC382D !important; stroke-width: 2; }
.nonterminal text { fill: #DC382D !important; font-weight: bold; }
path { stroke: #DC382D !important; stroke-width: 2; fill: none; }
circle { fill: #DC382D !important; stroke: #DC382D !important; }
]]></style>
</defs>
<g transform="translate(.5 .5)">
<style>/* <![CDATA[ */
	svg.railroad-diagram {
		background-color: transparent;
	}
	svg.railroad-diagram path {
		stroke-width:3;
		stroke: #DC382D;
		fill:rgba(0,0,0,0);
	}
	svg.railroad-diagram text {
		font:bold 14px monospace;
		text-anchor:middle;
	}
	svg.railroad-diagram text.label{
		text-anchor:start;
	}
	svg.railroad-diagram text.comment{
		font:italic 12px monospace;
	}
	svg.railroad-diagram rect{
		stroke-width:3;
		stroke: #DC382D;
		fill: none;
	}
	svg.railroad-diagram rect.group-box {
		stroke: #DC382D;
		stroke-dasharray: 10 5;
		fill: none;
	}

/* ]]> */
</style><g>
<path d="M20 30v20m10 -20v20m-10 -10h20"></path></g><path d="M40 40h10"></path><g>
<path d="M50 40h0.0"></path><path d="M935.5 40h0.0"></path><g class="terminal ">
<path d="M50.0 40h0.0"></path><path d="M129.5 40h0.0"></path><rect height="22" rx="10" ry="10" width="79.5" x="50.0" y="29"></rect><text x="89.75" y="44">TS.READ</text></g><path d="M129.5 40h10"></path><path d="M139.5 40h10"></path><g class="non-terminal ">
<path d="M149.5 40h0.0"></path><path d="M195.0 40h0.0"></path><rect height="22" width="45.5" x="149.5" y="29"></rect><text x="172.25" y="44">key</text></g><path d="M195.0 40h10"></path><path d="M205.0 40h10"></path><g class="non-terminal ">
<path d="M215.0 40h0.0"></path><path d="M311.5 40h0.0"></path><rect height="22" width="96.5" x="215.0" y="29"></rect><text x="263.25" y="44">timestamp</text></g><path d="M311.5 40h10"></path><g>
<path d="M321.5 40h0.0"></path><path d="M682.5 40h0.0"></path><path d="M321.5 40a10 10 0 0 0 10 -10v0a10 10 0 0 1 10 -10"></path><g>
<path d="M341.5 20h321.0"></path></g><path d="M662.5 20a10 10 0 0 1 10 10v0a10 10 0 0 0 10 10"></path><path d="M321.5 40h20"></path><g>
<path d="M341.5 40h0.0"></path><path d="M662.5 40h0.0"></path><g>
<path d="M341.5 40h0.0"></path><path d="M546.0 40h0.0"></path><g class="terminal ">
<path d="M341.5 40h0.0"></path><path d="M404.0 40h0.0"></path><rect height="22" rx="10" ry="10" width="62.5" x="341.5" y="29"></rect><text x="372.75" y="44">BLOCK</text></g><path d="M404.0 40h10"></path><path d="M414.0 40h10"></path><g class="non-terminal ">
<path d="M424.0 40h0.0"></path><path d="M546.0 40h0.0"></path><rect height="22" width="122.0" x="424.0" y="29"></rect><text x="485.0" y="44">milliseconds</text></g></g><path d="M546.0 40h10"></path><path d="M556.0 40h10"></path><g class="non-terminal ">
<path d="M566.0 40h0.0"></path><path d="M662.5 40h0.0"></path><rect height="22" width="96.5" x="566.0" y="29"></rect><text x="614.25" y="44">min&#95;count</text></g></g><path d="M662.5 40h20"></path></g><g>
<path d="M682.5 40h0.0"></path><path d="M935.5 40h0.0"></path><path d="M682.5 40a10 10 0 0 0 10 -10v0a10 10 0 0 1 10 -10"></path><g>
<path d="M702.5 20h213.0"></path></g><path d="M915.5 20a10 10 0 0 1 10 10v0a10 10 0 0 0 10 10"></path><path d="M682.5 40h20"></path><g>
<path d="M702.5 40h0.0"></path><path d="M915.5 40h0.0"></path><g>
<path d="M702.5 40h0.0"></path><path d="M915.5 40h0.0"></path><g class="terminal ">
<path d="M702.5 40h0.0"></path><path d="M799.0 40h0.0"></path><rect height="22" rx="10" ry="10" width="96.5" x="702.5" y="29"></rect><text x="750.75" y="44">MAX&#95;COUNT</text></g><path d="M799.0 40h10"></path><path d="M809.0 40h10"></path><g class="non-terminal ">
<path d="M819.0 40h0.0"></path><path d="M915.5 40h0.0"></path><rect height="22" width="96.5" x="819.0" y="29"></rect><text x="867.25" y="44">max&#95;count</text></g></g></g><path d="M915.5 40h20"></path></g></g><path d="M935.5 40h10"></path><path d="M 945.5 40 h 20 m -10 -10 v 20 m 10 -20 v 20"></path></g></svg>