<svg class="railroad-diagram" height="439" viewBox="0 0 2237.0 439" width="2237.0" xmlns="http://www.w3.org/2000/svg" xmlns:xlink="http://www.w3.org/1999/xlink">
<defs>
<style type="text/css"><![CDATA[
svg.railroad-diagram { background-color: transparent; }
.terminal rect { fill: #DC382D !important; stroke: #DC382D !important; }
.terminal text { fill: white !important; font-weight: bold; }
.nonterminal rect { fill: none !important; stroke: #DC382D !important; stroke-width: 2; }
.nonterminal text { fill: #DC382D !important; font-weight: bold; }
path { stroke: #DC382D !important; stroke-width: 2; fill: none; }
circle { fill: #DC382D !important; stroke: #DC382D !important; }
]]></style>
</defs>
<g transform="translate(.5 .5)">
<style>/* <![CDATA[ */
	svg.railroad-diagram {
		background-color: transparent;
	}
	svg.railroad-diagram path {
		stroke-width:3;
		stroke: #DC382D;
		fill:rgba(0,0,0,0);
	}
	svg.railroad-diagram text {
		font:bold 14px monospace;
		text-anchor:middle;
	}
	svg.railroad-diagram text.label{
		text-anchor:start;
	}
	svg.railroad-diagram text.comment{
		font:italic 12px monospace;
	}
	svg.railroad-diagram rect{
		stroke-width:3;
		stroke: #DC382D;
		fill: none;
	}
	svg.railroad-diagram rect.group-box {
		stroke: #DC382D;
		stroke-dasharray: 10 5;
		fill: none;
	}

/* ]]> */
</style><g>
<path d="M20 38v20m10 -20v20m-10 -10h20"></path></g><path d="M40 48h10"></path><g>
<path d="M50 48h0.0"></path><path d="M2187.0 48h0.0"></path><g class="terminal ">
<path d="M50.0 48h0.0"></path><path d="M138.0 48h0.0"></path><rect height="22" rx="10" ry="10" width="88.0" x="50.0" y="37"></rect><text x="94.0" y="52">TS.RANGE</text></g><path d="M138.0 48h10"></path><path d="M148.0 48h10"></path><g class="non-terminal ">
<path d="M158.0 48h0.0"></path><path d="M203.5 48h0.0"></path><rect height="22" width="45.5" x="158.0" y="37"></rect><text x="180.75" y="52">key</text></g><path d="M203.5 48h10"></path><path d="M213.5 48h10"></path><g class="non-terminal ">
<path d="M223.5 48h0.0"></path><path d="M354.0 48h0.0"></path><rect height="22" width="130.5" x="223.5" y="37"></rect><text x="288.75" y="52">fromTimestamp</text></g><path d="M354.0 48h10"></path><path d="M364.0 48h10"></path><g class="non-terminal ">
<path d="M374.0 48h0.0"></path><path d="M487.5 48h0.0"></path><rect height="22" width="113.5" x="374.0" y="37"></rect><text x="430.75" y="52">toTimestamp</text></g><path d="M487.5 48h10"></path><g>
<path d="M497.5 48h0.0"></path><path d="M608.5 48h0.0"></path><path d="M497.5 48a10 10 0 0 0 10 -10v0a10 10 0 0 1 10 -10"></path><g>
<path d="M517.5 28h71.0"></path></g><path d="M588.5 28a10 10 0 0 1 10 10v0a10 10 0 0 0 10 10"></path><path d="M497.5 48h20"></path><g class="non-terminal ">
<path d="M517.5 48h0.0"></path><path d="M588.5 48h0.0"></path><rect height="22" width="71.0" x="517.5" y="37"></rect><text x="553.0" y="52">LATEST</text></g><path d="M588.5 48h20"></path></g><g>
<path d="M608.5 48h0.0"></path><path d="M907.0 48h0.0"></path><path d="M608.5 48a10 10 0 0 0 10 -10v0a10 10 0 0 1 10 -10"></path><g>
<path d="M628.5 28h258.5"></path></g><path d="M887.0 28a10 10 0 0 1 10 10v0a10 10 0 0 0 10 10"></path><path d="M608.5 48h20"></path><g>
<path d="M628.5 48h0.0"></path><path d="M887.0 48h0.0"></path><path d="M628.5 48h10"></path><g>
<path d="M638.5 48h0.0"></path><path d="M877.0 48h0.0"></path><g class="terminal ">
<path d="M638.5 48h0.0"></path><path d="M760.5 48h0.0"></path><rect height="22" rx="10" ry="10" width="122.0" x="638.5" y="37"></rect><text x="699.5" y="52">FILTER&#95;BY&#95;TS</text></g><path d="M760.5 48h10"></path><path d="M770.5 48h10"></path><g class="non-terminal ">
<path d="M780.5 48h0.0"></path><path d="M877.0 48h0.0"></path><rect height="22" width="96.5" x="780.5" y="37"></rect><text x="828.75" y="52">Timestamp</text></g></g><path d="M877.0 48h10"></path><path d="M638.5 48a10 10 0 0 0 -10 10v0a10 10 0 0 0 10 10"></path><g>
<path d="M638.5 68h238.5"></path></g><path d="M877.0 68a10 10 0 0 0 10 -10v0a10 10 0 0 0 -10 -10"></path></g><path d="M887.0 48h20"></path></g><g>
<path d="M907.0 48h0.0"></path><path d="M1225.5 48h0.0"></path><path d="M907.0 48a10 10 0 0 0 10 -10v0a10 10 0 0 1 10 -10"></path><g>
<path d="M927.0 28h278.5"></path></g><path d="M1205.5 28a10 10 0 0 1 10 10v0a10 10 0 0 0 10 10"></path><path d="M907.0 48h20"></path><g>
<path d="M927.0 48h0.0"></path><path d="M1205.5 48h0.0"></path><g class="terminal ">
<path d="M927.0 48h0.0"></path><path d="M1074.5 48h0.0"></path><rect height="22" rx="10" ry="10" width="147.5" x="927.0" y="37"></rect><text x="1000.75" y="52">FILTER&#95;BY&#95;VALUE</text></g><path d="M1074.5 48h10"></path><path d="M1084.5 48h10"></path><g class="non-terminal ">
<path d="M1094.5 48h0.0"></path><path d="M1140.0 48h0.0"></path><rect height="22" width="45.5" x="1094.5" y="37"></rect><text x="1117.25" y="52">min</text></g><path d="M1140.0 48h10"></path><path d="M1150.0 48h10"></path><g class="non-terminal ">
<path d="M1160.0 48h0.0"></path><path d="M1205.5 48h0.0"></path><rect height="22" width="45.5" x="1160.0" y="37"></rect><text x="1182.75" y="52">max</text></g></g><path d="M1205.5 48h20"></path></g><g>
<path d="M1225.5 48h0.0"></path><path d="M1410.5 48h0.0"></path><path d="M1225.5 48a10 10 0 0 0 10 -10v0a10 10 0 0 1 10 -10"></path><g>
<path d="M1245.5 28h145.0"></path></g><path d="M1390.5 28a10 10 0 0 1 10 10v0a10 10 0 0 0 10 10"></path><path d="M1225.5 48h20"></path><g>
<path d="M1245.5 48h0.0"></path><path d="M1390.5 48h0.0"></path><g class="terminal ">
<path d="M1245.5 48h0.0"></path><path d="M1308.0 48h0.0"></path><rect height="22" rx="10" ry="10" width="62.5" x="1245.5" y="37"></rect><text x="1276.75" y="52">COUNT</text></g><path d="M1308.0 48h10"></path><path d="M1318.0 48h10"></path><g class="non-terminal ">
<path d="M1328.0 48h0.0"></path><path d="M1390.5 48h0.0"></path><rect height="22" width="62.5" x="1328.0" y="37"></rect><text x="1359.25" y="52">count</text></g></g><path d="M1390.5 48h20"></path></g><g>
<path d="M1410.5 48h0.0"></path><path d="M2187.0 48h0.0"></path><path d="M1410.5 48a10 10 0 0 0 10 -10v-8a10 10 0 0 1 10 -10"></path><g>
<path d="M1430.5 20h736.5"></path></g><path d="M2167.0 20a10 10 0 0 1 10 10v8a10 10 0 0 0 10 10"></path><path d="M1410.5 48h20"></path><g>
<path d="M1430.5 48h0.0"></path><path d="M2167.0 48h0.0"></path><g>
<path d="M1430.5 48h0.0"></path><path d="M1615.5 48h0.0"></path><path d="M1430.5 48a10 10 0 0 0 10 -10v0a10 10 0 0 1 10 -10"></path><g>
<path d="M1450.5 28h145.0"></path></g><path d="M1595.5 28a10 10 0 0 1 10 10v0a10 10 0 0 0 10 10"></path><path d="M1430.5 48h20"></path><g>
<path d="M1450.5 48h0.0"></path><path d="M1595.5 48h0.0"></path><g class="terminal ">
<path d="M1450.5 48h0.0"></path><path d="M1513.0 48h0.0"></path><rect height="22" rx="10" ry="10" width="62.5" x="1450.5" y="37"></rect><text x="1481.75" y="52">ALIGN</text></g><path d="M1513.0 48h10"></path><path d="M1523.0 48h10"></path><g class="non-terminal ">
<path d="M1533.0 48h0.0"></path><path d="M1595.5 48h0.0"></path><rect height="22" width="62.5" x="1533.0" y="37"></rect><text x="1564.25" y="52">value</text></g></g><path d="M1595.5 48h20"></path></g><g>
<path d="M1615.5 48h0.0"></path><path d="M1718.0 48h0.0"></path><path d="M1615.5 48h20"></path><g class="terminal ">
<path d="M1635.5 48h8.5"></path><path d="M1689.5 48h8.5"></path><rect height="22" rx="10" ry="10" width="45.5" x="1644.0" y="37"></rect><text x="1666.75" y="52">AVG</text></g><path d="M1698.0 48h20"></path><path d="M1615.5 48a10 10 0 0 1 10 10v10a10 10 0 0 0 10 10"></path><g class="terminal ">
<path d="M1635.5 78h0.0"></path><path d="M1698.0 78h0.0"></path><rect height="22" rx="10" ry="10" width="62.5" x="1635.5" y="67"></rect><text x="1666.75" y="82">FIRST</text></g><path d="M1698.0 78a10 10 0 0 0 10 -10v-10a10 10 0 0 1 10 -10"></path><path d="M1615.5 48a10 10 0 0 1 10 10v40a10 10 0 0 0 10 10"></path><g class="terminal ">
<path d="M1635.5 108h4.25"></path><path d="M1693.75 108h4.25"></path><rect height="22" rx="10" ry="10" width="54.0" x="1639.75" y="97"></rect><text x="1666.75" y="112">LAST</text></g><path d="M1698.0 108a10 10 0 0 0 10 -10v-40a10 10 0 0 1 10 -10"></path><path d="M1615.5 48a10 10 0 0 1 10 10v70a10 10 0 0 0 10 10"></path><g class="terminal ">
<path d="M1635.5 138h8.5"></path><path d="M1689.5 138h8.5"></path><rect height="22" rx="10" ry="10" width="45.5" x="1644.0" y="127"></rect><text x="1666.75" y="142">MIN</text></g><path d="M1698.0 138a10 10 0 0 0 10 -10v-70a10 10 0 0 1 10 -10"></path><path d="M1615.5 48a10 10 0 0 1 10 10v100a10 10 0 0 0 10 10"></path><g class="terminal ">
<path d="M1635.5 168h8.5"></path><path d="M1689.5 168h8.5"></path><rect height="22" rx="10" ry="10" width="45.5" x="1644.0" y="157"></rect><text x="1666.75" y="172">MAX</text></g><path d="M1698.0 168a10 10 0 0 0 10 -10v-100a10 10 0 0 1 10 -10"></path><path d="M1615.5 48a10 10 0 0 1 10 10v130a10 10 0 0 0 10 10"></path><g class="terminal ">
<path d="M1635.5 198h8.5"></path><path d="M1689.5 198h8.5"></path><rect height="22" rx="10" ry="10" width="45.5" x="1644.0" y="187"></rect><text x="1666.75" y="202">SUM</text></g><path d="M1698.0 198a10 10 0 0 0 10 -10v-130a10 10 0 0 1 10 -10"></path><path d="M1615.5 48a10 10 0 0 1 10 10v160a10 10 0 0 0 10 10"></path><g class="terminal ">
<path d="M1635.5 228h0.0"></path><path d="M1698.0 228h0.0"></path><rect height="22" rx="10" ry="10" width="62.5" x="1635.5" y="217"></rect><text x="1666.75" y="232">RANGE</text></g><path d="M1698.0 228a10 10 0 0 0 10 -10v-160a10 10 0 0 1 10 -10"></path><path d="M1615.5 48a10 10 0 0 1 10 10v190a10 10 0 0 0 10 10"></path><g class="terminal ">
<path d="M1635.5 258h0.0"></path><path d="M1698.0 258h0.0"></path><rect height="22" rx="10" ry="10" width="62.5" x="1635.5" y="247"></rect><text x="1666.75" y="262">COUNT</text></g><path d="M1698.0 258a10 10 0 0 0 10 -10v-190a10 10 0 0 1 10 -10"></path><path d="M1615.5 48a10 10 0 0 1 10 10v220a10 10 0 0 0 10 10"></path><g class="terminal ">
<path d="M1635.5 288h0.0"></path><path d="M1698.0 288h0.0"></path><rect height="22" rx="10" ry="10" width="62.5" x="1635.5" y="277"></rect><text x="1666.75" y="292">STD.P</text></g><path d="M1698.0 288a10 10 0 0 0 10 -10v-220a10 10 0 0 1 10 -10"></path><path d="M1615.5 48a10 10 0 0 1 10 10v250a10 10 0 0 0 10 10"></path><g class="terminal ">
<path d="M1635.5 318h0.0"></path><path d="M1698.0 318h0.0"></path><rect height="22" rx="10" ry="10" width="62.5" x="1635.5" y="307"></rect><text x="1666.75" y="322">STD.S</text></g><path d="M1698.0 318a10 10 0 0 0 10 -10v-250a10 10 0 0 1 10 -10"></path><path d="M1615.5 48a10 10 0 0 1 10 10v280a10 10 0 0 0 10 10"></path><g class="terminal ">
<path d="M1635.5 348h0.0"></path><path d="M1698.0 348h0.0"></path><rect height="22" rx="10" ry="10" width="62.5" x="1635.5" y="337"></rect><text x="1666.75" y="352">VAR.P</text></g><path d="M1698.0 348a10 10 0 0 0 10 -10v-280a10 10 0 0 1 10 -10"></path><path d="M1615.5 48a10 10 0 0 1 10 10v310a10 10 0 0 0 10 10"></path><g class="terminal ">
<path d="M1635.5 378h0.0"></path><path d="M1698.0 378h0.0"></path><rect height="22" rx="10" ry="10" width="62.5" x="1635.5" y="367"></rect><text x="1666.75" y="382">VAR.S</text></g><path d="M1698.0 378a10 10 0 0 0 10 -10v-310a10 10 0 0 1 10 -10"></path><path d="M1615.5 48a10 10 0 0 1 10 10v340a10 10 0 0 0 10 10"></path><g class="terminal ">
<path d="M1635.5 408h8.5"></path><path d="M1689.5 408h8.5"></path><rect height="22" rx="10" ry="10" width="45.5" x="1644.0" y="397"></rect><text x="1666.75" y="412">TWA</text></g><path d="M1698.0 408a10 10 0 0 0 10 -10v-340a10 10 0 0 1 10 -10"></path></g><path d="M1718.0 48h10"></path><g class="non-terminal ">
<path d="M1728.0 48h0.0"></path><path d="M1867.0 48h0.0"></path><rect height="22" width="139.0" x="1728.0" y="37"></rect><text x="1797.5" y="52">bucketDuration</text></g><path d="M1867.0 48h10"></path><g>
<path d="M1877.0 48h0.0"></path><path d="M2064.5 48h0.0"></path><path d="M1877.0 48a10 10 0 0 0 10 -10v0a10 10 0 0 1 10 -10"></path><g>
<path d="M1897.0 28h147.5"></path></g><path d="M2044.5 28a10 10 0 0 1 10 10v0a10 10 0 0 0 10 10"></path><path d="M1877.0 48h20"></path><g class="terminal ">
<path d="M1897.0 48h0.0"></path><path d="M2044.5 48h0.0"></path><rect height="22" rx="10" ry="10" width="147.5" x="1897.0" y="37"></rect><text x="1970.75" y="52">BUCKETTIMESTAMP</text></g><path d="M2044.5 48h20"></path></g><g>
<path d="M2064.5 48h0.0"></path><path d="M2167.0 48h0.0"></path><path d="M2064.5 48a10 10 0 0 0 10 -10v0a10 10 0 0 1 10 -10"></path><g>
<path d="M2084.5 28h62.5"></path></g><path d="M2147.0 28a10 10 0 0 1 10 10v0a10 10 0 0 0 10 10"></path><path d="M2064.5 48h20"></path><g class="terminal ">
<path d="M2084.5 48h0.0"></path><path d="M2147.0 48h0.0"></path><rect height="22" rx="10" ry="10" width="62.5" x="2084.5" y="37"></rect><text x="2115.75" y="52">EMPTY</text></g><path d="M2147.0 48h20"></path></g></g><path d="M2167.0 48h20"></path></g></g><path d="M2187.0 48h10"></path><path d="M 2197.0 48 h 20 m -10 -10 v 20 m 10 -20 v 20"></path></g></svg>