<svg class="railroad-diagram" height="131" viewBox="0 0 1508.0 131" width="1508.0" xmlns="http://www.w3.org/2000/svg" xmlns:xlink="http://www.w3.org/1999/xlink">
<defs>
<style type="text/css"><![CDATA[
svg.railroad-diagram { background-color: transparent; }
.terminal rect { fill: #DC382D !important; stroke: #DC382D !important; }
.terminal text { fill: white !important; font-weight: bold; }
.nonterminal rect { fill: none !important; stroke: #DC382D !important; stroke-width: 2; }
.nonterminal text { fill: #DC382D !important; font-weight: bold; }
path { stroke: #DC382D !important; stroke-width: 2; fill: none; }
circle { fill: #DC382D !important; stroke: #DC382D !important; }
]]></style>
</defs>
<g transform="translate(.5 .5)">
<style>/* <![CDATA[ */
	svg.railroad-diagram {
		background-color: transparent;
	}
	svg.railroad-diagram path {
		stroke-width:3;
		stroke: #DC382D;
		fill:rgba(0,0,0,0);
	}
	svg.railroad-diagram text {
		font:bold 14px monospace;
		text-anchor:middle;
	}
	svg.railroad-diagram text.label{
		text-anchor:start;
	}
	svg.railroad-diagram text.comment{
		font:italic 12px monospace;
	}
	svg.railroad-diagram rect{
		stroke-width:3;
		stroke: #DC382D;
		fill: none;
	}
	svg.railroad-diagram rect.group-box {
		stroke: #DC382D;
		stroke-dasharray: 10 5;
		fill: none;
	}

/* ]]> */
</style><g>
<path d="M20 30v20m10 -20v20m-10 -10h20"></path></g><path d="M40 40h10"></path><g>
<path d="M50 40h0.0"></path><path d="M1458.0 40h0.0"></path><g class="terminal ">
<path d="M50.0 40h0.0"></path><path d="M104.0 40h0.0"></path><rect height="22" rx="10" ry="10" width="54.0" x="50.0" y="29"></rect><text x="77.0" y="44">VADD</text></g><path d="M104.0 40h10"></path><path d="M114.0 40h10"></path><g class="non-terminal ">
<path d="M124.0 40h0.0"></path><path d="M169.5 40h0.0"></path><rect height="22" width="45.5" x="124.0" y="29"></rect><text x="146.75" y="44">key</text></g><path d="M169.5 40h10"></path><g>
<path d="M179.5 40h0.0"></path><path d="M356.0 40h0.0"></path><path d="M179.5 40a10 10 0 0 0 10 -10v0a10 10 0 0 1 10 -10"></path><g>
<path d="M199.5 20h136.5"></path></g><path d="M336.0 20a10 10 0 0 1 10 10v0a10 10 0 0 0 10 10"></path><path d="M179.5 40h20"></path><g>
<path d="M199.5 40h0.0"></path><path d="M336.0 40h0.0"></path><g class="terminal ">
<path d="M199.5 40h0.0"></path><path d="M270.5 40h0.0"></path><rect height="22" rx="10" ry="10" width="71.0" x="199.5" y="29"></rect><text x="235.0" y="44">REDUCE</text></g><path d="M270.5 40h10"></path><path d="M280.5 40h10"></path><g class="non-terminal ">
<path d="M290.5 40h0.0"></path><path d="M336.0 40h0.0"></path><rect height="22" width="45.5" x="290.5" y="29"></rect><text x="313.25" y="44">dim</text></g></g><path d="M336.0 40h20"></path></g><g>
<path d="M356.0 40h0.0"></path><path d="M643.5 40h0.0"></path><path d="M356.0 40h20"></path><g>
<path d="M376.0 40h51.25"></path><path d="M572.25 40h51.25"></path><g class="terminal ">
<path d="M427.25 40h0.0"></path><path d="M481.25 40h0.0"></path><rect height="22" rx="10" ry="10" width="54.0" x="427.25" y="29"></rect><text x="454.25" y="44">FP32</text></g><path d="M481.25 40h10"></path><path d="M491.25 40h10"></path><g class="non-terminal ">
<path d="M501.25 40h0.0"></path><path d="M572.25 40h0.0"></path><rect height="22" width="71.0" x="501.25" y="29"></rect><text x="536.75" y="44">vector</text></g></g><path d="M623.5 40h20"></path><path d="M356.0 40a10 10 0 0 1 10 10v10a10 10 0 0 0 10 10"></path><g>
<path d="M376.0 70h0.0"></path><path d="M623.5 70h0.0"></path><g class="terminal ">
<path d="M376.0 70h0.0"></path><path d="M447.0 70h0.0"></path><rect height="22" rx="10" ry="10" width="71.0" x="376.0" y="59"></rect><text x="411.5" y="74">VALUES</text></g><path d="M447.0 70h10"></path><path d="M457.0 70h10"></path><g class="non-terminal ">
<path d="M467.0 70h0.0"></path><path d="M512.5 70h0.0"></path><rect height="22" width="45.5" x="467.0" y="59"></rect><text x="489.75" y="74">num</text></g><path d="M512.5 70h10"></path><path d="M522.5 70h10"></path><g>
<path d="M532.5 70h0.0"></path><path d="M623.5 70h0.0"></path><path d="M532.5 70h10"></path><g class="non-terminal ">
<path d="M542.5 70h0.0"></path><path d="M613.5 70h0.0"></path><rect height="22" width="71.0" x="542.5" y="59"></rect><text x="578.0" y="74">vector</text></g><path d="M613.5 70h10"></path><path d="M542.5 70a10 10 0 0 0 -10 10v0a10 10 0 0 0 10 10"></path><g>
<path d="M542.5 90h71.0"></path></g><path d="M613.5 90a10 10 0 0 0 10 -10v0a10 10 0 0 0 -10 -10"></path></g></g><path d="M623.5 70a10 10 0 0 0 10 -10v-10a10 10 0 0 1 10 -10"></path></g><path d="M643.5 40h10"></path><g class="non-terminal ">
<path d="M653.5 40h0.0"></path><path d="M733.0 40h0.0"></path><rect height="22" width="79.5" x="653.5" y="29"></rect><text x="693.25" y="44">element</text></g><path d="M733.0 40h10"></path><g>
<path d="M743.0 40h0.0"></path><path d="M828.5 40h0.0"></path><path d="M743.0 40a10 10 0 0 0 10 -10v0a10 10 0 0 1 10 -10"></path><g>
<path d="M763.0 20h45.5"></path></g><path d="M808.5 20a10 10 0 0 1 10 10v0a10 10 0 0 0 10 10"></path><path d="M743.0 40h20"></path><g class="terminal ">
<path d="M763.0 40h0.0"></path><path d="M808.5 40h0.0"></path><rect height="22" rx="10" ry="10" width="45.5" x="763.0" y="29"></rect><text x="785.75" y="44">CAS</text></g><path d="M808.5 40h20"></path></g><g>
<path d="M828.5 40h0.0"></path><path d="M988.0 40h0.0"></path><path d="M828.5 40a10 10 0 0 0 10 -10v0a10 10 0 0 1 10 -10"></path><g>
<path d="M848.5 20h119.5"></path></g><path d="M968.0 20a10 10 0 0 1 10 10v0a10 10 0 0 0 10 10"></path><path d="M828.5 40h20"></path><g>
<path d="M848.5 40h0.0"></path><path d="M968.0 40h0.0"></path><path d="M848.5 40h20"></path><g class="terminal ">
<path d="M868.5 40h0.0"></path><path d="M948.0 40h0.0"></path><rect height="22" rx="10" ry="10" width="79.5" x="868.5" y="29"></rect><text x="908.25" y="44">NOQUANT</text></g><path d="M948.0 40h20"></path><path d="M848.5 40a10 10 0 0 1 10 10v10a10 10 0 0 0 10 10"></path><g class="terminal ">
<path d="M868.5 70h21.25"></path><path d="M926.75 70h21.25"></path><rect height="22" rx="10" ry="10" width="37.0" x="889.75" y="59"></rect><text x="908.25" y="74">Q8</text></g><path d="M948.0 70a10 10 0 0 0 10 -10v-10a10 10 0 0 1 10 -10"></path><path d="M848.5 40a10 10 0 0 1 10 10v40a10 10 0 0 0 10 10"></path><g class="terminal ">
<path d="M868.5 100h17.0"></path><path d="M931.0 100h17.0"></path><rect height="22" rx="10" ry="10" width="45.5" x="885.5" y="89"></rect><text x="908.25" y="104">BIN</text></g><path d="M948.0 100a10 10 0 0 0 10 -10v-40a10 10 0 0 1 10 -10"></path></g><path d="M968.0 40h20"></path></g><g>
<path d="M988.0 40h0.0"></path><path d="M1122.0 40h0.0"></path><path d="M988.0 40a10 10 0 0 0 10 -10v0a10 10 0 0 1 10 -10"></path><g>
<path d="M1008.0 20h94.0"></path></g><path d="M1102.0 20a10 10 0 0 1 10 10v0a10 10 0 0 0 10 10"></path><path d="M988.0 40h20"></path><g>
<path d="M1008.0 40h0.0"></path><path d="M1102.0 40h0.0"></path><g class="terminal ">
<path d="M1008.0 40h0.0"></path><path d="M1045.0 40h0.0"></path><rect height="22" rx="10" ry="10" width="37.0" x="1008.0" y="29"></rect><text x="1026.5" y="44">EF</text></g><path d="M1045.0 40h10"></path><path d="M1055.0 40h10"></path><g class="non-terminal ">
<path d="M1065.0 40h0.0"></path><path d="M1102.0 40h0.0"></path><rect height="22" width="37.0" x="1065.0" y="29"></rect><text x="1083.5" y="44">ef</text></g></g><path d="M1102.0 40h20"></path></g><g>
<path d="M1122.0 40h0.0"></path><path d="M1341.0 40h0.0"></path><path d="M1122.0 40a10 10 0 0 0 10 -10v0a10 10 0 0 1 10 -10"></path><g>
<path d="M1142.0 20h179.0"></path></g><path d="M1321.0 20a10 10 0 0 1 10 10v0a10 10 0 0 0 10 10"></path><path d="M1122.0 40h20"></path><g>
<path d="M1142.0 40h0.0"></path><path d="M1321.0 40h0.0"></path><g class="terminal ">
<path d="M1142.0 40h0.0"></path><path d="M1221.5 40h0.0"></path><rect height="22" rx="10" ry="10" width="79.5" x="1142.0" y="29"></rect><text x="1181.75" y="44">SETATTR</text></g><path d="M1221.5 40h10"></path><path d="M1231.5 40h10"></path><g class="non-terminal ">
<path d="M1241.5 40h0.0"></path><path d="M1321.0 40h0.0"></path><rect height="22" width="79.5" x="1241.5" y="29"></rect><text x="1281.25" y="44">setattr</text></g></g><path d="M1321.0 40h20"></path></g><g>
<path d="M1341.0 40h0.0"></path><path d="M1458.0 40h0.0"></path><path d="M1341.0 40a10 10 0 0 0 10 -10v0a10 10 0 0 1 10 -10"></path><g>
<path d="M1361.0 20h77.0"></path></g><path d="M1438.0 20a10 10 0 0 1 10 10v0a10 10 0 0 0 10 10"></path><path d="M1341.0 40h20"></path><g>
<path d="M1361.0 40h0.0"></path><path d="M1438.0 40h0.0"></path><g class="terminal ">
<path d="M1361.0 40h0.0"></path><path d="M1389.5 40h0.0"></path><rect height="22" rx="10" ry="10" width="28.5" x="1361.0" y="29"></rect><text x="1375.25" y="44">M</text></g><path d="M1389.5 40h10"></path><path d="M1399.5 40h10"></path><g class="non-terminal ">
<path d="M1409.5 40h0.0"></path><path d="M1438.0 40h0.0"></path><rect height="22" width="28.5" x="1409.5" y="29"></rect><text x="1423.75" y="44">m</text></g></g><path d="M1438.0 40h20"></path></g></g><path d="M1458.0 40h10"></path><path d="M 1468.0 40 h 20 m -10 -10 v 20 m 10 -20 v 20"></path></g></svg>