<svg class="railroad-diagram" height="109" viewBox="0 0 1187.5 109" width="1187.5" xmlns="http://www.w3.org/2000/svg" xmlns:xlink="http://www.w3.org/1999/xlink">
<defs>
<style type="text/css"><![CDATA[
svg.railroad-diagram { background-color: transparent; }
.terminal rect { fill: #DC382D !important; stroke: #DC382D !important; }
.terminal text { fill: white !important; font-weight: bold; }
.nonterminal rect { fill: none !important; stroke: #DC382D !important; stroke-width: 2; }
.nonterminal text { fill: #DC382D !important; font-weight: bold; }
path { stroke: #DC382D !important; stroke-width: 2; fill: none; }
circle { fill: #DC382D !important; stroke: #DC382D !important; }
]]></style>
</defs>
<g transform="translate(.5 .5)">
<style>/* <![CDATA[ */
	svg.railroad-diagram {
		background-color: transparent;
	}
	svg.railroad-diagram path {
		stroke-width:3;
		stroke: #DC382D;
		fill:rgba(0,0,0,0);
	}
	svg.railroad-diagram text {
		font:bold 14px monospace;
		text-anchor:middle;
	}
	svg.railroad-diagram text.label{
		text-anchor:start;
	}
	svg.railroad-diagram text.comment{
		font:italic 12px monospace;
	}
	svg.railroad-diagram rect{
		stroke-width:3;
		stroke: #DC382D;
		fill: none;
	}
	svg.railroad-diagram rect.group-box {
		stroke: #DC382D;
		stroke-dasharray: 10 5;
		fill: none;
	}

/* ]]> */
</style><g>
<path d="M20 38v20m10 -20v20m-10 -10h20"></path></g><path d="M40 48h10"></path><g>
<path d="M50 48h0.0"></path><path d="M1137.5 48h0.0"></path><g class="terminal ">
<path d="M50.0 48h0.0"></path><path d="M104.0 48h0.0"></path><rect height="22" rx="10" ry="10" width="54.0" x="50.0" y="37"></rect><text x="77.0" y="52">XADD</text></g><path d="M104.0 48h10"></path><path d="M114.0 48h10"></path><g class="non-terminal ">
<path d="M124.0 48h0.0"></path><path d="M169.5 48h0.0"></path><rect height="22" width="45.5" x="124.0" y="37"></rect><text x="146.75" y="52">key</text></g><path d="M169.5 48h10"></path><g>
<path d="M179.5 48h0.0"></path><path d="M324.5 48h0.0"></path><path d="M179.5 48a10 10 0 0 0 10 -10v0a10 10 0 0 1 10 -10"></path><g>
<path d="M199.5 28h105.0"></path></g><path d="M304.5 28a10 10 0 0 1 10 10v0a10 10 0 0 0 10 10"></path><path d="M179.5 48h20"></path><g class="terminal ">
<path d="M199.5 48h0.0"></path><path d="M304.5 48h0.0"></path><rect height="22" rx="10" ry="10" width="105.0" x="199.5" y="37"></rect><text x="252.0" y="52">NOMKSTREAM</text></g><path d="M304.5 48h20"></path></g><g>
<path d="M324.5 48h0.0"></path><path d="M885.5 48h0.0"></path><path d="M324.5 48a10 10 0 0 0 10 -10v-8a10 10 0 0 1 10 -10"></path><g>
<path d="M344.5 20h521.0"></path></g><path d="M865.5 20a10 10 0 0 1 10 10v8a10 10 0 0 0 10 10"></path><path d="M324.5 48h20"></path><g>
<path d="M344.5 48h0.0"></path><path d="M865.5 48h0.0"></path><g>
<path d="M344.5 48h0.0"></path><path d="M455.5 48h0.0"></path><path d="M344.5 48h20"></path><g class="terminal ">
<path d="M364.5 48h0.0"></path><path d="M435.5 48h0.0"></path><rect height="22" rx="10" ry="10" width="71.0" x="364.5" y="37"></rect><text x="400.0" y="52">MAXLEN</text></g><path d="M435.5 48h20"></path><path d="M344.5 48a10 10 0 0 1 10 10v10a10 10 0 0 0 10 10"></path><g class="terminal ">
<path d="M364.5 78h4.25"></path><path d="M431.25 78h4.25"></path><rect height="22" rx="10" ry="10" width="62.5" x="368.75" y="67"></rect><text x="400.0" y="82">MINID</text></g><path d="M435.5 78a10 10 0 0 0 10 -10v-10a10 10 0 0 1 10 -10"></path></g><g>
<path d="M455.5 48h0.0"></path><path d="M564.0 48h0.0"></path><path d="M455.5 48a10 10 0 0 0 10 -10v0a10 10 0 0 1 10 -10"></path><g>
<path d="M475.5 28h68.5"></path></g><path d="M544.0 28a10 10 0 0 1 10 10v0a10 10 0 0 0 10 10"></path><path d="M455.5 48h20"></path><g>
<path d="M475.5 48h0.0"></path><path d="M544.0 48h0.0"></path><path d="M475.5 48h20"></path><g class="terminal ">
<path d="M495.5 48h0.0"></path><path d="M524.0 48h0.0"></path><rect height="22" rx="10" ry="10" width="28.5" x="495.5" y="37"></rect><text x="509.75" y="52">=</text></g><path d="M524.0 48h20"></path><path d="M475.5 48a10 10 0 0 1 10 10v10a10 10 0 0 0 10 10"></path><g class="terminal ">
<path d="M495.5 78h0.0"></path><path d="M524.0 78h0.0"></path><rect height="22" rx="10" ry="10" width="28.5" x="495.5" y="67"></rect><text x="509.75" y="82">~</text></g><path d="M524.0 78a10 10 0 0 0 10 -10v-10a10 10 0 0 1 10 -10"></path></g><path d="M544.0 48h20"></path></g><path d="M564.0 48h10"></path><g class="non-terminal ">
<path d="M574.0 48h0.0"></path><path d="M670.5 48h0.0"></path><rect height="22" width="96.5" x="574.0" y="37"></rect><text x="622.25" y="52">threshold</text></g><path d="M670.5 48h10"></path><g>
<path d="M680.5 48h0.0"></path><path d="M865.5 48h0.0"></path><path d="M680.5 48a10 10 0 0 0 10 -10v0a10 10 0 0 1 10 -10"></path><g>
<path d="M700.5 28h145.0"></path></g><path d="M845.5 28a10 10 0 0 1 10 10v0a10 10 0 0 0 10 10"></path><path d="M680.5 48h20"></path><g>
<path d="M700.5 48h0.0"></path><path d="M845.5 48h0.0"></path><g class="terminal ">
<path d="M700.5 48h0.0"></path><path d="M763.0 48h0.0"></path><rect height="22" rx="10" ry="10" width="62.5" x="700.5" y="37"></rect><text x="731.75" y="52">LIMIT</text></g><path d="M763.0 48h10"></path><path d="M773.0 48h10"></path><g class="non-terminal ">
<path d="M783.0 48h0.0"></path><path d="M845.5 48h0.0"></path><rect height="22" width="62.5" x="783.0" y="37"></rect><text x="814.25" y="52">count</text></g></g><path d="M845.5 48h20"></path></g></g><path d="M865.5 48h20"></path></g><g>
<path d="M885.5 48h0.0"></path><path d="M962.5 48h0.0"></path><path d="M885.5 48h20"></path><g class="terminal ">
<path d="M905.5 48h4.25"></path><path d="M938.25 48h4.25"></path><rect height="22" rx="10" ry="10" width="28.5" x="909.75" y="37"></rect><text x="924.0" y="52">&#42;</text></g><path d="M942.5 48h20"></path><path d="M885.5 48a10 10 0 0 1 10 10v10a10 10 0 0 0 10 10"></path><g class="non-terminal ">
<path d="M905.5 78h0.0"></path><path d="M942.5 78h0.0"></path><rect height="22" width="37.0" x="905.5" y="67"></rect><text x="924.0" y="82">id</text></g><path d="M942.5 78a10 10 0 0 0 10 -10v-10a10 10 0 0 1 10 -10"></path></g><path d="M962.5 48h10"></path><g>
<path d="M972.5 48h0.0"></path><path d="M1137.5 48h0.0"></path><path d="M972.5 48h10"></path><g>
<path d="M982.5 48h0.0"></path><path d="M1127.5 48h0.0"></path><g class="non-terminal ">
<path d="M982.5 48h0.0"></path><path d="M1045.0 48h0.0"></path><rect height="22" width="62.5" x="982.5" y="37"></rect><text x="1013.75" y="52">field</text></g><path d="M1045.0 48h10"></path><path d="M1055.0 48h10"></path><g class="non-terminal ">
<path d="M1065.0 48h0.0"></path><path d="M1127.5 48h0.0"></path><rect height="22" width="62.5" x="1065.0" y="37"></rect><text x="1096.25" y="52">value</text></g></g><path d="M1127.5 48h10"></path><path d="M982.5 48a10 10 0 0 0 -10 10v0a10 10 0 0 0 10 10"></path><g>
<path d="M982.5 68h145.0"></path></g><path d="M1127.5 68a10 10 0 0 0 10 -10v0a10 10 0 0 0 -10 -10"></path></g></g><path d="M1137.5 48h10"></path><path d="M 1147.5 48 h 20 m -10 -10 v 20 m 10 -20 v 20"></path></g></svg>