<svg class="railroad-diagram" height="101" viewBox="0 0 752.5 101" width="752.5" xmlns="http://www.w3.org/2000/svg" xmlns:xlink="http://www.w3.org/1999/xlink">
<defs>
<style type="text/css"><![CDATA[
svg.railroad-diagram { background-color: transparent; }
.terminal rect { fill: #DC382D !important; stroke: #DC382D !important; }
.terminal text { fill: white !important; font-weight: bold; }
.nonterminal rect { fill: none !important; stroke: #DC382D !important; stroke-width: 2; }
.nonterminal text { fill: #DC382D !important; font-weight: bold; }
path { stroke: #DC382D !important; stroke-width: 2; fill: none; }
circle { fill: #DC382D !important; stroke: #DC382D !important; }
]]></style>
</defs>
<g transform="translate(.5 .5)">
<style>/* <![CDATA[ */
	svg.railroad-diagram {
		background-color: transparent;
	}
	svg.railroad-diagram path {
		stroke-width:3;
		stroke: #DC382D;
		fill:rgba(0,0,0,0);
	}
	svg.railroad-diagram text {
		font:bold 14px monospace;
		text-anchor:middle;
	}
	svg.railroad-diagram text.label{
		text-anchor:start;
	}
	svg.railroad-diagram text.comment{
		font:italic 12px monospace;
	}
	svg.railroad-diagram rect{
		stroke-width:3;
		stroke: #DC382D;
		fill: none;
	}
	svg.railroad-diagram rect.group-box {
		stroke: #DC382D;
		stroke-dasharray: 10 5;
		fill: none;
	}

/* ]]> */
</style><g>
<path d="M20 30v20m10 -20v20m-10 -10h20"></path></g><path d="M40 40h10"></path><g>
<path d="M50 40h0.0"></path><path d="M702.5 40h0.0"></path><g class="terminal ">
<path d="M50.0 40h0.0"></path><path d="M172.0 40h0.0"></path><rect height="22" rx="10" ry="10" width="122.0" x="50.0" y="29"></rect><text x="111.0" y="44">XGROUP SETID</text></g><path d="M172.0 40h10"></path><path d="M182.0 40h10"></path><g class="non-terminal ">
<path d="M192.0 40h0.0"></path><path d="M237.5 40h0.0"></path><rect height="22" width="45.5" x="192.0" y="29"></rect><text x="214.75" y="44">key</text></g><path d="M237.5 40h10"></path><path d="M247.5 40h10"></path><g class="non-terminal ">
<path d="M257.5 40h0.0"></path><path d="M320.0 40h0.0"></path><rect height="22" width="62.5" x="257.5" y="29"></rect><text x="288.75" y="44">group</text></g><path d="M320.0 40h10"></path><g>
<path d="M330.0 40h0.0"></path><path d="M407.0 40h0.0"></path><path d="M330.0 40h20"></path><g class="non-terminal ">
<path d="M350.0 40h0.0"></path><path d="M387.0 40h0.0"></path><rect height="22" width="37.0" x="350.0" y="29"></rect><text x="368.5" y="44">id</text></g><path d="M387.0 40h20"></path><path d="M330.0 40a10 10 0 0 1 10 10v10a10 10 0 0 0 10 10"></path><g class="terminal ">
<path d="M350.0 70h4.25"></path><path d="M382.75 70h4.25"></path><rect height="22" rx="10" ry="10" width="28.5" x="354.25" y="59"></rect><text x="368.5" y="74">$</text></g><path d="M387.0 70a10 10 0 0 0 10 -10v-10a10 10 0 0 1 10 -10"></path></g><g>
<path d="M407.0 40h0.0"></path><path d="M702.5 40h0.0"></path><path d="M407.0 40a10 10 0 0 0 10 -10v0a10 10 0 0 1 10 -10"></path><g>
<path d="M427.0 20h255.5"></path></g><path d="M682.5 20a10 10 0 0 1 10 10v0a10 10 0 0 0 10 10"></path><path d="M407.0 40h20"></path><g>
<path d="M427.0 40h0.0"></path><path d="M682.5 40h0.0"></path><g class="terminal ">
<path d="M427.0 40h0.0"></path><path d="M540.5 40h0.0"></path><rect height="22" rx="10" ry="10" width="113.5" x="427.0" y="29"></rect><text x="483.75" y="44">ENTRIESREAD</text></g><path d="M540.5 40h10"></path><path d="M550.5 40h10"></path><g class="non-terminal ">
<path d="M560.5 40h0.0"></path><path d="M682.5 40h0.0"></path><rect height="22" width="122.0" x="560.5" y="29"></rect><text x="621.5" y="44">entries-read</text></g></g><path d="M682.5 40h20"></path></g></g><path d="M702.5 40h10"></path><path d="M 712.5 40 h 20 m -10 -10 v 20 m 10 -20 v 20"></path></g></svg>