<svg class="railroad-diagram" height="62" viewBox="0 0 554.5 62" width="554.5" xmlns="http://www.w3.org/2000/svg" xmlns:xlink="http://www.w3.org/1999/xlink">
<defs>
<style type="text/css"><![CDATA[
svg.railroad-diagram { background-color: transparent; }
.terminal rect { fill: #DC382D !important; stroke: #DC382D !important; }
.terminal text { fill: white !important; font-weight: bold; }
.nonterminal rect { fill: none !important; stroke: #DC382D !important; stroke-width: 2; }
.nonterminal text { fill: #DC382D !important; font-weight: bold; }
path { stroke: #DC382D !important; stroke-width: 2; fill: none; }
circle { fill: #DC382D !important; stroke: #DC382D !important; }
]]></style>
</defs>
<g transform="translate(.5 .5)">
<style>/* <![CDATA[ */
	svg.railroad-diagram {
		background-color: transparent;
	}
	svg.railroad-diagram path {
		stroke-width:3;
		stroke: #DC382D;
		fill:rgba(0,0,0,0);
	}
	svg.railroad-diagram text {
		font:bold 14px monospace;
		text-anchor:middle;
	}
	svg.railroad-diagram text.label{
		text-anchor:start;
	}
	svg.railroad-diagram text.comment{
		font:italic 12px monospace;
	}
	svg.railroad-diagram rect{
		stroke-width:3;
		stroke: #DC382D;
		fill: none;
	}
	svg.railroad-diagram rect.group-box {
		stroke: #DC382D;
		stroke-dasharray: 10 5;
		fill: none;
	}

/* ]]> */
</style><g>
<path d="M20 21v20m10 -20v20m-10 -10h20"></path></g><path d="M40 31h10"></path><g>
<path d="M50 31h0.0"></path><path d="M504.5 31h0.0"></path><g class="terminal ">
<path d="M50.0 31h0.0"></path><path d="M248.5 31h0.0"></path><rect height="22" rx="10" ry="10" width="198.5" x="50.0" y="20"></rect><text x="149.25" y="35">XGROUP CREATECONSUMER</text></g><path d="M248.5 31h10"></path><path d="M258.5 31h10"></path><g class="non-terminal ">
<path d="M268.5 31h0.0"></path><path d="M314.0 31h0.0"></path><rect height="22" width="45.5" x="268.5" y="20"></rect><text x="291.25" y="35">key</text></g><path d="M314.0 31h10"></path><path d="M324.0 31h10"></path><g class="non-terminal ">
<path d="M334.0 31h0.0"></path><path d="M396.5 31h0.0"></path><rect height="22" width="62.5" x="334.0" y="20"></rect><text x="365.25" y="35">group</text></g><path d="M396.5 31h10"></path><path d="M406.5 31h10"></path><g class="non-terminal ">
<path d="M416.5 31h0.0"></path><path d="M504.5 31h0.0"></path><rect height="22" width="88.0" x="416.5" y="20"></rect><text x="460.5" y="35">consumer</text></g></g><path d="M504.5 31h10"></path><path d="M 514.5 31 h 20 m -10 -10 v 20 m 10 -20 v 20"></path></g></svg>