<svg class="railroad-diagram" height="79" viewBox="0 0 535.5 79" width="535.5" xmlns="http://www.w3.org/2000/svg" xmlns:xlink="http://www.w3.org/1999/xlink">
<defs>
<style type="text/css"><![CDATA[
svg.railroad-diagram { background-color: transparent; }
.terminal rect { fill: #DC382D !important; stroke: #DC382D !important; }
.terminal text { fill: white !important; font-weight: bold; }
.nonterminal rect { fill: none !important; stroke: #DC382D !important; stroke-width: 2; }
.nonterminal text { fill: #DC382D !important; font-weight: bold; }
path { stroke: #DC382D !important; stroke-width: 2; fill: none; }
circle { fill: #DC382D !important; stroke: #DC382D !important; }
]]></style>
</defs>
<g transform="translate(.5 .5)">
<style>/* <![CDATA[ */
	svg.railroad-diagram {
		background-color: transparent;
	}
	svg.railroad-diagram path {
		stroke-width:3;
		stroke: #DC382D;
		fill:rgba(0,0,0,0);
	}
	svg.railroad-diagram text {
		font:bold 14px monospace;
		text-anchor:middle;
	}
	svg.railroad-diagram text.label{
		text-anchor:start;
	}
	svg.railroad-diagram text.comment{
		font:italic 12px monospace;
	}
	svg.railroad-diagram rect{
		stroke-width:3;
		stroke: #DC382D;
		fill: none;
	}
	svg.railroad-diagram rect.group-box {
		stroke: #DC382D;
		stroke-dasharray: 10 5;
		fill: none;
	}

/* ]]> */
</style><g>
<path d="M20 38v20m10 -20v20m-10 -10h20"></path></g><path d="M40 48h10"></path><g>
<path d="M50 48h0.0"></path><path d="M485.5 48h0.0"></path><g class="terminal ">
<path d="M50.0 48h0.0"></path><path d="M121.0 48h0.0"></path><rect height="22" rx="10" ry="10" width="71.0" x="50.0" y="37"></rect><text x="85.5" y="52">STREAM</text></g><path d="M121.0 48h10"></path><path d="M131.0 48h10"></path><g class="non-terminal ">
<path d="M141.0 48h0.0"></path><path d="M186.5 48h0.0"></path><rect height="22" width="45.5" x="141.0" y="37"></rect><text x="163.75" y="52">key</text></g><path d="M186.5 48h10"></path><g>
<path d="M196.5 48h0.0"></path><path d="M485.5 48h0.0"></path><path d="M196.5 48a10 10 0 0 0 10 -10v-8a10 10 0 0 1 10 -10"></path><g>
<path d="M216.5 20h249.0"></path></g><path d="M465.5 20a10 10 0 0 1 10 10v8a10 10 0 0 0 10 10"></path><path d="M196.5 48h20"></path><g>
<path d="M216.5 48h0.0"></path><path d="M465.5 48h0.0"></path><g class="terminal ">
<path d="M216.5 48h0.0"></path><path d="M270.5 48h0.0"></path><rect height="22" rx="10" ry="10" width="54.0" x="216.5" y="37"></rect><text x="243.5" y="52">FULL</text></g><path d="M270.5 48h10"></path><g>
<path d="M280.5 48h0.0"></path><path d="M465.5 48h0.0"></path><path d="M280.5 48a10 10 0 0 0 10 -10v0a10 10 0 0 1 10 -10"></path><g>
<path d="M300.5 28h145.0"></path></g><path d="M445.5 28a10 10 0 0 1 10 10v0a10 10 0 0 0 10 10"></path><path d="M280.5 48h20"></path><g>
<path d="M300.5 48h0.0"></path><path d="M445.5 48h0.0"></path><g class="terminal ">
<path d="M300.5 48h0.0"></path><path d="M363.0 48h0.0"></path><rect height="22" rx="10" ry="10" width="62.5" x="300.5" y="37"></rect><text x="331.75" y="52">COUNT</text></g><path d="M363.0 48h10"></path><path d="M373.0 48h10"></path><g class="non-terminal ">
<path d="M383.0 48h0.0"></path><path d="M445.5 48h0.0"></path><rect height="22" width="62.5" x="383.0" y="37"></rect><text x="414.25" y="52">count</text></g></g><path d="M445.5 48h20"></path></g></g><path d="M465.5 48h20"></path></g></g><path d="M485.5 48h10"></path><path d="M 495.5 48 h 20 m -10 -10 v 20 m 10 -20 v 20"></path></g></svg>