<svg class="railroad-diagram" height="131" viewBox="0 0 995.0 131" width="995.0" xmlns="http://www.w3.org/2000/svg" xmlns:xlink="http://www.w3.org/1999/xlink">
<defs>
<style type="text/css"><![CDATA[
svg.railroad-diagram { background-color: transparent; }
.terminal rect { fill: #DC382D !important; stroke: #DC382D !important; }
.terminal text { fill: white !important; font-weight: bold; }
.nonterminal rect { fill: none !important; stroke: #DC382D !important; stroke-width: 2; }
.nonterminal text { fill: #DC382D !important; font-weight: bold; }
path { stroke: #DC382D !important; stroke-width: 2; fill: none; }
circle { fill: #DC382D !important; stroke: #DC382D !important; }
]]></style>
</defs>
<g transform="translate(.5 .5)">
<style>/* <![CDATA[ */
	svg.railroad-diagram {
		background-color: transparent;
	}
	svg.railroad-diagram path {
		stroke-width:3;
		stroke: #DC382D;
		fill:rgba(0,0,0,0);
	}
	svg.railroad-diagram text {
		font:bold 14px monospace;
		text-anchor:middle;
	}
	svg.railroad-diagram text.label{
		text-anchor:start;
	}
	svg.railroad-diagram text.comment{
		font:italic 12px monospace;
	}
	svg.railroad-diagram rect{
		stroke-width:3;
		stroke: #DC382D;
		fill: none;
	}
	svg.railroad-diagram rect.group-box {
		stroke: #DC382D;
		stroke-dasharray: 10 5;
		fill: none;
	}

/* ]]> */
</style><g>
<path d="M20 30v20m10 -20v20m-10 -10h20"></path></g><path d="M40 40h10"></path><g>
<path d="M50 40h0.0"></path><path d="M945.0 40h0.0"></path><g class="terminal ">
<path d="M50.0 40h0.0"></path><path d="M112.5 40h0.0"></path><rect height="22" rx="10" ry="10" width="62.5" x="50.0" y="29"></rect><text x="81.25" y="44">XNACK</text></g><path d="M112.5 40h10"></path><path d="M122.5 40h10"></path><g class="non-terminal ">
<path d="M132.5 40h0.0"></path><path d="M178.0 40h0.0"></path><rect height="22" width="45.5" x="132.5" y="29"></rect><text x="155.25" y="44">key</text></g><path d="M178.0 40h10"></path><path d="M188.0 40h10"></path><g class="non-terminal ">
<path d="M198.0 40h0.0"></path><path d="M260.5 40h0.0"></path><rect height="22" width="62.5" x="198.0" y="29"></rect><text x="229.25" y="44">group</text></g><path d="M260.5 40h10"></path><g>
<path d="M270.5 40h0.0"></path><path d="M381.5 40h0.0"></path><path d="M270.5 40h20"></path><g class="terminal ">
<path d="M290.5 40h0.0"></path><path d="M361.5 40h0.0"></path><rect height="22" rx="10" ry="10" width="71.0" x="290.5" y="29"></rect><text x="326.0" y="44">SILENT</text></g><path d="M361.5 40h20"></path><path d="M270.5 40a10 10 0 0 1 10 10v10a10 10 0 0 0 10 10"></path><g class="terminal ">
<path d="M290.5 70h8.5"></path><path d="M353.0 70h8.5"></path><rect height="22" rx="10" ry="10" width="54.0" x="299.0" y="59"></rect><text x="326.0" y="74">FAIL</text></g><path d="M361.5 70a10 10 0 0 0 10 -10v-10a10 10 0 0 1 10 -10"></path><path d="M270.5 40a10 10 0 0 1 10 10v40a10 10 0 0 0 10 10"></path><g class="terminal ">
<path d="M290.5 100h4.25"></path><path d="M357.25 100h4.25"></path><rect height="22" rx="10" ry="10" width="62.5" x="294.75" y="89"></rect><text x="326.0" y="104">FATAL</text></g><path d="M361.5 100a10 10 0 0 0 10 -10v-40a10 10 0 0 1 10 -10"></path></g><path d="M381.5 40h10"></path><g>
<path d="M391.5 40h0.0"></path><path d="M605.0 40h0.0"></path><g class="terminal ">
<path d="M391.5 40h0.0"></path><path d="M437.0 40h0.0"></path><rect height="22" rx="10" ry="10" width="45.5" x="391.5" y="29"></rect><text x="414.25" y="44">IDS</text></g><path d="M437.0 40h10"></path><path d="M447.0 40h10"></path><g class="non-terminal ">
<path d="M457.0 40h0.0"></path><path d="M528.0 40h0.0"></path><rect height="22" width="71.0" x="457.0" y="29"></rect><text x="492.5" y="44">numids</text></g><path d="M528.0 40h10"></path><path d="M538.0 40h10"></path><g>
<path d="M548.0 40h0.0"></path><path d="M605.0 40h0.0"></path><path d="M548.0 40h10"></path><g class="non-terminal ">
<path d="M558.0 40h0.0"></path><path d="M595.0 40h0.0"></path><rect height="22" width="37.0" x="558.0" y="29"></rect><text x="576.5" y="44">id</text></g><path d="M595.0 40h10"></path><path d="M558.0 40a10 10 0 0 0 -10 10v0a10 10 0 0 0 10 10"></path><g>
<path d="M558.0 60h37.0"></path></g><path d="M595.0 60a10 10 0 0 0 10 -10v0a10 10 0 0 0 -10 -10"></path></g></g><path d="M605.0 40h10"></path><g>
<path d="M615.0 40h0.0"></path><path d="M842.5 40h0.0"></path><path d="M615.0 40a10 10 0 0 0 10 -10v0a10 10 0 0 1 10 -10"></path><g>
<path d="M635.0 20h187.5"></path></g><path d="M822.5 20a10 10 0 0 1 10 10v0a10 10 0 0 0 10 10"></path><path d="M615.0 40h20"></path><g>
<path d="M635.0 40h0.0"></path><path d="M822.5 40h0.0"></path><g class="terminal ">
<path d="M635.0 40h0.0"></path><path d="M740.0 40h0.0"></path><rect height="22" rx="10" ry="10" width="105.0" x="635.0" y="29"></rect><text x="687.5" y="44">RETRYCOUNT</text></g><path d="M740.0 40h10"></path><path d="M750.0 40h10"></path><g class="non-terminal ">
<path d="M760.0 40h0.0"></path><path d="M822.5 40h0.0"></path><rect height="22" width="62.5" x="760.0" y="29"></rect><text x="791.25" y="44">count</text></g></g><path d="M822.5 40h20"></path></g><g>
<path d="M842.5 40h0.0"></path><path d="M945.0 40h0.0"></path><path d="M842.5 40a10 10 0 0 0 10 -10v0a10 10 0 0 1 10 -10"></path><g>
<path d="M862.5 20h62.5"></path></g><path d="M925.0 20a10 10 0 0 1 10 10v0a10 10 0 0 0 10 10"></path><path d="M842.5 40h20"></path><g class="terminal ">
<path d="M862.5 40h0.0"></path><path d="M925.0 40h0.0"></path><rect height="22" rx="10" ry="10" width="62.5" x="862.5" y="29"></rect><text x="893.75" y="44">FORCE</text></g><path d="M925.0 40h20"></path></g></g><path d="M945.0 40h10"></path><path d="M 955.0 40 h 20 m -10 -10 v 20 m 10 -20 v 20"></path></g></svg>