<svg class="railroad-diagram" height="80" viewBox="0 0 1309.0 80" width="1309.0" xmlns="http://www.w3.org/2000/svg" xmlns:xlink="http://www.w3.org/1999/xlink">
<defs>
<style type="text/css"><![CDATA[
svg.railroad-diagram { background-color: transparent; }
.terminal rect { fill: #DC382D !important; stroke: #DC382D !important; }
.terminal text { fill: white !important; font-weight: bold; }
.nonterminal rect { fill: none !important; stroke: #DC382D !important; stroke-width: 2; }
.nonterminal text { fill: #DC382D !important; font-weight: bold; }
path { stroke: #DC382D !important; stroke-width: 2; fill: none; }
circle { fill: #DC382D !important; stroke: #DC382D !important; }
]]></style>
</defs>
<g transform="translate(.5 .5)">
<style>/* <![CDATA[ */
	svg.railroad-diagram {
		background-color: transparent;
	}
	svg.railroad-diagram path {
		stroke-width:3;
		stroke: #DC382D;
		fill:rgba(0,0,0,0);
	}
	svg.railroad-diagram text {
		font:bold 14px monospace;
		text-anchor:middle;
	}
	svg.railroad-diagram text.label{
		text-anchor:start;
	}
	svg.railroad-diagram text.comment{
		font:italic 12px monospace;
	}
	svg.railroad-diagram rect{
		stroke-width:3;
		stroke: #DC382D;
		fill: none;
	}
	svg.railroad-diagram rect.group-box {
		stroke: #DC382D;
		stroke-dasharray: 10 5;
		fill: none;
	}

/* ]]> */
</style><g>
<path d="M20 30v20m10 -20v20m-10 -10h20"></path></g><path d="M40 40h10"></path><g>
<path d="M50 40h0.0"></path><path d="M1259.0 40h0.0"></path><g class="terminal ">
<path d="M50.0 40h0.0"></path><path d="M112.5 40h0.0"></path><rect height="22" rx="10" ry="10" width="62.5" x="50.0" y="29"></rect><text x="81.25" y="44">XREAD</text></g><path d="M112.5 40h10"></path><g>
<path d="M122.5 40h0.0"></path><path d="M307.5 40h0.0"></path><path d="M122.5 40a10 10 0 0 0 10 -10v0a10 10 0 0 1 10 -10"></path><g>
<path d="M142.5 20h145.0"></path></g><path d="M287.5 20a10 10 0 0 1 10 10v0a10 10 0 0 0 10 10"></path><path d="M122.5 40h20"></path><g>
<path d="M142.5 40h0.0"></path><path d="M287.5 40h0.0"></path><g class="terminal ">
<path d="M142.5 40h0.0"></path><path d="M205.0 40h0.0"></path><rect height="22" rx="10" ry="10" width="62.5" x="142.5" y="29"></rect><text x="173.75" y="44">COUNT</text></g><path d="M205.0 40h10"></path><path d="M215.0 40h10"></path><g class="non-terminal ">
<path d="M225.0 40h0.0"></path><path d="M287.5 40h0.0"></path><rect height="22" width="62.5" x="225.0" y="29"></rect><text x="256.25" y="44">count</text></g></g><path d="M287.5 40h20"></path></g><g>
<path d="M307.5 40h0.0"></path><path d="M543.5 40h0.0"></path><path d="M307.5 40a10 10 0 0 0 10 -10v0a10 10 0 0 1 10 -10"></path><g>
<path d="M327.5 20h196.0"></path></g><path d="M523.5 20a10 10 0 0 1 10 10v0a10 10 0 0 0 10 10"></path><path d="M307.5 40h20"></path><g>
<path d="M327.5 40h0.0"></path><path d="M523.5 40h0.0"></path><g class="terminal ">
<path d="M327.5 40h0.0"></path><path d="M415.5 40h0.0"></path><rect height="22" rx="10" ry="10" width="88.0" x="327.5" y="29"></rect><text x="371.5" y="44">MAXCOUNT</text></g><path d="M415.5 40h10"></path><path d="M425.5 40h10"></path><g class="non-terminal ">
<path d="M435.5 40h0.0"></path><path d="M523.5 40h0.0"></path><rect height="22" width="88.0" x="435.5" y="29"></rect><text x="479.5" y="44">maxcount</text></g></g><path d="M523.5 40h20"></path></g><g>
<path d="M543.5 40h0.0"></path><path d="M762.5 40h0.0"></path><path d="M543.5 40a10 10 0 0 0 10 -10v0a10 10 0 0 1 10 -10"></path><g>
<path d="M563.5 20h179.0"></path></g><path d="M742.5 20a10 10 0 0 1 10 10v0a10 10 0 0 0 10 10"></path><path d="M543.5 40h20"></path><g>
<path d="M563.5 40h0.0"></path><path d="M742.5 40h0.0"></path><g class="terminal ">
<path d="M563.5 40h0.0"></path><path d="M643.0 40h0.0"></path><rect height="22" rx="10" ry="10" width="79.5" x="563.5" y="29"></rect><text x="603.25" y="44">MAXSIZE</text></g><path d="M643.0 40h10"></path><path d="M653.0 40h10"></path><g class="non-terminal ">
<path d="M663.0 40h0.0"></path><path d="M742.5 40h0.0"></path><rect height="22" width="79.5" x="663.0" y="29"></rect><text x="702.75" y="44">maxsize</text></g></g><path d="M742.5 40h20"></path></g><g>
<path d="M762.5 40h0.0"></path><path d="M1007.0 40h0.0"></path><path d="M762.5 40a10 10 0 0 0 10 -10v0a10 10 0 0 1 10 -10"></path><g>
<path d="M782.5 20h204.5"></path></g><path d="M987.0 20a10 10 0 0 1 10 10v0a10 10 0 0 0 10 10"></path><path d="M762.5 40h20"></path><g>
<path d="M782.5 40h0.0"></path><path d="M987.0 40h0.0"></path><g class="terminal ">
<path d="M782.5 40h0.0"></path><path d="M845.0 40h0.0"></path><rect height="22" rx="10" ry="10" width="62.5" x="782.5" y="29"></rect><text x="813.75" y="44">BLOCK</text></g><path d="M845.0 40h10"></path><path d="M855.0 40h10"></path><g class="non-terminal ">
<path d="M865.0 40h0.0"></path><path d="M987.0 40h0.0"></path><rect height="22" width="122.0" x="865.0" y="29"></rect><text x="926.0" y="44">milliseconds</text></g></g><path d="M987.0 40h20"></path></g><path d="M1007.0 40h10"></path><g>
<path d="M1017.0 40h0.0"></path><path d="M1259.0 40h0.0"></path><g class="terminal ">
<path d="M1017.0 40h0.0"></path><path d="M1096.5 40h0.0"></path><rect height="22" rx="10" ry="10" width="79.5" x="1017.0" y="29"></rect><text x="1056.75" y="44">STREAMS</text></g><path d="M1096.5 40h10"></path><path d="M1106.5 40h10"></path><g>
<path d="M1116.5 40h0.0"></path><path d="M1182.0 40h0.0"></path><path d="M1116.5 40h10"></path><g class="non-terminal ">
<path d="M1126.5 40h0.0"></path><path d="M1172.0 40h0.0"></path><rect height="22" width="45.5" x="1126.5" y="29"></rect><text x="1149.25" y="44">key</text></g><path d="M1172.0 40h10"></path><path d="M1126.5 40a10 10 0 0 0 -10 10v0a10 10 0 0 0 10 10"></path><g>
<path d="M1126.5 60h45.5"></path></g><path d="M1172.0 60a10 10 0 0 0 10 -10v0a10 10 0 0 0 -10 -10"></path></g><path d="M1182.0 40h10"></path><path d="M1192.0 40h10"></path><g>
<path d="M1202.0 40h0.0"></path><path d="M1259.0 40h0.0"></path><path d="M1202.0 40h10"></path><g class="non-terminal ">
<path d="M1212.0 40h0.0"></path><path d="M1249.0 40h0.0"></path><rect height="22" width="37.0" x="1212.0" y="29"></rect><text x="1230.5" y="44">id</text></g><path d="M1249.0 40h10"></path><path d="M1212.0 40a10 10 0 0 0 -10 10v0a10 10 0 0 0 10 10"></path><g>
<path d="M1212.0 60h37.0"></path></g><path d="M1249.0 60a10 10 0 0 0 10 -10v0a10 10 0 0 0 -10 -10"></path></g></g></g><path d="M1259.0 40h10"></path><path d="M 1269.0 40 h 20 m -10 -10 v 20 m 10 -20 v 20"></path></g></svg>