<svg class="railroad-diagram" height="80" viewBox="0 0 1090.0 80" width="1090.0" xmlns="http://www.w3.org/2000/svg" xmlns:xlink="http://www.w3.org/1999/xlink">
<defs>
<style type="text/css"><![CDATA[
svg.railroad-diagram { background-color: transparent; }
.terminal rect { fill: #DC382D !important; stroke: #DC382D !important; }
.terminal text { fill: white !important; font-weight: bold; }
.nonterminal rect { fill: none !important; stroke: #DC382D !important; stroke-width: 2; }
.nonterminal text { fill: #DC382D !important; font-weight: bold; }
path { stroke: #DC382D !important; stroke-width: 2; fill: none; }
circle { fill: #DC382D !important; stroke: #DC382D !important; }
]]></style>
</defs>
<g transform="translate(.5 .5)">
<style>/* <![CDATA[ */
	svg.railroad-diagram {
		background-color: transparent;
	}
	svg.railroad-diagram path {
		stroke-width:3;
		stroke: #DC382D;
		fill:rgba(0,0,0,0);
	}
	svg.railroad-diagram text {
		font:bold 14px monospace;
		text-anchor:middle;
	}
	svg.railroad-diagram text.label{
		text-anchor:start;
	}
	svg.railroad-diagram text.comment{
		font:italic 12px monospace;
	}
	svg.railroad-diagram rect{
		stroke-width:3;
		stroke: #DC382D;
		fill: none;
	}
	svg.railroad-diagram rect.group-box {
		stroke: #DC382D;
		stroke-dasharray: 10 5;
		fill: none;
	}

/* ]]> */
</style><g>
<path d="M20 30v20m10 -20v20m-10 -10h20"></path></g><path d="M40 40h10"></path><g>
<path d="M50 40h0.0"></path><path d="M1040.0 40h0.0"></path><g class="terminal ">
<path d="M50.0 40h0.0"></path><path d="M155.0 40h0.0"></path><rect height="22" rx="10" ry="10" width="105.0" x="50.0" y="29"></rect><text x="102.5" y="44">XREADGROUP</text></g><path d="M155.0 40h10"></path><path d="M165.0 40h10"></path><g>
<path d="M175.0 40h0.0"></path><path d="M345.5 40h0.0"></path><g class="non-terminal ">
<path d="M175.0 40h0.0"></path><path d="M237.5 40h0.0"></path><rect height="22" width="62.5" x="175.0" y="29"></rect><text x="206.25" y="44">group</text></g><path d="M237.5 40h10"></path><path d="M247.5 40h10"></path><g class="non-terminal ">
<path d="M257.5 40h0.0"></path><path d="M345.5 40h0.0"></path><rect height="22" width="88.0" x="257.5" y="29"></rect><text x="301.5" y="44">consumer</text></g></g><path d="M345.5 40h10"></path><g>
<path d="M355.5 40h0.0"></path><path d="M540.5 40h0.0"></path><path d="M355.5 40a10 10 0 0 0 10 -10v0a10 10 0 0 1 10 -10"></path><g>
<path d="M375.5 20h145.0"></path></g><path d="M520.5 20a10 10 0 0 1 10 10v0a10 10 0 0 0 10 10"></path><path d="M355.5 40h20"></path><g>
<path d="M375.5 40h0.0"></path><path d="M520.5 40h0.0"></path><g class="terminal ">
<path d="M375.5 40h0.0"></path><path d="M438.0 40h0.0"></path><rect height="22" rx="10" ry="10" width="62.5" x="375.5" y="29"></rect><text x="406.75" y="44">COUNT</text></g><path d="M438.0 40h10"></path><path d="M448.0 40h10"></path><g class="non-terminal ">
<path d="M458.0 40h0.0"></path><path d="M520.5 40h0.0"></path><rect height="22" width="62.5" x="458.0" y="29"></rect><text x="489.25" y="44">count</text></g></g><path d="M520.5 40h20"></path></g><g>
<path d="M540.5 40h0.0"></path><path d="M785.0 40h0.0"></path><path d="M540.5 40a10 10 0 0 0 10 -10v0a10 10 0 0 1 10 -10"></path><g>
<path d="M560.5 20h204.5"></path></g><path d="M765.0 20a10 10 0 0 1 10 10v0a10 10 0 0 0 10 10"></path><path d="M540.5 40h20"></path><g>
<path d="M560.5 40h0.0"></path><path d="M765.0 40h0.0"></path><g class="terminal ">
<path d="M560.5 40h0.0"></path><path d="M623.0 40h0.0"></path><rect height="22" rx="10" ry="10" width="62.5" x="560.5" y="29"></rect><text x="591.75" y="44">BLOCK</text></g><path d="M623.0 40h10"></path><path d="M633.0 40h10"></path><g class="non-terminal ">
<path d="M643.0 40h0.0"></path><path d="M765.0 40h0.0"></path><rect height="22" width="122.0" x="643.0" y="29"></rect><text x="704.0" y="44">milliseconds</text></g></g><path d="M765.0 40h20"></path></g><g>
<path d="M785.0 40h0.0"></path><path d="M887.5 40h0.0"></path><path d="M785.0 40a10 10 0 0 0 10 -10v0a10 10 0 0 1 10 -10"></path><g>
<path d="M805.0 20h62.5"></path></g><path d="M867.5 20a10 10 0 0 1 10 10v0a10 10 0 0 0 10 10"></path><path d="M785.0 40h20"></path><g class="terminal ">
<path d="M805.0 40h0.0"></path><path d="M867.5 40h0.0"></path><rect height="22" rx="10" ry="10" width="62.5" x="805.0" y="29"></rect><text x="836.25" y="44">NOACK</text></g><path d="M867.5 40h20"></path></g><path d="M887.5 40h10"></path><g>
<path d="M897.5 40h0.0"></path><path d="M1040.0 40h0.0"></path><g>
<path d="M897.5 40h0.0"></path><path d="M963.0 40h0.0"></path><path d="M897.5 40h10"></path><g class="non-terminal ">
<path d="M907.5 40h0.0"></path><path d="M953.0 40h0.0"></path><rect height="22" width="45.5" x="907.5" y="29"></rect><text x="930.25" y="44">key</text></g><path d="M953.0 40h10"></path><path d="M907.5 40a10 10 0 0 0 -10 10v0a10 10 0 0 0 10 10"></path><g>
<path d="M907.5 60h45.5"></path></g><path d="M953.0 60a10 10 0 0 0 10 -10v0a10 10 0 0 0 -10 -10"></path></g><path d="M963.0 40h10"></path><path d="M973.0 40h10"></path><g>
<path d="M983.0 40h0.0"></path><path d="M1040.0 40h0.0"></path><path d="M983.0 40h10"></path><g class="non-terminal ">
<path d="M993.0 40h0.0"></path><path d="M1030.0 40h0.0"></path><rect height="22" width="37.0" x="993.0" y="29"></rect><text x="1011.5" y="44">id</text></g><path d="M1030.0 40h10"></path><path d="M993.0 40a10 10 0 0 0 -10 10v0a10 10 0 0 0 10 10"></path><g>
<path d="M993.0 60h37.0"></path></g><path d="M1030.0 60a10 10 0 0 0 10 -10v0a10 10 0 0 0 -10 -10"></path></g></g></g><path d="M1040.0 40h10"></path><path d="M 1050.0 40 h 20 m -10 -10 v 20 m 10 -20 v 20"></path></g></svg>