<svg class="railroad-diagram" height="80" viewBox="0 0 854.0 80" width="854.0" xmlns="http://www.w3.org/2000/svg" xmlns:xlink="http://www.w3.org/1999/xlink">
<defs>
<style type="text/css"><![CDATA[
svg.railroad-diagram { background-color: transparent; }
.terminal rect { fill: #DC382D !important; stroke: #DC382D !important; }
.terminal text { fill: white !important; font-weight: bold; }
.nonterminal rect { fill: none !important; stroke: #DC382D !important; stroke-width: 2; }
.nonterminal text { fill: #DC382D !important; font-weight: bold; }
path { stroke: #DC382D !important; stroke-width: 2; fill: none; }
circle { fill: #DC382D !important; stroke: #DC382D !important; }
]]></style>
</defs>
<g transform="translate(.5 .5)">
<style>/* <![CDATA[ */
	svg.railroad-diagram {
		background-color: transparent;
	}
	svg.railroad-diagram path {
		stroke-width:3;
		stroke: #DC382D;
		fill:rgba(0,0,0,0);
	}
	svg.railroad-diagram text {
		font:bold 14px monospace;
		text-anchor:middle;
	}
	svg.railroad-diagram text.label{
		text-anchor:start;
	}
	svg.railroad-diagram text.comment{
		font:italic 12px monospace;
	}
	svg.railroad-diagram rect{
		stroke-width:3;
		stroke: #DC382D;
		fill: none;
	}
	svg.railroad-diagram rect.group-box {
		stroke: #DC382D;
		stroke-dasharray: 10 5;
		fill: none;
	}

/* ]]> */
</style><g>
<path d="M20 30v20m10 -20v20m-10 -10h20"></path></g><path d="M40 40h10"></path><g>
<path d="M50 40h0.0"></path><path d="M804.0 40h0.0"></path><g class="terminal ">
<path d="M50.0 40h0.0"></path><path d="M112.5 40h0.0"></path><rect height="22" rx="10" ry="10" width="62.5" x="50.0" y="29"></rect><text x="81.25" y="44">XREAD</text></g><path d="M112.5 40h10"></path><g>
<path d="M122.5 40h0.0"></path><path d="M307.5 40h0.0"></path><path d="M122.5 40a10 10 0 0 0 10 -10v0a10 10 0 0 1 10 -10"></path><g>
<path d="M142.5 20h145.0"></path></g><path d="M287.5 20a10 10 0 0 1 10 10v0a10 10 0 0 0 10 10"></path><path d="M122.5 40h20"></path><g>
<path d="M142.5 40h0.0"></path><path d="M287.5 40h0.0"></path><g class="terminal ">
<path d="M142.5 40h0.0"></path><path d="M205.0 40h0.0"></path><rect height="22" rx="10" ry="10" width="62.5" x="142.5" y="29"></rect><text x="173.75" y="44">COUNT</text></g><path d="M205.0 40h10"></path><path d="M215.0 40h10"></path><g class="non-terminal ">
<path d="M225.0 40h0.0"></path><path d="M287.5 40h0.0"></path><rect height="22" width="62.5" x="225.0" y="29"></rect><text x="256.25" y="44">count</text></g></g><path d="M287.5 40h20"></path></g><g>
<path d="M307.5 40h0.0"></path><path d="M552.0 40h0.0"></path><path d="M307.5 40a10 10 0 0 0 10 -10v0a10 10 0 0 1 10 -10"></path><g>
<path d="M327.5 20h204.5"></path></g><path d="M532.0 20a10 10 0 0 1 10 10v0a10 10 0 0 0 10 10"></path><path d="M307.5 40h20"></path><g>
<path d="M327.5 40h0.0"></path><path d="M532.0 40h0.0"></path><g class="terminal ">
<path d="M327.5 40h0.0"></path><path d="M390.0 40h0.0"></path><rect height="22" rx="10" ry="10" width="62.5" x="327.5" y="29"></rect><text x="358.75" y="44">BLOCK</text></g><path d="M390.0 40h10"></path><path d="M400.0 40h10"></path><g class="non-terminal ">
<path d="M410.0 40h0.0"></path><path d="M532.0 40h0.0"></path><rect height="22" width="122.0" x="410.0" y="29"></rect><text x="471.0" y="44">milliseconds</text></g></g><path d="M532.0 40h20"></path></g><path d="M552.0 40h10"></path><g>
<path d="M562.0 40h0.0"></path><path d="M804.0 40h0.0"></path><g class="terminal ">
<path d="M562.0 40h0.0"></path><path d="M641.5 40h0.0"></path><rect height="22" rx="10" ry="10" width="79.5" x="562.0" y="29"></rect><text x="601.75" y="44">STREAMS</text></g><path d="M641.5 40h10"></path><path d="M651.5 40h10"></path><g>
<path d="M661.5 40h0.0"></path><path d="M727.0 40h0.0"></path><path d="M661.5 40h10"></path><g class="non-terminal ">
<path d="M671.5 40h0.0"></path><path d="M717.0 40h0.0"></path><rect height="22" width="45.5" x="671.5" y="29"></rect><text x="694.25" y="44">key</text></g><path d="M717.0 40h10"></path><path d="M671.5 40a10 10 0 0 0 -10 10v0a10 10 0 0 0 10 10"></path><g>
<path d="M671.5 60h45.5"></path></g><path d="M717.0 60a10 10 0 0 0 10 -10v0a10 10 0 0 0 -10 -10"></path></g><path d="M727.0 40h10"></path><path d="M737.0 40h10"></path><g>
<path d="M747.0 40h0.0"></path><path d="M804.0 40h0.0"></path><path d="M747.0 40h10"></path><g class="non-terminal ">
<path d="M757.0 40h0.0"></path><path d="M794.0 40h0.0"></path><rect height="22" width="37.0" x="757.0" y="29"></rect><text x="775.5" y="44">id</text></g><path d="M794.0 40h10"></path><path d="M757.0 40a10 10 0 0 0 -10 10v0a10 10 0 0 0 10 10"></path><g>
<path d="M757.0 60h37.0"></path></g><path d="M794.0 60a10 10 0 0 0 10 -10v0a10 10 0 0 0 -10 -10"></path></g></g></g><path d="M804.0 40h10"></path><path d="M 814.0 40 h 20 m -10 -10 v 20 m 10 -20 v 20"></path></g></svg>