<svg class="railroad-diagram" height="71" viewBox="0 0 979.5 71" width="979.5" xmlns="http://www.w3.org/2000/svg" xmlns:xlink="http://www.w3.org/1999/xlink">
<defs>
<style type="text/css"><![CDATA[
svg.railroad-diagram { background-color: transparent; }
.terminal rect { fill: #DC382D !important; stroke: #DC382D !important; }
.terminal text { fill: white !important; font-weight: bold; }
.nonterminal rect { fill: none !important; stroke: #DC382D !important; stroke-width: 2; }
.nonterminal text { fill: #DC382D !important; font-weight: bold; }
path { stroke: #DC382D !important; stroke-width: 2; fill: none; }
circle { fill: #DC382D !important; stroke: #DC382D !important; }
]]></style>
</defs>
<g transform="translate(.5 .5)">
<style>/* <![CDATA[ */
	svg.railroad-diagram {
		background-color: transparent;
	}
	svg.railroad-diagram path {
		stroke-width:3;
		stroke: #DC382D;
		fill:rgba(0,0,0,0);
	}
	svg.railroad-diagram text {
		font:bold 14px monospace;
		text-anchor:middle;
	}
	svg.railroad-diagram text.label{
		text-anchor:start;
	}
	svg.railroad-diagram text.comment{
		font:italic 12px monospace;
	}
	svg.railroad-diagram rect{
		stroke-width:3;
		stroke: #DC382D;
		fill: none;
	}
	svg.railroad-diagram rect.group-box {
		stroke: #DC382D;
		stroke-dasharray: 10 5;
		fill: none;
	}

/* ]]> */
</style><g>
<path d="M20 30v20m10 -20v20m-10 -10h20"></path></g><path d="M40 40h10"></path><g>
<path d="M50 40h0.0"></path><path d="M929.5 40h0.0"></path><g class="terminal ">
<path d="M50.0 40h0.0"></path><path d="M121.0 40h0.0"></path><rect height="22" rx="10" ry="10" width="71.0" x="50.0" y="29"></rect><text x="85.5" y="44">XSETID</text></g><path d="M121.0 40h10"></path><path d="M131.0 40h10"></path><g class="non-terminal ">
<path d="M141.0 40h0.0"></path><path d="M186.5 40h0.0"></path><rect height="22" width="45.5" x="141.0" y="29"></rect><text x="163.75" y="44">key</text></g><path d="M186.5 40h10"></path><path d="M196.5 40h10"></path><g class="non-terminal ">
<path d="M206.5 40h0.0"></path><path d="M286.0 40h0.0"></path><rect height="22" width="79.5" x="206.5" y="29"></rect><text x="246.25" y="44">last-id</text></g><path d="M286.0 40h10"></path><g>
<path d="M296.0 40h0.0"></path><path d="M608.5 40h0.0"></path><path d="M296.0 40a10 10 0 0 0 10 -10v0a10 10 0 0 1 10 -10"></path><g>
<path d="M316.0 20h272.5"></path></g><path d="M588.5 20a10 10 0 0 1 10 10v0a10 10 0 0 0 10 10"></path><path d="M296.0 40h20"></path><g>
<path d="M316.0 40h0.0"></path><path d="M588.5 40h0.0"></path><g class="terminal ">
<path d="M316.0 40h0.0"></path><path d="M438.0 40h0.0"></path><rect height="22" rx="10" ry="10" width="122.0" x="316.0" y="29"></rect><text x="377.0" y="44">ENTRIESADDED</text></g><path d="M438.0 40h10"></path><path d="M448.0 40h10"></path><g class="non-terminal ">
<path d="M458.0 40h0.0"></path><path d="M588.5 40h0.0"></path><rect height="22" width="130.5" x="458.0" y="29"></rect><text x="523.25" y="44">entries-added</text></g></g><path d="M588.5 40h20"></path></g><g>
<path d="M608.5 40h0.0"></path><path d="M929.5 40h0.0"></path><path d="M608.5 40a10 10 0 0 0 10 -10v0a10 10 0 0 1 10 -10"></path><g>
<path d="M628.5 20h281.0"></path></g><path d="M909.5 20a10 10 0 0 1 10 10v0a10 10 0 0 0 10 10"></path><path d="M608.5 40h20"></path><g>
<path d="M628.5 40h0.0"></path><path d="M909.5 40h0.0"></path><g class="terminal ">
<path d="M628.5 40h0.0"></path><path d="M750.5 40h0.0"></path><rect height="22" rx="10" ry="10" width="122.0" x="628.5" y="29"></rect><text x="689.5" y="44">MAXDELETEDID</text></g><path d="M750.5 40h10"></path><path d="M760.5 40h10"></path><g class="non-terminal ">
<path d="M770.5 40h0.0"></path><path d="M909.5 40h0.0"></path><rect height="22" width="139.0" x="770.5" y="29"></rect><text x="840.0" y="44">max-deleted-id</text></g></g><path d="M909.5 40h20"></path></g></g><path d="M929.5 40h10"></path><path d="M 939.5 40 h 20 m -10 -10 v 20 m 10 -20 v 20"></path></g></svg>