<svg class="railroad-diagram" height="101" viewBox="0 0 769.0 101" width="769.0" xmlns="http://www.w3.org/2000/svg" xmlns:xlink="http://www.w3.org/1999/xlink">
<defs>
<style type="text/css"><![CDATA[
svg.railroad-diagram { background-color: transparent; }
.terminal rect { fill: #DC382D !important; stroke: #DC382D !important; }
.terminal text { fill: white !important; font-weight: bold; }
.nonterminal rect { fill: none !important; stroke: #DC382D !important; stroke-width: 2; }
.nonterminal text { fill: #DC382D !important; font-weight: bold; }
path { stroke: #DC382D !important; stroke-width: 2; fill: none; }
circle { fill: #DC382D !important; stroke: #DC382D !important; }
]]></style>
</defs>
<g transform="translate(.5 .5)">
<style>/* <![CDATA[ */
	svg.railroad-diagram {
		background-color: transparent;
	}
	svg.railroad-diagram path {
		stroke-width:3;
		stroke: #DC382D;
		fill:rgba(0,0,0,0);
	}
	svg.railroad-diagram text {
		font:bold 14px monospace;
		text-anchor:middle;
	}
	svg.railroad-diagram text.label{
		text-anchor:start;
	}
	svg.railroad-diagram text.comment{
		font:italic 12px monospace;
	}
	svg.railroad-diagram rect{
		stroke-width:3;
		stroke: #DC382D;
		fill: none;
	}
	svg.railroad-diagram rect.group-box {
		stroke: #DC382D;
		stroke-dasharray: 10 5;
		fill: none;
	}

/* ]]> */
</style><g>
<path d="M20 30v20m10 -20v20m-10 -10h20"></path></g><path d="M40 40h10"></path><g>
<path d="M50 40h0.0"></path><path d="M719.0 40h0.0"></path><g class="terminal ">
<path d="M50.0 40h0.0"></path><path d="M112.5 40h0.0"></path><rect height="22" rx="10" ry="10" width="62.5" x="50.0" y="29"></rect><text x="81.25" y="44">XTRIM</text></g><path d="M112.5 40h10"></path><path d="M122.5 40h10"></path><g class="non-terminal ">
<path d="M132.5 40h0.0"></path><path d="M178.0 40h0.0"></path><rect height="22" width="45.5" x="132.5" y="29"></rect><text x="155.25" y="44">key</text></g><path d="M178.0 40h10"></path><path d="M188.0 40h10"></path><g>
<path d="M198.0 40h0.0"></path><path d="M719.0 40h0.0"></path><g>
<path d="M198.0 40h0.0"></path><path d="M309.0 40h0.0"></path><path d="M198.0 40h20"></path><g class="terminal ">
<path d="M218.0 40h0.0"></path><path d="M289.0 40h0.0"></path><rect height="22" rx="10" ry="10" width="71.0" x="218.0" y="29"></rect><text x="253.5" y="44">MAXLEN</text></g><path d="M289.0 40h20"></path><path d="M198.0 40a10 10 0 0 1 10 10v10a10 10 0 0 0 10 10"></path><g class="terminal ">
<path d="M218.0 70h4.25"></path><path d="M284.75 70h4.25"></path><rect height="22" rx="10" ry="10" width="62.5" x="222.25" y="59"></rect><text x="253.5" y="74">MINID</text></g><path d="M289.0 70a10 10 0 0 0 10 -10v-10a10 10 0 0 1 10 -10"></path></g><g>
<path d="M309.0 40h0.0"></path><path d="M417.5 40h0.0"></path><path d="M309.0 40a10 10 0 0 0 10 -10v0a10 10 0 0 1 10 -10"></path><g>
<path d="M329.0 20h68.5"></path></g><path d="M397.5 20a10 10 0 0 1 10 10v0a10 10 0 0 0 10 10"></path><path d="M309.0 40h20"></path><g>
<path d="M329.0 40h0.0"></path><path d="M397.5 40h0.0"></path><path d="M329.0 40h20"></path><g class="terminal ">
<path d="M349.0 40h0.0"></path><path d="M377.5 40h0.0"></path><rect height="22" rx="10" ry="10" width="28.5" x="349.0" y="29"></rect><text x="363.25" y="44">=</text></g><path d="M377.5 40h20"></path><path d="M329.0 40a10 10 0 0 1 10 10v10a10 10 0 0 0 10 10"></path><g class="terminal ">
<path d="M349.0 70h0.0"></path><path d="M377.5 70h0.0"></path><rect height="22" rx="10" ry="10" width="28.5" x="349.0" y="59"></rect><text x="363.25" y="74">~</text></g><path d="M377.5 70a10 10 0 0 0 10 -10v-10a10 10 0 0 1 10 -10"></path></g><path d="M397.5 40h20"></path></g><path d="M417.5 40h10"></path><g class="non-terminal ">
<path d="M427.5 40h0.0"></path><path d="M524.0 40h0.0"></path><rect height="22" width="96.5" x="427.5" y="29"></rect><text x="475.75" y="44">threshold</text></g><path d="M524.0 40h10"></path><g>
<path d="M534.0 40h0.0"></path><path d="M719.0 40h0.0"></path><path d="M534.0 40a10 10 0 0 0 10 -10v0a10 10 0 0 1 10 -10"></path><g>
<path d="M554.0 20h145.0"></path></g><path d="M699.0 20a10 10 0 0 1 10 10v0a10 10 0 0 0 10 10"></path><path d="M534.0 40h20"></path><g>
<path d="M554.0 40h0.0"></path><path d="M699.0 40h0.0"></path><g class="terminal ">
<path d="M554.0 40h0.0"></path><path d="M616.5 40h0.0"></path><rect height="22" rx="10" ry="10" width="62.5" x="554.0" y="29"></rect><text x="585.25" y="44">LIMIT</text></g><path d="M616.5 40h10"></path><path d="M626.5 40h10"></path><g class="non-terminal ">
<path d="M636.5 40h0.0"></path><path d="M699.0 40h0.0"></path><rect height="22" width="62.5" x="636.5" y="29"></rect><text x="667.75" y="44">count</text></g></g><path d="M699.0 40h20"></path></g></g></g><path d="M719.0 40h10"></path><path d="M 729.0 40 h 20 m -10 -10 v 20 m 10 -20 v 20"></path></g></svg>