<svg class="railroad-diagram" height="101" viewBox="0 0 818.0 101" width="818.0" xmlns="http://www.w3.org/2000/svg" xmlns:xlink="http://www.w3.org/1999/xlink">
<defs>
<style type="text/css"><![CDATA[
svg.railroad-diagram { background-color: transparent; }
.terminal rect { fill: #DC382D !important; stroke: #DC382D !important; }
.terminal text { fill: white !important; font-weight: bold; }
.nonterminal rect { fill: none !important; stroke: #DC382D !important; stroke-width: 2; }
.nonterminal text { fill: #DC382D !important; font-weight: bold; }
path { stroke: #DC382D !important; stroke-width: 2; fill: none; }
circle { fill: #DC382D !important; stroke: #DC382D !important; }
]]></style>
</defs>
<g transform="translate(.5 .5)">
<style>/* <![CDATA[ */
	svg.railroad-diagram {
		background-color: transparent;
	}
	svg.railroad-diagram path {
		stroke-width:3;
		stroke: #DC382D;
		fill:rgba(0,0,0,0);
	}
	svg.railroad-diagram text {
		font:bold 14px monospace;
		text-anchor:middle;
	}
	svg.railroad-diagram text.label{
		text-anchor:start;
	}
	svg.railroad-diagram text.comment{
		font:italic 12px monospace;
	}
	svg.railroad-diagram rect{
		stroke-width:3;
		stroke: #DC382D;
		fill: none;
	}
	svg.railroad-diagram rect.group-box {
		stroke: #DC382D;
		stroke-dasharray: 10 5;
		fill: none;
	}

/* ]]> */
</style><g>
<path d="M20 30v20m10 -20v20m-10 -10h20"></path></g><path d="M40 40h10"></path><g>
<path d="M50 40h0.0"></path><path d="M768.0 40h0.0"></path><g class="terminal ">
<path d="M50.0 40h0.0"></path><path d="M104.0 40h0.0"></path><rect height="22" rx="10" ry="10" width="54.0" x="50.0" y="29"></rect><text x="77.0" y="44">ZADD</text></g><path d="M104.0 40h10"></path><path d="M114.0 40h10"></path><g class="non-terminal ">
<path d="M124.0 40h0.0"></path><path d="M169.5 40h0.0"></path><rect height="22" width="45.5" x="124.0" y="29"></rect><text x="146.75" y="44">key</text></g><path d="M169.5 40h10"></path><g>
<path d="M179.5 40h0.0"></path><path d="M296.5 40h0.0"></path><path d="M179.5 40a10 10 0 0 0 10 -10v0a10 10 0 0 1 10 -10"></path><g>
<path d="M199.5 20h77.0"></path></g><path d="M276.5 20a10 10 0 0 1 10 10v0a10 10 0 0 0 10 10"></path><path d="M179.5 40h20"></path><g>
<path d="M199.5 40h0.0"></path><path d="M276.5 40h0.0"></path><path d="M199.5 40h20"></path><g class="terminal ">
<path d="M219.5 40h0.0"></path><path d="M256.5 40h0.0"></path><rect height="22" rx="10" ry="10" width="37.0" x="219.5" y="29"></rect><text x="238.0" y="44">NX</text></g><path d="M256.5 40h20"></path><path d="M199.5 40a10 10 0 0 1 10 10v10a10 10 0 0 0 10 10"></path><g class="terminal ">
<path d="M219.5 70h0.0"></path><path d="M256.5 70h0.0"></path><rect height="22" rx="10" ry="10" width="37.0" x="219.5" y="59"></rect><text x="238.0" y="74">XX</text></g><path d="M256.5 70a10 10 0 0 0 10 -10v-10a10 10 0 0 1 10 -10"></path></g><path d="M276.5 40h20"></path></g><g>
<path d="M296.5 40h0.0"></path><path d="M413.5 40h0.0"></path><path d="M296.5 40a10 10 0 0 0 10 -10v0a10 10 0 0 1 10 -10"></path><g>
<path d="M316.5 20h77.0"></path></g><path d="M393.5 20a10 10 0 0 1 10 10v0a10 10 0 0 0 10 10"></path><path d="M296.5 40h20"></path><g>
<path d="M316.5 40h0.0"></path><path d="M393.5 40h0.0"></path><path d="M316.5 40h20"></path><g class="terminal ">
<path d="M336.5 40h0.0"></path><path d="M373.5 40h0.0"></path><rect height="22" rx="10" ry="10" width="37.0" x="336.5" y="29"></rect><text x="355.0" y="44">GT</text></g><path d="M373.5 40h20"></path><path d="M316.5 40a10 10 0 0 1 10 10v10a10 10 0 0 0 10 10"></path><g class="terminal ">
<path d="M336.5 70h0.0"></path><path d="M373.5 70h0.0"></path><rect height="22" rx="10" ry="10" width="37.0" x="336.5" y="59"></rect><text x="355.0" y="74">LT</text></g><path d="M373.5 70a10 10 0 0 0 10 -10v-10a10 10 0 0 1 10 -10"></path></g><path d="M393.5 40h20"></path></g><g>
<path d="M413.5 40h0.0"></path><path d="M490.5 40h0.0"></path><path d="M413.5 40a10 10 0 0 0 10 -10v0a10 10 0 0 1 10 -10"></path><g>
<path d="M433.5 20h37.0"></path></g><path d="M470.5 20a10 10 0 0 1 10 10v0a10 10 0 0 0 10 10"></path><path d="M413.5 40h20"></path><g class="terminal ">
<path d="M433.5 40h0.0"></path><path d="M470.5 40h0.0"></path><rect height="22" rx="10" ry="10" width="37.0" x="433.5" y="29"></rect><text x="452.0" y="44">CH</text></g><path d="M470.5 40h20"></path></g><g>
<path d="M490.5 40h0.0"></path><path d="M584.5 40h0.0"></path><path d="M490.5 40a10 10 0 0 0 10 -10v0a10 10 0 0 1 10 -10"></path><g>
<path d="M510.5 20h54.0"></path></g><path d="M564.5 20a10 10 0 0 1 10 10v0a10 10 0 0 0 10 10"></path><path d="M490.5 40h20"></path><g class="terminal ">
<path d="M510.5 40h0.0"></path><path d="M564.5 40h0.0"></path><rect height="22" rx="10" ry="10" width="54.0" x="510.5" y="29"></rect><text x="537.5" y="44">INCR</text></g><path d="M564.5 40h20"></path></g><path d="M584.5 40h10"></path><g>
<path d="M594.5 40h0.0"></path><path d="M768.0 40h0.0"></path><path d="M594.5 40h10"></path><g>
<path d="M604.5 40h0.0"></path><path d="M758.0 40h0.0"></path><g class="non-terminal ">
<path d="M604.5 40h0.0"></path><path d="M667.0 40h0.0"></path><rect height="22" width="62.5" x="604.5" y="29"></rect><text x="635.75" y="44">score</text></g><path d="M667.0 40h10"></path><path d="M677.0 40h10"></path><g class="non-terminal ">
<path d="M687.0 40h0.0"></path><path d="M758.0 40h0.0"></path><rect height="22" width="71.0" x="687.0" y="29"></rect><text x="722.5" y="44">member</text></g></g><path d="M758.0 40h10"></path><path d="M604.5 40a10 10 0 0 0 -10 10v0a10 10 0 0 0 10 10"></path><g>
<path d="M604.5 60h153.5"></path></g><path d="M758.0 60a10 10 0 0 0 10 -10v0a10 10 0 0 0 -10 -10"></path></g></g><path d="M768.0 40h10"></path><path d="M 778.0 40 h 20 m -10 -10 v 20 m 10 -20 v 20"></path></g></svg>