<svg class="railroad-diagram" height="101" viewBox="0 0 628.0 101" width="628.0" xmlns="http://www.w3.org/2000/svg" xmlns:xlink="http://www.w3.org/1999/xlink">
<defs>
<style type="text/css"><![CDATA[
svg.railroad-diagram { background-color: transparent; }
.terminal rect { fill: #DC382D !important; stroke: #DC382D !important; }
.terminal text { fill: white !important; font-weight: bold; }
.nonterminal rect { fill: none !important; stroke: #DC382D !important; stroke-width: 2; }
.nonterminal text { fill: #DC382D !important; font-weight: bold; }
path { stroke: #DC382D !important; stroke-width: 2; fill: none; }
circle { fill: #DC382D !important; stroke: #DC382D !important; }
]]></style>
</defs>
<g transform="translate(.5 .5)">
<style>/* <![CDATA[ */
	svg.railroad-diagram {
		background-color: transparent;
	}
	svg.railroad-diagram path {
		stroke-width:3;
		stroke: #DC382D;
		fill:rgba(0,0,0,0);
	}
	svg.railroad-diagram text {
		font:bold 14px monospace;
		text-anchor:middle;
	}
	svg.railroad-diagram text.label{
		text-anchor:start;
	}
	svg.railroad-diagram text.comment{
		font:italic 12px monospace;
	}
	svg.railroad-diagram rect{
		stroke-width:3;
		stroke: #DC382D;
		fill: none;
	}
	svg.railroad-diagram rect.group-box {
		stroke: #DC382D;
		stroke-dasharray: 10 5;
		fill: none;
	}

/* ]]> */
</style><g>
<path d="M20 30v20m10 -20v20m-10 -10h20"></path></g><path d="M40 40h10"></path><g>
<path d="M50 40h0.0"></path><path d="M578.0 40h0.0"></path><g class="terminal ">
<path d="M50.0 40h0.0"></path><path d="M112.5 40h0.0"></path><rect height="22" rx="10" ry="10" width="62.5" x="50.0" y="29"></rect><text x="81.25" y="44">ZMPOP</text></g><path d="M112.5 40h10"></path><path d="M122.5 40h10"></path><g class="non-terminal ">
<path d="M132.5 40h0.0"></path><path d="M212.0 40h0.0"></path><rect height="22" width="79.5" x="132.5" y="29"></rect><text x="172.25" y="44">numkeys</text></g><path d="M212.0 40h10"></path><path d="M222.0 40h10"></path><g>
<path d="M232.0 40h0.0"></path><path d="M297.5 40h0.0"></path><path d="M232.0 40h10"></path><g class="non-terminal ">
<path d="M242.0 40h0.0"></path><path d="M287.5 40h0.0"></path><rect height="22" width="45.5" x="242.0" y="29"></rect><text x="264.75" y="44">key</text></g><path d="M287.5 40h10"></path><path d="M242.0 40a10 10 0 0 0 -10 10v0a10 10 0 0 0 10 10"></path><g>
<path d="M242.0 60h45.5"></path></g><path d="M287.5 60a10 10 0 0 0 10 -10v0a10 10 0 0 0 -10 -10"></path></g><path d="M297.5 40h10"></path><g>
<path d="M307.5 40h0.0"></path><path d="M393.0 40h0.0"></path><path d="M307.5 40h20"></path><g class="terminal ">
<path d="M327.5 40h0.0"></path><path d="M373.0 40h0.0"></path><rect height="22" rx="10" ry="10" width="45.5" x="327.5" y="29"></rect><text x="350.25" y="44">MIN</text></g><path d="M373.0 40h20"></path><path d="M307.5 40a10 10 0 0 1 10 10v10a10 10 0 0 0 10 10"></path><g class="terminal ">
<path d="M327.5 70h0.0"></path><path d="M373.0 70h0.0"></path><rect height="22" rx="10" ry="10" width="45.5" x="327.5" y="59"></rect><text x="350.25" y="74">MAX</text></g><path d="M373.0 70a10 10 0 0 0 10 -10v-10a10 10 0 0 1 10 -10"></path></g><g>
<path d="M393.0 40h0.0"></path><path d="M578.0 40h0.0"></path><path d="M393.0 40a10 10 0 0 0 10 -10v0a10 10 0 0 1 10 -10"></path><g>
<path d="M413.0 20h145.0"></path></g><path d="M558.0 20a10 10 0 0 1 10 10v0a10 10 0 0 0 10 10"></path><path d="M393.0 40h20"></path><g>
<path d="M413.0 40h0.0"></path><path d="M558.0 40h0.0"></path><g class="terminal ">
<path d="M413.0 40h0.0"></path><path d="M475.5 40h0.0"></path><rect height="22" rx="10" ry="10" width="62.5" x="413.0" y="29"></rect><text x="444.25" y="44">COUNT</text></g><path d="M475.5 40h10"></path><path d="M485.5 40h10"></path><g class="non-terminal ">
<path d="M495.5 40h0.0"></path><path d="M558.0 40h0.0"></path><rect height="22" width="62.5" x="495.5" y="29"></rect><text x="526.75" y="44">count</text></g></g><path d="M558.0 40h20"></path></g></g><path d="M578.0 40h10"></path><path d="M 588.0 40 h 20 m -10 -10 v 20 m 10 -20 v 20"></path></g></svg>