<svg class="railroad-diagram" height="79" viewBox="0 0 546.5 79" width="546.5" xmlns="http://www.w3.org/2000/svg" xmlns:xlink="http://www.w3.org/1999/xlink">
<defs>
<style type="text/css"><![CDATA[
svg.railroad-diagram { background-color: transparent; }
.terminal rect { fill: #DC382D !important; stroke: #DC382D !important; }
.terminal text { fill: white !important; font-weight: bold; }
.nonterminal rect { fill: none !important; stroke: #DC382D !important; stroke-width: 2; }
.nonterminal text { fill: #DC382D !important; font-weight: bold; }
path { stroke: #DC382D !important; stroke-width: 2; fill: none; }
circle { fill: #DC382D !important; stroke: #DC382D !important; }
]]></style>
</defs>
<g transform="translate(.5 .5)">
<style>/* <![CDATA[ */
	svg.railroad-diagram {
		background-color: transparent;
	}
	svg.railroad-diagram path {
		stroke-width:3;
		stroke: #DC382D;
		fill:rgba(0,0,0,0);
	}
	svg.railroad-diagram text {
		font:bold 14px monospace;
		text-anchor:middle;
	}
	svg.railroad-diagram text.label{
		text-anchor:start;
	}
	svg.railroad-diagram text.comment{
		font:italic 12px monospace;
	}
	svg.railroad-diagram rect{
		stroke-width:3;
		stroke: #DC382D;
		fill: none;
	}
	svg.railroad-diagram rect.group-box {
		stroke: #DC382D;
		stroke-dasharray: 10 5;
		fill: none;
	}

/* ]]> */
</style><g>
<path d="M20 38v20m10 -20v20m-10 -10h20"></path></g><path d="M40 48h10"></path><g>
<path d="M50 48h0.0"></path><path d="M496.5 48h0.0"></path><g class="terminal ">
<path d="M50.0 48h0.0"></path><path d="M163.5 48h0.0"></path><rect height="22" rx="10" ry="10" width="113.5" x="50.0" y="37"></rect><text x="106.75" y="52">ZRANDMEMBER</text></g><path d="M163.5 48h10"></path><path d="M173.5 48h10"></path><g class="non-terminal ">
<path d="M183.5 48h0.0"></path><path d="M229.0 48h0.0"></path><rect height="22" width="45.5" x="183.5" y="37"></rect><text x="206.25" y="52">key</text></g><path d="M229.0 48h10"></path><g>
<path d="M239.0 48h0.0"></path><path d="M496.5 48h0.0"></path><path d="M239.0 48a10 10 0 0 0 10 -10v-8a10 10 0 0 1 10 -10"></path><g>
<path d="M259.0 20h217.5"></path></g><path d="M476.5 20a10 10 0 0 1 10 10v8a10 10 0 0 0 10 10"></path><path d="M239.0 48h20"></path><g>
<path d="M259.0 48h0.0"></path><path d="M476.5 48h0.0"></path><g class="non-terminal ">
<path d="M259.0 48h0.0"></path><path d="M321.5 48h0.0"></path><rect height="22" width="62.5" x="259.0" y="37"></rect><text x="290.25" y="52">count</text></g><path d="M321.5 48h10"></path><g>
<path d="M331.5 48h0.0"></path><path d="M476.5 48h0.0"></path><path d="M331.5 48a10 10 0 0 0 10 -10v0a10 10 0 0 1 10 -10"></path><g>
<path d="M351.5 28h105.0"></path></g><path d="M456.5 28a10 10 0 0 1 10 10v0a10 10 0 0 0 10 10"></path><path d="M331.5 48h20"></path><g class="terminal ">
<path d="M351.5 48h0.0"></path><path d="M456.5 48h0.0"></path><rect height="22" rx="10" ry="10" width="105.0" x="351.5" y="37"></rect><text x="404.0" y="52">WITHSCORES</text></g><path d="M456.5 48h20"></path></g></g><path d="M476.5 48h20"></path></g></g><path d="M496.5 48h10"></path><path d="M 506.5 48 h 20 m -10 -10 v 20 m 10 -20 v 20"></path></g></svg>