<svg class="railroad-diagram" height="101" viewBox="0 0 1006.5 101" width="1006.5" xmlns="http://www.w3.org/2000/svg" xmlns:xlink="http://www.w3.org/1999/xlink">
<defs>
<style type="text/css"><![CDATA[
svg.railroad-diagram { background-color: transparent; }
.terminal rect { fill: #DC382D !important; stroke: #DC382D !important; }
.terminal text { fill: white !important; font-weight: bold; }
.nonterminal rect { fill: none !important; stroke: #DC382D !important; stroke-width: 2; }
.nonterminal text { fill: #DC382D !important; font-weight: bold; }
path { stroke: #DC382D !important; stroke-width: 2; fill: none; }
circle { fill: #DC382D !important; stroke: #DC382D !important; }
]]></style>
</defs>
<g transform="translate(.5 .5)">
<style>/* <![CDATA[ */
	svg.railroad-diagram {
		background-color: transparent;
	}
	svg.railroad-diagram path {
		stroke-width:3;
		stroke: #DC382D;
		fill:rgba(0,0,0,0);
	}
	svg.railroad-diagram text {
		font:bold 14px monospace;
		text-anchor:middle;
	}
	svg.railroad-diagram text.label{
		text-anchor:start;
	}
	svg.railroad-diagram text.comment{
		font:italic 12px monospace;
	}
	svg.railroad-diagram rect{
		stroke-width:3;
		stroke: #DC382D;
		fill: none;
	}
	svg.railroad-diagram rect.group-box {
		stroke: #DC382D;
		stroke-dasharray: 10 5;
		fill: none;
	}

/* ]]> */
</style><g>
<path d="M20 30v20m10 -20v20m-10 -10h20"></path></g><path d="M40 40h10"></path><g>
<path d="M50 40h0.0"></path><path d="M956.5 40h0.0"></path><g class="terminal ">
<path d="M50.0 40h0.0"></path><path d="M163.5 40h0.0"></path><rect height="22" rx="10" ry="10" width="113.5" x="50.0" y="29"></rect><text x="106.75" y="44">ZRANGESTORE</text></g><path d="M163.5 40h10"></path><path d="M173.5 40h10"></path><g class="non-terminal ">
<path d="M183.5 40h0.0"></path><path d="M229.0 40h0.0"></path><rect height="22" width="45.5" x="183.5" y="29"></rect><text x="206.25" y="44">dst</text></g><path d="M229.0 40h10"></path><path d="M239.0 40h10"></path><g class="non-terminal ">
<path d="M249.0 40h0.0"></path><path d="M294.5 40h0.0"></path><rect height="22" width="45.5" x="249.0" y="29"></rect><text x="271.75" y="44">src</text></g><path d="M294.5 40h10"></path><path d="M304.5 40h10"></path><g class="non-terminal ">
<path d="M314.5 40h0.0"></path><path d="M360.0 40h0.0"></path><rect height="22" width="45.5" x="314.5" y="29"></rect><text x="337.25" y="44">min</text></g><path d="M360.0 40h10"></path><path d="M370.0 40h10"></path><g class="non-terminal ">
<path d="M380.0 40h0.0"></path><path d="M425.5 40h0.0"></path><rect height="22" width="45.5" x="380.0" y="29"></rect><text x="402.75" y="44">max</text></g><path d="M425.5 40h10"></path><g>
<path d="M435.5 40h0.0"></path><path d="M595.0 40h0.0"></path><path d="M435.5 40a10 10 0 0 0 10 -10v0a10 10 0 0 1 10 -10"></path><g>
<path d="M455.5 20h119.5"></path></g><path d="M575.0 20a10 10 0 0 1 10 10v0a10 10 0 0 0 10 10"></path><path d="M435.5 40h20"></path><g>
<path d="M455.5 40h0.0"></path><path d="M575.0 40h0.0"></path><path d="M455.5 40h20"></path><g class="terminal ">
<path d="M475.5 40h0.0"></path><path d="M555.0 40h0.0"></path><rect height="22" rx="10" ry="10" width="79.5" x="475.5" y="29"></rect><text x="515.25" y="44">BYSCORE</text></g><path d="M555.0 40h20"></path><path d="M455.5 40a10 10 0 0 1 10 10v10a10 10 0 0 0 10 10"></path><g class="terminal ">
<path d="M475.5 70h8.5"></path><path d="M546.5 70h8.5"></path><rect height="22" rx="10" ry="10" width="62.5" x="484.0" y="59"></rect><text x="515.25" y="74">BYLEX</text></g><path d="M555.0 70a10 10 0 0 0 10 -10v-10a10 10 0 0 1 10 -10"></path></g><path d="M575.0 40h20"></path></g><g>
<path d="M595.0 40h0.0"></path><path d="M680.5 40h0.0"></path><path d="M595.0 40a10 10 0 0 0 10 -10v0a10 10 0 0 1 10 -10"></path><g>
<path d="M615.0 20h45.5"></path></g><path d="M660.5 20a10 10 0 0 1 10 10v0a10 10 0 0 0 10 10"></path><path d="M595.0 40h20"></path><g class="terminal ">
<path d="M615.0 40h0.0"></path><path d="M660.5 40h0.0"></path><rect height="22" rx="10" ry="10" width="45.5" x="615.0" y="29"></rect><text x="637.75" y="44">REV</text></g><path d="M660.5 40h20"></path></g><g>
<path d="M680.5 40h0.0"></path><path d="M956.5 40h0.0"></path><path d="M680.5 40a10 10 0 0 0 10 -10v0a10 10 0 0 1 10 -10"></path><g>
<path d="M700.5 20h236.0"></path></g><path d="M936.5 20a10 10 0 0 1 10 10v0a10 10 0 0 0 10 10"></path><path d="M680.5 40h20"></path><g>
<path d="M700.5 40h0.0"></path><path d="M936.5 40h0.0"></path><g class="terminal ">
<path d="M700.5 40h0.0"></path><path d="M763.0 40h0.0"></path><rect height="22" rx="10" ry="10" width="62.5" x="700.5" y="29"></rect><text x="731.75" y="44">LIMIT</text></g><path d="M763.0 40h10"></path><path d="M773.0 40h10"></path><g class="non-terminal ">
<path d="M783.0 40h0.0"></path><path d="M854.0 40h0.0"></path><rect height="22" width="71.0" x="783.0" y="29"></rect><text x="818.5" y="44">offset</text></g><path d="M854.0 40h10"></path><path d="M864.0 40h10"></path><g class="non-terminal ">
<path d="M874.0 40h0.0"></path><path d="M936.5 40h0.0"></path><rect height="22" width="62.5" x="874.0" y="29"></rect><text x="905.25" y="44">count</text></g></g><path d="M936.5 40h20"></path></g></g><path d="M956.5 40h10"></path><path d="M 966.5 40 h 20 m -10 -10 v 20 m 10 -20 v 20"></path></g></svg>