<svg class="railroad-diagram" height="71" viewBox="0 0 858.0 71" width="858.0" xmlns="http://www.w3.org/2000/svg" xmlns:xlink="http://www.w3.org/1999/xlink">
<defs>
<style type="text/css"><![CDATA[
svg.railroad-diagram { background-color: transparent; }
.terminal rect { fill: #DC382D !important; stroke: #DC382D !important; }
.terminal text { fill: white !important; font-weight: bold; }
.nonterminal rect { fill: none !important; stroke: #DC382D !important; stroke-width: 2; }
.nonterminal text { fill: #DC382D !important; font-weight: bold; }
path { stroke: #DC382D !important; stroke-width: 2; fill: none; }
circle { fill: #DC382D !important; stroke: #DC382D !important; }
]]></style>
</defs>
<g transform="translate(.5 .5)">
<style>/* <![CDATA[ */
	svg.railroad-diagram {
		background-color: transparent;
	}
	svg.railroad-diagram path {
		stroke-width:3;
		stroke: #DC382D;
		fill:rgba(0,0,0,0);
	}
	svg.railroad-diagram text {
		font:bold 14px monospace;
		text-anchor:middle;
	}
	svg.railroad-diagram text.label{
		text-anchor:start;
	}
	svg.railroad-diagram text.comment{
		font:italic 12px monospace;
	}
	svg.railroad-diagram rect{
		stroke-width:3;
		stroke: #DC382D;
		fill: none;
	}
	svg.railroad-diagram rect.group-box {
		stroke: #DC382D;
		stroke-dasharray: 10 5;
		fill: none;
	}

/* ]]> */
</style><g>
<path d="M20 30v20m10 -20v20m-10 -10h20"></path></g><path d="M40 40h10"></path><g>
<path d="M50 40h0.0"></path><path d="M808.0 40h0.0"></path><g class="terminal ">
<path d="M50.0 40h0.0"></path><path d="M180.5 40h0.0"></path><rect height="22" rx="10" ry="10" width="130.5" x="50.0" y="29"></rect><text x="115.25" y="44">ZRANGEBYSCORE</text></g><path d="M180.5 40h10"></path><path d="M190.5 40h10"></path><g class="non-terminal ">
<path d="M200.5 40h0.0"></path><path d="M246.0 40h0.0"></path><rect height="22" width="45.5" x="200.5" y="29"></rect><text x="223.25" y="44">key</text></g><path d="M246.0 40h10"></path><path d="M256.0 40h10"></path><g class="non-terminal ">
<path d="M266.0 40h0.0"></path><path d="M311.5 40h0.0"></path><rect height="22" width="45.5" x="266.0" y="29"></rect><text x="288.75" y="44">min</text></g><path d="M311.5 40h10"></path><path d="M321.5 40h10"></path><g class="non-terminal ">
<path d="M331.5 40h0.0"></path><path d="M377.0 40h0.0"></path><rect height="22" width="45.5" x="331.5" y="29"></rect><text x="354.25" y="44">max</text></g><path d="M377.0 40h10"></path><g>
<path d="M387.0 40h0.0"></path><path d="M532.0 40h0.0"></path><path d="M387.0 40a10 10 0 0 0 10 -10v0a10 10 0 0 1 10 -10"></path><g>
<path d="M407.0 20h105.0"></path></g><path d="M512.0 20a10 10 0 0 1 10 10v0a10 10 0 0 0 10 10"></path><path d="M387.0 40h20"></path><g class="terminal ">
<path d="M407.0 40h0.0"></path><path d="M512.0 40h0.0"></path><rect height="22" rx="10" ry="10" width="105.0" x="407.0" y="29"></rect><text x="459.5" y="44">WITHSCORES</text></g><path d="M512.0 40h20"></path></g><g>
<path d="M532.0 40h0.0"></path><path d="M808.0 40h0.0"></path><path d="M532.0 40a10 10 0 0 0 10 -10v0a10 10 0 0 1 10 -10"></path><g>
<path d="M552.0 20h236.0"></path></g><path d="M788.0 20a10 10 0 0 1 10 10v0a10 10 0 0 0 10 10"></path><path d="M532.0 40h20"></path><g>
<path d="M552.0 40h0.0"></path><path d="M788.0 40h0.0"></path><g class="terminal ">
<path d="M552.0 40h0.0"></path><path d="M614.5 40h0.0"></path><rect height="22" rx="10" ry="10" width="62.5" x="552.0" y="29"></rect><text x="583.25" y="44">LIMIT</text></g><path d="M614.5 40h10"></path><path d="M624.5 40h10"></path><g class="non-terminal ">
<path d="M634.5 40h0.0"></path><path d="M705.5 40h0.0"></path><rect height="22" width="71.0" x="634.5" y="29"></rect><text x="670.0" y="44">offset</text></g><path d="M705.5 40h10"></path><path d="M715.5 40h10"></path><g class="non-terminal ">
<path d="M725.5 40h0.0"></path><path d="M788.0 40h0.0"></path><rect height="22" width="62.5" x="725.5" y="29"></rect><text x="756.75" y="44">count</text></g></g><path d="M788.0 40h20"></path></g></g><path d="M808.0 40h10"></path><path d="M 818.0 40 h 20 m -10 -10 v 20 m 10 -20 v 20"></path></g></svg>