<svg class="railroad-diagram" height="71" viewBox="0 0 696.0 71" width="696.0" xmlns="http://www.w3.org/2000/svg" xmlns:xlink="http://www.w3.org/1999/xlink">
<defs>
<style type="text/css"><![CDATA[
svg.railroad-diagram { background-color: transparent; }
.terminal rect { fill: #DC382D !important; stroke: #DC382D !important; }
.terminal text { fill: white !important; font-weight: bold; }
.nonterminal rect { fill: none !important; stroke: #DC382D !important; stroke-width: 2; }
.nonterminal text { fill: #DC382D !important; font-weight: bold; }
path { stroke: #DC382D !important; stroke-width: 2; fill: none; }
circle { fill: #DC382D !important; stroke: #DC382D !important; }
]]></style>
</defs>
<g transform="translate(.5 .5)">
<style>/* <![CDATA[ */
	svg.railroad-diagram {
		background-color: transparent;
	}
	svg.railroad-diagram path {
		stroke-width:3;
		stroke: #DC382D;
		fill:rgba(0,0,0,0);
	}
	svg.railroad-diagram text {
		font:bold 14px monospace;
		text-anchor:middle;
	}
	svg.railroad-diagram text.label{
		text-anchor:start;
	}
	svg.railroad-diagram text.comment{
		font:italic 12px monospace;
	}
	svg.railroad-diagram rect{
		stroke-width:3;
		stroke: #DC382D;
		fill: none;
	}
	svg.railroad-diagram rect.group-box {
		stroke: #DC382D;
		stroke-dasharray: 10 5;
		fill: none;
	}

/* ]]> */
</style><g>
<path d="M20 30v20m10 -20v20m-10 -10h20"></path></g><path d="M40 40h10"></path><g>
<path d="M50 40h0.0"></path><path d="M646.0 40h0.0"></path><g class="terminal ">
<path d="M50.0 40h0.0"></path><path d="M163.5 40h0.0"></path><rect height="22" rx="10" ry="10" width="113.5" x="50.0" y="29"></rect><text x="106.75" y="44">ZRANGEBYLEX</text></g><path d="M163.5 40h10"></path><path d="M173.5 40h10"></path><g class="non-terminal ">
<path d="M183.5 40h0.0"></path><path d="M229.0 40h0.0"></path><rect height="22" width="45.5" x="183.5" y="29"></rect><text x="206.25" y="44">key</text></g><path d="M229.0 40h10"></path><path d="M239.0 40h10"></path><g class="non-terminal ">
<path d="M249.0 40h0.0"></path><path d="M294.5 40h0.0"></path><rect height="22" width="45.5" x="249.0" y="29"></rect><text x="271.75" y="44">min</text></g><path d="M294.5 40h10"></path><path d="M304.5 40h10"></path><g class="non-terminal ">
<path d="M314.5 40h0.0"></path><path d="M360.0 40h0.0"></path><rect height="22" width="45.5" x="314.5" y="29"></rect><text x="337.25" y="44">max</text></g><path d="M360.0 40h10"></path><g>
<path d="M370.0 40h0.0"></path><path d="M646.0 40h0.0"></path><path d="M370.0 40a10 10 0 0 0 10 -10v0a10 10 0 0 1 10 -10"></path><g>
<path d="M390.0 20h236.0"></path></g><path d="M626.0 20a10 10 0 0 1 10 10v0a10 10 0 0 0 10 10"></path><path d="M370.0 40h20"></path><g>
<path d="M390.0 40h0.0"></path><path d="M626.0 40h0.0"></path><g class="terminal ">
<path d="M390.0 40h0.0"></path><path d="M452.5 40h0.0"></path><rect height="22" rx="10" ry="10" width="62.5" x="390.0" y="29"></rect><text x="421.25" y="44">LIMIT</text></g><path d="M452.5 40h10"></path><path d="M462.5 40h10"></path><g class="non-terminal ">
<path d="M472.5 40h0.0"></path><path d="M543.5 40h0.0"></path><rect height="22" width="71.0" x="472.5" y="29"></rect><text x="508.0" y="44">offset</text></g><path d="M543.5 40h10"></path><path d="M553.5 40h10"></path><g class="non-terminal ">
<path d="M563.5 40h0.0"></path><path d="M626.0 40h0.0"></path><rect height="22" width="62.5" x="563.5" y="29"></rect><text x="594.75" y="44">count</text></g></g><path d="M626.0 40h20"></path></g></g><path d="M646.0 40h10"></path><path d="M 656.0 40 h 20 m -10 -10 v 20 m 10 -20 v 20"></path></g></svg>