<svg class="railroad-diagram" height="71" viewBox="0 0 801.0 71" width="801.0" xmlns="http://www.w3.org/2000/svg" xmlns:xlink="http://www.w3.org/1999/xlink">
<defs>
<style type="text/css"><![CDATA[
svg.railroad-diagram { background-color: transparent; }
.terminal rect { fill: #DC382D !important; stroke: #DC382D !important; }
.terminal text { fill: white !important; font-weight: bold; }
.nonterminal rect { fill: none !important; stroke: #DC382D !important; stroke-width: 2; }
.nonterminal text { fill: #DC382D !important; font-weight: bold; }
path { stroke: #DC382D !important; stroke-width: 2; fill: none; }
circle { fill: #DC382D !important; stroke: #DC382D !important; }
]]></style>
</defs>
<g transform="translate(.5 .5)">
<style>/* <![CDATA[ */
	svg.railroad-diagram {
		background-color: transparent;
	}
	svg.railroad-diagram path {
		stroke-width:3;
		stroke: #DC382D;
		fill:rgba(0,0,0,0);
	}
	svg.railroad-diagram text {
		font:bold 14px monospace;
		text-anchor:middle;
	}
	svg.railroad-diagram text.label{
		text-anchor:start;
	}
	svg.railroad-diagram text.comment{
		font:italic 12px monospace;
	}
	svg.railroad-diagram rect{
		stroke-width:3;
		stroke: #DC382D;
		fill: none;
	}
	svg.railroad-diagram rect.group-box {
		stroke: #DC382D;
		stroke-dasharray: 10 5;
		fill: none;
	}

/* ]]> */
</style><g>
<path d="M20 30v20m10 -20v20m-10 -10h20"></path></g><path d="M40 40h10"></path><g>
<path d="M50 40h0.0"></path><path d="M751.0 40h0.0"></path><g class="terminal ">
<path d="M50.0 40h0.0"></path><path d="M206.0 40h0.0"></path><rect height="22" rx="10" ry="10" width="156.0" x="50.0" y="29"></rect><text x="128.0" y="44">ZREVRANGEBYSCORE</text></g><path d="M206.0 40h10"></path><path d="M216.0 40h10"></path><g class="non-terminal ">
<path d="M226.0 40h0.0"></path><path d="M271.5 40h0.0"></path><rect height="22" width="45.5" x="226.0" y="29"></rect><text x="248.75" y="44">key</text></g><path d="M271.5 40h10"></path><path d="M281.5 40h10"></path><g class="non-terminal ">
<path d="M291.5 40h0.0"></path><path d="M337.0 40h0.0"></path><rect height="22" width="45.5" x="291.5" y="29"></rect><text x="314.25" y="44">max</text></g><path d="M337.0 40h10"></path><path d="M347.0 40h10"></path><g class="non-terminal ">
<path d="M357.0 40h0.0"></path><path d="M402.5 40h0.0"></path><rect height="22" width="45.5" x="357.0" y="29"></rect><text x="379.75" y="44">min</text></g><path d="M402.5 40h10"></path><g>
<path d="M412.5 40h0.0"></path><path d="M557.5 40h0.0"></path><path d="M412.5 40a10 10 0 0 0 10 -10v0a10 10 0 0 1 10 -10"></path><g>
<path d="M432.5 20h105.0"></path></g><path d="M537.5 20a10 10 0 0 1 10 10v0a10 10 0 0 0 10 10"></path><path d="M412.5 40h20"></path><g class="terminal ">
<path d="M432.5 40h0.0"></path><path d="M537.5 40h0.0"></path><rect height="22" rx="10" ry="10" width="105.0" x="432.5" y="29"></rect><text x="485.0" y="44">WITHSCORES</text></g><path d="M537.5 40h20"></path></g><g>
<path d="M557.5 40h0.0"></path><path d="M751.0 40h0.0"></path><path d="M557.5 40a10 10 0 0 0 10 -10v0a10 10 0 0 1 10 -10"></path><g>
<path d="M577.5 20h153.5"></path></g><path d="M731.0 20a10 10 0 0 1 10 10v0a10 10 0 0 0 10 10"></path><path d="M557.5 40h20"></path><g>
<path d="M577.5 40h0.0"></path><path d="M731.0 40h0.0"></path><g class="non-terminal ">
<path d="M577.5 40h0.0"></path><path d="M648.5 40h0.0"></path><rect height="22" width="71.0" x="577.5" y="29"></rect><text x="613.0" y="44">offset</text></g><path d="M648.5 40h10"></path><path d="M658.5 40h10"></path><g class="non-terminal ">
<path d="M668.5 40h0.0"></path><path d="M731.0 40h0.0"></path><rect height="22" width="62.5" x="668.5" y="29"></rect><text x="699.75" y="44">count</text></g></g><path d="M731.0 40h20"></path></g></g><path d="M751.0 40h10"></path><path d="M 761.0 40 h 20 m -10 -10 v 20 m 10 -20 v 20"></path></g></svg>