<svg class="railroad-diagram" height="71" viewBox="0 0 573.5 71" width="573.5" xmlns="http://www.w3.org/2000/svg" xmlns:xlink="http://www.w3.org/1999/xlink">
<defs>
<style type="text/css"><![CDATA[
svg.railroad-diagram { background-color: transparent; }
.terminal rect { fill: #DC382D !important; stroke: #DC382D !important; }
.terminal text { fill: white !important; font-weight: bold; }
.nonterminal rect { fill: none !important; stroke: #DC382D !important; stroke-width: 2; }
.nonterminal text { fill: #DC382D !important; font-weight: bold; }
path { stroke: #DC382D !important; stroke-width: 2; fill: none; }
circle { fill: #DC382D !important; stroke: #DC382D !important; }
]]></style>
</defs>
<g transform="translate(.5 .5)">
<style>/* <![CDATA[ */
	svg.railroad-diagram {
		background-color: transparent;
	}
	svg.railroad-diagram path {
		stroke-width:3;
		stroke: #DC382D;
		fill:rgba(0,0,0,0);
	}
	svg.railroad-diagram text {
		font:bold 14px monospace;
		text-anchor:middle;
	}
	svg.railroad-diagram text.label{
		text-anchor:start;
	}
	svg.railroad-diagram text.comment{
		font:italic 12px monospace;
	}
	svg.railroad-diagram rect{
		stroke-width:3;
		stroke: #DC382D;
		fill: none;
	}
	svg.railroad-diagram rect.group-box {
		stroke: #DC382D;
		stroke-dasharray: 10 5;
		fill: none;
	}

/* ]]> */
</style><g>
<path d="M20 30v20m10 -20v20m-10 -10h20"></path></g><path d="M40 40h10"></path><g>
<path d="M50 40h0.0"></path><path d="M523.5 40h0.0"></path><g class="terminal ">
<path d="M50.0 40h0.0"></path><path d="M146.5 40h0.0"></path><rect height="22" rx="10" ry="10" width="96.5" x="50.0" y="29"></rect><text x="98.25" y="44">ZREVRANGE</text></g><path d="M146.5 40h10"></path><path d="M156.5 40h10"></path><g class="non-terminal ">
<path d="M166.5 40h0.0"></path><path d="M212.0 40h0.0"></path><rect height="22" width="45.5" x="166.5" y="29"></rect><text x="189.25" y="44">key</text></g><path d="M212.0 40h10"></path><path d="M222.0 40h10"></path><g class="non-terminal ">
<path d="M232.0 40h0.0"></path><path d="M294.5 40h0.0"></path><rect height="22" width="62.5" x="232.0" y="29"></rect><text x="263.25" y="44">start</text></g><path d="M294.5 40h10"></path><path d="M304.5 40h10"></path><g class="non-terminal ">
<path d="M314.5 40h0.0"></path><path d="M368.5 40h0.0"></path><rect height="22" width="54.0" x="314.5" y="29"></rect><text x="341.5" y="44">stop</text></g><path d="M368.5 40h10"></path><g>
<path d="M378.5 40h0.0"></path><path d="M523.5 40h0.0"></path><path d="M378.5 40a10 10 0 0 0 10 -10v0a10 10 0 0 1 10 -10"></path><g>
<path d="M398.5 20h105.0"></path></g><path d="M503.5 20a10 10 0 0 1 10 10v0a10 10 0 0 0 10 10"></path><path d="M378.5 40h20"></path><g class="terminal ">
<path d="M398.5 40h0.0"></path><path d="M503.5 40h0.0"></path><rect height="22" rx="10" ry="10" width="105.0" x="398.5" y="29"></rect><text x="451.0" y="44">WITHSCORES</text></g><path d="M503.5 40h20"></path></g></g><path d="M523.5 40h10"></path><path d="M 533.5 40 h 20 m -10 -10 v 20 m 10 -20 v 20"></path></g></svg>