<svg class="railroad-diagram" height="131" viewBox="0 0 898.0 131" width="898.0" xmlns="http://www.w3.org/2000/svg" xmlns:xlink="http://www.w3.org/1999/xlink">
<defs>
<style type="text/css"><![CDATA[
svg.railroad-diagram { background-color: transparent; }
.terminal rect { fill: #DC382D !important; stroke: #DC382D !important; }
.terminal text { fill: white !important; font-weight: bold; }
.nonterminal rect { fill: none !important; stroke: #DC382D !important; stroke-width: 2; }
.nonterminal text { fill: #DC382D !important; font-weight: bold; }
path { stroke: #DC382D !important; stroke-width: 2; fill: none; }
circle { fill: #DC382D !important; stroke: #DC382D !important; }
]]></style>
</defs>
<g transform="translate(.5 .5)">
<style>/* <![CDATA[ */
	svg.railroad-diagram {
		background-color: transparent;
	}
	svg.railroad-diagram path {
		stroke-width:3;
		stroke: #DC382D;
		fill:rgba(0,0,0,0);
	}
	svg.railroad-diagram text {
		font:bold 14px monospace;
		text-anchor:middle;
	}
	svg.railroad-diagram text.label{
		text-anchor:start;
	}
	svg.railroad-diagram text.comment{
		font:italic 12px monospace;
	}
	svg.railroad-diagram rect{
		stroke-width:3;
		stroke: #DC382D;
		fill: none;
	}
	svg.railroad-diagram rect.group-box {
		stroke: #DC382D;
		stroke-dasharray: 10 5;
		fill: none;
	}

/* ]]> */
</style><g>
<path d="M20 30v20m10 -20v20m-10 -10h20"></path></g><path d="M40 40h10"></path><g>
<path d="M50 40h0.0"></path><path d="M848.0 40h0.0"></path><g class="terminal ">
<path d="M50.0 40h0.0"></path><path d="M163.5 40h0.0"></path><rect height="22" rx="10" ry="10" width="113.5" x="50.0" y="29"></rect><text x="106.75" y="44">ZUNIONSTORE</text></g><path d="M163.5 40h10"></path><path d="M173.5 40h10"></path><g class="non-terminal ">
<path d="M183.5 40h0.0"></path><path d="M297.0 40h0.0"></path><rect height="22" width="113.5" x="183.5" y="29"></rect><text x="240.25" y="44">destination</text></g><path d="M297.0 40h10"></path><path d="M307.0 40h10"></path><g class="non-terminal ">
<path d="M317.0 40h0.0"></path><path d="M396.5 40h0.0"></path><rect height="22" width="79.5" x="317.0" y="29"></rect><text x="356.75" y="44">numkeys</text></g><path d="M396.5 40h10"></path><path d="M406.5 40h10"></path><g>
<path d="M416.5 40h0.0"></path><path d="M482.0 40h0.0"></path><path d="M416.5 40h10"></path><g class="non-terminal ">
<path d="M426.5 40h0.0"></path><path d="M472.0 40h0.0"></path><rect height="22" width="45.5" x="426.5" y="29"></rect><text x="449.25" y="44">key</text></g><path d="M472.0 40h10"></path><path d="M426.5 40a10 10 0 0 0 -10 10v0a10 10 0 0 0 10 10"></path><g>
<path d="M426.5 60h45.5"></path></g><path d="M472.0 60a10 10 0 0 0 10 -10v0a10 10 0 0 0 -10 -10"></path></g><path d="M482.0 40h10"></path><g>
<path d="M492.0 40h0.0"></path><path d="M722.5 40h0.0"></path><path d="M492.0 40a10 10 0 0 0 10 -10v0a10 10 0 0 1 10 -10"></path><g>
<path d="M512.0 20h190.5"></path></g><path d="M702.5 20a10 10 0 0 1 10 10v0a10 10 0 0 0 10 10"></path><path d="M492.0 40h20"></path><g>
<path d="M512.0 40h0.0"></path><path d="M702.5 40h0.0"></path><path d="M512.0 40h10"></path><g>
<path d="M522.0 40h0.0"></path><path d="M692.5 40h0.0"></path><g class="terminal ">
<path d="M522.0 40h0.0"></path><path d="M601.5 40h0.0"></path><rect height="22" rx="10" ry="10" width="79.5" x="522.0" y="29"></rect><text x="561.75" y="44">WEIGHTS</text></g><path d="M601.5 40h10"></path><path d="M611.5 40h10"></path><g class="non-terminal ">
<path d="M621.5 40h0.0"></path><path d="M692.5 40h0.0"></path><rect height="22" width="71.0" x="621.5" y="29"></rect><text x="657.0" y="44">weight</text></g></g><path d="M692.5 40h10"></path><path d="M522.0 40a10 10 0 0 0 -10 10v0a10 10 0 0 0 10 10"></path><g>
<path d="M522.0 60h170.5"></path></g><path d="M692.5 60a10 10 0 0 0 10 -10v0a10 10 0 0 0 -10 -10"></path></g><path d="M702.5 40h20"></path></g><g>
<path d="M722.5 40h0.0"></path><path d="M848.0 40h0.0"></path><path d="M722.5 40a10 10 0 0 0 10 -10v0a10 10 0 0 1 10 -10"></path><g>
<path d="M742.5 20h85.5"></path></g><path d="M828.0 20a10 10 0 0 1 10 10v0a10 10 0 0 0 10 10"></path><path d="M722.5 40h20"></path><g>
<path d="M742.5 40h0.0"></path><path d="M828.0 40h0.0"></path><path d="M742.5 40h20"></path><g class="terminal ">
<path d="M762.5 40h0.0"></path><path d="M808.0 40h0.0"></path><rect height="22" rx="10" ry="10" width="45.5" x="762.5" y="29"></rect><text x="785.25" y="44">SUM</text></g><path d="M808.0 40h20"></path><path d="M742.5 40a10 10 0 0 1 10 10v10a10 10 0 0 0 10 10"></path><g class="terminal ">
<path d="M762.5 70h0.0"></path><path d="M808.0 70h0.0"></path><rect height="22" rx="10" ry="10" width="45.5" x="762.5" y="59"></rect><text x="785.25" y="74">MIN</text></g><path d="M808.0 70a10 10 0 0 0 10 -10v-10a10 10 0 0 1 10 -10"></path><path d="M742.5 40a10 10 0 0 1 10 10v40a10 10 0 0 0 10 10"></path><g class="terminal ">
<path d="M762.5 100h0.0"></path><path d="M808.0 100h0.0"></path><rect height="22" rx="10" ry="10" width="45.5" x="762.5" y="89"></rect><text x="785.25" y="104">MAX</text></g><path d="M808.0 100a10 10 0 0 0 10 -10v-40a10 10 0 0 1 10 -10"></path></g><path d="M828.0 40h20"></path></g></g><path d="M848.0 40h10"></path><path d="M 858.0 40 h 20 m -10 -10 v 20 m 10 -20 v 20"></path></g></svg>