<svg class="railroad-diagram" viewBox="0 0 394.5 82" xmlns="http://www.w3.org/2000/svg" xmlns:xlink="http://www.w3.org/1999/xlink">
<g transform="translate(.5 .5)">
<g>
<path d="M20 21v20m10 -20v20m-10 -10h20"></path></g><path d="M40 31h10"></path><g>
<path d="M50 31h0.0"></path><g>
<path d="M50.0 31h10.0"></path><path d="M334.5 31h10.0"></path><g class="terminal ">
<path d="M60.0 31h0.0"></path><path d="M165.0 31h0.0"></path><rect height="22" rx="10" ry="10" width="105.0" x="60.0" y="20"></rect><text x="112.5" y="35">JSON.CLEAR</text></g><path d="M165.0 31h10"></path><path d="M175.0 31h10"></path><g class="non-terminal ">
<path d="M185.0 31h0.0"></path><path d="M230.5 31h0.0"></path><rect height="22" width="45.5" x="185.0" y="20"></rect><text x="207.75" y="35">key</text><title>key</title></g><path d="M230.5 31h10"></path><g>
<path d="M240.5 31h0.0"></path><path d="M334.5 31h0.0"></path><path d="M240.5 31h20"></path><g>
<path d="M260.5 31h54.0"></path></g><path d="M314.5 31h20"></path><path d="M240.5 31a10 10 0 0 1 10 10v0a10 10 0 0 0 10 10"></path><g class="non-terminal ">
<path d="M260.5 51h0.0"></path><path d="M314.5 51h0.0"></path><rect height="22" width="54.0" x="260.5" y="40"></rect><text x="287.5" y="55">path</text><title>string</title></g><path d="M314.5 51a10 10 0 0 0 10 -10v0a10 10 0 0 1 10 -10"></path></g></g><path d="M344.5 31h0.0"></path></g><path d="M344.5 31h10"></path><path d="M 354.5 31 h 20 m -10 -10 v 20 m 10 -20 v 20"></path></g></svg>