<svg class="railroad-diagram" viewBox="0 0 444.0 71" xmlns="http://www.w3.org/2000/svg" xmlns:xlink="http://www.w3.org/1999/xlink">
<g transform="translate(.5 .5)">
<g>
<path d="M20 21v20m10 -20v20m-10 -10h20"></path></g><path d="M40 31h10"></path><g>
<path d="M50 31h0.0"></path><g>
<path d="M50.0 31h10.0"></path><path d="M384.0 31h10.0"></path><g class="terminal ">
<path d="M60.0 31h0.0"></path><path d="M165.0 31h0.0"></path><rect height="22" rx="10" ry="10" width="105.0" x="60.0" y="20"></rect><text x="112.5" y="35">SDIFFSTORE</text></g><path d="M165.0 31h10"></path><path d="M175.0 31h10"></path><g class="non-terminal ">
<path d="M185.0 31h0.0"></path><path d="M298.5 31h0.0"></path><rect height="22" width="113.5" x="185.0" y="20"></rect><text x="241.75" y="35">destination</text><title>key</title></g><path d="M298.5 31h10"></path><path d="M308.5 31h10"></path><g>
<path d="M318.5 31h0.0"></path><path d="M384.0 31h0.0"></path><path d="M318.5 31h10"></path><g class="non-terminal ">
<path d="M328.5 31h0.0"></path><path d="M374.0 31h0.0"></path><rect height="22" width="45.5" x="328.5" y="20"></rect><text x="351.25" y="35">key</text><title>key</title></g><path d="M374.0 31h10"></path><path d="M328.5 31a10 10 0 0 0 -10 10v0a10 10 0 0 0 10 10"></path><g>
<path d="M328.5 51h45.5"></path></g><path d="M374.0 51a10 10 0 0 0 10 -10v0a10 10 0 0 0 -10 -10"></path></g></g><path d="M394.0 31h0.0"></path></g><path d="M394.0 31h10"></path><path d="M 404.0 31 h 20 m -10 -10 v 20 m 10 -20 v 20"></path></g></svg>