<svg class="railroad-diagram" viewBox="0 0 454.0 111" xmlns="http://www.w3.org/2000/svg" xmlns:xlink="http://www.w3.org/1999/xlink">
<g transform="translate(.5 .5)">
<g>
<path d="M20 21v20m10 -20v20m-10 -10h20"></path></g><path d="M40 31h10"></path><g>
<path d="M50 31h0.0"></path><g>
<path d="M50.0 31h10.0"></path><path d="M394.0 31h10.0"></path><g class="terminal ">
<path d="M60.0 31h0.0"></path><path d="M216.0 31h0.0"></path><rect height="22" rx="10" ry="10" width="156.0" x="60.0" y="20"></rect><text x="138.0" y="35">CLUSTER FAILOVER</text></g><path d="M216.0 31h10"></path><g>
<path d="M226.0 31h0.0"></path><path d="M394.0 31h0.0"></path><path d="M226.0 31h20"></path><g>
<path d="M246.0 31h128.0"></path></g><path d="M374.0 31h20"></path><path d="M226.0 31a10 10 0 0 1 10 10v29a10 10 0 0 0 10 10"></path><g>
<path d="M246.0 80h0.0"></path><path d="M374.0 80h0.0"></path><path d="M246.0 80a10 10 0 0 0 10 -10v-10a10 10 0 0 1 10 -10"></path><g class="terminal ">
<path d="M266.0 50h12.75"></path><path d="M341.25 50h12.75"></path><rect height="22" rx="10" ry="10" width="62.5" x="278.75" y="39"></rect><text x="310.0" y="54">FORCE</text></g><path d="M354.0 50a10 10 0 0 1 10 10v10a10 10 0 0 0 10 10"></path><path d="M246.0 80h20"></path><g class="terminal ">
<path d="M266.0 80h0.0"></path><path d="M354.0 80h0.0"></path><rect height="22" rx="10" ry="10" width="88.0" x="266.0" y="69"></rect><text x="310.0" y="84">TAKEOVER</text></g><path d="M354.0 80h20"></path></g><path d="M374.0 80a10 10 0 0 0 10 -10v-29a10 10 0 0 1 10 -10"></path></g></g><path d="M404.0 31h0.0"></path></g><path d="M404.0 31h10"></path><path d="M 414.0 31 h 20 m -10 -10 v 20 m 10 -20 v 20"></path></g></svg>