<svg class="railroad-diagram" viewBox="0 0 898.5 268" xmlns="http://www.w3.org/2000/svg" xmlns:xlink="http://www.w3.org/1999/xlink">
<g transform="translate(.5 .5)">
<g>
<path d="M20 21v20m10 -20v20m-10 -10h20"></path></g><path d="M40 31h10"></path><g>
<path d="M50 31h0.0"></path><path d="M50.0 31h10"></path><g>
<path d="M60.0 31h312.5"></path><path d="M526.0 31h312.5"></path><g class="terminal ">
<path d="M372.5 31h0.0"></path><path d="M460.5 31h0.0"></path><rect height="22" rx="10" ry="10" width="88.0" x="372.5" y="20"></rect><text x="416.5" y="35">BITFIELD</text></g><path d="M460.5 31h10"></path><path d="M470.5 31h10"></path><g class="non-terminal ">
<path d="M480.5 31h0.0"></path><path d="M526.0 31h0.0"></path><rect height="22" width="45.5" x="480.5" y="20"></rect><text x="503.25" y="35">key</text><title>key</title></g></g><path d="M838.5 31a10 10 0 0 1 10 10v0a10 10 0 0 1 -10 10h-778.5a10 10 0 0 0 -10 10v0a10 10 0 0 0 10 10"></path><g>
<path d="M60.0 71h10.0"></path><path d="M828.5 71h10.0"></path><g>
<path d="M70.0 71h0.0"></path><path d="M828.5 71h0.0"></path><path d="M70.0 71h20"></path><g>
<path d="M90.0 71h718.5"></path></g><path d="M808.5 71h20"></path><path d="M70.0 71a10 10 0 0 1 10 10v59a10 10 0 0 0 10 10"></path><g>
<path d="M90.0 150h0.0"></path><path d="M808.5 150h0.0"></path><path d="M90.0 150h10"></path><g>
<path d="M100.0 150h0.0"></path><path d="M798.5 150h0.0"></path><path d="M100.0 150a10 10 0 0 0 10 -10v-40a10 10 0 0 1 10 -10"></path><g>
<path d="M120.0 90h207.0"></path><path d="M571.5 90h207.0"></path><g class="terminal ">
<path d="M327.0 90h0.0"></path><path d="M372.5 90h0.0"></path><rect height="22" rx="10" ry="10" width="45.5" x="327.0" y="79"></rect><text x="349.75" y="94">GET</text></g><path d="M372.5 90h10"></path><path d="M382.5 90h10"></path><g>
<path d="M392.5 90h0.0"></path><path d="M571.5 90h0.0"></path><g class="non-terminal ">
<path d="M392.5 90h0.0"></path><path d="M480.5 90h0.0"></path><rect height="22" width="88.0" x="392.5" y="79"></rect><text x="436.5" y="94">encoding</text><title>string</title></g><path d="M480.5 90h10"></path><path d="M490.5 90h10"></path><g class="non-terminal ">
<path d="M500.5 90h0.0"></path><path d="M571.5 90h0.0"></path><rect height="22" width="71.0" x="500.5" y="79"></rect><text x="536.0" y="94">offset</text><title>integer</title></g></g></g><path d="M778.5 90a10 10 0 0 1 10 10v40a10 10 0 0 0 10 10"></path><path d="M100.0 150h20"></path><g>
<path d="M120.0 150h0.0"></path><path d="M778.5 150h0.0"></path><g>
<path d="M120.0 150h0.0"></path><path d="M352.0 150h0.0"></path><path d="M120.0 150h20"></path><g>
<path d="M140.0 150h192.0"></path></g><path d="M332.0 150h20"></path><path d="M120.0 150a10 10 0 0 1 10 10v59a10 10 0 0 0 10 10"></path><g>
<path d="M140.0 229h0.0"></path><path d="M332.0 229h0.0"></path><g class="terminal ">
<path d="M140.0 229h0.0"></path><path d="M228.0 229h0.0"></path><rect height="22" rx="10" ry="10" width="88.0" x="140.0" y="218"></rect><text x="184.0" y="233">OVERFLOW</text></g><path d="M228.0 229h10"></path><g>
<path d="M238.0 229h0.0"></path><path d="M332.0 229h0.0"></path><path d="M238.0 229a10 10 0 0 0 10 -10v-10a10 10 0 0 1 10 -10"></path><g class="terminal ">
<path d="M258.0 199h4.25"></path><path d="M307.75 199h4.25"></path><rect height="22" rx="10" ry="10" width="45.5" x="262.25" y="188"></rect><text x="285.0" y="203">SAT</text></g><path d="M312.0 199a10 10 0 0 1 10 10v10a10 10 0 0 0 10 10"></path><path d="M238.0 229a10 10 0 0 0 10 -10v-40a10 10 0 0 1 10 -10"></path><g class="terminal ">
<path d="M258.0 169h0.0"></path><path d="M312.0 169h0.0"></path><rect height="22" rx="10" ry="10" width="54.0" x="258.0" y="158"></rect><text x="285.0" y="173">WRAP</text></g><path d="M312.0 169a10 10 0 0 1 10 10v40a10 10 0 0 0 10 10"></path><path d="M238.0 229h20"></path><g class="terminal ">
<path d="M258.0 229h0.0"></path><path d="M312.0 229h0.0"></path><rect height="22" rx="10" ry="10" width="54.0" x="258.0" y="218"></rect><text x="285.0" y="233">FAIL</text></g><path d="M312.0 229h20"></path></g></g><path d="M332.0 229a10 10 0 0 0 10 -10v-59a10 10 0 0 1 10 -10"></path></g><g>
<path d="M352.0 150h0.0"></path><path d="M778.5 150h0.0"></path><path d="M352.0 150a10 10 0 0 0 10 -10v-10a10 10 0 0 1 10 -10"></path><g>
<path d="M372.0 120h29.75"></path><path d="M728.75 120h29.75"></path><g class="terminal ">
<path d="M401.75 120h0.0"></path><path d="M447.25 120h0.0"></path><rect height="22" rx="10" ry="10" width="45.5" x="401.75" y="109"></rect><text x="424.5" y="124">SET</text></g><path d="M447.25 120h10"></path><path d="M457.25 120h10"></path><g>
<path d="M467.25 120h0.0"></path><path d="M728.75 120h0.0"></path><g class="non-terminal ">
<path d="M467.25 120h0.0"></path><path d="M555.25 120h0.0"></path><rect height="22" width="88.0" x="467.25" y="109"></rect><text x="511.25" y="124">encoding</text><title>string</title></g><path d="M555.25 120h10"></path><path d="M565.25 120h10"></path><g class="non-terminal ">
<path d="M575.25 120h0.0"></path><path d="M646.25 120h0.0"></path><rect height="22" width="71.0" x="575.25" y="109"></rect><text x="610.75" y="124">offset</text><title>integer</title></g><path d="M646.25 120h10"></path><path d="M656.25 120h10"></path><g class="non-terminal ">
<path d="M666.25 120h0.0"></path><path d="M728.75 120h0.0"></path><rect height="22" width="62.5" x="666.25" y="109"></rect><text x="697.5" y="124">value</text><title>integer</title></g></g></g><path d="M758.5 120a10 10 0 0 1 10 10v10a10 10 0 0 0 10 10"></path><path d="M352.0 150h20"></path><g>
<path d="M372.0 150h0.0"></path><path d="M758.5 150h0.0"></path><g class="terminal ">
<path d="M372.0 150h0.0"></path><path d="M443.0 150h0.0"></path><rect height="22" rx="10" ry="10" width="71.0" x="372.0" y="139"></rect><text x="407.5" y="154">INCRBY</text></g><path d="M443.0 150h10"></path><path d="M453.0 150h10"></path><g>
<path d="M463.0 150h0.0"></path><path d="M758.5 150h0.0"></path><g class="non-terminal ">
<path d="M463.0 150h0.0"></path><path d="M551.0 150h0.0"></path><rect height="22" width="88.0" x="463.0" y="139"></rect><text x="507.0" y="154">encoding</text><title>string</title></g><path d="M551.0 150h10"></path><path d="M561.0 150h10"></path><g class="non-terminal ">
<path d="M571.0 150h0.0"></path><path d="M642.0 150h0.0"></path><rect height="22" width="71.0" x="571.0" y="139"></rect><text x="606.5" y="154">offset</text><title>integer</title></g><path d="M642.0 150h10"></path><path d="M652.0 150h10"></path><g class="non-terminal ">
<path d="M662.0 150h0.0"></path><path d="M758.5 150h0.0"></path><rect height="22" width="96.5" x="662.0" y="139"></rect><text x="710.25" y="154">increment</text><title>integer</title></g></g></g><path d="M758.5 150h20"></path></g></g><path d="M778.5 150h20"></path></g><path d="M798.5 150h10"></path><path d="M100.0 150a10 10 0 0 0 -10 10v78a10 10 0 0 0 10 10"></path><g>
<path d="M100.0 248h698.5"></path></g><path d="M798.5 248a10 10 0 0 0 10 -10v-78a10 10 0 0 0 -10 -10"></path></g><path d="M808.5 150a10 10 0 0 0 10 -10v-59a10 10 0 0 1 10 -10"></path></g></g><path d="M838.5 71h10"></path><path d="M848.5 71h0.0"></path></g><path d="M848.5 71h10"></path><path d="M 858.5 71 h 20 m -10 -10 v 20 m 10 -20 v 20"></path></g></svg>