<svg class="railroad-diagram" viewBox="0 0 622.0 92" xmlns="http://www.w3.org/2000/svg" xmlns:xlink="http://www.w3.org/1999/xlink">
<g transform="translate(.5 .5)">
<g>
<path d="M20 51v20m10 -20v20m-10 -10h20"></path></g><path d="M40 61h10"></path><g>
<path d="M50 61h0.0"></path><g>
<path d="M50.0 61h10.0"></path><path d="M562.0 61h10.0"></path><g class="terminal ">
<path d="M60.0 61h0.0"></path><path d="M122.5 61h0.0"></path><rect height="22" rx="10" ry="10" width="62.5" x="60.0" y="50"></rect><text x="91.25" y="65">LMOVE</text></g><path d="M122.5 61h10"></path><path d="M132.5 61h10"></path><g class="non-terminal ">
<path d="M142.5 61h0.0"></path><path d="M213.5 61h0.0"></path><rect height="22" width="71.0" x="142.5" y="50"></rect><text x="178.0" y="65">source</text><title>key</title></g><path d="M213.5 61h10"></path><path d="M223.5 61h10"></path><g class="non-terminal ">
<path d="M233.5 61h0.0"></path><path d="M347.0 61h0.0"></path><rect height="22" width="113.5" x="233.5" y="50"></rect><text x="290.25" y="65">destination</text><title>key</title></g><path d="M347.0 61h10"></path><g>
<path d="M357.0 61h0.0"></path><path d="M459.5 61h0.0"></path><path d="M357.0 61a10 10 0 0 0 10 -10v-10a10 10 0 0 1 10 -10"></path><g class="terminal ">
<path d="M377.0 31h4.25"></path><path d="M435.25 31h4.25"></path><rect height="22" rx="10" ry="10" width="54.0" x="381.25" y="20"></rect><text x="408.25" y="35">LEFT</text></g><path d="M439.5 31a10 10 0 0 1 10 10v10a10 10 0 0 0 10 10"></path><path d="M357.0 61h20"></path><g class="terminal ">
<path d="M377.0 61h0.0"></path><path d="M439.5 61h0.0"></path><rect height="22" rx="10" ry="10" width="62.5" x="377.0" y="50"></rect><text x="408.25" y="65">RIGHT</text></g><path d="M439.5 61h20"></path></g><g>
<path d="M459.5 61h0.0"></path><path d="M562.0 61h0.0"></path><path d="M459.5 61a10 10 0 0 0 10 -10v-10a10 10 0 0 1 10 -10"></path><g class="terminal ">
<path d="M479.5 31h4.25"></path><path d="M537.75 31h4.25"></path><rect height="22" rx="10" ry="10" width="54.0" x="483.75" y="20"></rect><text x="510.75" y="35">LEFT</text></g><path d="M542.0 31a10 10 0 0 1 10 10v10a10 10 0 0 0 10 10"></path><path d="M459.5 61h20"></path><g class="terminal ">
<path d="M479.5 61h0.0"></path><path d="M542.0 61h0.0"></path><rect height="22" rx="10" ry="10" width="62.5" x="479.5" y="50"></rect><text x="510.75" y="65">RIGHT</text></g><path d="M542.0 61h20"></path></g></g><path d="M572.0 61h0.0"></path></g><path d="M572.0 61h10"></path><path d="M 582.0 61 h 20 m -10 -10 v 20 m 10 -20 v 20"></path></g></svg>