<svg class="railroad-diagram" viewBox="0 0 682.5 130" xmlns="http://www.w3.org/2000/svg" xmlns:xlink="http://www.w3.org/1999/xlink">
<g transform="translate(.5 .5)">
<g>
<path d="M20 21v20m10 -20v20m-10 -10h20"></path></g><path d="M40 31h10"></path><g>
<path d="M50 31h0.0"></path><path d="M50.0 31h10"></path><g>
<path d="M60.0 31h10.0"></path><path d="M612.5 31h10.0"></path><g class="terminal ">
<path d="M70.0 31h0.0"></path><path d="M200.5 31h0.0"></path><rect height="22" rx="10" ry="10" width="130.5" x="70.0" y="20"></rect><text x="135.25" y="35">TDIGEST.MERGE</text></g><path d="M200.5 31h10"></path><path d="M210.5 31h10"></path><g class="non-terminal ">
<path d="M220.5 31h0.0"></path><path d="M368.0 31h0.0"></path><rect height="22" width="147.5" x="220.5" y="20"></rect><text x="294.25" y="35">destination-key</text><title>key</title></g><path d="M368.0 31h10"></path><path d="M378.0 31h10"></path><g class="non-terminal ">
<path d="M388.0 31h0.0"></path><path d="M467.5 31h0.0"></path><rect height="22" width="79.5" x="388.0" y="20"></rect><text x="427.75" y="35">numkeys</text><title>integer</title></g><path d="M467.5 31h10"></path><path d="M477.5 31h10"></path><g>
<path d="M487.5 31h0.0"></path><path d="M612.5 31h0.0"></path><path d="M487.5 31h10"></path><g class="non-terminal ">
<path d="M497.5 31h0.0"></path><path d="M602.5 31h0.0"></path><rect height="22" width="105.0" x="497.5" y="20"></rect><text x="550.0" y="35">source-key</text><title>key</title></g><path d="M602.5 31h10"></path><path d="M497.5 31a10 10 0 0 0 -10 10v0a10 10 0 0 0 10 10"></path><g>
<path d="M497.5 51h105.0"></path></g><path d="M602.5 51a10 10 0 0 0 10 -10v0a10 10 0 0 0 -10 -10"></path></g></g><path d="M622.5 31a10 10 0 0 1 10 10v8a10 10 0 0 1 -10 10h-562.5a10 10 0 0 0 -10 10v0a10 10 0 0 0 10 10"></path><g>
<path d="M60.0 79h73.75"></path><path d="M548.75 79h73.75"></path><g>
<path d="M133.75 79h0.0"></path><path d="M420.75 79h0.0"></path><path d="M133.75 79h20"></path><g>
<path d="M153.75 79h247.0"></path></g><path d="M400.75 79h20"></path><path d="M133.75 79a10 10 0 0 1 10 10v0a10 10 0 0 0 10 10"></path><g>
<path d="M153.75 99h0.0"></path><path d="M400.75 99h0.0"></path><g class="terminal ">
<path d="M153.75 99h0.0"></path><path d="M267.25 99h0.0"></path><rect height="22" rx="10" ry="10" width="113.5" x="153.75" y="88"></rect><text x="210.5" y="103">COMPRESSION</text></g><path d="M267.25 99h10"></path><path d="M277.25 99h10"></path><g class="non-terminal ">
<path d="M287.25 99h0.0"></path><path d="M400.75 99h0.0"></path><rect height="22" width="113.5" x="287.25" y="88"></rect><text x="344.0" y="103">compression</text><title>integer</title></g></g><path d="M400.75 99a10 10 0 0 0 10 -10v0a10 10 0 0 1 10 -10"></path></g><g>
<path d="M420.75 79h0.0"></path><path d="M548.75 79h0.0"></path><path d="M420.75 79h20"></path><g>
<path d="M440.75 79h88.0"></path></g><path d="M528.75 79h20"></path><path d="M420.75 79a10 10 0 0 1 10 10v0a10 10 0 0 0 10 10"></path><g class="terminal ">
<path d="M440.75 99h0.0"></path><path d="M528.75 99h0.0"></path><rect height="22" rx="10" ry="10" width="88.0" x="440.75" y="88"></rect><text x="484.75" y="103">OVERRIDE</text></g><path d="M528.75 99a10 10 0 0 0 10 -10v0a10 10 0 0 1 10 -10"></path></g></g><path d="M622.5 79h10"></path><path d="M632.5 79h0.0"></path></g><path d="M632.5 79h10"></path><path d="M 642.5 79 h 20 m -10 -10 v 20 m 10 -20 v 20"></path></g></svg>