<svg class="railroad-diagram" viewBox="0 0 550.5 91" xmlns="http://www.w3.org/2000/svg" xmlns:xlink="http://www.w3.org/1999/xlink">
<g transform="translate(.5 .5)">
<g>
<path d="M20 21v20m10 -20v20m-10 -10h20"></path></g><path d="M40 31h10"></path><g>
<path d="M50 31h0.0"></path><g>
<path d="M50.0 31h10.0"></path><path d="M490.5 31h10.0"></path><g class="terminal ">
<path d="M60.0 31h0.0"></path><path d="M275.5 31h0.0"></path><rect height="22" rx="10" ry="10" width="215.5" x="60.0" y="20"></rect><text x="167.75" y="35">COMMAND GETKEYSANDFLAGS</text></g><path d="M275.5 31h10"></path><path d="M285.5 31h10"></path><g class="non-terminal ">
<path d="M295.5 31h0.0"></path><path d="M375.0 31h0.0"></path><rect height="22" width="79.5" x="295.5" y="20"></rect><text x="335.25" y="35">command</text><title>string</title></g><path d="M375.0 31h10"></path><g>
<path d="M385.0 31h0.0"></path><path d="M490.5 31h0.0"></path><path d="M385.0 31h20"></path><g>
<path d="M405.0 31h65.5"></path></g><path d="M470.5 31h20"></path><path d="M385.0 31a10 10 0 0 1 10 10v0a10 10 0 0 0 10 10"></path><g>
<path d="M405.0 51h0.0"></path><path d="M470.5 51h0.0"></path><path d="M405.0 51h10"></path><g class="non-terminal ">
<path d="M415.0 51h0.0"></path><path d="M460.5 51h0.0"></path><rect height="22" width="45.5" x="415.0" y="40"></rect><text x="437.75" y="55">arg</text><title>string</title></g><path d="M460.5 51h10"></path><path d="M415.0 51a10 10 0 0 0 -10 10v0a10 10 0 0 0 10 10"></path><g>
<path d="M415.0 71h45.5"></path></g><path d="M460.5 71a10 10 0 0 0 10 -10v0a10 10 0 0 0 -10 -10"></path></g><path d="M470.5 51a10 10 0 0 0 10 -10v0a10 10 0 0 1 10 -10"></path></g></g><path d="M500.5 31h0.0"></path></g><path d="M500.5 31h10"></path><path d="M 510.5 31 h 20 m -10 -10 v 20 m 10 -20 v 20"></path></g></svg>