<svg class="railroad-diagram" viewBox="0 0 1197.0 1049" xmlns="http://www.w3.org/2000/svg" xmlns:xlink="http://www.w3.org/1999/xlink">
<g transform="translate(.5 .5)">
<g>
<path d="M20 21v20m10 -20v20m-10 -10h20"></path></g><path d="M40 31h10"></path><g>
<path d="M50 31h0.0"></path><path d="M50.0 31h10"></path><g>
<path d="M60.0 31h270.5"></path><path d="M866.5 31h270.5"></path><g class="terminal ">
<path d="M330.5 31h0.0"></path><path d="M427.0 31h0.0"></path><rect height="22" rx="10" ry="10" width="96.5" x="330.5" y="20"></rect><text x="378.75" y="35">FT.SEARCH</text></g><path d="M427.0 31h10"></path><path d="M437.0 31h10"></path><g class="non-terminal ">
<path d="M447.0 31h0.0"></path><path d="M509.5 31h0.0"></path><rect height="22" width="62.5" x="447.0" y="20"></rect><text x="478.25" y="35">index</text><title>string</title></g><path d="M509.5 31h10"></path><path d="M519.5 31h10"></path><g class="non-terminal ">
<path d="M529.5 31h0.0"></path><path d="M592.0 31h0.0"></path><rect height="22" width="62.5" x="529.5" y="20"></rect><text x="560.75" y="35">query</text><title>string</title></g><path d="M592.0 31h10"></path><g>
<path d="M602.0 31h0.0"></path><path d="M738.5 31h0.0"></path><path d="M602.0 31h20"></path><g>
<path d="M622.0 31h96.5"></path></g><path d="M718.5 31h20"></path><path d="M602.0 31a10 10 0 0 1 10 10v0a10 10 0 0 0 10 10"></path><g class="terminal ">
<path d="M622.0 51h0.0"></path><path d="M718.5 51h0.0"></path><rect height="22" rx="10" ry="10" width="96.5" x="622.0" y="40"></rect><text x="670.25" y="55">NOCONTENT</text></g><path d="M718.5 51a10 10 0 0 0 10 -10v0a10 10 0 0 1 10 -10"></path></g><g>
<path d="M738.5 31h0.0"></path><path d="M866.5 31h0.0"></path><path d="M738.5 31h20"></path><g>
<path d="M758.5 31h88.0"></path></g><path d="M846.5 31h20"></path><path d="M738.5 31a10 10 0 0 1 10 10v0a10 10 0 0 0 10 10"></path><g class="terminal ">
<path d="M758.5 51h0.0"></path><path d="M846.5 51h0.0"></path><rect height="22" rx="10" ry="10" width="88.0" x="758.5" y="40"></rect><text x="802.5" y="55">VERBATIM</text></g><path d="M846.5 51a10 10 0 0 0 10 -10v0a10 10 0 0 1 10 -10"></path></g></g><path d="M1137.0 31a10 10 0 0 1 10 10v19a10 10 0 0 1 -10 10h-1077.0a10 10 0 0 0 -10 10v0a10 10 0 0 0 10 10"></path><g>
<path d="M60.0 90h227.25"></path><path d="M909.75 90h227.25"></path><g>
<path d="M287.25 90h0.0"></path><path d="M440.75 90h0.0"></path><path d="M287.25 90h20"></path><g>
<path d="M307.25 90h113.5"></path></g><path d="M420.75 90h20"></path><path d="M287.25 90a10 10 0 0 1 10 10v0a10 10 0 0 0 10 10"></path><g class="terminal ">
<path d="M307.25 110h0.0"></path><path d="M420.75 110h0.0"></path><rect height="22" rx="10" ry="10" width="113.5" x="307.25" y="99"></rect><text x="364.0" y="114">NOSTOPWORDS</text></g><path d="M420.75 110a10 10 0 0 0 10 -10v0a10 10 0 0 1 10 -10"></path></g><g>
<path d="M440.75 90h0.0"></path><path d="M585.75 90h0.0"></path><path d="M440.75 90h20"></path><g>
<path d="M460.75 90h105.0"></path></g><path d="M565.75 90h20"></path><path d="M440.75 90a10 10 0 0 1 10 10v0a10 10 0 0 0 10 10"></path><g class="terminal ">
<path d="M460.75 110h0.0"></path><path d="M565.75 110h0.0"></path><rect height="22" rx="10" ry="10" width="105.0" x="460.75" y="99"></rect><text x="513.25" y="114">WITHSCORES</text></g><path d="M565.75 110a10 10 0 0 0 10 -10v0a10 10 0 0 1 10 -10"></path></g><g>
<path d="M585.75 90h0.0"></path><path d="M747.75 90h0.0"></path><path d="M585.75 90h20"></path><g>
<path d="M605.75 90h122.0"></path></g><path d="M727.75 90h20"></path><path d="M585.75 90a10 10 0 0 1 10 10v0a10 10 0 0 0 10 10"></path><g class="terminal ">
<path d="M605.75 110h0.0"></path><path d="M727.75 110h0.0"></path><rect height="22" rx="10" ry="10" width="122.0" x="605.75" y="99"></rect><text x="666.75" y="114">WITHPAYLOADS</text></g><path d="M727.75 110a10 10 0 0 0 10 -10v0a10 10 0 0 1 10 -10"></path></g><g>
<path d="M747.75 90h0.0"></path><path d="M909.75 90h0.0"></path><path d="M747.75 90h20"></path><g>
<path d="M767.75 90h122.0"></path></g><path d="M889.75 90h20"></path><path d="M747.75 90a10 10 0 0 1 10 10v0a10 10 0 0 0 10 10"></path><g class="terminal ">
<path d="M767.75 110h0.0"></path><path d="M889.75 110h0.0"></path><rect height="22" rx="10" ry="10" width="122.0" x="767.75" y="99"></rect><text x="828.75" y="114">WITHSORTKEYS</text></g><path d="M889.75 110a10 10 0 0 0 10 -10v0a10 10 0 0 1 10 -10"></path></g></g><path d="M1137.0 90a10 10 0 0 1 10 10v19a10 10 0 0 1 -10 10h-1077.0a10 10 0 0 0 -10 10v0a10 10 0 0 0 10 10"></path><g>
<path d="M60.0 149h332.25"></path><path d="M804.75 149h332.25"></path><g>
<path d="M392.25 149h0.0"></path><path d="M804.75 149h0.0"></path><path d="M392.25 149h20"></path><g>
<path d="M412.25 149h372.5"></path></g><path d="M784.75 149h20"></path><path d="M392.25 149a10 10 0 0 1 10 10v0a10 10 0 0 0 10 10"></path><g>
<path d="M412.25 169h0.0"></path><path d="M784.75 169h0.0"></path><path d="M412.25 169h10"></path><g>
<path d="M422.25 169h0.0"></path><path d="M774.75 169h0.0"></path><g>
<path d="M422.25 169h0.0"></path><path d="M643.75 169h0.0"></path><g class="terminal ">
<path d="M422.25 169h0.0"></path><path d="M493.25 169h0.0"></path><rect height="22" rx="10" ry="10" width="71.0" x="422.25" y="158"></rect><text x="457.75" y="173">FILTER</text></g><path d="M493.25 169h10"></path><path d="M503.25 169h10"></path><g class="non-terminal ">
<path d="M513.25 169h0.0"></path><path d="M643.75 169h0.0"></path><rect height="22" width="130.5" x="513.25" y="158"></rect><text x="578.5" y="173">numeric&#95;field</text><title>string</title></g></g><path d="M643.75 169h10"></path><path d="M653.75 169h10"></path><g class="non-terminal ">
<path d="M663.75 169h0.0"></path><path d="M709.25 169h0.0"></path><rect height="22" width="45.5" x="663.75" y="158"></rect><text x="686.5" y="173">min</text><title>double</title></g><path d="M709.25 169h10"></path><path d="M719.25 169h10"></path><g class="non-terminal ">
<path d="M729.25 169h0.0"></path><path d="M774.75 169h0.0"></path><rect height="22" width="45.5" x="729.25" y="158"></rect><text x="752.0" y="173">max</text><title>double</title></g></g><path d="M774.75 169h10"></path><path d="M422.25 169a10 10 0 0 0 -10 10v0a10 10 0 0 0 10 10"></path><g>
<path d="M422.25 189h352.5"></path></g><path d="M774.75 189a10 10 0 0 0 10 -10v0a10 10 0 0 0 -10 -10"></path></g><path d="M784.75 169a10 10 0 0 0 10 -10v0a10 10 0 0 1 10 -10"></path></g></g><path d="M1137.0 149a10 10 0 0 1 10 10v28a10 10 0 0 1 -10 10h-1077.0a10 10 0 0 0 -10 10v0a10 10 0 0 0 10 10"></path><g>
<path d="M60.0 217h247.5"></path><path d="M889.5 217h247.5"></path><g>
<path d="M307.5 217h0.0"></path><path d="M889.5 217h0.0"></path><path d="M307.5 217h20"></path><g>
<path d="M327.5 217h542.0"></path></g><path d="M869.5 217h20"></path><path d="M307.5 217a10 10 0 0 1 10 10v59a10 10 0 0 0 10 10"></path><g>
<path d="M327.5 296h0.0"></path><path d="M869.5 296h0.0"></path><path d="M327.5 296h10"></path><g>
<path d="M337.5 296h0.0"></path><path d="M859.5 296h0.0"></path><g>
<path d="M337.5 296h0.0"></path><path d="M550.5 296h0.0"></path><g class="terminal ">
<path d="M337.5 296h0.0"></path><path d="M434.0 296h0.0"></path><rect height="22" rx="10" ry="10" width="96.5" x="337.5" y="285"></rect><text x="385.75" y="300">GEOFILTER</text></g><path d="M434.0 296h10"></path><path d="M444.0 296h10"></path><g class="non-terminal ">
<path d="M454.0 296h0.0"></path><path d="M550.5 296h0.0"></path><rect height="22" width="96.5" x="454.0" y="285"></rect><text x="502.25" y="300">geo&#95;field</text><title>string</title></g></g><path d="M550.5 296h10"></path><path d="M560.5 296h10"></path><g class="non-terminal ">
<path d="M570.5 296h0.0"></path><path d="M616.0 296h0.0"></path><rect height="22" width="45.5" x="570.5" y="285"></rect><text x="593.25" y="300">lon</text><title>double</title></g><path d="M616.0 296h10"></path><path d="M626.0 296h10"></path><g class="non-terminal ">
<path d="M636.0 296h0.0"></path><path d="M681.5 296h0.0"></path><rect height="22" width="45.5" x="636.0" y="285"></rect><text x="658.75" y="300">lat</text><title>double</title></g><path d="M681.5 296h10"></path><path d="M691.5 296h10"></path><g class="non-terminal ">
<path d="M701.5 296h0.0"></path><path d="M772.5 296h0.0"></path><rect height="22" width="71.0" x="701.5" y="285"></rect><text x="737.0" y="300">radius</text><title>double</title></g><path d="M772.5 296h10"></path><g>
<path d="M782.5 296h0.0"></path><path d="M859.5 296h0.0"></path><path d="M782.5 296a10 10 0 0 0 10 -10v-10a10 10 0 0 1 10 -10"></path><g class="terminal ">
<path d="M802.5 266h0.0"></path><path d="M839.5 266h0.0"></path><rect height="22" rx="10" ry="10" width="37.0" x="802.5" y="255"></rect><text x="821.0" y="270">km</text></g><path d="M839.5 266a10 10 0 0 1 10 10v10a10 10 0 0 0 10 10"></path><path d="M782.5 296a10 10 0 0 0 10 -10v-40a10 10 0 0 1 10 -10"></path><g class="terminal ">
<path d="M802.5 236h4.25"></path><path d="M835.25 236h4.25"></path><rect height="22" rx="10" ry="10" width="28.5" x="806.75" y="225"></rect><text x="821.0" y="240">m</text></g><path d="M839.5 236a10 10 0 0 1 10 10v40a10 10 0 0 0 10 10"></path><path d="M782.5 296h20"></path><g class="terminal ">
<path d="M802.5 296h0.0"></path><path d="M839.5 296h0.0"></path><rect height="22" rx="10" ry="10" width="37.0" x="802.5" y="285"></rect><text x="821.0" y="300">mi</text></g><path d="M839.5 296h20"></path><path d="M782.5 296a10 10 0 0 1 10 10v10a10 10 0 0 0 10 10"></path><g class="terminal ">
<path d="M802.5 326h0.0"></path><path d="M839.5 326h0.0"></path><rect height="22" rx="10" ry="10" width="37.0" x="802.5" y="315"></rect><text x="821.0" y="330">ft</text></g><path d="M839.5 326a10 10 0 0 0 10 -10v-10a10 10 0 0 1 10 -10"></path></g></g><path d="M859.5 296h10"></path><path d="M337.5 296a10 10 0 0 0 -10 10v29a10 10 0 0 0 10 10"></path><g>
<path d="M337.5 345h522.0"></path></g><path d="M859.5 345a10 10 0 0 0 10 -10v-29a10 10 0 0 0 -10 -10"></path></g><path d="M869.5 296a10 10 0 0 0 10 -10v-59a10 10 0 0 1 10 -10"></path></g></g><path d="M1137.0 217a10 10 0 0 1 10 10v116a10 10 0 0 1 -10 10h-1077.0a10 10 0 0 0 -10 10v0a10 10 0 0 0 10 10"></path><g>
<path d="M60.0 373h242.5"></path><path d="M894.5 373h242.5"></path><g>
<path d="M302.5 373h0.0"></path><path d="M581.5 373h0.0"></path><path d="M302.5 373h20"></path><g>
<path d="M322.5 373h239.0"></path></g><path d="M561.5 373h20"></path><path d="M302.5 373a10 10 0 0 1 10 10v0a10 10 0 0 0 10 10"></path><g>
<path d="M322.5 393h0.0"></path><path d="M561.5 393h0.0"></path><g>
<path d="M322.5 393h0.0"></path><path d="M476.0 393h0.0"></path><g class="terminal ">
<path d="M322.5 393h0.0"></path><path d="M393.5 393h0.0"></path><rect height="22" rx="10" ry="10" width="71.0" x="322.5" y="382"></rect><text x="358.0" y="397">INKEYS</text></g><path d="M393.5 393h10"></path><path d="M403.5 393h10"></path><g class="non-terminal ">
<path d="M413.5 393h0.0"></path><path d="M476.0 393h0.0"></path><rect height="22" width="62.5" x="413.5" y="382"></rect><text x="444.75" y="397">count</text><title>string</title></g></g><path d="M476.0 393h10"></path><path d="M486.0 393h10"></path><g>
<path d="M496.0 393h0.0"></path><path d="M561.5 393h0.0"></path><path d="M496.0 393h10"></path><g class="non-terminal ">
<path d="M506.0 393h0.0"></path><path d="M551.5 393h0.0"></path><rect height="22" width="45.5" x="506.0" y="382"></rect><text x="528.75" y="397">key</text><title>string</title></g><path d="M551.5 393h10"></path><path d="M506.0 393a10 10 0 0 0 -10 10v0a10 10 0 0 0 10 10"></path><g>
<path d="M506.0 413h45.5"></path></g><path d="M551.5 413a10 10 0 0 0 10 -10v0a10 10 0 0 0 -10 -10"></path></g></g><path d="M561.5 393a10 10 0 0 0 10 -10v0a10 10 0 0 1 10 -10"></path></g><g>
<path d="M581.5 373h0.0"></path><path d="M894.5 373h0.0"></path><path d="M581.5 373h20"></path><g>
<path d="M601.5 373h273.0"></path></g><path d="M874.5 373h20"></path><path d="M581.5 373a10 10 0 0 1 10 10v0a10 10 0 0 0 10 10"></path><g>
<path d="M601.5 393h0.0"></path><path d="M874.5 393h0.0"></path><g>
<path d="M601.5 393h0.0"></path><path d="M772.0 393h0.0"></path><g class="terminal ">
<path d="M601.5 393h0.0"></path><path d="M689.5 393h0.0"></path><rect height="22" rx="10" ry="10" width="88.0" x="601.5" y="382"></rect><text x="645.5" y="397">INFIELDS</text></g><path d="M689.5 393h10"></path><path d="M699.5 393h10"></path><g class="non-terminal ">
<path d="M709.5 393h0.0"></path><path d="M772.0 393h0.0"></path><rect height="22" width="62.5" x="709.5" y="382"></rect><text x="740.75" y="397">count</text><title>string</title></g></g><path d="M772.0 393h10"></path><path d="M782.0 393h10"></path><g>
<path d="M792.0 393h0.0"></path><path d="M874.5 393h0.0"></path><path d="M792.0 393h10"></path><g class="non-terminal ">
<path d="M802.0 393h0.0"></path><path d="M864.5 393h0.0"></path><rect height="22" width="62.5" x="802.0" y="382"></rect><text x="833.25" y="397">field</text><title>string</title></g><path d="M864.5 393h10"></path><path d="M802.0 393a10 10 0 0 0 -10 10v0a10 10 0 0 0 10 10"></path><g>
<path d="M802.0 413h62.5"></path></g><path d="M864.5 413a10 10 0 0 0 10 -10v0a10 10 0 0 0 -10 -10"></path></g></g><path d="M874.5 393a10 10 0 0 0 10 -10v0a10 10 0 0 1 10 -10"></path></g></g><path d="M1137.0 373a10 10 0 0 1 10 10v28a10 10 0 0 1 -10 10h-1077.0a10 10 0 0 0 -10 10v0a10 10 0 0 0 10 10"></path><g>
<path d="M60.0 441h271.75"></path><path d="M865.25 441h271.75"></path><g>
<path d="M331.75 441h0.0"></path><path d="M865.25 441h0.0"></path><path d="M331.75 441h20"></path><g>
<path d="M351.75 441h493.5"></path></g><path d="M845.25 441h20"></path><path d="M331.75 441a10 10 0 0 1 10 10v0a10 10 0 0 0 10 10"></path><g>
<path d="M351.75 461h0.0"></path><path d="M845.25 461h0.0"></path><g>
<path d="M351.75 461h0.0"></path><path d="M505.25 461h0.0"></path><g class="terminal ">
<path d="M351.75 461h0.0"></path><path d="M422.75 461h0.0"></path><rect height="22" rx="10" ry="10" width="71.0" x="351.75" y="450"></rect><text x="387.25" y="465">RETURN</text></g><path d="M422.75 461h10"></path><path d="M432.75 461h10"></path><g class="non-terminal ">
<path d="M442.75 461h0.0"></path><path d="M505.25 461h0.0"></path><rect height="22" width="62.5" x="442.75" y="450"></rect><text x="474.0" y="465">count</text><title>string</title></g></g><path d="M505.25 461h10"></path><path d="M515.25 461h10"></path><g>
<path d="M525.25 461h0.0"></path><path d="M845.25 461h0.0"></path><path d="M525.25 461h10"></path><g>
<path d="M535.25 461h0.0"></path><path d="M835.25 461h0.0"></path><g class="non-terminal ">
<path d="M535.25 461h0.0"></path><path d="M640.25 461h0.0"></path><rect height="22" width="105.0" x="535.25" y="450"></rect><text x="587.75" y="465">identifier</text><title>string</title></g><path d="M640.25 461h10"></path><g>
<path d="M650.25 461h0.0"></path><path d="M835.25 461h0.0"></path><path d="M650.25 461h20"></path><g>
<path d="M670.25 461h145.0"></path></g><path d="M815.25 461h20"></path><path d="M650.25 461a10 10 0 0 1 10 10v0a10 10 0 0 0 10 10"></path><g>
<path d="M670.25 481h0.0"></path><path d="M815.25 481h0.0"></path><g class="terminal ">
<path d="M670.25 481h0.0"></path><path d="M707.25 481h0.0"></path><rect height="22" rx="10" ry="10" width="37.0" x="670.25" y="470"></rect><text x="688.75" y="485">AS</text></g><path d="M707.25 481h10"></path><path d="M717.25 481h10"></path><g class="non-terminal ">
<path d="M727.25 481h0.0"></path><path d="M815.25 481h0.0"></path><rect height="22" width="88.0" x="727.25" y="470"></rect><text x="771.25" y="485">property</text><title>string</title></g></g><path d="M815.25 481a10 10 0 0 0 10 -10v0a10 10 0 0 1 10 -10"></path></g></g><path d="M835.25 461h10"></path><path d="M535.25 461a10 10 0 0 0 -10 10v19a10 10 0 0 0 10 10"></path><g>
<path d="M535.25 500h300.0"></path></g><path d="M835.25 500a10 10 0 0 0 10 -10v-19a10 10 0 0 0 -10 -10"></path></g></g><path d="M845.25 461a10 10 0 0 0 10 -10v0a10 10 0 0 1 10 -10"></path></g></g><path d="M1137.0 441a10 10 0 0 1 10 10v47a10 10 0 0 1 -10 10h-1077.0a10 10 0 0 0 -10 10v0a10 10 0 0 0 10 10"></path><g>
<path d="M60.0 528h10.0"></path><path d="M1127.0 528h10.0"></path><g>
<path d="M70.0 528h0.0"></path><path d="M1127.0 528h0.0"></path><path d="M70.0 528h20"></path><g>
<path d="M90.0 528h1017.0"></path></g><path d="M1107.0 528h20"></path><path d="M70.0 528a10 10 0 0 1 10 10v0a10 10 0 0 0 10 10"></path><g>
<path d="M90.0 548h0.0"></path><path d="M1107.0 548h0.0"></path><g class="terminal ">
<path d="M90.0 548h0.0"></path><path d="M186.5 548h0.0"></path><rect height="22" rx="10" ry="10" width="96.5" x="90.0" y="537"></rect><text x="138.25" y="552">SUMMARIZE</text></g><path d="M186.5 548h10"></path><g>
<path d="M196.5 548h0.0"></path><path d="M492.5 548h0.0"></path><path d="M196.5 548h20"></path><g>
<path d="M216.5 548h256.0"></path></g><path d="M472.5 548h20"></path><path d="M196.5 548a10 10 0 0 1 10 10v0a10 10 0 0 0 10 10"></path><g>
<path d="M216.5 568h0.0"></path><path d="M472.5 568h0.0"></path><g>
<path d="M216.5 568h0.0"></path><path d="M370.0 568h0.0"></path><g class="terminal ">
<path d="M216.5 568h0.0"></path><path d="M287.5 568h0.0"></path><rect height="22" rx="10" ry="10" width="71.0" x="216.5" y="557"></rect><text x="252.0" y="572">FIELDS</text></g><path d="M287.5 568h10"></path><path d="M297.5 568h10"></path><g class="non-terminal ">
<path d="M307.5 568h0.0"></path><path d="M370.0 568h0.0"></path><rect height="22" width="62.5" x="307.5" y="557"></rect><text x="338.75" y="572">count</text><title>string</title></g></g><path d="M370.0 568h10"></path><path d="M380.0 568h10"></path><g>
<path d="M390.0 568h0.0"></path><path d="M472.5 568h0.0"></path><path d="M390.0 568h10"></path><g class="non-terminal ">
<path d="M400.0 568h0.0"></path><path d="M462.5 568h0.0"></path><rect height="22" width="62.5" x="400.0" y="557"></rect><text x="431.25" y="572">field</text><title>string</title></g><path d="M462.5 568h10"></path><path d="M400.0 568a10 10 0 0 0 -10 10v0a10 10 0 0 0 10 10"></path><g>
<path d="M400.0 588h62.5"></path></g><path d="M462.5 588a10 10 0 0 0 10 -10v0a10 10 0 0 0 -10 -10"></path></g></g><path d="M472.5 568a10 10 0 0 0 10 -10v0a10 10 0 0 1 10 -10"></path></g><g>
<path d="M492.5 548h0.0"></path><path d="M660.5 548h0.0"></path><path d="M492.5 548h20"></path><g>
<path d="M512.5 548h128.0"></path></g><path d="M640.5 548h20"></path><path d="M492.5 548a10 10 0 0 1 10 10v0a10 10 0 0 0 10 10"></path><g>
<path d="M512.5 568h0.0"></path><path d="M640.5 568h0.0"></path><g class="terminal ">
<path d="M512.5 568h0.0"></path><path d="M575.0 568h0.0"></path><rect height="22" rx="10" ry="10" width="62.5" x="512.5" y="557"></rect><text x="543.75" y="572">FRAGS</text></g><path d="M575.0 568h10"></path><path d="M585.0 568h10"></path><g class="non-terminal ">
<path d="M595.0 568h0.0"></path><path d="M640.5 568h0.0"></path><rect height="22" width="45.5" x="595.0" y="557"></rect><text x="617.75" y="572">num</text><title>integer</title></g></g><path d="M640.5 568a10 10 0 0 0 10 -10v0a10 10 0 0 1 10 -10"></path></g><g>
<path d="M660.5 548h0.0"></path><path d="M854.0 548h0.0"></path><path d="M660.5 548h20"></path><g>
<path d="M680.5 548h153.5"></path></g><path d="M834.0 548h20"></path><path d="M660.5 548a10 10 0 0 1 10 10v0a10 10 0 0 0 10 10"></path><g>
<path d="M680.5 568h0.0"></path><path d="M834.0 568h0.0"></path><g class="terminal ">
<path d="M680.5 568h0.0"></path><path d="M726.0 568h0.0"></path><rect height="22" rx="10" ry="10" width="45.5" x="680.5" y="557"></rect><text x="703.25" y="572">LEN</text></g><path d="M726.0 568h10"></path><path d="M736.0 568h10"></path><g class="non-terminal ">
<path d="M746.0 568h0.0"></path><path d="M834.0 568h0.0"></path><rect height="22" width="88.0" x="746.0" y="557"></rect><text x="790.0" y="572">fragsize</text><title>integer</title></g></g><path d="M834.0 568a10 10 0 0 0 10 -10v0a10 10 0 0 1 10 -10"></path></g><g>
<path d="M854.0 548h0.0"></path><path d="M1107.0 548h0.0"></path><path d="M854.0 548h20"></path><g>
<path d="M874.0 548h213.0"></path></g><path d="M1087.0 548h20"></path><path d="M854.0 548a10 10 0 0 1 10 10v0a10 10 0 0 0 10 10"></path><g>
<path d="M874.0 568h0.0"></path><path d="M1087.0 568h0.0"></path><g class="terminal ">
<path d="M874.0 568h0.0"></path><path d="M970.5 568h0.0"></path><rect height="22" rx="10" ry="10" width="96.5" x="874.0" y="557"></rect><text x="922.25" y="572">SEPARATOR</text></g><path d="M970.5 568h10"></path><path d="M980.5 568h10"></path><g class="non-terminal ">
<path d="M990.5 568h0.0"></path><path d="M1087.0 568h0.0"></path><rect height="22" width="96.5" x="990.5" y="557"></rect><text x="1038.75" y="572">separator</text><title>string</title></g></g><path d="M1087.0 568a10 10 0 0 0 10 -10v0a10 10 0 0 1 10 -10"></path></g></g><path d="M1107.0 548a10 10 0 0 0 10 -10v0a10 10 0 0 1 10 -10"></path></g></g><path d="M1137.0 528a10 10 0 0 1 10 10v48a10 10 0 0 1 -10 10h-1077.0a10 10 0 0 0 -10 10v0a10 10 0 0 0 10 10"></path><g>
<path d="M60.0 616h192.0"></path><path d="M945.0 616h192.0"></path><g>
<path d="M252.0 616h0.0"></path><path d="M945.0 616h0.0"></path><path d="M252.0 616h20"></path><g>
<path d="M272.0 616h653.0"></path></g><path d="M925.0 616h20"></path><path d="M252.0 616a10 10 0 0 1 10 10v0a10 10 0 0 0 10 10"></path><g>
<path d="M272.0 636h0.0"></path><path d="M925.0 636h0.0"></path><g class="terminal ">
<path d="M272.0 636h0.0"></path><path d="M368.5 636h0.0"></path><rect height="22" rx="10" ry="10" width="96.5" x="272.0" y="625"></rect><text x="320.25" y="640">HIGHLIGHT</text></g><path d="M368.5 636h10"></path><g>
<path d="M378.5 636h0.0"></path><path d="M674.5 636h0.0"></path><path d="M378.5 636h20"></path><g>
<path d="M398.5 636h256.0"></path></g><path d="M654.5 636h20"></path><path d="M378.5 636a10 10 0 0 1 10 10v0a10 10 0 0 0 10 10"></path><g>
<path d="M398.5 656h0.0"></path><path d="M654.5 656h0.0"></path><g>
<path d="M398.5 656h0.0"></path><path d="M552.0 656h0.0"></path><g class="terminal ">
<path d="M398.5 656h0.0"></path><path d="M469.5 656h0.0"></path><rect height="22" rx="10" ry="10" width="71.0" x="398.5" y="645"></rect><text x="434.0" y="660">FIELDS</text></g><path d="M469.5 656h10"></path><path d="M479.5 656h10"></path><g class="non-terminal ">
<path d="M489.5 656h0.0"></path><path d="M552.0 656h0.0"></path><rect height="22" width="62.5" x="489.5" y="645"></rect><text x="520.75" y="660">count</text><title>string</title></g></g><path d="M552.0 656h10"></path><path d="M562.0 656h10"></path><g>
<path d="M572.0 656h0.0"></path><path d="M654.5 656h0.0"></path><path d="M572.0 656h10"></path><g class="non-terminal ">
<path d="M582.0 656h0.0"></path><path d="M644.5 656h0.0"></path><rect height="22" width="62.5" x="582.0" y="645"></rect><text x="613.25" y="660">field</text><title>string</title></g><path d="M644.5 656h10"></path><path d="M582.0 656a10 10 0 0 0 -10 10v0a10 10 0 0 0 10 10"></path><g>
<path d="M582.0 676h62.5"></path></g><path d="M644.5 676a10 10 0 0 0 10 -10v0a10 10 0 0 0 -10 -10"></path></g></g><path d="M654.5 656a10 10 0 0 0 10 -10v0a10 10 0 0 1 10 -10"></path></g><g>
<path d="M674.5 636h0.0"></path><path d="M925.0 636h0.0"></path><path d="M674.5 636h20"></path><g>
<path d="M694.5 636h210.5"></path></g><path d="M905.0 636h20"></path><path d="M674.5 636a10 10 0 0 1 10 10v0a10 10 0 0 0 10 10"></path><g>
<path d="M694.5 656h0.0"></path><path d="M905.0 656h0.0"></path><g class="terminal ">
<path d="M694.5 656h0.0"></path><path d="M748.5 656h0.0"></path><rect height="22" rx="10" ry="10" width="54.0" x="694.5" y="645"></rect><text x="721.5" y="660">TAGS</text></g><path d="M748.5 656h10"></path><path d="M758.5 656h10"></path><g class="non-terminal ">
<path d="M768.5 656h0.0"></path><path d="M822.5 656h0.0"></path><rect height="22" width="54.0" x="768.5" y="645"></rect><text x="795.5" y="660">open</text><title>string</title></g><path d="M822.5 656h10"></path><path d="M832.5 656h10"></path><g class="non-terminal ">
<path d="M842.5 656h0.0"></path><path d="M905.0 656h0.0"></path><rect height="22" width="62.5" x="842.5" y="645"></rect><text x="873.75" y="660">close</text><title>string</title></g></g><path d="M905.0 656a10 10 0 0 0 10 -10v0a10 10 0 0 1 10 -10"></path></g></g><path d="M925.0 636a10 10 0 0 0 10 -10v0a10 10 0 0 1 10 -10"></path></g></g><path d="M1137.0 616a10 10 0 0 1 10 10v48a10 10 0 0 1 -10 10h-1077.0a10 10 0 0 0 -10 10v0a10 10 0 0 0 10 10"></path><g>
<path d="M60.0 704h285.25"></path><path d="M851.75 704h285.25"></path><g>
<path d="M345.25 704h0.0"></path><path d="M513.25 704h0.0"></path><path d="M345.25 704h20"></path><g>
<path d="M365.25 704h128.0"></path></g><path d="M493.25 704h20"></path><path d="M345.25 704a10 10 0 0 1 10 10v0a10 10 0 0 0 10 10"></path><g>
<path d="M365.25 724h0.0"></path><path d="M493.25 724h0.0"></path><g class="terminal ">
<path d="M365.25 724h0.0"></path><path d="M419.25 724h0.0"></path><rect height="22" rx="10" ry="10" width="54.0" x="365.25" y="713"></rect><text x="392.25" y="728">SLOP</text></g><path d="M419.25 724h10"></path><path d="M429.25 724h10"></path><g class="non-terminal ">
<path d="M439.25 724h0.0"></path><path d="M493.25 724h0.0"></path><rect height="22" width="54.0" x="439.25" y="713"></rect><text x="466.25" y="728">slop</text><title>integer</title></g></g><path d="M493.25 724a10 10 0 0 0 10 -10v0a10 10 0 0 1 10 -10"></path></g><g>
<path d="M513.25 704h0.0"></path><path d="M732.25 704h0.0"></path><path d="M513.25 704h20"></path><g>
<path d="M533.25 704h179.0"></path></g><path d="M712.25 704h20"></path><path d="M513.25 704a10 10 0 0 1 10 10v0a10 10 0 0 0 10 10"></path><g>
<path d="M533.25 724h0.0"></path><path d="M712.25 724h0.0"></path><g class="terminal ">
<path d="M533.25 724h0.0"></path><path d="M612.75 724h0.0"></path><rect height="22" rx="10" ry="10" width="79.5" x="533.25" y="713"></rect><text x="573.0" y="728">TIMEOUT</text></g><path d="M612.75 724h10"></path><path d="M622.75 724h10"></path><g class="non-terminal ">
<path d="M632.75 724h0.0"></path><path d="M712.25 724h0.0"></path><rect height="22" width="79.5" x="632.75" y="713"></rect><text x="672.5" y="728">timeout</text><title>integer</title></g></g><path d="M712.25 724a10 10 0 0 0 10 -10v0a10 10 0 0 1 10 -10"></path></g><g>
<path d="M732.25 704h0.0"></path><path d="M851.75 704h0.0"></path><path d="M732.25 704h20"></path><g>
<path d="M752.25 704h79.5"></path></g><path d="M831.75 704h20"></path><path d="M732.25 704a10 10 0 0 1 10 10v0a10 10 0 0 0 10 10"></path><g class="terminal ">
<path d="M752.25 724h0.0"></path><path d="M831.75 724h0.0"></path><rect height="22" rx="10" ry="10" width="79.5" x="752.25" y="713"></rect><text x="792.0" y="728">INORDER</text></g><path d="M831.75 724a10 10 0 0 0 10 -10v0a10 10 0 0 1 10 -10"></path></g></g><path d="M1137.0 704a10 10 0 0 1 10 10v19a10 10 0 0 1 -10 10h-1077.0a10 10 0 0 0 -10 10v0a10 10 0 0 0 10 10"></path><g>
<path d="M60.0 763h302.5"></path><path d="M834.5 763h302.5"></path><g>
<path d="M362.5 763h0.0"></path><path d="M598.5 763h0.0"></path><path d="M362.5 763h20"></path><g>
<path d="M382.5 763h196.0"></path></g><path d="M578.5 763h20"></path><path d="M362.5 763a10 10 0 0 1 10 10v0a10 10 0 0 0 10 10"></path><g>
<path d="M382.5 783h0.0"></path><path d="M578.5 783h0.0"></path><g class="terminal ">
<path d="M382.5 783h0.0"></path><path d="M470.5 783h0.0"></path><rect height="22" rx="10" ry="10" width="88.0" x="382.5" y="772"></rect><text x="426.5" y="787">LANGUAGE</text></g><path d="M470.5 783h10"></path><path d="M480.5 783h10"></path><g class="non-terminal ">
<path d="M490.5 783h0.0"></path><path d="M578.5 783h0.0"></path><rect height="22" width="88.0" x="490.5" y="772"></rect><text x="534.5" y="787">language</text><title>string</title></g></g><path d="M578.5 783a10 10 0 0 0 10 -10v0a10 10 0 0 1 10 -10"></path></g><g>
<path d="M598.5 763h0.0"></path><path d="M834.5 763h0.0"></path><path d="M598.5 763h20"></path><g>
<path d="M618.5 763h196.0"></path></g><path d="M814.5 763h20"></path><path d="M598.5 763a10 10 0 0 1 10 10v0a10 10 0 0 0 10 10"></path><g>
<path d="M618.5 783h0.0"></path><path d="M814.5 783h0.0"></path><g class="terminal ">
<path d="M618.5 783h0.0"></path><path d="M706.5 783h0.0"></path><rect height="22" rx="10" ry="10" width="88.0" x="618.5" y="772"></rect><text x="662.5" y="787">EXPANDER</text></g><path d="M706.5 783h10"></path><path d="M716.5 783h10"></path><g class="non-terminal ">
<path d="M726.5 783h0.0"></path><path d="M814.5 783h0.0"></path><rect height="22" width="88.0" x="726.5" y="772"></rect><text x="770.5" y="787">expander</text><title>string</title></g></g><path d="M814.5 783a10 10 0 0 0 10 -10v0a10 10 0 0 1 10 -10"></path></g></g><path d="M1137.0 763a10 10 0 0 1 10 10v19a10 10 0 0 1 -10 10h-1077.0a10 10 0 0 0 -10 10v0a10 10 0 0 0 10 10"></path><g>
<path d="M60.0 822h247.0"></path><path d="M890.0 822h247.0"></path><g>
<path d="M307.0 822h0.0"></path><path d="M509.0 822h0.0"></path><path d="M307.0 822h20"></path><g>
<path d="M327.0 822h162.0"></path></g><path d="M489.0 822h20"></path><path d="M307.0 822a10 10 0 0 1 10 10v0a10 10 0 0 0 10 10"></path><g>
<path d="M327.0 842h0.0"></path><path d="M489.0 842h0.0"></path><g class="terminal ">
<path d="M327.0 842h0.0"></path><path d="M398.0 842h0.0"></path><rect height="22" rx="10" ry="10" width="71.0" x="327.0" y="831"></rect><text x="362.5" y="846">SCORER</text></g><path d="M398.0 842h10"></path><path d="M408.0 842h10"></path><g class="non-terminal ">
<path d="M418.0 842h0.0"></path><path d="M489.0 842h0.0"></path><rect height="22" width="71.0" x="418.0" y="831"></rect><text x="453.5" y="846">scorer</text><title>string</title></g></g><path d="M489.0 842a10 10 0 0 0 10 -10v0a10 10 0 0 1 10 -10"></path></g><g>
<path d="M509.0 822h0.0"></path><path d="M671.0 822h0.0"></path><path d="M509.0 822h20"></path><g>
<path d="M529.0 822h122.0"></path></g><path d="M651.0 822h20"></path><path d="M509.0 822a10 10 0 0 1 10 10v0a10 10 0 0 0 10 10"></path><g class="terminal ">
<path d="M529.0 842h0.0"></path><path d="M651.0 842h0.0"></path><rect height="22" rx="10" ry="10" width="122.0" x="529.0" y="831"></rect><text x="590.0" y="846">EXPLAINSCORE</text></g><path d="M651.0 842a10 10 0 0 0 10 -10v0a10 10 0 0 1 10 -10"></path></g><g>
<path d="M671.0 822h0.0"></path><path d="M890.0 822h0.0"></path><path d="M671.0 822h20"></path><g>
<path d="M691.0 822h179.0"></path></g><path d="M870.0 822h20"></path><path d="M671.0 822a10 10 0 0 1 10 10v0a10 10 0 0 0 10 10"></path><g>
<path d="M691.0 842h0.0"></path><path d="M870.0 842h0.0"></path><g class="terminal ">
<path d="M691.0 842h0.0"></path><path d="M770.5 842h0.0"></path><rect height="22" rx="10" ry="10" width="79.5" x="691.0" y="831"></rect><text x="730.75" y="846">PAYLOAD</text></g><path d="M770.5 842h10"></path><path d="M780.5 842h10"></path><g class="non-terminal ">
<path d="M790.5 842h0.0"></path><path d="M870.0 842h0.0"></path><rect height="22" width="79.5" x="790.5" y="831"></rect><text x="830.25" y="846">payload</text><title>string</title></g></g><path d="M870.0 842a10 10 0 0 0 10 -10v0a10 10 0 0 1 10 -10"></path></g></g><path d="M1137.0 822a10 10 0 0 1 10 10v19a10 10 0 0 1 -10 10h-1077.0a10 10 0 0 0 -10 10v0a10 10 0 0 0 10 10"></path><g>
<path d="M60.0 881h236.0"></path><path d="M901.0 881h236.0"></path><g>
<path d="M296.0 881h0.0"></path><path d="M642.0 881h0.0"></path><path d="M296.0 881h20"></path><g>
<path d="M316.0 881h306.0"></path></g><path d="M622.0 881h20"></path><path d="M296.0 881a10 10 0 0 1 10 10v0a10 10 0 0 0 10 10"></path><g>
<path d="M316.0 901h0.0"></path><path d="M622.0 901h0.0"></path><g>
<path d="M316.0 901h0.0"></path><path d="M478.0 901h0.0"></path><g class="terminal ">
<path d="M316.0 901h0.0"></path><path d="M387.0 901h0.0"></path><rect height="22" rx="10" ry="10" width="71.0" x="316.0" y="890"></rect><text x="351.5" y="905">SORTBY</text></g><path d="M387.0 901h10"></path><path d="M397.0 901h10"></path><g class="non-terminal ">
<path d="M407.0 901h0.0"></path><path d="M478.0 901h0.0"></path><rect height="22" width="71.0" x="407.0" y="890"></rect><text x="442.5" y="905">sortby</text><title>string</title></g></g><path d="M478.0 901h10"></path><g>
<path d="M488.0 901h0.0"></path><path d="M622.0 901h0.0"></path><path d="M488.0 901h20"></path><g>
<path d="M508.0 901h94.0"></path></g><path d="M602.0 901h20"></path><path d="M488.0 901a10 10 0 0 1 10 10v29a10 10 0 0 0 10 10"></path><g>
<path d="M508.0 950h0.0"></path><path d="M602.0 950h0.0"></path><path d="M508.0 950a10 10 0 0 0 10 -10v-10a10 10 0 0 1 10 -10"></path><g class="terminal ">
<path d="M528.0 920h4.25"></path><path d="M577.75 920h4.25"></path><rect height="22" rx="10" ry="10" width="45.5" x="532.25" y="909"></rect><text x="555.0" y="924">ASC</text></g><path d="M582.0 920a10 10 0 0 1 10 10v10a10 10 0 0 0 10 10"></path><path d="M508.0 950h20"></path><g class="terminal ">
<path d="M528.0 950h0.0"></path><path d="M582.0 950h0.0"></path><rect height="22" rx="10" ry="10" width="54.0" x="528.0" y="939"></rect><text x="555.0" y="954">DESC</text></g><path d="M582.0 950h20"></path></g><path d="M602.0 950a10 10 0 0 0 10 -10v-29a10 10 0 0 1 10 -10"></path></g></g><path d="M622.0 901a10 10 0 0 0 10 -10v0a10 10 0 0 1 10 -10"></path></g><g>
<path d="M642.0 881h0.0"></path><path d="M901.0 881h0.0"></path><path d="M642.0 881h20"></path><g>
<path d="M662.0 881h219.0"></path></g><path d="M881.0 881h20"></path><path d="M642.0 881a10 10 0 0 1 10 10v0a10 10 0 0 0 10 10"></path><g>
<path d="M662.0 901h0.0"></path><path d="M881.0 901h0.0"></path><g class="terminal ">
<path d="M662.0 901h0.0"></path><path d="M724.5 901h0.0"></path><rect height="22" rx="10" ry="10" width="62.5" x="662.0" y="890"></rect><text x="693.25" y="905">LIMIT</text></g><path d="M724.5 901h10"></path><path d="M734.5 901h10"></path><g class="non-terminal ">
<path d="M744.5 901h0.0"></path><path d="M815.5 901h0.0"></path><rect height="22" width="71.0" x="744.5" y="890"></rect><text x="780.0" y="905">offset</text><title>integer</title></g><path d="M815.5 901h10"></path><path d="M825.5 901h10"></path><g class="non-terminal ">
<path d="M835.5 901h0.0"></path><path d="M881.0 901h0.0"></path><rect height="22" width="45.5" x="835.5" y="890"></rect><text x="858.25" y="905">num</text><title>integer</title></g></g><path d="M881.0 901a10 10 0 0 0 10 -10v0a10 10 0 0 1 10 -10"></path></g></g><path d="M1137.0 881a10 10 0 0 1 10 10v68a10 10 0 0 1 -10 10h-1077.0a10 10 0 0 0 -10 10v0a10 10 0 0 0 10 10"></path><g>
<path d="M60.0 989h244.0"></path><path d="M893.0 989h244.0"></path><g>
<path d="M304.0 989h0.0"></path><path d="M674.0 989h0.0"></path><path d="M304.0 989h20"></path><g>
<path d="M324.0 989h330.0"></path></g><path d="M654.0 989h20"></path><path d="M304.0 989a10 10 0 0 1 10 10v0a10 10 0 0 0 10 10"></path><g>
<path d="M324.0 1009h0.0"></path><path d="M654.0 1009h0.0"></path><g class="terminal ">
<path d="M324.0 1009h0.0"></path><path d="M395.0 1009h0.0"></path><rect height="22" rx="10" ry="10" width="71.0" x="324.0" y="998"></rect><text x="359.5" y="1013">PARAMS</text></g><path d="M395.0 1009h10"></path><path d="M405.0 1009h10"></path><g class="non-terminal ">
<path d="M415.0 1009h0.0"></path><path d="M477.5 1009h0.0"></path><rect height="22" width="62.5" x="415.0" y="998"></rect><text x="446.25" y="1013">nargs</text><title>integer</title></g><path d="M477.5 1009h10"></path><path d="M487.5 1009h10"></path><g>
<path d="M497.5 1009h0.0"></path><path d="M654.0 1009h0.0"></path><path d="M497.5 1009h10"></path><g>
<path d="M507.5 1009h0.0"></path><path d="M644.0 1009h0.0"></path><g class="non-terminal ">
<path d="M507.5 1009h0.0"></path><path d="M561.5 1009h0.0"></path><rect height="22" width="54.0" x="507.5" y="998"></rect><text x="534.5" y="1013">name</text><title>string</title></g><path d="M561.5 1009h10"></path><path d="M571.5 1009h10"></path><g class="non-terminal ">
<path d="M581.5 1009h0.0"></path><path d="M644.0 1009h0.0"></path><rect height="22" width="62.5" x="581.5" y="998"></rect><text x="612.75" y="1013">value</text><title>string</title></g></g><path d="M644.0 1009h10"></path><path d="M507.5 1009a10 10 0 0 0 -10 10v0a10 10 0 0 0 10 10"></path><g>
<path d="M507.5 1029h136.5"></path></g><path d="M644.0 1029a10 10 0 0 0 10 -10v0a10 10 0 0 0 -10 -10"></path></g></g><path d="M654.0 1009a10 10 0 0 0 10 -10v0a10 10 0 0 1 10 -10"></path></g><g>
<path d="M674.0 989h0.0"></path><path d="M893.0 989h0.0"></path><path d="M674.0 989h20"></path><g>
<path d="M694.0 989h179.0"></path></g><path d="M873.0 989h20"></path><path d="M674.0 989a10 10 0 0 1 10 10v0a10 10 0 0 0 10 10"></path><g>
<path d="M694.0 1009h0.0"></path><path d="M873.0 1009h0.0"></path><g class="terminal ">
<path d="M694.0 1009h0.0"></path><path d="M773.5 1009h0.0"></path><rect height="22" rx="10" ry="10" width="79.5" x="694.0" y="998"></rect><text x="733.75" y="1013">DIALECT</text></g><path d="M773.5 1009h10"></path><path d="M783.5 1009h10"></path><g class="non-terminal ">
<path d="M793.5 1009h0.0"></path><path d="M873.0 1009h0.0"></path><rect height="22" width="79.5" x="793.5" y="998"></rect><text x="833.25" y="1013">dialect</text><title>integer</title></g></g><path d="M873.0 1009a10 10 0 0 0 10 -10v0a10 10 0 0 1 10 -10"></path></g></g><path d="M1137.0 989h10"></path><path d="M1147.0 989h0.0"></path></g><path d="M1147.0 989h10"></path><path d="M 1157.0 989 h 20 m -10 -10 v 20 m 10 -20 v 20"></path></g></svg>