<svg class="railroad-diagram" viewBox="0 0 713.0 209" xmlns="http://www.w3.org/2000/svg" xmlns:xlink="http://www.w3.org/1999/xlink">
<g transform="translate(.5 .5)">
<g>
<path d="M20 21v20m10 -20v20m-10 -10h20"></path></g><path d="M40 31h10"></path><g>
<path d="M50 31h0.0"></path><path d="M50.0 31h10"></path><g>
<path d="M60.0 31h10.0"></path><path d="M643.0 31h10.0"></path><g class="terminal ">
<path d="M70.0 31h0.0"></path><path d="M183.5 31h0.0"></path><rect height="22" rx="10" ry="10" width="113.5" x="70.0" y="20"></rect><text x="126.75" y="35">ZINTERSTORE</text></g><path d="M183.5 31h10"></path><path d="M193.5 31h10"></path><g class="non-terminal ">
<path d="M203.5 31h0.0"></path><path d="M317.0 31h0.0"></path><rect height="22" width="113.5" x="203.5" y="20"></rect><text x="260.25" y="35">destination</text><title>key</title></g><path d="M317.0 31h10"></path><path d="M327.0 31h10"></path><g class="non-terminal ">
<path d="M337.0 31h0.0"></path><path d="M416.5 31h0.0"></path><rect height="22" width="79.5" x="337.0" y="20"></rect><text x="376.75" y="35">numkeys</text><title>integer</title></g><path d="M416.5 31h10"></path><path d="M426.5 31h10"></path><g>
<path d="M436.5 31h0.0"></path><path d="M502.0 31h0.0"></path><path d="M436.5 31h10"></path><g class="non-terminal ">
<path d="M446.5 31h0.0"></path><path d="M492.0 31h0.0"></path><rect height="22" width="45.5" x="446.5" y="20"></rect><text x="469.25" y="35">key</text><title>key</title></g><path d="M492.0 31h10"></path><path d="M446.5 31a10 10 0 0 0 -10 10v0a10 10 0 0 0 10 10"></path><g>
<path d="M446.5 51h45.5"></path></g><path d="M492.0 51a10 10 0 0 0 10 -10v0a10 10 0 0 0 -10 -10"></path></g><path d="M502.0 31h10"></path><g>
<path d="M512.0 31h0.0"></path><path d="M643.0 31h0.0"></path><path d="M512.0 31h20"></path><g>
<path d="M532.0 31h91.0"></path></g><path d="M623.0 31h20"></path><path d="M512.0 31a10 10 0 0 1 10 10v0a10 10 0 0 0 10 10"></path><g>
<path d="M532.0 51h0.0"></path><path d="M623.0 51h0.0"></path><path d="M532.0 51h10"></path><g class="non-terminal ">
<path d="M542.0 51h0.0"></path><path d="M613.0 51h0.0"></path><rect height="22" width="71.0" x="542.0" y="40"></rect><text x="577.5" y="55">weight</text><title>integer</title></g><path d="M613.0 51h10"></path><path d="M542.0 51a10 10 0 0 0 -10 10v0a10 10 0 0 0 10 10"></path><g>
<path d="M542.0 71h71.0"></path></g><path d="M613.0 71a10 10 0 0 0 10 -10v0a10 10 0 0 0 -10 -10"></path></g><path d="M623.0 51a10 10 0 0 0 10 -10v0a10 10 0 0 1 10 -10"></path></g></g><path d="M653.0 31a10 10 0 0 1 10 10v28a10 10 0 0 1 -10 10h-593.0a10 10 0 0 0 -10 10v0a10 10 0 0 0 10 10"></path><g>
<path d="M60.0 99h180.5"></path><path d="M472.5 99h180.5"></path><g>
<path d="M240.5 99h0.0"></path><path d="M472.5 99h0.0"></path><path d="M240.5 99h20"></path><g>
<path d="M260.5 99h192.0"></path></g><path d="M452.5 99h20"></path><path d="M240.5 99a10 10 0 0 1 10 10v59a10 10 0 0 0 10 10"></path><g>
<path d="M260.5 178h0.0"></path><path d="M452.5 178h0.0"></path><g class="terminal ">
<path d="M260.5 178h0.0"></path><path d="M357.0 178h0.0"></path><rect height="22" rx="10" ry="10" width="96.5" x="260.5" y="167"></rect><text x="308.75" y="182">AGGREGATE</text></g><path d="M357.0 178h10"></path><g>
<path d="M367.0 178h0.0"></path><path d="M452.5 178h0.0"></path><path d="M367.0 178a10 10 0 0 0 10 -10v-10a10 10 0 0 1 10 -10"></path><g class="terminal ">
<path d="M387.0 148h0.0"></path><path d="M432.5 148h0.0"></path><rect height="22" rx="10" ry="10" width="45.5" x="387.0" y="137"></rect><text x="409.75" y="152">MIN</text></g><path d="M432.5 148a10 10 0 0 1 10 10v10a10 10 0 0 0 10 10"></path><path d="M367.0 178a10 10 0 0 0 10 -10v-40a10 10 0 0 1 10 -10"></path><g class="terminal ">
<path d="M387.0 118h0.0"></path><path d="M432.5 118h0.0"></path><rect height="22" rx="10" ry="10" width="45.5" x="387.0" y="107"></rect><text x="409.75" y="122">SUM</text></g><path d="M432.5 118a10 10 0 0 1 10 10v40a10 10 0 0 0 10 10"></path><path d="M367.0 178h20"></path><g class="terminal ">
<path d="M387.0 178h0.0"></path><path d="M432.5 178h0.0"></path><rect height="22" rx="10" ry="10" width="45.5" x="387.0" y="167"></rect><text x="409.75" y="182">MAX</text></g><path d="M432.5 178h20"></path></g></g><path d="M452.5 178a10 10 0 0 0 10 -10v-59a10 10 0 0 1 10 -10"></path></g></g><path d="M653.0 99h10"></path><path d="M663.0 99h0.0"></path></g><path d="M663.0 99h10"></path><path d="M 673.0 99 h 20 m -10 -10 v 20 m 10 -20 v 20"></path></g></svg>