<svg class="railroad-diagram" viewBox="0 0 832.5 142" xmlns="http://www.w3.org/2000/svg" xmlns:xlink="http://www.w3.org/1999/xlink">
<g transform="translate(.5 .5)">
<g>
<path d="M20 21v20m10 -20v20m-10 -10h20"></path></g><path d="M40 31h10"></path><g>
<path d="M50 31h0.0"></path><path d="M50.0 31h10"></path><g>
<path d="M60.0 31h325.0"></path><path d="M447.5 31h325.0"></path><g class="terminal ">
<path d="M385.0 31h0.0"></path><path d="M447.5 31h0.0"></path><rect height="22" rx="10" ry="10" width="62.5" x="385.0" y="20"></rect><text x="416.25" y="35">HELLO</text></g></g><path d="M772.5 31a10 10 0 0 1 10 10v0a10 10 0 0 1 -10 10h-712.5a10 10 0 0 0 -10 10v0a10 10 0 0 0 10 10"></path><g>
<path d="M60.0 71h10.0"></path><path d="M762.5 71h10.0"></path><g>
<path d="M70.0 71h0.0"></path><path d="M762.5 71h0.0"></path><path d="M70.0 71h20"></path><g>
<path d="M90.0 71h652.5"></path></g><path d="M742.5 71h20"></path><path d="M70.0 71a10 10 0 0 1 10 10v0a10 10 0 0 0 10 10"></path><g>
<path d="M90.0 91h0.0"></path><path d="M742.5 91h0.0"></path><g class="non-terminal ">
<path d="M90.0 91h0.0"></path><path d="M178.0 91h0.0"></path><rect height="22" width="88.0" x="90.0" y="80"></rect><text x="134.0" y="95">protover</text><title>integer</title></g><path d="M178.0 91h10"></path><g>
<path d="M188.0 91h0.0"></path><path d="M498.0 91h0.0"></path><path d="M188.0 91h20"></path><g>
<path d="M208.0 91h270.0"></path></g><path d="M478.0 91h20"></path><path d="M188.0 91a10 10 0 0 1 10 10v0a10 10 0 0 0 10 10"></path><g>
<path d="M208.0 111h0.0"></path><path d="M478.0 111h0.0"></path><g class="terminal ">
<path d="M208.0 111h0.0"></path><path d="M262.0 111h0.0"></path><rect height="22" rx="10" ry="10" width="54.0" x="208.0" y="100"></rect><text x="235.0" y="115">AUTH</text></g><path d="M262.0 111h10"></path><path d="M272.0 111h10"></path><g>
<path d="M282.0 111h0.0"></path><path d="M478.0 111h0.0"></path><g class="non-terminal ">
<path d="M282.0 111h0.0"></path><path d="M370.0 111h0.0"></path><rect height="22" width="88.0" x="282.0" y="100"></rect><text x="326.0" y="115">username</text><title>string</title></g><path d="M370.0 111h10"></path><path d="M380.0 111h10"></path><g class="non-terminal ">
<path d="M390.0 111h0.0"></path><path d="M478.0 111h0.0"></path><rect height="22" width="88.0" x="390.0" y="100"></rect><text x="434.0" y="115">password</text><title>string</title></g></g></g><path d="M478.0 111a10 10 0 0 0 10 -10v0a10 10 0 0 1 10 -10"></path></g><g>
<path d="M498.0 91h0.0"></path><path d="M742.5 91h0.0"></path><path d="M498.0 91h20"></path><g>
<path d="M518.0 91h204.5"></path></g><path d="M722.5 91h20"></path><path d="M498.0 91a10 10 0 0 1 10 10v0a10 10 0 0 0 10 10"></path><g>
<path d="M518.0 111h0.0"></path><path d="M722.5 111h0.0"></path><g class="terminal ">
<path d="M518.0 111h0.0"></path><path d="M597.5 111h0.0"></path><rect height="22" rx="10" ry="10" width="79.5" x="518.0" y="100"></rect><text x="557.75" y="115">SETNAME</text></g><path d="M597.5 111h10"></path><path d="M607.5 111h10"></path><g class="non-terminal ">
<path d="M617.5 111h0.0"></path><path d="M722.5 111h0.0"></path><rect height="22" width="105.0" x="617.5" y="100"></rect><text x="670.0" y="115">clientname</text><title>string</title></g></g><path d="M722.5 111a10 10 0 0 0 10 -10v0a10 10 0 0 1 10 -10"></path></g></g><path d="M742.5 91a10 10 0 0 0 10 -10v0a10 10 0 0 1 10 -10"></path></g></g><path d="M772.5 71h10"></path><path d="M782.5 71h0.0"></path></g><path d="M782.5 71h10"></path><path d="M 792.5 71 h 20 m -10 -10 v 20 m 10 -20 v 20"></path></g></svg>