<svg class="railroad-diagram" viewBox="0 0 783.0 142" xmlns="http://www.w3.org/2000/svg" xmlns:xlink="http://www.w3.org/1999/xlink">
<g transform="translate(.5 .5)">
<g>
<path d="M20 21v20m10 -20v20m-10 -10h20"></path></g><path d="M40 31h10"></path><g>
<path d="M50 31h0.0"></path><path d="M50.0 31h10"></path><g>
<path d="M60.0 31h213.5"></path><path d="M509.5 31h213.5"></path><g class="terminal ">
<path d="M273.5 31h0.0"></path><path d="M361.5 31h0.0"></path><rect height="22" rx="10" ry="10" width="88.0" x="273.5" y="20"></rect><text x="317.5" y="35">XPENDING</text></g><path d="M361.5 31h10"></path><path d="M371.5 31h10"></path><g class="non-terminal ">
<path d="M381.5 31h0.0"></path><path d="M427.0 31h0.0"></path><rect height="22" width="45.5" x="381.5" y="20"></rect><text x="404.25" y="35">key</text><title>key</title></g><path d="M427.0 31h10"></path><path d="M437.0 31h10"></path><g class="non-terminal ">
<path d="M447.0 31h0.0"></path><path d="M509.5 31h0.0"></path><rect height="22" width="62.5" x="447.0" y="20"></rect><text x="478.25" y="35">group</text><title>string</title></g></g><path d="M723.0 31a10 10 0 0 1 10 10v0a10 10 0 0 1 -10 10h-663.0a10 10 0 0 0 -10 10v0a10 10 0 0 0 10 10"></path><g>
<path d="M60.0 71h10.0"></path><path d="M713.0 71h10.0"></path><g>
<path d="M70.0 71h0.0"></path><path d="M713.0 71h0.0"></path><path d="M70.0 71h20"></path><g>
<path d="M90.0 71h603.0"></path></g><path d="M693.0 71h20"></path><path d="M70.0 71a10 10 0 0 1 10 10v0a10 10 0 0 0 10 10"></path><g>
<path d="M90.0 91h0.0"></path><path d="M693.0 91h0.0"></path><g>
<path d="M90.0 91h0.0"></path><path d="M334.5 91h0.0"></path><path d="M90.0 91h20"></path><g>
<path d="M110.0 91h204.5"></path></g><path d="M314.5 91h20"></path><path d="M90.0 91a10 10 0 0 1 10 10v0a10 10 0 0 0 10 10"></path><g>
<path d="M110.0 111h0.0"></path><path d="M314.5 111h0.0"></path><g class="terminal ">
<path d="M110.0 111h0.0"></path><path d="M164.0 111h0.0"></path><rect height="22" rx="10" ry="10" width="54.0" x="110.0" y="100"></rect><text x="137.0" y="115">IDLE</text></g><path d="M164.0 111h10"></path><path d="M174.0 111h10"></path><g class="non-terminal ">
<path d="M184.0 111h0.0"></path><path d="M314.5 111h0.0"></path><rect height="22" width="130.5" x="184.0" y="100"></rect><text x="249.25" y="115">min-idle-time</text><title>integer</title></g></g><path d="M314.5 111a10 10 0 0 0 10 -10v0a10 10 0 0 1 10 -10"></path></g><path d="M334.5 91h10"></path><g class="non-terminal ">
<path d="M344.5 91h0.0"></path><path d="M407.0 91h0.0"></path><rect height="22" width="62.5" x="344.5" y="80"></rect><text x="375.75" y="95">start</text><title>string</title></g><path d="M407.0 91h10"></path><path d="M417.0 91h10"></path><g class="non-terminal ">
<path d="M427.0 91h0.0"></path><path d="M472.5 91h0.0"></path><rect height="22" width="45.5" x="427.0" y="80"></rect><text x="449.75" y="95">end</text><title>string</title></g><path d="M472.5 91h10"></path><path d="M482.5 91h10"></path><g class="non-terminal ">
<path d="M492.5 91h0.0"></path><path d="M555.0 91h0.0"></path><rect height="22" width="62.5" x="492.5" y="80"></rect><text x="523.75" y="95">count</text><title>integer</title></g><path d="M555.0 91h10"></path><g>
<path d="M565.0 91h0.0"></path><path d="M693.0 91h0.0"></path><path d="M565.0 91h20"></path><g>
<path d="M585.0 91h88.0"></path></g><path d="M673.0 91h20"></path><path d="M565.0 91a10 10 0 0 1 10 10v0a10 10 0 0 0 10 10"></path><g class="non-terminal ">
<path d="M585.0 111h0.0"></path><path d="M673.0 111h0.0"></path><rect height="22" width="88.0" x="585.0" y="100"></rect><text x="629.0" y="115">consumer</text><title>string</title></g><path d="M673.0 111a10 10 0 0 0 10 -10v0a10 10 0 0 1 10 -10"></path></g></g><path d="M693.0 91a10 10 0 0 0 10 -10v0a10 10 0 0 1 10 -10"></path></g></g><path d="M723.0 71h10"></path><path d="M733.0 71h0.0"></path></g><path d="M733.0 71h10"></path><path d="M 743.0 71 h 20 m -10 -10 v 20 m 10 -20 v 20"></path></g></svg>