<svg class="railroad-diagram" viewBox="0 0 453.0 152" xmlns="http://www.w3.org/2000/svg" xmlns:xlink="http://www.w3.org/1999/xlink">
<g transform="translate(.5 .5)">
<g>
<path d="M20 81v20m10 -20v20m-10 -10h20"></path></g><path d="M40 91h10"></path><g>
<path d="M50 91h0.0"></path><g>
<path d="M50.0 91h10.0"></path><path d="M393.0 91h10.0"></path><g class="terminal ">
<path d="M60.0 91h0.0"></path><path d="M122.5 91h0.0"></path><rect height="22" rx="10" ry="10" width="62.5" x="60.0" y="80"></rect><text x="91.25" y="95">BITOP</text></g><path d="M122.5 91h10"></path><g>
<path d="M132.5 91h0.0"></path><path d="M218.0 91h0.0"></path><path d="M132.5 91a10 10 0 0 0 10 -10v-10a10 10 0 0 1 10 -10"></path><g class="terminal ">
<path d="M152.5 61h4.25"></path><path d="M193.75 61h4.25"></path><rect height="22" rx="10" ry="10" width="37.0" x="156.75" y="50"></rect><text x="175.25" y="65">OR</text></g><path d="M198.0 61a10 10 0 0 1 10 10v10a10 10 0 0 0 10 10"></path><path d="M132.5 91a10 10 0 0 0 10 -10v-40a10 10 0 0 1 10 -10"></path><g class="terminal ">
<path d="M152.5 31h0.0"></path><path d="M198.0 31h0.0"></path><rect height="22" rx="10" ry="10" width="45.5" x="152.5" y="20"></rect><text x="175.25" y="35">AND</text></g><path d="M198.0 31a10 10 0 0 1 10 10v40a10 10 0 0 0 10 10"></path><path d="M132.5 91h20"></path><g class="terminal ">
<path d="M152.5 91h0.0"></path><path d="M198.0 91h0.0"></path><rect height="22" rx="10" ry="10" width="45.5" x="152.5" y="80"></rect><text x="175.25" y="95">XOR</text></g><path d="M198.0 91h20"></path><path d="M132.5 91a10 10 0 0 1 10 10v10a10 10 0 0 0 10 10"></path><g class="terminal ">
<path d="M152.5 121h0.0"></path><path d="M198.0 121h0.0"></path><rect height="22" rx="10" ry="10" width="45.5" x="152.5" y="110"></rect><text x="175.25" y="125">NOT</text></g><path d="M198.0 121a10 10 0 0 0 10 -10v-10a10 10 0 0 1 10 -10"></path></g><path d="M218.0 91h10"></path><g class="non-terminal ">
<path d="M228.0 91h0.0"></path><path d="M307.5 91h0.0"></path><rect height="22" width="79.5" x="228.0" y="80"></rect><text x="267.75" y="95">destkey</text><title>key</title></g><path d="M307.5 91h10"></path><path d="M317.5 91h10"></path><g>
<path d="M327.5 91h0.0"></path><path d="M393.0 91h0.0"></path><path d="M327.5 91h10"></path><g class="non-terminal ">
<path d="M337.5 91h0.0"></path><path d="M383.0 91h0.0"></path><rect height="22" width="45.5" x="337.5" y="80"></rect><text x="360.25" y="95">key</text><title>key</title></g><path d="M383.0 91h10"></path><path d="M337.5 91a10 10 0 0 0 -10 10v0a10 10 0 0 0 10 10"></path><g>
<path d="M337.5 111h45.5"></path></g><path d="M383.0 111a10 10 0 0 0 10 -10v0a10 10 0 0 0 -10 -10"></path></g></g><path d="M403.0 91h0.0"></path></g><path d="M403.0 91h10"></path><path d="M 413.0 91 h 20 m -10 -10 v 20 m 10 -20 v 20"></path></g></svg>