<svg class="railroad-diagram" viewBox="0 0 623.5 171" xmlns="http://www.w3.org/2000/svg" xmlns:xlink="http://www.w3.org/1999/xlink">
<g transform="translate(.5 .5)">
<g>
<path d="M20 21v20m10 -20v20m-10 -10h20"></path></g><path d="M40 31h10"></path><g>
<path d="M50 31h0.0"></path><g>
<path d="M50.0 31h10.0"></path><path d="M563.5 31h10.0"></path><g class="terminal ">
<path d="M60.0 31h0.0"></path><path d="M173.5 31h0.0"></path><rect height="22" rx="10" ry="10" width="113.5" x="60.0" y="20"></rect><text x="116.75" y="35">CLIENT LIST</text></g><path d="M173.5 31h10"></path><g>
<path d="M183.5 31h0.0"></path><path d="M407.0 31h0.0"></path><path d="M183.5 31h20"></path><g>
<path d="M203.5 31h183.5"></path></g><path d="M387.0 31h20"></path><path d="M183.5 31a10 10 0 0 1 10 10v59a10 10 0 0 0 10 10"></path><g>
<path d="M203.5 110h0.0"></path><path d="M387.0 110h0.0"></path><g class="terminal ">
<path d="M203.5 110h0.0"></path><path d="M257.5 110h0.0"></path><rect height="22" rx="10" ry="10" width="54.0" x="203.5" y="99"></rect><text x="230.5" y="114">TYPE</text></g><path d="M257.5 110h10"></path><g>
<path d="M267.5 110h0.0"></path><path d="M387.0 110h0.0"></path><path d="M267.5 110a10 10 0 0 0 10 -10v-10a10 10 0 0 1 10 -10"></path><g class="terminal ">
<path d="M287.5 80h4.25"></path><path d="M362.75 80h4.25"></path><rect height="22" rx="10" ry="10" width="71.0" x="291.75" y="69"></rect><text x="327.25" y="84">MASTER</text></g><path d="M367.0 80a10 10 0 0 1 10 10v10a10 10 0 0 0 10 10"></path><path d="M267.5 110a10 10 0 0 0 10 -10v-40a10 10 0 0 1 10 -10"></path><g class="terminal ">
<path d="M287.5 50h4.25"></path><path d="M362.75 50h4.25"></path><rect height="22" rx="10" ry="10" width="71.0" x="291.75" y="39"></rect><text x="327.25" y="54">NORMAL</text></g><path d="M367.0 50a10 10 0 0 1 10 10v40a10 10 0 0 0 10 10"></path><path d="M267.5 110h20"></path><g class="terminal ">
<path d="M287.5 110h0.0"></path><path d="M367.0 110h0.0"></path><rect height="22" rx="10" ry="10" width="79.5" x="287.5" y="99"></rect><text x="327.25" y="114">REPLICA</text></g><path d="M367.0 110h20"></path><path d="M267.5 110a10 10 0 0 1 10 10v10a10 10 0 0 0 10 10"></path><g class="terminal ">
<path d="M287.5 140h4.25"></path><path d="M362.75 140h4.25"></path><rect height="22" rx="10" ry="10" width="71.0" x="291.75" y="129"></rect><text x="327.25" y="144">PUBSUB</text></g><path d="M367.0 140a10 10 0 0 0 10 -10v-10a10 10 0 0 1 10 -10"></path></g></g><path d="M387.0 110a10 10 0 0 0 10 -10v-59a10 10 0 0 1 10 -10"></path></g><g>
<path d="M407.0 31h0.0"></path><path d="M563.5 31h0.0"></path><path d="M407.0 31h20"></path><g>
<path d="M427.0 31h116.5"></path></g><path d="M543.5 31h20"></path><path d="M407.0 31a10 10 0 0 1 10 10v0a10 10 0 0 0 10 10"></path><g>
<path d="M427.0 51h0.0"></path><path d="M543.5 51h0.0"></path><path d="M427.0 51h10"></path><g class="non-terminal ">
<path d="M437.0 51h0.0"></path><path d="M533.5 51h0.0"></path><rect height="22" width="96.5" x="437.0" y="40"></rect><text x="485.25" y="55">client-id</text><title>integer</title></g><path d="M533.5 51h10"></path><path d="M437.0 51a10 10 0 0 0 -10 10v0a10 10 0 0 0 10 10"></path><g>
<path d="M437.0 71h96.5"></path></g><path d="M533.5 71a10 10 0 0 0 10 -10v0a10 10 0 0 0 -10 -10"></path></g><path d="M543.5 51a10 10 0 0 0 10 -10v0a10 10 0 0 1 10 -10"></path></g></g><path d="M573.5 31h0.0"></path></g><path d="M573.5 31h10"></path><path d="M 583.5 31 h 20 m -10 -10 v 20 m 10 -20 v 20"></path></g></svg>