<svg class="railroad-diagram" viewBox="0 0 681.5 258" xmlns="http://www.w3.org/2000/svg" xmlns:xlink="http://www.w3.org/1999/xlink">
<g transform="translate(.5 .5)">
<g>
<path d="M20 21v20m10 -20v20m-10 -10h20"></path></g><path d="M40 31h10"></path><g>
<path d="M50 31h0.0"></path><path d="M50.0 31h10"></path><g>
<path d="M60.0 31h10.0"></path><path d="M611.5 31h10.0"></path><g class="terminal ">
<path d="M70.0 31h0.0"></path><path d="M200.5 31h0.0"></path><rect height="22" rx="10" ry="10" width="130.5" x="70.0" y="20"></rect><text x="135.25" y="35">FT.SPELLCHECK</text></g><path d="M200.5 31h10"></path><path d="M210.5 31h10"></path><g class="non-terminal ">
<path d="M220.5 31h0.0"></path><path d="M283.0 31h0.0"></path><rect height="22" width="62.5" x="220.5" y="20"></rect><text x="251.75" y="35">index</text><title>string</title></g><path d="M283.0 31h10"></path><path d="M293.0 31h10"></path><g class="non-terminal ">
<path d="M303.0 31h0.0"></path><path d="M365.5 31h0.0"></path><rect height="22" width="62.5" x="303.0" y="20"></rect><text x="334.25" y="35">query</text><title>string</title></g><path d="M365.5 31h10"></path><g>
<path d="M375.5 31h0.0"></path><path d="M611.5 31h0.0"></path><path d="M375.5 31h20"></path><g>
<path d="M395.5 31h196.0"></path></g><path d="M591.5 31h20"></path><path d="M375.5 31a10 10 0 0 1 10 10v0a10 10 0 0 0 10 10"></path><g>
<path d="M395.5 51h0.0"></path><path d="M591.5 51h0.0"></path><g class="terminal ">
<path d="M395.5 51h0.0"></path><path d="M483.5 51h0.0"></path><rect height="22" rx="10" ry="10" width="88.0" x="395.5" y="40"></rect><text x="439.5" y="55">DISTANCE</text></g><path d="M483.5 51h10"></path><path d="M493.5 51h10"></path><g class="non-terminal ">
<path d="M503.5 51h0.0"></path><path d="M591.5 51h0.0"></path><rect height="22" width="88.0" x="503.5" y="40"></rect><text x="547.5" y="55">distance</text><title>integer</title></g></g><path d="M591.5 51a10 10 0 0 0 10 -10v0a10 10 0 0 1 10 -10"></path></g></g><path d="M621.5 31a10 10 0 0 1 10 10v19a10 10 0 0 1 -10 10h-561.5a10 10 0 0 0 -10 10v0a10 10 0 0 0 10 10"></path><g>
<path d="M60.0 90h36.0"></path><path d="M585.5 90h36.0"></path><g>
<path d="M96.0 90h0.0"></path><path d="M585.5 90h0.0"></path><path d="M96.0 90h20"></path><g>
<path d="M116.0 90h449.5"></path></g><path d="M565.5 90h20"></path><path d="M96.0 90a10 10 0 0 1 10 10v29a10 10 0 0 0 10 10"></path><g>
<path d="M116.0 139h0.0"></path><path d="M565.5 139h0.0"></path><g class="terminal ">
<path d="M116.0 139h0.0"></path><path d="M178.5 139h0.0"></path><rect height="22" rx="10" ry="10" width="62.5" x="116.0" y="128"></rect><text x="147.25" y="143">TERMS</text></g><path d="M178.5 139h10"></path><path d="M188.5 139h10"></path><g>
<path d="M198.5 139h0.0"></path><path d="M565.5 139h0.0"></path><g>
<path d="M198.5 139h0.0"></path><path d="M318.0 139h0.0"></path><path d="M198.5 139a10 10 0 0 0 10 -10v-10a10 10 0 0 1 10 -10"></path><g class="terminal ">
<path d="M218.5 109h0.0"></path><path d="M298.0 109h0.0"></path><rect height="22" rx="10" ry="10" width="79.5" x="218.5" y="98"></rect><text x="258.25" y="113">INCLUDE</text></g><path d="M298.0 109a10 10 0 0 1 10 10v10a10 10 0 0 0 10 10"></path><path d="M198.5 139h20"></path><g class="terminal ">
<path d="M218.5 139h0.0"></path><path d="M298.0 139h0.0"></path><rect height="22" rx="10" ry="10" width="79.5" x="218.5" y="128"></rect><text x="258.25" y="143">EXCLUDE</text></g><path d="M298.0 139h20"></path></g><path d="M318.0 139h10"></path><g class="non-terminal ">
<path d="M328.0 139h0.0"></path><path d="M433.0 139h0.0"></path><rect height="22" width="105.0" x="328.0" y="128"></rect><text x="380.5" y="143">dictionary</text><title>string</title></g><path d="M433.0 139h10"></path><g>
<path d="M443.0 139h0.0"></path><path d="M565.5 139h0.0"></path><path d="M443.0 139h20"></path><g>
<path d="M463.0 139h82.5"></path></g><path d="M545.5 139h20"></path><path d="M443.0 139a10 10 0 0 1 10 10v0a10 10 0 0 0 10 10"></path><g>
<path d="M463.0 159h0.0"></path><path d="M545.5 159h0.0"></path><path d="M463.0 159h10"></path><g class="non-terminal ">
<path d="M473.0 159h0.0"></path><path d="M535.5 159h0.0"></path><rect height="22" width="62.5" x="473.0" y="148"></rect><text x="504.25" y="163">terms</text><title>string</title></g><path d="M535.5 159h10"></path><path d="M473.0 159a10 10 0 0 0 -10 10v0a10 10 0 0 0 10 10"></path><g>
<path d="M473.0 179h62.5"></path></g><path d="M535.5 179a10 10 0 0 0 10 -10v0a10 10 0 0 0 -10 -10"></path></g><path d="M545.5 159a10 10 0 0 0 10 -10v0a10 10 0 0 1 10 -10"></path></g></g></g><path d="M565.5 139a10 10 0 0 0 10 -10v-29a10 10 0 0 1 10 -10"></path></g></g><path d="M621.5 90a10 10 0 0 1 10 10v77a10 10 0 0 1 -10 10h-561.5a10 10 0 0 0 -10 10v0a10 10 0 0 0 10 10"></path><g>
<path d="M60.0 207h171.25"></path><path d="M450.25 207h171.25"></path><g>
<path d="M231.25 207h0.0"></path><path d="M450.25 207h0.0"></path><path d="M231.25 207h20"></path><g>
<path d="M251.25 207h179.0"></path></g><path d="M430.25 207h20"></path><path d="M231.25 207a10 10 0 0 1 10 10v0a10 10 0 0 0 10 10"></path><g>
<path d="M251.25 227h0.0"></path><path d="M430.25 227h0.0"></path><g class="terminal ">
<path d="M251.25 227h0.0"></path><path d="M330.75 227h0.0"></path><rect height="22" rx="10" ry="10" width="79.5" x="251.25" y="216"></rect><text x="291.0" y="231">DIALECT</text></g><path d="M330.75 227h10"></path><path d="M340.75 227h10"></path><g class="non-terminal ">
<path d="M350.75 227h0.0"></path><path d="M430.25 227h0.0"></path><rect height="22" width="79.5" x="350.75" y="216"></rect><text x="390.5" y="231">dialect</text><title>integer</title></g></g><path d="M430.25 227a10 10 0 0 0 10 -10v0a10 10 0 0 1 10 -10"></path></g></g><path d="M621.5 207h10"></path><path d="M631.5 207h0.0"></path></g><path d="M631.5 207h10"></path><path d="M 641.5 207 h 20 m -10 -10 v 20 m 10 -20 v 20"></path></g></svg>