<svg class="railroad-diagram" viewBox="0 0 352.0 111" xmlns="http://www.w3.org/2000/svg" xmlns:xlink="http://www.w3.org/1999/xlink">
<g transform="translate(.5 .5)">
<g>
<path d="M20 21v20m10 -20v20m-10 -10h20"></path></g><path d="M40 31h10"></path><g>
<path d="M50 31h0.0"></path><g>
<path d="M50.0 31h10.0"></path><path d="M292.0 31h10.0"></path><g class="terminal ">
<path d="M60.0 31h0.0"></path><path d="M139.5 31h0.0"></path><rect height="22" rx="10" ry="10" width="79.5" x="60.0" y="20"></rect><text x="99.75" y="35">ACL LOG</text></g><path d="M139.5 31h10"></path><g>
<path d="M149.5 31h0.0"></path><path d="M292.0 31h0.0"></path><path d="M149.5 31h20"></path><g>
<path d="M169.5 31h102.5"></path></g><path d="M272.0 31h20"></path><path d="M149.5 31a10 10 0 0 1 10 10v29a10 10 0 0 0 10 10"></path><g>
<path d="M169.5 80h0.0"></path><path d="M272.0 80h0.0"></path><path d="M169.5 80a10 10 0 0 0 10 -10v-10a10 10 0 0 1 10 -10"></path><g class="non-terminal ">
<path d="M189.5 50h0.0"></path><path d="M252.0 50h0.0"></path><rect height="22" width="62.5" x="189.5" y="39"></rect><text x="220.75" y="54">count</text><title>integer</title></g><path d="M252.0 50a10 10 0 0 1 10 10v10a10 10 0 0 0 10 10"></path><path d="M169.5 80h20"></path><g class="terminal ">
<path d="M189.5 80h0.0"></path><path d="M252.0 80h0.0"></path><rect height="22" rx="10" ry="10" width="62.5" x="189.5" y="69"></rect><text x="220.75" y="84">RESET</text></g><path d="M252.0 80h20"></path></g><path d="M272.0 80a10 10 0 0 0 10 -10v-29a10 10 0 0 1 10 -10"></path></g></g><path d="M302.0 31h0.0"></path></g><path d="M302.0 31h10"></path><path d="M 312.0 31 h 20 m -10 -10 v 20 m 10 -20 v 20"></path></g></svg>