<svg class="railroad-diagram" viewBox="0 0 497.0 152" xmlns="http://www.w3.org/2000/svg" xmlns:xlink="http://www.w3.org/1999/xlink">
<g transform="translate(.5 .5)">
<g>
<path d="M20 51v20m10 -20v20m-10 -10h20"></path></g><path d="M40 61h10"></path><g>
<path d="M50 61h0.0"></path><path d="M50.0 61h10"></path><g>
<path d="M60.0 61h10.0"></path><path d="M427.0 61h10.0"></path><g class="terminal ">
<path d="M70.0 61h0.0"></path><path d="M192.0 61h0.0"></path><rect height="22" rx="10" ry="10" width="122.0" x="70.0" y="50"></rect><text x="131.0" y="65">XGROUP SETID</text></g><path d="M192.0 61h10"></path><path d="M202.0 61h10"></path><g class="non-terminal ">
<path d="M212.0 61h0.0"></path><path d="M257.5 61h0.0"></path><rect height="22" width="45.5" x="212.0" y="50"></rect><text x="234.75" y="65">key</text><title>key</title></g><path d="M257.5 61h10"></path><path d="M267.5 61h10"></path><g class="non-terminal ">
<path d="M277.5 61h0.0"></path><path d="M340.0 61h0.0"></path><rect height="22" width="62.5" x="277.5" y="50"></rect><text x="308.75" y="65">group</text><title>string</title></g><path d="M340.0 61h10"></path><g>
<path d="M350.0 61h0.0"></path><path d="M427.0 61h0.0"></path><path d="M350.0 61a10 10 0 0 0 10 -10v-10a10 10 0 0 1 10 -10"></path><g class="non-terminal ">
<path d="M370.0 31h0.0"></path><path d="M407.0 31h0.0"></path><rect height="22" width="37.0" x="370.0" y="20"></rect><text x="388.5" y="35">id</text><title>string</title></g><path d="M407.0 31a10 10 0 0 1 10 10v10a10 10 0 0 0 10 10"></path><path d="M350.0 61h20"></path><g class="terminal ">
<path d="M370.0 61h4.25"></path><path d="M402.75 61h4.25"></path><rect height="22" rx="10" ry="10" width="28.5" x="374.25" y="50"></rect><text x="388.5" y="65">$</text></g><path d="M407.0 61h20"></path></g></g><path d="M437.0 61a10 10 0 0 1 10 10v0a10 10 0 0 1 -10 10h-377.0a10 10 0 0 0 -10 10v0a10 10 0 0 0 10 10"></path><g>
<path d="M60.0 101h40.75"></path><path d="M396.25 101h40.75"></path><g>
<path d="M100.75 101h0.0"></path><path d="M396.25 101h0.0"></path><path d="M100.75 101h20"></path><g>
<path d="M120.75 101h255.5"></path></g><path d="M376.25 101h20"></path><path d="M100.75 101a10 10 0 0 1 10 10v0a10 10 0 0 0 10 10"></path><g>
<path d="M120.75 121h0.0"></path><path d="M376.25 121h0.0"></path><g class="terminal ">
<path d="M120.75 121h0.0"></path><path d="M234.25 121h0.0"></path><rect height="22" rx="10" ry="10" width="113.5" x="120.75" y="110"></rect><text x="177.5" y="125">ENTRIESREAD</text></g><path d="M234.25 121h10"></path><path d="M244.25 121h10"></path><g class="non-terminal ">
<path d="M254.25 121h0.0"></path><path d="M376.25 121h0.0"></path><rect height="22" width="122.0" x="254.25" y="110"></rect><text x="315.25" y="125">entries-read</text><title>integer</title></g></g><path d="M376.25 121a10 10 0 0 0 10 -10v0a10 10 0 0 1 10 -10"></path></g></g><path d="M437.0 101h10"></path><path d="M447.0 101h0.0"></path></g><path d="M447.0 101h10"></path><path d="M 457.0 101 h 20 m -10 -10 v 20 m 10 -20 v 20"></path></g></svg>