<svg class="railroad-diagram" viewBox="0 0 714.0 141" xmlns="http://www.w3.org/2000/svg" xmlns:xlink="http://www.w3.org/1999/xlink">
<g transform="translate(.5 .5)">
<g>
<path d="M20 21v20m10 -20v20m-10 -10h20"></path></g><path d="M40 31h10"></path><g>
<path d="M50 31h0.0"></path><path d="M50.0 31h10"></path><g>
<path d="M60.0 31h17.75"></path><path d="M636.25 31h17.75"></path><g class="terminal ">
<path d="M77.75 31h0.0"></path><path d="M182.75 31h0.0"></path><rect height="22" rx="10" ry="10" width="105.0" x="77.75" y="20"></rect><text x="130.25" y="35">CF.RESERVE</text></g><path d="M182.75 31h10"></path><path d="M192.75 31h10"></path><g class="non-terminal ">
<path d="M202.75 31h0.0"></path><path d="M248.25 31h0.0"></path><rect height="22" width="45.5" x="202.75" y="20"></rect><text x="225.5" y="35">key</text><title>key</title></g><path d="M248.25 31h10"></path><path d="M258.25 31h10"></path><g class="non-terminal ">
<path d="M268.25 31h0.0"></path><path d="M356.25 31h0.0"></path><rect height="22" width="88.0" x="268.25" y="20"></rect><text x="312.25" y="35">capacity</text><title>integer</title></g><path d="M356.25 31h10"></path><g>
<path d="M366.25 31h0.0"></path><path d="M636.25 31h0.0"></path><path d="M366.25 31h20"></path><g>
<path d="M386.25 31h230.0"></path></g><path d="M616.25 31h20"></path><path d="M366.25 31a10 10 0 0 1 10 10v0a10 10 0 0 0 10 10"></path><g>
<path d="M386.25 51h0.0"></path><path d="M616.25 51h0.0"></path><g class="terminal ">
<path d="M386.25 51h0.0"></path><path d="M491.25 51h0.0"></path><rect height="22" rx="10" ry="10" width="105.0" x="386.25" y="40"></rect><text x="438.75" y="55">BUCKETSIZE</text></g><path d="M491.25 51h10"></path><path d="M501.25 51h10"></path><g class="non-terminal ">
<path d="M511.25 51h0.0"></path><path d="M616.25 51h0.0"></path><rect height="22" width="105.0" x="511.25" y="40"></rect><text x="563.75" y="55">bucketsize</text><title>integer</title></g></g><path d="M616.25 51a10 10 0 0 0 10 -10v0a10 10 0 0 1 10 -10"></path></g></g><path d="M654.0 31a10 10 0 0 1 10 10v19a10 10 0 0 1 -10 10h-594.0a10 10 0 0 0 -10 10v0a10 10 0 0 0 10 10"></path><g>
<path d="M60.0 90h10.0"></path><path d="M644.0 90h10.0"></path><g>
<path d="M70.0 90h0.0"></path><path d="M391.0 90h0.0"></path><path d="M70.0 90h20"></path><g>
<path d="M90.0 90h281.0"></path></g><path d="M371.0 90h20"></path><path d="M70.0 90a10 10 0 0 1 10 10v0a10 10 0 0 0 10 10"></path><g>
<path d="M90.0 110h0.0"></path><path d="M371.0 110h0.0"></path><g class="terminal ">
<path d="M90.0 110h0.0"></path><path d="M220.5 110h0.0"></path><rect height="22" rx="10" ry="10" width="130.5" x="90.0" y="99"></rect><text x="155.25" y="114">MAXITERATIONS</text></g><path d="M220.5 110h10"></path><path d="M230.5 110h10"></path><g class="non-terminal ">
<path d="M240.5 110h0.0"></path><path d="M371.0 110h0.0"></path><rect height="22" width="130.5" x="240.5" y="99"></rect><text x="305.75" y="114">maxiterations</text><title>integer</title></g></g><path d="M371.0 110a10 10 0 0 0 10 -10v0a10 10 0 0 1 10 -10"></path></g><g>
<path d="M391.0 90h0.0"></path><path d="M644.0 90h0.0"></path><path d="M391.0 90h20"></path><g>
<path d="M411.0 90h213.0"></path></g><path d="M624.0 90h20"></path><path d="M391.0 90a10 10 0 0 1 10 10v0a10 10 0 0 0 10 10"></path><g>
<path d="M411.0 110h0.0"></path><path d="M624.0 110h0.0"></path><g class="terminal ">
<path d="M411.0 110h0.0"></path><path d="M507.5 110h0.0"></path><rect height="22" rx="10" ry="10" width="96.5" x="411.0" y="99"></rect><text x="459.25" y="114">EXPANSION</text></g><path d="M507.5 110h10"></path><path d="M517.5 110h10"></path><g class="non-terminal ">
<path d="M527.5 110h0.0"></path><path d="M624.0 110h0.0"></path><rect height="22" width="96.5" x="527.5" y="99"></rect><text x="575.75" y="114">expansion</text><title>integer</title></g></g><path d="M624.0 110a10 10 0 0 0 10 -10v0a10 10 0 0 1 10 -10"></path></g></g><path d="M654.0 90h10"></path><path d="M664.0 90h0.0"></path></g><path d="M664.0 90h10"></path><path d="M 674.0 90 h 20 m -10 -10 v 20 m 10 -20 v 20"></path></g></svg>