<svg class="railroad-diagram" viewBox="0 0 734.0 122" xmlns="http://www.w3.org/2000/svg" xmlns:xlink="http://www.w3.org/1999/xlink">
<g transform="translate(.5 .5)">
<g>
<path d="M20 21v20m10 -20v20m-10 -10h20"></path></g><path d="M40 31h10"></path><g>
<path d="M50 31h0.0"></path><path d="M50.0 31h10"></path><g>
<path d="M60.0 31h10.0"></path><path d="M664.0 31h10.0"></path><g class="terminal ">
<path d="M70.0 31h0.0"></path><path d="M175.0 31h0.0"></path><rect height="22" rx="10" ry="10" width="105.0" x="70.0" y="20"></rect><text x="122.5" y="35">XAUTOCLAIM</text></g><path d="M175.0 31h10"></path><path d="M185.0 31h10"></path><g class="non-terminal ">
<path d="M195.0 31h0.0"></path><path d="M240.5 31h0.0"></path><rect height="22" width="45.5" x="195.0" y="20"></rect><text x="217.75" y="35">key</text><title>key</title></g><path d="M240.5 31h10"></path><path d="M250.5 31h10"></path><g class="non-terminal ">
<path d="M260.5 31h0.0"></path><path d="M323.0 31h0.0"></path><rect height="22" width="62.5" x="260.5" y="20"></rect><text x="291.75" y="35">group</text><title>string</title></g><path d="M323.0 31h10"></path><path d="M333.0 31h10"></path><g class="non-terminal ">
<path d="M343.0 31h0.0"></path><path d="M431.0 31h0.0"></path><rect height="22" width="88.0" x="343.0" y="20"></rect><text x="387.0" y="35">consumer</text><title>string</title></g><path d="M431.0 31h10"></path><path d="M441.0 31h10"></path><g class="non-terminal ">
<path d="M451.0 31h0.0"></path><path d="M581.5 31h0.0"></path><rect height="22" width="130.5" x="451.0" y="20"></rect><text x="516.25" y="35">min-idle-time</text><title>string</title></g><path d="M581.5 31h10"></path><path d="M591.5 31h10"></path><g class="non-terminal ">
<path d="M601.5 31h0.0"></path><path d="M664.0 31h0.0"></path><rect height="22" width="62.5" x="601.5" y="20"></rect><text x="632.75" y="35">start</text><title>string</title></g></g><path d="M674.0 31a10 10 0 0 1 10 10v0a10 10 0 0 1 -10 10h-614.0a10 10 0 0 0 -10 10v0a10 10 0 0 0 10 10"></path><g>
<path d="M60.0 71h159.0"></path><path d="M515.0 71h159.0"></path><g>
<path d="M219.0 71h0.0"></path><path d="M404.0 71h0.0"></path><path d="M219.0 71h20"></path><g>
<path d="M239.0 71h145.0"></path></g><path d="M384.0 71h20"></path><path d="M219.0 71a10 10 0 0 1 10 10v0a10 10 0 0 0 10 10"></path><g>
<path d="M239.0 91h0.0"></path><path d="M384.0 91h0.0"></path><g class="terminal ">
<path d="M239.0 91h0.0"></path><path d="M301.5 91h0.0"></path><rect height="22" rx="10" ry="10" width="62.5" x="239.0" y="80"></rect><text x="270.25" y="95">COUNT</text></g><path d="M301.5 91h10"></path><path d="M311.5 91h10"></path><g class="non-terminal ">
<path d="M321.5 91h0.0"></path><path d="M384.0 91h0.0"></path><rect height="22" width="62.5" x="321.5" y="80"></rect><text x="352.75" y="95">count</text><title>integer</title></g></g><path d="M384.0 91a10 10 0 0 0 10 -10v0a10 10 0 0 1 10 -10"></path></g><g>
<path d="M404.0 71h0.0"></path><path d="M515.0 71h0.0"></path><path d="M404.0 71h20"></path><g>
<path d="M424.0 71h71.0"></path></g><path d="M495.0 71h20"></path><path d="M404.0 71a10 10 0 0 1 10 10v0a10 10 0 0 0 10 10"></path><g class="terminal ">
<path d="M424.0 91h0.0"></path><path d="M495.0 91h0.0"></path><rect height="22" rx="10" ry="10" width="71.0" x="424.0" y="80"></rect><text x="459.5" y="95">JUSTID</text></g><path d="M495.0 91a10 10 0 0 0 10 -10v0a10 10 0 0 1 10 -10"></path></g></g><path d="M674.0 71h10"></path><path d="M684.0 71h0.0"></path></g><path d="M684.0 71h10"></path><path d="M 694.0 71 h 20 m -10 -10 v 20 m 10 -20 v 20"></path></g></svg>