<svg class="railroad-diagram" viewBox="0 0 251.0 71" xmlns="http://www.w3.org/2000/svg" xmlns:xlink="http://www.w3.org/1999/xlink">
<g transform="translate(.5 .5)">
<g>
<path d="M20 21v20m10 -20v20m-10 -10h20"></path></g><path d="M40 31h10"></path><g>
<path d="M50 31h0.0"></path><g>
<path d="M50.0 31h10.0"></path><path d="M191.0 31h10.0"></path><g class="terminal ">
<path d="M60.0 31h0.0"></path><path d="M105.5 31h0.0"></path><rect height="22" rx="10" ry="10" width="45.5" x="60.0" y="20"></rect><text x="82.75" y="35">DEL</text></g><path d="M105.5 31h10"></path><path d="M115.5 31h10"></path><g>
<path d="M125.5 31h0.0"></path><path d="M191.0 31h0.0"></path><path d="M125.5 31h10"></path><g class="non-terminal ">
<path d="M135.5 31h0.0"></path><path d="M181.0 31h0.0"></path><rect height="22" width="45.5" x="135.5" y="20"></rect><text x="158.25" y="35">key</text><title>key</title></g><path d="M181.0 31h10"></path><path d="M135.5 31a10 10 0 0 0 -10 10v0a10 10 0 0 0 10 10"></path><g>
<path d="M135.5 51h45.5"></path></g><path d="M181.0 51a10 10 0 0 0 10 -10v0a10 10 0 0 0 -10 -10"></path></g></g><path d="M201.0 31h0.0"></path></g><path d="M201.0 31h10"></path><path d="M 211.0 31 h 20 m -10 -10 v 20 m 10 -20 v 20"></path></g></svg>