<svg class="railroad-diagram" viewBox="0 0 346.0 122" xmlns="http://www.w3.org/2000/svg" xmlns:xlink="http://www.w3.org/1999/xlink">
<g transform="translate(.5 .5)">
<g>
<path d="M20 81v20m10 -20v20m-10 -10h20"></path></g><path d="M40 91h10"></path><g>
<path d="M50 91h0.0"></path><g>
<path d="M50.0 91h10.0"></path><path d="M286.0 91h10.0"></path><g class="terminal ">
<path d="M60.0 91h0.0"></path><path d="M182.0 91h0.0"></path><rect height="22" rx="10" ry="10" width="122.0" x="60.0" y="80"></rect><text x="121.0" y="95">SCRIPT DEBUG</text></g><path d="M182.0 91h10"></path><g>
<path d="M192.0 91h0.0"></path><path d="M286.0 91h0.0"></path><path d="M192.0 91a10 10 0 0 0 10 -10v-10a10 10 0 0 1 10 -10"></path><g class="terminal ">
<path d="M212.0 61h0.0"></path><path d="M266.0 61h0.0"></path><rect height="22" rx="10" ry="10" width="54.0" x="212.0" y="50"></rect><text x="239.0" y="65">SYNC</text></g><path d="M266.0 61a10 10 0 0 1 10 10v10a10 10 0 0 0 10 10"></path><path d="M192.0 91a10 10 0 0 0 10 -10v-40a10 10 0 0 1 10 -10"></path><g class="terminal ">
<path d="M212.0 31h4.25"></path><path d="M261.75 31h4.25"></path><rect height="22" rx="10" ry="10" width="45.5" x="216.25" y="20"></rect><text x="239.0" y="35">YES</text></g><path d="M266.0 31a10 10 0 0 1 10 10v40a10 10 0 0 0 10 10"></path><path d="M192.0 91h20"></path><g class="terminal ">
<path d="M212.0 91h8.5"></path><path d="M257.5 91h8.5"></path><rect height="22" rx="10" ry="10" width="37.0" x="220.5" y="80"></rect><text x="239.0" y="95">NO</text></g><path d="M266.0 91h20"></path></g></g><path d="M296.0 91h0.0"></path></g><path d="M296.0 91h10"></path><path d="M 306.0 91 h 20 m -10 -10 v 20 m 10 -20 v 20"></path></g></svg>