<svg class="railroad-diagram" viewBox="0 0 400.0 91" xmlns="http://www.w3.org/2000/svg" xmlns:xlink="http://www.w3.org/1999/xlink">
<g transform="translate(.5 .5)">
<g>
<path d="M20 21v20m10 -20v20m-10 -10h20"></path></g><path d="M40 31h10"></path><g>
<path d="M50 31h0.0"></path><g>
<path d="M50.0 31h10.0"></path><path d="M340.0 31h10.0"></path><g class="terminal ">
<path d="M60.0 31h0.0"></path><path d="M190.5 31h0.0"></path><rect height="22" rx="10" ry="10" width="130.5" x="60.0" y="20"></rect><text x="125.25" y="35">PUBSUB NUMSUB</text></g><path d="M190.5 31h10"></path><g>
<path d="M200.5 31h0.0"></path><path d="M340.0 31h0.0"></path><path d="M200.5 31h20"></path><g>
<path d="M220.5 31h99.5"></path></g><path d="M320.0 31h20"></path><path d="M200.5 31a10 10 0 0 1 10 10v0a10 10 0 0 0 10 10"></path><g>
<path d="M220.5 51h0.0"></path><path d="M320.0 51h0.0"></path><path d="M220.5 51h10"></path><g class="non-terminal ">
<path d="M230.5 51h0.0"></path><path d="M310.0 51h0.0"></path><rect height="22" width="79.5" x="230.5" y="40"></rect><text x="270.25" y="55">channel</text><title>string</title></g><path d="M310.0 51h10"></path><path d="M230.5 51a10 10 0 0 0 -10 10v0a10 10 0 0 0 10 10"></path><g>
<path d="M230.5 71h79.5"></path></g><path d="M310.0 71a10 10 0 0 0 10 -10v0a10 10 0 0 0 -10 -10"></path></g><path d="M320.0 51a10 10 0 0 0 10 -10v0a10 10 0 0 1 10 -10"></path></g></g><path d="M350.0 31h0.0"></path></g><path d="M350.0 31h10"></path><path d="M 360.0 31 h 20 m -10 -10 v 20 m 10 -20 v 20"></path></g></svg>