<svg class="railroad-diagram" viewBox="0 0 469.5 71" xmlns="http://www.w3.org/2000/svg" xmlns:xlink="http://www.w3.org/1999/xlink">
<g transform="translate(.5 .5)">
<g>
<path d="M20 21v20m10 -20v20m-10 -10h20"></path></g><path d="M40 31h10"></path><g>
<path d="M50 31h0.0"></path><g>
<path d="M50.0 31h10.0"></path><path d="M409.5 31h10.0"></path><g class="terminal ">
<path d="M60.0 31h0.0"></path><path d="M216.0 31h0.0"></path><rect height="22" rx="10" ry="10" width="156.0" x="60.0" y="20"></rect><text x="138.0" y="35">TDIGEST.QUANTILE</text></g><path d="M216.0 31h10"></path><path d="M226.0 31h10"></path><g class="non-terminal ">
<path d="M236.0 31h0.0"></path><path d="M281.5 31h0.0"></path><rect height="22" width="45.5" x="236.0" y="20"></rect><text x="258.75" y="35">key</text><title>key</title></g><path d="M281.5 31h10"></path><path d="M291.5 31h10"></path><g>
<path d="M301.5 31h0.0"></path><path d="M409.5 31h0.0"></path><path d="M301.5 31h10"></path><g class="non-terminal ">
<path d="M311.5 31h0.0"></path><path d="M399.5 31h0.0"></path><rect height="22" width="88.0" x="311.5" y="20"></rect><text x="355.5" y="35">quantile</text><title>double</title></g><path d="M399.5 31h10"></path><path d="M311.5 31a10 10 0 0 0 -10 10v0a10 10 0 0 0 10 10"></path><g>
<path d="M311.5 51h88.0"></path></g><path d="M399.5 51a10 10 0 0 0 10 -10v0a10 10 0 0 0 -10 -10"></path></g></g><path d="M419.5 31h0.0"></path></g><path d="M419.5 31h10"></path><path d="M 429.5 31 h 20 m -10 -10 v 20 m 10 -20 v 20"></path></g></svg>