<svg class="railroad-diagram" viewBox="0 0 410.0 82" xmlns="http://www.w3.org/2000/svg" xmlns:xlink="http://www.w3.org/1999/xlink">
<g transform="translate(.5 .5)">
<g>
<path d="M20 21v20m10 -20v20m-10 -10h20"></path></g><path d="M40 31h10"></path><g>
<path d="M50 31h0.0"></path><g>
<path d="M50.0 31h10.0"></path><path d="M350.0 31h10.0"></path><g class="terminal ">
<path d="M60.0 31h0.0"></path><path d="M114.0 31h0.0"></path><rect height="22" rx="10" ry="10" width="54.0" x="60.0" y="20"></rect><text x="87.0" y="35">AUTH</text></g><path d="M114.0 31h10"></path><g>
<path d="M124.0 31h0.0"></path><path d="M252.0 31h0.0"></path><path d="M124.0 31h20"></path><g>
<path d="M144.0 31h88.0"></path></g><path d="M232.0 31h20"></path><path d="M124.0 31a10 10 0 0 1 10 10v0a10 10 0 0 0 10 10"></path><g class="non-terminal ">
<path d="M144.0 51h0.0"></path><path d="M232.0 51h0.0"></path><rect height="22" width="88.0" x="144.0" y="40"></rect><text x="188.0" y="55">username</text><title>string</title></g><path d="M232.0 51a10 10 0 0 0 10 -10v0a10 10 0 0 1 10 -10"></path></g><path d="M252.0 31h10"></path><g class="non-terminal ">
<path d="M262.0 31h0.0"></path><path d="M350.0 31h0.0"></path><rect height="22" width="88.0" x="262.0" y="20"></rect><text x="306.0" y="35">password</text><title>string</title></g></g><path d="M360.0 31h0.0"></path></g><path d="M360.0 31h10"></path><path d="M 370.0 31 h 20 m -10 -10 v 20 m 10 -20 v 20"></path></g></svg>