<svg class="railroad-diagram" viewBox="0 0 636.0 171" xmlns="http://www.w3.org/2000/svg" xmlns:xlink="http://www.w3.org/1999/xlink">
<g transform="translate(.5 .5)">
<g>
<path d="M20 21v20m10 -20v20m-10 -10h20"></path></g><path d="M40 31h10"></path><g>
<path d="M50 31h0.0"></path><g>
<path d="M50.0 31h10.0"></path><path d="M576.0 31h10.0"></path><g class="terminal ">
<path d="M60.0 31h0.0"></path><path d="M156.5 31h0.0"></path><rect height="22" rx="10" ry="10" width="96.5" x="60.0" y="20"></rect><text x="108.25" y="35">PEXPIREAT</text></g><path d="M156.5 31h10"></path><path d="M166.5 31h10"></path><g class="non-terminal ">
<path d="M176.5 31h0.0"></path><path d="M222.0 31h0.0"></path><rect height="22" width="45.5" x="176.5" y="20"></rect><text x="199.25" y="35">key</text><title>key</title></g><path d="M222.0 31h10"></path><path d="M232.0 31h10"></path><g class="non-terminal ">
<path d="M242.0 31h0.0"></path><path d="M449.0 31h0.0"></path><rect height="22" width="207.0" x="242.0" y="20"></rect><text x="345.5" y="35">unix-time-milliseconds</text><title>unix-time</title></g><path d="M449.0 31h10"></path><g>
<path d="M459.0 31h0.0"></path><path d="M576.0 31h0.0"></path><path d="M459.0 31h20"></path><g>
<path d="M479.0 31h77.0"></path></g><path d="M556.0 31h20"></path><path d="M459.0 31a10 10 0 0 1 10 10v59a10 10 0 0 0 10 10"></path><g>
<path d="M479.0 110h0.0"></path><path d="M556.0 110h0.0"></path><path d="M479.0 110a10 10 0 0 0 10 -10v-10a10 10 0 0 1 10 -10"></path><g class="terminal ">
<path d="M499.0 80h0.0"></path><path d="M536.0 80h0.0"></path><rect height="22" rx="10" ry="10" width="37.0" x="499.0" y="69"></rect><text x="517.5" y="84">XX</text></g><path d="M536.0 80a10 10 0 0 1 10 10v10a10 10 0 0 0 10 10"></path><path d="M479.0 110a10 10 0 0 0 10 -10v-40a10 10 0 0 1 10 -10"></path><g class="terminal ">
<path d="M499.0 50h0.0"></path><path d="M536.0 50h0.0"></path><rect height="22" rx="10" ry="10" width="37.0" x="499.0" y="39"></rect><text x="517.5" y="54">NX</text></g><path d="M536.0 50a10 10 0 0 1 10 10v40a10 10 0 0 0 10 10"></path><path d="M479.0 110h20"></path><g class="terminal ">
<path d="M499.0 110h0.0"></path><path d="M536.0 110h0.0"></path><rect height="22" rx="10" ry="10" width="37.0" x="499.0" y="99"></rect><text x="517.5" y="114">GT</text></g><path d="M536.0 110h20"></path><path d="M479.0 110a10 10 0 0 1 10 10v10a10 10 0 0 0 10 10"></path><g class="terminal ">
<path d="M499.0 140h0.0"></path><path d="M536.0 140h0.0"></path><rect height="22" rx="10" ry="10" width="37.0" x="499.0" y="129"></rect><text x="517.5" y="144">LT</text></g><path d="M536.0 140a10 10 0 0 0 10 -10v-10a10 10 0 0 1 10 -10"></path></g><path d="M556.0 110a10 10 0 0 0 10 -10v-59a10 10 0 0 1 10 -10"></path></g></g><path d="M586.0 31h0.0"></path></g><path d="M586.0 31h10"></path><path d="M 596.0 31 h 20 m -10 -10 v 20 m 10 -20 v 20"></path></g></svg>