<svg width="41" height="41" viewBox="0 0 41 41" fill="none" xmlns="http://www.w3.org/2000/svg">
<path d="M14.9019 22.7757H4.15421C2.41219 22.7757 1 24.1879 1 25.9299V36.6776C1 38.4196 2.41219 39.8318 4.15421 39.8318H14.9019C16.6439 39.8318 18.0561 38.4196 18.0561 36.6776V25.9299C18.0561 24.1879 16.6439 22.7757 14.9019 22.7757Z" stroke="#5961FF" stroke-miterlimit="10"/>
<path d="M25.7897 11.8879H15.0421C13.3001 11.8879 11.8879 13.3001 11.8879 15.0421V25.7897C11.8879 27.5318 13.3001 28.944 15.0421 28.944H25.7897C27.5318 28.944 28.944 27.5318 28.944 25.7897V15.0421C28.944 13.3001 27.5318 11.8879 25.7897 11.8879Z" stroke="#5961FF" stroke-miterlimit="10"/>
<path d="M36.6776 1H25.9299C24.1879 1 22.7757 2.41219 22.7757 4.15421V14.9019C22.7757 16.6439 24.1879 18.0561 25.9299 18.0561H36.6776C38.4196 18.0561 39.8318 16.6439 39.8318 14.9019V4.15421C39.8318 2.41219 38.4196 1 36.6776 1Z" stroke="#5961FF" stroke-miterlimit="10"/>
</svg>
