<svg width="40" height="40" viewBox="0 0 40 40" fill="none" xmlns="http://www.w3.org/2000/svg">
<path d="M37.375 25H33.625L30.75 15H34.875C35.5633 14.9752 36.2166 14.6906 36.7036 14.2036C37.1906 13.7166 37.4752 13.0633 37.5 12.375V2.625C37.4752 1.93672 37.1906 1.28337 36.7036 0.796364C36.2166 0.309359 35.5633 0.0248283 34.875 1.47075e-06H25.25C24.5418 -0.000730498 23.8606 0.27178 23.3484 0.760772C22.8361 1.24976 22.5322 1.91754 22.5 2.625V12.25C22.5033 12.9452 22.7809 13.611 23.2725 14.1025C23.7641 14.5941 24.4298 14.8717 25.125 14.875H29.375L30.625 19.25H9.125L7.875 14.875H12.25C12.5964 14.8987 12.9439 14.8522 13.2718 14.7381C13.5997 14.6241 13.9012 14.4449 14.1581 14.2114C14.4149 13.9778 14.6219 13.6948 14.7666 13.3792C14.9113 13.0636 14.9907 12.722 15 12.375V2.625C14.9752 1.93672 14.6906 1.28337 14.2036 0.796364C13.7166 0.309359 13.0633 0.0248283 12.375 1.47075e-06H2.625C1.93672 0.0248283 1.28337 0.309359 0.796364 0.796364C0.309359 1.28337 0.0248283 1.93672 1.47075e-06 2.625V12.25C-0.000730498 12.9582 0.27178 13.6394 0.760772 14.1517C1.24976 14.6639 1.91754 14.9678 2.625 15H6.625L9.5 25H5.125C4.43672 25.0248 3.78337 25.3094 3.29636 25.7964C2.80936 26.2834 2.52483 26.9367 2.5 27.625V37.25C2.49927 37.9582 2.77178 38.6394 3.26077 39.1517C3.74976 39.6639 4.41754 39.9678 5.125 40H14.75C15.4452 39.9967 16.111 39.7191 16.6025 39.2275C17.0941 38.736 17.3717 38.0702 17.375 37.375V27.75C17.3717 27.0548 17.0941 26.3891 16.6025 25.8975C16.111 25.4059 15.4452 25.1283 14.75 25.125H10.75L9.5 20.75H31L32.25 25.125H27.625C27.2863 25.108 26.9478 25.1602 26.6299 25.2782C26.312 25.3962 26.0214 25.5777 25.7759 25.8115C25.5303 26.0454 25.3349 26.3268 25.2015 26.6385C25.0681 26.9503 24.9996 27.2859 25 27.625V37.25C25.0033 37.9452 25.2809 38.611 25.7725 39.1025C26.2641 39.5941 26.9298 39.8717 27.625 39.875H37.25C37.9452 39.8717 38.611 39.5941 39.1025 39.1025C39.5941 38.611 39.8717 37.9452 39.875 37.25V27.625C39.892 27.2863 39.8398 26.9478 39.7218 26.6299C39.6038 26.312 39.4223 26.0214 39.1885 25.7759C38.9546 25.5303 38.6732 25.3349 38.3615 25.2015C38.0497 25.0681 37.7141 24.9996 37.375 25ZM23.75 12.375V2.625C23.7533 2.26134 23.8992 1.91349 24.1563 1.65633C24.4135 1.39918 24.7613 1.25326 25.125 1.25H34.75C34.9396 1.23818 35.1296 1.26472 35.3088 1.32804C35.4879 1.39136 35.6524 1.49016 35.7924 1.61853C35.9324 1.7469 36.0451 1.9022 36.1238 2.07513C36.2024 2.24807 36.2453 2.43509 36.25 2.625V12.25C36.2467 12.6137 36.1008 12.9615 35.8437 13.2187C35.5865 13.4758 35.2387 13.6217 34.875 13.625H25.25C25.0663 13.6625 24.8765 13.6583 24.6946 13.6125C24.5128 13.5667 24.3436 13.4806 24.1995 13.3606C24.0555 13.2405 23.9403 13.0896 23.8624 12.919C23.7846 12.7484 23.7462 12.5625 23.75 12.375ZM1.25 12.375V2.625C1.25326 2.26134 1.39918 1.91349 1.65633 1.65633C1.91349 1.39918 2.26134 1.25326 2.625 1.25H12.25C12.4396 1.23818 12.6296 1.26472 12.8088 1.32804C12.9879 1.39136 13.1524 1.49016 13.2924 1.61853C13.4324 1.7469 13.5451 1.9022 13.6238 2.07513C13.7024 2.24807 13.7453 2.43509 13.75 2.625V12.25C13.7467 12.6137 13.6008 12.9615 13.3437 13.2187C13.0865 13.4758 12.7387 13.6217 12.375 13.625H2.625C2.45066 13.6425 2.27457 13.6232 2.10818 13.5683C1.94179 13.5134 1.7888 13.4241 1.65914 13.3062C1.52949 13.1883 1.42606 13.0445 1.35558 12.8841C1.28509 12.7237 1.24912 12.5502 1.25 12.375ZM16.25 27.625V37.25C16.2467 37.6137 16.1008 37.9615 15.8437 38.2187C15.5865 38.4758 15.2387 38.6217 14.875 38.625H5.125C4.95066 38.6425 4.77457 38.6232 4.60818 38.5683C4.44179 38.5134 4.2888 38.4241 4.15914 38.3062C4.02949 38.1883 3.92606 38.0445 3.85558 37.8841C3.78509 37.7237 3.74912 37.5502 3.75 37.375V27.75C3.73818 27.5604 3.76472 27.3704 3.82804 27.1913C3.89136 27.0121 3.99016 26.8477 4.11853 26.7076C4.2469 26.5676 4.4022 26.4549 4.57513 26.3762C4.74807 26.2976 4.93509 26.2547 5.125 26.25H14.75C14.9396 26.2382 15.1296 26.2647 15.3088 26.328C15.4879 26.3914 15.6524 26.4902 15.7924 26.6185C15.9324 26.7469 16.0451 26.9022 16.1238 27.0751C16.2024 27.2481 16.2453 27.4351 16.25 27.625ZM38.75 37.375C38.7467 37.7387 38.6008 38.0865 38.3437 38.3437C38.0865 38.6008 37.7387 38.7467 37.375 38.75H27.75C27.3863 38.7467 27.0385 38.6008 26.7813 38.3437C26.5242 38.0865 26.3783 37.7387 26.375 37.375V27.75C26.3783 27.3863 26.5242 27.0385 26.7813 26.7813C27.0385 26.5242 27.3863 26.3783 27.75 26.375H37.375C37.7387 26.3783 38.0865 26.5242 38.3437 26.7813C38.6008 27.0385 38.7467 27.3863 38.75 27.75V37.375Z" fill="#5961FF"/>
</svg>
