<svg width="51" height="41" viewBox="0 0 51 41" fill="none" xmlns="http://www.w3.org/2000/svg">
<path d="M47.42 0H2.74C2.01573 0.00780254 1.32332 0.298985 0.811153 0.811153C0.298985 1.32332 0.00780254 2.01573 0 2.74L0 30.17C0.00775204 30.8952 0.298607 31.5887 0.810507 32.1025C1.32241 32.6162 2.01482 32.9096 2.74 32.92H47.42C48.1452 32.9096 48.8376 32.6162 49.3495 32.1025C49.8614 31.5887 50.1522 30.8952 50.16 30.17V2.74C50.1522 2.01573 49.861 1.32332 49.3488 0.811153C48.8367 0.298985 48.1443 0.00780254 47.42 0V0ZM2.74 0.78H47.42C47.9504 0.78 48.4591 0.990714 48.8342 1.36579C49.2093 1.74086 49.42 2.24957 49.42 2.78V28.21H0.78V2.74C0.790233 2.22338 1.00002 1.73077 1.36539 1.36539C1.73077 1.00002 2.22338 0.790233 2.74 0.78ZM47.42 32.13H2.74C2.4751 32.1383 2.21131 32.0923 1.96489 31.9947C1.71847 31.8972 1.49466 31.7501 1.30725 31.5627C1.11985 31.3753 0.972834 31.1515 0.875272 30.9051C0.77771 30.6587 0.731672 30.3949 0.74 30.13V29H49.34V30.17C49.3426 30.4248 49.2951 30.6776 49.2 30.9139C49.1049 31.1503 48.9643 31.3657 48.786 31.5477C48.6077 31.7297 48.3953 31.8748 48.1609 31.9747C47.9265 32.0746 47.6748 32.1274 47.42 32.13ZM12.42 40.44L12.97 40.99C16.1887 37.7914 20.5422 35.9961 25.08 35.9961C29.6178 35.9961 33.9713 37.7914 37.19 40.99L37.74 40.44C34.376 37.079 29.8153 35.191 25.06 35.191C20.3047 35.191 15.744 37.079 12.38 40.44H12.42Z" fill="#5961FF"/>
<path d="M28.68 18.87C28.68 18.2114 28.4847 17.5675 28.1188 17.0199C27.7529 16.4723 27.2328 16.0455 26.6243 15.7935C26.0159 15.5414 25.3463 15.4755 24.7003 15.604C24.0544 15.7324 23.461 16.0496 22.9953 16.5153C22.5296 16.981 22.2125 17.5744 22.084 18.2203C21.9555 18.8663 22.0214 19.5358 22.2735 20.1443C22.5255 20.7528 22.9523 21.2729 23.4999 21.6388C24.0476 22.0047 24.6914 22.2 25.35 22.2C25.7873 22.2 26.2203 22.1138 26.6243 21.9465C27.0283 21.7791 27.3954 21.5339 27.7047 21.2246C28.0139 20.9154 28.2592 20.5483 28.4265 20.1443C28.5939 19.7403 28.68 19.3073 28.68 18.87ZM25.35 21.49C24.8331 21.4841 24.3296 21.3254 23.9027 21.0339C23.4758 20.7425 23.1446 20.3312 22.9509 19.852C22.7572 19.3728 22.7096 18.8469 22.8141 18.3407C22.9185 17.8345 23.1704 17.3704 23.538 17.007C23.9055 16.6436 24.3724 16.397 24.8798 16.2983C25.3872 16.1997 25.9124 16.2533 26.3894 16.4524C26.8664 16.6516 27.2739 16.9874 27.5604 17.4175C27.847 17.8477 28 18.3531 28 18.87C28.0013 19.2144 27.9345 19.5557 27.8033 19.8742C27.6721 20.1926 27.4791 20.482 27.2356 20.7255C26.992 20.9691 26.7027 21.162 26.3842 21.2932C26.0657 21.4244 25.7244 21.4913 25.38 21.49H25.35ZM26.91 13.35C27.328 13.4696 27.7307 13.6374 28.11 13.85C28.3034 13.9624 28.5273 14.0114 28.75 13.99C29.0917 13.9936 29.4215 13.8645 29.67 13.63L30.31 13L29.81 12.5L29.17 13.14C29.0661 13.2364 28.9331 13.2955 28.792 13.3082C28.6508 13.3209 28.5094 13.2863 28.39 13.21C27.9564 12.9906 27.5088 12.8002 27.05 12.64C26.923 12.6138 26.8097 12.5428 26.7308 12.44C26.6519 12.3372 26.6125 12.2094 26.62 12.08V11.16H25.92V12.08C25.937 12.367 26.0408 12.6421 26.2176 12.8689C26.3944 13.0956 26.6358 13.2634 26.91 13.35ZM32.15 17.53C32.0219 17.5273 31.8978 17.4843 31.7955 17.4071C31.6932 17.3299 31.6178 17.2224 31.58 17.1C31.4339 16.6343 31.2395 16.1852 31 15.76C30.9419 15.6353 30.9177 15.4975 30.93 15.3606C30.9423 15.2236 30.9906 15.0923 31.07 14.98L31.71 14.34L31.22 13.85L30.58 14.48C30.3734 14.6924 30.2413 14.9661 30.2034 15.26C30.1656 15.5539 30.224 15.8521 30.37 16.11C30.5751 16.4951 30.7394 16.9006 30.86 17.32C30.9388 17.6014 31.1055 17.8502 31.3358 18.0301C31.5661 18.21 31.8479 18.3116 32.14 18.32H33.06V17.6H32.14L32.15 17.53ZM30.87 20.43C30.7494 20.8493 30.5851 21.2548 30.38 21.64C30.2364 21.8968 30.1793 22.1929 30.2171 22.4847C30.255 22.7765 30.3857 23.0483 30.59 23.26L31.23 23.9L31.72 23.41L31.08 22.77C30.9844 22.668 30.9248 22.5375 30.9104 22.3984C30.8959 22.2594 30.9274 22.1194 31 22C31.2237 21.565 31.4142 21.1137 31.57 20.65C31.5985 20.5231 31.6718 20.4107 31.7766 20.3335C31.8813 20.2564 32.0103 20.2196 32.14 20.23H33.06V19.52H32.14C31.8579 19.5119 31.581 19.5965 31.3516 19.7608C31.1222 19.9252 30.953 20.1603 30.87 20.43ZM28.11 23.9C27.7267 24.1042 27.3249 24.2717 26.91 24.4C26.6278 24.4739 26.3774 24.638 26.1969 24.8672C26.0165 25.0964 25.9157 25.3783 25.91 25.67V26.59H26.61V25.67C26.6169 25.543 26.6615 25.421 26.7381 25.3194C26.8147 25.2179 26.9198 25.1415 27.04 25.1C27.5033 24.956 27.952 24.7685 28.38 24.54C28.5046 24.4818 28.6424 24.4577 28.7794 24.47C28.9164 24.4823 29.0477 24.5306 29.16 24.61L29.8 25.25L30.3 24.75L29.66 24.11C29.4612 23.9085 29.2013 23.7787 28.9208 23.7407C28.6404 23.7027 28.3552 23.7587 28.11 23.9ZM23.72 24.4C23.3051 24.2717 22.9033 24.1042 22.52 23.9C22.2605 23.7602 21.9636 23.7053 21.6712 23.7429C21.3789 23.7806 21.1056 23.909 20.89 24.11L20.25 24.75L20.75 25.25L21.38 24.61C21.4839 24.5136 21.6169 24.4544 21.758 24.4417C21.8992 24.4291 22.0406 24.4636 22.16 24.54C22.5971 24.7564 23.0481 24.9434 23.51 25.1C23.6359 25.1303 23.7471 25.2041 23.8239 25.3084C23.9007 25.4127 23.9383 25.5407 23.93 25.67V26.59H24.64V25.67C24.6527 25.3855 24.5687 25.105 24.4017 24.8744C24.2346 24.6438 23.9943 24.4765 23.72 24.4ZM20.25 21.71C20.0449 21.3248 19.8806 20.9193 19.76 20.5C19.6798 20.2194 19.5127 19.9714 19.2827 19.7917C19.0527 19.612 18.7717 19.5099 18.48 19.5H17.56V20.21H18.48C18.6065 20.2134 18.729 20.2555 18.8308 20.3306C18.9327 20.4057 19.0092 20.5102 19.05 20.63C19.1928 21.1034 19.3803 21.5621 19.61 22C19.6702 22.1241 19.6955 22.2623 19.6832 22.3997C19.6709 22.5371 19.6214 22.6686 19.54 22.78L18.91 23.42L19.4 23.91L20.04 23.27C20.259 23.0801 20.4011 22.8169 20.4398 22.5297C20.4784 22.2424 20.411 21.951 20.25 21.71ZM19.12 17.1C19.0936 17.2287 19.0211 17.3435 18.9162 17.4226C18.8113 17.5018 18.6811 17.54 18.55 17.53H17.63V18.24H18.55C18.8417 18.2301 19.1227 18.1279 19.3527 17.9482C19.5827 17.7686 19.7498 17.5206 19.83 17.24C19.9487 16.8104 20.1129 16.3947 20.32 16C20.4613 15.7408 20.5171 15.4437 20.4793 15.1509C20.4416 14.8582 20.3124 14.5848 20.11 14.37L19.47 13.74L18.91 14.3L19.54 14.94C19.6413 15.0411 19.7039 15.1747 19.7167 15.3173C19.7295 15.4599 19.6917 15.6024 19.61 15.72C19.3706 16.1493 19.2049 16.6158 19.12 17.1ZM21.88 14C22.0992 13.986 22.315 13.9388 22.52 13.86C22.8993 13.6474 23.302 13.4796 23.72 13.36C24.0014 13.2845 24.2509 13.1201 24.4311 12.8912C24.6113 12.6623 24.7127 12.3812 24.72 12.09V11.17H24V12.09C23.9959 12.2151 23.9535 12.336 23.8783 12.4362C23.8032 12.5364 23.699 12.611 23.58 12.65C23.1131 12.7973 22.6612 12.9881 22.23 13.22C22.1051 13.2771 21.9675 13.3007 21.8307 13.2884C21.6939 13.2762 21.5627 13.2284 21.45 13.15L20.82 12.51L20.32 13.01L20.96 13.64C21.2085 13.8745 21.5383 14.0036 21.88 14Z" fill="#5961FF"/>
<path d="M9.64998 9.41C9.03488 9.41 8.43359 9.22761 7.92216 8.88587C7.41072 8.54414 7.0121 8.05843 6.77671 7.49015C6.54133 6.92187 6.47974 6.29655 6.59974 5.69327C6.71974 5.08999 7.01594 4.53584 7.45088 4.1009C7.88582 3.66596 8.43997 3.36976 9.04325 3.24976C9.64653 3.12976 10.2718 3.19135 10.8401 3.42674C11.4084 3.66213 11.8941 4.06074 12.2358 4.57218C12.5776 5.08362 12.76 5.6849 12.76 6.3C12.76 7.12483 12.4323 7.91587 11.8491 8.49911C11.2658 9.08234 10.4748 9.41 9.64998 9.41ZM9.64998 4C9.18027 3.99817 8.7207 4.13653 8.33008 4.39739C7.93947 4.65825 7.63558 5.02974 7.45731 5.46431C7.27904 5.89888 7.23451 6.37676 7.32941 6.83679C7.42431 7.29681 7.65432 7.71806 7.99001 8.0466C8.3257 8.37515 8.75179 8.59605 9.21375 8.68104C9.67571 8.76602 10.1525 8.71122 10.5832 8.52365C11.0138 8.33608 11.3787 8.02428 11.6311 7.62814C11.8835 7.23201 12.0119 6.76956 12 6.3C11.9844 5.68628 11.7302 5.10279 11.2915 4.67337C10.8527 4.24395 10.2639 4.00241 9.64998 4Z" fill="#5961FF"/>
<path d="M41 9.40999C40.3845 9.41197 39.7822 9.23125 39.2695 8.89073C38.7567 8.5502 38.3565 8.06518 38.1196 7.49708C37.8827 6.92898 37.8197 6.30335 37.9386 5.69941C38.0574 5.09547 38.3528 4.54039 38.7874 4.10445C39.2219 3.6685 39.776 3.37131 40.3796 3.2505C40.9831 3.12968 41.609 3.19069 42.1778 3.42578C42.7467 3.66087 43.233 4.05948 43.5752 4.57113C43.9173 5.08278 44.1 5.68446 44.1 6.29999C44.1 7.12308 43.7737 7.91261 43.1926 8.49556C42.6116 9.07851 41.8231 9.40734 41 9.40999ZM41 3.99999C40.5295 3.99416 40.068 4.12912 39.6747 4.38754C39.2815 4.64595 38.9744 5.01603 38.7931 5.45023C38.6117 5.88444 38.5643 6.36294 38.6569 6.8243C38.7495 7.28565 38.978 7.70878 39.3128 8.03936C39.6477 8.36993 40.0738 8.59284 40.5363 8.67947C40.9988 8.7661 41.4767 8.71248 41.9085 8.52551C42.3403 8.33854 42.7064 8.02675 42.9597 7.63019C43.213 7.23363 43.3419 6.77039 43.33 6.29999C43.3145 5.68969 43.0632 5.10913 42.6287 4.68026C42.1942 4.25138 41.6105 4.00755 41 3.99999Z" fill="#5961FF"/>
<path d="M25.31 9.41C24.6949 9.41 24.0936 9.22761 23.5822 8.88587C23.0708 8.54414 22.6721 8.05843 22.4367 7.49015C22.2014 6.92187 22.1398 6.29655 22.2598 5.69327C22.3798 5.08999 22.676 4.53584 23.1109 4.1009C23.5459 3.66596 24.1 3.36976 24.7033 3.24976C25.3066 3.12976 25.9319 3.19135 26.5002 3.42674C27.0684 3.66213 27.5542 4.06074 27.8959 4.57218C28.2376 5.08362 28.42 5.6849 28.42 6.3C28.4213 6.70879 28.3418 7.11379 28.186 7.49171C28.0301 7.86963 27.8011 8.213 27.5121 8.50205C27.223 8.7911 26.8796 9.02014 26.5017 9.17596C26.1238 9.33178 25.7188 9.41132 25.31 9.41ZM25.31 3.95C24.8428 3.95001 24.3861 4.08868 23.9978 4.34844C23.6095 4.60821 23.307 4.97738 23.1287 5.4092C22.9504 5.84101 22.9042 6.31604 22.9961 6.77411C23.088 7.23217 23.3138 7.65266 23.6448 7.98232C23.9759 8.31197 24.3973 8.53594 24.8558 8.62587C25.3142 8.7158 25.789 8.66763 26.2201 8.48748C26.6512 8.30732 27.019 8.00328 27.2772 7.61386C27.5353 7.22445 27.672 6.76719 27.67 6.3C27.6569 5.68372 27.4022 5.09726 26.9607 4.66702C26.5193 4.23679 25.9264 3.99724 25.31 4V3.95Z" fill="#5961FF"/>
<path d="M19.92 16.75H9.28003V9.03998H10.03V16H19.92V16.75Z" fill="#5961FF"/>
<path d="M41.37 16.75H30.72V16H40.62V9.03998H41.37V16.75Z" fill="#5961FF"/>
<path d="M26.62 10.78H24V11.53H26.62V10.78Z" fill="#5961FF"/>
<path d="M25.81 9.03998H24.81V11.16H25.81V9.03998Z" fill="#5961FF"/>
</svg>
