<svg width="20" height="20" viewBox="0 0 20 20" fill="none" xmlns="http://www.w3.org/2000/svg">
<path fill-rule="evenodd" clip-rule="evenodd" d="M9.9702 0C4.45694 0 0 4.35417 0 9.74086C0 14.0467 2.85571 17.6916 6.81735 18.9816C7.31265 19.0786 7.49408 18.772 7.49408 18.5141C7.49408 18.2883 7.47775 17.5142 7.47775 16.7077C4.70429 17.2884 4.12673 15.5466 4.12673 15.5466C3.68102 14.4176 3.02061 14.1275 3.02061 14.1275C2.11286 13.5308 3.08673 13.5308 3.08673 13.5308C4.09367 13.5953 4.62204 14.5306 4.62204 14.5306C5.51327 16.0142 6.94939 15.595 7.52714 15.337C7.60959 14.708 7.87388 14.2726 8.15449 14.0307C5.94245 13.8049 3.6151 12.9663 3.6151 9.2247C3.6151 8.1603 4.01102 7.28947 4.63837 6.6122C4.53939 6.37034 4.19265 5.37027 4.73755 4.03176C4.73755 4.03176 5.57939 3.77368 7.47755 5.03164C8.29022 4.81841 9.12832 4.70994 9.9702 4.70903C10.812 4.70903 11.6702 4.82204 12.4627 5.03164C14.361 3.77368 15.2029 4.03176 15.2029 4.03176C15.7478 5.37027 15.4008 6.37034 15.3018 6.6122C15.9457 7.28947 16.3253 8.1603 16.3253 9.2247C16.3253 12.9663 13.998 13.7887 11.7694 14.0307C12.1327 14.3371 12.4461 14.9176 12.4461 15.8369C12.4461 17.1431 12.4298 18.1915 12.4298 18.5139C12.4298 18.772 12.6114 19.0786 13.1065 18.9818C17.0682 17.6914 19.9239 14.0467 19.9239 9.74086C19.9402 4.35417 15.4669 0 9.9702 0Z" fill="currentColor"/>
</svg>
