<svg width="47" height="40" viewBox="0 0 47 40" fill="none" xmlns="http://www.w3.org/2000/svg">
<path d="M23.7528 5.68773C23.19 5.68933 22.6394 5.5239 22.1707 5.21238C21.7019 4.90087 21.3362 4.45728 21.1197 3.93777C20.9032 3.41827 20.8457 2.84621 20.9545 2.29402C21.0634 1.74183 21.3336 1.23434 21.731 0.835814C22.1284 0.437283 22.6351 0.165627 23.187 0.0552395C23.7388 -0.0551483 24.3111 0.000696066 24.8312 0.215702C25.3513 0.430709 25.7959 0.795208 26.1088 1.26305C26.4216 1.7309 26.5886 2.28105 26.5886 2.84386C26.5886 3.5967 26.2901 4.31883 25.7585 4.85193C25.2269 5.38503 24.5057 5.68559 23.7528 5.68773ZM23.7528 0.840224C23.3495 0.838627 22.9547 0.956878 22.6187 1.17998C22.2826 1.40307 22.0204 1.72096 21.8653 2.09331C21.7102 2.46566 21.6692 2.87569 21.7475 3.27138C21.8258 3.66707 22.0199 4.03058 22.3051 4.3158C22.5903 4.60102 22.9539 4.79509 23.3495 4.87338C23.7452 4.95168 24.1553 4.91069 24.5276 4.75559C24.9 4.60049 25.2179 4.33829 25.441 4.00224C25.664 3.6662 25.7823 3.27145 25.7807 2.8681C25.7807 2.33027 25.5671 1.81447 25.1868 1.43417C24.8065 1.05387 24.2907 0.840224 23.7528 0.840224Z" fill="#5961FF"/>
<path d="M10.406 13.5003C9.84544 13.4987 9.29797 13.331 8.83269 13.0185C8.36741 12.7059 8.00519 12.2625 7.7918 11.7441C7.5784 11.2258 7.5234 10.6559 7.63373 10.1063C7.74406 9.55679 8.01477 9.05225 8.41169 8.65647C8.8086 8.26069 9.3139 7.9914 9.86377 7.88264C10.4136 7.77387 10.9834 7.8305 11.5011 8.04537C12.0188 8.26024 12.4612 8.62371 12.7725 9.08988C13.0837 9.55604 13.2498 10.104 13.2498 10.6645C13.2498 11.0376 13.1762 11.407 13.0332 11.7516C12.8902 12.0962 12.6806 12.4092 12.4164 12.6726C12.1522 12.936 11.8386 13.1447 11.4937 13.2868C11.1487 13.4288 10.779 13.5014 10.406 13.5003ZM10.406 8.6528C10.0052 8.6544 9.61396 8.77469 9.28154 8.99848C8.94913 9.22227 8.69047 9.53954 8.53822 9.91022C8.38597 10.2809 8.34697 10.6884 8.42612 11.0812C8.50528 11.4741 8.69905 11.8346 8.98297 12.1174C9.26689 12.4002 9.62824 12.5926 10.0214 12.6702C10.4145 12.7477 10.8219 12.7071 11.1919 12.5534C11.562 12.3997 11.8782 12.1398 12.1007 11.8065C12.3232 11.4732 12.4419 11.0814 12.4419 10.6807C12.4441 10.4123 12.3929 10.1462 12.2915 9.8978C12.19 9.64937 12.0402 9.42355 11.8509 9.23342C11.6615 9.04329 11.4363 8.89264 11.1882 8.7902C10.9402 8.68776 10.6743 8.63556 10.406 8.63664V8.6528Z" fill="#5961FF"/>
<path d="M2.8681 26.7744C2.30428 26.7792 1.75176 26.6163 1.28074 26.3064C0.809713 25.9964 0.441441 25.5535 0.222711 25.0338C0.00398079 24.5142 -0.0553346 23.9412 0.0523005 23.3877C0.159936 22.8342 0.429663 22.3253 0.827214 21.9254C1.22477 21.5256 1.7322 21.253 2.28504 21.1422C2.83788 21.0314 3.41118 21.0874 3.9321 21.3032C4.45303 21.5189 4.89806 21.8847 5.21066 22.3539C5.52325 22.8232 5.68931 23.3747 5.68773 23.9386C5.68563 24.6872 5.3884 25.4049 4.86053 25.9358C4.33266 26.4667 3.61673 26.768 2.8681 26.7744ZM2.8681 21.9269C2.4634 21.9221 2.06646 22.038 1.72796 22.2599C1.38946 22.4817 1.12476 22.7994 0.967671 23.1724C0.81058 23.5454 0.768221 23.9568 0.846004 24.354C0.923787 24.7511 1.11818 25.1161 1.40437 25.4023C1.69055 25.6885 2.05554 25.8829 2.45272 25.9607C2.8499 26.0385 3.26125 25.9961 3.63424 25.839C4.00724 25.6819 4.32495 25.4172 4.54681 25.0787C4.76867 24.7402 4.8846 24.3433 4.87981 23.9386C4.87985 23.4028 4.66868 22.8886 4.29209 22.5074C3.9155 22.1263 3.40385 21.909 2.8681 21.9026V21.9269Z" fill="#5961FF"/>
<path d="M17.8792 26.7743C17.316 26.7759 16.7651 26.6103 16.2962 26.2984C15.8273 25.9866 15.4615 25.5425 15.2452 25.0225C15.029 24.5025 14.972 23.9301 15.0815 23.3776C15.1909 22.8252 15.462 22.3178 15.8602 21.9196C16.2584 21.5214 16.7659 21.2503 17.3183 21.1409C17.8707 21.0314 18.4431 21.0884 18.9631 21.3046C19.4831 21.5209 19.9272 21.8866 20.239 22.3555C20.5509 22.8245 20.7165 23.3754 20.715 23.9385C20.7128 24.69 20.4134 25.41 19.882 25.9414C19.3507 26.4728 18.6306 26.7722 17.8792 26.7743ZM17.8792 21.9268C17.4761 21.9252 17.0817 22.0433 16.7459 22.266C16.41 22.4888 16.1478 22.8062 15.9924 23.178C15.8371 23.5499 15.7956 23.9595 15.8733 24.355C15.9509 24.7505 16.1442 25.114 16.4286 25.3995C16.713 25.6851 17.0758 25.8798 17.4709 25.959C17.8661 26.0382 18.2758 25.9984 18.6483 25.8445C19.0208 25.6907 19.3393 25.4297 19.5633 25.0947C19.7874 24.7598 19.907 24.3658 19.907 23.9628C19.9102 23.6941 19.8602 23.4274 19.7598 23.1781C19.6595 22.9288 19.5107 22.7018 19.3222 22.5103C19.1337 22.3188 18.9091 22.1665 18.6614 22.0622C18.4138 21.9579 18.1479 21.9036 17.8792 21.9026V21.9268Z" fill="#5961FF"/>
<path d="M36.5906 13.5003C36.0297 13.5003 35.4814 13.334 35.0151 13.0224C34.5487 12.7108 34.1853 12.2679 33.9706 11.7497C33.756 11.2316 33.6998 10.6614 33.8093 10.1113C33.9187 9.5612 34.1888 9.05591 34.5853 8.65932C34.9819 8.26273 35.4872 7.99265 36.0373 7.88323C36.5874 7.77381 37.1576 7.82996 37.6758 8.0446C38.1939 8.25923 38.6368 8.6227 38.9484 9.08905C39.26 9.55539 39.4263 10.1037 39.4263 10.6645C39.4263 11.4166 39.1276 12.1379 38.5958 12.6697C38.0639 13.2015 37.3427 13.5003 36.5906 13.5003ZM36.5906 8.65281C36.1895 8.65281 35.7974 8.77174 35.4639 8.99457C35.1304 9.2174 34.8705 9.53411 34.717 9.90465C34.5636 10.2752 34.5234 10.6829 34.6016 11.0763C34.6799 11.4697 34.873 11.831 35.1566 12.1146C35.4402 12.3982 35.8016 12.5913 36.1949 12.6696C36.5883 12.7478 36.996 12.7077 37.3666 12.5542C37.7371 12.4007 38.0538 12.1408 38.2767 11.8073C38.4995 11.4738 38.6184 11.0818 38.6184 10.6807C38.6206 10.413 38.5697 10.1476 38.4687 9.89969C38.3678 9.65179 38.2187 9.42633 38.0302 9.23631C37.8417 9.04629 37.6174 8.89547 37.3703 8.79255C37.1232 8.68963 36.8582 8.63665 36.5906 8.63665V8.65281Z" fill="#5961FF"/>
<path d="M44.0558 26.7743C43.4926 26.7759 42.9417 26.6103 42.4728 26.2984C42.0039 25.9866 41.6381 25.5425 41.4219 25.0225C41.2056 24.5025 41.1486 23.9301 41.2581 23.3776C41.3676 22.8252 41.6386 22.3178 42.0368 21.9196C42.435 21.5214 42.9425 21.2503 43.4949 21.1409C44.0473 21.0314 44.6198 21.0884 45.1398 21.3046C45.6597 21.5209 46.1038 21.8866 46.4157 22.3555C46.7275 22.8245 46.8932 23.3754 46.8916 23.9385C46.8895 24.69 46.59 25.41 46.0586 25.9414C45.5273 26.4728 44.8072 26.7722 44.0558 26.7743ZM44.0558 21.9268C43.6518 21.9253 43.2564 22.0439 42.92 22.2678C42.5836 22.4916 42.3214 22.8104 42.1668 23.1837C42.0122 23.557 41.9722 23.9679 42.0518 24.364C42.1315 24.7601 42.3272 25.1236 42.614 25.4082C42.9008 25.6927 43.2659 25.8855 43.6626 25.9619C44.0593 26.0384 44.4699 25.9951 44.8419 25.8375C45.214 25.6799 45.5307 25.4152 45.7518 25.077C45.973 24.7389 46.0885 24.3426 46.0837 23.9385C46.0837 23.4 45.8703 22.8833 45.4902 22.5018C45.1101 22.1202 44.5944 21.9047 44.0558 21.9026V21.9268Z" fill="#5961FF"/>
<path d="M10.7857 40C10.2234 40 9.67391 39.8328 9.20689 39.5198C8.73987 39.2067 8.37645 38.7619 8.1628 38.2418C7.94915 37.7218 7.89491 37.1499 8.00698 36.599C8.11904 36.048 8.39235 35.5428 8.79218 35.1476C9.19201 34.7523 9.70032 34.4848 10.2525 34.379C10.8047 34.2733 11.3759 34.3341 11.8935 34.5537C12.411 34.7733 12.8517 35.1418 13.1593 35.6123C13.467 36.0829 13.6279 36.6343 13.6215 37.1965C13.613 37.943 13.3104 38.656 12.7795 39.1809C12.2487 39.7057 11.5322 40.0001 10.7857 40ZM10.7857 35.1525C10.3853 35.1525 9.99388 35.2711 9.66075 35.4932C9.32763 35.7153 9.06771 36.0311 8.91377 36.4007C8.75982 36.7703 8.71873 37.1772 8.79567 37.5701C8.87262 37.963 9.06415 38.3244 9.34614 38.6086C9.62813 38.8928 9.98795 39.0872 10.3803 39.1673C10.7725 39.2474 11.1798 39.2095 11.5506 39.0585C11.9214 38.9075 12.2392 38.6501 12.464 38.3187C12.6887 37.9874 12.8104 37.5969 12.8136 37.1965C12.8178 36.9275 12.7686 36.6604 12.6686 36.4106C12.5686 36.1608 12.4199 35.9334 12.2312 35.7417C12.0424 35.5499 11.8174 35.3977 11.5693 35.2937C11.3211 35.1898 11.0547 35.1363 10.7857 35.1363V35.1525Z" fill="#5961FF"/>
<path d="M24.1082 40C23.546 40 22.9964 39.8328 22.5294 39.5198C22.0624 39.2067 21.699 38.7619 21.4853 38.2418C21.2717 37.7218 21.2174 37.1499 21.3295 36.599C21.4416 36.048 21.7149 35.5428 22.1147 35.1476C22.5145 34.7523 23.0228 34.4848 23.575 34.379C24.1272 34.2733 24.6984 34.3341 25.216 34.5537C25.7336 34.7733 26.1742 35.1418 26.4819 35.6123C26.7895 36.0829 26.9504 36.6343 26.944 37.1965C26.9334 37.9424 26.6302 38.6542 26.0998 39.1786C25.5693 39.703 24.8541 39.998 24.1082 40ZM24.1082 35.1525C23.7078 35.1525 23.3164 35.2711 22.9833 35.4932C22.6501 35.7153 22.3902 36.0311 22.2363 36.4007C22.0823 36.7703 22.0412 37.1772 22.1182 37.5701C22.1951 37.963 22.3867 38.3244 22.6687 38.6086C22.9506 38.8928 23.3105 39.0872 23.7028 39.1673C24.0951 39.2474 24.5023 39.2095 24.8731 39.0585C25.2439 38.9075 25.5617 38.6501 25.7865 38.3187C26.0112 37.9874 26.1329 37.5969 26.1361 37.1965C26.1404 36.9275 26.0911 36.6604 25.9911 36.4106C25.8911 36.1608 25.7424 35.9334 25.5537 35.7417C25.3649 35.5499 25.1399 35.3977 24.8918 35.2937C24.6436 35.1898 24.3772 35.1363 24.1082 35.1363V35.1525Z" fill="#5961FF"/>
<path d="M36.7036 40C36.1417 39.9984 35.593 39.8298 35.1271 39.5158C34.6611 39.2018 34.2989 38.7564 34.0865 38.2362C33.8741 37.716 33.821 37.1445 33.934 36.594C34.047 36.0436 34.3209 35.5392 34.7211 35.1447C35.1212 34.7503 35.6295 34.4836 36.1815 34.3785C36.7335 34.2734 37.3042 34.3346 37.8213 34.5545C38.3384 34.7743 38.7786 35.1428 39.0859 35.6132C39.3932 36.0836 39.5539 36.6347 39.5475 37.1965C39.539 37.9444 39.2353 38.6586 38.7027 39.1837C38.1701 39.7088 37.4516 40.0022 36.7036 40ZM36.7036 35.1525C36.3036 35.1541 35.913 35.274 35.5809 35.4971C35.2488 35.7202 34.9902 36.0365 34.8375 36.4062C34.6848 36.776 34.6448 37.1826 34.7227 37.575C34.8005 37.9674 34.9927 38.328 35.275 38.6114C35.5573 38.8949 35.9172 39.0885 36.3092 39.1679C36.7013 39.2473 37.1081 39.2089 37.4785 39.0577C37.8488 38.9065 38.1662 38.6491 38.3906 38.3179C38.615 37.9867 38.7364 37.5966 38.7396 37.1965C38.7439 36.9268 38.6943 36.659 38.5938 36.4087C38.4934 36.1584 38.3439 35.9306 38.1543 35.7388C37.9648 35.5469 37.7388 35.3948 37.4897 35.2914C37.2406 35.1879 36.9734 35.1352 36.7036 35.1363V35.1525Z" fill="#5961FF"/>
<path d="M27.3527 3.76426L26.9209 4.44708L32.9707 8.27311L33.4026 7.59029L27.3527 3.76426Z" fill="#5961FF"/>
<path d="M20.0435 4.0602L13.9937 7.88623L14.4255 8.56906L20.4753 4.74303L20.0435 4.0602Z" fill="#5961FF"/>
<path d="M7.65772 13.7273L4.47607 20.1395L5.1998 20.4986L8.38144 14.0864L7.65772 13.7273Z" fill="#5961FF"/>
<path d="M13.1546 13.6731L12.4308 14.0321L15.6113 20.4449L16.3351 20.0859L13.1546 13.6731Z" fill="#5961FF"/>
<path d="M39.3388 13.6067L38.615 13.9657L41.7955 20.3784L42.5193 20.0195L39.3388 13.6067Z" fill="#5961FF"/>
<path d="M15.1311 26.8301L11.9495 33.2422L12.6732 33.6014L15.8548 27.1892L15.1311 26.8301Z" fill="#5961FF"/>
<path d="M20.6179 26.7763L19.8942 27.1354L23.0758 33.5476L23.7995 33.1885L20.6179 26.7763Z" fill="#5961FF"/>
<path d="M41.3153 26.6484L38.1337 33.0606L38.8574 33.4197L42.039 27.0075L41.3153 26.6484Z" fill="#5961FF"/>
</svg>
