<svg width="228" height="124" viewBox="0 0 228 124" fill="none" xmlns="http://www.w3.org/2000/svg">
<path fill-rule="evenodd" clip-rule="evenodd" d="M192.757 94.1413L161.203 83.4052C160.937 83.3152 160.931 83.0033 161.195 82.9065L193.347 71.1057C193.719 70.9699 194.143 70.9645 194.52 71.0922L226.074 81.8283C226.34 81.9197 226.345 82.2316 226.082 82.3271L193.929 94.1279C193.556 94.265 193.134 94.2691 192.757 94.1413Z" fill="#7688FF"/>
<path fill-rule="evenodd" clip-rule="evenodd" d="M192.757 94.1413L161.203 83.4052C160.937 83.3152 160.931 83.0033 161.195 82.9065L193.347 71.1057C193.719 70.9699 194.143 70.9645 194.52 71.0922L226.074 81.8283C226.34 81.9197 226.345 82.2316 226.082 82.3271L193.929 94.1279C193.556 94.265 193.134 94.2691 192.757 94.1413Z" stroke="#161F31" stroke-width="1.5"/>
<path d="M179.255 118.185L192.619 122.904C192.994 123.037 193.414 123.031 193.785 122.89L208.021 117.468" stroke="#161F31" stroke-width="1.5"/>
<path d="M169.851 95.7782L192.557 103.545C192.933 103.673 193.354 103.669 193.726 103.532L217.426 94.7872" stroke="#161F31" stroke-width="1.5"/>
<path d="M174.83 107.257L192.865 113.501C193.24 113.632 193.661 113.626 194.033 113.489L213 106.404" stroke="#161F31" stroke-width="1.5"/>
<path d="M9.29787 123C4.71486 123 1 119.274 1 114.677V79.3229C1 74.7261 4.71486 71 9.29787 71" stroke="#161F31" stroke-width="1.5"/>
<path d="M44.7021 71C49.2852 71 53 74.7261 53 79.3229V114.677C53 119.274 49.2852 123 44.7021 123" stroke="#161F31" stroke-width="1.5"/>
<path fill-rule="evenodd" clip-rule="evenodd" d="M18.1489 83.7234C18.1489 86.1678 16.1677 88.1489 13.7234 88.1489C11.279 88.1489 9.29785 86.1678 9.29785 83.7234C9.29785 81.279 11.279 79.2979 13.7234 79.2979C16.1677 79.2979 18.1489 81.279 18.1489 83.7234Z" fill="#7688FF"/>
<path fill-rule="evenodd" clip-rule="evenodd" d="M31.4255 97C31.4255 99.4444 29.4444 101.426 27 101.426C24.5556 101.426 22.5745 99.4444 22.5745 97C22.5745 94.5556 24.5556 92.5745 27 92.5745C29.4444 92.5745 31.4255 94.5556 31.4255 97Z" fill="#7688FF"/>
<path fill-rule="evenodd" clip-rule="evenodd" d="M18.1489 110.277C18.1489 112.721 16.1677 114.702 13.7234 114.702C11.279 114.702 9.29785 112.721 9.29785 110.277C9.29785 107.832 11.279 105.851 13.7234 105.851C16.1677 105.851 18.1489 107.832 18.1489 110.277Z" fill="#7688FF"/>
<path fill-rule="evenodd" clip-rule="evenodd" d="M18.1489 83.7234C18.1489 86.1678 16.1677 88.1489 13.7234 88.1489C11.279 88.1489 9.29785 86.1678 9.29785 83.7234C9.29785 81.279 11.279 79.2979 13.7234 79.2979C16.1677 79.2979 18.1489 81.279 18.1489 83.7234Z" stroke="#161F31" stroke-width="1.5"/>
<path fill-rule="evenodd" clip-rule="evenodd" d="M18.1489 97C18.1489 99.4444 16.1677 101.426 13.7234 101.426C11.279 101.426 9.29785 99.4444 9.29785 97C9.29785 94.5556 11.279 92.5745 13.7234 92.5745C16.1677 92.5745 18.1489 94.5556 18.1489 97Z" stroke="#161F31" stroke-width="1.5"/>
<path fill-rule="evenodd" clip-rule="evenodd" d="M18.1489 110.277C18.1489 112.721 16.1677 114.702 13.7234 114.702C11.279 114.702 9.29785 112.721 9.29785 110.277C9.29785 107.832 11.279 105.851 13.7234 105.851C16.1677 105.851 18.1489 107.832 18.1489 110.277Z" stroke="#161F31" stroke-width="1.5"/>
<path fill-rule="evenodd" clip-rule="evenodd" d="M31.4255 83.7234C31.4255 86.1678 29.4444 88.1489 27 88.1489C24.5556 88.1489 22.5745 86.1678 22.5745 83.7234C22.5745 81.279 24.5556 79.2979 27 79.2979C29.4444 79.2979 31.4255 81.279 31.4255 83.7234Z" stroke="#161F31" stroke-width="1.5"/>
<path fill-rule="evenodd" clip-rule="evenodd" d="M31.4255 97C31.4255 99.4444 29.4444 101.426 27 101.426C24.5556 101.426 22.5745 99.4444 22.5745 97C22.5745 94.5556 24.5556 92.5745 27 92.5745C29.4444 92.5745 31.4255 94.5556 31.4255 97Z" stroke="#161F31" stroke-width="1.5"/>
<path fill-rule="evenodd" clip-rule="evenodd" d="M31.4255 110.277C31.4255 112.721 29.4444 114.702 27 114.702C24.5556 114.702 22.5745 112.721 22.5745 110.277C22.5745 107.832 24.5556 105.851 27 105.851C29.4444 105.851 31.4255 107.832 31.4255 110.277Z" stroke="#161F31" stroke-width="1.5"/>
<path fill-rule="evenodd" clip-rule="evenodd" d="M45.2554 83.7234C45.2554 86.1678 43.2742 88.1489 40.8298 88.1489C38.3855 88.1489 36.4043 86.1678 36.4043 83.7234C36.4043 81.279 38.3855 79.2979 40.8298 79.2979C43.2742 79.2979 45.2554 81.279 45.2554 83.7234Z" stroke="#161F31" stroke-width="1.5"/>
<path fill-rule="evenodd" clip-rule="evenodd" d="M45.2554 97C45.2554 99.4444 43.2742 101.426 40.8298 101.426C38.3855 101.426 36.4043 99.4444 36.4043 97C36.4043 94.5556 38.3855 92.5745 40.8298 92.5745C43.2742 92.5745 45.2554 94.5556 45.2554 97Z" stroke="#161F31" stroke-width="1.5"/>
<path fill-rule="evenodd" clip-rule="evenodd" d="M45.2554 110.277C45.2554 112.721 43.2742 114.702 40.8298 114.702C38.3855 114.702 36.4043 112.721 36.4043 110.277C36.4043 107.832 38.3855 105.851 40.8298 105.851C43.2742 105.851 45.2554 107.832 45.2554 110.277Z" stroke="#161F31" stroke-width="1.5"/>
<path fill-rule="evenodd" clip-rule="evenodd" d="M65.7775 1C76.7002 1 85.5549 7.82859 85.5549 16.2508C85.5549 18.9807 84.6244 21.542 82.9963 23.7584L89.8382 28.7215C90.8638 29.5038 91.5 30.5885 91.5 31.7886C91.5 34.1707 88.9966 36.1 85.9075 36.1C84.3868 36.1 83.0086 35.6321 81.9999 34.8725L74.9572 29.7621C72.2146 30.8726 69.0903 31.5015 65.7775 31.5015C54.8547 31.5015 46 24.6729 46 16.2508C46 7.82859 54.8547 1 65.7775 1ZM65.4215 8.67812C60.2113 8.67812 55.9878 11.9925 55.9878 16.082C55.9878 20.1715 60.2113 23.4859 65.4215 23.4859C70.6302 23.4859 74.8537 20.1715 74.8537 16.082C74.8537 11.9925 70.6302 8.67812 65.4215 8.67812Z" fill="#7688FF"/>
<path fill-rule="evenodd" clip-rule="evenodd" d="M74.6 16.275C74.6 20.4038 70.3801 23.75 65.1758 23.75C59.9699 23.75 55.75 20.4038 55.75 16.275C55.75 12.1463 59.9699 8.8 65.1758 8.8C70.3801 8.8 74.6 12.1463 74.6 16.275Z" stroke="#161F31" stroke-width="1.5"/>
<path fill-rule="evenodd" clip-rule="evenodd" d="M74.9572 29.7621C72.2146 30.8726 69.0903 31.5015 65.7775 31.5015C54.8547 31.5015 46 24.6729 46 16.2508C46 7.82859 54.8547 1 65.7775 1C76.7002 1 85.5549 7.82859 85.5549 16.2508C85.5549 18.9807 84.6244 21.542 82.9963 23.7584L89.8382 28.7215C90.8638 29.5038 91.5 30.5885 91.5 31.7886C91.5 34.1707 88.9966 36.1 85.9075 36.1C84.3868 36.1 83.0086 35.6321 81.9999 34.8725L74.9572 29.7621Z" stroke="#161F31" stroke-width="1.5"/>
<path d="M91.0071 38.4801C91.3228 39.0185 91.5 39.6161 91.5 40.2455C91.5 42.6222 88.9845 44.55 85.882 44.55C84.3539 44.55 82.9675 44.0828 81.9539 43.3245L74.8771 38.2222C72.1213 39.331 68.9834 39.9574 65.6529 39.9574C55.6832 39.9574 47.428 34.3334 46 27" stroke="#161F31" stroke-width="1.5"/>
<path d="M91.0071 46.9301C91.3228 47.4685 91.5 48.0661 91.5 48.6955C91.5 51.0722 88.9845 53 85.882 53C84.3539 53 82.9675 52.5328 81.9539 51.7745L74.8771 46.6722C72.1213 47.7809 68.9834 48.4073 65.6529 48.4073C55.6832 48.4073 47.428 42.7833 46 35.45" stroke="#161F31" stroke-width="1.5"/>
<path d="M140.17 115.255H90.3306C86.6939 115.255 83.7446 112.307 83.7446 108.669V71" stroke="#161F31" stroke-width="1.5"/>
<path fill-rule="evenodd" clip-rule="evenodd" d="M88.7444 98.3534L94.2126 103.903L107.088 90.8351L113.614 97.458L128.783 82.0638V110.277L88.7444 110.095V98.3534Z" fill="#7688FF"/>
<path d="M76 78.7447L83.4681 71L90.9362 78.7447" stroke="#161F31" stroke-width="1.5"/>
<path d="M132.426 108.064L140.17 115.532L132.426 123" stroke="#161F31" stroke-width="1.5"/>
<path d="M88.7234 98.1561L94.1629 103.638L106.972 90.7292L113.463 97.272L128.553 82.0638" stroke="#161F31" stroke-width="1.5"/>
<path fill-rule="evenodd" clip-rule="evenodd" d="M127.83 29.2128H125.304L123.958 34.7447H125.837L127.83 29.2128Z" fill="#161F31"/>
<path fill-rule="evenodd" clip-rule="evenodd" d="M127.49 21.6378C127.49 20.7683 126.785 20.0625 125.915 20.0625C125.045 20.0625 124.341 20.7683 124.341 21.6378C124.341 22.5091 125.045 23.2149 125.915 23.2149C126.785 23.2149 127.49 22.5091 127.49 21.6378Z" fill="#161F31"/>
<path d="M131.872 1C128.582 1 125.915 3.67161 125.915 6.96721V11.2295" stroke="#161F31" stroke-width="1.5"/>
<path fill-rule="evenodd" clip-rule="evenodd" d="M151.447 1V12.9344C151.447 16.23 154.114 18.9016 157.404 18.9016H169.319" fill="#7688FF"/>
<path d="M151.447 1V12.9344C151.447 16.23 154.114 18.9016 157.404 18.9016H169.319" stroke="#161F31" stroke-width="1.5"/>
<path d="M131.872 1H152.298L169.319 18.0492V47.0328C169.319 50.3284 166.652 53 163.362 53H131.872C128.582 53 125.915 50.3284 125.915 47.0328V43.623" stroke="#161F31" stroke-width="1.5"/>
<path d="M138.681 26.5738C136.8 26.5738 135.277 25.0479 135.277 23.1639V18.0492C135.277 16.1652 133.753 14.6393 131.872 14.6393" stroke="#161F31" stroke-width="1.5"/>
<path d="M138.681 26.5738C136.8 26.5738 135.277 28.0997 135.277 29.9836V35.0984C135.277 36.9823 133.753 38.5082 131.872 38.5082" stroke="#161F31" stroke-width="1.5"/>
<path d="M114 26.5738C115.881 26.5738 117.404 28.0997 117.404 29.9836V35.0984C117.404 36.9823 118.928 38.5082 120.809 38.5082" stroke="#161F31" stroke-width="1.5"/>
<path d="M114 26.5738C115.881 26.5738 117.404 25.0479 117.404 23.1639V18.0492C117.404 16.1652 118.928 14.6393 120.809 14.6393" stroke="#161F31" stroke-width="1.5"/>
</svg>
