<?xml version="1.0" encoding="UTF-8" standalone="no"?>
<!DOCTYPE svg PUBLIC "-//W3C//DTD SVG 1.1//EN" "http://www.w3.org/Graphics/SVG/1.1/DTD/svg11.dtd">
<svg xmlns="http://www.w3.org/2000/svg" xmlns:dc="http://purl.org/dc/elements/1.1/" version="1.1" xmlns:xl="http://www.w3.org/1999/xlink" viewBox="0 0 228 124" width="228" height="124">
  <defs/>
  <g id="Canvas_1" stroke="none" stroke-opacity="1" fill="none" fill-opacity="1" stroke-dasharray="none">
    <title>Canvas 1</title>
    <g id="Canvas_1_Layer_1">
      <title>Layer 1</title>
      <g id="Graphic_2">
        <path d="M 146.83598 93.78215 L 119.04418 84.32612 C 118.8099 84.24685 118.80461 83.97214 119.03714 83.88688 L 147.35563 73.4931 C 147.68328 73.37349 148.05672 73.36873 148.38877 73.48121 L 176.18056 82.93723 C 176.41485 83.01774 176.41925 83.29245 176.1876 83.37656 L 147.86824 93.77034 C 147.53971 93.8911 147.16803 93.89471 146.83598 93.78215 Z" fill="#7688ff"/>
      </g>
      <g id="Graphic_3">
        <path d="M 146.83598 93.78215 L 119.04418 84.32612 C 118.8099 84.24685 118.80461 83.97214 119.03714 83.88688 L 147.35563 73.4931 C 147.68328 73.37349 148.05672 73.36873 148.38877 73.48121 L 176.18056 82.93723 C 176.41485 83.01774 176.41925 83.29245 176.1876 83.37656 L 147.86824 93.77034 C 147.53971 93.8911 147.16803 93.89471 146.83598 93.78215 Z" stroke="#161f31" stroke-linecap="butt" stroke-linejoin="round" stroke-width="1.5"/>
      </g>
      <g id="Graphic_4">
        <path d="M 134.94383 114.9591 L 146.71443 119.11545 C 147.04472 119.23259 147.41464 119.2273 147.7414 119.10312 L 160.28004 114.32759" stroke="#161f31" stroke-linecap="butt" stroke-linejoin="round" stroke-width="1.5"/>
      </g>
      <g id="Graphic_5">
        <path d="M 126.66107 95.22388 L 146.65982 102.06464 C 146.99099 102.17737 147.3618 102.17385 147.68944 102.05319 L 168.56367 94.35104" stroke="#161f31" stroke-linecap="butt" stroke-linejoin="round" stroke-width="1.5"/>
      </g>
      <g id="Graphic_6">
        <path d="M 131.04643 105.33405 L 146.9311 110.83357 C 147.26139 110.94896 147.63219 110.94367 147.95984 110.823 L 164.66539 104.58276" stroke="#161f31" stroke-linecap="butt" stroke-linejoin="round" stroke-width="1.5"/>
      </g>
      <g id="Graphic_7">
        <path d="M 65.7775 1 C 76.7002 1 85.5549 7.82859 85.5549 16.2508 C 85.5549 18.9807 84.6244 21.542 82.9963 23.7584 L 89.8382 28.7215 C 90.8638 29.5038 91.5 30.5885 91.5 31.7886 C 91.5 34.1707 88.9966 36.1 85.9075 36.1 C 84.3868 36.1 83.0086 35.6321 81.9999 34.8725 L 74.9572 29.7621 C 72.2146 30.8726 69.0903 31.5015 65.7775 31.5015 C 54.8547 31.5015 46 24.6729 46 16.2508 C 46 7.82859 54.8547 1 65.7775 1 Z M 65.4215 8.67812 C 60.2113 8.67812 55.9878 11.9925 55.9878 16.082 C 55.9878 20.1715 60.2113 23.4859 65.4215 23.4859 C 70.6302 23.4859 74.8537 20.1715 74.8537 16.082 C 74.8537 11.9925 70.6302 8.67812 65.4215 8.67812 Z" fill="#7688ff"/>
      </g>
      <g id="Graphic_8">
        <path d="M 74.6 16.275 C 74.6 20.4038 70.3801 23.75 65.1758 23.75 C 59.9699 23.75 55.75 20.4038 55.75 16.275 C 55.75 12.1463 59.9699 8.8 65.1758 8.8 C 70.3801 8.8 74.6 12.1463 74.6 16.275 Z" stroke="#161f31" stroke-linecap="butt" stroke-linejoin="round" stroke-width="1.5"/>
      </g>
      <g id="Graphic_9">
        <path d="M 74.9572 29.7621 C 72.2146 30.8726 69.0903 31.5015 65.7775 31.5015 C 54.8547 31.5015 46 24.6729 46 16.2508 C 46 7.82859 54.8547 1 65.7775 1 C 76.7002 1 85.5549 7.82859 85.5549 16.2508 C 85.5549 18.9807 84.6244 21.542 82.9963 23.7584 L 89.8382 28.7215 C 90.8638 29.5038 91.5 30.5885 91.5 31.7886 C 91.5 34.1707 88.9966 36.1 85.9075 36.1 C 84.3868 36.1 83.0086 35.6321 81.9999 34.8725 Z" stroke="#161f31" stroke-linecap="butt" stroke-linejoin="round" stroke-width="1.5"/>
      </g>
      <g id="Graphic_10">
        <path d="M 91.0071 38.4801 C 91.3228 39.0185 91.5 39.6161 91.5 40.2455 C 91.5 42.6222 88.9845 44.55 85.882 44.55 C 84.3539 44.55 82.9675 44.0828 81.9539 43.3245 L 74.8771 38.2222 C 72.1213 39.331 68.9834 39.9574 65.6529 39.9574 C 55.6832 39.9574 47.428 34.3334 46 27" stroke="#161f31" stroke-linecap="butt" stroke-linejoin="round" stroke-width="1.5"/>
      </g>
      <g id="Graphic_11">
        <path d="M 91.0071 46.9301 C 91.3228 47.4685 91.5 48.0661 91.5 48.6955 C 91.5 51.0722 88.9845 53 85.882 53 C 84.3539 53 82.9675 52.5328 81.9539 51.7745 L 74.8771 46.6722 C 72.1213 47.7809 68.9834 48.4073 65.6529 48.4073 C 55.6832 48.4073 47.428 42.7833 46 35.45" stroke="#161f31" stroke-linecap="butt" stroke-linejoin="round" stroke-width="1.5"/>
      </g>
      <g id="Graphic_12">
        <path d="M 100.51896 112.37844 L 56.62195 112.37844 C 53.41886 112.37844 50.821206 109.78194 50.821206 106.5777 L 50.821206 73.4" stroke="#161f31" stroke-linecap="butt" stroke-linejoin="round" stroke-width="1.5"/>
      </g>
      <g id="Graphic_13">
        <path d="M 55.224876 97.49203 L 60.0411 102.37995 L 71.381355 90.87015 L 77.129255 96.70339 L 90.48964 83.14466 L 90.48964 107.99397 L 55.224876 107.83367 Z" fill="#7688ff"/>
      </g>
      <g id="Graphic_14">
        <path d="M 44 80.22129 L 50.577673 73.4 L 57.155346 80.22129" stroke="#161f31" stroke-linecap="butt" stroke-linejoin="round" stroke-width="1.5"/>
      </g>
      <g id="Graphic_15">
        <path d="M 93.69829 106.04483 L 100.51896 112.62242 L 93.69829 119.2" stroke="#161f31" stroke-linecap="butt" stroke-linejoin="round" stroke-width="1.5"/>
      </g>
      <g id="Graphic_16">
        <path d="M 55.20638 97.31826 L 59.997324 102.14655 L 71.279186 90.77687 L 76.99626 96.53957 L 90.28707 83.14466" stroke="#161f31" stroke-linecap="butt" stroke-linejoin="round" stroke-width="1.5"/>
      </g>
      <g id="Graphic_17">
        <path d="M 127.83 29.2128 L 125.304 29.2128 L 123.958 34.7447 L 125.837 34.7447 Z" fill="#161f31"/>
      </g>
      <g id="Graphic_18">
        <path d="M 127.49 21.6378 C 127.49 20.7683 126.785 20.0625 125.915 20.0625 C 125.045 20.0625 124.341 20.7683 124.341 21.6378 C 124.341 22.5091 125.045 23.2149 125.915 23.2149 C 126.785 23.2149 127.49 22.5091 127.49 21.6378 Z" fill="#161f31"/>
      </g>
      <g id="Graphic_19">
        <path d="M 131.872 1 C 128.582 1 125.915 3.67161 125.915 6.96721 L 125.915 11.2295" stroke="#161f31" stroke-linecap="butt" stroke-linejoin="round" stroke-width="1.5"/>
      </g>
      <g id="Graphic_20">
        <path d="M 151.447 1 L 151.447 12.9344 C 151.447 16.23 154.114 18.9016 157.404 18.9016 L 169.319 18.9016" fill="#7688ff"/>
      </g>
      <g id="Graphic_21">
        <path d="M 151.447 1 L 151.447 12.9344 C 151.447 16.23 154.114 18.9016 157.404 18.9016 L 169.319 18.9016" stroke="#161f31" stroke-linecap="butt" stroke-linejoin="round" stroke-width="1.5"/>
      </g>
      <g id="Graphic_22">
        <path d="M 131.872 1 L 152.298 1 L 169.319 18.0492 L 169.319 47.0328 C 169.319 50.3284 166.652 53 163.362 53 L 131.872 53 C 128.582 53 125.915 50.3284 125.915 47.0328 L 125.915 43.623" stroke="#161f31" stroke-linecap="butt" stroke-linejoin="round" stroke-width="1.5"/>
      </g>
      <g id="Graphic_23">
        <path d="M 138.681 26.5738 C 136.8 26.5738 135.277 25.0479 135.277 23.1639 L 135.277 18.0492 C 135.277 16.1652 133.753 14.6393 131.872 14.6393" stroke="#161f31" stroke-linecap="butt" stroke-linejoin="round" stroke-width="1.5"/>
      </g>
      <g id="Graphic_24">
        <path d="M 138.681 26.5738 C 136.8 26.5738 135.277 28.0997 135.277 29.9836 L 135.277 35.0984 C 135.277 36.9823 133.753 38.5082 131.872 38.5082" stroke="#161f31" stroke-linecap="butt" stroke-linejoin="round" stroke-width="1.5"/>
      </g>
      <g id="Graphic_25">
        <path d="M 114 26.5738 C 115.881 26.5738 117.404 28.0997 117.404 29.9836 L 117.404 35.0984 C 117.404 36.9823 118.928 38.5082 120.809 38.5082" stroke="#161f31" stroke-linecap="butt" stroke-linejoin="round" stroke-width="1.5"/>
      </g>
      <g id="Graphic_26">
        <path d="M 114 26.5738 C 115.881 26.5738 117.404 25.0479 117.404 23.1639 L 117.404 18.0492 C 117.404 16.1652 118.928 14.6393 120.809 14.6393" stroke="#161f31" stroke-linecap="butt" stroke-linejoin="round" stroke-width="1.5"/>
      </g>
    </g>
  </g>
</svg>
