<svg width="41" height="39" viewBox="0 0 41 39" fill="none" xmlns="http://www.w3.org/2000/svg">
<path d="M16.85 21.79C6.61 21.79 0 18.89 0 14.41V6.63H1V14.41C1 18.23 7.37 20.79 16.85 20.79C26.33 20.79 32.7 18.23 32.7 14.41V6.63H33.7V14.41C33.7 18.89 27.09 21.79 16.85 21.79Z" fill="#5961FF"/>
<path d="M16.85 13.27C7.4 13.27 0 10.35 0 6.63C0 2.91 7.4 0 16.85 0C26.3 0 33.7 2.91 33.7 6.63C33.7 10.35 26.3 13.27 16.85 13.27ZM16.85 1C7.37 1 1 3.91 1 6.63C1 9.35 7.37 12.27 16.85 12.27C26.33 12.27 32.7 9.35 32.7 6.63C32.7 3.91 26.33 1 16.85 1Z" fill="#5961FF"/>
<path d="M25.43 29.42C22.6094 30.0132 19.7321 30.2949 16.85 30.26C6.61 30.26 0 27.37 0 22.89V12.54H1V22.89C1 26.7 7.37 29.26 16.85 29.26C19.6714 29.2913 22.4879 29.0164 25.25 28.44" fill="#5961FF"/>
<path d="M32.7 22.35V12.54H33.7V22.35" fill="#5961FF"/>
<path d="M30.18 36.34C27.25 37.95 22.63 38.87 16.85 38.87C6.61 38.87 0 36 0 31.5V21.15H1V31.5C1 35.31 7.37 37.87 16.85 37.87C22.34 37.87 26.78 37.02 29.55 35.55" fill="#5961FF"/>
<path d="M32.7 22.35V21.15H33.7V22.35" fill="#5961FF"/>
<path d="M32.82 38.37L32.6 38.27C29.5823 36.8284 27.1528 34.3919 25.72 31.37C24.4237 28.5557 24.0899 25.3929 24.77 22.37L24.85 21.99L40.39 21.69L40.49 22.07C41.2897 25.0273 41.0929 28.1657 39.93 31C38.573 34.1778 36.1113 36.7568 33 38.26L32.82 38.37ZM25.66 23C25.1482 25.7056 25.4979 28.5036 26.66 31C27.9657 33.7321 30.1435 35.9521 32.85 37.31C35.621 35.8797 37.7988 33.5178 39 30.64C40.036 28.1313 40.253 25.3594 39.62 22.72L25.66 23Z" fill="#5961FF"/>
<path d="M33.1099 32.62L29.8199 29.1L30.5499 28.42L32.9499 30.98L36.4399 25.41L37.2899 25.94L33.1099 32.62Z" fill="#5961FF"/>
</svg>
