<svg width="55" height="40" viewBox="0 0 55 40" fill="none" xmlns="http://www.w3.org/2000/svg">
<path d="M49.7131 11.9582H3.18297C2.34631 11.9557 1.54405 11.6249 0.948786 11.037C0.353523 10.4491 0.0128286 9.65095 0 8.81438L0 3.18297C0.00258312 2.33959 0.33876 1.53149 0.935124 0.935124C1.53149 0.33876 2.33959 0.00258312 3.18297 0L49.7131 0C50.5548 0.00515988 51.3604 0.342474 51.9547 0.938561C52.5489 1.53465 52.8837 2.34128 52.8863 3.18297V8.81438C52.8735 9.64926 52.5342 10.4459 51.941 11.0336C51.3479 11.6212 50.5481 11.9532 49.7131 11.9582ZM3.18297 0.979376C2.59854 0.979376 2.03805 1.21154 1.62479 1.62479C1.21154 2.03805 0.979376 2.59854 0.979376 3.18297V8.81438C0.979376 9.39881 1.21154 9.95931 1.62479 10.3726C2.03805 10.7858 2.59854 11.018 3.18297 11.018H49.7131C50.2958 11.0154 50.8538 10.7821 51.265 10.3691C51.6761 9.95613 51.9069 9.39712 51.9069 8.81438V3.18297C51.9069 2.60023 51.6761 2.04122 51.265 1.62825C50.8538 1.21527 50.2958 0.981966 49.7131 0.979376H3.18297Z" fill="#5961FF"/>
<path d="M5.22019 8.11901C4.79557 8.11901 4.3805 7.99297 4.02757 7.75685C3.67465 7.52074 3.39975 7.18518 3.2377 6.79269C3.07566 6.40021 3.03376 5.96845 3.11731 5.55213C3.20087 5.13581 3.40612 4.75365 3.70706 4.45409C4.008 4.15452 4.39109 3.95102 4.80779 3.86937C5.22449 3.78772 5.65605 3.8316 6.04779 3.99544C6.43953 4.15928 6.77383 4.43571 7.00832 4.78971C7.24282 5.14371 7.36696 5.55935 7.36502 5.98397C7.36243 6.55112 7.13532 7.09415 6.73336 7.49427C6.33141 7.89439 5.78734 8.11902 5.22019 8.11901ZM5.22019 4.81852C4.98968 4.81852 4.76436 4.88687 4.5727 5.01493C4.38104 5.14299 4.23166 5.32501 4.14345 5.53797C4.05524 5.75093 4.03216 5.98527 4.07713 6.21134C4.1221 6.43742 4.2331 6.64508 4.39609 6.80808C4.55908 6.97107 4.76674 7.08207 4.99282 7.12704C5.2189 7.17201 5.45323 7.14893 5.66619 7.06072C5.87915 6.97251 6.06117 6.82313 6.18923 6.63147C6.31729 6.43981 6.38565 6.21448 6.38565 5.98397C6.38695 5.83056 6.3577 5.67842 6.29959 5.53643C6.24148 5.39444 6.15569 5.26544 6.0472 5.15696C5.93872 5.04848 5.80972 4.96268 5.66773 4.90457C5.52574 4.84646 5.3736 4.81721 5.22019 4.81852Z" fill="#5961FF"/>
<path d="M49.7131 22.937H3.18297C2.33959 22.9344 1.53149 22.5982 0.935124 22.0019C0.33876 21.4055 0.00258312 20.5974 0 19.754L0 14.1618C0.00258312 13.3184 0.33876 12.5103 0.935124 11.9139C1.53149 11.3176 2.33959 10.9814 3.18297 10.9788H49.7131C50.5548 10.984 51.3604 11.3213 51.9547 11.9174C52.5489 12.5135 52.8837 13.3201 52.8863 14.1618V19.754C52.8837 20.5957 52.5489 21.4024 51.9547 21.9984C51.3604 22.5945 50.5548 22.9318 49.7131 22.937ZM3.18297 11.9582C2.59854 11.9582 2.03805 12.1904 1.62479 12.6036C1.21154 13.0169 0.979376 13.5774 0.979376 14.1618V19.754C0.979376 20.3385 1.21154 20.899 1.62479 21.3122C2.03805 21.7255 2.59854 21.9576 3.18297 21.9576H49.7131C50.2958 21.955 50.8538 21.7217 51.265 21.3088C51.6761 20.8958 51.9069 20.3368 51.9069 19.754V14.1618C51.9069 13.5774 51.6748 13.0169 51.2615 12.6036C50.8483 12.1904 50.2878 11.9582 49.7033 11.9582H3.18297Z" fill="#5961FF"/>
<path d="M5.22019 19.0978C4.79557 19.0978 4.3805 18.9718 4.02757 18.7357C3.67465 18.4996 3.39975 18.164 3.2377 17.7715C3.07566 17.379 3.03376 16.9473 3.11731 16.5309C3.20087 16.1146 3.40612 15.7325 3.70706 15.4329C4.008 15.1333 4.39109 14.9298 4.80779 14.8482C5.22449 14.7665 5.65605 14.8104 6.04779 14.9743C6.43953 15.1381 6.77383 15.4145 7.00832 15.7685C7.24282 16.1225 7.36696 16.5382 7.36502 16.9628C7.36243 17.5299 7.13532 18.073 6.73336 18.4731C6.33141 18.8732 5.78734 19.0978 5.22019 19.0978ZM5.22019 15.7973C4.98968 15.7973 4.76436 15.8657 4.5727 15.9938C4.38104 16.1218 4.23166 16.3038 4.14345 16.5168C4.05524 16.7298 4.03216 16.9641 4.07713 17.1902C4.1221 17.4162 4.2331 17.6239 4.39609 17.7869C4.55908 17.9499 4.76674 18.0609 4.99282 18.1059C5.2189 18.1508 5.45323 18.1277 5.66619 18.0395C5.87915 17.9513 6.06117 17.8019 6.18923 17.6103C6.31729 17.4186 6.38565 17.1933 6.38565 16.9628C6.38565 16.6537 6.26286 16.3573 6.04429 16.1387C5.82573 15.9201 5.52929 15.7973 5.22019 15.7973Z" fill="#5961FF"/>
<path d="M5.21997 30.0766C4.79812 30.0747 4.3863 29.9478 4.03649 29.7121C3.68667 29.4763 3.41455 29.1422 3.25445 28.7519C3.09436 28.3616 3.05347 27.9326 3.13695 27.5191C3.22044 27.1056 3.42455 26.7261 3.72352 26.4285C4.0225 26.1309 4.40294 25.9285 4.81683 25.8469C5.23072 25.7653 5.6595 25.8082 6.04906 25.97C6.43861 26.1319 6.77149 26.4056 7.00566 26.7565C7.23983 27.1073 7.3648 27.5197 7.36481 27.9416C7.36222 28.5087 7.1351 29.0518 6.73315 29.4519C6.33119 29.852 5.78713 30.0766 5.21997 30.0766ZM5.21997 26.7859C4.99183 26.7879 4.76937 26.8573 4.58061 26.9854C4.39186 27.1136 4.24526 27.2948 4.15929 27.5061C4.07332 27.7174 4.05182 27.9495 4.09752 28.173C4.14321 28.3965 4.25404 28.6015 4.41604 28.7622C4.57805 28.9228 4.78398 29.0319 5.00789 29.0757C5.23179 29.1195 5.46365 29.0961 5.67425 29.0083C5.88485 28.9206 6.06477 28.7724 6.19133 28.5826C6.31788 28.3928 6.38542 28.1697 6.38543 27.9416C6.38544 27.789 6.35522 27.6379 6.29653 27.4971C6.23784 27.3562 6.15184 27.2284 6.04349 27.1209C5.93514 27.0135 5.80658 26.9286 5.66523 26.8711C5.52389 26.8136 5.37256 26.7846 5.21997 26.7859Z" fill="#5961FF"/>
<path d="M30.1256 32.9364H3.18297C2.59854 32.9364 2.03805 32.7042 1.62479 32.291C1.21154 31.8777 0.979376 31.3172 0.979376 30.7328V25.1406C0.979376 24.5561 1.21154 23.9956 1.62479 23.5824C2.03805 23.1691 2.59854 22.937 3.18297 22.937H49.7131C50.2547 22.9363 50.7775 23.1359 51.1807 23.4976C51.5839 23.8592 51.8391 24.3572 51.8971 24.8957H52.8765C52.815 24.098 52.4553 23.3528 51.8691 22.8083C51.2829 22.2639 50.5132 21.9601 49.7131 21.9576H3.18297C2.33959 21.9602 1.53149 22.2963 0.935124 22.8927C0.33876 23.4891 0.00258312 24.2972 0 25.1406L0 30.7328C0.00258312 31.5762 0.33876 32.3843 0.935124 32.9806C1.53149 33.577 2.33959 33.9132 3.18297 33.9158H30.1256V32.9364Z" fill="#5961FF"/>
<path d="M39.4199 38.2348L34.2585 33.1323L39.4199 28.0297L40.1054 28.7251L35.6493 33.1323L40.1054 37.5395L39.4199 38.2348Z" fill="#5961FF"/>
<path d="M49.3801 38.2348L48.6848 37.5395L53.1409 33.1323L48.6848 28.7251L49.3801 28.0297L54.5316 33.1323L49.3801 38.2348Z" fill="#5961FF"/>
<path d="M45.7538 26.1581L42.0828 39.7446L43.0283 40L46.6993 26.4136L45.7538 26.1581Z" fill="#5961FF"/>
</svg>
