<svg viewBox="0 0 147 126" fill="none" xmlns="http://www.w3.org/2000/svg">
<path d="M140.708 96.7107C132.898 100.781 92.4176 117.431 83.7076 122.001C74.9976 126.571 70.3176 126.441 63.4976 123.191C56.6776 119.941 13.6976 102.461 5.92758 98.7507C2.04758 96.9007 0.00756836 95.3407 0.00756836 93.8607V79.0508C0.00756836 79.0508 56.0876 66.8807 65.1376 63.6107C74.1876 60.3407 77.3176 60.2406 85.0276 63.0606C92.7376 65.8806 138.798 74.2007 146.408 76.9807V91.5606C146.408 93.0806 144.658 94.5606 140.668 96.6907L140.708 96.7107Z" fill="#A32422"/>
<path d="M140.708 81.9108C132.898 85.9808 92.4176 102.631 83.7076 107.121C74.9976 111.611 70.3176 111.561 63.4976 108.321C56.6776 105.081 13.6976 87.6507 5.92759 83.9507C-1.84241 80.2507 -2.0024 77.6807 5.6176 74.7007C13.2376 71.7207 56.0876 54.9207 65.1376 51.7007C74.1876 48.4807 77.3176 48.3408 85.0276 51.1708C92.7376 54.0008 132.968 70.0108 140.578 72.7908C148.188 75.5708 148.488 77.8808 140.668 81.9208L140.708 81.9108Z" fill="#DC382C"/>
<path d="M140.708 72.5807C132.898 76.6507 92.4176 93.3008 83.7076 97.7908C74.9976 102.281 70.3176 102.231 63.4976 98.9907C56.6776 95.7507 13.6976 78.3407 5.92758 74.6207C2.04758 72.7707 0.00756836 71.2007 0.00756836 69.7207V54.9306C0.00756836 54.9306 56.0876 42.7607 65.1376 39.4707C74.1876 36.1807 77.3176 36.1107 85.0276 38.9407C92.7376 41.7707 138.798 50.0607 146.408 52.8507V67.4907C146.488 68.9607 144.698 70.4907 140.708 72.5807Z" fill="#A32422"/>
<path d="M140.708 57.7808C132.898 61.8608 92.4176 78.4907 83.7076 82.9807C74.9976 87.4707 70.3176 87.4407 63.4976 84.1807C56.6776 80.9207 13.6976 63.5307 5.92759 59.8207C-1.84241 56.1107 -2.0024 53.5607 5.6176 50.5807C13.2376 47.6007 56.0876 30.8007 65.1376 27.5807C74.1876 24.3607 77.3176 24.2208 85.0276 27.0308C92.7376 29.8408 132.968 45.9508 140.578 48.6608C148.188 51.3708 148.488 53.7408 140.668 57.7908L140.708 57.7808Z" fill="#DC382C"/>
<path d="M140.708 47.5508C132.898 51.6308 92.4176 68.2808 83.7076 72.7708C74.9976 77.2608 70.3176 77.2107 63.4976 73.9507C56.6776 70.6907 13.6976 53.3007 5.92758 49.5907C2.04758 47.7507 0.00756836 46.1807 0.00756836 44.7007V29.9008C0.00756836 29.9008 56.0876 17.7207 65.1376 14.4507C74.1876 11.1807 77.3176 11.0908 85.0276 13.9008C92.7376 16.7108 138.798 25.0407 146.408 27.8307V42.4208C146.488 43.9408 144.698 45.4908 140.708 47.5508Z" fill="#A32422"/>
<path d="M140.708 32.7607C132.898 36.7607 92.4176 53.5206 83.7076 57.9606C74.9976 62.4006 70.3176 62.4007 63.4976 59.1607C56.6776 55.9207 13.6976 38.5007 5.92759 34.8007C-1.84241 31.1007 -2.0024 28.5307 5.6176 25.5407C13.2376 22.5507 56.0876 5.76072 65.1376 2.54072C74.1876 -0.679276 77.3176 -0.819305 85.0276 2.01069C92.7376 4.84069 132.968 20.8507 140.578 23.6407C148.188 26.4307 148.488 28.7207 140.668 32.7707L140.708 32.7607Z" fill="#DC382C"/>
<path d="M140.708 96.7107C132.898 100.781 92.4176 117.431 83.7076 122.001C74.9976 126.571 70.3176 126.441 63.4976 123.191C56.6776 119.941 13.6976 102.461 5.92758 98.7507C2.04758 96.9007 0.00756836 95.3407 0.00756836 93.8607V79.0508C0.00756836 79.0508 56.0876 66.8807 65.1376 63.6107C74.1876 60.3407 77.3176 60.2406 85.0276 63.0606C92.7376 65.8806 138.798 74.2007 146.408 76.9807V91.5606C146.408 93.0806 144.658 94.5606 140.668 96.6907L140.708 96.7107Z" fill="#A32422"/>
<path d="M140.708 81.9108C132.898 85.9808 92.4176 102.631 83.7076 107.121C74.9976 111.611 70.3176 111.561 63.4976 108.321C56.6776 105.081 13.6976 87.6507 5.92759 83.9507C-1.84241 80.2507 -2.0024 77.6807 5.6176 74.7007C13.2376 71.7207 56.0876 54.9207 65.1376 51.7007C74.1876 48.4807 77.3176 48.3408 85.0276 51.1708C92.7376 54.0008 132.968 70.0108 140.578 72.7908C148.188 75.5708 148.488 77.8808 140.668 81.9208L140.708 81.9108Z" fill="#DC382C"/>
<path d="M140.708 72.5807C132.898 76.6507 92.4176 93.3008 83.7076 97.7908C74.9976 102.281 70.3176 102.231 63.4976 98.9907C56.6776 95.7507 13.6976 78.3407 5.92758 74.6207C2.04758 72.7707 0.00756836 71.2007 0.00756836 69.7207V54.9306C0.00756836 54.9306 56.0876 42.7607 65.1376 39.4707C74.1876 36.1807 77.3176 36.1107 85.0276 38.9407C92.7376 41.7707 138.798 50.0607 146.408 52.8507V67.4907C146.488 68.9607 144.698 70.4907 140.708 72.5807Z" fill="#A32422"/>
<path d="M140.708 57.7808C132.898 61.8608 92.4176 78.4907 83.7076 82.9807C74.9976 87.4707 70.3176 87.4407 63.4976 84.1807C56.6776 80.9207 13.6976 63.5307 5.92759 59.8207C-1.84241 56.1107 -2.0024 53.5607 5.6176 50.5807C13.2376 47.6007 56.0876 30.8007 65.1376 27.5807C74.1876 24.3607 77.3176 24.2208 85.0276 27.0308C92.7376 29.8408 132.968 45.9508 140.578 48.6608C148.188 51.3708 148.488 53.7408 140.668 57.7908L140.708 57.7808Z" fill="#DC382C"/>
<path d="M140.708 47.5508C132.898 51.6308 92.4176 68.2808 83.7076 72.7708C74.9976 77.2608 70.3176 77.2107 63.4976 73.9507C56.6776 70.6907 13.6976 53.3007 5.92758 49.5907C2.04758 47.7507 0.00756836 46.1807 0.00756836 44.7007V29.9008C0.00756836 29.9008 56.0876 17.7207 65.1376 14.4507C74.1876 11.1807 77.3176 11.0908 85.0276 13.9008C92.7376 16.7108 138.798 25.0407 146.408 27.8307V42.4208C146.488 43.9408 144.698 45.4908 140.708 47.5508Z" fill="#A32422"/>
<path d="M140.708 32.7607C132.898 36.7607 92.4176 53.5206 83.7076 57.9606C74.9976 62.4006 70.3176 62.4007 63.4976 59.1607C56.6776 55.9207 13.6976 38.5007 5.92759 34.8007C-1.84241 31.1007 -2.0024 28.5307 5.6176 25.5407C13.2376 22.5507 56.0876 5.76072 65.1376 2.54072C74.1876 -0.679276 77.3176 -0.819305 85.0276 2.01069C92.7376 4.84069 132.968 20.8507 140.578 23.6407C148.188 26.4307 148.488 28.7207 140.668 32.7707L140.708 32.7607Z" fill="#DC382C"/>
<path d="M75.5476 11.7307L85.2076 8.5607L82.5876 14.8207L92.4176 18.5007L79.7476 19.8207L76.8976 26.6607L72.3176 19.0307L57.6676 17.7107L68.6076 13.7707L65.3176 7.71069L75.5476 11.7307Z" fill="white"/>
<path d="M76.1575 51.6607L52.4775 41.8307L86.3975 36.6307L76.1575 51.6607Z" fill="white"/>
<path d="M43.3276 22.3008C53.3276 22.3008 61.4476 25.4508 61.4476 29.3008C61.4476 33.1508 53.3076 36.3008 43.3276 36.3008C33.3476 36.3008 25.1876 33.1508 25.1876 29.3008C25.1876 25.4508 33.3176 22.3008 43.3276 22.3008Z" fill="white"/>
<path d="M107.428 20.3707L127.498 28.3007L107.448 36.2307L107.428 20.3707Z" fill="#741113"/>
<path d="M107.428 20.3707L107.448 36.2307L105.268 37.0807L85.2075 29.1507L107.428 20.3707Z" fill="#AC2724"/>
</svg>
