<svg width="60" height="59" viewBox="0 0 60 59" fill="none" xmlns="http://www.w3.org/2000/svg">
<path d="M0.990601 12.5233L33.1626 26.3743V7.71748L39.9202 4.27572L32.3441 0.0784602C32.2435 0.0268928 32.132 0 32.0188 0C31.9057 0 31.7942 0.0268928 31.6936 0.0784602L0.990601 12.5233Z" fill="#DD392B"/>
<path d="M1.03247 25.4719L33.2255 39.4907V20.8339L37.6116 17.0354L32.6378 12.6282L1.03247 25.4719Z" fill="#DD392B"/>
<path d="M0.927734 39.2389L33.1207 53.2578V34.601L37.0871 29.8581L32.5121 26.3953L0.927734 39.2389Z" fill="#DD392B"/>
<path d="M32.449 50.6764V46.1014C32.4501 45.9557 32.4091 45.8129 32.3309 45.69C32.2527 45.5672 32.1407 45.4695 32.0083 45.4088L0.990529 31.6418C0.856472 31.5834 0.742913 31.4862 0.664398 31.3628C0.585883 31.2395 0.545986 31.0955 0.549816 30.9493V26.1854C0.55039 26.061 0.581663 25.9387 0.640859 25.8293C0.700054 25.7199 0.785342 25.6268 0.88915 25.5583C0.992959 25.4898 1.11208 25.448 1.23593 25.4365C1.35978 25.4251 1.48454 25.4445 1.59913 25.4928L31.3997 38.4833C31.5143 38.5317 31.639 38.5511 31.7629 38.5396C31.8867 38.5282 32.0059 38.4864 32.1097 38.4179C32.2135 38.3494 32.2988 38.2563 32.358 38.1469C32.4172 38.0375 32.4484 37.9152 32.449 37.7908V33.5096C32.4542 33.3604 32.4124 33.2133 32.3296 33.089C32.2468 32.9648 32.127 32.8697 31.9873 32.817L1.01152 19.1969C0.87177 19.1443 0.752052 19.0492 0.669224 18.925C0.586396 18.8007 0.544633 18.6536 0.549816 18.5044V13.1529C0.560129 13.0339 0.598493 12.9191 0.661762 12.8178C0.725031 12.7165 0.811403 12.6317 0.913795 12.5703C1.01619 12.5088 1.13168 12.4726 1.25081 12.4644C1.36994 12.4562 1.48931 12.4764 1.59913 12.5233L31.6935 25.6187C31.8081 25.6671 31.9328 25.6864 32.0567 25.675C32.1805 25.6636 32.2997 25.6218 32.4035 25.5533C32.5073 25.4847 32.5926 25.3917 32.6518 25.2823C32.711 25.1729 32.7422 25.0506 32.7428 24.9262V7.82235C32.7438 7.68254 32.7835 7.54574 32.8576 7.42717C32.9317 7.30861 33.0373 7.21293 33.1625 7.15079L39.1646 4.2337C39.2794 4.17674 39.4068 4.14992 39.5348 4.15575C39.6628 4.16158 39.7872 4.19988 39.8964 4.26704C40.0055 4.3342 40.0958 4.42802 40.1587 4.53966C40.2216 4.65131 40.255 4.77712 40.2559 4.90526V55.0415C40.2535 55.1919 40.2063 55.3381 40.1203 55.4615C40.0343 55.5849 39.9135 55.6798 39.7732 55.7341L32.9107 58.5253C32.727 58.5876 32.5278 58.5876 32.3441 58.5253L1.0325 45.9335C0.880247 45.8718 0.751493 45.7633 0.664759 45.6238C0.578025 45.4843 0.537781 45.3208 0.549816 45.157V39.8055C0.551964 39.6811 0.583945 39.5591 0.643068 39.4497C0.702191 39.3403 0.786728 39.2467 0.889564 39.1768C0.9924 39.1069 1.11053 39.0627 1.23401 39.0479C1.35749 39.0331 1.48271 39.0482 1.59913 39.0919L31.3997 51.285C31.508 51.3316 31.6257 51.3522 31.7433 51.3452C31.861 51.3382 31.9754 51.3037 32.0774 51.2446C32.1794 51.1854 32.2661 51.1032 32.3306 51.0046C32.3951 50.9059 32.4357 50.7935 32.449 50.6764V50.6764Z" fill="#A42523"/>
<path d="M41.6201 53.7404V19.05L48.6715 16.049C48.7861 16.0006 48.9108 15.9813 49.0347 15.9927C49.1586 16.0041 49.2777 16.0459 49.3815 16.1145C49.4853 16.183 49.5706 16.2761 49.6298 16.3854C49.689 16.4948 49.7202 16.6171 49.7208 16.7415L49.9097 51.306C49.9132 51.4631 49.8661 51.6173 49.7754 51.7457C49.6848 51.8742 49.5553 51.9701 49.406 52.0195L42.6274 54.4959C42.51 54.5377 42.384 54.5497 42.2607 54.5309C42.1375 54.5122 42.0208 54.4632 41.921 54.3884C41.8213 54.3136 41.7416 54.2153 41.6891 54.1022C41.6366 53.9892 41.6129 53.8648 41.6201 53.7404V53.7404Z" fill="#A42523"/>
<path d="M41.6201 19.0501V13.4048C41.6207 13.2804 41.652 13.1581 41.7112 13.0487C41.7704 12.9393 41.8556 12.8462 41.9595 12.7777C42.0633 12.7092 42.1824 12.6674 42.3062 12.656C42.4301 12.6445 42.5548 12.6639 42.6694 12.7122L49.3221 16.0701L41.6201 19.0501Z" fill="#DD392B"/>
<path d="M51.2948 50.4455V28.6827L58.3462 25.6607C58.4608 25.6123 58.5855 25.593 58.7094 25.6044C58.8333 25.6158 58.9524 25.6576 59.0562 25.7262C59.16 25.7947 59.2453 25.8877 59.3045 25.9971C59.3637 26.1065 59.3949 26.2288 59.3955 26.3532L59.5844 48.0321C59.5878 48.1892 59.5408 48.3434 59.4501 48.4718C59.3595 48.6003 59.23 48.6962 59.0807 48.7456L52.3021 51.159C52.1881 51.1994 52.066 51.2117 51.9462 51.195C51.8264 51.1784 51.7123 51.1332 51.6136 51.0632C51.5149 50.9933 51.4344 50.9007 51.3789 50.7932C51.3235 50.6857 51.2946 50.5665 51.2948 50.4455V50.4455Z" fill="#A42523"/>
<path d="M51.2948 28.6827V23.0164C51.2915 22.8928 51.3195 22.7704 51.3761 22.6605C51.4327 22.5506 51.5162 22.4568 51.6187 22.3877C51.7213 22.3187 51.8396 22.2766 51.9627 22.2655C52.0858 22.2543 52.2098 22.2744 52.3231 22.3239L58.9967 25.6817L51.2948 28.6827Z" fill="#DD392B"/>
</svg>
