<svg class="railroad-diagram" viewBox="0 0 712.0 249" xmlns="http://www.w3.org/2000/svg" xmlns:xlink="http://www.w3.org/1999/xlink">
<g transform="translate(.5 .5)">
<g>
<path d="M20 51v20m10 -20v20m-10 -10h20"></path></g><path d="M40 61h10"></path><g>
<path d="M50 61h0.0"></path><path d="M50.0 61h10"></path><g>
<path d="M60.0 61h10.25"></path><path d="M641.75 61h10.25"></path><g class="terminal ">
<path d="M70.25 61h0.0"></path><path d="M149.75 61h0.0"></path><rect height="22" rx="10" ry="10" width="79.5" x="70.25" y="50"></rect><text x="110.0" y="65">MIGRATE</text></g><path d="M149.75 61h10"></path><path d="M159.75 61h10"></path><g class="non-terminal ">
<path d="M169.75 61h0.0"></path><path d="M223.75 61h0.0"></path><rect height="22" width="54.0" x="169.75" y="50"></rect><text x="196.75" y="65">host</text><title>string</title></g><path d="M223.75 61h10"></path><path d="M233.75 61h10"></path><g class="non-terminal ">
<path d="M243.75 61h0.0"></path><path d="M297.75 61h0.0"></path><rect height="22" width="54.0" x="243.75" y="50"></rect><text x="270.75" y="65">port</text><title>integer</title></g><path d="M297.75 61h10"></path><g>
<path d="M307.75 61h0.0"></path><path d="M393.25 61h0.0"></path><path d="M307.75 61a10 10 0 0 0 10 -10v-10a10 10 0 0 1 10 -10"></path><g class="non-terminal ">
<path d="M327.75 31h0.0"></path><path d="M373.25 31h0.0"></path><rect height="22" width="45.5" x="327.75" y="20"></rect><text x="350.5" y="35">key</text><title>key</title></g><path d="M373.25 31a10 10 0 0 1 10 10v10a10 10 0 0 0 10 10"></path><path d="M307.75 61h20"></path><g class="terminal ">
<path d="M327.75 61h4.25"></path><path d="M369.0 61h4.25"></path><rect height="22" rx="10" ry="10" width="37.0" x="332.0" y="50"></rect><text x="350.5" y="65">""</text></g><path d="M373.25 61h20"></path></g><path d="M393.25 61h10"></path><g class="non-terminal ">
<path d="M403.25 61h0.0"></path><path d="M542.25 61h0.0"></path><rect height="22" width="139.0" x="403.25" y="50"></rect><text x="472.75" y="65">destination-db</text><title>integer</title></g><path d="M542.25 61h10"></path><path d="M552.25 61h10"></path><g class="non-terminal ">
<path d="M562.25 61h0.0"></path><path d="M641.75 61h0.0"></path><rect height="22" width="79.5" x="562.25" y="50"></rect><text x="602.0" y="65">timeout</text><title>integer</title></g></g><path d="M652.0 61a10 10 0 0 1 10 10v0a10 10 0 0 1 -10 10h-592.0a10 10 0 0 0 -10 10v0a10 10 0 0 0 10 10"></path><g>
<path d="M60.0 101h10.0"></path><path d="M642.0 101h10.0"></path><g>
<path d="M70.0 101h0.0"></path><path d="M164.0 101h0.0"></path><path d="M70.0 101h20"></path><g>
<path d="M90.0 101h54.0"></path></g><path d="M144.0 101h20"></path><path d="M70.0 101a10 10 0 0 1 10 10v0a10 10 0 0 0 10 10"></path><g class="terminal ">
<path d="M90.0 121h0.0"></path><path d="M144.0 121h0.0"></path><rect height="22" rx="10" ry="10" width="54.0" x="90.0" y="110"></rect><text x="117.0" y="125">COPY</text></g><path d="M144.0 121a10 10 0 0 0 10 -10v0a10 10 0 0 1 10 -10"></path></g><g>
<path d="M164.0 101h0.0"></path><path d="M283.5 101h0.0"></path><path d="M164.0 101h20"></path><g>
<path d="M184.0 101h79.5"></path></g><path d="M263.5 101h20"></path><path d="M164.0 101a10 10 0 0 1 10 10v0a10 10 0 0 0 10 10"></path><g class="terminal ">
<path d="M184.0 121h0.0"></path><path d="M263.5 121h0.0"></path><rect height="22" rx="10" ry="10" width="79.5" x="184.0" y="110"></rect><text x="223.75" y="125">REPLACE</text></g><path d="M263.5 121a10 10 0 0 0 10 -10v0a10 10 0 0 1 10 -10"></path></g><g>
<path d="M283.5 101h0.0"></path><path d="M642.0 101h0.0"></path><path d="M283.5 101h20"></path><g>
<path d="M303.5 101h318.5"></path></g><path d="M622.0 101h20"></path><path d="M283.5 101a10 10 0 0 1 10 10v29a10 10 0 0 0 10 10"></path><g>
<path d="M303.5 150h0.0"></path><path d="M622.0 150h0.0"></path><path d="M303.5 150a10 10 0 0 0 10 -10v-10a10 10 0 0 1 10 -10"></path><g>
<path d="M323.5 120h58.25"></path><path d="M543.75 120h58.25"></path><g class="terminal ">
<path d="M381.75 120h0.0"></path><path d="M435.75 120h0.0"></path><rect height="22" rx="10" ry="10" width="54.0" x="381.75" y="109"></rect><text x="408.75" y="124">AUTH</text></g><path d="M435.75 120h10"></path><path d="M445.75 120h10"></path><g class="non-terminal ">
<path d="M455.75 120h0.0"></path><path d="M543.75 120h0.0"></path><rect height="22" width="88.0" x="455.75" y="109"></rect><text x="499.75" y="124">password</text><title>string</title></g></g><path d="M602.0 120a10 10 0 0 1 10 10v10a10 10 0 0 0 10 10"></path><path d="M303.5 150h20"></path><g>
<path d="M323.5 150h0.0"></path><path d="M602.0 150h0.0"></path><g class="terminal ">
<path d="M323.5 150h0.0"></path><path d="M386.0 150h0.0"></path><rect height="22" rx="10" ry="10" width="62.5" x="323.5" y="139"></rect><text x="354.75" y="154">AUTH2</text></g><path d="M386.0 150h10"></path><path d="M396.0 150h10"></path><g>
<path d="M406.0 150h0.0"></path><path d="M602.0 150h0.0"></path><g class="non-terminal ">
<path d="M406.0 150h0.0"></path><path d="M494.0 150h0.0"></path><rect height="22" width="88.0" x="406.0" y="139"></rect><text x="450.0" y="154">username</text><title>string</title></g><path d="M494.0 150h10"></path><path d="M504.0 150h10"></path><g class="non-terminal ">
<path d="M514.0 150h0.0"></path><path d="M602.0 150h0.0"></path><rect height="22" width="88.0" x="514.0" y="139"></rect><text x="558.0" y="154">password</text><title>string</title></g></g></g><path d="M602.0 150h20"></path></g><path d="M622.0 150a10 10 0 0 0 10 -10v-29a10 10 0 0 1 10 -10"></path></g></g><path d="M652.0 101a10 10 0 0 1 10 10v48a10 10 0 0 1 -10 10h-592.0a10 10 0 0 0 -10 10v0a10 10 0 0 0 10 10"></path><g>
<path d="M60.0 189h243.25"></path><path d="M408.75 189h243.25"></path><g>
<path d="M303.25 189h0.0"></path><path d="M408.75 189h0.0"></path><path d="M303.25 189h20"></path><g>
<path d="M323.25 189h65.5"></path></g><path d="M388.75 189h20"></path><path d="M303.25 189a10 10 0 0 1 10 10v0a10 10 0 0 0 10 10"></path><g>
<path d="M323.25 209h0.0"></path><path d="M388.75 209h0.0"></path><path d="M323.25 209h10"></path><g class="non-terminal ">
<path d="M333.25 209h0.0"></path><path d="M378.75 209h0.0"></path><rect height="22" width="45.5" x="333.25" y="198"></rect><text x="356.0" y="213">key</text><title>key</title></g><path d="M378.75 209h10"></path><path d="M333.25 209a10 10 0 0 0 -10 10v0a10 10 0 0 0 10 10"></path><g>
<path d="M333.25 229h45.5"></path></g><path d="M378.75 229a10 10 0 0 0 10 -10v0a10 10 0 0 0 -10 -10"></path></g><path d="M388.75 209a10 10 0 0 0 10 -10v0a10 10 0 0 1 10 -10"></path></g></g><path d="M652.0 189h10"></path><path d="M662.0 189h0.0"></path></g><path d="M662.0 189h10"></path><path d="M 672.0 189 h 20 m -10 -10 v 20 m 10 -20 v 20"></path></g></svg>