<svg class="railroad-diagram" viewBox="0 0 546.0 289" xmlns="http://www.w3.org/2000/svg" xmlns:xlink="http://www.w3.org/1999/xlink">
<g transform="translate(.5 .5)">
<g>
<path d="M20 21v20m10 -20v20m-10 -10h20"></path></g><path d="M40 31h10"></path><g>
<path d="M50 31h0.0"></path><path d="M50.0 31h10"></path><g>
<path d="M60.0 31h10.0"></path><path d="M476.0 31h10.0"></path><g class="terminal ">
<path d="M70.0 31h0.0"></path><path d="M115.5 31h0.0"></path><rect height="22" rx="10" ry="10" width="45.5" x="70.0" y="20"></rect><text x="92.75" y="35">SET</text></g><path d="M115.5 31h10"></path><path d="M125.5 31h10"></path><g class="non-terminal ">
<path d="M135.5 31h0.0"></path><path d="M181.0 31h0.0"></path><rect height="22" width="45.5" x="135.5" y="20"></rect><text x="158.25" y="35">key</text><title>key</title></g><path d="M181.0 31h10"></path><path d="M191.0 31h10"></path><g class="non-terminal ">
<path d="M201.0 31h0.0"></path><path d="M263.5 31h0.0"></path><rect height="22" width="62.5" x="201.0" y="20"></rect><text x="232.25" y="35">value</text><title>string</title></g><path d="M263.5 31h10"></path><g>
<path d="M273.5 31h0.0"></path><path d="M390.5 31h0.0"></path><path d="M273.5 31h20"></path><g>
<path d="M293.5 31h77.0"></path></g><path d="M370.5 31h20"></path><path d="M273.5 31a10 10 0 0 1 10 10v29a10 10 0 0 0 10 10"></path><g>
<path d="M293.5 80h0.0"></path><path d="M370.5 80h0.0"></path><path d="M293.5 80a10 10 0 0 0 10 -10v-10a10 10 0 0 1 10 -10"></path><g class="terminal ">
<path d="M313.5 50h0.0"></path><path d="M350.5 50h0.0"></path><rect height="22" rx="10" ry="10" width="37.0" x="313.5" y="39"></rect><text x="332.0" y="54">NX</text></g><path d="M350.5 50a10 10 0 0 1 10 10v10a10 10 0 0 0 10 10"></path><path d="M293.5 80h20"></path><g class="terminal ">
<path d="M313.5 80h0.0"></path><path d="M350.5 80h0.0"></path><rect height="22" rx="10" ry="10" width="37.0" x="313.5" y="69"></rect><text x="332.0" y="84">XX</text></g><path d="M350.5 80h20"></path></g><path d="M370.5 80a10 10 0 0 0 10 -10v-29a10 10 0 0 1 10 -10"></path></g><g>
<path d="M390.5 31h0.0"></path><path d="M476.0 31h0.0"></path><path d="M390.5 31h20"></path><g>
<path d="M410.5 31h45.5"></path></g><path d="M456.0 31h20"></path><path d="M390.5 31a10 10 0 0 1 10 10v0a10 10 0 0 0 10 10"></path><g class="terminal ">
<path d="M410.5 51h0.0"></path><path d="M456.0 51h0.0"></path><rect height="22" rx="10" ry="10" width="45.5" x="410.5" y="40"></rect><text x="433.25" y="55">GET</text></g><path d="M456.0 51a10 10 0 0 0 10 -10v0a10 10 0 0 1 10 -10"></path></g></g><path d="M486.0 31a10 10 0 0 1 10 10v48a10 10 0 0 1 -10 10h-426.0a10 10 0 0 0 -10 10v0a10 10 0 0 0 10 10"></path><g>
<path d="M60.0 119h32.5"></path><path d="M453.5 119h32.5"></path><g>
<path d="M92.5 119h0.0"></path><path d="M453.5 119h0.0"></path><path d="M92.5 119h20"></path><g>
<path d="M112.5 119h321.0"></path></g><path d="M433.5 119h20"></path><path d="M92.5 119a10 10 0 0 1 10 10v59a10 10 0 0 0 10 10"></path><g>
<path d="M112.5 198h0.0"></path><path d="M433.5 198h0.0"></path><path d="M112.5 198a10 10 0 0 0 10 -10v-10a10 10 0 0 1 10 -10"></path><g>
<path d="M132.5 168h51.0"></path><path d="M362.5 168h51.0"></path><g class="terminal ">
<path d="M183.5 168h0.0"></path><path d="M220.5 168h0.0"></path><rect height="22" rx="10" ry="10" width="37.0" x="183.5" y="157"></rect><text x="202.0" y="172">PX</text></g><path d="M220.5 168h10"></path><path d="M230.5 168h10"></path><g class="non-terminal ">
<path d="M240.5 168h0.0"></path><path d="M362.5 168h0.0"></path><rect height="22" width="122.0" x="240.5" y="157"></rect><text x="301.5" y="172">milliseconds</text><title>integer</title></g></g><path d="M413.5 168a10 10 0 0 1 10 10v10a10 10 0 0 0 10 10"></path><path d="M112.5 198a10 10 0 0 0 10 -10v-40a10 10 0 0 1 10 -10"></path><g>
<path d="M132.5 138h72.25"></path><path d="M341.25 138h72.25"></path><g class="terminal ">
<path d="M204.75 138h0.0"></path><path d="M241.75 138h0.0"></path><rect height="22" rx="10" ry="10" width="37.0" x="204.75" y="127"></rect><text x="223.25" y="142">EX</text></g><path d="M241.75 138h10"></path><path d="M251.75 138h10"></path><g class="non-terminal ">
<path d="M261.75 138h0.0"></path><path d="M341.25 138h0.0"></path><rect height="22" width="79.5" x="261.75" y="127"></rect><text x="301.5" y="142">seconds</text><title>integer</title></g></g><path d="M413.5 138a10 10 0 0 1 10 10v40a10 10 0 0 0 10 10"></path><path d="M112.5 198h20"></path><g>
<path d="M132.5 198h21.25"></path><path d="M392.25 198h21.25"></path><g class="terminal ">
<path d="M153.75 198h0.0"></path><path d="M207.75 198h0.0"></path><rect height="22" rx="10" ry="10" width="54.0" x="153.75" y="187"></rect><text x="180.75" y="202">EXAT</text></g><path d="M207.75 198h10"></path><path d="M217.75 198h10"></path><g class="non-terminal ">
<path d="M227.75 198h0.0"></path><path d="M392.25 198h0.0"></path><rect height="22" width="164.5" x="227.75" y="187"></rect><text x="310.0" y="202">unix-time-seconds</text><title>unix-time</title></g></g><path d="M413.5 198h20"></path><path d="M112.5 198a10 10 0 0 1 10 10v10a10 10 0 0 0 10 10"></path><g>
<path d="M132.5 228h0.0"></path><path d="M413.5 228h0.0"></path><g class="terminal ">
<path d="M132.5 228h0.0"></path><path d="M186.5 228h0.0"></path><rect height="22" rx="10" ry="10" width="54.0" x="132.5" y="217"></rect><text x="159.5" y="232">PXAT</text></g><path d="M186.5 228h10"></path><path d="M196.5 228h10"></path><g class="non-terminal ">
<path d="M206.5 228h0.0"></path><path d="M413.5 228h0.0"></path><rect height="22" width="207.0" x="206.5" y="217"></rect><text x="310.0" y="232">unix-time-milliseconds</text><title>unix-time</title></g></g><path d="M413.5 228a10 10 0 0 0 10 -10v-10a10 10 0 0 1 10 -10"></path><path d="M112.5 198a10 10 0 0 1 10 10v40a10 10 0 0 0 10 10"></path><g class="terminal ">
<path d="M132.5 258h100.75"></path><path d="M312.75 258h100.75"></path><rect height="22" rx="10" ry="10" width="79.5" x="233.25" y="247"></rect><text x="273.0" y="262">KEEPTTL</text></g><path d="M413.5 258a10 10 0 0 0 10 -10v-40a10 10 0 0 1 10 -10"></path></g><path d="M433.5 198a10 10 0 0 0 10 -10v-59a10 10 0 0 1 10 -10"></path></g></g><path d="M486.0 119h10"></path><path d="M496.0 119h0.0"></path></g><path d="M496.0 119h10"></path><path d="M 506.0 119 h 20 m -10 -10 v 20 m 10 -20 v 20"></path></g></svg>