<svg class="railroad-diagram" viewBox="0 0 722.0 229" xmlns="http://www.w3.org/2000/svg" xmlns:xlink="http://www.w3.org/1999/xlink">
<g transform="translate(.5 .5)">
<g>
<path d="M20 21v20m10 -20v20m-10 -10h20"></path></g><path d="M40 31h10"></path><g>
<path d="M50 31h0.0"></path><path d="M50.0 31h10"></path><g>
<path d="M60.0 31h10.0"></path><path d="M652.0 31h10.0"></path><g class="terminal ">
<path d="M70.0 31h0.0"></path><path d="M124.0 31h0.0"></path><rect height="22" rx="10" ry="10" width="54.0" x="70.0" y="20"></rect><text x="97.0" y="35">SORT</text></g><path d="M124.0 31h10"></path><path d="M134.0 31h10"></path><g class="non-terminal ">
<path d="M144.0 31h0.0"></path><path d="M189.5 31h0.0"></path><rect height="22" width="45.5" x="144.0" y="20"></rect><text x="166.75" y="35">key</text><title>key</title></g><path d="M189.5 31h10"></path><g>
<path d="M199.5 31h0.0"></path><path d="M376.0 31h0.0"></path><path d="M199.5 31h20"></path><g>
<path d="M219.5 31h136.5"></path></g><path d="M356.0 31h20"></path><path d="M199.5 31a10 10 0 0 1 10 10v0a10 10 0 0 0 10 10"></path><g>
<path d="M219.5 51h0.0"></path><path d="M356.0 51h0.0"></path><g class="terminal ">
<path d="M219.5 51h0.0"></path><path d="M256.5 51h0.0"></path><rect height="22" rx="10" ry="10" width="37.0" x="219.5" y="40"></rect><text x="238.0" y="55">BY</text></g><path d="M256.5 51h10"></path><path d="M266.5 51h10"></path><g class="non-terminal ">
<path d="M276.5 51h0.0"></path><path d="M356.0 51h0.0"></path><rect height="22" width="79.5" x="276.5" y="40"></rect><text x="316.25" y="55">pattern</text><title>pattern</title></g></g><path d="M356.0 51a10 10 0 0 0 10 -10v0a10 10 0 0 1 10 -10"></path></g><g>
<path d="M376.0 31h0.0"></path><path d="M652.0 31h0.0"></path><path d="M376.0 31h20"></path><g>
<path d="M396.0 31h236.0"></path></g><path d="M632.0 31h20"></path><path d="M376.0 31a10 10 0 0 1 10 10v0a10 10 0 0 0 10 10"></path><g>
<path d="M396.0 51h0.0"></path><path d="M632.0 51h0.0"></path><g class="terminal ">
<path d="M396.0 51h0.0"></path><path d="M458.5 51h0.0"></path><rect height="22" rx="10" ry="10" width="62.5" x="396.0" y="40"></rect><text x="427.25" y="55">LIMIT</text></g><path d="M458.5 51h10"></path><path d="M468.5 51h10"></path><g>
<path d="M478.5 51h0.0"></path><path d="M632.0 51h0.0"></path><g class="non-terminal ">
<path d="M478.5 51h0.0"></path><path d="M549.5 51h0.0"></path><rect height="22" width="71.0" x="478.5" y="40"></rect><text x="514.0" y="55">offset</text><title>integer</title></g><path d="M549.5 51h10"></path><path d="M559.5 51h10"></path><g class="non-terminal ">
<path d="M569.5 51h0.0"></path><path d="M632.0 51h0.0"></path><rect height="22" width="62.5" x="569.5" y="40"></rect><text x="600.75" y="55">count</text><title>integer</title></g></g></g><path d="M632.0 51a10 10 0 0 0 10 -10v0a10 10 0 0 1 10 -10"></path></g></g><path d="M662.0 31a10 10 0 0 1 10 10v19a10 10 0 0 1 -10 10h-602.0a10 10 0 0 0 -10 10v0a10 10 0 0 0 10 10"></path><g>
<path d="M60.0 90h80.25"></path><path d="M581.75 90h80.25"></path><g>
<path d="M140.25 90h0.0"></path><path d="M345.25 90h0.0"></path><path d="M140.25 90h20"></path><g>
<path d="M160.25 90h165.0"></path></g><path d="M325.25 90h20"></path><path d="M140.25 90a10 10 0 0 1 10 10v0a10 10 0 0 0 10 10"></path><g>
<path d="M160.25 110h0.0"></path><path d="M325.25 110h0.0"></path><path d="M160.25 110h10"></path><g>
<path d="M170.25 110h0.0"></path><path d="M315.25 110h0.0"></path><g class="terminal ">
<path d="M170.25 110h0.0"></path><path d="M215.75 110h0.0"></path><rect height="22" rx="10" ry="10" width="45.5" x="170.25" y="99"></rect><text x="193.0" y="114">GET</text></g><path d="M215.75 110h10"></path><path d="M225.75 110h10"></path><g class="non-terminal ">
<path d="M235.75 110h0.0"></path><path d="M315.25 110h0.0"></path><rect height="22" width="79.5" x="235.75" y="99"></rect><text x="275.5" y="114">pattern</text><title>pattern</title></g></g><path d="M315.25 110h10"></path><path d="M170.25 110a10 10 0 0 0 -10 10v0a10 10 0 0 0 10 10"></path><g>
<path d="M170.25 130h145.0"></path></g><path d="M315.25 130a10 10 0 0 0 10 -10v0a10 10 0 0 0 -10 -10"></path></g><path d="M325.25 110a10 10 0 0 0 10 -10v0a10 10 0 0 1 10 -10"></path></g><g>
<path d="M345.25 90h0.0"></path><path d="M479.25 90h0.0"></path><path d="M345.25 90h20"></path><g>
<path d="M365.25 90h94.0"></path></g><path d="M459.25 90h20"></path><path d="M345.25 90a10 10 0 0 1 10 10v29a10 10 0 0 0 10 10"></path><g>
<path d="M365.25 139h0.0"></path><path d="M459.25 139h0.0"></path><path d="M365.25 139a10 10 0 0 0 10 -10v-10a10 10 0 0 1 10 -10"></path><g class="terminal ">
<path d="M385.25 109h4.25"></path><path d="M435.0 109h4.25"></path><rect height="22" rx="10" ry="10" width="45.5" x="389.5" y="98"></rect><text x="412.25" y="113">ASC</text></g><path d="M439.25 109a10 10 0 0 1 10 10v10a10 10 0 0 0 10 10"></path><path d="M365.25 139h20"></path><g class="terminal ">
<path d="M385.25 139h0.0"></path><path d="M439.25 139h0.0"></path><rect height="22" rx="10" ry="10" width="54.0" x="385.25" y="128"></rect><text x="412.25" y="143">DESC</text></g><path d="M439.25 139h20"></path></g><path d="M459.25 139a10 10 0 0 0 10 -10v-29a10 10 0 0 1 10 -10"></path></g><g>
<path d="M479.25 90h0.0"></path><path d="M581.75 90h0.0"></path><path d="M479.25 90h20"></path><g>
<path d="M499.25 90h62.5"></path></g><path d="M561.75 90h20"></path><path d="M479.25 90a10 10 0 0 1 10 10v0a10 10 0 0 0 10 10"></path><g class="terminal ">
<path d="M499.25 110h0.0"></path><path d="M561.75 110h0.0"></path><rect height="22" rx="10" ry="10" width="62.5" x="499.25" y="99"></rect><text x="530.5" y="114">ALPHA</text></g><path d="M561.75 110a10 10 0 0 0 10 -10v0a10 10 0 0 1 10 -10"></path></g></g><path d="M662.0 90a10 10 0 0 1 10 10v48a10 10 0 0 1 -10 10h-602.0a10 10 0 0 0 -10 10v0a10 10 0 0 0 10 10"></path><g>
<path d="M60.0 178h183.0"></path><path d="M479.0 178h183.0"></path><g>
<path d="M243.0 178h0.0"></path><path d="M479.0 178h0.0"></path><path d="M243.0 178h20"></path><g>
<path d="M263.0 178h196.0"></path></g><path d="M459.0 178h20"></path><path d="M243.0 178a10 10 0 0 1 10 10v0a10 10 0 0 0 10 10"></path><g>
<path d="M263.0 198h0.0"></path><path d="M459.0 198h0.0"></path><g class="terminal ">
<path d="M263.0 198h0.0"></path><path d="M325.5 198h0.0"></path><rect height="22" rx="10" ry="10" width="62.5" x="263.0" y="187"></rect><text x="294.25" y="202">STORE</text></g><path d="M325.5 198h10"></path><path d="M335.5 198h10"></path><g class="non-terminal ">
<path d="M345.5 198h0.0"></path><path d="M459.0 198h0.0"></path><rect height="22" width="113.5" x="345.5" y="187"></rect><text x="402.25" y="202">destination</text><title>key</title></g></g><path d="M459.0 198a10 10 0 0 0 10 -10v0a10 10 0 0 1 10 -10"></path></g></g><path d="M662.0 178h10"></path><path d="M672.0 178h0.0"></path></g><path d="M672.0 178h10"></path><path d="M 682.0 178 h 20 m -10 -10 v 20 m 10 -20 v 20"></path></g></svg>