<svg class="railroad-diagram" viewBox="0 0 674.5 159" xmlns="http://www.w3.org/2000/svg" xmlns:xlink="http://www.w3.org/1999/xlink">
<g transform="translate(.5 .5)">
<g>
<path d="M20 21v20m10 -20v20m-10 -10h20"></path></g><path d="M40 31h10"></path><g>
<path d="M50 31h0.0"></path><path d="M50.0 31h10"></path><g>
<path d="M60.0 31h10.0"></path><path d="M604.5 31h10.0"></path><g class="terminal ">
<path d="M70.0 31h0.0"></path><path d="M124.0 31h0.0"></path><rect height="22" rx="10" ry="10" width="54.0" x="70.0" y="20"></rect><text x="97.0" y="35">ZADD</text></g><path d="M124.0 31h10"></path><path d="M134.0 31h10"></path><g class="non-terminal ">
<path d="M144.0 31h0.0"></path><path d="M189.5 31h0.0"></path><rect height="22" width="45.5" x="144.0" y="20"></rect><text x="166.75" y="35">key</text><title>key</title></g><path d="M189.5 31h10"></path><g>
<path d="M199.5 31h0.0"></path><path d="M316.5 31h0.0"></path><path d="M199.5 31h20"></path><g>
<path d="M219.5 31h77.0"></path></g><path d="M296.5 31h20"></path><path d="M199.5 31a10 10 0 0 1 10 10v29a10 10 0 0 0 10 10"></path><g>
<path d="M219.5 80h0.0"></path><path d="M296.5 80h0.0"></path><path d="M219.5 80a10 10 0 0 0 10 -10v-10a10 10 0 0 1 10 -10"></path><g class="terminal ">
<path d="M239.5 50h0.0"></path><path d="M276.5 50h0.0"></path><rect height="22" rx="10" ry="10" width="37.0" x="239.5" y="39"></rect><text x="258.0" y="54">NX</text></g><path d="M276.5 50a10 10 0 0 1 10 10v10a10 10 0 0 0 10 10"></path><path d="M219.5 80h20"></path><g class="terminal ">
<path d="M239.5 80h0.0"></path><path d="M276.5 80h0.0"></path><rect height="22" rx="10" ry="10" width="37.0" x="239.5" y="69"></rect><text x="258.0" y="84">XX</text></g><path d="M276.5 80h20"></path></g><path d="M296.5 80a10 10 0 0 0 10 -10v-29a10 10 0 0 1 10 -10"></path></g><g>
<path d="M316.5 31h0.0"></path><path d="M433.5 31h0.0"></path><path d="M316.5 31h20"></path><g>
<path d="M336.5 31h77.0"></path></g><path d="M413.5 31h20"></path><path d="M316.5 31a10 10 0 0 1 10 10v29a10 10 0 0 0 10 10"></path><g>
<path d="M336.5 80h0.0"></path><path d="M413.5 80h0.0"></path><path d="M336.5 80a10 10 0 0 0 10 -10v-10a10 10 0 0 1 10 -10"></path><g class="terminal ">
<path d="M356.5 50h0.0"></path><path d="M393.5 50h0.0"></path><rect height="22" rx="10" ry="10" width="37.0" x="356.5" y="39"></rect><text x="375.0" y="54">GT</text></g><path d="M393.5 50a10 10 0 0 1 10 10v10a10 10 0 0 0 10 10"></path><path d="M336.5 80h20"></path><g class="terminal ">
<path d="M356.5 80h0.0"></path><path d="M393.5 80h0.0"></path><rect height="22" rx="10" ry="10" width="37.0" x="356.5" y="69"></rect><text x="375.0" y="84">LT</text></g><path d="M393.5 80h20"></path></g><path d="M413.5 80a10 10 0 0 0 10 -10v-29a10 10 0 0 1 10 -10"></path></g><g>
<path d="M433.5 31h0.0"></path><path d="M510.5 31h0.0"></path><path d="M433.5 31h20"></path><g>
<path d="M453.5 31h37.0"></path></g><path d="M490.5 31h20"></path><path d="M433.5 31a10 10 0 0 1 10 10v0a10 10 0 0 0 10 10"></path><g class="terminal ">
<path d="M453.5 51h0.0"></path><path d="M490.5 51h0.0"></path><rect height="22" rx="10" ry="10" width="37.0" x="453.5" y="40"></rect><text x="472.0" y="55">CH</text></g><path d="M490.5 51a10 10 0 0 0 10 -10v0a10 10 0 0 1 10 -10"></path></g><g>
<path d="M510.5 31h0.0"></path><path d="M604.5 31h0.0"></path><path d="M510.5 31h20"></path><g>
<path d="M530.5 31h54.0"></path></g><path d="M584.5 31h20"></path><path d="M510.5 31a10 10 0 0 1 10 10v0a10 10 0 0 0 10 10"></path><g class="terminal ">
<path d="M530.5 51h0.0"></path><path d="M584.5 51h0.0"></path><rect height="22" rx="10" ry="10" width="54.0" x="530.5" y="40"></rect><text x="557.5" y="55">INCR</text></g><path d="M584.5 51a10 10 0 0 0 10 -10v0a10 10 0 0 1 10 -10"></path></g></g><path d="M614.5 31a10 10 0 0 1 10 10v48a10 10 0 0 1 -10 10h-554.5a10 10 0 0 0 -10 10v0a10 10 0 0 0 10 10"></path><g>
<path d="M60.0 119h190.5"></path><path d="M424.0 119h190.5"></path><g>
<path d="M250.5 119h0.0"></path><path d="M424.0 119h0.0"></path><path d="M250.5 119h10"></path><g>
<path d="M260.5 119h0.0"></path><path d="M414.0 119h0.0"></path><g class="non-terminal ">
<path d="M260.5 119h0.0"></path><path d="M323.0 119h0.0"></path><rect height="22" width="62.5" x="260.5" y="108"></rect><text x="291.75" y="123">score</text><title>double</title></g><path d="M323.0 119h10"></path><path d="M333.0 119h10"></path><g class="non-terminal ">
<path d="M343.0 119h0.0"></path><path d="M414.0 119h0.0"></path><rect height="22" width="71.0" x="343.0" y="108"></rect><text x="378.5" y="123">member</text><title>string</title></g></g><path d="M414.0 119h10"></path><path d="M260.5 119a10 10 0 0 0 -10 10v0a10 10 0 0 0 10 10"></path><g>
<path d="M260.5 139h153.5"></path></g><path d="M414.0 139a10 10 0 0 0 10 -10v0a10 10 0 0 0 -10 -10"></path></g></g><path d="M614.5 119h10"></path><path d="M624.5 119h0.0"></path></g><path d="M624.5 119h10"></path><path d="M 634.5 119 h 20 m -10 -10 v 20 m 10 -20 v 20"></path></g></svg>