<svg class="railroad-diagram" viewBox="0 0 498.0 62" xmlns="http://www.w3.org/2000/svg" xmlns:xlink="http://www.w3.org/1999/xlink">
<g transform="translate(.5 .5)">
<g>
<path d="M20 21v20m10 -20v20m-10 -10h20"></path></g><path d="M40 31h10"></path><g>
<path d="M50 31h0.0"></path><g>
<path d="M50.0 31h10.0"></path><path d="M438.0 31h10.0"></path><g class="terminal ">
<path d="M60.0 31h0.0"></path><path d="M122.5 31h0.0"></path><rect height="22" rx="10" ry="10" width="62.5" x="60.0" y="20"></rect><text x="91.25" y="35">SMOVE</text></g><path d="M122.5 31h10"></path><path d="M132.5 31h10"></path><g class="non-terminal ">
<path d="M142.5 31h0.0"></path><path d="M213.5 31h0.0"></path><rect height="22" width="71.0" x="142.5" y="20"></rect><text x="178.0" y="35">source</text><title>key</title></g><path d="M213.5 31h10"></path><path d="M223.5 31h10"></path><g class="non-terminal ">
<path d="M233.5 31h0.0"></path><path d="M347.0 31h0.0"></path><rect height="22" width="113.5" x="233.5" y="20"></rect><text x="290.25" y="35">destination</text><title>key</title></g><path d="M347.0 31h10"></path><path d="M357.0 31h10"></path><g class="non-terminal ">
<path d="M367.0 31h0.0"></path><path d="M438.0 31h0.0"></path><rect height="22" width="71.0" x="367.0" y="20"></rect><text x="402.5" y="35">member</text><title>string</title></g></g><path d="M448.0 31h0.0"></path></g><path d="M448.0 31h10"></path><path d="M 458.0 31 h 20 m -10 -10 v 20 m 10 -20 v 20"></path></g></svg>