<svg class="railroad-diagram" viewBox="0 0 469.5 220" xmlns="http://www.w3.org/2000/svg" xmlns:xlink="http://www.w3.org/1999/xlink">
<g transform="translate(.5 .5)">
<g>
<path d="M20 111v20m10 -20v20m-10 -10h20"></path></g><path d="M40 121h10"></path><g>
<path d="M50 121h0.0"></path><g>
<path d="M50.0 121h10.0"></path><path d="M409.5 121h10.0"></path><g class="terminal ">
<path d="M60.0 121h0.0"></path><path d="M190.5 121h0.0"></path><rect height="22" rx="10" ry="10" width="130.5" x="60.0" y="110"></rect><text x="125.25" y="125">TS.QUERYINDEX</text></g><path d="M190.5 121h10"></path><path d="M200.5 121h10"></path><g>
<path d="M210.5 121h0.0"></path><path d="M409.5 121h0.0"></path><path d="M210.5 121h10"></path><g>
<path d="M220.5 121h0.0"></path><path d="M399.5 121h0.0"></path><path d="M220.5 121a10 10 0 0 0 10 -10v-10a10 10 0 0 1 10 -10"></path><g class="non-terminal ">
<path d="M240.5 91h51.0"></path><path d="M328.5 91h51.0"></path><rect height="22" width="37.0" x="291.5" y="80"></rect><text x="310.0" y="95">l=</text><title>string</title></g><path d="M379.5 91a10 10 0 0 1 10 10v10a10 10 0 0 0 10 10"></path><path d="M220.5 121a10 10 0 0 0 10 -10v-40a10 10 0 0 1 10 -10"></path><g class="non-terminal ">
<path d="M240.5 61h42.5"></path><path d="M337.0 61h42.5"></path><rect height="22" width="54.0" x="283.0" y="50"></rect><text x="310.0" y="65">l!=v</text><title>string</title></g><path d="M379.5 61a10 10 0 0 1 10 10v40a10 10 0 0 0 10 10"></path><path d="M220.5 121a10 10 0 0 0 10 -10v-70a10 10 0 0 1 10 -10"></path><g class="non-terminal ">
<path d="M240.5 31h46.75"></path><path d="M332.75 31h46.75"></path><rect height="22" width="45.5" x="287.25" y="20"></rect><text x="310.0" y="35">l=v</text><title>string</title></g><path d="M379.5 31a10 10 0 0 1 10 10v70a10 10 0 0 0 10 10"></path><path d="M220.5 121h20"></path><g class="non-terminal ">
<path d="M240.5 121h46.75"></path><path d="M332.75 121h46.75"></path><rect height="22" width="45.5" x="287.25" y="110"></rect><text x="310.0" y="125">l!=</text><title>string</title></g><path d="M379.5 121h20"></path><path d="M220.5 121a10 10 0 0 1 10 10v10a10 10 0 0 0 10 10"></path><g class="non-terminal ">
<path d="M240.5 151h4.25"></path><path d="M375.25 151h4.25"></path><rect height="22" width="130.5" x="244.75" y="140"></rect><text x="310.0" y="155">l=(v1,v2,...)</text><title>string</title></g><path d="M379.5 151a10 10 0 0 0 10 -10v-10a10 10 0 0 1 10 -10"></path><path d="M220.5 121a10 10 0 0 1 10 10v40a10 10 0 0 0 10 10"></path><g class="non-terminal ">
<path d="M240.5 181h0.0"></path><path d="M379.5 181h0.0"></path><rect height="22" width="139.0" x="240.5" y="170"></rect><text x="310.0" y="185">l!=(v1,v2,...)</text><title>string</title></g><path d="M379.5 181a10 10 0 0 0 10 -10v-40a10 10 0 0 1 10 -10"></path></g><path d="M399.5 121h10"></path><path d="M220.5 121a10 10 0 0 0 -10 10v59a10 10 0 0 0 10 10"></path><g>
<path d="M220.5 200h179.0"></path></g><path d="M399.5 200a10 10 0 0 0 10 -10v-59a10 10 0 0 0 -10 -10"></path></g></g><path d="M419.5 121h0.0"></path></g><path d="M419.5 121h10"></path><path d="M 429.5 121 h 20 m -10 -10 v 20 m 10 -20 v 20"></path></g></svg>