<svg class="railroad-diagram" viewBox="0 0 344.5 71" xmlns="http://www.w3.org/2000/svg" xmlns:xlink="http://www.w3.org/1999/xlink">
<g transform="translate(.5 .5)">
<g>
<path d="M20 21v20m10 -20v20m-10 -10h20"></path></g><path d="M40 31h10"></path><g>
<path d="M50 31h0.0"></path><g>
<path d="M50.0 31h10.0"></path><path d="M284.5 31h10.0"></path><g class="terminal ">
<path d="M60.0 31h0.0"></path><path d="M190.5 31h0.0"></path><rect height="22" rx="10" ry="10" width="130.5" x="60.0" y="20"></rect><text x="125.25" y="35">SCRIPT EXISTS</text></g><path d="M190.5 31h10"></path><path d="M200.5 31h10"></path><g>
<path d="M210.5 31h0.0"></path><path d="M284.5 31h0.0"></path><path d="M210.5 31h10"></path><g class="non-terminal ">
<path d="M220.5 31h0.0"></path><path d="M274.5 31h0.0"></path><rect height="22" width="54.0" x="220.5" y="20"></rect><text x="247.5" y="35">sha1</text><title>string</title></g><path d="M274.5 31h10"></path><path d="M220.5 31a10 10 0 0 0 -10 10v0a10 10 0 0 0 10 10"></path><g>
<path d="M220.5 51h54.0"></path></g><path d="M274.5 51a10 10 0 0 0 10 -10v0a10 10 0 0 0 -10 -10"></path></g></g><path d="M294.5 31h0.0"></path></g><path d="M294.5 31h10"></path><path d="M 304.5 31 h 20 m -10 -10 v 20 m 10 -20 v 20"></path></g></svg>