<svg class="railroad-diagram" viewBox="0 0 522.5 82" xmlns="http://www.w3.org/2000/svg" xmlns:xlink="http://www.w3.org/1999/xlink">
<g transform="translate(.5 .5)">
<g>
<path d="M20 21v20m10 -20v20m-10 -10h20"></path></g><path d="M40 31h10"></path><g>
<path d="M50 31h0.0"></path><g>
<path d="M50.0 31h10.0"></path><path d="M462.5 31h10.0"></path><g class="terminal ">
<path d="M60.0 31h0.0"></path><path d="M122.5 31h0.0"></path><rect height="22" rx="10" ry="10" width="62.5" x="60.0" y="20"></rect><text x="91.25" y="35">ZDIFF</text></g><path d="M122.5 31h10"></path><path d="M132.5 31h10"></path><g class="non-terminal ">
<path d="M142.5 31h0.0"></path><path d="M222.0 31h0.0"></path><rect height="22" width="79.5" x="142.5" y="20"></rect><text x="182.25" y="35">numkeys</text><title>integer</title></g><path d="M222.0 31h10"></path><path d="M232.0 31h10"></path><g>
<path d="M242.0 31h0.0"></path><path d="M307.5 31h0.0"></path><path d="M242.0 31h10"></path><g class="non-terminal ">
<path d="M252.0 31h0.0"></path><path d="M297.5 31h0.0"></path><rect height="22" width="45.5" x="252.0" y="20"></rect><text x="274.75" y="35">key</text><title>key</title></g><path d="M297.5 31h10"></path><path d="M252.0 31a10 10 0 0 0 -10 10v0a10 10 0 0 0 10 10"></path><g>
<path d="M252.0 51h45.5"></path></g><path d="M297.5 51a10 10 0 0 0 10 -10v0a10 10 0 0 0 -10 -10"></path></g><path d="M307.5 31h10"></path><g>
<path d="M317.5 31h0.0"></path><path d="M462.5 31h0.0"></path><path d="M317.5 31h20"></path><g>
<path d="M337.5 31h105.0"></path></g><path d="M442.5 31h20"></path><path d="M317.5 31a10 10 0 0 1 10 10v0a10 10 0 0 0 10 10"></path><g class="terminal ">
<path d="M337.5 51h0.0"></path><path d="M442.5 51h0.0"></path><rect height="22" rx="10" ry="10" width="105.0" x="337.5" y="40"></rect><text x="390.0" y="55">WITHSCORES</text></g><path d="M442.5 51a10 10 0 0 0 10 -10v0a10 10 0 0 1 10 -10"></path></g></g><path d="M472.5 31h0.0"></path></g><path d="M472.5 31h10"></path><path d="M 482.5 31 h 20 m -10 -10 v 20 m 10 -20 v 20"></path></g></svg>