<svg class="railroad-diagram" viewBox="0 0 394.5 111" xmlns="http://www.w3.org/2000/svg" xmlns:xlink="http://www.w3.org/1999/xlink">
<g transform="translate(.5 .5)">
<g>
<path d="M20 21v20m10 -20v20m-10 -10h20"></path></g><path d="M40 31h10"></path><g>
<path d="M50 31h0.0"></path><g>
<path d="M50.0 31h10.0"></path><path d="M334.5 31h10.0"></path><g class="terminal ">
<path d="M60.0 31h0.0"></path><path d="M182.0 31h0.0"></path><rect height="22" rx="10" ry="10" width="122.0" x="60.0" y="20"></rect><text x="121.0" y="35">SCRIPT FLUSH</text></g><path d="M182.0 31h10"></path><g>
<path d="M192.0 31h0.0"></path><path d="M334.5 31h0.0"></path><path d="M192.0 31h20"></path><g>
<path d="M212.0 31h102.5"></path></g><path d="M314.5 31h20"></path><path d="M192.0 31a10 10 0 0 1 10 10v29a10 10 0 0 0 10 10"></path><g>
<path d="M212.0 80h0.0"></path><path d="M314.5 80h0.0"></path><path d="M212.0 80a10 10 0 0 0 10 -10v-10a10 10 0 0 1 10 -10"></path><g class="terminal ">
<path d="M232.0 50h0.0"></path><path d="M294.5 50h0.0"></path><rect height="22" rx="10" ry="10" width="62.5" x="232.0" y="39"></rect><text x="263.25" y="54">ASYNC</text></g><path d="M294.5 50a10 10 0 0 1 10 10v10a10 10 0 0 0 10 10"></path><path d="M212.0 80h20"></path><g class="terminal ">
<path d="M232.0 80h4.25"></path><path d="M290.25 80h4.25"></path><rect height="22" rx="10" ry="10" width="54.0" x="236.25" y="69"></rect><text x="263.25" y="84">SYNC</text></g><path d="M294.5 80h20"></path></g><path d="M314.5 80a10 10 0 0 0 10 -10v-29a10 10 0 0 1 10 -10"></path></g></g><path d="M344.5 31h0.0"></path></g><path d="M344.5 31h10"></path><path d="M 354.5 31 h 20 m -10 -10 v 20 m 10 -20 v 20"></path></g></svg>